<svg width="825" height="892" viewBox="0 0 825 892" fill="none" xmlns="http://www.w3.org/2000/svg">
<g clip-path="url(#clip0_100_384)">
<mask id="mask0_100_384" style="mask-type:luminance" maskUnits="userSpaceOnUse" x="0" y="0" width="825" height="892">
<path d="M824.51 0H0V891.97H824.51V0Z" fill="white"/>
</mask>
<g mask="url(#mask0_100_384)">
<path d="M361.453 291.87C363.583 293.95 365.553 296.16 367.363 298.51C368.243 299.36 368.783 300.39 368.993 301.61C369.863 304.12 370.853 306.7 371.423 309.3C371.953 311.75 372.193 314.18 372.413 316.67C372.693 319.87 372.713 323.32 372.263 326.51" stroke="black" stroke-width="1.7" stroke-linecap="round" stroke-linejoin="round"/>
<path d="M371.68 341.37C370.78 345.37 370.11 349.53 368.63 353.36C368.32 354.14 367.66 355.25 367.78 356.14" stroke="black" stroke-width="1.7" stroke-linecap="round" stroke-linejoin="round"/>
<path d="M361.36 370.18C359.6 371.56 356.2 373.37 355.23 375.78C354.95 376.47 354.57 377.05 354.24 377.7C353.06 379.99 352.43 382.29 352.54 384.83C352.67 388 353.66 390.96 355.48 393.58C357.12 395.95 360.78 396.83 363.51 396.87C364.5 396.89 365.67 396.83 366.61 396.48C367.26 396.24 367.82 395.83 368.52 394.93C367.25 393.14 365.05 391.25 365.53 388.88C365.7 388.1 366.2 387.25 367.05 387.03C368.34 386.69 370 387.66 371.02 388.34C372.44 389.29 373.5 390.72 374.55 392.03C375.29 392.96 375.92 393.79 376.39 394.87C376.66 395.48 377.12 396.51 377.62 397C379.03 398.39 381.47 397.54 383.4 397C385.31 394.28 387.06 391.31 389.27 388.83C390.06 387.95 391.25 386.61 392.46 386.33C394.53 385.86 396.44 387.21 396.71 389.23C396.96 391.15 396.42 393.14 395.02 394.72C396.97 394.33 401.16 394.2 402.77 392.3C403.25 391.73 403.85 391.29 404.37 390.76C405.5 389.59 406.48 387.99 407.18 386.52C407.65 385.54 408.28 384.43 408.4 383.34C408.52 382.24 408.16 381.01 408.04 379.92C407.81 377.82 406.88 376.15 405.84 374.32C405.05 372.91 404.05 371.7 402.85 370.61C401.9 369.75 400.73 369.46 399.55 369.02" stroke="black" stroke-width="1.7" stroke-linecap="round" stroke-linejoin="round"/>
<path d="M348.37 338.45C347.04 340.52 344.75 345.23 342.13 346.93C341.42 347.38 340.68 347.82 339.95 348.25C338.26 349.25 336.2 349.82 334.23 349.67" stroke="black" stroke-width="1.7" stroke-linecap="round" stroke-linejoin="round"/>
<path d="M406.68 337.76C410.07 341.19 413.26 344.09 417.92 345.39C419.64 345.87 421.56 345.81 423.25 346.41" stroke="black" stroke-width="1.7" stroke-linecap="round" stroke-linejoin="round"/>
<path d="M418.832 389.65C424.092 395.79 429.212 402.02 433.952 408.57C435.982 411.38 438.472 413.92 440.222 416.93C442.392 420.68 443.662 424.86 444.662 429.03" stroke="black" stroke-width="1.7" stroke-linecap="round" stroke-linejoin="round"/>
<path d="M341.432 390.63C337.572 394.76 333.612 398.85 330.022 403.22C328.492 405.09 326.702 406.99 325.582 409.13C323.892 412.36 322.222 415.59 320.652 418.88C319.652 421 318.482 422.95 317.662 425.17C317.152 426.52 316.832 427.94 316.352 429.31" stroke="black" stroke-width="1.7" stroke-linecap="round" stroke-linejoin="round"/>
<path d="M330.543 431.57C331.123 431.66 331.703 431.76 332.283 431.85C335.693 432.4 339.213 432.9 342.643 432.55C344.443 432.37 346.173 432.32 347.973 432.25C352.383 432.1 356.753 431.81 361.173 431.9C363.533 431.95 365.893 432.29 368.243 432.54C370.423 432.76 372.593 432.84 374.763 433.13C377.943 433.54 381.323 434.1 384.523 433.91C388.083 433.69 391.683 432.33 394.973 431C399.093 429.35 403.593 429.36 407.953 429.39C412.423 429.42 416.873 429.88 421.343 429.9C422.303 429.9 423.433 429.9 424.613 429.83C426.003 429.75 427.473 429.57 428.813 429.2C430.163 428.83 431.393 428.26 432.303 427.39" stroke="black" stroke-width="1.7" stroke-linecap="round" stroke-linejoin="round"/>
<path d="M424.601 429.23H424.571C422.491 429.23 420.681 428.01 418.881 427.11C414.561 424.96 410.331 422.86 405.621 421.64C403.881 421.19 402.261 420.74 400.451 420.69C398.151 420.62 395.761 420.64 393.491 421.03C392.131 421.25 390.611 421.38 389.311 421.86C388.011 422.34 386.781 422.88 385.441 423.29C383.971 423.74 382.371 423.8 380.841 423.72C379.391 423.64 377.761 423.61 376.341 423.25C374.891 422.89 373.551 422.25 372.051 421.99C371.271 421.86 370.531 421.57 369.741 421.52C368.721 421.45 367.661 421.51 366.641 421.52C362.351 421.58 358.021 423.32 354.301 425.36C352.641 426.28 350.841 427.09 349.301 428.21C348.311 428.93 347.471 429.34 346.321 429.76C345.141 430.19 343.971 430.68 342.811 431.16C339.951 432.36 335.891 432.16 332.051 431.73C332.121 431.77 332.201 431.8 332.281 431.84C334.301 432.84 337.931 434.25 339.741 435.96C340.531 436.72 341.321 437.11 342.311 437.62C344.531 438.75 346.711 440.08 349.031 441.01C351.851 442.15 354.881 442.77 357.841 443.39C359.921 443.82 362.051 444.35 364.161 444.59C369.361 445.18 374.541 445.14 379.751 445.41C382.001 445.52 384.231 445.69 386.491 445.61C388.601 445.54 390.591 445.13 392.671 444.9C397.231 444.39 401.631 443.23 406.131 442.39C407.901 442.05 409.651 441.51 411.321 440.83C413.111 440.09 415.191 439.38 416.881 438.41C418.191 437.64 419.491 436.84 420.821 436.12C421.971 435.5 423.011 434.87 423.931 433.95C424.781 433.1 425.401 432.12 426.311 431.35C427.151 430.64 427.831 429.86 428.721 429.25C428.751 429.23 428.781 429.21 428.811 429.19C429.221 428.91 429.871 428.54 430.121 428.22" stroke="black" stroke-width="1.7" stroke-linecap="round" stroke-linejoin="round"/>
<path d="M349.121 317.6C349.121 317.6 349.101 317.59 349.091 317.59C348.941 317.59 348.421 318.1 348.201 318.3C347.531 318.91 346.891 319.48 346.161 320.02C345.181 320.74 344.201 321.44 343.211 322.13C341.971 322.97 340.721 323.79 339.431 324.59C338.461 325.19 337.371 325.63 336.321 326.06C335.341 326.46 334.321 326.78 333.361 327.22C332.411 327.65 331.531 328.3 330.541 328.63C329.091 329.12 327.571 329.41 326.081 329.84C325.871 329.91 325.661 329.97 325.451 330.04C324.431 330.38 323.321 330.57 322.251 330.71C319.001 331.12 315.541 330.7 312.281 330.53C309.491 330.38 306.781 329.78 304.061 329.15C301.361 328.52 298.741 327.53 296.121 326.64C292.861 325.53 290.051 323.87 286.691 321.45C288.701 319.5 290.711 317.61 292.871 315.82C294.301 314.63 295.581 313.23 297.071 312.11C298.591 310.97 300.291 309.99 301.911 308.98C304.021 307.68 306.271 306.92 308.631 306.47C309.631 306.26 310.661 306.12 311.701 306.01C316.621 305.48 322.141 304.84 327.231 305.65C328.371 305.83 329.491 306.08 330.581 306.43C332.001 306.88 333.381 307.25 334.711 307.93C336.141 308.66 337.671 309.07 339.111 309.78C340.901 310.67 342.731 311.65 344.401 312.74C345.251 313.3 345.971 314 346.721 314.68C347.691 315.54 348.851 316.26 349.781 317.15C351.821 319.08 354.191 320.39 354.441 323.47C354.521 324.51 354.591 325.4 353.581 325.98C352.701 326.48 351.321 326.59 350.371 326.32C348.971 325.92 347.731 324.96 346.431 324.33C345.681 323.97 345.141 323.67 344.531 323.11C344.171 322.77 344.021 322.49 343.431 322.45" stroke="black" stroke-width="1.7" stroke-linecap="round" stroke-linejoin="round"/>
<path d="M308.78 307.22C307.01 309.12 304.93 310.83 304.64 313.51C304.52 314.62 304.42 315.73 304.43 316.85C304.45 319.69 305.24 321.97 306.86 324.25C308.59 326.66 310.17 328.51 313.16 329.41C315.62 330.16 318.12 330.32 320.69 330.32C322.6 330.32 324.29 330.27 326.05 329.73C326.38 329.62 326.72 329.5 327.06 329.36C329.07 328.53 330.56 326.76 331.65 324.86C332.47 323.45 332.84 321.79 333.06 320.18C333.19 319.19 333.49 318.2 333.56 317.18C333.65 315.89 333.36 314.56 333.09 313.31C332.72 311.52 331.84 310.22 330.73 308.82C330.31 308.3 328.11 306.08 327.17 306.08C327.04 306.08 326.93 306.12 326.86 306.22" stroke="black" stroke-width="1.7" stroke-linecap="round" stroke-linejoin="round"/>
<path d="M318.872 315.36C319.132 315.36 319.382 315.47 319.572 315.7C319.642 315.94 319.712 316.19 319.792 316.44C319.772 316.52 319.752 316.59 319.732 316.66C319.732 316.69 319.712 316.72 319.692 316.74C319.502 317.21 319.102 317.38 318.492 317.27" stroke="black" stroke-width="1.7" stroke-linecap="round" stroke-linejoin="round"/>
<path d="M317.47 318.14C317.29 317.36 317.53 316.27 318.04 315.73C318.12 315.64 318.21 315.56 318.31 315.51C318.45 315.43 318.6 315.38 318.75 315.38C318.78 315.36 318.8 315.36 318.83 315.37" stroke="black" stroke-width="1.7" stroke-linecap="round" stroke-linejoin="round"/>
<path d="M320.963 316C321.073 316.38 320.993 316.79 320.793 317.19C320.513 317.77 319.983 318.31 319.433 318.66C319.363 318.71 319.293 318.75 319.223 318.79C318.983 318.92 318.753 319 318.543 319.03C317.943 319.12 317.593 318.72 317.473 318.15" stroke="black" stroke-width="1.7" stroke-linecap="round" stroke-linejoin="round"/>
<path d="M319.83 317.6C319.78 317.31 319.74 317.02 319.69 316.74C319.69 316.71 319.69 316.68 319.69 316.65C319.71 316.65 319.73 316.65 319.74 316.66C320.19 316.73 320.54 316.9 320.8 317.19C320.92 317.33 321.01 317.48 321.09 317.66M321.09 317.66C321.12 317.73 321.15 317.8 321.17 317.87C320.95 318.11 320.69 318.31 320.4 318.45M321.09 317.66C321.35 317.14 321.36 316.52 320.97 316C320.963 315.987 320.96 315.98 320.96 315.98M321.09 317.66C320.94 317.97 320.7 318.25 320.4 318.45M320.4 318.45C320.09 318.59 319.76 318.67 319.44 318.66C318.94 318.64 318.46 318.4 318.16 317.85C317.8 317.2 317.65 316.66 318.04 316.01C318.23 315.7 318.51 315.49 318.84 315.37C318.85 315.37 318.86 315.37 318.88 315.36C319.48 315.17 320.21 315.3 320.7 315.71C320.8 315.8 320.89 315.89 320.96 315.98M320.4 318.45C320.23 318.57 320.03 318.66 319.83 318.71C319.64 318.76 319.44 318.78 319.23 318.79C318.59 318.81 317.9 318.61 317.48 318.15C317.27 317.92 317.13 317.62 317.09 317.26C317.04 316.67 317.46 316.12 318.05 315.73C318.27 315.58 318.51 315.46 318.76 315.38C319.68 315.04 320.69 315.12 320.96 315.98" stroke="black" stroke-width="1.7" stroke-linecap="round" stroke-linejoin="round"/>
<path d="M467.111 315.59C466.891 315.98 466.361 316.12 466.001 316.36C465.941 316.4 465.881 316.44 465.821 316.49C465.151 316.96 464.541 317.54 463.881 318.02C461.931 319.43 459.991 320.84 457.891 322.03C453.001 324.77 447.261 326.03 441.741 326.64C440.631 326.76 439.521 326.84 438.411 326.89C436.821 326.96 435.231 326.97 433.641 326.97C430.921 326.98 428.281 326.48 425.601 326.1C422.801 325.71 420.081 324.57 417.471 323.54C416.001 322.95 414.621 322.26 413.271 321.47C411.051 320.19 408.911 318.67 406.631 317.01C406.591 316.98 406.561 316.96 406.521 316.93C405.441 318.57 403.761 320.32 403.421 322.32C403.341 322.83 403.201 323.29 403.091 323.78C402.801 325.06 403.081 326.89 404.541 327.23C406.841 327.78 409.301 326.28 410.891 324.71C411.581 324.03 412.061 323.18 412.881 322.62" stroke="black" stroke-width="1.7" stroke-linecap="round" stroke-linejoin="round"/>
<path d="M406.02 317.77C406.22 317.51 406.43 317.26 406.63 317.01C408.06 315.25 409.41 313.89 411.18 312.47C412.35 311.54 413.54 310.4 414.86 309.67C415.82 309.14 416.76 308.59 417.73 308.07C418.99 307.38 420.23 306.88 421.53 306.26C422.71 305.7 423.71 305.02 424.96 304.63C425.27 304.54 425.58 304.44 425.89 304.36C426.63 304.14 427.36 303.93 428.1 303.71C431.17 302.82 434.89 302.81 438.02 303.27C440.74 303.67 443.42 303.98 446.07 304.67C446.31 304.73 446.56 304.8 446.8 304.87C449.64 305.69 452.32 307.05 454.93 308.4C457.52 309.73 460.21 311.22 462.34 313.2C462.85 313.68 465.88 316.19 465.77 316.43" stroke="black" stroke-width="1.7" stroke-linecap="round" stroke-linejoin="round"/>
<path d="M426.101 304.04C426.031 304.15 425.961 304.25 425.891 304.36C424.741 306.06 423.751 307.85 422.931 309.72C423.011 310.07 423.021 310.41 422.961 310.76C422.931 311.75 422.731 312.7 422.751 313.7C422.771 314.98 423.051 316.14 423.441 317.35C424.011 319.12 424.901 320.84 426.381 322.03C428.381 323.65 431.461 324.65 433.911 325.31C435.351 325.7 436.871 325.83 438.371 325.77C439.041 325.74 439.711 325.68 440.361 325.59C442.991 325.23 445.041 324.6 447.081 322.82C449.021 321.13 449.991 318.79 450.411 316.33C450.841 313.8 450.111 311.11 449.101 308.77C448.681 307.8 447.971 306.37 447.181 305.63C447.001 305.46 446.371 305.01 446.011 304.9C445.951 304.88 445.891 304.87 445.851 304.88" stroke="black" stroke-width="1.7" stroke-linecap="round" stroke-linejoin="round"/>
<path d="M438.513 314.3C438.513 314.3 438.513 314.36 438.503 314.38C438.343 315.17 437.533 315.68 436.812 315.93" stroke="black" stroke-width="1.7" stroke-linecap="round" stroke-linejoin="round"/>
<path d="M436.153 315.92C435.463 315.92 434.883 315.55 434.773 314.62C434.733 314.23 434.853 313.86 435.083 313.54C435.633 312.78 436.783 312.32 437.603 312.65C438.003 312.81 438.263 313.07 438.413 313.47C438.523 313.76 438.553 314.02 438.523 314.26" stroke="black" stroke-width="1.7" stroke-linecap="round" stroke-linejoin="round"/>
<path d="M438.49 314.36C438.17 315.25 437.08 315.92 436.16 315.92" stroke="black" stroke-width="1.7" stroke-linecap="round" stroke-linejoin="round"/>
<path d="M437.153 314.42C436.713 314.1 436.263 313.78 435.823 313.46C437.103 312.79 438.143 313.5 438.493 314.35M438.493 314.35C438.493 314.35 438.503 314.36 438.493 314.36C438.503 314.37 438.503 314.38 438.503 314.38C438.833 315.2 438.533 316.13 437.253 316.13C436.823 316.13 436.463 316.06 436.163 315.92H436.153C435.183 315.5 434.913 314.47 435.083 313.54C435.313 312.32 436.303 311.27 437.443 312.07C438.483 312.8 438.723 313.59 438.523 314.26C438.523 314.26 438.523 314.29 438.513 314.3C438.513 314.32 438.513 314.33 438.493 314.35Z" stroke="black" stroke-width="1.7" stroke-linecap="round" stroke-linejoin="round"/>
<path d="M403.012 285.47C404.282 287.42 405.472 289.39 406.702 291.37C406.192 289.15 405.662 286.92 405.352 284.67C405.262 284.03 404.842 282.73 405.262 282.2C407.422 284.19 409.012 286.52 410.872 288.75C411.232 287.84 410.512 286.04 410.392 285.05C410.222 283.77 409.622 281.94 410.072 280.71C410.762 280.41 412.912 284.02 413.182 284.37C413.642 284.96 414.452 286.3 415.222 286.63C415.462 284.3 414.582 282.01 414.742 279.72C416.622 281.82 417.862 284.49 419.842 286.53C420.232 285.32 419.442 283.39 419.252 282.19C419.062 281.01 419.012 279.82 418.812 278.65C421.012 280.86 422.692 283.5 424.792 285.78C424.692 283.26 424.132 280.78 424.052 278.25C424.302 279.17 425.642 280.49 426.182 281.25C427.142 282.6 428.182 284.12 429.772 284.73C430.222 283.92 429.712 282.91 429.532 282.07C429.292 280.94 428.912 279.69 429.382 278.61C430.312 279.44 430.782 280.47 431.452 281.5C432.052 282.41 432.822 283.85 433.842 284.33C433.822 282.28 432.852 279.28 433.952 277.43C435.192 279.31 436.212 282.39 438.322 283.5C438.492 282.18 438.222 280.89 438.122 279.58C438.082 278.97 437.892 277.94 438.152 277.33C439.262 278.19 440.002 279.65 440.922 280.69C441.502 281.33 442.572 282.85 443.642 282.57C444.012 281.2 443.782 279.72 443.692 278.32C443.672 277.96 443.502 277.28 444.022 277.21C444.712 277.13 445.592 278.91 445.852 279.34C446.432 280.3 446.912 281.42 447.772 282.17C447.832 280.68 447.192 278.37 448.122 277.01C448.952 277.12 449.662 279.86 450.022 280.6C450.092 280.75 451.052 282.28 450.712 282.12" stroke="black" stroke-width="1.7" stroke-linecap="round" stroke-linejoin="round"/>
<path d="M450.871 282.62C451.551 280.95 452.391 279.37 453.381 277.87C453.921 279.59 453.901 281.43 454.451 283.13C455.041 282.59 455.251 281.36 455.521 280.67C455.701 280.22 456.001 279.11 456.371 278.85C456.461 280.17 456.451 281.58 456.731 282.88C456.811 283.25 456.871 283.67 457.191 283.9C457.961 282.64 458.551 280.21 459.931 279.42C459.911 280.13 459.921 280.81 459.991 281.52C460.061 282.35 459.911 284.49 460.631 285.01C462.241 284.58 462.411 281.34 464.191 281.36C464.571 282.43 464.451 283.52 464.431 284.64C464.421 285.05 464.281 285.47 464.601 285.76C465.731 285.3 466.631 284.51 467.591 283.77C468.061 283.4 469.011 282.45 469.671 282.38C469.581 284.14 468.791 286.06 469.141 287.8C469.761 287.83 470.891 287.26 471.311 287.12C472.471 286.71 473.751 286.09 474.981 286.05C475.161 286.86 473.171 289.31 473.901 289.85C474.481 290.29 476.391 289.29 476.861 289.13C477.351 288.96 478.151 288.63 478.631 288.62C478.461 289.46 477.951 290.21 477.591 290.98C477.421 291.34 477.281 291.93 476.951 292.18C478.861 292.09 480.781 292.27 482.681 292.13C483.411 292.08 484.281 291.77 485.021 291.83" stroke="black" stroke-width="1.7" stroke-linecap="round" stroke-linejoin="round"/>
<path d="M352.971 284.13C351.341 286.25 349.671 288.32 347.941 290.36C348.361 288.43 348.271 286.3 348.291 284.33C348.291 283.82 348.531 282.24 348.131 281.72C346.981 282.48 346.521 284.43 345.971 285.62C345.601 286.41 345.251 287.26 344.781 288C344.751 286.69 344.971 285.23 345.101 283.92C345.131 283.64 345.791 280.95 345.131 280.68C344.541 281.05 344.201 282.09 343.931 282.63C343.261 283.96 342.571 285.27 341.681 286.46C341.191 286.01 341.351 284.21 341.261 283.6C341.161 282.85 341.131 281.01 340.361 280.59C339.851 280.95 339.741 282.01 339.561 282.56C339.151 283.86 338.801 285.47 337.901 286.53C337.291 284.22 338.041 281.64 337.191 279.37C336.261 279.65 335.661 281.68 335.331 282.28C334.791 283.28 334.141 284.9 333.031 285.33C332.961 284.86 332.311 277.86 330.981 278.75C330.831 278.85 330.771 279.35 330.731 279.5C330.531 280.15 330.321 280.77 330.001 281.37C329.151 282.97 327.901 284.34 327.031 285.93C326.601 285.11 326.531 283.88 326.371 282.97C326.081 281.41 325.571 279.9 324.831 278.48C323.911 280.54 324.191 282.92 323.031 284.94C322.571 284.49 322.321 283.92 322.281 283.21C321.871 281.87 321.461 280.53 321.051 279.19C320.801 278.55 320.501 278.02 319.991 277.56C319.381 279.45 319.481 281.54 318.901 283.47C318.741 283.99 318.501 285.21 317.991 285.55C317.631 285.28 317.601 284.7 317.481 284.3C317.171 283.24 316.831 282.14 316.581 281.06C316.341 280.03 316.471 278.64 315.821 277.77C315.121 279.49 314.681 281.41 314.061 283.18C313.791 283.96 313.601 284.67 312.991 285.23C311.881 283.78 311.391 281.91 310.851 280.18C310.621 279.45 310.541 278.48 310.161 277.83C309.771 280.34 310.031 282.85 309.281 285.3C308.161 285.32 307.471 283.29 307.041 282.57C306.541 281.74 305.791 279.71 304.881 279.29C305.641 281.44 306.991 283.4 306.441 286.47C305.101 284.84 303.681 283.27 302.181 281.79C301.951 281.45 301.671 281.19 301.321 281.02C301.061 281.91 301.311 282.91 301.151 283.84C301.011 284.73 300.731 285.76 300.251 286.53C298.881 284.75 298.231 282.46 296.321 281.03C295.861 282.02 296.391 283.58 296.541 284.61C296.671 285.49 296.841 286.33 297.011 287.2C295.071 285.87 292.971 284.48 290.791 283.55C291.031 284.76 291.771 285.81 292.291 286.9C292.481 287.31 292.811 287.84 292.701 288.32C289.791 288.49 286.761 286.79 284.001 286.03C284.291 287.37 286.601 288.52 287.541 289.39C287.981 289.79 288.461 290.27 288.681 290.81C286.971 291.04 285.131 290.56 283.421 290.45C282.921 290.41 280.971 290.1 280.631 290.54C282.091 290.97 283.521 291.49 284.871 292.22C284.251 292.61 283.531 292.72 282.841 292.96C281.141 293.56 279.531 294.43 278.101 295.55C277.441 296.07 276.821 296.61 276.051 296.96C275.431 297.25 274.711 297.3 274.141 297.68" stroke="black" stroke-width="1.7" stroke-linecap="round" stroke-linejoin="round"/>
<path d="M256.092 317.8C256.162 318.86 256.232 319.92 256.162 321.05C255.892 325.35 256.052 329.36 256.522 333.64C257.042 338.42 257.582 343.02 258.852 347.68C260.192 352.58 261.562 357.51 263.282 362.29C267.002 372.63 271.352 382.53 277.122 391.93C279.822 396.34 282.842 400.1 286.602 403.69C289.282 406.25 292.082 409.39 295.282 411.33C294.722 409.52 292.182 407.28 291.192 406.02C289.842 404.31 288.572 402.54 287.322 400.75C284.842 397.21 282.842 393.44 280.522 389.79C276.222 383.02 273.162 374.81 271.212 367.05C270.392 363.77 269.732 360.44 269.152 357.11C268.492 353.35 268.622 349.48 268.372 345.68C267.982 339.6 267.762 333.53 267.442 327.44C267.142 321.97 266.502 316.51 266.282 311.04C266.002 304.02 266.342 296.88 268.092 290.08C268.662 287.87 268.642 285.66 269.092 283.44C269.462 281.57 270.022 279.75 270.422 277.88C272.332 268.88 275.172 259.97 279.212 251.67C280.592 248.82 281.772 245.85 283.062 242.96C285.672 237.14 289.132 232.41 293.572 227.84C296.612 224.71 299.592 221.67 303.182 219.19C304.502 218.27 305.592 217.08 306.792 216.02C308.632 214.41 310.662 213.03 312.682 211.65C317.042 208.68 321.262 205.46 325.932 202.99C328.782 201.48 331.742 199.69 334.802 198.65C338.812 197.28 342.362 195.08 346.472 193.85C361.282 189.43 376.932 191.25 392.052 192.55C396.612 192.95 400.852 193.16 405.222 194.65C408.132 195.63 411.082 197.16 414.092 197.77C417.852 198.52 421.482 199.88 425.212 200.8C427.052 201.25 429.092 201.24 430.782 202.18C432.992 203.41 435.112 204.92 437.112 207.28C437.572 207.83 438.032 208.41 438.482 209.05C441.682 207.34 445.092 206.54 448.712 206.63C450.762 206.63 452.702 207.04 454.542 207.86C455.662 208.34 456.942 208.84 457.972 209.5C462.232 212.25 466.012 215.4 469.852 218.72C480.232 227.66 486.342 240.16 489.212 253.44C491.812 265.41 492.512 277.67 495.412 289.55C495.892 291.53 499.752 307.29 501.542 306.25" stroke="black" stroke-width="1.7" stroke-linecap="round" stroke-linejoin="round"/>
<path d="M256.093 317.8C256.093 317.06 256.073 316.32 256.033 315.58C256.013 316.33 256.053 317.07 256.093 317.8Z" stroke="black" stroke-width="1.7" stroke-linecap="round" stroke-linejoin="round"/>
<path d="M331.3 491.69C330.65 491.27 329.57 491.38 328.82 491.15C327.47 490.74 326.11 490.38 324.77 489.95C321.44 488.87 318.44 487.31 315.55 485.4C313.29 483.9 311.17 482.33 309.23 480.56C307.71 479.19 306.29 477.69 304.99 476.01C302.88 473.32 301.61 469.96 300.54 466.75C299.18 462.66 297.6 458.55 296.02 454.53C294.58 450.89 293.57 447.12 292.15 443.47C289.02 435.44 285.05 427.59 281.2 419.91C280.32 417.27 278.91 412.83 276.89 408.64C275.09 404.91 272.79 401.63 270.64 398.13C267.22 392.56 264.47 386.56 262.09 380.49C260.51 376.45 258.91 372.37 257.57 368.24C256.4 364.63 255.95 360.76 255.4 357.02C254.81 352.98 254.01 348.8 253.95 344.7C253.83 335.74 256.13 326.79 256.09 317.8" stroke="black" stroke-width="1.7" stroke-linecap="round" stroke-linejoin="round"/>
<path d="M501.293 308.25C501.303 308.14 501.513 307.45 501.873 306.36C502.943 303.1 505.283 296.75 507.093 295.86C507.473 295.67 508.013 295.61 508.433 295.41C510.213 294.55 511.973 294.19 513.943 294.93C518.673 296.73 521.013 301.76 522.353 306.28C524.383 313.14 525.533 319.95 524.883 327.14C524.553 330.79 523.823 334.4 523.433 338.05C522.943 342.66 522.313 346.95 520.463 351.21C517.783 357.37 516.193 363.91 513.053 369.89C510.603 374.53 508.753 379.74 507.383 384.77C506.623 387.56 506.403 390.39 505.033 392.95C504.473 393.99 503.533 394.71 502.383 395.09C501.183 395.5 499.223 394.81 498.483 393.63C498.403 393.5 498.343 393.37 498.293 393.24" stroke="black" stroke-width="1.7" stroke-linecap="round" stroke-linejoin="round"/>
<path d="M501.291 308.25L501.281 308.28" stroke="black" stroke-width="1.7" stroke-linecap="round" stroke-linejoin="round"/>
<path d="M506.53 369.76C506.42 369.55 506.32 369.32 506.27 369.06" stroke="black" stroke-width="1.7" stroke-linecap="round" stroke-linejoin="round"/>
<path d="M506.533 369.76C506.253 369.47 506.103 369.08 505.413 369.02C503.823 368.88 502.463 370.51 501.363 371.44C501.153 370.92 501.453 370 501.593 369.4C502.023 367.43 502.633 365.51 503.013 363.53C503.393 361.58 504.143 359.88 504.713 357.99C505.343 355.9 505.693 353.39 505.863 351.23C506.263 346.25 504.053 343.17 501.043 339.65C502.963 333.75 504.233 327.72 506.403 321.93C507.203 319.79 508.103 317.76 509.393 315.84C510.403 314.35 512.133 314.26 513.583 315.6C518.163 319.85 517.413 326.51 517.143 332.22C517.033 334.74 516.603 337.18 516.013 339.63C515.463 341.92 514.453 344.03 513.813 346.3C512.503 351.03 512.053 355.99 510.653 360.68C509.983 362.91 509.293 365.16 508.523 367.34C508.113 368.51 507.883 370.12 507.213 371.14C507.083 370.58 506.773 370.2 506.533 369.76Z" stroke="black" stroke-width="1.7" stroke-linecap="round" stroke-linejoin="round"/>
<path d="M507.021 370.06C506.801 369.99 506.651 369.89 506.531 369.76" stroke="black" stroke-width="1.7" stroke-linecap="round" stroke-linejoin="round"/>
<path d="M499.04 392.99C498.85 393.2 498.66 393.42 498.48 393.63C497.51 394.71 496.63 395.78 495.8 396.88C494.01 399.23 492.46 401.69 491.06 404.47C490.23 406.12 489.43 407.77 488.76 409.5C487.72 412.15 486.35 414.67 485.45 417.37C482.33 426.66 478.83 435.76 475.36 444.92C473.03 451.08 469.65 456.69 467.25 462.8C465.93 466.16 464.26 469.37 462.27 472.37C460.05 475.69 457.96 479.03 455.06 481.8C452.54 484.22 449.2 486.13 446.13 487.78C443.6 489.14 440.89 490.03 438.13 490.76C437.04 491.04 435.96 491.41 434.86 491.69C433.93 491.93 432.09 492.08 431.25 492.69" stroke="black" stroke-width="1.7" stroke-linecap="round" stroke-linejoin="round"/>
<path d="M323.852 481.08C326.492 484.46 328.992 488.02 331.752 491.31C331.892 491.48 332.042 491.65 332.182 491.82C333.002 492.79 333.942 493.77 334.962 494.51C337.342 496.24 339.932 497.89 342.702 498.95C346.862 500.55 350.962 501.87 355.392 502.47C364.622 503.72 374.162 504.68 383.482 504.46C391.612 504.26 399.802 502.31 407.812 501.01C412.232 500.3 416.362 498.76 420.572 497.36C422.312 496.78 424.392 496.51 426.002 495.65C427.712 494.73 429.272 493.51 430.732 492.14C432.552 490.43 434.202 488.49 435.732 486.66C437.292 484.81 438.582 482.68 439.902 480.67C440.222 480.18 441.462 478.46 442.092 478.37" stroke="black" stroke-width="1.7" stroke-linecap="round" stroke-linejoin="round"/>
<path d="M496.03 397.06C494.74 401.56 493.15 410.74 491.93 415.25C491.27 417.7 490.86 420.24 490.24 422.7C489.53 425.51 489.12 428.33 488.54 431.16C487.51 436.21 486.29 441.2 485.37 446.28C482.52 462.08 479.22 478.13 479.28 494.23C479.29 497.87 479.01 501.61 479.33 505.23C479.62 508.65 481.36 511.83 482.89 514.84C483.95 516.94 485.78 518.64 487.3 520.41C488.74 522.09 490.4 523.61 492.02 525.15C492.59 525.69 493.15 526.23 493.7 526.78C495.63 528.71 497.62 530.59 499.5 532.57C500.18 533.29 500.75 534.14 501.49 534.79C501.54 534.8 501.58 534.79 501.61 534.79C501.69 534.76 501.72 534.68 501.7 534.55" stroke="black" stroke-width="1.7" stroke-linecap="round" stroke-linejoin="round"/>
<path d="M171.141 515.01C171.751 507.01 176.321 499.53 181.051 493.27C187.771 484.38 197.491 479.23 205.731 472.11C206.481 471.48 207.211 470.82 207.931 470.14C213.511 464.86 218.881 457.58 220.451 449.89C221.381 445.36 221.201 440.85 221.731 436.29C221.911 434.71 222.451 433.14 222.351 431.55C222.401 432.45 222.771 433.31 223.031 434.17C224.031 437.41 225.051 440.67 225.701 444.01C226.781 449.51 227.051 456.69 224.451 461.96C226.021 458.78 228.951 455.76 231.391 453.23C236.491 447.94 241.181 442.14 245.431 436.15C249.031 431.06 251.791 424.69 251.891 418.39C251.921 416.18 251.821 413.96 251.821 411.75" stroke="black" stroke-width="1.7" stroke-linecap="round" stroke-linejoin="round"/>
<path d="M171.142 515.01C171.162 515.99 171.142 516.96 171.102 517.93C171.052 516.95 171.072 515.98 171.142 515.01Z" stroke="black" stroke-width="1.7" stroke-linecap="round" stroke-linejoin="round"/>
<path d="M439.062 207.06C444.122 198.48 448.432 190.3 451.482 180.89C453.172 175.67 455.092 170.24 455.052 164.71V164.16C455.052 161.22 455.092 157.95 454.212 155.16C452.862 150.86 448.782 146.49 445.402 143.67C444.482 142.9 443.542 142.4 442.482 141.89C440.112 140.75 437.922 138.58 435.422 137.79C430.502 136.24 425.422 136.83 420.412 135.91C413.762 134.67 407.522 129.42 402.732 125.05C395.532 118.48 386.302 115.48 376.582 115.79C371.842 115.94 367.372 117.22 362.862 118.65C355.002 121.14 347.082 124.01 339.622 127.52C333.152 130.56 327.232 134.94 321.322 138.91C312.362 144.93 302.402 149.99 292.702 154.72C281.872 160.01 271.432 166.01 260.652 171.39C253.082 175.18 245.042 177.88 237.492 181.65C231.792 184.5 226.072 188.05 220.832 191.73C216.292 194.93 211.502 198.53 207.852 202.76C204.752 206.35 201.322 210.32 199.052 214.47C195.112 221.69 194.742 229.21 193.692 237.08C192.372 246.85 188.672 256.91 183.112 265.11C176.952 274.21 170.762 283.62 168.102 294.44C165.362 305.58 164.562 317.38 167.642 328.49C170.032 337.15 173.032 345.76 176.132 354.2C179.112 362.32 183.842 369.81 186.032 378.23C188.412 387.34 190.022 396.71 190.432 406.13C191.012 419.08 188.772 431.36 186.652 444.07C185.882 448.66 185.232 453.4 184.072 457.94C182.642 463.56 179.922 468.86 177.672 474.19C176.392 477.22 175.172 480.28 173.892 483.31C173.032 485.39 171.492 487.73 171.102 489.98C169.652 498.13 171.102 506.74 171.142 515.01" stroke="black" stroke-width="1.7" stroke-linecap="round" stroke-linejoin="round"/>
<path d="M297.582 604.62C303.742 611.9 310.502 618.72 315.602 626.81C320.432 634.44 323.772 642.91 324.792 651.88C324.842 652.19 324.872 652.49 324.902 652.8" stroke="black" stroke-width="1.7" stroke-linecap="round" stroke-linejoin="round"/>
<path d="M297.581 604.62C297.241 604.12 296.881 603.69 296.531 603.39C296.871 603.8 297.221 604.21 297.581 604.62Z" stroke="black" stroke-width="1.7" stroke-linecap="round" stroke-linejoin="round"/>
<path d="M205.642 471.74C205.672 471.86 205.702 471.99 205.732 472.11C207.912 481.45 210.532 491.04 210.812 500.67C211.362 504.55 210.772 508.3 209.042 511.91C208.522 513.57 208.002 515.24 207.482 516.9C207.362 517.3 207.232 517.7 207.112 518.1C205.072 524.6 202.702 530.98 198.632 536.54C196.602 539.32 194.272 541.76 192.032 544.34C190.232 546.41 188.892 548.77 187.242 550.95C185.702 552.99 184.032 554.98 182.292 556.86C181.462 557.75 179.562 558.82 179.462 560.03C185.322 558.95 191.322 556.82 196.852 554.69C200.512 553.29 204.042 551.84 207.312 549.65C210.952 547.2 214.482 543.85 217.102 540.34C217.732 539.5 218.522 538.56 218.782 537.51C218.752 539.44 218.312 541.41 218.172 543.31C217.782 548.93 218.742 554.8 217.552 560.37C215.722 568.92 211.052 575.47 206.332 582.75C201.982 589.45 195.782 591.99 188.392 594.24C185.862 595.01 183.472 595.56 180.792 595.67C179.642 595.73 178.392 595.56 177.262 595.73C177.372 597.76 178.842 598.55 180.572 599.11C187.482 601.36 193.872 602.6 201.182 601.99C207.862 601.44 214.562 600.2 220.632 597.23C224.172 595.49 227.252 592.61 230.322 590.19C232.092 588.8 233.852 587.54 235.192 585.7C235.842 584.79 236.282 583.73 236.962 582.85C236.012 595.57 240.132 608.84 235.512 621.27C232.812 628.53 227.502 634.35 222.072 639.75C219.492 642.33 216.892 644.66 213.772 646.51C216.002 647.31 220.002 644.9 221.842 644.16C224.612 643.1 227.382 642.02 230.132 640.92C234.092 638.65 237.462 635.69 240.252 632.03C245.272 626.32 250.682 619.18 251.962 611.41C252.122 610.44 252.002 609.1 252.592 608.27C253.752 611.42 255.682 614.31 257.112 617.34C260.622 624.79 263.512 632.42 264.022 640.69C264.572 649.41 264.832 658.87 262.922 667.4C262.562 669.04 260.512 672.8 261.402 674.36C266.372 669.98 269.702 663.85 272.432 657.91C276.252 649.58 278.762 640.84 279.322 631.68C279.722 625.32 279.702 619.23 278.022 613.02C277.502 611.11 275.982 608.4 274.722 605.17C282.742 613.9 292.332 623.87 293.922 636.24C294.572 641.31 294.392 646.41 294.362 651.51C294.342 654.99 294.232 658.53 294.342 662.01C294.372 663.07 294.842 665.1 294.562 665.98C296.192 660.46 298.102 655.22 299.502 649.57C301.442 641.75 303.942 631.8 303.022 623.52C302.492 618.69 301.892 612.97 299.742 608.6C299.202 607.5 298.432 605.86 297.582 604.62" stroke="black" stroke-width="1.7" stroke-linecap="round" stroke-linejoin="round"/>
<path d="M308.532 481.56C307.692 495.77 306.602 510.1 308.462 524.27C309.602 532.94 312.072 541.41 315.652 549.38C321.202 561.75 329.652 572.49 333.752 585.56C335.402 590.8 336.082 596.16 336.362 601.57C336.612 606.06 336.572 610.58 336.572 615.11C336.572 624.54 335.332 633.96 330.792 642.37C328.942 645.79 327.672 649.21 325.152 652.26C325.052 652.13 325.002 652 325.002 651.86C325.002 651.58 325.212 651.29 325.622 650.98" stroke="black" stroke-width="1.7" stroke-linecap="round" stroke-linejoin="round"/>
<path d="M561.161 535.2C561.251 535.44 561.341 535.67 561.421 535.9C562.321 538.49 563.161 541.07 563.961 543.69C564.741 546.23 565.671 548.61 566.031 551.26C566.241 552.87 566.351 554.49 566.381 556.12C566.441 558.82 566.321 561.54 566.251 564.22C565.971 574 564.181 583.75 565.761 593.49C567.021 601.32 568.771 609.99 572.541 617.05C569.281 614.54 566.681 611.66 564.041 608.48C560.591 604.05 557.121 599.64 553.621 595.25C550.201 591.03 546.901 586.73 543.731 582.32C540.621 577.19 538.131 571.73 535.731 566.23C535.301 565.27 535.061 564.07 534.031 563.65C534.501 566.62 535.331 569.59 536.201 572.46C537.431 576.54 539.131 580.61 539.951 584.8C540.551 587.86 540.241 590.83 540.611 593.89C541.441 600.81 544.261 608.44 547.991 614.33C549.891 617.34 552.051 620.09 554.411 622.76C555.441 623.92 559.851 627.53 559.881 629.21C556.721 628.66 553.931 627.51 551.131 625.98C543.261 621.7 535.551 614.51 530.561 607.17C525.291 599.41 520.171 589.89 519.011 580.38C517.081 581.27 517.341 584.18 517.291 585.92C517.201 588.35 517.471 590.82 517.311 593.24C517.091 596.64 514.881 598.91 512.571 601.2C506.801 606.89 499.551 611.3 491.961 614.07C488.401 615.38 483.931 615.82 480.621 617.7C484.781 612.61 487.991 606.7 491.461 601.13C496.381 593.24 501.421 585.05 505.021 576.45C506.671 572.51 507.631 568.37 508.401 564.19C509.121 560.33 510.131 555.97 510.021 552.04C509.931 549.09 508.551 546.13 507.211 543.55C506.331 541.86 505.291 540.08 504.181 538.54C503.641 537.79 502.411 535.5 501.451 535.06C501.371 535.03 501.301 535.01 501.231 535" stroke="black" stroke-width="1.7" stroke-linecap="round" stroke-linejoin="round"/>
<path d="M561.162 535.2C561.152 535.11 561.132 535.01 561.122 534.92C560.932 533.68 561.242 533.14 560.532 532.55C560.512 533.45 560.842 534.34 561.162 535.2Z" stroke="black" stroke-width="1.7" stroke-linecap="round" stroke-linejoin="round"/>
<path d="M577.71 514.63C582.49 520.67 587.28 526.76 590.81 533.66C593.78 539.48 594.45 543.93 594.28 550.07C594.02 559.46 592.35 568.68 593.93 578.05C595.42 586.95 597.07 596.36 604.14 602.51C606.78 604.81 609.78 606.56 612.83 608.24C613.53 608.63 614.27 608.95 614.86 609.51C611.01 609.91 607.07 609.31 603.5 607.95C598.59 606.08 593.75 603.72 589.66 600.37C585.43 596.92 582.97 592.49 580.51 587.69C577.1 581.05 574.13 574.23 571.25 567.35C569.68 563.59 567.9 559.91 566.38 556.12C565.75 554.55 565.16 552.95 564.65 551.33C563.03 546.14 561.99 540.58 561.16 535.2" stroke="black" stroke-width="1.7" stroke-linecap="round" stroke-linejoin="round"/>
<path d="M577.712 514.63C577.402 514.31 577.122 513.95 576.852 513.55C577.132 513.91 577.422 514.27 577.712 514.63Z" stroke="black" stroke-width="1.7" stroke-linecap="round" stroke-linejoin="round"/>
<path d="M456.152 164.16C459.682 158.87 462.632 152.88 469.872 152.66C473.462 152.54 476.592 153.82 479.702 155.71C483.102 157.76 486.352 160.55 489.252 163.26C495.192 168.79 499.502 176.64 502.892 183.95C506.052 190.79 508.612 197.74 510.662 204.98C511.932 209.47 513.772 213.94 515.592 218.23C516.282 219.84 516.712 221.52 517.502 223.09C518.812 225.68 520.752 227.99 522.362 230.39C524.952 234.24 527.502 238.09 529.892 242.06C534.952 250.5 541.602 257.88 546.482 266.43C551.552 275.31 557.062 284.09 560.732 293.67C565.082 305 566.102 318.06 566.692 330.04C567.122 338.93 567.032 347.81 567.072 356.7C567.122 365.84 565.692 374.96 564.692 384.02C561.872 409.77 564.532 437.14 580.242 458.65C586.352 467.01 598.622 470.21 608.532 470.63C612.192 470.78 615.982 470.28 619.622 470.68C618.352 471.92 616.242 472.91 614.612 473.45C608.052 475.63 600.742 475.93 593.912 476.34C587.712 476.72 581.592 477.33 575.402 477.8C572.652 478 569.712 478.18 566.972 477.82C576.142 479.62 585.892 482.29 592.892 488.93C596.542 492.4 599.582 496.47 602.982 500.17C606.122 503.6 609.372 506.94 612.612 510.28C620.012 517.91 629.292 524.59 640.272 524.68C652.292 524.79 667.152 523.49 676.872 515.52C674.152 520.31 670.622 523.69 665.942 526.46C663.802 527.73 661.762 529.22 659.712 530.68C657.402 532.34 655.092 533.96 652.602 535.22C647.482 537.81 640.192 538.81 634.562 538.63C620.782 538.18 606.932 532.84 595.052 526.1C590.212 523.36 585.362 520.44 580.862 517.2C579.912 516.52 578.742 515.77 577.712 514.63" stroke="black" stroke-width="1.7" stroke-linecap="round" stroke-linejoin="round"/>
<path d="M336.891 601.54C341.621 605.3 351.501 614.9 358.901 617.73C361.901 618.87 364.881 620.13 367.941 621.11C375.781 623.61 384.801 623.83 392.901 623.82C402.981 623.81 412.231 621.6 421.861 618.65C432.421 615.41 443.641 611.6 453.181 605.91C462.681 600.25 471.561 592.65 478.871 584.4C480.621 582.43 482.641 580.5 483.921 578.17C484.581 576.97 484.961 575.56 485.551 574.32C487.201 570.88 489.351 567.67 490.931 564.21C492.851 560.01 493.801 554.93 495.001 550.49C496.071 546.53 495.821 540.93 495.331 536.84C494.901 533.28 494.461 528.16 491.641 525.55C491.351 525.28 491.041 525.03 490.691 524.82" stroke="black" stroke-width="1.7" stroke-linecap="round" stroke-linejoin="round"/>
<path d="M387.07 589.54C388.14 592.56 389.05 597.65 392.05 599.59C393 600.21 394.48 600.06 395.55 600.06C398.84 600.08 400.86 599.27 402.46 595.94C404.14 592.43 402.86 588.6 404.15 585.18" stroke="black" stroke-width="1.7" stroke-linecap="round" stroke-linejoin="round"/>
<path d="M382.702 579.72C381.332 577.06 380.632 574.31 378.232 572.93C376.962 572.2 374.852 571.34 373.372 571.05C368.992 570.18 364.302 570.43 359.882 569.75C353.632 568.81 347.552 567.05 341.262 566.38C339.102 566.15 337.062 565.66 335.082 564.82" stroke="black" stroke-width="1.7" stroke-linecap="round" stroke-linejoin="round"/>
<path d="M405.973 578.63C408.233 576.21 410.923 571.86 414.503 571.75C415.673 571.72 416.863 571.82 418.063 571.74C424.113 571.33 430.103 570.97 436.183 570.99C444.453 571 452.653 570.79 460.873 571.73" stroke="black" stroke-width="1.7" stroke-linecap="round" stroke-linejoin="round"/>
<path d="M659.77 530.76C674.08 536.22 690.48 540.97 701.64 552.16C704.01 554.54 705.96 557.26 708.26 559.69C712.6 564.26 716.69 569.88 719.08 575.73C723.06 585.45 726.34 595.89 728.75 606.11C730.97 615.54 731.65 625.34 732.32 634.98C733.08 645.81 733.99 656.54 735.63 667.28C736.21 671.01 736.799 674.74 737.609 678.42C737.839 679.44 738.03 681.01 738.7 682.05C738.85 682.29 739.04 682.51 739.25 682.68" stroke="black" stroke-width="1.7" stroke-linecap="round" stroke-linejoin="round"/>
<path d="M207.861 516.69C207.731 516.76 207.611 516.83 207.481 516.9C193.111 525.02 178.161 531.93 163.601 539.69C154.361 544.61 144.951 549.81 136.121 555.44C129.151 559.89 122.231 565.08 116.511 571.02C112.771 574.9 108.481 578.23 105.391 582.67C102.071 587.43 98.7114 592.21 95.8314 597.25C84.0414 617.9 80.7914 641.56 76.2414 664.59C74.2214 674.83 72.9114 685.41 71.9214 695.8C71.7314 697.85 71.3414 699.82 71.0314 701.86C70.7414 703.83 69.6614 709.24 70.3514 712.23C78.7314 708.11 87.4614 705.1 96.5414 703.19C98.2014 703.45 99.8514 703.77 101.481 704.15C108.671 705.73 113.171 711.51 119.191 715.22C129.631 721.67 141.461 723.27 153.531 723.83C159.261 724.09 164.861 723.63 170.541 722.99C182.061 721.68 193.451 719.63 205.021 718.72C213.091 718.08 219.451 719.41 227.311 721.63C236.781 724.31 246.211 727.16 255.641 729.98C270.791 734.5 286.641 739.05 302.431 740.64C313.871 741.79 325.631 739.07 336.451 735.66C347.131 732.28 357.551 729.07 368.801 728.05C387.481 726.35 406.181 728.11 424.691 730.7C445.921 733.67 466.721 738.04 488.261 737.45C493.201 737.47 498.111 737.09 503.001 736.31C506.541 735.54 509.961 734.42 513.261 732.95C522.561 729.26 532.151 724.48 541.971 722.3C558.921 718.55 576.831 720.21 593.911 722.07C600.891 722.82 607.811 723.87 614.811 724.34C620.821 724.74 627.631 725.26 633.631 724.25C641.351 722.95 649.441 719.8 656.341 716.1C662.241 712.93 667.801 709.17 673.791 706.18C684.451 700.86 695.981 698.1 707.951 698.51C716.061 698.79 723.741 701.2 731.871 701.36C735.631 701.44 738.301 699.85 741.011 697.45" stroke="black" stroke-width="1.7" stroke-linecap="round" stroke-linejoin="round"/>
<path d="M738.191 682.33C739.051 687.29 740.521 692.41 741.181 697.43C741.211 697.65 741.231 697.88 741.261 698.1C741.341 698.82 741.401 699.54 741.361 700.27" stroke="black" stroke-width="1.7" stroke-linecap="round" stroke-linejoin="round"/>
</g>
</g>
<defs>
<clipPath id="clip0_100_384">
<rect width="824.51" height="891.97" fill="white"/>
</clipPath>
</defs>
</svg>
