<svg xmlns="http://www.w3.org/2000/svg" xmlns:xlink="http://www.w3.org/1999/xlink" xmlns:inkscape="http://www.inkscape.org/namespaces/inkscape" version="1.1" width="824.509" height="891.969" viewBox="0 0 824.509 891.969">
<defs>
<clipPath id="clip_0">
<path transform="matrix(1,0,0,-1,0,891.969)" d="M0 891.969H824.509V0H0Z"/>
</clipPath>
<clipPath id="clip_1">
<path transform="matrix(1,0,0,-1,0,891.969)" d="M90.8124 199.069H698.628V772.749H90.8124Z"/>
</clipPath>
</defs>
<g>
<g inkscape:groupmode="layer" inkscape:label="Layer 1">
</g>
<g inkscape:groupmode="layer" inkscape:label="Layer 2">
<g clip-path="url(#clip_0)">
<g>
<g clip-path="url(#clip_1)">
<path transform="matrix(1,0,0,-1,325.9162,684.87368)" d="M0 0C-.11 .06-.22 .11-.33 .16-.57 1.66-.52 3.27-.86 4.75-1.46 7.4-2.01 9.91-2.01 12.67-2 18.89-.23 24.45 1.15 30.44 2.26 35.29 2.11 39.39 .34 44.1-.99 47.63-2.53 49.85-2.31 53.84-1.8 63.04 4.97 70.34 5.68 79.55 6.62 91.77 3.16 103.93 .87 115.75-.88 124.8-2.13 134.6 2.11 143.12 3.72 146.36 5.29 149.58 6.26 153.07 8.49 161.12 9.32 169.42 10.67 177.66 10.79 178.02 10.83 178.54 10.87 178.78 10.89 178.88 10.9 178.97 10.91 179.07 11.06 180 11.13 180.93 11.16 181.91 11.53 181.62 12.33 181.42 12.65 181.26 15.06 180.02 17.41 178.43 19.68 176.95 23.97 174.16 28.12 171.25 31.71 167.57 33.54 165.69 35.12 163.58 36.89 161.65 38.12 160.31 39.22 159 40.23 157.49 41.88 155.05 43.62 152.39 44.47 149.54 45.14 147.31 44.63 144.76 44.31 142.51 43.78 138.73 43.36 134.81 42.29 131.14 41.88 129.7 41.38 128.28 40.69 126.96 40.25 126.12 39.63 125.38 39.23 124.53 40.29 124.8 41.36 125.75 42.26 126.35 45.13 128.26 47.91 130.3 50.75 132.25 57.06 136.57 63.69 140.36 70.46 143.89 75.8 146.67 81.08 149.56 86.47 152.25 93.25 155.64 100.22 158.68 106.87 162.33 122.96 171.15 139.11 180.57 152.94 192.75 159.51 198.54 165.63 205.5 169.49 213.41 171.65 217.83 173.42 222.51 174.84 227.27L176.78 226.68C181.7 224.25 186.63 221.82 191.4 219.12 193.87 217.72 196.2 216.1 198.78 214.92 204.79 212.17 210.91 209.71 217 207.17 226.13 203.36 235.42 199.54 244.33 195.22 248.8 193.05 253.05 190.44 257.56 188.32 262.02 186.23 266.54 184.12 270.89 181.78 285.1 174.13 299.55 166.56 313.02 157.66 324.12 150.34 333.14 141.17 341.82 131.17 345.97 126.4 349.5 121.31 352.75 115.88 356.18 110.15 358.48 103.9 361.08 97.77 365.31 87.75 368.22 76.83 369.87 66.06 371.17 57.52 372.2 48.67 372.39 40.03 372.45 37.56 372.41 35.09 372.4 32.62 372.39 30.88 372.81 29.08 372.69 27.36V27.07C371.77 27.07 370.9 27.07 370 27.24 368.77 27.48 367.54 27.84 366.3 28.06 364.77 28.33 363.21 27.99 361.66 27.88 359.5 27.71 357.56 27.25 355.52 26.49 351.18 24.89 348.1 22 344.75 18.89 340.57 15.01 336.17 11.52 331.07 8.93 324.6 5.64 317.43 3.67 310.21 3.06 299.61 2.17 289.11 1.27 278.46 1.37 270.85 1.43 263.25 1.98 255.68 2.76 246.96 3.67 238.5 4.73 229.73 3.64 223.43 2.85 217.02 1.46 210.99-.56 205.21-2.5 199.34-4.52 193.23-5.1 185.29-5.84 176.72-4.71 168.94-3.15 161.56-1.67 154.53 .06 146.93 .07 138.97 .09 131.49-3.09 123.84-5.02 117.12-6.72 110.35-8.41 103.38-7.95 95.39-7.41 87.36-6.97 79.42-5.95 64.73-4.05 50.6 .79 35.63-.35 29.72-.8 23.91-1.73 18.08-2.79 14.86-3.38 11.81-3.65 8.57-3.04 5.78-2.52 2.78-1.32 0 0M18.7 111.73C17.7 111.72 16.72 111.57 15.78 111.27 15.18 111.17 14.62 110.95 14.1 110.62 13.85 110.4 13.64 110.08 13.46 109.81 13.07 109.24 12.93 108.54 12.79 107.87 12.46 106.26 12.8 104.87 13.67 103.51 14.17 102.72 15.06 102.19 15.87 101.74 17.02 101.11 18.41 100.77 19.73 100.89 22.17 101.12 24.4 102.86 24.87 105.31 25.35 107.78 24.26 110.72 21.56 111.19 20.82 111.31 20.13 111.42 19.38 111.42 19.25 111.42 18.97 111.45 18.71 111.45ZM15.07 54.3C13.51 54.87 11.94 54.89 10.36 54.37 9.54 54.09 8.91 53.59 8.48 52.87 7.86 51.94 7.43 50.89 7.26 49.8 7.16 49.1 7.03 48.27 7.22 47.57 7.54 46.42 8.64 45.28 9.55 44.56 11.31 43.15 13.91 42.84 16.04 43.64 17.74 44.28 18.46 46.47 18.54 48.15 18.63 49.97 17.96 51.08 16.97 52.51 16.61 53.02 16.37 53.36 15.75 53.62 15.49 53.73 15.22 53.86 14.95 53.95ZM19.47 166.8C18.52 167.05 17.65 166.91 16.87 166.42 16.25 166.24 15.77 165.88 15.43 165.33 15.19 164.98 15 164.58 14.81 164.19 14.41 163.39 14.2 162.62 14.17 161.72 14.1 159.75 15.33 158.54 16.78 157.42 18.24 156.3 20.2 155.76 21.94 156.64 23.27 157.31 24.08 158.52 24.23 159.96 24.35 161.08 24.39 162.37 23.82 163.38 23.32 164.27 22.44 164.8 21.62 165.33 21.22 165.59 20.89 166.04 20.5 166.27 20.24 166.42 19.81 166.5 19.4 166.53Z" fill="#ffffff"/>
<path transform="matrix(1,0,0,-1,278.2062,226.78369)" d="M0 0V-.06C-2.95-2.64-5.18-5.57-7.09-8.98-7.65-9.98-8.15-10.94-8.77-11.92-10.85-15.16-12.49-18.72-14.22-22.16-17.91-29.49-21.28-37.19-23.79-45.05L-24-44.98C-23.98-43.94-24.36-43.19-25.24-43-25.71-42.9-26.12-43.18-26.65-42.91-27.27-42.58-27.9-41.44-28.09-40.92-28.58-39.58-28.33-38.92-27.25-38.13-26.19-37.35-25.61-36.66-25.53-35.26-25.47-34.35-25.45-32.84-26.35-32.44-27.06-32.12-28.07-32.92-28.7-32.19-29.2-31.62-28.64-29.6-28.55-28.87-28.38-27.55-27.86-27.34-27.21-26.34-26.54-25.33-26.65-24.16-26.86-23.04-26.96-22.51-26.99-22.11-27.35-21.7-27.84-21.14-29.12-21.18-29.45-20.6-29.83-19.89-28.65-17.97-28.38-17.55-27.91-16.83-27.25-16.28-26.79-15.55-25.91-14.12-25.33-11.9-25.65-10.23-25.89-9.04-26.53-8.95-27.46-8.33-28.6-7.58-28.64-6.68-28.25-5.33-27.73-3.56-26.45-3.04-24.92-2.19-23.91-1.63-22.49-.94-21.83 .01-21.45 .56-21.17 1.33-21.16 2-21.14 3.72-22.09 4.08-22.48 5.47-22.93 7.08-21.55 8.24-20.7 9.39-20.54 9.6-19.96 10.16-19.93 10.55-19.88 11.3-20.77 12.45-21.17 13.05-21.79 13.98-22.39 14.52-22.14 15.72-21.86 17.1-20.69 18.15-19.77 19.14-18.23 20.81-15.25 19.52-13.77 21.22-12.61 22.56-13.85 24.69-13.2 26.18-12.76 27.2-11.72 27.6-10.99 28.33-10.04 29.29-10.23 30.73-10.61 31.94-11.01 33.21-12.27 33.89-12.81 35.08-13.53 36.7-12.59 37.87-11.31 38.81-10.57 39.35-9.26 39.8-8.73 40.59-8.05 41.62-8.52 43.2-8.99 44.13-9.48 45.11-10.91 46.36-10.31 47.5-9.6 48.82-6.78 48.31-5.63 48.18-3.57 47.94-.54 46.96 1.45 48.06 2.33 48.55 3.04 50 2.7 50.95 2.43 51.7 1.68 51.65 1.38 52.31 1.93 53.94 4.45 54.09 5.44 55.43 6.35 56.42 6.35 57.36 5.44 58.26 4.66 58.45 4.13 58.89 3.83 59.59 3.77 60.91 6 61.61 6.9 61.88 9.05 62.51 11.38 62.55 13.46 63.41 14.82 63.98 16.18 64.86 17.2 65.96 18.34 67.19 17.37 67.61 17.44 68.99 17.53 70.76 21.65 69.91 22.67 71.24 23.5 72.32 22.91 73.85 22.51 74.93 22.14 75.93 21.38 76.87 22.22 77.86 22.77 78.17 23.36 78.36 23.99 78.43 24.53 78.6 25.06 78.8 25.57 79.03 28.98 79.74 33.54 76.24 36.4 79.76 36.74 80.33 37.08 80.91 37.42 81.49 37.63 82.55 37.49 83.57 37 84.53 37.07 85.64 38.04 86.02 39.08 86.34 40.16 86.58 41.25 86.56 42.33 86.26 42.92 86.05 43.52 85.88 44.13 85.75 45.3 85.85 47.93 87.26 48.35 88.4 47.97 88.73 47 89.03 47.06 89.64 47.83 90.44 50.31 90.48 51.25 90.14 52.83 89.56 52.17 88.22 54.36 88.13 55.65 88.21 56.82 88.61 57.87 89.33 58.21 89.78 58.22 90.24 57.89 90.71 57.53 92.3 56.45 93.22 55.46 94.41 58.34 97.72 62.91 98.33 67.02 98.27 67.87 98.26 69.1 98.57 69.9 98.25 70.39 98.05 70.74 97.56 71.29 97.37 73.17 96.71 75.51 97.33 77.5 96.88 78.28 96.71 79.01 96.37 79.68 97 80.34 97.62 80.57 99 80.72 99.84 80.92 100.96 80.93 102.47 81.78 103.36 82.56 104.17 84.41 104.68 85.46 104.77 88.83 105.07 92.15 103.67 95.27 102.64 97.84 101.8 101.44 100.78 104.09 101.81 105.64 102.41 106.29 104.17 107.67 104.87 108.28 104.05 109.71 104.17 110.61 104.06 111.97 103.89 113.79 103.54 115.07 104.18 115.83 104.56 116.18 105.21 116.78 105.8 118.15 107.13 119.98 107.66 121.86 107.55 125.48 107.34 124.57 103.99 126.64 102.17 128.37 100.64 130.23 101.38 132.12 101.97 133.59 102.43 135.4 102.63 136.69 103.53 138.78 104.99 139 107.18 142.13 106.48 143.78 106.12 144.48 105.14 145.82 104.36 146.67 103.87 147.13 103.88 147.6 103 148.36 101.57 148.71 99.83 149.48 98.36 149.52 98.28 150.69 95.51 151.26 95.29 152.1 94.95 153.23 97.07 153.95 97.41 154.12 96.06 153.87 94.1 155.6 93.85 156.27 93.76 156.96 93.96 157.56 94.22 158.89 94.8 159.72 94.72 161.16 94.23 162.19 93.88 163.25 93.45 164.14 92.82 165.46 91.9 165.55 91.51 165.16 90.12 164.69 88.42 164.75 86.76 166.11 85.42 167.11 84.44 168.82 83.39 170.26 83.66 170.77 83.76 171.23 84.09 171.84 84.15 173.5 84.32 175.35 84.78 176.93 84.01 179.02 82.98 180.34 80.99 182.13 79.59 182.55 79.26 183.31 78.6 183.91 78.59 185.9 78.58 185.81 82.37 187.72 81.17 189.77 79.89 191.5 78.03 192.68 75.94 193.43 74.63 193.92 72.94 194.95 71.82 195.75 70.95 196.15 71.21 197.2 71.15 200.44 70.95 198.68 69.7 198.34 67.41 197.98 64.99 198.98 62.5 201.83 63.32 203.26 63.73 203.88 65.73 205.5 65.74 206.21 65.74 207.46 65.31 207.92 64.76 208.93 63.58 208.71 61.49 208.74 60.08 208.78 58.29 209.19 56.36 210.35 54.91 211.26 53.79 211.64 53.71 212.9 53.98 213.66 54.15 215.97 55.07 216.74 54.57 217.28 54.22 217.23 52.32 217.56 51.7 218.08 50.72 218.94 50.21 219.93 49.74 220.92 49.27 223.34 48.98 224.06 48.05 225.46 46.27 222.97 43.26 224.24 41.23 225.4 41.66 227.62 41.13 228.02 39.8 228.34 38.73 227.43 38.13 227.02 37.28 225.84 34.83 227.49 33.95 229.16 32.47 230.92 32.55 231.11 30.16 231.85 28.37 233.15 25.3 233.8 21.73 234.24 18.42 234.35 17.8 234.38 17.18 234.35 16.55 234.41 15.98 234.15 15.7 233.58 15.72 232.28 14.86 232.28 14.08 232.42 12.39 232.55 10.68 232.59 8.61 233.49 7.11 233.74 6.69 234.9 5.84 234.68 5.34 233.08 5.3 230.36 2.4 230.13 1.11 229.75 .71 229.76 .35 230.17 .03 230.57-.68 231.19-1.13 232.04-1.35 233.52-2.32 234.98-3.41 236.26-4.63 238.94-7.19 239.13-10.82 238.2-14.24 237.63-16.33 236.25-18.08 235.5-20.09 234.92-21.65 234.95-22.78 235.45-24.38 236.02-26.22 237.43-27.18 236.59-29.03 235.84-30.68 234.3-32.75 235.01-34.7 235.96-37.34 240.34-33.99 240.92-36.75 240.68-37.71 240.44-38.67 240.19-39.63 239.47-41.53 239.04-43.47 238.9-45.48 238.85-46.34 238.73-47.19 238.55-48.03 238.54-49.14 237.91-49.89 236.68-50.27 235.25-51.26 233.74-52.06 232.4-53.18 230.82-54.51 230.59-55.46 231.2-57.34 231.97-59.74 233.36-62.15 233.26-64.76 233.21-66.13 232.41-67.25 231.63-68.28 230.65-69.59 229.48-70.58 228.19-71.54 227.51-72.05 227.31-72.35 227.14-73.22 226.87-74.67 227.15-76.01 228.64-76.57 229.71-76.97 230.36-76.91 230.85-78.12 231.41-79.47 231.74-83.25 230.45-84.34 229.45-85.18 227.26-84.09 226.82-85.39 226.42-86.56 226.84-89 227.59-89.91 228.06-90.48 228.59-90.85 229.33-90.93 229.44-91.65 229.4-92.38 229.56-93.1 229.72-93.83 230.21-94.8 230.04-95.57 229.77-96.71 228.74-96.88 227.84-97.58 226.42-98.69 225.43-100.58 225.75-102.45 225.99-103.83 227.18-104.57 227.65-105.87 228.04-106.96 227.77-107.49 227.95-108.47 228.29-110.24 230.14-112.97 227.96-114.22 225.7-114.84 223.55-115.74 221.51-116.93 220.68-117.82 219.85-118.71 219.02-119.6 217.88-122.3 221.1-123.43 221.62-125.48 221.93-126.69 221.12-127.5 220.19-128.03 218.45-129.04 218.01-130.18 217.14-132 216.6-133.12 216.24-134.39 215.15-134.96 213.91-135.6 212.71-135.02 211.7-136.2 210.73-137.34 210.75-139.48 209.42-140.39 209.04-140.51 208.66-140.63 208.28-140.75 205.95-140.03 203.56-139.56 201.11-139.34L200.13-138.97C201.68-137.85 203.35-136.86 204.67-135.46 206.75-133.26 208.17-130.44 209.78-127.9 210.85-126.23 211.04-125.5 211.41-123.73 211.74-122.16 212.49-120.65 212.99-119.12 215.09-112.63 217.04-106.03 218.21-99.32 218.86-95.59 219.6-91.81 219.83-88.03 220.02-85.01 219.61-82.04 219.29-79.04 218.98-76.23 218.43-73.36 217.03-70.86 216-69.03 215.21-66.83 213.38-65.65 210.74-63.94 207.57-63.46 204.48-63.84 200.7-64.3 196.94-65.75 194.34-68.69 192.67-70.57 190.97-72.48 189.39-74.45 188.8-75.19 188.24-75.96 187.68-76.73 186.16-78.87 185.79-81.39 185.38-83.92L185.46-83.93C185.33-85.24 185.19-86.56 185.06-87.87 185.16-88.75 185.26-89.64 185.37-90.52 185.41-91.09 185.61-92.01 184.86-92.22 183.94-92.47 183.3-91.13 182.61-90.89 180.64-90.2 181.12-92.68 180.67-93.69 180.28-94.53 177.56-95.1 176.71-95.25 175.2-95.51 173.94-95.27 172.96-94.06 172.13-93.03 171.76-92.62 170.51-92.33 168.57-91.88 167.79-90.89 167.92-88.91 168.06-86.81 169.05-85.61 170.9-84.75 171.93-84.27 172.69-83.78 173-82.57 173.24-81.64 173.04-80.62 172.49-79.85 171.71-78.79 169.93-76.83 170.59-75.29 170.88-74.62 171.82-74.48 172.39-74.22 173.23-73.83 174.01-73.29 174.7-72.67 175.98-71.51 176.34-70.48 176.49-68.8 176.61-67.45 176.76-66.64 176-65.5 175.29-64.43 173.98-63.55 173.01-62.75 171.83-61.76 170.49-60.79 170.89-59.09 171.39-56.97 173.88-56.13 175.44-54.95 175.31-54.08 173.2-53.36 172.69-52.76 170.53-50.23 172.17-47.27 174.18-45.44 175.84-43.93 176.7-39.57 175.09-37.64 174.33-36.71 173.1-36.68 172.13-36.1 171.66-35.81 170.51-34.98 170.45-34.36 170.62-33.82 170.79-33.28 170.96-32.73 171.78-31.1 172.93-29.77 174.41-28.72 175.6-27.87 176-27.13 175.37-25.62 174.64-23.89 173.39-23.44 172.18-22.28 171.21-21.35 169.86-19.49 170.16-18.06 170.58-16.09 173.26-15.71 173.83-13.65 174.22-12.26 173.37-10.79 171.99-10.38 171.06-10.11 170.4-10.63 169.53-9.97 168.11-8.88 168.24-5.75 169.23-4.46 169.88-3.61 170.51-3.63 171.41-3.35 170.43-3.12 169.25-2.61 168.86-1.6 168.06 .44 169.71 2.59 170.74 4.1 172.59 6.79 169.33 11.08 167.6 13.12 165.65 15.39 164.98 11.52 162.76 12.18 161.75 12.49 161.7 13.23 161.46 14.2 161.12 15.59 160.75 17 160.25 18.35 159.6 20.09 158.5 21.86 156.89 22.72 154.38 24.07 151.37 23.02 148.85 24.21 146.89 25.14 145.02 26.83 143.99 28.72 143.59 29.98 142.93 31.08 142 32.03 140.59 33.2 138.98 33.69 137.16 33.52 133.53 32.72 135.76 27.54 131.99 26.88 130.85 26.68 131.17 26.99 130.61 27.78 129.73 29.02 127.16 28.98 125.93 29.25 124.14 29.65 121.33 31.12 119.42 30.2 118.27 29.64 118.88 28.67 118.2 27.68 117.18 26.89 116.23 26.01 115.35 25.06 113.96 23.86 112.37 23.51 110.59 24 108.62 24.33 106.92 25.08 104.92 24.3 103.24 23.65 102.97 22.43 102.05 21.05 101.1 19.63 99.93 19.4 98.28 19.28 97.39 19.12 96.53 19.18 95.68 19.45 94.93 19.87 94.13 20.15 93.29 20.3 91.18 20.48 89.39 18.68 87.74 17.67 85.72 16.45 83.78 15.64 81.45 15.46 78.83 15.26 75.23 14.69 72.84 16.07 71.84 16.64 71.15 17.48 70.78 18.58 69.85 20.15 68.51 21.21 66.76 21.76 65.62 22.24 64.53 22.18 63.51 21.57 62.95 21.02 62.33 20.53 61.67 20.1 58.33 18.75 59.43 24.37 60.13 25.7 60.76 26.9 61.7 27.91 62.88 28.58 62.74 31.03 62.25 33.96 59.69 34.95 58.26 35.5 56.67 35.78 55.15 35.68 53.88 35.6 53.34 35.15 52.22 34.63 50.16 33.66 47.22 35.25 45.2 35.78 43.19 36.32 40.6 38.01 38.54 37.22 36.68 36.51 34.1 34.22 35.2 32.11 35.65 31.25 36.15 31.13 35.7 30.07 35.27 29.09 34.32 28.5 33.43 28.01 32.13 27.28 30.14 26.55 28.68 26.01 27.76 25.67 26.98 25.65 26.04 25.51 22.83 25.03 22.38 20.66 21.6 18.19 21.37 17.44 21.04 15.68 20.26 15.23 19.75 14.94 18.93 15.15 18.37 15.12 16.45 15.01 14.84 14.74 14.01 12.92 13.24 11.2 13.2 9.51 12.83 7.7 12.64 6.81 12.38 6.04 11.64 5.46 10.63 4.66 9.02 4.5 7.77 4.76 7.36 4.85 7 5.11 6.57 5.12 5.2 5.15 3.88 3.91 3.28 2.84 2.91 2.19 2.89 1.41 2.48 .85 1.72-.19 .85 .07 0 0" fill="#ffffff"/>
<path transform="matrix(1,0,0,-1,337.0762,502.96369)" d="M0 0C-.24 .19-.3 .42 .07 .69L.13 1.11C4.88 .46 9.65 .13 14.46-.13 18.45-.34 22.55-.69 26.54-.59 34.23-.39 41.75 1.81 49.34 2.77 50.98 2.98 52.65 3.1 54.27 3.4 57.18 3.94 59.72 4.58 62.24 6.16 64.88 7.52 67.22 8.52 70.14 9.02 71.63 9.27 72.93 9.7 74.36 10.21 78.64 11.75 82.97 13.13 87.18 14.86 94.08 17.69 101.09 20.62 107.09 25.15 110.83 27.97 114.15 31.35 117.54 34.57 120.02 36.91 122.77 38.96 125.05 41.5 126.12 42.7 127.06 43.99 128.16 45.16 129.54 46.62 130.24 48.55 131.03 50.38 132.22 53.16 134.56 57.34 133.77 60.63 133.77 60.67 133.76 60.7 133.75 60.74H133.74C133.57 61.32 133.45 62.08 133.38 62.41 133.2 63.23 133.11 64.06 132.91 64.87 132.01 68.42 131.11 71.99 130.47 75.6 129.92 78.64 129.69 81.66 129.6 84.74L130.25 84.76C134.8 84.36 139.24 83.44 143.58 81.99 146.39 81.16 149.18 80.25 151.95 79.26 154.46 78.37 157.15 77.24 159.42 75.82 161.65 74.44 163.21 72.3 164.61 70.11 165.72 68.38 166.63 66.58 166.93 64.51 167.6 59.98 166.2 55.07 165.13 50.69 164.7 48.91 164.21 47.13 163.68 45.36 162.26 40.6 160.49 35.92 158.33 31.5 154.47 23.59 148.35 16.63 141.78 10.84 127.95-1.34 111.8-10.76 95.71-19.58 89.06-23.23 82.09-26.27 75.31-29.66 69.92-32.35 64.64-35.24 59.3-38.02 52.53-41.55 45.9-45.34 39.59-49.66 36.75-51.61 33.97-53.65 31.1-55.56 30.2-56.16 29.13-57.11 28.07-57.38 28.47-56.53 29.09-55.79 29.53-54.95 30.22-53.63 30.72-52.21 31.13-50.77 32.2-47.1 32.62-43.18 33.15-39.4 33.47-37.15 33.98-34.6 33.31-32.37 32.46-29.52 30.72-26.86 29.07-24.42 28.06-22.91 26.96-21.6 25.73-20.26 23.96-18.33 22.38-16.22 20.55-14.34 16.96-10.66 12.81-7.75 8.52-4.96 6.25-3.48 3.9-1.89 1.49-.65 1.17-.49 .37-.29 0 0" fill="#ffffff"/>
<path transform="matrix(1,0,0,-1,305.5362,324.4237)" d="M0 0C.95 .16 1.98 .85 1.92 1.86 1.85 2.97 1.19 3.8 .8 4.79 .33 6.01-.52 7.07-1.16 8.21-1.73 9.24-2.49 10.26-3.28 11.14-3.58 11.48-3.9 11.79-4.23 12.09-5.37 13.12-6.7 13.97-8.01 14.72-8.93 15.24-9.9 15.56-10.83 16.04-13.08 17.21-15.43 17.7-17.91 18.17-19.44 18.55-21.08 18.6-22.78 18.51-23.61 18.46-24.44 18.36-25.26 18.22-26.01 18.11-26.75 17.97-27.5 17.85-29.74 17.48-32.03 16.88-34.15 16.05-36.62 15.08-38.83 13.58-41.32 12.64-42.42 12.22-43.52 11.81-44.61 11.38-46.46 10.65-48.48 10.86-50.41 10.92-49.18 9.9-48.25 9.22-47.15 8.77-46.8 8.62-46.43 8.49-46.09 8.31-45.51 8-44.99 7.66-44.39 7.4-42.85 6.72-41.39 6.1-39.78 5.59-38.44 5.15-37.12 4.73-35.74 4.43-34.49 4.16-33.08 3.69-31.79 3.66-30.82 3.63-29.86 3.53-28.9 3.39-27.29 3.16-25.73 3.1-24.12 3.01-23.36 2.97-22.61 2.97-21.84 2.99-20.29 3.02-18.73 3.14-17.18 3.28-16.1 3.37-15.03 3.44-13.98 3.73-12.53 4.12-11.11 4.63-9.67 5.06-8.62 5.37-7.51 5.62-6.44 5.93L-6.29 5.42C-6.11 5.04-5.79 4.7-5.53 4.37-4.96 3.65-4.42 2.9-3.82 2.22-2.87 1.15-1.56-.26 0 0M95.1-59.53C95.16-59.05 94.81-58.78 94.49-58.51 93.62-58.85 93.34-59.44 93.05-60.3 93.21-60.58 93.53-60.57 93.8-60.5H93.81C94.32-60.77 95.04-60.06 95.1-59.53M184.57 3.7C185.19 6.41 185.86 8.98 185.74 11.79 185.64 14.15 185.45 15.73 184.07 17.65 183.26 18.77 182.33 20.32 180.82 20.56 179.19 20.81 177.12 20.06 175.79 19.17 174.43 18.25 173.24 16.73 172 15.65 170.17 14.07 168.83 12.44 167.59 10.37 166.2 8.06 165.58 5.42 164.3 3.04 162.1-1.06 160.18-4.97 158.54-9.36 159.27-9.95 160.42-11.16 161.56-12.37 162.66-14.37 162.79-16.32 161.93-18.22 161.51-19.58 161.09-20.41 160.33-21.55 159.3-23.1 158.09-24.46 157-25.95 156.28-26.94 155.56-27.96 154.88-28.98 154.37-29.73 153.59-30.61 153.26-31.45 153.71-31.84 155.37-30.2 155.95-29.94 157.1-29.43 158.94-29.33 160.18-29.54 162.22-29.9 163.84-31.48 164.31-33.46V-33.66C164.34-34.01 164.55-34.15 164.89-34.08 165.95-30.62 168.04-27.9 169.99-24.87 171.41-22.64 173.08-20.61 174.56-18.43 177.24-14.52 179.8-10.26 181.65-5.89 182.96-2.81 183.83 .44 184.57 3.7M-34.48-77.95V-78.01C-34.95-77.99-35.44-77.96-35.93-77.93-33.54-78.99-30.91-79.87-28.89-81.6-27.6-82.71-26.38-83.87-25.04-84.92-24.17-85.6-23.32-86.35-22.4-86.97-19.1-89.15-14.81-89.69-11-90.3-6.84-90.97-2.53-90.82 1.66-90.82 5.46-90.82 9.3-90.91 13.07-90.33 14.5-90.11 15.76-89.89 17.12-89.36 18.47-88.83 19.87-88.29 21.15-87.6 22.36-86.95 23.43-86.17 24.48-85.29 25.77-84.19 27.2-83.3 28.67-82.47 30.69-81.33 32.68-79.94 34.84-79.06 35.9-78.63 37.12-78.23 38.28-78.09L38.26-77.9C37.62-77.98 36.88-77.91 36.32-77.95 36.24-77.96 36.17-77.96 36.09-77.96 34.68-78.08 33.23-78.12 31.82-78.07 29.21-77.96 26.74-77.3 24.3-76.42 22.79-75.88 21.45-74.97 19.96-74.36 16.47-72.95 12.66-71.83 8.88-71.92 7.18-71.97 5.3-72.22 3.66-72.66 2.7-72.92 1.8-73.21 .87-73.56-1.26-74.38-2.81-75.92-4.59-77.37-5.14-77.27-5.52-76.76-5.79-76.51-6.72-75.61-7.77-74.9-8.9-74.26-10.35-73.42-11.91-73.29-13.57-73.32-15.53-73.36-17.6-73.54-19.53-73.89-21.37-74.22-23.14-74.6-24.91-75.22-25.95-75.6-26.97-76.03-28.02-76.39-29.11-76.77-30.19-77.1-31.27-77.52-32.37-77.94-33.39-77.99-34.48-77.95M.44-149.37C.06-149.34-.31-149.31-.69-149.27-2.91-149.04-5.13-148.66-7.3-148.13-9.05-147.7-10.78-147.18-12.46-146.55-14.56-145.78-16.49-144.83-18.41-143.71-19.08-143.32-19.75-142.92-20.41-142.5-22.3-141.31-24.12-140-25.72-138.45-26.47-137.73-27.07-136.85-27.74-136.06-28.04-135.7-28.26-135.3-28.49-134.89-29.05-133.9-29.68-132.95-30.3-132L-30.36-132.03C-31.82-129.32-33.35-126.62-35.57-124.44-37.39-122.65-39.42-120.94-41.45-119.38-43.97-117.45-45.74-115.27-47.78-112.91-50.29-110.01-52.91-107.23-55.24-104.17-57.49-101.2-56.58-96.61-56.59-93.12-56.59-91.23-56.6-89.34-56.52-87.44-56.45-85.5-56.08-83.92-56.8-82.14-57.73-79.81-58.28-77.32-59.18-74.97-60.19-72.35-61.35-69.54-62.13-66.85-62.64-65.1-62.92-63.35-63.62-61.66-64.04-60.63-64.35-60.09-64.44-58.88-64.65-55.88-64.71-52.91-65.17-49.92-65.4-48.38-65.9-47.18-65.8-45.6-65.67-43.39-65.79-41.12-65.58-38.93-65.41-37.14-64.81-35.09-64.41-33.37-64.02-31.63-63.3-30.14-63.03-28.31-62.88-27.27-62.75-26.53-62.49-25.57-61.95-23.51-61.98-21.4-61.82-19.29-61.67-17.3-61.71-15.58-62.31-13.72-62.77-12.29-63.1-10.68-63.13-9.17-63.16-7.23-63.23-4.93-62.72-3.06-62.29-1.45-61.01 0-59.89 1.23-58.27 3-57.8 4.37-57.62 6.81-57.46 8.95-57.63 11.21-58.3 13.25-58.73 14.57-59.7 15.63-60.29 16.89-61 18.42-60.88 20.53-60.64 22.18-60.29 24.5-59.91 26.86-59.39 29.15-58.83 31.61-57.6 33.56-56.77 35.92-56.22 37.49-55.75 38.94-55.11 40.49-54.54 41.89-54.36 43.34-53.8 44.74-53.42 45.66-52.89 46.54-52.63 47.51-52.17 49.21-51.67 50.91-51.12 52.59-48.61 60.45-45.24 68.15-41.55 75.48-39.82 78.92-38.18 82.48-36.1 85.72-35.48 86.7-34.98 87.66-34.42 88.66-32.51 92.07-30.28 95-27.33 97.58V97.64C-26.48 97.71-25.61 97.45-24.85 98.49-24.44 99.05-24.42 99.83-24.05 100.48-23.45 101.55-22.13 102.79-20.76 102.76-20.33 102.75-19.97 102.49-19.56 102.4-18.31 102.14-16.7 102.3-15.69 103.1-14.95 103.68-14.69 104.45-14.5 105.34-14.13 107.15-14.09 108.84-13.32 110.56-12.49 112.38-10.88 112.65-8.96 112.76-8.4 112.79-7.58 112.58-7.07 112.87-6.29 113.32-5.96 115.08-5.73 115.83-4.95 118.3-4.5 122.67-1.29 123.15-.35 123.29 .43 123.31 1.35 123.65 2.81 124.19 4.8 124.92 6.1 125.65 6.99 126.14 7.94 126.73 8.37 127.71 8.82 128.77 8.32 128.89 7.87 129.75 6.77 131.86 9.35 134.15 11.21 134.86 13.27 135.65 15.86 133.96 17.87 133.42 19.89 132.89 22.83 131.3 24.89 132.27 26.01 132.79 26.55 133.24 27.82 133.32 29.34 133.42 30.93 133.14 32.36 132.59 34.92 131.6 35.41 128.67 35.55 126.22 34.37 125.55 33.43 124.54 32.8 123.34 32.1 122.01 31 116.39 34.34 117.74 35 118.17 35.62 118.66 36.18 119.21 37.2 119.82 38.29 119.88 39.43 119.4 41.18 118.85 42.52 117.79 43.45 116.22 43.82 115.12 44.51 114.28 45.51 113.71 47.9 112.33 51.5 112.9 54.12 113.1 56.45 113.28 58.39 114.09 60.41 115.31 62.06 116.32 63.85 118.12 65.96 117.94 66.8 117.79 67.6 117.51 68.35 117.09 69.2 116.82 70.06 116.76 70.95 116.92 72.6 117.04 73.77 117.27 74.72 118.69 75.64 120.07 75.91 121.29 77.59 121.94 79.59 122.72 81.29 121.97 83.26 121.64 85.04 121.15 86.63 121.5 88.02 122.7 88.9 123.65 89.85 124.53 90.87 125.32 91.55 126.31 90.94 127.28 92.09 127.84 94 128.76 96.81 127.29 98.6 126.89 99.83 126.62 102.4 126.66 103.28 125.42 103.84 124.63 103.52 124.32 104.66 124.52 108.43 125.18 106.2 130.36 109.83 131.16 111.65 131.33 113.26 130.84 114.67 129.67 115.6 128.72 116.26 127.62 116.66 126.36 117.69 124.47 119.56 122.78 121.52 121.85 124.04 120.66 127.05 121.71 129.56 120.36 131.17 119.5 132.27 117.73 132.92 115.99 133.42 114.64 133.79 113.23 134.13 111.84 134.37 110.87 134.42 110.13 135.43 109.82 137.65 109.16 138.32 113.03 140.27 110.76 142 108.72 145.26 104.43 143.41 101.74 142.38 100.23 140.73 98.08 141.53 96.04 141.92 95.03 143.1 94.52 144.08 94.29 143.18 94.01 142.55 94.03 141.9 93.18 140.91 91.89 140.78 88.76 142.2 87.67 143.07 87.01 143.73 87.53 144.66 87.26 146.04 86.85 146.89 85.38 146.5 83.99 145.93 81.93 143.25 81.55 142.83 79.58 142.53 78.15 143.88 76.29 144.85 75.36 146.06 74.2 147.31 73.75 148.04 72.02 148.67 70.51 148.27 69.77 147.08 68.92 145.6 67.87 144.45 66.54 143.63 64.91 143.46 64.36 143.29 63.82 143.12 63.28 143.18 62.66 144.33 61.83 144.8 61.54 145.77 60.96 147 60.93 147.76 60 149.37 58.07 148.51 53.71 146.85 52.2 144.84 50.37 143.2 47.41 145.36 44.88 145.87 44.28 147.98 43.56 148.11 42.69 146.55 41.51 144.06 40.67 143.56 38.55 143.16 36.85 144.5 35.88 145.68 34.89 146.65 34.09 147.96 33.21 148.67 32.14 149.43 31 149.28 30.19 149.16 28.84 149.01 27.16 148.65 26.13 147.37 24.97 146.68 24.35 145.9 23.81 145.06 23.42 144.49 23.16 143.55 23.02 143.26 22.35 142.6 20.81 144.38 18.85 145.16 17.79 145.71 17.02 145.91 16 145.67 15.07 145.36 13.86 144.6 13.37 143.57 12.89 141.72 12.03 140.73 10.83 140.59 8.73 140.46 6.75 141.24 5.76 143.18 5.31 144.43 5.02 144.8 4.61 145.63 3.58 146.61 2.37 147.87 2.13 149.38 2.39 150.23 2.54 152.95 3.11 153.34 3.95 153.79 4.96 153.31 7.44 155.28 6.75 155.97 6.51 156.61 5.17 157.53 5.42 158.28 5.63 158.08 6.55 158.04 7.12 157.93 8 157.83 8.89 157.73 9.77 157.86 11.08 158 12.4 158.13 13.71L158.05 13.72C158.46 16.25 158.83 18.77 160.35 20.91 160.91 21.68 161.47 22.45 162.06 23.19 163.64 25.16 165.34 27.07 167.01 28.95 169.61 31.89 173.37 33.34 177.15 33.8 180.24 34.18 183.41 33.7 186.05 31.99 187.88 30.81 188.67 28.61 189.7 26.78 191.1 24.28 191.65 21.41 191.96 18.6 192.28 15.6 192.69 12.63 192.5 9.61 192.27 5.83 191.53 2.05 190.88-1.68 189.71-8.39 187.76-14.99 185.66-21.48 185.16-23.01 184.41-24.52 184.08-26.09 183.71-27.86 183.52-28.59 182.45-30.26 180.84-32.8 179.42-35.62 177.34-37.82 176.02-39.22 174.35-40.21 172.8-41.33 172.58-41.49 172.36-41.65 172.15-41.82 170.18-43.37 168.17-44.88 166.36-46.6 165.63-47.29 164.91-47.99 164.19-48.69L166.67-49.67C165.46-54.24 164.52-58.01 164.02-62.66 163.77-64.88 163.38-67.09 163.09-69.31 162.59-73.01 162.09-76.65 161.72-80.36 161.28-84.72 160.99-88.91 161.12-93.3 161.12-93.47 161.13-93.63 161.14-93.8 161.23-96.88 161.46-99.9 162.01-102.94 162.65-106.55 163.55-110.12 164.45-113.67 164.65-114.48 164.74-115.31 164.92-116.13 164.99-116.46 165.11-117.22 165.28-117.8 165.29-117.84 165.3-117.87 165.31-117.91 166.1-121.2 163.76-125.38 162.57-128.16 161.78-129.99 161.08-131.92 159.7-133.38 158.6-134.55 157.66-135.84 156.59-137.04 154.31-139.58 151.56-141.63 149.08-143.97 145.69-147.19 142.37-150.57 138.63-153.39 132.63-157.92 125.62-160.85 118.72-163.68 114.51-165.41 110.18-166.79 105.9-168.33 104.47-168.84 103.17-169.27 101.68-169.52 98.76-170.02 96.42-171.02 93.78-172.38 91.26-173.96 88.72-174.6 85.81-175.14 84.19-175.44 82.52-175.56 80.88-175.77 73.29-176.73 65.77-178.93 58.08-179.13 54.09-179.23 49.99-178.88 46-178.67 41.19-178.41 36.42-178.08 31.67-177.43 30.15-177.22 28.62-176.98 27.1-176.7 23.86-176.1 20.62-175.27 17.52-174.13 11.98-172.07 7.23-168.12 2.46-164.78 2.72-160.44 1.4-155.39 .34-150.48ZM72.19-.99C72.96-.98 73.73-.96 74.51-.92 77.61-.77 80.6-.21 83.67 .21 85.04 .4 86.42 .57 87.75 .95 88.59 1.19 89.4 1.47 90.22 1.76 90.73 1.94 91.24 2.13 91.75 2.31 93.87 3.05 95.92 3.9 97.97 4.79 99.15 5.3 100.33 5.83 101.49 6.38 102.06 6.65 102.69 6.98 103.3 7.12L103.38 6.96C103.66 7.08 103.92 7.24 104.2 7.37 102.9 7.22 101.41 7.34 100.17 7.64 98.3 8.09 96.41 8.78 94.74 9.74 94 10.17 93.27 10.61 92.54 11.06 90.64 12.21 88.76 13.39 86.84 14.51 86.92 15.15 85.9 15.49 85.35 15.81 84.63 16.23 83.91 16.66 83.16 17.01 82.03 17.53 80.82 17.74 79.62 18.03 78.08 18.41 76.53 18.86 74.95 19.05 73.03 19.27 71.03 19.3 69.08 19.18 68.81 19.18 68.55 19.16 68.29 19.14 66.38 18.99 64.5 18.87 62.61 18.52 61.05 18.23 59.55 17.7 57.99 17.38 55.67 16.9 53.57 15.53 51.56 14.33 50.56 13.72 49.57 13.1 48.58 12.47 47.72 11.92 46.61 11.63 45.85 10.95 45.26 10.42 44.93 9.7 44.28 9.21 43.98 8.99 43.67 8.81 43.37 8.59 42.34 7.83 41.53 6.66 40.69 5.7L40.64 5.39C39.39 3.95 38.26 2.41 37.52 .63 37.23-.07 36.77-.91 36.65-1.65 36.55-2.26 36.48-3.3 36.92-3.81 37.26-4.19 38.2-4.53 38.7-4.64 39.82-4.9 40.95-3.85 41.69-3.12 42.65-2.17 43.64-1.17 44.45-.09 45.12 .8 45.91 1.73 46.4 2.7L46.56 3.16C48.64 2.45 50.73 1.83 52.83 1.34 55.96 .61 59.14 .04 62.33-.39 65.63-.84 68.88-1.03 72.19-.99M101.65-70.43C101.81-70.15 101.75-69.82 101.31-69.53 100.8-69.86 101.22-70.22 101.65-70.43" fill="#ffffff"/>
<path transform="matrix(1,0,0,-1,491.2762,312.63368)" d="M0 0C.12-2.81-.55-5.38-1.17-8.09-1.91-11.35-2.78-14.6-4.09-17.68-5.94-22.05-8.5-26.31-11.18-30.22-12.66-32.4-14.33-34.43-15.75-36.66-17.7-39.69-19.79-42.41-20.85-45.87-21.19-45.94-21.4-45.8-21.43-45.45V-45.25C-21.9-43.27-23.52-41.69-25.56-41.33-26.8-41.12-28.64-41.22-29.79-41.73-30.37-41.99-32.03-43.63-32.48-43.24-32.15-42.4-31.37-41.52-30.86-40.77-30.18-39.75-29.46-38.73-28.74-37.74-27.65-36.25-26.44-34.89-25.41-33.34-24.65-32.2-24.23-31.37-23.81-30.01-22.95-28.11-23.08-26.16-24.18-24.16-25.32-22.95-26.47-21.74-27.2-21.15-25.56-16.76-23.64-12.85-21.44-8.75-20.16-6.37-19.54-3.73-18.15-1.42-16.91 .65-15.57 2.28-13.74 3.86-12.5 4.94-11.31 6.46-9.95 7.38-8.62 8.27-6.55 9.02-4.92 8.77-3.41 8.53-2.48 6.98-1.67 5.86-.29 3.94-.1 2.36 0 0" fill="#ffffff"/>
<path transform="matrix(1,0,0,-1,470.8262,442.2237)" d="M0 0C.01-.04 .02-.07 .02-.11 .01-.07 0-.04-.01 0Z" fill="#ffffff"/>
<path transform="matrix(1,0,0,-1,405.7062,316.7837)" d="M0 0C1.24-.3 2.73-.42 4.03-.27 3.75-.4 3.49-.56 3.21-.68L3.13-.52C2.52-.66 1.89-.99 1.32-1.26 .16-1.81-1.02-2.34-2.2-2.85-4.25-3.74-6.3-4.59-8.42-5.33-8.93-5.51-9.44-5.7-9.95-5.88L-9.97-5.82C-9.72-5.54-9.39-5.35-9.13-5.06-8.92-4.82-8.76-4.54-8.54-4.3-8.03-3.73-7.81-3.12-7.59-2.37-7.45-1.92-7.32-1.48-7.26-1.01-7.1 .36-7.52 1.86-7.79 3.16L-7.63 3.42C-6.9 2.97-6.17 2.53-5.43 2.1-3.76 1.14-1.87 .45 0 0" fill="#ffffff"/>
<path transform="matrix(1,0,0,-1,406.8462,393.9537)" d="M0 0C.44-.29 .5-.62 .34-.9-.09-.69-.51-.33 0 0" fill="#ffffff"/>
<path transform="matrix(1,0,0,-1,400.0262,382.9337)" d="M0 0C.32-.27 .67-.54 .61-1.02 .55-1.55-.17-2.26-.68-1.99-.58-1.96-.49-1.93-.41-1.9 .2-1.65 .27-1.27 .27-.69-.04-.55-.26-.55-.43-.64-.73-.6-.97-.7-1.09-1.08-1.17-1.32-1.12-1.54-.99-1.73-.92-1.83-.81-1.92-.69-1.99-.96-2.06-1.28-2.07-1.44-1.79-1.15-.93-.87-.34 0 0" fill="#ffffff"/>
<path transform="matrix(1,0,0,-1,399.5962,383.5737)" d="M0 0C.17 .09 .39 .09 .7-.05 .7-.63 .63-1.01 .02-1.26-.06-1.29-.15-1.32-.25-1.35H-.26C-.38-1.28-.49-1.19-.56-1.09-.42-.61-.29-.16 0 0" fill="#ffffff"/>
<path transform="matrix(1,0,0,-1,398.9362,384.0137)" d="M0 0C.12 .38 .36 .48 .66 .44 .37 .28 .24-.17 .1-.65-.03-.46-.08-.24 0 0" fill="#ffffff"/>
<path transform="matrix(1,0,0,-1,397.9162,313.62373)" d="M0 0C.27-1.3 .69-2.8 .53-4.17 .47-4.64 .34-5.08 .2-5.53-.02-6.28-.24-6.89-.75-7.46-.97-7.7-1.13-7.98-1.34-8.22-1.6-8.51-1.93-8.7-2.18-8.98L-2.16-9.04C-2.98-9.33-3.79-9.61-4.63-9.85-5.96-10.23-7.34-10.4-8.71-10.59-11.78-11.01-14.77-11.57-17.87-11.72-18.65-11.76-19.42-11.78-20.19-11.79-20.56-11.66-20.88-11.37-21.22-11.17-21.66-10.9-22.02-10.59-22.44-10.29-23.18-9.77-23.91-9.3-24.61-8.7-25.42-8.01-25.98-6.75-26.44-5.79-27.38-3.85-27.47-1.93-27.11 .16-26.9 1.36-26.66 2.53-26.28 3.69-25.65 5.59-24.68 6.87-23.3 8.38-21.35 8.5-19.35 8.47-17.43 8.25-15.85 8.06-14.3 7.61-12.76 7.23-11.56 6.94-10.35 6.73-9.22 6.21-8.47 5.86-7.75 5.43-7.03 5.01-6.48 4.69-5.46 4.35-5.54 3.71-3.62 2.59-1.74 1.41 .16 .26ZM-13.13-2.48C-13.06-2.48-12.99-2.46-12.92-2.43-12.54-2.39-12.49-2.29-12.34-1.96-12.35-1.94-12.35-1.93-12.37-1.91-12.26-1.69-12.24-1.47-12.34-1.28V-1.26C-12.4-.93-12.62-.65-12.99-.57-13.81-.39-14.55-1.58-13.91-2.21-13.8-2.32-13.66-2.38-13.5-2.4L-13.49-2.41C-13.38-2.47-13.26-2.5-13.13-2.48" fill="#ffffff"/>
<path transform="matrix(1,0,0,-1,385.5762,314.9037)" d="M0 0C.1-.19 .08-.41-.03-.63-.03-.61-.04-.59-.06-.57 .02-.39 .04-.18 0 0" fill="#ffffff"/>
<path transform="matrix(1,0,0,-1,385.5762,314.9037)" d="M0 0C.04-.18 .02-.39-.06-.57-.08-.52-.11-.47-.13-.43-.12-.39-.11-.35-.11-.31-.09-.08-.13 .11-.21 .25-.12 .18-.05 .1 0 .02Z" fill="#ffffff"/>
<path transform="matrix(1,0,0,-1,385.5462,315.5337)" d="M0 0C.02-.02 .02-.03 .03-.05-.12-.38-.17-.48-.55-.52-.54-.52-.54-.52-.53-.51-.52-.51-.51-.5-.5-.5-.5-.5-.49-.5-.49-.49-.34-.45-.2-.34-.07-.13-.05-.09-.02-.04 0 0" fill="#ffffff"/>
<path transform="matrix(1,0,0,-1,385.5162,315.4737)" d="M0 0C.02-.02 .03-.04 .03-.06 .01-.1-.02-.15-.04-.19-.17-.4-.31-.51-.46-.55-.23-.44-.07-.23 0 0" fill="#ffffff"/>
<path transform="matrix(1,0,0,-1,385.3662,314.6537)" d="M0 0C.08-.14 .12-.33 .1-.56 .1-.6 .09-.64 .08-.68-.15-.36-.46-.31-.85-.55-.78-.8-.7-1.04-.63-1.28-.84-1.28-1.06-1.2-1.23-1-1.31-.89-1.38-.67-1.39-.46-1.38-.32-1.33-.19-1.24-.07-1.08 .12-.9 .24-.71 .29-.5 .27-.28 .18-.12 .09-.08 .06-.04 .04 0 .01Z" fill="#ffffff"/>
<path transform="matrix(1,0,0,-1,385.4462,315.33369)" d="M0 0C.02-.04 .05-.09 .07-.14 0-.37-.16-.58-.39-.69-.39-.7-.4-.7-.4-.7-.41-.7-.42-.71-.43-.71-.47-.72-.51-.73-.56-.72-.58-.73-.6-.73-.63-.73-.64-.73-.65-.73-.67-.72-.69-.68-.7-.64-.71-.6-.39-.59-.08-.35 0 0" fill="#ffffff"/>
<path transform="matrix(1,0,0,-1,384.3562,315.98359)" d="M0 0C.02-.02 .04-.03 .06-.04-.1-.02-.24 .04-.35 .15-.99 .78-.25 1.97 .57 1.79 .94 1.71 1.16 1.43 1.22 1.1 1.17 1.18 1.1 1.26 1.01 1.33V1.34C.86 1.59 .58 1.69 .3 1.62 .07 1.65-.16 1.6-.3 1.4-.38 1.3-.4 1.08-.38 .87-.42 .54-.26 .18 0 0" fill="#ffffff"/>
<path transform="matrix(1,0,0,-1,385.3662,314.64369)" d="M0 0C-.04 .03-.08 .05-.12 .08-.28 .17-.5 .26-.71 .28-.43 .35-.15 .25 0 0" fill="#ffffff"/>
<path transform="matrix(1,0,0,-1,384.5162,315.20368)" d="M0 0C.39 .24 .7 .19 .93-.13 .85-.48 .54-.72 .22-.73 .15-.49 .07-.25 0 0" fill="#ffffff"/>
<path transform="matrix(1,0,0,-1,385.0162,316.04359)" d="M0 0C-.01-.01-.01-.01-.02-.01-.06-.01-.09-.02-.13-.01-.08-.02-.04-.01 0 0" fill="#ffffff"/>
<path transform="matrix(1,0,0,-1,384.8862,316.0537)" d="M0 0C.04-.01 .07 0 .11 0 .04-.03-.03-.05-.1-.05-.1-.04-.11-.02-.11-.01H-.07C-.04-.01-.02-.01 0 0" fill="#ffffff"/>
<path transform="matrix(1,0,0,-1,384.8162,316.06373)" d="M0 0H-.04V.01C-.02 0-.01 0 0 0" fill="#ffffff"/>
<path transform="matrix(1,0,0,-1,384.7762,316.06373)" d="M0 0C0-.01 .01-.03 .01-.04-.12-.06-.24-.03-.35 .03-.23 0-.11-.01 0 0" fill="#ffffff"/>
<path transform="matrix(1,0,0,-1,384.7762,316.0537)" d="M0 0V-.01C-.11-.02-.23-.01-.35 .02L-.36 .03C-.38 .04-.4 .05-.42 .07-.26 .03-.12 0 0 0" fill="#ffffff"/>
<path transform="matrix(1,0,0,-1,384.7362,315.93373)" d="M0 0C.01-.04 .02-.08 .04-.12-.08-.12-.22-.09-.38-.05-.64 .13-.8 .49-.76 .82-.75 .61-.68 .39-.6 .28-.43 .08-.21 0 0 0" fill="#ffffff"/>
<path transform="matrix(1,0,0,-1,384.0562,314.58369)" d="M0 0C.14 .2 .37 .25 .6 .22 .41 .17 .23 .05 .07-.14-.02-.26-.07-.39-.08-.53-.1-.32-.08-.1 0 0" fill="#ffffff"/>
<path transform="matrix(1,0,0,-1,377.7262,325.4137)" d="M0 0C-3.31-.04-6.56 .15-9.86 .6-13.05 1.03-16.23 1.6-19.36 2.33-21.46 2.82-23.55 3.44-25.63 4.15-27.61 4.83-29.58 5.58-31.55 6.38L-31.5 6.69C-30.66 7.65-29.85 8.82-28.82 9.58-28.52 9.8-28.21 9.98-27.91 10.2-27.26 10.69-26.93 11.41-26.34 11.94-25.58 12.62-24.47 12.91-23.61 13.46-22.62 14.09-21.63 14.71-20.63 15.32-18.62 16.52-16.52 17.89-14.2 18.37-12.64 18.69-11.14 19.22-9.58 19.51-7.69 19.86-5.81 19.98-3.9 20.13-3.64 20.15-3.38 20.17-3.11 20.17-4.49 18.66-5.46 17.38-6.09 15.48-6.47 14.32-6.71 13.15-6.92 11.95-7.28 9.86-7.19 7.94-6.25 6-5.79 5.04-5.23 3.78-4.42 3.09-3.72 2.49-2.99 2.02-2.25 1.5-1.83 1.2-1.47 .89-1.03 .62-.69 .42-.37 .13 0 0" fill="#ffffff"/>
<path transform="matrix(1,0,0,-1,352.0962,321.26368)" d="M0 0-.16-.46C-.65-1.43-1.44-2.36-2.11-3.25-2.92-4.33-3.91-5.33-4.87-6.28-5.61-7.01-6.74-8.06-7.86-7.8-8.36-7.69-9.3-7.35-9.64-6.97-10.08-6.46-10.01-5.42-9.91-4.81-9.79-4.07-9.33-3.23-9.04-2.53-8.3-.75-7.17 .79-5.92 2.23-3.95 1.43-1.98 .68 0 0" fill="#ffffff"/>
<path transform="matrix(1,0,0,-1,342.3062,578.7637)" d="M0 0C1.04 .53-.1 1.24-.39 .68-.56 .33-.38 .05-.05 .09-.03 .06-.02 .03 0 0M4.31 .33C4.21 .23 4.18 .06 4.21-.06 4.39-.09 4.68-.25 4.8-.04 4.83 .01 4.83 .06 4.81 .11 4.9 .3 4.64 .56 4.37 .39 4.35 .37 4.33 .36 4.31 .33M2.32 5.34C2.58 5.34 2.86 5.31 2.99 5.31 3.74 5.31 4.43 5.2 5.17 5.08 7.87 4.61 8.96 1.67 8.48-.8 8.01-3.25 5.78-4.99 3.34-5.22 2.02-5.34 .63-5-.52-4.37-1.33-3.92-2.22-3.39-2.72-2.6-3.59-1.24-3.93 .15-3.6 1.76-3.46 2.43-3.32 3.13-2.93 3.7-2.75 3.97-2.54 4.29-2.29 4.51-1.77 4.84-1.21 5.06-.61 5.16 .33 5.46 1.31 5.61 2.31 5.62Z" fill="#ffffff"/>
<path transform="matrix(1,0,0,-1,345.3162,518.3437)" d="M0 0C.41-.03 .84-.11 1.1-.26 1.49-.49 1.82-.94 2.22-1.2 3.04-1.73 3.92-2.26 4.42-3.15 4.99-4.16 4.95-5.45 4.83-6.57 4.68-8.01 3.87-9.22 2.54-9.89 .8-10.77-1.16-10.23-2.62-9.11-4.07-7.99-5.3-6.78-5.23-4.81-5.2-3.91-4.99-3.14-4.59-2.34-4.4-1.95-4.21-1.55-3.97-1.2-3.63-.65-3.15-.29-2.53-.11-1.75 .38-.88 .52 .07 .27ZM-2.05-3.77C-2.01-4.06-1.97-4.36-1.93-4.65-1.06-4.83-1.46-3.74-1.96-3.75-1.99-3.75-2.02-3.75-2.05-3.77M1.61-5.9C1.72-6.02 1.83-6.12 1.97-6.2 1.87-6.11 1.74-5.97 1.61-5.9" fill="#ffffff"/>
<path transform="matrix(1,0,0,-1,347.1162,578.6537)" d="M0 0C-.02-.06-.08-.11-.19-.14-.29-.02-.39 .1-.5 .22-.48 .25-.46 .26-.44 .28-.17 .45 .09 .19 0 0" fill="#ffffff"/>
<path transform="matrix(1,0,0,-1,347.1162,578.6537)" d="M0 0C.02-.05 .02-.1-.01-.15-.13-.36-.42-.2-.6-.17-.63-.05-.6 .12-.5 .22-.39 .1-.29-.02-.19-.14-.08-.11-.02-.06 0 0" fill="#ffffff"/>
<path transform="matrix(1,0,0,-1,347.2862,524.5437)" d="M0 0C-.14 .08-.25 .18-.36 .3-.23 .23-.1 .09 0 0" fill="#ffffff"/>
<path transform="matrix(1,0,0,-1,341.1062,637.9737)" d="M0 0C.2 .24 .31 .88 .08 1.19 .08 1.19 .07 1.2 .07 1.21 .04 1.32-.01 1.4-.15 1.42-.16 1.4-.18 1.37-.18 1.35-.19 1.34-.2 1.33-.2 1.32-.21 1.31-.22 1.3-.22 1.28-.26 1.23-.28 1.18-.28 1.12-.28 1.1-.28 1.08-.29 1.06-.29 1.06-.3 1.06-.29 1.05-.3 1.02-.3 .99-.3 .96-.36 .59-.28 .16 0 0M-.24 7.05C.03 6.96 .3 6.83 .56 6.72 1.18 6.46 1.42 6.12 1.78 5.61 2.77 4.18 3.44 3.07 3.35 1.25 3.27-.43 2.55-2.62 .85-3.26-1.28-4.06-3.88-3.75-5.64-2.34-6.55-1.62-7.65-.48-7.97 .67-8.16 1.37-8.03 2.2-7.93 2.9-7.76 3.99-7.33 5.04-6.71 5.97-6.28 6.69-5.65 7.19-4.83 7.47-3.25 7.99-1.68 7.97-.12 7.4ZM-4.16 2.71C-4.22 2.69-4.27 2.62-4.31 2.52-4.45 2.18-4.43 1.53-3.94 1.75-3.71 1.86-3.81 2.26-3.98 2.52H-3.97C-4.03 2.67-4.1 2.72-4.16 2.71" fill="#ffffff"/>
<path transform="matrix(1,0,0,-1,343.7962,402.3237)" d="M0 0 .02-.19C-1.14-.33-2.36-.73-3.42-1.16-5.58-2.04-7.57-3.43-9.59-4.57-11.06-5.4-12.49-6.29-13.78-7.39-14.83-8.27-15.9-9.05-17.11-9.7-18.39-10.39-19.79-10.93-21.14-11.46-22.5-11.99-23.76-12.21-25.19-12.43-28.96-13.01-32.8-12.92-36.6-12.92-40.79-12.92-45.1-13.07-49.26-12.4-53.07-11.79-57.36-11.25-60.66-9.07-61.58-8.45-62.43-7.7-63.3-7.02-64.64-5.97-65.86-4.81-67.15-3.7-69.17-1.97-71.8-1.09-74.19-.03-73.7-.06-73.21-.09-72.74-.11-69.45-.3-66.73-.44-64.09-1.01-63.33-1.17-62.56-1.33-61.8-1.48-60.16-1.8-58.49-1.89-56.94-2.51-55.64-3.04-54.23-3.36-52.98-3.98-51.88-4.52-50.79-5.21-49.78-5.89-48.42-6.83-46.82-7.69-45.12-7.71-41.48-7.75-37.95-7.2-34.56-5.87-31.85-4.8-29.12-3.78-26.41-2.68-22.89-1.25-18.8-1.59-15.08-1.58-13.61-1.58-12.13-1.72-10.67-1.65-9.18-1.58-7.74-1.26-6.29-.97-5.59-.84-4.95-.55-4.25-.44-3.56-.33-2.86-.21-2.17-.14V-.06C-2.09-.06-2.02-.06-1.94-.05-1.38-.01-.64-.08 0 0" fill="#ffffff"/>
<path transform="matrix(1,0,0,-1,343.3562,522.0937)" d="M0 0C.5 .01 .9-1.08 .03-.9-.01-.61-.05-.31-.09-.02-.06 0-.03 0 0 0" fill="#ffffff"/>
<path transform="matrix(1,0,0,-1,342.2562,578.6737)" d="M0 0C-.33-.04-.51 .24-.34 .59-.05 1.15 1.09 .44 .05-.09 .03-.06 .02-.03 0 0" fill="#ffffff"/>
<path transform="matrix(1,0,0,-1,341.6262,402.3837)" d="M0 0V-.08C-.69-.15-1.39-.27-2.08-.38-2.78-.49-3.42-.78-4.12-.91-5.57-1.2-7.01-1.52-8.5-1.59-9.96-1.66-11.44-1.52-12.91-1.52-16.63-1.53-20.72-1.19-24.24-2.62-26.95-3.72-29.68-4.74-32.39-5.81-35.78-7.14-39.31-7.69-42.95-7.65-44.65-7.63-46.25-6.77-47.61-5.83-48.62-5.15-49.71-4.46-50.81-3.92-52.06-3.3-53.47-2.98-54.77-2.45-56.32-1.83-57.99-1.74-59.63-1.42-60.39-1.27-61.16-1.11-61.92-.95-64.56-.38-67.28-.24-70.57-.05V.01C-69.48-.03-68.46 .02-67.36 .44-66.28 .86-65.2 1.19-64.11 1.57-63.06 1.93-62.04 2.36-61 2.74-59.23 3.36-57.46 3.74-55.62 4.07-53.69 4.42-51.62 4.6-49.66 4.64-48 4.67-46.44 4.54-44.99 3.7-43.86 3.06-42.81 2.35-41.88 1.45-41.61 1.2-41.23 .69-40.68 .59-38.9 2.04-37.35 3.58-35.22 4.4-34.29 4.75-33.39 5.04-32.43 5.3-30.79 5.74-28.91 5.99-27.21 6.04-23.43 6.13-19.62 5.01-16.13 3.6-14.64 2.99-13.3 2.08-11.79 1.54-9.35 .66-6.88 0-4.27-.11-2.86-.16-1.41-.12 0 0" fill="#ffffff"/>
<path transform="matrix(1,0,0,-1,341.1862,636.7837)" d="M0 0C.23-.31 .12-.95-.08-1.19-.36-1.03-.44-.6-.38-.23-.38-.2-.38-.17-.37-.14-.38-.13-.37-.13-.37-.13-.36-.11-.36-.09-.36-.07-.34-.01-.32 .04-.3 .09-.3 .11-.29 .12-.28 .13-.28 .14-.27 .15-.26 .16-.15 .14-.07 .09-.01 .02-.01 .01 0 0 0 0" fill="#ffffff"/>
<path transform="matrix(1,0,0,-1,340.9562,636.5537)" d="M0 0C.14-.02 .19-.1 .22-.21 .16-.14 .08-.09-.03-.07-.03-.05-.01-.02 0 0" fill="#ffffff"/>
<path transform="matrix(1,0,0,-1,340.8862,636.6937)" d="M0 0C-.02-.05-.04-.1-.06-.16-.06-.1-.04-.05 0 0" fill="#ffffff"/>
<path transform="matrix(1,0,0,-1,337.1262,635.45376)" d="M0 0C.17-.26 .27-.66 .04-.77-.45-.99-.47-.34-.33 0Z" fill="#ffffff"/>
<path transform="matrix(1,0,0,-1,284.9162,467.24369)" d="M0 0 .21 .32C.87-.1 1.54-.5 2.21-.89 4.13-2.01 6.06-2.96 8.16-3.73 9.84-4.36 11.57-4.88 13.32-5.31 15.49-5.84 17.71-6.22 19.93-6.45 20.31-6.49 20.68-6.52 21.06-6.55L20.96-7.66C22.02-12.57 23.34-17.62 23.08-21.96 27.85-25.3 32.6-29.25 38.14-31.31 41.24-32.45 44.48-33.28 47.72-33.88 49.24-34.16 50.77-34.4 52.29-34.61L52.23-35.03C44.9-38.09 37.14-41.4 31.29-46.93 27.59-50.43 24.05-54.23 20.89-58.22 17.8-62.11 15.01-66.42 13.37-71.14 12.45-73.8 11.51-77.19 12.02-80.07 9.84-74.95 6.26-70.57 3.48-65.78 1.97-63.17 .57-60.49-.84-57.83-2.26-55.16-3.79-52.51-4.87-49.68-6.51-45.42-7.77-41.15-8.25-36.6-8.74-32-8.54-27.44-8.04-22.84-7.81-20.74-7.45-18.68-6.97-16.67-5.96-12.45-4.4-8.43-2.29-4.59-1.46-3.08-.47-1.68 0 0" fill="#ffffff"/>
<path transform="matrix(1,0,0,-1,337.1362,635.45376)" d="M0 0H-.01C-.06 .08-.13 .15-.19 .19-.13 .2-.06 .15 0 0" fill="#ffffff"/>
<path transform="matrix(1,0,0,-1,337.1262,635.45376)" d="M0 0H-.33C-.29 .1-.24 .17-.18 .19-.12 .15-.05 .08 0 0" fill="#ffffff"/>
<path transform="matrix(1,0,0,-1,336.5862,507.21369)" d="M0 0C-1.35-8.24-2.18-16.54-4.41-24.59-5.38-28.08-6.95-31.3-8.56-34.54-12.8-43.06-11.55-52.86-9.8-61.91-7.51-73.73-4.05-85.89-4.99-98.11-5.7-107.32-12.47-114.62-12.98-123.82-13.2-127.81-11.66-130.03-10.33-133.56-8.56-138.27-8.41-142.37-9.52-147.22-10.9-153.21-12.67-158.77-12.68-164.99-12.68-167.75-12.13-170.26-11.53-172.91-11.19-174.39-11.24-176-11-177.5-12.19-176.92-13.33-176.32-14.39-175.75-18.07-173.78-21.33-171.1-24.81-168.82-27.04-167.35-29.65-165.7-32.42-165.99-35.37-166.29-38.31-167.25-41.09-168.23-48.39-170.81-55.84-172.75-63.63-173.22-75.22-173.93-86.78-171.5-97.67-167.67-103.15-165.74-108.39-163.06-113.98-161.44-117.86-160.32-121.99-159.84-125.99-159.38-130.1-158.91-134.3-158.49-138.45-158.7-151.41-159.37-165.67-163.1-177.97-157.4-188.17-152.68-197.08-145.28-207.99-142.05-212.47-140.72-217.46-140.52-222.09-140.4-229.81-140.22-237.28-141.6-244.8-143.17-246.18-143.03-245.72-141.67-245.62-140.96-244.97-136.42-244.16-131.89-242.98-127.45-241.86-123.26-240.79-119.06-239.7-114.86-237.27-105.54-233.55-96.63-230.23-87.62-228.4-82.63-226.74-77.58-224.89-72.61-221.37-63.19-216.85-54.04-211.89-45.31-210.21-42.35-208.36-39.66-206.12-37.1-203.15-33.71-200.16-31.62-196.33-29.3-191.04-26.09-186.14-23.03-180.44-20.56-175.2-18.3-170.04-15.85-164.8-13.6-157.23-10.34-149.34-8.49-141.5-6.08-134.98-4.07-128.68-1.74-122.31 .68-112.54 4.38-102.49 7.79-92.24 9.84-88 10.69-83.99 12.48-79.86 13.72-72.27 16-65.7 19.29-58.88 23.36L-58.64 23.3C-59.12 21.29-59.48 19.23-59.71 17.13-60.21 12.53-60.41 7.97-59.92 3.37-59.44-1.18-58.18-5.45-56.54-9.71-55.46-12.54-53.93-15.19-52.51-17.86-51.1-20.52-49.7-23.2-48.19-25.81-45.41-30.6-41.83-34.98-39.65-40.1-40.16-37.22-39.22-33.83-38.3-31.17-36.66-26.45-33.87-22.14-30.78-18.25-27.62-14.26-24.08-10.46-20.38-6.96-14.53-1.43-6.77 1.88 .56 4.94 .19 4.67 .25 4.44 .49 4.25 .46 3.27 .39 2.34 .24 1.41 .16 .94 .08 .47 0 0" fill="#ffffff"/>
<path transform="matrix(1,0,0,-1,336.8262,505.80369)" d="M0 0C-.01-.1-.02-.19-.04-.29-.08-.53-.12-1.05-.24-1.41-.16-.94-.08-.47 0 0" fill="#ffffff"/>
<path transform="matrix(1,0,0,-1,325.5862,684.7137)" d="M0 0C.11-.05 .22-.1 .33-.16 .29-.29 .21-.39 .09-.48 .06-.32 .03-.16 0 0" fill="#ffffff"/>
<path transform="matrix(1,0,0,-1,299.8462,318.26368)" d="M0 0C.29 .39 .63 .71 .85 1.16 .97 1.42 1.08 1.68 1.2 1.95 1.28 2.12 1.44 2.34 1.48 2.53 1.68 3.48 1.32 4.75 1.23 5.69L1.46 5.93C1.79 5.63 2.11 5.32 2.41 4.98 3.2 4.1 3.96 3.08 4.53 2.05 5.17 .91 6.02-.15 6.49-1.37 6.88-2.36 7.54-3.19 7.61-4.3 7.67-5.31 6.64-6 5.69-6.16 4.13-6.42 2.82-5.01 1.87-3.94 1.27-3.26 .73-2.51 .16-1.79-.1-1.46-.42-1.12-.6-.74L-.75-.23C-.5-.16-.25-.08 0 0" fill="#ffffff"/>
<path transform="matrix(1,0,0,-1,291.4562,313.6637)" d="M0 0C.07 .23 .02 .47-.18 .69-.19 .7-.21 .72-.22 .72-.25 .76-.27 .78-.3 .8-.33 .83-.36 .85-.39 .87-1.1 1.25-1.89 .29-1.58-.36-1.56-.59-1.42-.77-1.15-.83-1.1-.81-1.05-.79-1.01-.75-.95-.75-.88-.75-.81-.73-.6-.79-.39-.78-.24-.66-.08-.52 0-.28 0-.02ZM9.62 1.09C9.71 .15 10.07-1.12 9.87-2.07 9.83-2.26 9.67-2.48 9.59-2.65 9.47-2.92 9.36-3.18 9.24-3.44 9.02-3.89 8.68-4.21 8.39-4.6 8.14-4.68 7.89-4.76 7.64-4.83 6.57-5.14 5.46-5.39 4.41-5.7 2.97-6.13 1.55-6.64 .1-7.03-.95-7.32-2.02-7.39-3.1-7.48-4.65-7.62-6.21-7.74-7.76-7.77L-7.77-7.35C-8.5-7.17-9.12-6.67-9.73-6.26-10.78-5.55-11.56-4.69-12.23-3.6-13.07-2.24-13.47-.53-13.34 1.06-13.28 1.74-13.31 2.44-13.16 3.11-13.08 3.49-12.96 3.87-12.87 4.24-12.57 5.41-11.79 6.4-11.17 7.41L-11.18 7.46C-10.36 7.6-9.53 7.7-8.7 7.75-7 7.84-5.36 7.79-3.83 7.41-1.35 6.94 1 6.45 3.25 5.28 4.18 4.8 5.15 4.48 6.07 3.96 7.38 3.21 8.71 2.36 9.85 1.33Z" fill="#ffffff"/>
<path transform="matrix(1,0,0,-1,291.2762,312.9737)" d="M0 0C.2-.22 .25-.46 .18-.69 .18-.42 .1-.15-.04 .03-.03 .03-.01 .01 0 0" fill="#ffffff"/>
<path transform="matrix(1,0,0,-1,290.4762,314.33369)" d="M0 0H.01C.02 0 .03-.01 .04-.01 .04-.02 .05-.02 .06-.02 .03-.05 0-.07-.03-.08-.18-.07-.32-.02-.44 .09-.51 .16-.56 .23-.6 .31-.72 .95 .03 1.96 .68 1.47 .71 1.45 .73 1.43 .76 1.39 .9 1.21 .98 .94 .98 .67V.65C.96 .58 .93 .52 .9 .47 .88 .75 .64 1.14 .43 1.24-.06 1.49-.49 .96-.43 .49-.4 .3-.22 .11 0 0" fill="#ffffff"/>
<path transform="matrix(1,0,0,-1,291.3762,313.8637)" d="M0 0C.03 .05 .06 .11 .08 .18 .08-.08 0-.32-.16-.46-.31-.58-.52-.59-.73-.53-.7-.53-.66-.52-.63-.5-.35-.52-.08-.45-.01-.12 0-.08 0-.04 0 0" fill="#ffffff"/>
<path transform="matrix(1,0,0,-1,291.3762,313.8637)" d="M0 0C0-.04 0-.08-.01-.12-.08-.45-.35-.52-.63-.5-.37-.43-.13-.24 0 0" fill="#ffffff"/>
<path transform="matrix(1,0,0,-1,291.0662,312.79359)" d="M0 0C.03-.02 .06-.04 .09-.07-.56 .42-1.31-.59-1.19-1.23-1.5-.58-.71 .38 0 0" fill="#ffffff"/>
<path transform="matrix(1,0,0,-1,290.5662,314.3437)" d="M0 0H-.01-.05C-.06 0-.07 .01-.08 .01H-.09C-.31 .12-.49 .31-.52 .5-.58 .97-.15 1.5 .34 1.25 .55 1.15 .79 .76 .81 .48 .68 .24 .44 .05 .18-.02 .12-.02 .06-.02 0 0" fill="#ffffff"/>
<path transform="matrix(1,0,0,-1,290.5662,314.3437)" d="M0 0C.06-.02 .12-.02 .18-.02 .15-.04 .11-.05 .08-.05 .04-.04 .01-.03-.03-.01-.02-.02-.02-.02-.01 0Z" fill="#ffffff"/>
<path transform="matrix(1,0,0,-1,290.6462,314.39369)" d="M0 0C-.07-.02-.14-.02-.2-.02-.17-.01-.14 .01-.11 .04-.07 .02-.04 .01 0 0" fill="#ffffff"/>
<path transform="matrix(1,0,0,-1,290.5562,314.3437)" d="M0 0C-.01-.02-.01-.02-.02-.01-.03-.01-.04-.01-.04 0Z" fill="#ffffff"/>
<path transform="matrix(1,0,0,-1,290.4462,314.4137)" d="M0 0C-.04-.04-.09-.06-.14-.08-.41-.02-.55 .16-.57 .39-.53 .31-.48 .24-.41 .17-.29 .06-.15 .01 0 0" fill="#ffffff"/>
<path transform="matrix(1,0,0,-1,283.6862,321.01368)" d="M0 0 .01-.42C-.76-.44-1.51-.44-2.27-.4-3.88-.31-5.44-.25-7.05-.02-8.01 .12-8.97 .22-9.94 .25-11.23 .28-12.64 .75-13.89 1.02-15.27 1.32-16.59 1.74-17.93 2.18-19.54 2.69-21 3.31-22.54 3.99-23.14 4.25-23.66 4.59-24.24 4.9-24.58 5.08-24.95 5.21-25.3 5.36-26.4 5.81-27.33 6.49-28.56 7.51-26.63 7.45-24.61 7.24-22.76 7.97-21.67 8.4-20.57 8.81-19.47 9.23-16.98 10.17-14.77 11.67-12.3 12.64-10.18 13.47-7.89 14.07-5.65 14.44-4.9 14.56-4.16 14.7-3.41 14.81L-3.4 14.76C-4.02 13.75-4.8 12.76-5.1 11.59-5.19 11.22-5.31 10.84-5.39 10.46-5.54 9.79-5.51 9.09-5.57 8.41-5.7 6.82-5.3 5.11-4.46 3.75-3.79 2.66-3.01 1.8-1.96 1.09-1.35 .68-.73 .18 0 0" fill="#ffffff"/>
</g>
</g>
<path transform="matrix(1,0,0,-1,291.5362,247.89368)" stroke-width="1.7" stroke-linecap="round" stroke-linejoin="round" fill="none" stroke="#000000" d="M0 0C7.28-1.54 25.07-4.24 32.46-5.11 34.4-5.58 36.35-5.73 38.32-5.57 41.19-5.47 44.03-5.29 46.87-4.86 52.15-4.04 57.36-2.98 62.67-2.42 68.38-1.82 74.06-1.11 79.76-.44 81.58-.23 94.23 .27 96.05 .39"/>
<path transform="matrix(1,0,0,-1,329.9662,469.7237)" stroke-width="1.7" stroke-linecap="round" stroke-linejoin="round" fill="none" stroke="#000000" d="M0 0C-.37-.1-.74-.2-1.11-.28"/>
<path transform="matrix(1,0,0,-1,441.0862,393.1337)" stroke-width="1.7" stroke-linecap="round" stroke-linejoin="round" fill="none" stroke="#000000" d="M0 0C.91 4.07-1.88-7.28-1.48-7.47-1.9-7.94-1.98-9.05-2.14-9.7-2.63-11.7-3.2-13.7-3.87-15.65-5.32-19.88-8.03-23.84-10.42-27.59-12.8-31.34-16.18-34.05-19-37.39-20.72-39.42-22.12-41.46-24.35-43.03-28.6-46.02-33.05-49.04-37.54-51.64-40.16-53.15-43.45-54.61-46.38-55.48-48.73-56.18-51.08-56.49-53.37-57.42-56.98-58.88-60.67-59.6-64.52-60.06-67.35-60.39-70.19-60.32-72.99-60.87-76.64-61.59-80.16-62.74-83.81-63.42-87.4-64.09-90.71-65.56-93.94-67.2-97.71-69.12-101.23-71.28-104.67-73.67-106.58-74.99-108.82-75.96-111.09-76.58"/>
<path transform="matrix(1,0,0,-1,275.2362,456.4237)" stroke-width="1.7" stroke-linecap="round" stroke-linejoin="round" fill="none" stroke="#000000" d="M0 0C.62-.95 1.25-1.9 1.81-2.89 2.04-3.3 2.26-3.7 2.56-4.06 3.23-4.85 3.83-5.73 4.58-6.45 6.18-8 8-9.31 9.89-10.5 10.55-10.92 11.22-11.32 11.89-11.71 13.81-12.83 15.74-13.78 17.84-14.55 19.52-15.18 21.25-15.7 23-16.13 25.17-16.66 27.39-17.04 29.61-17.27 29.99-17.31 30.36-17.34 30.74-17.37 31.97-17.47 33.2-17.52 34.43-17.6 36.37-17.74 38.32-17.79 40.26-17.74 41.97-17.71 43.69-17.66 45.37-17.3 47.1-16.94 48.68-16.18 50.29-15.48 50.85-15.23 51.36-14.86 51.88-14.54 52.22-14.33 52.56-14.17 52.94-14.02 53.53-13.77 54.17-13.61 54.73-13.3 54.74-13.29 54.75-13.29 54.76-13.29 54.95-13.2 55.08-13.18 55.26-13.1"/>
<path transform="matrix(1,0,0,-1,288.5362,428.4737)" stroke-width="1.7" stroke-linecap="round" stroke-linejoin="round" fill="none" stroke="#000000" d="M0 0C3.67 .82 7.39 1.39 11.13 1.71 12.74 1.51 14.34 1.38 15.96 1.3 18.19 1.14 20.34 .91 22.53 .54 24.49 .21 26.46-.28 28.38-.78 29.01-.95 30.04-1.68 30.69-1.62"/>
<path transform="matrix(1,0,0,-1,416.8762,328.0937)" stroke-width="1.7" stroke-linecap="round" stroke-linejoin="round" fill="none" stroke="#000000" d="M0 0C4.69-2.65 9.96-5.02 13.58-9.12 14-9.59 14.72-10.88 15.32-11.11"/>
<path transform="matrix(1,0,0,-1,419.5662,322.37373)" stroke-width="1.7" stroke-linecap="round" stroke-linejoin="round" fill="none" stroke="#000000" d="M0 0C4.32-1.22 9.12-2.18 12.92-4.69 14.42-5.67 15.69-6.92 17.17-7.91"/>
<path transform="matrix(1,0,0,-1,420.5762,317.82368)" stroke-width="1.7" stroke-linecap="round" stroke-linejoin="round" fill="none" stroke="#000000" d="M0 0C5.14 .35 10.3 .69 15.37-.47 16.2-.66 17.25-.83 17.84-1.52"/>
<path transform="matrix(1,0,0,-1,348.8662,338.02369)" stroke-width="1.7" stroke-linecap="round" stroke-linejoin="round" fill="none" stroke="#000000" d="M0 0C2.77-2.53 5.86-4.54 9.27-6.03 12.15-7.79 15.27-8.96 18.62-9.51 21.93-9.89 25.53-9.87 28.86-9.66 32.77-9.42 36.83-8.17 40.5-6.81 42.93-5.9 45.27-4.68 47.6-3.56 48.08-3.32 52.89-1.28 52.69-.51"/>
<path transform="matrix(1,0,0,-1,257.9662,331.62373)" stroke-width="1.7" stroke-linecap="round" stroke-linejoin="round" fill="none" stroke="#000000" d="M0 0C6.61-3.87 13.42-7.86 21.35-7.16 24.26-6.9 27.52-6.33 30.11-4.85 31.03-4.32 31.83-3.6 32.68-2.98 33.15-2.63 33.68-2.36 34.01-1.86"/>
<path transform="matrix(1,0,0,-1,364.1862,330.6137)" stroke-width="1.7" stroke-linecap="round" stroke-linejoin="round" fill="none" stroke="#000000" d="M0 0C2.98-.78 6.01-1.13 9.07-1.05 11.47-1.26 13.87-1.16 16.25-.76 17.14-.48 17.99-.03 18.85 .33"/>
<path transform="matrix(1,0,0,-1,281.6562,258.68373)" stroke-width="1.7" stroke-linecap="round" stroke-linejoin="round" fill="none" stroke="#000000" d="M0 0C6.06-.81 22.57-1.61 28.63-2.42 32.44-3.23 36.27-3.6 40.13-3.53 44.26-3.54 48.39-3.14 52.5-2.84 59.87-2.29 67.02-.8 74.35-.07 81.72 .65 89.13 .94 96.51 1.53 100.19 1.82 111.08 2.73 120.7 1.71"/>
<path transform="matrix(1,0,0,-1,308.0962,239.00373)" stroke-width="1.7" stroke-linecap="round" stroke-linejoin="round" fill="none" stroke="#000000" d="M0 0C9.26-2.07 18.6-3.28 28.03-3.62 32.5-4.24 36.91-3.94 41.28-2.71 47.33-1.9 53.4-1.39 59.45-.68 64.66-.07 69.81 .81 75.05 1.23"/>
<path transform="matrix(1,0,0,-1,326.5462,231.62372)" stroke-width="1.7" stroke-linecap="round" stroke-linejoin="round" fill="none" stroke="#000000" d="M0 0C7.59-1.07 15.09-1.92 22.79-1.91 25.84-1.91 28.83-1.69 31.87-1.58 35.31-1.46 38.62-.63 42.04-.41"/>
<path transform="matrix(1,0,0,-1,278.2062,226.84369)" stroke-width="1.7" stroke-linecap="round" stroke-linejoin="round" fill="none" stroke="#000000" d="M0 0C-2.95-2.58-5.18-5.51-7.09-8.92-7.65-9.92-8.15-10.88-8.77-11.86-10.85-15.1-12.49-18.66-14.22-22.1-17.91-29.43-21.28-37.13-23.79-44.99-24.34-46.67-24.84-48.37-25.3-50.07-25.56-51.04-26.09-51.92-26.47-52.84-27.03-54.24-27.21-55.69-27.78-57.09-28.42-58.64-28.89-60.09-29.44-61.66-30.27-64.02-31.5-65.97-32.06-68.43-32.58-70.72-32.96-73.08-33.31-75.4-33.55-77.05-33.67-79.16-32.96-80.69-32.37-81.95-31.4-83.01-30.97-84.33-30.3-86.37-30.13-88.63-30.29-90.77-30.47-93.21-30.94-94.58-32.56-96.35-33.68-97.58-34.96-99.03-35.39-100.64-35.9-102.51-35.83-104.81-35.8-106.75-35.77-108.26-35.44-109.87-34.98-111.3-34.38-113.16-34.34-114.88-34.49-116.87-34.65-118.98-34.62-121.09-35.16-123.15-35.42-124.11-35.55-124.85-35.7-125.89-35.97-127.72-36.69-129.21-37.08-130.95-37.48-132.67-38.08-134.72-38.25-136.51-38.46-138.7-38.34-140.97-38.47-143.18-38.57-144.76-38.07-145.96-37.84-147.5-37.38-150.49-37.32-153.46-37.11-156.46-37.02-157.67-36.71-158.21-36.29-159.24-35.59-160.93-35.31-162.68-34.8-164.43-34.02-167.12-32.86-169.93-31.85-172.55-30.95-174.9-30.4-177.39-29.47-179.72-28.75-181.5-29.12-183.08-29.19-185.02-29.27-186.92-29.26-188.81-29.26-190.7-29.25-194.19-30.16-198.78-27.91-201.75-25.58-204.81-22.96-207.59-20.45-210.49-18.41-212.85-16.64-215.03-14.12-216.96-12.09-218.52-10.06-220.23-8.24-222.02-6.02-224.2-4.49-226.9-3.03-229.61-2.67-230.29-2.31-230.96-1.95-231.63"/>
<path transform="matrix(1,0,0,-1,266.8262,325.29359)" stroke-width="1.7" stroke-linecap="round" stroke-linejoin="round" fill="none" stroke="#000000" d="M0 0C2.78-.85 5.66-1.85 8.56-2.13 10.04-2.27 11.56-2.22 13.04-2.19 13.98-2.17 14.88-1.83 15.82-1.75"/>
<path transform="matrix(1,0,0,-1,303.6062,316.38368)" stroke-width="1.7" stroke-linecap="round" stroke-linejoin="round" fill="none" stroke="#000000" d="M0 0C-.31-.26-.73-.37-1.07-.59-1.63-.95-2.18-1.28-2.81-1.53-3.12-1.66-3.44-1.77-3.76-1.88-4.01-1.96-4.26-2.04-4.51-2.11-5.58-2.42-6.69-2.67-7.74-2.98-9.18-3.41-10.6-3.92-12.05-4.31-13.1-4.6-14.17-4.67-15.25-4.76-16.8-4.9-18.36-5.02-19.91-5.05-20.68-5.07-21.43-5.07-22.19-5.03-23.8-4.94-25.36-4.88-26.97-4.65-27.93-4.51-28.89-4.41-29.86-4.38-31.15-4.35-32.56-3.88-33.81-3.61-35.19-3.31-36.51-2.89-37.85-2.45-39.46-1.94-40.92-1.32-42.46-.64-43.06-.38-43.58-.04-44.16 .27-44.5 .45-44.87 .58-45.22 .73-46.32 1.18-47.25 1.86-48.48 2.88-46.55 2.82-44.53 2.61-42.68 3.34-41.59 3.77-40.49 4.18-39.39 4.6-36.9 5.54-34.69 7.04-32.22 8.01-30.1 8.84-27.81 9.44-25.57 9.81-24.82 9.93-24.08 10.07-23.33 10.18-22.51 10.32-21.68 10.42-20.85 10.47-19.15 10.56-17.51 10.51-15.98 10.13-13.5 9.66-11.15 9.17-8.9 8-7.97 7.52-7 7.2-6.08 6.68-4.77 5.93-3.44 5.08-2.3 4.05-1.97 3.75-1.65 3.44-1.35 3.1-.56 2.22 .2 1.2 .77 .17 1.41-.97 2.26-2.03 2.73-3.25 3.12-4.24 3.78-5.07 3.85-6.18 3.91-7.19 2.88-7.88 1.93-8.04 .37-8.3-.94-6.89-1.89-5.82-2.49-5.14-3.03-4.39-3.6-3.67-3.86-3.34-4.18-3-4.36-2.62"/>
<path transform="matrix(1,0,0,-1,280.2862,306.25373)" stroke-width="1.7" stroke-linecap="round" stroke-linejoin="round" fill="none" stroke="#000000" d="M0 0C-.62-1.01-1.4-2-1.7-3.17-1.79-3.54-1.91-3.92-1.99-4.3-2.14-4.97-2.11-5.67-2.17-6.35-2.3-7.94-1.9-9.65-1.06-11.01-.39-12.1 .39-12.96 1.44-13.67 2.05-14.08 2.67-14.58 3.4-14.76"/>
<path transform="matrix(1,0,0,-1,290.4762,314.33369)" stroke-width="1.7" stroke-linecap="round" stroke-linejoin="round" fill="none" stroke="#000000" d="M0 0C-.08 .01-.16 .03-.23 .05"/>
<path transform="matrix(1,0,0,-1,290.5562,314.3437)" stroke-width="1.7" stroke-linecap="round" stroke-linejoin="round" fill="none" stroke="#000000" d="M0 0H-.04"/>
<path transform="matrix(1,0,0,-1,291.4562,313.68373)" stroke-width="1.7" stroke-linecap="round" stroke-linejoin="round" fill="none" stroke="#000000" d="M0 0C0-.26-.08-.5-.24-.64-.39-.76-.6-.77-.81-.71-.85-.7-.88-.69-.92-.67-.93-.67-.94-.67-.94-.66-.95-.66-.96-.65-.97-.65H-.98C-1.2-.54-1.38-.35-1.41-.16-1.47 .31-1.04 .84-.55 .59-.34 .49-.1 .1-.08-.18-.08-.22-.08-.26-.09-.3-.16-.63-.43-.7-.71-.68-.77-.68-.83-.68-.89-.66"/>
<path transform="matrix(1,0,0,-1,291.2362,312.94367)" stroke-width="1.7" stroke-linecap="round" stroke-linejoin="round" fill="none" stroke="#000000" d="M0 0C.14-.18 .22-.45 .22-.72"/>
<path transform="matrix(1,0,0,-1,290.5062,313.76368)" stroke-width="1.7" stroke-linecap="round" stroke-linejoin="round" fill="none" stroke="#000000" d="M0 0C.14 .05 .29 .11 .43 .16 .41-.16 .29-.41 .06-.58H.05C.04-.6 .04-.6 .03-.59 0-.62-.03-.64-.06-.65-.1-.69-.15-.71-.2-.73-.47-.67-.61-.49-.63-.26-.75 .38 0 1.39 .65 .9 .68 .88 .7 .86 .73 .82 .74 .82 .76 .8 .77 .79 .97 .57 1.02 .33 .95 .1V.08C.93 .01 .9-.05 .87-.1 .74-.34 .5-.53 .24-.6 .21-.62 .17-.63 .14-.63 .07-.65 0-.65-.06-.65-.21-.64-.35-.59-.47-.48-.54-.41-.59-.34-.63-.26-.94 .39-.15 1.35 .56 .97 .59 .95 .62 .93 .65 .9"/>
<path transform="matrix(1,0,0,-1,408.8362,317.3037)" stroke-width="1.7" stroke-linecap="round" stroke-linejoin="round" fill="none" stroke="#000000" d="M0 0C-.61-.14-1.24-.47-1.81-.74-2.97-1.29-4.15-1.82-5.33-2.33-7.38-3.22-9.43-4.07-11.55-4.81-12.06-4.99-12.57-5.18-13.08-5.36-13.9-5.65-14.71-5.93-15.55-6.17-16.88-6.55-18.26-6.72-19.63-6.91-22.7-7.33-25.69-7.89-28.79-8.04-29.57-8.08-30.34-8.1-31.11-8.11-34.42-8.15-37.67-7.96-40.97-7.51-44.16-7.08-47.34-6.51-50.47-5.78-52.57-5.29-54.66-4.67-56.74-3.96-58.72-3.28-60.69-2.53-62.66-1.73-63.91-3.17-65.04-4.71-65.78-6.49-66.07-7.19-66.53-8.03-66.65-8.77-66.75-9.38-66.82-10.42-66.38-10.93-66.04-11.31-65.1-11.65-64.6-11.76-63.48-12.02-62.35-10.97-61.61-10.24-60.65-9.29-59.66-8.29-58.85-7.21-58.18-6.32-57.39-5.39-56.9-4.42"/>
<path transform="matrix(1,0,0,-1,346.2262,318.7237)" stroke-width="1.7" stroke-linecap="round" stroke-linejoin="round" fill="none" stroke="#000000" d="M0 0C.84 .96 1.65 2.13 2.68 2.89 2.98 3.11 3.29 3.29 3.59 3.51 4.24 4 4.57 4.72 5.16 5.25 5.92 5.93 7.03 6.22 7.89 6.77 8.88 7.4 9.87 8.02 10.87 8.63 12.88 9.83 14.98 11.2 17.3 11.68 18.86 12 20.36 12.53 21.92 12.82 23.81 13.17 25.69 13.29 27.6 13.44 27.86 13.46 28.12 13.48 28.39 13.48 30.34 13.6 32.34 13.57 34.26 13.35 35.84 13.16 37.39 12.71 38.93 12.33 40.13 12.04 41.34 11.83 42.47 11.31 43.22 10.96 43.94 10.53 44.66 10.11 45.21 9.79 46.23 9.45 46.15 8.81 48.07 7.69 49.95 6.51 51.85 5.36 52.58 4.91 53.31 4.47 54.05 4.04 55.72 3.08 57.61 2.39 59.48 1.94 60.72 1.64 62.21 1.52 63.51 1.67 63.23 1.54 62.97 1.38 62.69 1.26 62.53 1.17 62.37 1.11 62.2 1.05"/>
<path transform="matrix(1,0,0,-1,301.0762,312.57368)" stroke-width="1.7" stroke-linecap="round" stroke-linejoin="round" fill="none" stroke="#000000" d="M0 0C.09-.94 .45-2.21 .25-3.16 .21-3.35 .05-3.57-.03-3.74-.15-4.01-.26-4.27-.38-4.53-.6-4.98-.94-5.3-1.23-5.69-1.33-5.82-1.42-5.96-1.49-6.11"/>
<path transform="matrix(1,0,0,-1,374.6162,305.2437)" stroke-width="1.7" stroke-linecap="round" stroke-linejoin="round" fill="none" stroke="#000000" d="M0 0C-1.38-1.51-2.35-2.79-2.98-4.69-3.36-5.85-3.6-7.02-3.81-8.22-4.17-10.31-4.08-12.23-3.14-14.17-2.68-15.13-2.12-16.39-1.31-17.08-.61-17.68 .12-18.15 .86-18.67 1.28-18.97 1.64-19.28 2.08-19.55 2.42-19.75 2.74-20.04 3.11-20.17 3.26-20.23 3.41-20.25 3.58-20.24"/>
<path transform="matrix(1,0,0,-1,397.9162,313.62373)" stroke-width="1.7" stroke-linecap="round" stroke-linejoin="round" fill="none" stroke="#000000" d="M0 0C.27-1.3 .69-2.8 .53-4.17 .47-4.64 .34-5.08 .2-5.53-.02-6.28-.24-6.89-.75-7.46-.97-7.7-1.13-7.98-1.34-8.22-1.6-8.51-1.93-8.7-2.18-8.98"/>
<path transform="matrix(1,0,0,-1,384.8162,316.06373)" stroke-width="1.7" stroke-linecap="round" stroke-linejoin="round" fill="none" stroke="#000000" d="M0 0C-.01 0-.02 0-.04 .01-.16 .01-.3 .04-.46 .08-.47 .08-.49 .09-.51 .09"/>
<path transform="matrix(1,0,0,-1,385.0162,316.04359)" stroke-width="1.7" stroke-linecap="round" stroke-linejoin="round" fill="none" stroke="#000000" d="M0 0C-.04-.01-.08-.02-.13-.01"/>
<path transform="matrix(1,0,0,-1,385.5762,314.9037)" stroke-width="1.7" stroke-linecap="round" stroke-linejoin="round" fill="none" stroke="#000000" d="M0 0C.1-.19 .08-.41-.03-.63-.05-.67-.08-.72-.1-.76-.23-.97-.37-1.08-.52-1.12"/>
<path transform="matrix(1,0,0,-1,385.3662,314.6537)" stroke-width="1.7" stroke-linecap="round" stroke-linejoin="round" fill="none" stroke="#000000" d="M0 0C.09-.07 .16-.15 .21-.23"/>
<path transform="matrix(1,0,0,-1,384.4162,316.02369)" stroke-width="1.7" stroke-linecap="round" stroke-linejoin="round" fill="none" stroke="#000000" d="M0 0C-.02 .01-.04 .02-.06 .04-.32 .22-.48 .58-.44 .91-.43 1.05-.38 1.18-.29 1.3-.13 1.49 .05 1.61 .24 1.66 .52 1.73 .8 1.63 .95 1.38V1.37C1.03 1.23 1.07 1.04 1.05 .81 1.05 .77 1.04 .73 1.03 .69 .95 .34 .64 .1 .32 .09 .11 .09-.11 .17-.28 .37-.36 .48-.43 .7-.44 .91-.46 1.12-.44 1.34-.36 1.44-.22 1.64 .01 1.69 .24 1.66 .45 1.64 .67 1.55 .83 1.46 .87 1.43 .91 1.41 .95 1.38"/>
<path transform="matrix(1,0,0,-1,384.8262,316.23359)" stroke-width="1.7" stroke-linecap="round" stroke-linejoin="round" fill="none" stroke="#000000" d="M0 0C-.01 .04-.03 .09-.04 .13-.04 .14-.05 .16-.05 .17V.18C-.07 .22-.08 .26-.09 .3-.16 .54-.24 .78-.31 1.03 .08 1.27 .39 1.22 .62 .9 .64 .86 .67 .81 .69 .76 .71 .74 .72 .72 .72 .7 .74 .68 .74 .67 .75 .65 .6 .32 .55 .22 .17 .18 .13 .18 .1 .17 .06 .18 .04 .17 .02 .17-.01 .17H-.05C-.16 .16-.28 .17-.4 .2L-.41 .21C-.57 .23-.71 .29-.82 .4-1.46 1.03-.72 2.22 .1 2.04 .47 1.96 .69 1.68 .75 1.35V1.33C.79 1.15 .77 .94 .69 .76 .62 .53 .46 .32 .23 .21 .23 .2 .22 .2 .22 .2 .21 .2 .2 .19 .19 .19 .18 .18 .18 .18 .17 .18 .1 .15 .03 .13-.04 .13-.17 .11-.29 .14-.4 .2"/>
<path transform="matrix(1,0,0,-1,340.5062,290.76368)" stroke-width="1.7" stroke-linecap="round" stroke-linejoin="round" fill="none" stroke="#000000" d="M0 0C2.1-1.77 4.11-3.64 6.21-5.42 6.39-5.57 6.57-5.73 6.76-5.88 7.02-6.12 7.09-6.16 6.98-6.02"/>
<path transform="matrix(1,0,0,-1,343.9962,288.0537)" stroke-width="1.7" stroke-linecap="round" stroke-linejoin="round" fill="none" stroke="#000000" d="M0 0C2.59-2.12 5.47-4.02 7.85-6.37"/>
<path transform="matrix(1,0,0,-1,349.3162,286.6637)" stroke-width="1.7" stroke-linecap="round" stroke-linejoin="round" fill="none" stroke="#000000" d="M0 0C2.14-1.79 4.27-3.71 6.52-5.35 7-5.7 7.5-5.99 7.86-6.45"/>
<path transform="matrix(1,0,0,-1,355.9462,285.70368)" stroke-width="1.7" stroke-linecap="round" stroke-linejoin="round" fill="none" stroke="#000000" d="M0 0C2.48-2.55 5.08-4.91 7.74-7.25 7.69-7.19 7.64-7.13 7.59-7.07"/>
<path transform="matrix(1,0,0,-1,361.5362,285.6137)" stroke-width="1.7" stroke-linecap="round" stroke-linejoin="round" fill="none" stroke="#000000" d="M0 0C1.67-1.57 3.33-3.14 5-4.71 5.59-5.26 6.2-5.77 6.63-6.46"/>
<path transform="matrix(1,0,0,-1,367.2062,285.79359)" stroke-width="1.7" stroke-linecap="round" stroke-linejoin="round" fill="none" stroke="#000000" d="M0 0C2.16-1.92 4.37-3.8 6.61-5.64 6.81-5.8 7-6 7.24-6.1"/>
<path transform="matrix(1,0,0,-1,373.9262,286.48359)" stroke-width="1.7" stroke-linecap="round" stroke-linejoin="round" fill="none" stroke="#000000" d="M0 0C1.88-1.74 3.69-3.6 5.67-5.24"/>
<path transform="matrix(1,0,0,-1,380.3762,287.79359)" stroke-width="1.7" stroke-linecap="round" stroke-linejoin="round" fill="none" stroke="#000000" d="M0 0C.75-.59 6.49-5.15 6.55-5.15"/>
<path transform="matrix(1,0,0,-1,387.4462,289.1037)" stroke-width="1.7" stroke-linecap="round" stroke-linejoin="round" fill="none" stroke="#000000" d="M0 0C1.72-1.63 3.42-3.26 5.06-4.97"/>
<path transform="matrix(1,0,0,-1,393.9862,291.20368)" stroke-width="1.7" stroke-linecap="round" stroke-linejoin="round" fill="none" stroke="#000000" d="M0 0C1.26-1.35 2.58-2.64 3.95-3.88 4.39-4.14 4.73-4.47 4.98-4.88"/>
<path transform="matrix(1,0,0,-1,399.5762,292.5937)" stroke-width="1.7" stroke-linecap="round" stroke-linejoin="round" fill="none" stroke="#000000" d="M0 0C1.74-1.63 3.48-3.26 5.14-4.97"/>
<path transform="matrix(1,0,0,-1,405.5962,294.4237)" stroke-width="1.7" stroke-linecap="round" stroke-linejoin="round" fill="none" stroke="#000000" d="M0 0C1.54-1.6 3.1-3.18 4.62-4.79 4.59-4.76 4.56-4.74 4.53-4.71"/>
<path transform="matrix(1,0,0,-1,299.1562,296.08369)" stroke-width="1.7" stroke-linecap="round" stroke-linejoin="round" fill="none" stroke="#000000" d="M0 0C2.63 1.22 5.26 2.46 7.87 3.72 8.2 3.88 8.63 4.28 8.98 4.36"/>
<path transform="matrix(1,0,0,-1,293.5662,294.07368)" stroke-width="1.7" stroke-linecap="round" stroke-linejoin="round" fill="none" stroke="#000000" d="M0 0C2.92 1.58 5.99 3.09 8.82 4.88"/>
<path transform="matrix(1,0,0,-1,287.7262,292.33369)" stroke-width="1.7" stroke-linecap="round" stroke-linejoin="round" fill="none" stroke="#000000" d="M0 0C2.63 1.58 5.29 3.1 7.97 4.58 8.13 4.64 8.29 4.68 8.46 4.71"/>
<path transform="matrix(1,0,0,-1,281.3562,292.5937)" stroke-width="1.7" stroke-linecap="round" stroke-linejoin="round" fill="none" stroke="#000000" d="M0 0C2.07 1.5 4.15 3.01 6.29 4.41 6.61 4.62 7.33 4.99 7.68 5.32"/>
<path transform="matrix(1,0,0,-1,274.3762,292.77369)" stroke-width="1.7" stroke-linecap="round" stroke-linejoin="round" fill="none" stroke="#000000" d="M0 0C1.9 1.43 3.75 2.91 5.62 4.37 6.07 4.72 6.62 5.06 6.98 5.5"/>
<path transform="matrix(1,0,0,-1,267.7462,293.46369)" stroke-width="1.7" stroke-linecap="round" stroke-linejoin="round" fill="none" stroke="#000000" d="M0 0C1.89 1.6 3.85 3.45 5.94 4.87 6.15 5.01 6.56 5.24 6.63 5.41"/>
<path transform="matrix(1,0,0,-1,262.2462,295.0337)" stroke-width="1.7" stroke-linecap="round" stroke-linejoin="round" fill="none" stroke="#000000" d="M0 0C1.69 1.6 3.29 3.33 5.05 4.85 5.26 5.03 5.5 5.31 5.76 5.41"/>
<path transform="matrix(1,0,0,-1,257.0162,296.43373)" stroke-width="1.7" stroke-linecap="round" stroke-linejoin="round" fill="none" stroke="#000000" d="M0 0C1.13 1.39 2.18 2.96 3.58 4.1"/>
<path transform="matrix(1,0,0,-1,252.2162,297.56373)" stroke-width="1.7" stroke-linecap="round" stroke-linejoin="round" fill="none" stroke="#000000" d="M0 0C.71 1.23 1.59 2.33 2.62 3.31"/>
<path transform="matrix(1,0,0,-1,319.2562,279.62373)" stroke-width="1.7" stroke-linecap="round" stroke-linejoin="round" fill="none" stroke="#000000" d="M0 0C-.22-2.1-.59-4.33-2.15-5.83-2.41-6.07-2.62-6.39-3-6.43"/>
<path transform="matrix(1,0,0,-1,319.3962,278.2837)" stroke-width="1.7" stroke-linecap="round" stroke-linejoin="round" fill="none" stroke="#000000" d="M0 0C-.04-.42-.09-.86-.14-1.3"/>
<path transform="matrix(1,0,0,-1,329.1662,278.89369)" stroke-width="1.7" stroke-linecap="round" stroke-linejoin="round" fill="none" stroke="#000000" d="M0 0C-.13-1.74 .1-3.42 .71-5.06 .79-5.83 1.12-6.43 1.68-6.83 2.06-7.19 2.53-7.38 2.79-7.86"/>
<path transform="matrix(1,0,0,-1,305.7862,301.6637)" stroke-width="1.7" stroke-linecap="round" stroke-linejoin="round" fill="none" stroke="#000000" d="M0 0C.33-.9 .65-1.79 .98-2.68 1.78-4.55 2.36-6.48 2.72-8.48 2.76-9.03 2.75-9.57 2.78-10.12 2.85-11.52 2.83-12.92 2.79-14.33 2.77-15.37 2.66-16.39 2.56-17.42 2.42-18.8 2.15-20.11 1.95-21.47 1.74-22.88 1.57-24.31 1.39-25.73 1.08-27.99 .36-30.13-.08-32.36-1.21-38.2-3.21-43.78-5.1-49.4-5.58-50.82-6.25-52.14-7.03-53.42-8.18-55.31-9.27-57.23-10.56-59.02-11.67-60.55-12.98-61.97-14.56-63.03-15.59-63.74-16.61-63.75-17.77-64.07-18.97-64.41-20.09-65.04-21.15-65.69-21.76-66.06-22.33-66.4-22.84-66.91-23.22-67.3-23.57-67.58-23.99-67.91-24.4-68.23-24.76-68.69-25.1-69.09-25.54-69.6-26.16-70.22-26.38-70.88-27.28-73.51-27.13-76.14-26.47-78.78-26.31-79.44-26.18-80.04-25.78-80.61-25.56-80.91-25.31-81.15-25.01-81.36-24.77-81.52-24.02-82.09-23.75-82.04-23.32-81.97-23.62-80.13-23.46-79.71-23.32-79.35-23.05-78.75-22.7-78.56-22.21-78.3-21.4-78.43-20.89-78.55-19.63-78.86-18.45-79.98-17.47-80.78-16.55-81.54-15.35-82.51-14.94-83.69-14.79-84.13-14.83-84.66-14.83-85.12-14.83-85.45-14.75-85.83-14.92-86.11"/>
<path transform="matrix(1,0,0,-1,291.3862,387.7937)" stroke-width="1.7" stroke-linecap="round" stroke-linejoin="round" fill="none" stroke="#000000" d="M0 0C.84-1.03 1.88-1.76 3.13-2.2 3.91-2.42 4.71-2.54 5.53-2.55 6.39-2.58 7.27-2.58 8.13-2.44 8.52-2.38 8.87-2.31 9.25-2.19 9.47-2.12 10.45-2.07 10.59-1.92 10.85-1.65 10.43-.83 10.43-.46 10.45 1.11 11.8 1.93 13.07 2.62 14.66 3.49 16.37 4.42 18.11 4.94 19.65 5.4 21.22 5.48 22.82 5.55 24.41 5.62 26.05 5.22 27.27 4.14 28.08 3.42 28.22 2.24 27.57 1.67 29.72 1.58 31.84 1.81 33.9 2.37 34.28 2.68 34.66 2.99 35.02 3.31 35.64 3.81 36.24 4.24 36.76 4.85 38.17 6.55 39.45 8.51 39.68 10.74 39.91 12.92 39.57 15.45 38.15 17.22 37.26 18.33 35.79 19.28 34.46 19.79"/>
<path transform="matrix(1,0,0,-1,399.3362,384.9237)" stroke-width="1.7" stroke-linecap="round" stroke-linejoin="round" fill="none" stroke="#000000" d="M0 0C-.12 .07-.23 .16-.3 .26-.43 .45-.48 .67-.4 .91-.28 1.29-.04 1.39 .26 1.35 .38 1.34 .51 1.3 .65 1.25"/>
<path transform="matrix(1,0,0,-1,400.2062,384.0137)" stroke-width="1.7" stroke-linecap="round" stroke-linejoin="round" fill="none" stroke="#000000" d="M0 0C-.34 0-.58-.15-.72-.43-.81-.72-.96-.79-1.17-.65-1.03-.17-.9 .28-.61 .44-.44 .53-.22 .53 .09 .39 .09-.19 .02-.57-.59-.82-.67-.85-.76-.88-.86-.91H-.87C-1.14-.98-1.46-.99-1.62-.71-1.33 .15-1.05 .74-.18 1.08 .14 .81 .49 .54 .43 .06 .37-.47-.35-1.18-.86-.91"/>
<path transform="matrix(1,0,0,-1,407.1862,394.8537)" stroke-width="1.7" stroke-linecap="round" stroke-linejoin="round" fill="none" stroke="#000000" d="M0 0C-.16-.3-.56-.54-.98-.61"/>
<path transform="matrix(1,0,0,-1,407.1862,394.8537)" stroke-width="1.7" stroke-linecap="round" stroke-linejoin="round" fill="none" stroke="#000000" d="M0 0C-.43 .21-.85 .57-.34 .9 .1 .61 .16 .28 0 0Z"/>
<path transform="matrix(1,0,0,-1,407.6562,395.0137)" stroke-width="1.7" stroke-linecap="round" stroke-linejoin="round" fill="none" stroke="#000000" d="M0 0C-.11 .02-.29 .08-.47 .16"/>
<path transform="matrix(1,0,0,-1,335.1862,368.56373)" stroke-width="1.7" stroke-linecap="round" stroke-linejoin="round" fill="none" stroke="#000000" d="M0 0C1.31-2.98 2.68-6.14 4.53-8.86 5.18-9.81 5.86-10.81 6.66-11.64 7.44-12.45 8.39-13.14 9.29-13.82 12-15.89 14.97-17.59 17.6-19.79 18.71-20.72 19.78-21.69 20.82-22.71 21.61-23.49 22.56-24.23 23.28-25.08 25.26-27.45 26.47-30.5 27.83-33.24 28.46-34.54 29.14-35.82 29.67-37.16 30.17-38.45 30.53-39.82 30.95-41.14 31.68-43.47 31.83-45.91 32.43-48.26 32.63-49.03 32.85-49.8 32.95-50.6 32.97-50.82 32.92-51.18 33.12-51.24"/>
<path transform="matrix(1,0,0,-1,277.8262,365.89369)" stroke-width="1.7" stroke-linecap="round" stroke-linejoin="round" fill="none" stroke="#000000" d="M0 0C-.4-2.73-.85-5.46-2.46-7.8-3.11-8.75-3.86-9.63-4.49-10.6-4.85-11.15-5.22-11.54-5.74-11.94-6.75-12.7-7.69-13.51-8.67-14.3-9.82-15.22-11.07-15.97-12.13-16.99-13.29-18.09-14.63-19.28-15.42-20.67-16.91-23.29-17.95-25.98-18.51-28.96-18.89-31-18.99-33.1-19.43-35.13-19.77-36.7-19.97-38.64-19.67-40.24"/>
<path transform="matrix(1,0,0,-1,269.2662,402.24369)" stroke-width="1.7" stroke-linecap="round" stroke-linejoin="round" fill="none" stroke="#000000" d="M0 0C.63-.04 1.22-.1 1.79-.13 2.88-.17 3.9-.12 5 .3 6.08 .72 7.16 1.05 8.25 1.43 9.3 1.79 10.32 2.22 11.36 2.6 13.13 3.22 14.9 3.6 16.74 3.93 18.67 4.28 20.74 4.46 22.7 4.5 24.36 4.53 25.92 4.4 27.37 3.56 28.5 2.92 29.55 2.21 30.48 1.31 30.75 1.06 31.13 .55 31.68 .45 33.46 1.9 35.01 3.44 37.14 4.26 38.07 4.61 38.97 4.9 39.93 5.16 41.57 5.6 43.45 5.85 45.15 5.9 48.93 5.99 52.74 4.87 56.23 3.46 57.72 2.85 59.06 1.94 60.57 1.4 63.01 .52 65.48-.14 68.09-.25 69.5-.3 70.95-.26 72.36-.14 72.44-.14 72.51-.14 72.59-.13 73.15-.09 73.89-.16 74.53-.08 74.79-.05 75.04 .01 75.25 .12"/>
<path transform="matrix(1,0,0,-1,341.6262,402.46369)" stroke-width="1.7" stroke-linecap="round" stroke-linejoin="round" fill="none" stroke="#000000" d="M0 0C-.69-.07-1.39-.19-2.08-.3-2.78-.41-3.42-.7-4.12-.83-5.57-1.12-7.01-1.44-8.5-1.51-9.96-1.58-11.44-1.44-12.91-1.44-16.63-1.45-20.72-1.11-24.24-2.54-26.95-3.64-29.68-4.66-32.39-5.73-35.78-7.06-39.31-7.61-42.95-7.57-44.65-7.55-46.25-6.69-47.61-5.75-48.62-5.07-49.71-4.38-50.81-3.84-52.06-3.22-53.47-2.9-54.77-2.37-56.32-1.75-57.99-1.66-59.63-1.34-60.39-1.19-61.16-1.03-61.92-.87-64.56-.3-67.28-.16-70.57 .03-71.04 .05-71.53 .08-72.02 .11-69.63-.95-67-1.83-64.98-3.56-63.69-4.67-62.47-5.83-61.13-6.88-60.26-7.56-59.41-8.31-58.49-8.93-55.19-11.11-50.9-11.65-47.09-12.26-42.93-12.93-38.62-12.78-34.43-12.78-30.63-12.78-26.79-12.87-23.02-12.29-21.59-12.07-20.33-11.85-18.97-11.32-17.62-10.79-16.22-10.25-14.94-9.56-13.73-8.91-12.66-8.13-11.61-7.25-10.32-6.15-8.89-5.26-7.42-4.43-5.4-3.29-3.41-1.9-1.25-1.02-.19-.59 1.03-.19 2.19-.05 2.49-.01 2.78 .01 3.06 .01 2.98-.11 2.83-.2 2.67-.22"/>
<path transform="matrix(1,0,0,-1,463.4562,311.5337)" stroke-width="1.7" stroke-linecap="round" stroke-linejoin="round" fill="none" stroke="#000000" d="M0 0C.05 .28 .09 .55 .13 .83 .54 3.36 .91 5.88 2.43 8.02 2.99 8.79 3.55 9.56 4.14 10.3 5.72 12.27 7.42 14.18 9.09 16.06 11.69 19 15.45 20.45 19.23 20.91 22.32 21.29 25.49 20.81 28.13 19.1 29.96 17.92 30.75 15.72 31.78 13.89 33.18 11.39 33.73 8.52 34.04 5.71 34.36 2.71 34.77-.26 34.58-3.28 34.35-7.06 33.61-10.84 32.96-14.57 31.79-21.28 29.84-27.88 27.74-34.37 27.24-35.9 26.49-37.41 26.16-38.98 25.79-40.75 25.6-41.48 24.53-43.15 22.92-45.69 21.5-48.51 19.42-50.71 18.1-52.11 16.43-53.1 14.88-54.22 14.66-54.38 14.44-54.54 14.23-54.71 12.26-56.26 10.25-57.77 8.44-59.49 7.71-60.18 6.99-60.88 6.27-61.58 5.56-62.28 4.85-62.99 4.15-63.72 2.58-65.36 1.64-67.48-.04-69.04-1.67-70.56-4.2-71.67-6.45-71.05-8.31-70.53-10.19-68.75-11.15-67.14-11.96-65.77-13.24-63.18-12.36-61.59"/>
<path transform="matrix(1,0,0,-1,469.8462,357.88368)" stroke-width="1.7" stroke-linecap="round" stroke-linejoin="round" fill="none" stroke="#000000" d="M0 0C-.47 1.98-2.09 3.56-4.13 3.92-5.37 4.13-7.21 4.03-8.36 3.52-8.94 3.26-10.6 1.62-11.05 2.01-10.72 2.85-9.94 3.73-9.43 4.48-8.75 5.5-8.03 6.52-7.31 7.51-6.22 9-5.01 10.36-3.98 11.91-3.22 13.05-2.8 13.88-2.38 15.24-1.52 17.14-1.65 19.09-2.75 21.09-3.89 22.3-5.04 23.51-5.77 24.1-4.13 28.49-2.21 32.4-.01 36.5 1.27 38.88 1.89 41.52 3.28 43.83 4.52 45.9 5.86 47.53 7.69 49.11 8.93 50.19 10.12 51.71 11.48 52.63 12.81 53.52 14.88 54.27 16.51 54.02 18.02 53.78 18.95 52.23 19.76 51.11 21.14 49.19 21.33 47.61 21.43 45.25 21.55 42.44 20.88 39.87 20.26 37.16 19.52 33.9 18.65 30.65 17.34 27.57 15.49 23.2 12.93 18.94 10.25 15.03 8.77 12.85 7.1 10.82 5.68 8.59 3.73 5.56 1.64 2.84 .58-.62 .24-.69 .03-.55 0-.2"/>
<path transform="matrix(1,0,0,-1,463.6662,310.71369)" stroke-width="1.7" stroke-linecap="round" stroke-linejoin="round" fill="none" stroke="#000000" d="M0 0C-.13-1.31-.27-2.63-.4-3.94-.3-4.82-.2-5.71-.09-6.59-.05-7.16 .15-8.08-.6-8.29-1.52-8.54-2.16-7.2-2.85-6.96-4.82-6.27-4.34-8.75-4.79-9.76-5.18-10.6-7.9-11.17-8.75-11.32-10.26-11.58-11.52-11.34-12.5-10.13-13.33-9.1-13.7-8.69-14.95-8.4-16.89-7.95-17.67-6.96-17.54-4.98-17.4-2.88-16.41-1.68-14.56-.82-13.53-.34-12.77 .15-12.46 1.36-12.22 2.29-12.42 3.31-12.97 4.08-13.75 5.14-15.53 7.1-14.87 8.64-14.58 9.31-13.64 9.45-13.07 9.71-12.23 10.1-11.45 10.64-10.76 11.26-9.48 12.42-9.12 13.45-8.97 15.13-8.85 16.48-8.7 17.29-9.46 18.43-10.17 19.5-11.48 20.38-12.45 21.18-13.63 22.17-14.97 23.14-14.57 24.84-14.07 26.96-11.58 27.8-10.02 28.98-10.15 29.85-12.26 30.57-12.77 31.17-14.93 33.7-13.29 36.66-11.28 38.49-9.62 40-8.76 44.36-10.37 46.29-11.13 47.22-12.36 47.25-13.33 47.83-13.8 48.12-14.95 48.95-15.01 49.57-14.84 50.11-14.67 50.65-14.5 51.2-13.68 52.83-12.53 54.16-11.05 55.21-9.86 56.06-9.46 56.8-10.09 58.31-10.82 60.04-12.07 60.49-13.28 61.65-14.25 62.58-15.6 64.44-15.3 65.87-14.88 67.84-12.2 68.22-11.63 70.28-11.24 71.67-12.09 73.14-13.47 73.55-14.4 73.82-15.06 73.3-15.93 73.96-17.35 75.05-17.22 78.18-16.23 79.47-15.58 80.32-14.95 80.3-14.05 80.58-15.03 80.81-16.21 81.32-16.6 82.33-17.4 84.37-15.75 86.52-14.72 88.03-12.87 90.72-16.13 95.01-17.86 97.05-19.81 99.32-20.48 95.45-22.7 96.11-23.71 96.42-23.76 97.16-24 98.13-24.34 99.52-24.71 100.93-25.21 102.28-25.86 104.02-26.96 105.79-28.57 106.65-31.08 108-34.09 106.95-36.61 108.14-38.57 109.07-40.44 110.76-41.47 112.65-41.87 113.91-42.53 115.01-43.46 115.96-44.87 117.13-46.48 117.62-48.3 117.45-51.93 116.65-49.7 111.47-53.47 110.81-54.61 110.61-54.29 110.92-54.85 111.71-55.73 112.95-58.3 112.91-59.53 113.18-61.32 113.58-64.13 115.05-66.04 114.13-67.19 113.57-66.58 112.6-67.26 111.61-68.28 110.82-69.23 109.94-70.11 108.99-71.5 107.79-73.09 107.44-74.87 107.93-76.84 108.26-78.54 109.01-80.54 108.23-82.22 107.58-82.49 106.36-83.41 104.98-84.36 103.56-85.53 103.33-87.18 103.21-88.07 103.05-88.93 103.11-89.78 103.38-90.53 103.8-91.33 104.08-92.17 104.23-94.28 104.41-96.07 102.61-97.72 101.6-99.74 100.38-101.68 99.57-104.01 99.39-106.63 99.19-110.23 98.62-112.62 100-113.62 100.57-114.31 101.41-114.68 102.51-115.61 104.08-116.95 105.14-118.7 105.69-119.84 106.17-120.93 106.11-121.95 105.5-122.51 104.95-123.13 104.46-123.79 104.03-127.13 102.68-126.03 108.3-125.33 109.63-124.7 110.83-123.76 111.84-122.58 112.51-122.72 114.96-123.21 117.89-125.77 118.88-127.2 119.43-128.79 119.71-130.31 119.61-131.58 119.53-132.12 119.08-133.24 118.56-135.3 117.59-138.24 119.18-140.26 119.71-142.27 120.25-144.86 121.94-146.92 121.15-148.78 120.44-151.36 118.15-150.26 116.04-149.81 115.18-149.31 115.06-149.76 114-150.19 113.02-151.14 112.43-152.03 111.94-153.33 111.21-155.32 110.48-156.78 109.94-157.7 109.6-158.48 109.58-159.42 109.44-162.63 108.96-163.08 104.59-163.86 102.12-164.09 101.37-164.42 99.61-165.2 99.16-165.71 98.87-166.53 99.08-167.09 99.05-169.01 98.94-170.62 98.67-171.45 96.85-172.22 95.13-172.26 93.44-172.63 91.63-172.82 90.74-173.08 89.97-173.82 89.39-174.83 88.59-176.44 88.43-177.69 88.69-178.1 88.78-178.46 89.04-178.89 89.05-180.26 89.08-181.58 87.84-182.18 86.77-182.55 86.12-182.57 85.34-182.98 84.78-183.74 83.74-184.61 84-185.46 83.93-185.65 83.93-185.83 83.9-186.01 83.84"/>
<path transform="matrix(1,0,0,-1,479.3162,366.12373)" stroke-width="1.7" stroke-linecap="round" stroke-linejoin="round" fill="none" stroke="#000000" d="M0 0C2.45-.22 4.84-.69 7.17-1.41 7.55-1.29 7.93-1.17 8.31-1.05 9.64-.14 9.62 2 10.59 3.14 11.6 4.32 12.8 3.74 14.04 4.38 15.13 4.95 15.49 6.22 16.03 7.34 16.9 9.16 17.34 10.3 19.08 11.31 20.01 11.84 20.82 12.65 20.51 13.86 19.99 15.91 16.77 17.04 17.91 19.74 18.74 20.63 19.57 21.52 20.4 22.41 22.44 23.6 24.59 24.5 26.85 25.12 29.03 26.37 27.18 29.1 26.84 30.87 26.66 31.85 26.93 32.38 26.54 33.47 26.07 34.77 24.88 35.51 24.64 36.89 24.32 38.76 25.31 40.65 26.73 41.76 27.63 42.46 28.66 42.63 28.93 43.77 29.1 44.54 28.61 45.51 28.45 46.24 28.29 46.96 28.33 47.69 28.22 48.41 27.48 48.49 26.95 48.86 26.48 49.43 25.73 50.34 25.31 52.78 25.71 53.95 26.15 55.25 28.34 54.16 29.34 55 30.63 56.09 30.3 59.87 29.74 61.22 29.25 62.43 28.6 62.37 27.53 62.77 26.04 63.33 25.76 64.67 26.03 66.12 26.2 66.99 26.4 67.29 27.08 67.8 28.37 68.76 29.54 69.75 30.52 71.06 31.3 72.09 32.1 73.21 32.15 74.58 32.25 77.19 30.86 79.6 30.09 82 29.48 83.88 29.71 84.83 31.29 86.16 32.63 87.28 34.14 88.08 35.57 89.07 36.8 89.45 37.43 90.2 37.44 91.31 37.62 92.15 37.74 93 37.79 93.86 37.93 95.87 38.36 97.81 39.08 99.71 39.33 100.67 39.57 101.63 39.81 102.59 39.23 105.35 34.85 102 33.9 104.64 33.19 106.59 34.73 108.66 35.48 110.31 36.32 112.16 34.91 113.12 34.34 114.96 33.84 116.56 33.81 117.69 34.39 119.25 35.14 121.26 36.52 123.01 37.09 125.1 38.02 128.52 37.83 132.15 35.15 134.71 33.87 135.93 32.41 137.02 30.93 137.99 30.08 138.21 29.46 138.66 29.06 139.37 28.65 139.69 28.64 140.05 29.02 140.45 29.25 141.74 31.97 144.64 33.57 144.68 33.79 145.18 32.63 146.03 32.38 146.45 31.48 147.95 31.44 150.02 31.31 151.73 31.17 153.42 31.17 154.2 32.47 155.06 33.04 155.04 33.3 155.32 33.24 155.89 33.27 156.52 33.24 157.14 33.13 157.76 32.69 161.07 32.04 164.64 30.74 167.71 30 169.5 29.81 171.89 28.05 171.81 26.38 173.29 24.73 174.17 25.91 176.62 26.32 177.47 27.23 178.07 26.91 179.14 26.51 180.47 24.29 181 23.13 180.57 21.86 182.6 24.35 185.61 22.95 187.39 22.23 188.32 19.81 188.61 18.82 189.08 17.83 189.55 16.97 190.06 16.45 191.04 16.12 191.66 16.17 193.56 15.63 193.91 14.86 194.41 12.55 193.49 11.79 193.32 10.53 193.05 10.15 193.13 9.24 194.25 8.08 195.7 7.67 197.63 7.63 199.42 7.6 200.83 7.82 202.92 6.81 204.1 6.35 204.65 5.1 205.08 4.39 205.08 2.77 205.07 2.15 203.07 .72 202.66-2.13 201.84-3.13 204.33-2.77 206.75-2.43 209.04-.67 210.29-3.91 210.49-4.96 210.55-5.36 210.29-6.16 211.16-7.19 212.28-7.68 213.97-8.43 215.28-9.61 217.37-11.34 219.23-13.39 220.51-15.3 221.71-15.21 217.92-17.2 217.93-17.8 217.94-18.56 218.6-18.98 218.93-20.77 220.33-22.09 222.32-24.18 223.35-25.76 224.12-27.61 223.66-29.27 223.49-29.88 223.43-30.34 223.1-30.85 223-32.29 222.73-34 223.78-35 224.76-36.36 226.1-36.42 227.76-35.95 229.46-35.56 230.85-35.65 231.24-36.97 232.16-37.86 232.79-38.92 233.22-39.95 233.57-41.39 234.06-42.22 234.14-43.55 233.56-44.15 233.3-44.84 233.1-45.51 233.19-47.24 233.44-46.99 235.4-47.16 236.75-47.88 236.41-49.01 234.29-49.85 234.63-50.42 234.85-51.59 237.62-51.63 237.7-52.4 239.17-52.75 240.91-53.51 242.34-53.98 243.22-54.44 243.21-55.29 243.7-56.63 244.48-57.33 245.46-58.98 245.82-62.11 246.52-62.33 244.33-64.42 242.87-65.71 241.97-67.52 241.77-68.99 241.31-70.88 240.72-72.74 239.98-74.47 241.51-76.54 243.33-75.63 246.68-79.25 246.89-81.13 247-82.96 246.47-84.33 245.14-84.93 244.55-85.28 243.9-86.04 243.52-87.32 242.88-89.14 243.23-90.5 243.4-91.4 243.51-92.83 243.39-93.44 244.21-94.82 243.51-95.47 241.75-97.02 241.15-99.67 240.12-103.27 241.14-105.84 241.98-108.96 243.01-112.28 244.41-115.65 244.11-116.7 244.02-118.55 243.51-119.33 242.7-120.18 241.81-120.19 240.3-120.39 239.18-120.54 238.34-120.77 236.96-121.43 236.34-122.1 235.71-122.83 236.05-123.61 236.22-125.6 236.67-127.94 236.05-129.82 236.71-130.37 236.9-130.72 237.39-131.21 237.59-132.01 237.91-133.24 237.6-134.09 237.61-138.2 237.67-142.77 237.06-145.65 233.75-144.66 232.56-143.58 231.64-143.22 230.05-142.89 229.58-142.9 229.12-143.24 228.67-144.29 227.95-145.46 227.55-146.75 227.47-148.94 227.56-148.28 228.9-149.86 229.48-150.8 229.82-153.28 229.78-154.05 228.98-154.11 228.37-153.14 228.07-152.76 227.74-153.18 226.6-155.81 225.19-156.98 225.09-157.59 225.22-158.19 225.39-158.78 225.6-159.86 225.9-160.95 225.92-162.03 225.68-163.07 225.36-164.04 224.98-164.11 223.87-163.62 222.91-163.48 221.89-163.69 220.83-164.03 220.25-164.37 219.67-164.71 219.1-167.57 215.58-172.13 219.08-175.54 218.37-176.05 218.14-176.58 217.94-177.12 217.77-177.75 217.7-178.34 217.51-178.89 217.2-179.73 216.21-178.97 215.27-178.6 214.27-178.2 213.19-177.61 211.66-178.44 210.58-179.46 209.25-183.58 210.1-183.67 208.33-183.74 206.95-182.77 206.53-183.91 205.3-184.93 204.2-186.29 203.32-187.65 202.75-189.73 201.89-192.06 201.85-194.21 201.22-195.11 200.95-197.34 200.25-197.28 198.93-196.98 198.23-196.45 197.79-195.67 197.6-194.76 196.7-194.76 195.76-195.67 194.77-196.66 193.43-199.18 193.28-199.73 191.65-199.43 190.99-198.68 191.04-198.41 190.29-198.07 189.34-198.78 187.89-199.66 187.4-201.65 186.3-204.68 187.28-206.74 187.52-207.89 187.65-210.71 188.16-211.42 186.84-212.02 185.7-210.59 184.45-210.1 183.47-209.63 182.54-209.16 180.96-209.84 179.93-210.37 179.14-211.68 178.69-212.42 178.15-213.7 177.21-214.64 176.04-213.92 174.42-213.38 173.23-212.12 172.55-211.72 171.28-211.34 170.07-211.15 168.63-212.1 167.67-212.83 166.94-213.87 166.54-214.31 165.52-214.96 164.03-213.72 161.9-214.88 160.56-216.36 158.86-219.34 160.15-220.88 158.48-221.8 157.49-222.97 156.44-223.25 155.06-223.5 153.86-222.9 153.32-222.28 152.39-221.88 151.79-220.99 150.64-221.04 149.89-221.07 149.5-221.65 148.94-221.81 148.73-222.66 147.58-224.04 146.42-223.59 144.81-223.2 143.42-222.25 143.06-222.27 141.34-222.28 140.67-222.56 139.9-222.94 139.35-223.6 138.4-225.02 137.71-226.03 137.15-227.56 136.3-228.84 135.78-229.36 134.01-229.75 132.66-229.71 131.76-228.57 131.01-227.64 130.39-227 130.3-226.76 129.11-226.44 127.44-227.02 125.22-227.9 123.79-228.36 123.06-229.02 122.51-229.49 121.79-229.76 121.37-230.94 119.45-230.56 118.74-230.23 118.16-228.95 118.2-228.46 117.64-228.1 117.23-228.07 116.83-227.97 116.3-227.76 115.18-227.65 114.01-228.32 113-228.97 112-229.49 111.79-229.66 110.47-229.75 109.74-230.31 107.72-229.81 107.15-229.18 106.42-228.17 107.22-227.46 106.9-226.56 106.5-226.58 104.99-226.64 104.08-226.72 102.68-227.3 101.99-228.36 101.21-229.44 100.42-229.69 99.76-229.2 98.42-229.01 97.9-228.38 96.76-227.76 96.43-227.23 96.16-226.82 96.44-226.35 96.34-225.47 96.15-225.09 95.4-225.11 94.36"/>
<path transform="matrix(1,0,0,-1,410.2162,335.18373)" stroke-width="1.7" stroke-linecap="round" stroke-linejoin="round" fill="none" stroke="#000000" d="M0 0C5.03-3.47 10.67-6.95 14.43-11.91 15.73-13.64 16.74-15.87 17.63-17.84 18.03-18.74 18.4-19.64 18.92-20.48 19.22-20.97 19.64-21.38 19.71-21.95"/>
<path transform="matrix(1,0,0,-1,254.9662,322.18373)" stroke-width="1.7" stroke-linecap="round" stroke-linejoin="round" fill="none" stroke="#000000" d="M0 0C-3.38-2.62-6-4.62-8.07-8.29"/>
<path transform="matrix(1,0,0,-1,459.2762,362.73359)" stroke-width="1.7" stroke-linecap="round" stroke-linejoin="round" fill="none" stroke="#000000" d="M0 0C2.1-2.47 3.67-5.23 4.71-8.29"/>
<path transform="matrix(1,0,0,-1,319.2562,279.62373)" stroke-width="1.7" stroke-linecap="round" stroke-linejoin="round" fill="none" stroke="#000000" d="M0 0V.04C.13 2.32 .3 4.67 .45 6.95"/>
<path transform="matrix(1,0,0,-1,328.9862,279.6737)" stroke-width="1.7" stroke-linecap="round" stroke-linejoin="round" fill="none" stroke="#000000" d="M0 0C.08 1.7 .13 3.37 .34 5.04 .39 5.44 .46 5.84 .48 6.25 .49 6.38 .48 6.93 .58 6.82"/>
<path transform="matrix(1,0,0,-1,472.4462,373.1637)" stroke-width="1.7" stroke-linecap="round" stroke-linejoin="round" fill="none" stroke="#000000" d="M0 0C-.08-.31-.16-.62-.24-.93-1.45-5.5-2.39-9.27-2.89-13.92-3.14-16.14-3.53-18.35-3.82-20.57-4.32-24.27-4.82-27.91-5.19-31.62-5.63-35.98-5.92-40.17-5.79-44.56-5.79-44.73-5.78-44.89-5.77-45.06-5.68-48.14-5.45-51.16-4.9-54.2-4.26-57.81-3.36-61.38-2.46-64.93-2.26-65.74-2.17-66.57-1.99-67.39-1.92-67.72-1.8-68.48-1.63-69.06-1.62-69.1-1.61-69.13-1.6-69.17-1.5-69.48-1.38-69.71-1.24-69.77"/>
<path transform="matrix(1,0,0,-1,305.8762,474.9037)" stroke-width="1.7" stroke-linecap="round" stroke-linejoin="round" fill="none" stroke="#000000" d="M0 0C1.06-4.91 2.38-9.96 2.12-14.3 6.89-17.64 11.64-21.59 17.18-23.65 20.28-24.79 23.52-25.62 26.76-26.22 28.28-26.5 29.81-26.74 31.33-26.95 36.08-27.6 40.85-27.93 45.66-28.19 49.65-28.4 53.75-28.75 57.74-28.65 65.43-28.45 72.95-26.25 80.54-25.29 82.18-25.08 83.85-24.96 85.47-24.66 88.38-24.12 90.92-23.48 93.44-21.9 96.08-20.54 98.42-19.54 101.34-19.04 102.83-18.79 104.13-18.36 105.56-17.85 109.84-16.31 114.17-14.93 118.38-13.2 125.28-10.37 132.29-7.44 138.29-2.91 142.03-.09 145.35 3.29 148.74 6.51 151.22 8.85 153.97 10.9 156.25 13.44 157.32 14.64 158.26 15.93 159.36 17.1 160.74 18.56 161.44 20.49 162.23 22.32 163.42 25.1 165.76 29.28 164.97 32.57 164.97 32.61 164.96 32.64 164.95 32.68H164.94C164.83 32.71 164.74 32.71 164.63 32.68"/>
<path transform="matrix(1,0,0,-1,467.3262,418.2037)" stroke-width="1.7" stroke-linecap="round" stroke-linejoin="round" fill="none" stroke="#000000" d="M0 0C4.55-.4 8.99-1.32 13.33-2.77 16.14-3.6 18.93-4.51 21.7-5.5 24.21-6.39 26.9-7.52 29.17-8.94 31.4-10.32 32.96-12.46 34.36-14.65 35.47-16.38 36.38-18.18 36.68-20.25 37.35-24.78 35.95-29.69 34.88-34.07 34.45-35.85 33.96-37.63 33.43-39.4 32.01-44.16 30.24-48.84 28.08-53.26 24.22-61.17 18.1-68.13 11.53-73.92-2.3-86.1-18.45-95.52-34.54-104.34-41.19-107.99-48.16-111.03-54.94-114.42-60.33-117.11-65.61-120-70.95-122.78-77.72-126.31-84.35-130.1-90.66-134.42-93.5-136.37-96.28-138.41-99.15-140.32-100.05-140.92-101.12-141.87-102.18-142.14-101.78-141.29-101.16-140.55-100.72-139.71-100.03-138.39-99.53-136.97-99.12-135.53-98.05-131.86-97.63-127.94-97.1-124.16-96.78-121.91-96.27-119.36-96.94-117.13-97.79-114.28-99.53-111.62-101.18-109.18-102.19-107.67-103.29-106.36-104.52-105.02-106.29-103.09-107.87-100.98-109.7-99.1-113.29-95.42-117.44-92.51-121.73-89.72-124-88.24-126.35-86.65-128.76-85.41-129.08-85.25-129.88-85.05-130.25-84.76-130.49-84.57-130.55-84.34-130.18-84.07-137.51-87.13-145.27-90.44-151.12-95.97-154.82-99.47-158.36-103.27-161.52-107.26-164.61-111.15-167.4-115.46-169.04-120.18-169.96-122.84-170.9-126.23-170.39-129.11-172.57-123.99-176.15-119.61-178.93-114.82-180.44-112.21-181.84-109.53-183.25-106.87-184.67-104.2-186.2-101.55-187.28-98.72-188.92-94.46-190.18-90.19-190.66-85.64-191.15-81.04-190.95-76.48-190.45-71.88-190.22-69.78-189.86-67.72-189.38-65.71-188.37-61.49-186.81-57.47-184.7-53.63-183.87-52.12-182.88-50.72-182.41-49.04-182.16-49.17-182.12-49.43-182.29-49.81"/>
<path transform="matrix(1,0,0,-1,337.0262,504.6737)" stroke-width="1.7" stroke-linecap="round" stroke-linejoin="round" fill="none" stroke="#000000" d="M0 0C-.07-.38-.13-.75-.2-1.13-.28-1.6-.36-2.07-.44-2.54-1.79-10.78-2.62-19.08-4.85-27.13-5.82-30.62-7.39-33.84-9-37.08-13.24-45.6-11.99-55.4-10.24-64.45-7.95-76.27-4.49-88.43-5.43-100.65-6.14-109.86-12.91-117.16-13.42-126.36-13.64-130.35-12.1-132.57-10.77-136.1-9-140.81-8.85-144.91-9.96-149.76-11.34-155.75-13.11-161.31-13.12-167.53-13.12-170.29-12.57-172.8-11.97-175.45-11.63-176.93-11.68-178.54-11.44-180.04-11.41-180.2-11.38-180.36-11.35-180.52-11.23-180.43-11.15-180.33-11.11-180.2-11.05-180.05-11.05-179.86-11.12-179.65"/>
<path transform="matrix(1,0,0,-1,502.6962,458.1937)" stroke-width="1.7" stroke-linecap="round" stroke-linejoin="round" fill="none" stroke="#000000" d="M0 0C4.92-2.43 9.85-4.86 14.62-7.56 17.09-8.96 19.42-10.58 22-11.76 28.01-14.51 34.13-16.97 40.22-19.51 49.35-23.32 58.64-27.14 67.55-31.46 72.02-33.63 76.27-36.24 80.78-38.36 85.24-40.45 89.76-42.56 94.11-44.9 108.32-52.55 122.77-60.12 136.24-69.02 147.34-76.34 156.36-85.51 165.04-95.51 169.19-100.28 172.72-105.37 175.97-110.8 179.4-116.53 181.7-122.78 184.3-128.91 188.53-138.93 191.44-149.85 193.09-160.62 194.39-169.16 195.42-178.01 195.61-186.65 195.67-189.12 195.63-191.59 195.62-194.06 195.61-195.8 196.03-197.6 195.91-199.32"/>
<path transform="matrix(1,0,0,-1,277.7062,483.8537)" stroke-width="1.7" stroke-linecap="round" stroke-linejoin="round" fill="none" stroke="#000000" d="M0 0C-6.82-4.07-13.39-7.36-20.98-9.64-25.11-10.88-29.12-12.67-33.36-13.52-43.61-15.57-53.66-18.98-63.43-22.68-69.8-25.1-76.1-27.43-82.62-29.44-90.46-31.85-98.35-33.7-105.92-36.96-111.16-39.21-116.32-41.66-121.56-43.92-127.26-46.39-132.16-49.45-137.45-52.66-141.28-54.98-144.27-57.07-147.24-60.46-149.48-63.02-151.33-65.71-153.01-68.67-157.97-77.4-162.49-86.55-166.01-95.97-167.86-100.94-169.52-105.99-171.35-110.98-174.67-119.99-178.39-128.9-180.82-138.22-181.91-142.42-182.98-146.62-184.1-150.81-185.28-155.25-186.09-159.78-186.74-164.32-186.84-165.03-187.3-166.39-185.92-166.53-178.4-164.96-170.93-163.58-163.21-163.76-158.58-163.88-153.59-164.08-149.11-165.41-138.2-168.64-129.29-176.04-119.09-180.76-106.79-186.46-92.53-182.73-79.57-182.06-75.42-181.85-71.22-182.27-67.11-182.74-63.11-183.2-58.98-183.68-55.1-184.8-49.51-186.42-44.27-189.1-38.79-191.03-27.9-194.86-16.34-197.29-4.75-196.58 3.04-196.11 10.49-194.17 17.79-191.59 20.57-190.61 23.51-189.65 26.46-189.35 29.23-189.06 31.84-190.71 34.07-192.18 37.55-194.46 40.81-197.14 44.49-199.11 45.55-199.68 46.69-200.28 47.88-200.86 47.99-200.91 48.1-200.96 48.21-201.02 50.99-202.34 53.99-203.54 56.78-204.06 60.02-204.67 63.07-204.4 66.29-203.81 72.12-202.75 77.93-201.82 83.84-201.37 98.81-200.23 112.94-205.07 127.63-206.97 135.57-207.99 143.6-208.43 151.59-208.97 158.56-209.43 165.33-207.74 172.05-206.04 179.7-204.11 187.18-200.93 195.14-200.95 202.74-200.96 209.77-202.69 217.15-204.17 224.93-205.73 233.5-206.86 241.44-206.12 247.55-205.54 253.42-203.52 259.2-201.58 265.23-199.56 271.64-198.17 277.94-197.38 286.71-196.29 295.17-197.35 303.89-198.26 311.46-199.04 319.06-199.59 326.67-199.65 337.32-199.75 347.82-198.85 358.42-197.96 365.64-197.35 372.81-195.38 379.28-192.09 384.38-189.5 388.78-186.01 392.96-182.13 396.31-179.02 399.39-176.13 403.73-174.53 405.77-173.77 407.71-173.31 409.87-173.14 411.42-173.03 412.98-172.69 414.51-172.96 415.75-173.18 416.98-173.54 418.21-173.78 419.11-173.95 419.98-173.95 420.9-173.95H421.18"/>
<path transform="matrix(1,0,0,-1,337.0862,502.5937)" stroke-width="1.7" stroke-linecap="round" stroke-linejoin="round" fill="none" stroke="#000000" d="M0 0C0-.12 0-.25-.01-.37-.04-1.35-.11-2.28-.26-3.21-.27-3.31-.28-3.4-.3-3.5-.34-3.74-.38-4.26-.5-4.62-.55-4.8-.62-4.93-.72-4.99"/>
<path transform="matrix(1,0,0,-1,345.5562,518.1137)" stroke-width="1.7" stroke-linecap="round" stroke-linejoin="round" fill="none" stroke="#000000" d="M0 0C-.06 .02-.12 .03-.17 .04-1.12 .29-1.99 .15-2.77-.34-3.39-.52-3.87-.88-4.21-1.43-4.45-1.78-4.64-2.18-4.83-2.57-5.23-3.37-5.44-4.14-5.47-5.04-5.54-7.01-4.31-8.22-2.86-9.34-1.4-10.46 .56-11 2.3-10.12 3.63-9.45 4.44-8.24 4.59-6.8 4.71-5.68 4.75-4.39 4.18-3.38 3.68-2.49 2.8-1.96 1.98-1.43 1.58-1.17 1.25-.72 .86-.49 .6-.34 .17-.26-.24-.23-.51-.21-.76-.21-.95-.23"/>
<path transform="matrix(1,0,0,-1,343.2662,522.1137)" stroke-width="1.7" stroke-linecap="round" stroke-linejoin="round" fill="none" stroke="#000000" d="M0 0C-.27-.04-.28-.33-.23-.58-.19-.6-.14-.6-.09-.59"/>
<path transform="matrix(1,0,0,-1,343.2662,522.1137)" stroke-width="1.7" stroke-linecap="round" stroke-linejoin="round" fill="none" stroke="#000000" d="M0 0C.04-.29 .08-.59 .12-.88 .99-1.06 .59 .03 .09 .02 .06 .02 .03 .02 0 0Z"/>
<path transform="matrix(1,0,0,-1,343.2562,522.0637)" stroke-width="1.7" stroke-linecap="round" stroke-linejoin="round" fill="none" stroke="#000000" d="M0 0C0-.02 .01-.03 .01-.05"/>
<path transform="matrix(1,0,0,-1,346.9162,524.2337)" stroke-width="1.7" stroke-linecap="round" stroke-linejoin="round" fill="none" stroke="#000000" d="M0 0C-.11 .05-.22 .06-.33-.05"/>
<path transform="matrix(1,0,0,-1,346.9262,524.24368)" stroke-width="1.7" stroke-linecap="round" stroke-linejoin="round" fill="none" stroke="#000000" d="M0 0C.11-.12 .22-.22 .36-.3 .26-.21 .13-.07 0 0Z"/>
<path transform="matrix(1,0,0,-1,346.9262,524.24368)" stroke-width="1.7" stroke-linecap="round" stroke-linejoin="round" fill="none" stroke="#000000" d="M0 0C-.01 0-.01 .01-.01 .01"/>
<path transform="matrix(1,0,0,-1,346.8162,524.12368)" stroke-width="1.7" stroke-linecap="round" stroke-linejoin="round" fill="none" stroke="#000000" d="M0 0C.03-.04 .06-.07 .1-.11"/>
<path transform="matrix(1,0,0,-1,346.7462,524.5237)" stroke-width="1.7" stroke-linecap="round" stroke-linejoin="round" fill="none" stroke="#000000" d="M0 0C.22-.05 .44-.1 .66-.16 1.07 .16 .52 .54 .21 .54 .03 .54 0 .51-.14 .38-.5 .05-.4-.37 .14-.47 .16-.41 .2-.36 .23-.32"/>
<path transform="matrix(1,0,0,-1,344.7662,573.13369)" stroke-width="1.7" stroke-linecap="round" stroke-linejoin="round" fill="none" stroke="#000000" d="M0 0C-.05 0-.1 0-.15-.01-1.15-.02-2.13-.17-3.07-.47-3.67-.57-4.23-.79-4.75-1.12-5-1.34-5.21-1.66-5.39-1.93-5.78-2.5-5.92-3.2-6.06-3.87-6.39-5.48-6.05-6.87-5.18-8.23-4.68-9.02-3.79-9.55-2.98-10-1.83-10.63-.44-10.97 .88-10.85 3.32-10.62 5.55-8.88 6.02-6.43 6.5-3.96 5.41-1.02 2.71-.55 1.97-.43 1.28-.32 .53-.32 .4-.32 .12-.29-.14-.29-.37-.29-.58-.31-.64-.4"/>
<path transform="matrix(1,0,0,-1,342.2562,578.6737)" stroke-width="1.7" stroke-linecap="round" stroke-linejoin="round" fill="none" stroke="#000000" d="M0 0C.01-.01 .03 0 .04 0 .07 .1 .07 .21 .05 .31"/>
<path transform="matrix(1,0,0,-1,342.2562,578.6737)" stroke-width="1.7" stroke-linecap="round" stroke-linejoin="round" fill="none" stroke="#000000" d="M0 0C.02-.03 .03-.06 .05-.09 1.09 .44-.05 1.15-.34 .59-.51 .24-.33-.04 0 0Z"/>
<path transform="matrix(1,0,0,-1,341.9962,578.20376)" stroke-width="1.7" stroke-linecap="round" stroke-linejoin="round" fill="none" stroke="#000000" d="M0 0C.08-.16 .17-.31 .26-.47"/>
<path transform="matrix(1,0,0,-1,346.4262,578.20376)" stroke-width="1.7" stroke-linecap="round" stroke-linejoin="round" fill="none" stroke="#000000" d="M0 0C.07-.08 .13-.15 .19-.23 .3-.35 .4-.47 .5-.59 .61-.56 .67-.51 .69-.45 .78-.26 .52 0 .25-.17 .23-.19 .21-.2 .19-.23 .09-.33 .06-.5 .09-.62 .27-.65 .56-.81 .68-.6 .71-.55 .71-.5 .69-.45 .63-.31 .37-.22 .24-.24"/>
<path transform="matrix(1,0,0,-1,341.2762,630.6737)" stroke-width="1.7" stroke-linecap="round" stroke-linejoin="round" fill="none" stroke="#000000" d="M0 0C-.1 .04-.19 .08-.29 .1-1.85 .67-3.42 .69-5 .17-5.82-.11-6.45-.61-6.88-1.33-7.5-2.26-7.93-3.31-8.1-4.4-8.2-5.1-8.33-5.93-8.14-6.63-7.82-7.78-6.72-8.92-5.81-9.64-4.05-11.05-1.45-11.36 .68-10.56 2.38-9.92 3.1-7.73 3.18-6.05 3.27-4.23 2.6-3.12 1.61-1.69 1.25-1.18 1.01-.84 .39-.58 .13-.47-.14-.34-.41-.25-.69-.17-.97-.13-1.25-.23"/>
<path transform="matrix(1,0,0,-1,336.6062,635.45376)" stroke-width="1.7" stroke-linecap="round" stroke-linejoin="round" fill="none" stroke="#000000" d="M0 0H.19 .52 .53C.47 .15 .4 .2 .34 .19 .28 .17 .23 .1 .19 0 .05-.34 .07-.99 .56-.77 .79-.66 .69-.26 .52 0 .47 .08 .4 .15 .34 .19 .26 .24 .17 .23 .12 .11"/>
<path transform="matrix(1,0,0,-1,340.8062,637.0137)" stroke-width="1.7" stroke-linecap="round" stroke-linejoin="round" fill="none" stroke="#000000" d="M0 0C0-.09 .01-.18 .01-.26"/>
<path transform="matrix(1,0,0,-1,340.8862,636.6937)" stroke-width="1.7" stroke-linecap="round" stroke-linejoin="round" fill="none" stroke="#000000" d="M0 0C-.04-.05-.06-.1-.06-.16"/>
<path transform="matrix(1,0,0,-1,341.1762,636.7637)" stroke-width="1.7" stroke-linecap="round" stroke-linejoin="round" fill="none" stroke="#000000" d="M0 0C-.06 .07-.14 .12-.25 .14"/>
<path transform="matrix(1,0,0,-1,341.2762,637.1637)" stroke-width="1.7" stroke-linecap="round" stroke-linejoin="round" fill="none" stroke="#000000" d="M0 0C-.06 .12-.06 .26-.09 .38-.09 .38-.1 .39-.1 .4-.13 .51-.18 .59-.32 .61-.33 .59-.35 .56-.35 .54-.36 .53-.37 .52-.37 .51-.38 .5-.39 .49-.39 .47-.41 .42-.43 .37-.45 .31-.45 .29-.45 .27-.46 .25-.46 .25-.47 .25-.46 .24-.47 .21-.47 .18-.47 .15-.53-.22-.45-.65-.17-.81 .03-.57 .14 .07-.09 .38"/>
</g>
</g>
</g>
</svg>
