<?xml version="1.0" encoding="UTF-8" standalone="no"?>
<!-- Created with Inkscape (http://www.inkscape.org/) -->

<svg
   version="1.1"
   id="svg1"
   width="1099.3453"
   height="1189.292"
   viewBox="0 0 1099.3453 1189.292"
   xmlns="http://www.w3.org/2000/svg"
   xmlns:svg="http://www.w3.org/2000/svg">
  <defs
     id="defs1">
    <clipPath
       clipPathUnits="userSpaceOnUse"
       id="clipPath1">
      <path
         d="m 119.587,744.118 h 643.62 V 183.211 h -643.62 z"
         transform="translate(-303.89721,-390.89531)"
         id="path1" />
    </clipPath>
    <clipPath
       clipPathUnits="userSpaceOnUse"
       id="clipPath2">
      <path
         d="m 119.587,744.118 h 643.62 V 183.211 h -643.62 z"
         transform="translate(-420.01721,-579.57532)"
         id="path2" />
    </clipPath>
    <clipPath
       clipPathUnits="userSpaceOnUse"
       id="clipPath3">
      <path
         d="m 119.587,744.118 h 643.62 V 183.211 h -643.62 z"
         transform="translate(-478.36721,-583.72531)"
         id="path3" />
    </clipPath>
    <clipPath
       clipPathUnits="userSpaceOnUse"
       id="clipPath4">
      <path
         d="m 119.587,744.118 h 643.62 V 183.211 h -643.62 z"
         transform="translate(-484.76721,-527.84531)"
         id="path4" />
    </clipPath>
    <clipPath
       clipPathUnits="userSpaceOnUse"
       id="clipPath5">
      <path
         d="m 119.587,744.118 h 643.62 V 183.211 h -643.62 z"
         transform="translate(-484.76721,-527.84531)"
         id="path5" />
    </clipPath>
    <clipPath
       clipPathUnits="userSpaceOnUse"
       id="clipPath6">
      <path
         d="m 119.587,744.118 h 643.62 V 183.211 h -643.62 z"
         transform="translate(-419.99721,-579.72532)"
         id="path6" />
    </clipPath>
    <clipPath
       clipPathUnits="userSpaceOnUse"
       id="clipPath7">
      <path
         d="m 119.587,744.118 h 643.62 V 183.211 h -643.62 z"
         transform="translate(-396.75721,-582.46531)"
         id="path7" />
    </clipPath>
    <clipPath
       clipPathUnits="userSpaceOnUse"
       id="clipPath8">
      <path
         d="m 119.587,744.118 h 643.62 V 183.211 h -643.62 z"
         transform="translate(-395.86721,-584.77531)"
         id="path8" />
    </clipPath>
    <clipPath
       clipPathUnits="userSpaceOnUse"
       id="clipPath9">
      <path
         d="m 119.587,744.118 h 643.62 V 183.211 h -643.62 z"
         transform="translate(-396.38711,-573.85531)"
         id="path9" />
    </clipPath>
    <clipPath
       clipPathUnits="userSpaceOnUse"
       id="clipPath10">
      <path
         d="m 119.587,744.118 h 643.62 V 183.211 h -643.62 z"
         transform="translate(-395.97721,-583.01531)"
         id="path10" />
    </clipPath>
    <clipPath
       clipPathUnits="userSpaceOnUse"
       id="clipPath11">
      <path
         d="m 119.587,744.118 h 643.62 V 183.211 h -643.62 z"
         transform="translate(-396.00721,-583.17541)"
         id="path11" />
    </clipPath>
    <clipPath
       clipPathUnits="userSpaceOnUse"
       id="clipPath12">
      <path
         d="m 119.587,744.118 h 643.62 V 183.211 h -643.62 z"
         transform="translate(-396.00721,-583.17541)"
         id="path12" />
    </clipPath>
    <clipPath
       clipPathUnits="userSpaceOnUse"
       id="clipPath13">
      <path
         d="m 119.587,744.118 h 643.62 V 183.211 h -643.62 z"
         transform="translate(-395.96721,-583.03531)"
         id="path13" />
    </clipPath>
    <clipPath
       clipPathUnits="userSpaceOnUse"
       id="clipPath14">
      <path
         d="m 119.587,744.118 h 643.62 V 183.211 h -643.62 z"
         transform="translate(-395.96721,-583.04531)"
         id="path14" />
    </clipPath>
    <clipPath
       clipPathUnits="userSpaceOnUse"
       id="clipPath15">
      <path
         d="m 119.587,744.118 h 643.62 V 183.211 h -643.62 z"
         transform="translate(-380.27721,-485.73531)"
         id="path15" />
    </clipPath>
    <clipPath
       clipPathUnits="userSpaceOnUse"
       id="clipPath16">
      <path
         d="m 119.587,744.118 h 643.62 V 183.211 h -643.62 z"
         transform="translate(-358.51721,-487.25531)"
         id="path16" />
    </clipPath>
    <clipPath
       clipPathUnits="userSpaceOnUse"
       id="clipPath17">
      <path
         d="m 119.587,744.118 h 643.62 V 183.211 h -643.62 z"
         transform="translate(-371.55721,-576.83531)"
         id="path17" />
    </clipPath>
    <clipPath
       clipPathUnits="userSpaceOnUse"
       id="clipPath18">
      <path
         d="m 119.587,744.118 h 643.62 V 183.211 h -643.62 z"
         transform="translate(-329.11721,-573.73541)"
         id="path18" />
    </clipPath>
    <clipPath
       clipPathUnits="userSpaceOnUse"
       id="clipPath19">
      <path
         d="m 119.587,744.118 h 643.62 V 183.211 h -643.62 z"
         transform="translate(-324.07711,-580.46531)"
         id="path19" />
    </clipPath>
    <clipPath
       clipPathUnits="userSpaceOnUse"
       id="clipPath20">
      <path
         d="m 119.587,744.118 h 643.62 V 183.211 h -643.62 z"
         transform="translate(-311.79711,-585.21532)"
         id="path20" />
    </clipPath>
    <clipPath
       clipPathUnits="userSpaceOnUse"
       id="clipPath21">
      <path
         d="m 119.587,744.118 h 643.62 V 183.211 h -643.62 z"
         transform="translate(-301.89721,-582.50531)"
         id="path21" />
    </clipPath>
    <clipPath
       clipPathUnits="userSpaceOnUse"
       id="clipPath22">
      <path
         d="m 119.587,744.118 h 643.62 V 183.211 h -643.62 z"
         transform="translate(-301.89721,-582.50531)"
         id="path22" />
    </clipPath>
    <clipPath
       clipPathUnits="userSpaceOnUse"
       id="clipPath23">
      <path
         d="m 119.587,744.118 h 643.62 V 183.211 h -643.62 z"
         transform="translate(-301.58721,-583.10531)"
         id="path23" />
    </clipPath>
    <clipPath
       clipPathUnits="userSpaceOnUse"
       id="clipPath24">
      <path
         d="m 119.587,744.118 h 643.62 V 183.211 h -643.62 z"
         transform="translate(-301.45721,-582.77531)"
         id="path24" />
    </clipPath>
    <clipPath
       clipPathUnits="userSpaceOnUse"
       id="clipPath25">
      <path
         d="m 119.587,744.118 h 643.62 V 183.211 h -643.62 z"
         transform="translate(-300.89721,-484.97531)"
         id="path25" />
    </clipPath>
    <clipPath
       clipPathUnits="userSpaceOnUse"
       id="clipPath26">
      <path
         d="m 119.587,744.118 h 643.62 V 183.211 h -643.62 z"
         transform="translate(-297.83721,-573.09532)"
         id="path26" />
    </clipPath>
    <clipPath
       clipPathUnits="userSpaceOnUse"
       id="clipPath53">
      <path
         d="M 0,891.969 H 824.509 V 0 H 0 Z"
         transform="matrix(1.3333333,0,0,-1.3333333,0,1189.292)"
         id="path53" />
    </clipPath>
    <clipPath
       clipPathUnits="userSpaceOnUse"
       id="clipPath55">
      <path
         d="M 0,891.969 H 824.509 V 0 H 0 Z"
         transform="translate(-320.17721,-430.59531)"
         id="path55" />
    </clipPath>
    <clipPath
       clipPathUnits="userSpaceOnUse"
       id="clipPath57">
      <path
         d="M 0,891.969 H 824.509 V 0 H 0 Z"
         transform="translate(-463.09721,-491.70531)"
         id="path57" />
    </clipPath>
    <clipPath
       clipPathUnits="userSpaceOnUse"
       id="clipPath59">
      <path
         d="M 0,891.969 H 824.509 V 0 H 0 Z"
         transform="translate(-478.53721,-583.68532)"
         id="path59" />
    </clipPath>
    <clipPath
       clipPathUnits="userSpaceOnUse"
       id="clipPath61">
      <path
         d="M 0,891.969 H 824.509 V 0 H 0 Z"
         transform="translate(-479.10711,-505.75531)"
         id="path61" />
    </clipPath>
    <clipPath
       clipPathUnits="userSpaceOnUse"
       id="clipPath63">
      <path
         d="M 0,891.969 H 824.509 V 0 H 0 Z"
         transform="translate(-336.79711,-406.36531)"
         id="path63" />
    </clipPath>
    <clipPath
       clipPathUnits="userSpaceOnUse"
       id="clipPath65">
      <path
         d="M 0,891.969 H 824.509 V 0 H 0 Z"
         transform="translate(-479.66711,-430.08531)"
         id="path65" />
    </clipPath>
    <clipPath
       clipPathUnits="userSpaceOnUse"
       id="clipPath67">
      <path
         d="M 0,891.969 H 824.509 V 0 H 0 Z"
         transform="translate(-330.02721,-671.77532)"
         id="path67" />
    </clipPath>
    <clipPath
       clipPathUnits="userSpaceOnUse"
       id="clipPath69">
      <path
         d="M 0,891.969 H 824.509 V 0 H 0 Z"
         transform="translate(-267.90721,-622.64531)"
         id="path69" />
    </clipPath>
    <clipPath
       clipPathUnits="userSpaceOnUse"
       id="clipPath71">
      <path
         d="M 0,891.969 H 824.509 V 0 H 0 Z"
         transform="translate(-330.02721,-671.77532)"
         id="path71" />
    </clipPath>
    <clipPath
       clipPathUnits="userSpaceOnUse"
       id="clipPath73">
      <path
         d="M 0,891.969 H 824.509 V 0 H 0 Z"
         transform="translate(-368.70721,-681.09532)"
         id="path73" />
    </clipPath>
    <clipPath
       clipPathUnits="userSpaceOnUse"
       id="clipPath75">
      <path
         d="M 0,891.969 H 824.509 V 0 H 0 Z"
         transform="translate(-458.20721,-620.95532)"
         id="path75" />
    </clipPath>
    <clipPath
       clipPathUnits="userSpaceOnUse"
       id="clipPath77">
      <path
         d="M 0,891.969 H 824.509 V 0 H 0 Z"
         transform="translate(-479.66711,-557.42542)"
         id="path77" />
    </clipPath>
    <clipPath
       clipPathUnits="userSpaceOnUse"
       id="clipPath79">
      <path
         d="M 0,891.969 H 824.509 V 0 H 0 Z"
         transform="translate(-479.66711,-557.42542)"
         id="path79" />
    </clipPath>
    <clipPath
       clipPathUnits="userSpaceOnUse"
       id="clipPath81">
      <path
         d="M 0,891.969 H 824.509 V 0 H 0 Z"
         transform="translate(-366.16711,-581.23541)"
         id="path81" />
    </clipPath>
    <clipPath
       clipPathUnits="userSpaceOnUse"
       id="clipPath83">
      <path
         d="M 0,891.969 H 824.509 V 0 H 0 Z"
         transform="translate(-361.08721,-575.63531)"
         id="path83" />
    </clipPath>
    <clipPath
       clipPathUnits="userSpaceOnUse"
       id="clipPath85">
      <path
         d="M 0,891.969 H 824.509 V 0 H 0 Z"
         transform="translate(-361.08721,-575.63531)"
         id="path85" />
    </clipPath>
    <clipPath
       clipPathUnits="userSpaceOnUse"
       id="clipPath87">
      <path
         d="M 0,891.969 H 824.509 V 0 H 0 Z"
         transform="translate(-272.70721,-578.59531)"
         id="path87" />
    </clipPath>
    <clipPath
       clipPathUnits="userSpaceOnUse"
       id="clipPath89">
      <path
         d="M 0,891.969 H 824.509 V 0 H 0 Z"
         transform="translate(-272.70721,-578.59531)"
         id="path89" />
    </clipPath>
    <clipPath
       clipPathUnits="userSpaceOnUse"
       id="clipPath91">
      <path
         d="M 0,891.969 H 824.509 V 0 H 0 Z"
         transform="translate(-386.39721,-591.21532)"
         id="path91" />
    </clipPath>
    <clipPath
       clipPathUnits="userSpaceOnUse"
       id="clipPath93">
      <path
         d="M 0,891.969 H 824.509 V 0 H 0 Z"
         transform="translate(-395.86721,-584.77531)"
         id="path93" />
    </clipPath>
    <clipPath
       clipPathUnits="userSpaceOnUse"
       id="clipPath95">
      <path
         d="M 0,891.969 H 824.509 V 0 H 0 Z"
         transform="translate(-395.86721,-584.77531)"
         id="path95" />
    </clipPath>
    <clipPath
       clipPathUnits="userSpaceOnUse"
       id="clipPath97">
      <path
         d="M 0,891.969 H 824.509 V 0 H 0 Z"
         transform="translate(-396.09721,-584.62531)"
         id="path97" />
    </clipPath>
    <clipPath
       clipPathUnits="userSpaceOnUse"
       id="clipPath99">
      <path
         d="M 0,891.969 H 824.509 V 0 H 0 Z"
         transform="translate(-395.96721,-583.04531)"
         id="path99" />
    </clipPath>
    <clipPath
       clipPathUnits="userSpaceOnUse"
       id="clipPath101">
      <path
         d="M 0,891.969 H 824.509 V 0 H 0 Z"
         transform="translate(-395.31721,-582.27532)"
         id="path101" />
    </clipPath>
    <clipPath
       clipPathUnits="userSpaceOnUse"
       id="clipPath103">
      <path
         d="M 0,891.969 H 824.509 V 0 H 0 Z"
         transform="translate(-396.09721,-583.77532)"
         id="path103" />
    </clipPath>
    <clipPath
       clipPathUnits="userSpaceOnUse"
       id="clipPath105">
      <path
         d="M 0,891.969 H 824.509 V 0 H 0 Z"
         transform="translate(-292.60711,-588.34531)"
         id="path105" />
    </clipPath>
    <clipPath
       clipPathUnits="userSpaceOnUse"
       id="clipPath107">
      <path
         d="M 0,891.969 H 824.509 V 0 H 0 Z"
         transform="translate(-308.84721,-589.04531)"
         id="path107" />
    </clipPath>
    <clipPath
       clipPathUnits="userSpaceOnUse"
       id="clipPath109">
      <path
         d="M 0,891.969 H 824.509 V 0 H 0 Z"
         transform="translate(-301.45721,-582.78532)"
         id="path109" />
    </clipPath>
    <clipPath
       clipPathUnits="userSpaceOnUse"
       id="clipPath111">
      <path
         d="M 0,891.969 H 824.509 V 0 H 0 Z"
         transform="translate(-301.47721,-583.53532)"
         id="path111" />
    </clipPath>
    <clipPath
       clipPathUnits="userSpaceOnUse"
       id="clipPath113">
      <path
         d="M 0,891.969 H 824.509 V 0 H 0 Z"
         transform="translate(-327.76721,-597.42541)"
         id="path113" />
    </clipPath>
    <clipPath
       clipPathUnits="userSpaceOnUse"
       id="clipPath115">
      <path
         d="M 0,891.969 H 824.509 V 0 H 0 Z"
         transform="translate(-343.57711,-504.43531)"
         id="path115" />
    </clipPath>
    <clipPath
       clipPathUnits="userSpaceOnUse"
       id="clipPath117">
      <path
         d="M 0,891.969 H 824.509 V 0 H 0 Z"
         transform="translate(-376.32711,-560.90531)"
         id="path117" />
    </clipPath>
    <clipPath
       clipPathUnits="userSpaceOnUse"
       id="clipPath119">
      <path
         d="M 0,891.969 H 824.509 V 0 H 0 Z"
         transform="translate(-288.23721,-560.52532)"
         id="path119" />
    </clipPath>
    <clipPath
       clipPathUnits="userSpaceOnUse"
       id="clipPath121">
      <path
         d="M 0,891.969 H 824.509 V 0 H 0 Z"
         transform="translate(-377.08721,-519.87532)"
         id="path121" />
    </clipPath>
    <clipPath
       clipPathUnits="userSpaceOnUse"
       id="clipPath123">
      <path
         d="M 0,891.969 H 824.509 V 0 H 0 Z"
         transform="translate(-307.43721,-510.45532)"
         id="path123" />
    </clipPath>
    <clipPath
       clipPathUnits="userSpaceOnUse"
       id="clipPath125">
      <path
         d="M 0,891.969 H 824.509 V 0 H 0 Z"
         transform="translate(-299.6872,-485.10531)"
         id="path125" />
    </clipPath>
    <clipPath
       clipPathUnits="userSpaceOnUse"
       id="clipPath127">
      <path
         d="M 0,891.969 H 824.509 V 0 H 0 Z"
         transform="translate(-296.13711,-485.17531)"
         id="path127" />
    </clipPath>
    <clipPath
       clipPathUnits="userSpaceOnUse"
       id="clipPath129">
      <path
         d="M 0,891.969 H 824.509 V 0 H 0 Z"
         transform="translate(-296.51721,-485.51531)"
         id="path129" />
    </clipPath>
    <clipPath
       clipPathUnits="userSpaceOnUse"
       id="clipPath131">
      <path
         d="M 0,891.969 H 824.509 V 0 H 0 Z"
         transform="translate(-297.6472,-485.51531)"
         id="path131" />
    </clipPath>
    <clipPath
       clipPathUnits="userSpaceOnUse"
       id="clipPath133">
      <path
         d="M 0,891.969 H 824.509 V 0 H 0 Z"
         transform="translate(-326.35711,-613.32532)"
         id="path133" />
    </clipPath>
    <clipPath
       clipPathUnits="userSpaceOnUse"
       id="clipPath135">
      <path
         d="M 0,891.969 H 824.509 V 0 H 0 Z"
         transform="translate(-351.41711,-610.20532)"
         id="path135" />
    </clipPath>
    <clipPath
       clipPathUnits="userSpaceOnUse"
       id="clipPath137">
      <path
         d="M 0,891.969 H 824.509 V 0 H 0 Z"
         transform="translate(-309.69711,-500.95531)"
         id="path137" />
    </clipPath>
    <clipPath
       clipPathUnits="userSpaceOnUse"
       id="clipPath139">
      <path
         d="M 0,891.969 H 824.509 V 0 H 0 Z"
         transform="translate(-314.49721,-500.38531)"
         id="path139" />
    </clipPath>
    <clipPath
       clipPathUnits="userSpaceOnUse"
       id="clipPath141">
      <path
         d="M 0,891.969 H 824.509 V 0 H 0 Z"
         transform="translate(-322.39721,-500.67532)"
         id="path141" />
    </clipPath>
    <clipPath
       clipPathUnits="userSpaceOnUse"
       id="clipPath143">
      <path
         d="M 0,891.969 H 824.509 V 0 H 0 Z"
         transform="translate(-330.30721,-498.41531)"
         id="path143" />
    </clipPath>
    <clipPath
       clipPathUnits="userSpaceOnUse"
       id="clipPath145">
      <path
         d="M 0,891.969 H 824.509 V 0 H 0 Z"
         transform="translate(-337.08721,-498.12531)"
         id="path145" />
    </clipPath>
    <clipPath
       clipPathUnits="userSpaceOnUse"
       id="clipPath147">
      <path
         d="M 0,891.969 H 824.509 V 0 H 0 Z"
         transform="translate(-344.98721,-499.25531)"
         id="path147" />
    </clipPath>
    <clipPath
       clipPathUnits="userSpaceOnUse"
       id="clipPath149">
      <path
         d="M 0,891.969 H 824.509 V 0 H 0 Z"
         transform="translate(-352.60711,-500.38531)"
         id="path149" />
    </clipPath>
    <clipPath
       clipPathUnits="userSpaceOnUse"
       id="clipPath151">
      <path
         d="M 0,891.969 H 824.509 V 0 H 0 Z"
         transform="translate(-361.64721,-498.41531)"
         id="path151" />
    </clipPath>
    <clipPath
       clipPathUnits="userSpaceOnUse"
       id="clipPath153">
      <path
         d="M 0,891.969 H 824.509 V 0 H 0 Z"
         transform="translate(-369.55721,-500.10532)"
         id="path153" />
    </clipPath>
    <clipPath
       clipPathUnits="userSpaceOnUse"
       id="clipPath155">
      <path
         d="M 0,891.969 H 824.509 V 0 H 0 Z"
         transform="translate(-377.45721,-498.97531)"
         id="path155" />
    </clipPath>
    <clipPath
       clipPathUnits="userSpaceOnUse"
       id="clipPath157">
      <path
         d="M 0,891.969 H 824.509 V 0 H 0 Z"
         transform="translate(-286.25721,-496.99531)"
         id="path157" />
    </clipPath>
    <clipPath
       clipPathUnits="userSpaceOnUse"
       id="clipPath159">
      <path
         d="M 0,891.969 H 824.509 V 0 H 0 Z"
         transform="translate(-277.50721,-506.03531)"
         id="path159" />
    </clipPath>
    <clipPath
       clipPathUnits="userSpaceOnUse"
       id="clipPath161">
      <path
         d="M 0,891.969 H 824.509 V 0 H 0 Z"
         transform="translate(-289.3672,-507.44531)"
         id="path161" />
    </clipPath>
    <clipPath
       clipPathUnits="userSpaceOnUse"
       id="clipPath163">
      <path
         d="M 0,891.969 H 824.509 V 0 H 0 Z"
         transform="translate(-299.8072,-461.42531)"
         id="path163" />
    </clipPath>
    <clipPath
       clipPathUnits="userSpaceOnUse"
       id="clipPath165">
      <path
         d="M 0,891.969 H 824.509 V 0 H 0 Z"
         transform="translate(-304.89721,-469.32531)"
         id="path165" />
    </clipPath>
    <clipPath
       clipPathUnits="userSpaceOnUse"
       id="clipPath167">
      <path
         d="M 0,891.969 H 824.509 V 0 H 0 Z"
         transform="translate(-311.10711,-445.89531)"
         id="path167" />
    </clipPath>
    <clipPath
       clipPathUnits="userSpaceOnUse"
       id="clipPath169">
      <path
         d="M 0,891.969 H 824.509 V 0 H 0 Z"
         transform="translate(-322.96721,-458.59531)"
         id="path169" />
    </clipPath>
    <clipPath
       clipPathUnits="userSpaceOnUse"
       id="clipPath171">
      <path
         d="M 0,891.969 H 824.509 V 0 H 0 Z"
         transform="translate(-325.22721,-440.52531)"
         id="path171" />
    </clipPath>
    <clipPath
       clipPathUnits="userSpaceOnUse"
       id="clipPath173">
      <path
         d="M 0,891.969 H 824.509 V 0 H 0 Z"
         transform="translate(-341.31721,-456.05531)"
         id="path173" />
    </clipPath>
    <clipPath
       clipPathUnits="userSpaceOnUse"
       id="clipPath175">
      <path
         d="M 0,891.969 H 824.509 V 0 H 0 Z"
         transform="translate(-338.49721,-437.14531)"
         id="path175" />
    </clipPath>
    <clipPath
       clipPathUnits="userSpaceOnUse"
       id="clipPath177">
      <path
         d="M 0,891.969 H 824.509 V 0 H 0 Z"
         transform="translate(-357.40721,-434.59531)"
         id="path177" />
    </clipPath>
    <clipPath
       clipPathUnits="userSpaceOnUse"
       id="clipPath179">
      <path
         d="M 0,891.969 H 824.509 V 0 H 0 Z"
         transform="translate(-355.15721,-451.82531)"
         id="path179" />
    </clipPath>
    <clipPath
       clipPathUnits="userSpaceOnUse"
       id="clipPath181">
      <path
         d="M 0,891.969 H 824.509 V 0 H 0 Z"
         transform="translate(-372.65721,-440.24531)"
         id="path181" />
    </clipPath>
    <clipPath
       clipPathUnits="userSpaceOnUse"
       id="clipPath183">
      <path
         d="M 0,891.969 H 824.509 V 0 H 0 Z"
         transform="translate(-367.85711,-455.21531)"
         id="path183" />
    </clipPath>
    <clipPath
       clipPathUnits="userSpaceOnUse"
       id="clipPath185">
      <path
         d="M 0,891.969 H 824.509 V 0 H 0 Z"
         transform="translate(-369.55721,-423.30531)"
         id="path185" />
    </clipPath>
    <clipPath
       clipPathUnits="userSpaceOnUse"
       id="clipPath187">
      <path
         d="M 0,891.969 H 824.509 V 0 H 0 Z"
         transform="translate(-351.48721,-420.19531)"
         id="path187" />
    </clipPath>
    <clipPath
       clipPathUnits="userSpaceOnUse"
       id="clipPath189">
      <path
         d="M 0,891.969 H 824.509 V 0 H 0 Z"
         transform="translate(-334.53721,-418.22531)"
         id="path189" />
    </clipPath>
    <clipPath
       clipPathUnits="userSpaceOnUse"
       id="clipPath191">
      <path
         d="M 0,891.969 H 824.509 V 0 H 0 Z"
         transform="translate(-384.79711,-450.12531)"
         id="path191" />
    </clipPath>
    <clipPath
       clipPathUnits="userSpaceOnUse"
       id="clipPath193">
      <path
         d="M 0,891.969 H 824.509 V 0 H 0 Z"
         transform="translate(-400.04711,-437.42531)"
         id="path193" />
    </clipPath>
    <clipPath
       clipPathUnits="userSpaceOnUse"
       id="clipPath195">
      <path
         d="M 0,891.969 H 824.509 V 0 H 0 Z"
         transform="translate(-396.65721,-459.16531)"
         id="path195" />
    </clipPath>
    <clipPath
       clipPathUnits="userSpaceOnUse"
       id="clipPath197">
      <path
         d="M 0,891.969 H 824.509 V 0 H 0 Z"
         transform="translate(-416.70721,-447.87531)"
         id="path197" />
    </clipPath>
    <clipPath
       clipPathUnits="userSpaceOnUse"
       id="clipPath199">
      <path
         d="M 0,891.969 H 824.509 V 0 H 0 Z"
         transform="translate(-413.59721,-466.78531)"
         id="path199" />
    </clipPath>
    <clipPath
       clipPathUnits="userSpaceOnUse"
       id="clipPath201">
      <path
         d="M 0,891.969 H 824.509 V 0 H 0 Z"
         transform="translate(-431.38711,-454.64531)"
         id="path201" />
    </clipPath>
    <clipPath
       clipPathUnits="userSpaceOnUse"
       id="clipPath203">
      <path
         d="M 0,891.969 H 824.509 V 0 H 0 Z"
         transform="translate(-426.02721,-466.78531)"
         id="path203" />
    </clipPath>
    <clipPath
       clipPathUnits="userSpaceOnUse"
       id="clipPath205">
      <path
         d="M 0,891.969 H 824.509 V 0 H 0 Z"
         transform="translate(-444.37721,-465.94531)"
         id="path205" />
    </clipPath>
    <clipPath
       clipPathUnits="userSpaceOnUse"
       id="clipPath207">
      <path
         d="M 0,891.969 H 824.509 V 0 H 0 Z"
         transform="translate(-437.03721,-478.36531)"
         id="path207" />
    </clipPath>
    <clipPath
       clipPathUnits="userSpaceOnUse"
       id="clipPath209">
      <path
         d="M 0,891.969 H 824.509 V 0 H 0 Z"
         transform="translate(-453.12721,-484.85531)"
         id="path209" />
    </clipPath>
    <clipPath
       clipPathUnits="userSpaceOnUse"
       id="clipPath211">
      <path
         d="M 0,891.969 H 824.509 V 0 H 0 Z"
         transform="translate(-444.09721,-496.99531)"
         id="path211" />
    </clipPath>
    <clipPath
       clipPathUnits="userSpaceOnUse"
       id="clipPath213">
      <path
         d="M 0,891.969 H 824.509 V 0 H 0 Z"
         transform="translate(-456.23721,-510.55531)"
         id="path213" />
    </clipPath>
    <clipPath
       clipPathUnits="userSpaceOnUse"
       id="clipPath215">
      <path
         d="M 0,891.969 H 824.509 V 0 H 0 Z"
         transform="translate(-451.99721,-525.23542)"
         id="path215" />
    </clipPath>
    <clipPath
       clipPathUnits="userSpaceOnUse"
       id="clipPath217">
      <path
         d="M 0,891.969 H 824.509 V 0 H 0 Z"
         transform="translate(-463.00721,-537.09532)"
         id="path217" />
    </clipPath>
    <clipPath
       clipPathUnits="userSpaceOnUse"
       id="clipPath219">
      <path
         d="M 0,891.969 H 824.509 V 0 H 0 Z"
         transform="translate(-459.33721,-547.82531)"
         id="path219" />
    </clipPath>
    <clipPath
       clipPathUnits="userSpaceOnUse"
       id="clipPath221">
      <path
         d="M 0,891.969 H 824.509 V 0 H 0 Z"
         transform="translate(-468.37721,-559.96531)"
         id="path221" />
    </clipPath>
    <clipPath
       clipPathUnits="userSpaceOnUse"
       id="clipPath223">
      <path
         d="M 0,891.969 H 824.509 V 0 H 0 Z"
         transform="translate(-269.88711,-519.02531)"
         id="path223" />
    </clipPath>
    <clipPath
       clipPathUnits="userSpaceOnUse"
       id="clipPath225">
      <path
         d="M 0,891.969 H 824.509 V 0 H 0 Z"
         transform="translate(-480.79711,-432.90531)"
         id="path225" />
    </clipPath>
    <clipPath
       clipPathUnits="userSpaceOnUse"
       id="clipPath227">
      <path
         d="M 0,891.969 H 824.509 V 0 H 0 Z"
         transform="translate(-336.79711,-401.28531)"
         id="path227" />
    </clipPath>
    <clipPath
       clipPathUnits="userSpaceOnUse"
       id="clipPath229">
      <path
         d="M 0,891.969 H 824.509 V 0 H 0 Z"
         transform="translate(-303.98721,-390.93531)"
         id="path229" />
    </clipPath>
    <clipPath
       clipPathUnits="userSpaceOnUse"
       id="clipPath231">
      <path
         d="M 0,891.969 H 824.509 V 0 H 0 Z"
         transform="translate(-119.69721,-215.9953)"
         id="path231" />
    </clipPath>
  </defs>
  <g
     id="layer-MC0"
     style="display:none" />
  <g
     id="layer-MC1">
    <g
       id="g52"
       clip-path="url(#clipPath53)">
      <path
         d="m 0,0 -0.03,0.07 c 9.97,4.1 24.98,2.72 32.93,10.32 l 0.23,0.02 C 33.29,8.3 33.46,6.2 33.47,4.04 V -7.42 c 0.39,-0.65 0.52,-1.48 1.1,-2 0.57,-0.51 1.56,-0.72 2.29,-0.95 0.88,-0.27 1.77,-0.57 2.68,-0.72 1.24,-0.2 1.87,-0.46 3.08,-0.97 6.1,-2.61 12.46,-3.49 18.96,-4.81 2.03,-0.41 3.87,-0.32 5.92,-0.38 1.89,-0.06 3.5,-0.86 5.33,-1.08 1.48,-0.18 2.94,0.45 4.42,0.53 1.84,0.09 3.6,-0.75 5.41,-0.52 3.2,0.41 6.42,1.31 9.69,1.6 1.91,0.17 3.79,0.49 5.61,1.12 2.17,0.75 4.38,1.02 6.56,1.7 3.78,1.19 7.21,2.45 10.69,4.4 3.35,1.88 7.16,2.93 10.6,4.64 7.35,3.65 15.14,6.52 21.91,11.31 1.55,1.1 3.14,2.15 4.73,3.19 2.06,1.34 3.82,3.11 5.69,4.7 2.01,1.71 3.79,3.67 5.65,5.53 1.52,1.54 3.48,2.8 4.67,4.62 1.65,2.53 3.29,5.09 5.07,7.5 1.46,1.98 2.49,4.72 2.24,7.2 l 0.65,0.48 c -0.09,0.74 -0.22,1.45 -0.38,2.15 l 0.86,0.19 c 4.97,-4.94 15.53,-5.8 21.81,-9.1 10.41,-5.47 21.04,-8.97 31.85,-13.49 13.48,-5.63 27.44,-9.29 41.36,-13.69 20.5,-6.48 39.41,-15.06 59.13,-23.49 16.76,-7.17 32.01,-15.58 47.32,-25.5 14.76,-9.55 26.84,-20.53 39.55,-32.61 14.27,-13.57 22.46,-26.37 29.31,-44.73 4.32,-11.59 8.98,-22.97 12.04,-34.99 l 0.04,-0.09 c -24.73,-16.32 -55.59,-34.27 -86.7,-29.57 -22.91,3.46 -54,11.6 -76.08,1.62 -22.22,-10.06 -39.45,-21.28 -64.41,-23.51 -9.01,-0.81 -19.88,-0.89 -28.66,0.97 -15.99,3.39 -28.87,14.79 -43.89,20.53 -10.87,4.15 -22.46,4.09 -33.77,6.02 -19.91,3.39 -39.64,4.67 -59.45,1.1 -34.63,-6.23 -65.72,-10.88 -100.65,-0.84 -20.34,5.85 -37.88,10.82 -59.19,10.73 -15.8,-0.07 -28.22,-7.41 -43.7,-9.44 -16.27,-2.13 -31.64,4.89 -47.01,3.17 l -0.11,0.02 c 7.13,48.49 8.19,57.38 37.61,97.3 C -111.59,-29.94 -50.54,-23.25 0,0"
         style="fill:#ffffff;fill-opacity:1;fill-rule:nonzero;stroke:none"
         transform="matrix(1.3333333,0,0,-1.3333333,405.19627,668.09827)"
         clip-path="url(#clipPath1)"
         id="path27" />
      <path
         d="m 0,0 -0.02,0.15 c -1.17,1.13 -2.48,2.7 -3.3,3.39 -1.79,1.51 -3.52,2.84 -5.73,3.85 -2.08,0.94 -4.36,1.73 -6.76,2.36 -5.67,1.51 -11.99,2.15 -17.81,2 -1.58,-0.04 -3.13,-0.14 -4.61,-0.3 -7.66,-0.82 -12.01,-5.41 -15.66,-9.75 -1.75,-2.08 -3.33,-4.11 -5.04,-5.64 -1.7,-2.12 -1.04,-6.61 3.11,-6.02 2.7,0.38 6.57,4.84 7.05,6.73 l 0.31,0.49 c 2,-1.41 4.14,-2.62 6.25,-3.15 5.7,-1.45 12.82,-0.24 18.58,0.04 4.14,0.2 8.32,-0.07 12.32,0.71 C -7.6,-4.41 -2.71,-0.35 0,0 m 38.19,41.27 c 0.15,-10.85 0.21,-22.32 3.03,-32.84 0.9,3.4 1.58,6.88 2.35,10.31 -0.32,-5.56 1.92,-11.16 3.24,-16.48 1.14,-4.54 2.15,-9.17 3.24,-13.68 0.45,3.46 0.59,6.91 2.03,10.13 1.27,-3.67 3.82,-6.6 5.37,-10.12 -1.98,4.81 -0.09,11.04 0.9,15.56 l 0.17,-0.04 c 5.42,6.7 12.57,20.69 23.43,16.61 0.06,-0.02 0.12,-0.04 0.17,-0.07 12.12,-4.75 9.87,-24.91 8.1,-35.01 -2.19,-12.37 -5.78,-26.74 -14.06,-36.32 -5.1,-5.9 -7.94,-12.18 -12.11,-18.49 -1.58,-2.38 -3.27,-3.84 -5,-4.55 l 0.04,-0.1 c -1.05,-3.95 -2.08,-8.02 -2.27,-12.1 -0.13,-2.77 -0.51,-5.59 -1.07,-8.26 -0.3,-1.43 -0.18,-2.88 -0.49,-4.32 -0.38,-1.8 -0.12,-3.75 -0.12,-5.58 -0.01,-2.34 0.01,-4.68 0,-7.01 -0.01,-2.28 0.31,-4.31 0.51,-6.57 0.16,-1.8 0.32,-3.51 0.56,-5.3 0.22,-1.61 0.56,-3.45 0.64,-5.07 0.08,-1.69 0.26,-3.37 0.61,-5.04 0.29,-1.37 0.28,-2.64 0.47,-4.01 0.15,-1.11 0.61,-2.27 0.88,-3.36 0.27,-1.06 0.09,-2.12 0.33,-3.14 0.25,-1.11 0.54,-2.18 0.78,-3.28 0.16,-0.7 0.29,-1.41 0.38,-2.15 l -0.65,-0.48 c 0.25,-2.48 -0.78,-5.22 -2.24,-7.2 -1.78,-2.41 -3.42,-4.97 -5.07,-7.5 -1.19,-1.82 -3.15,-3.08 -4.67,-4.62 -1.86,-1.86 -3.64,-3.82 -5.65,-5.53 -1.87,-1.59 -3.63,-3.36 -5.69,-4.7 -1.59,-1.04 -3.18,-2.09 -4.73,-3.19 -6.77,-4.79 -14.56,-7.66 -21.91,-11.31 -3.44,-1.71 -7.25,-2.76 -10.6,-4.64 -3.48,-1.95 -6.91,-3.21 -10.69,-4.4 -2.18,-0.68 -4.39,-0.95 -6.56,-1.7 -1.82,-0.63 -3.7,-0.95 -5.61,-1.12 -3.27,-0.29 -6.49,-1.19 -9.69,-1.6 -1.81,-0.23 -3.57,0.61 -5.41,0.52 -1.48,-0.08 -2.94,-0.71 -4.42,-0.53 -1.83,0.22 -3.44,1.02 -5.33,1.08 -2.05,0.06 -3.89,-0.03 -5.92,0.38 -6.5,1.32 -12.86,2.2 -18.96,4.81 -1.21,0.51 -1.84,0.77 -3.08,0.97 -0.91,0.15 -1.8,0.45 -2.68,0.72 -0.73,0.23 -1.72,0.44 -2.29,0.95 -0.58,0.52 -0.71,1.35 -1.1,2 v 11.46 c -0.01,2.16 -0.18,4.26 -0.34,6.37 -0.12,1.68 -0.23,3.36 -0.23,5.06 l 0.2,0.52 c -0.44,0.14 -0.88,0.29 -1.31,0.45 -4.06,1.45 -8.12,3.43 -10.83,6.79 -0.88,1.09 -1.58,2.28 -2.14,3.54 l -0.03,-0.01 c -4.65,-2.34 -22.88,19.61 -26,24.57 -4.9,7.77 -6.23,18.47 -9.63,27.09 -4.48,11.36 -11.17,21.68 -16.06,32.77 -5.74,13 -10.36,29.63 -6.48,43.48 4.09,14.57 7,25.12 2.42,40.37 -1.86,6.17 -3.91,11.09 -2.98,17.48 0.95,6.57 4.5,12.1 3.95,19.23 l 0.41,0.01 c 0.38,-0.66 1.25,-2.62 1.72,-2.8 0.45,1.07 -0.18,2.32 0.1,3.4 0.21,0.82 0.56,0.92 0.6,1.93 0.09,2.12 -0.09,3.91 0.7,5.95 0.59,1.52 0.79,2.81 1.04,4.41 0.34,2.27 1.29,4.64 2.04,6.81 1.07,3.13 2.11,6.12 3.53,9.1 0.59,1.24 0.8,2.79 1.75,3.82 -0.26,-2.02 0.87,-4.11 1.33,-6.03 0.44,-1.82 0.31,-4.57 1.35,-6.18 0.31,0.98 0.12,2.24 0.11,3.27 -0.01,1.82 0.17,3.48 0.54,5.27 1.11,5.33 2.75,10.98 5.08,15.91 1.36,2.87 2.52,6.02 4.16,8.74 1.17,1.92 3.42,5.15 4.9,6.77 3.67,4 6.88,5.2 10.17,7.39 4.58,3.05 6.16,2.57 11.37,3.52 2.64,0.49 5.43,0.74 7.86,-0.8 2.51,-1.6 3.37,-5.02 3.8,-7.7 0.27,-1.73 0.72,-3.51 0.73,-5.26 0.01,-2.77 -0.86,-5.65 -1.17,-8.4 4.19,3.05 7.13,8.02 11.06,11.25 -1.4,-5.33 0.89,-13.05 2.02,-18.4 2.09,4.79 4.77,14.68 9.42,17.29 -0.11,-5.24 0.01,-12.53 1.89,-17.32 4.86,5.24 8.31,11.35 14.01,16.22 l 0.28,0.28 c 4.07,5.13 13.42,8.15 19.6,9.1 9.18,1.42 17.41,2.8 25.76,-2.05 9.59,-5.59 17.46,-15.01 22.25,-25.02 3.45,-7.2 4.2,-14.87 4.11,-22.75 -0.05,-4.95 0.03,-11.6 -2.44,-16.02 2.75,2.87 5.79,5.79 8.6,8.61 0.54,-7.66 0.23,-15.96 1.66,-23.51 1.25,4.43 6.57,8.61 9.93,11.69 0.06,-0.14 0.06,-0.23 0.03,-0.3 m 26.3,-93.15 0.23,0.02 c 0.03,-0.25 0.03,-0.09 0.03,0.13 1.77,6.58 6.58,13.15 9.15,19.69 3.8,9.65 8.96,20.3 6.66,31.04 -1.6,7.49 -5.63,7.5 -9.96,2.56 -5.5,-6.28 -8.26,-15.88 -10.95,-23.71 2.39,-2.67 3.6,-4.79 3.13,-8.72 -0.41,-3.41 -2.63,-5 -4.45,-7.68 -2.15,-3.18 -3.73,-6.63 -4.34,-10.34 2.95,4.71 9.29,1.04 10.5,-2.99 m -184.82,-42.59 c 0.58,-0.08 1.17,-0.18 1.75,-0.29 6,-1.87 10.53,-6.91 15.85,-9.68 8.31,-4.33 19.01,-3.8 28.2,-3.81 8.42,-0.01 15.04,0.7 21.65,5.82 3.7,2.87 8.87,6.49 13.15,8.55 l -0.01,0.04 c -1.89,-0.47 -3.71,-0.79 -5.5,-0.95 -5.32,-0.48 -10.38,0.4 -16.26,2.47 -4.49,1.57 -19.39,3.48 -20.66,-3.09 -5.75,3.56 -11.79,2.8 -18.27,1.34 -3.09,-0.69 -6.35,-1.2 -9.5,-1.37 -3.13,-0.16 -6.15,0.48 -9.19,0.84 -0.4,0.05 -0.81,0.09 -1.21,0.13 m 9.26,103.83 c -1.59,0.16 -3.24,0.18 -4.96,0.11 -2.81,-0.11 -6.98,-0.16 -11.39,-0.62 -8.24,-0.85 -17.32,-3.11 -19.89,-9.83 5.36,-1.69 9.7,-2.42 14.67,-3.95 3.46,-1.06 6.94,-1.53 10.46,-1.61 2.17,-0.04 4.35,0.06 6.55,0.26 1,0.09 2.03,0.21 3.07,0.37 3.24,0.46 6.58,1.21 9.57,2.34 l 0.01,-0.02 c 2.16,-1.65 5.1,-6.27 8.12,-6.43 2.39,-0.13 4.2,1.92 3.96,4.18 -0.22,1.98 -2.62,4.52 -5.04,6.73 -1.65,1.52 -3.32,2.88 -4.3,3.79 -3.23,2.99 -6.83,4.28 -10.83,4.68"
         style="fill:#ffffff;fill-opacity:1;fill-rule:nonzero;stroke:none"
         transform="matrix(1.3333333,0,0,-1.3333333,560.02293,416.52493)"
         clip-path="url(#clipPath2)"
         id="path28" />
      <path
         d="m 0,0 c -0.99,-4.52 -2.88,-10.75 -0.9,-15.56 -1.55,3.52 -4.1,6.45 -5.37,10.12 -1.44,-3.22 -1.58,-6.67 -2.03,-10.13 -1.09,4.51 -2.1,9.14 -3.24,13.68 -1.32,5.32 -3.56,10.92 -3.24,16.48 -0.77,-3.43 -1.45,-6.91 -2.35,-10.31 -2.82,10.52 -2.88,21.99 -3.03,32.84 0.03,0.07 0.03,0.16 -0.03,0.3 -3.36,-3.08 -8.68,-7.26 -9.93,-11.69 -1.43,7.55 -1.12,15.85 -1.66,23.51 -2.81,-2.82 -5.85,-5.74 -8.6,-8.61 2.47,4.42 2.39,11.07 2.44,16.02 0.09,7.88 -0.66,15.55 -4.11,22.75 -4.79,10.01 -12.66,19.43 -22.25,25.02 -8.35,4.85 -16.58,3.47 -25.76,2.05 -6.18,-0.95 -15.53,-3.97 -19.6,-9.1 l -0.28,-0.28 c -5.7,-4.87 -9.15,-10.98 -14.01,-16.22 -1.88,4.79 -2,12.08 -1.89,17.32 -4.65,-2.61 -7.33,-12.5 -9.42,-17.29 -1.13,5.35 -3.42,13.07 -2.02,18.4 -3.93,-3.23 -6.87,-8.2 -11.06,-11.25 0.31,2.75 1.18,5.63 1.17,8.4 -0.01,1.75 -0.46,3.53 -0.73,5.26 -0.43,2.68 -1.29,6.1 -3.8,7.7 -2.43,1.54 -5.22,1.29 -7.86,0.8 -5.21,-0.95 -6.79,-0.47 -11.37,-3.52 -3.29,-2.19 -6.5,-3.39 -10.17,-7.39 -1.48,-1.62 -3.73,-4.85 -4.9,-6.77 -1.64,-2.72 -2.8,-5.87 -4.16,-8.74 -2.33,-4.93 -3.97,-10.58 -5.08,-15.91 -0.37,-1.79 -0.55,-3.45 -0.54,-5.27 0.01,-1.03 0.2,-2.29 -0.11,-3.27 -1.04,1.61 -0.91,4.36 -1.35,6.18 -0.46,1.92 -1.59,4.01 -1.33,6.03 -0.95,-1.03 -1.16,-2.58 -1.75,-3.82 -1.42,-2.98 -2.46,-5.97 -3.53,-9.1 -0.75,-2.17 -1.7,-4.54 -2.04,-6.81 -0.25,-1.6 -0.45,-2.89 -1.04,-4.41 -0.79,-2.04 -0.61,-3.83 -0.7,-5.95 -0.04,-1.01 -0.39,-1.11 -0.6,-1.93 -0.28,-1.08 0.35,-2.33 -0.1,-3.4 -0.47,0.18 -1.34,2.14 -1.72,2.8 -0.86,1.51 -1.05,0.89 -1.68,-0.55 -0.96,-2.17 -1.76,-3.68 -3.12,-5.65 -1,-1.44 -1.84,-2.93 -2.84,-4.36 -0.19,0.71 -0.06,1.35 -0.08,2.13 -0.04,1.68 -0.55,3.3 -0.63,4.98 -0.09,2.16 -0.06,4.42 -0.01,6.57 0.07,2.38 0.76,4.47 1.18,6.79 1.13,6.32 2.02,12.61 3.37,18.9 1.4,6.58 2.95,13.28 4.93,19.72 3.32,10.77 7.94,20.9 14.86,29.86 2.55,3.31 5.42,6.41 8.09,9.63 2.01,2.43 4.05,4.8 6.39,6.94 8.02,7.38 17.31,14.16 27.74,17.57 2.3,0.75 4.63,1.45 6.91,2.25 1.86,0.64 3.62,1.56 5.63,1.59 0.55,0.01 1.14,-0.03 1.69,-0.05 0.88,-0.02 1.18,0.28 1.83,0.44 1.29,0.33 2.51,0.65 3.87,0.66 1.76,0.01 3.27,0.68 4.97,1.02 1.44,0.29 2.93,0.39 4.37,0.67 2.68,0.53 5.29,1.36 8,1.66 2.49,0.27 4.58,-0.2 7.02,-0.41 2.53,-0.23 4.81,0.65 7.29,0.95 2.37,0.28 4.79,0.09 7.17,0.09 1.39,0 2.79,0.09 4.17,0.05 1.65,-0.05 2.84,-0.71 4.38,-1.08 1.53,-0.36 3.15,0 4.69,-0.07 1.49,-0.06 2.89,-0.54 4.38,-0.62 2.81,-0.15 5.28,0.08 8.04,-0.69 2.75,-0.76 5.18,-0.27 7.91,0.06 2.1,0.25 4.73,-0.68 6.76,-1.19 2.07,-0.52 4.02,-0.55 5.96,-1.54 1.54,-0.79 3.1,-1.46 4.63,-2.23 0.94,-0.47 1.69,-1.2 2.65,-1.61 1.3,-0.56 2.68,-0.54 3.96,-1.23 2.06,-1.11 4.27,-1.72 6.38,-2.82 2.47,-1.3 4.47,-2.96 7.07,-4.11 2.53,-1.12 4.56,-2.52 6.63,-4.36 1.85,-1.64 3.01,-3.79 4.78,-5.51 1.76,-1.71 3.48,-3.46 5.22,-5.19 1.15,-1.14 2.03,-2.36 3.08,-3.58 1.21,-1.4 2.83,-2.26 4.04,-3.67 5.21,-6.03 9.06,-12.97 12.67,-20.06 C 17.53,94.56 18.48,87.12 19.75,80.2 20.73,74.92 23.3,70.03 24.47,64.78 25.65,59.5 27.36,54.07 27.29,48.63 27.25,45.32 27.03,42.17 26.58,38.89 26.12,35.54 26.26,32.22 25.71,28.88 25.28,26.29 25.52,23.5 24.9,20.95 24.54,19.48 24.46,18.07 23.86,16.72 L 23.77,16.5 C 23.72,16.53 23.66,16.55 23.6,16.57 12.74,20.65 5.59,6.66 0.17,-0.04 Z"
         style="fill:#ffffff;fill-opacity:1;fill-rule:nonzero;stroke:none"
         transform="matrix(1.3333333,0,0,-1.3333333,637.82293,410.9916)"
         clip-path="url(#clipPath3)"
         id="path29" />
      <path
         d="m 0,0 c -0.01,-0.03 -0.02,-0.07 -0.03,-0.1 v -0.03 l -0.23,-0.02 c -1.21,4.03 -7.55,7.7 -10.5,2.99 0.61,3.71 2.19,7.16 4.34,10.34 1.82,2.68 4.04,4.27 4.45,7.68 0.47,3.93 -0.74,6.05 -3.13,8.72 2.69,7.83 5.45,17.43 10.95,23.71 4.33,4.94 8.36,4.93 9.96,-2.56 C 18.11,39.99 12.95,29.34 9.15,19.69 6.58,13.15 1.77,6.58 0,0"
         style="fill:#ffffff;fill-opacity:1;fill-rule:nonzero;stroke:none"
         transform="matrix(1.3333333,0,0,-1.3333333,646.35627,485.49827)"
         clip-path="url(#clipPath4)"
         id="path30" />
      <path
         d="M 0,0 C 0,-0.22 0,-0.38 -0.03,-0.13 V -0.1 C -0.02,-0.07 -0.01,-0.03 0,0"
         style="fill:#ffffff;fill-opacity:1;fill-rule:nonzero;stroke:none"
         transform="matrix(1.3333333,0,0,-1.3333333,646.35627,485.49827)"
         clip-path="url(#clipPath5)"
         id="path31" />
      <path
         d="m 0,0 0.02,-0.15 c -2.71,-0.35 -7.6,-4.41 -11.31,-5.14 -4,-0.78 -8.18,-0.51 -12.32,-0.71 v 0.13 c 0.29,0.01 0.58,0.02 0.86,0.04 2.05,0.12 4.66,0.94 6.29,2.24 1.79,1.42 2.57,4.42 2.7,6.6 0.11,1.82 0.1,5.77 -2.05,6.5 l 0.02,0.09 c 2.4,-0.63 4.68,-1.42 6.76,-2.36 C -6.82,6.23 -5.09,4.9 -3.3,3.39 -2.48,2.7 -1.17,1.13 0,0"
         style="fill:#ffffff;fill-opacity:1;fill-rule:nonzero;stroke:none"
         transform="matrix(1.3333333,0,0,-1.3333333,559.99627,416.32493)"
         clip-path="url(#clipPath6)"
         id="path32" />
      <path
         d="M 0,0 C 0.36,0.64 -0.15,2.39 -0.89,2.31 -1.85,2.75 -2.72,1.1 -2.54,0.27 -2.25,-1.08 -0.62,-1.14 0,0 M 7.43,6.77 C 9.58,6.04 9.59,2.09 9.48,0.27 9.35,-1.91 8.57,-4.91 6.78,-6.33 5.15,-7.63 2.54,-8.45 0.49,-8.57 0.21,-8.59 -0.08,-8.6 -0.37,-8.61 c -3.33,-0.09 -6.94,0.42 -9.52,2.7 -2.03,1.8 -3.05,4.74 -3.11,7.41 -0.03,1.53 0.22,3.13 0.85,4.52 0.45,1 1.4,1.76 1.79,2.73 v 0.11 c 5.82,0.15 12.14,-0.49 17.81,-2 z"
         style="fill:#ffffff;fill-opacity:1;fill-rule:nonzero;stroke:none"
         transform="matrix(1.3333333,0,0,-1.3333333,529.0096,412.6716)"
         clip-path="url(#clipPath7)"
         id="path33" />
      <path
         d="M 0,0 C 0.74,0.08 1.25,-1.67 0.89,-2.31 0.27,-3.45 -1.36,-3.39 -1.65,-2.04 -1.83,-1.21 -0.96,0.44 0,0 m -0.56,-2.5 h 0.01 c 0.57,-0.33 0.92,0.34 0.66,0.74 0.03,0.05 0.04,0.1 0.03,0.16 0.07,0.32 0.05,0.64 -0.15,0.84 -0.71,0.7 -1.16,-1.38 -0.55,-1.74"
         style="fill:#ffffff;fill-opacity:1;fill-rule:nonzero;stroke:none"
         transform="matrix(1.3333333,0,0,-1.3333333,527.82293,409.5916)"
         clip-path="url(#clipPath8)"
         id="path34" />
      <path
         d="m 0,0 v -0.13 c -5.76,-0.28 -12.88,-1.49 -18.58,-0.04 -2.11,0.53 -4.25,1.74 -6.25,3.15 -2,1.42 -3.85,3.04 -5.39,4.4 l -0.04,0.04 c 3.65,4.34 8,8.93 15.66,9.75 1.48,0.16 3.03,0.26 4.61,0.3 v -0.11 c -0.39,-0.97 -1.34,-1.73 -1.79,-2.73 -0.63,-1.39 -0.88,-2.99 -0.85,-4.52 C -12.57,7.44 -11.55,4.5 -9.52,2.7 -6.94,0.42 -3.33,-0.09 0,0"
         style="fill:#ffffff;fill-opacity:1;fill-rule:nonzero;stroke:none"
         transform="matrix(1.3333333,0,0,-1.3333333,528.51613,424.1516)"
         clip-path="url(#clipPath9)"
         id="path35" />
      <path
         d="m 0,0 c 0.26,-0.4 -0.09,-1.07 -0.66,-0.74 0.23,0.01 0.46,0.28 0.6,0.61 0.03,0.04 0.05,0.08 0.06,0.13"
         style="fill:#ffffff;fill-opacity:1;fill-rule:nonzero;stroke:none"
         transform="matrix(1.3333333,0,0,-1.3333333,527.9696,411.93827)"
         clip-path="url(#clipPath10)"
         id="path36" />
      <path
         d="m 0,0 c -0.01,-0.05 -0.02,-0.09 -0.04,-0.13 -0.07,0.1 -0.19,0.19 -0.34,0.23 -0.01,-0.27 -0.01,-0.35 0.08,-0.57 0.09,0.05 0.16,0.11 0.21,0.18 -0.14,-0.33 -0.37,-0.6 -0.6,-0.61 H -0.7 C -1.31,-0.54 -0.86,1.54 -0.15,0.84 0.05,0.64 0.07,0.32 0,0"
         style="fill:#ffffff;fill-opacity:1;fill-rule:nonzero;stroke:none"
         transform="matrix(1.3333333,0,0,-1.3333333,528.0096,411.7248)"
         clip-path="url(#clipPath11)"
         id="path37" />
      <path
         d="m 0,0 c 0.01,-0.06 0,-0.11 -0.03,-0.16 0,0.01 0,0.02 -0.01,0.02 0.01,0 0.01,0 0,0.01 0.02,0.04 0.03,0.08 0.04,0.13"
         style="fill:#ffffff;fill-opacity:1;fill-rule:nonzero;stroke:none"
         transform="matrix(1.3333333,0,0,-1.3333333,528.0096,411.7248)"
         clip-path="url(#clipPath12)"
         id="path38" />
      <path
         d="M 0,0 C 0.01,0 0.01,-0.01 0.01,-0.02 0,-0.07 -0.02,-0.11 -0.05,-0.15 -0.03,-0.1 -0.01,-0.05 0,0"
         style="fill:#ffffff;fill-opacity:1;fill-rule:nonzero;stroke:none"
         transform="matrix(1.3333333,0,0,-1.3333333,527.95627,411.9116)"
         clip-path="url(#clipPath13)"
         id="path39" />
      <path
         d="m 0,0 c 0.01,-0.01 0.01,-0.01 0,-0.01 -0.01,-0.05 -0.03,-0.1 -0.05,-0.15 -0.05,-0.07 -0.12,-0.13 -0.21,-0.18 -0.09,0.22 -0.09,0.3 -0.08,0.57 C -0.19,0.19 -0.07,0.1 0,0"
         style="fill:#ffffff;fill-opacity:1;fill-rule:nonzero;stroke:none"
         transform="matrix(1.3333333,0,0,-1.3333333,527.95627,411.89827)"
         clip-path="url(#clipPath14)"
         id="path40" />
      <path
         d="m 0,0 0.01,-0.04 c -4.28,-2.06 -9.45,-5.68 -13.15,-8.55 -6.61,-5.12 -13.23,-5.83 -21.65,-5.82 -9.19,0.01 -19.89,-0.52 -28.2,3.81 -5.32,2.77 -9.85,7.81 -15.85,9.68 12.16,-2.23 23.98,-7.69 36.3,-7.26 11.65,0.41 25.83,4.75 37.04,7.23 1.79,0.16 3.61,0.48 5.5,0.95"
         style="fill:#ffffff;fill-opacity:1;fill-rule:nonzero;stroke:none"
         transform="matrix(1.3333333,0,0,-1.3333333,507.03627,541.64493)"
         clip-path="url(#clipPath15)"
         id="path41" />
      <path
         d="M 0,0 C 5.88,-2.07 10.94,-2.95 16.26,-2.47 5.05,-4.95 -9.13,-9.29 -20.78,-9.7 c -12.32,-0.43 -24.14,5.03 -36.3,7.26 -0.18,0.06 -0.36,0.11 -0.54,0.16 3.04,-0.36 6.06,-1 9.19,-0.84 3.15,0.17 6.41,0.68 9.5,1.37 6.48,1.46 12.52,2.22 18.27,-1.34 C -19.39,3.48 -4.49,1.57 0,0"
         style="fill:#ffffff;fill-opacity:1;fill-rule:nonzero;stroke:none"
         transform="matrix(1.3333333,0,0,-1.3333333,478.02293,539.61827)"
         clip-path="url(#clipPath16)"
         id="path42" />
      <path
         d="m 0,0 -0.31,-0.49 c -0.48,-1.89 -4.35,-6.35 -7.05,-6.73 -4.15,-0.59 -4.81,3.9 -3.11,6.02 1.71,1.53 3.29,3.56 5.04,5.64 L -5.39,4.4 C -3.85,3.04 -2,1.42 0,0"
         style="fill:#ffffff;fill-opacity:1;fill-rule:nonzero;stroke:none"
         transform="matrix(1.3333333,0,0,-1.3333333,495.4096,420.17827)"
         clip-path="url(#clipPath17)"
         id="path43" />
      <path
         d="m 0,0 c 0.24,-2.26 -1.57,-4.31 -3.96,-4.18 -3.02,0.16 -5.96,4.78 -8.12,6.43 l -0.01,0.02 c 2.65,1.01 5.01,2.32 6.78,4.01 l 0.27,0.45 C -2.62,4.52 -0.22,1.98 0,0"
         style="fill:#ffffff;fill-opacity:1;fill-rule:nonzero;stroke:none"
         transform="matrix(1.3333333,0,0,-1.3333333,438.82293,424.31147)"
         clip-path="url(#clipPath18)"
         id="path44" />
      <path
         d="m 0,0 -0.27,-0.45 c -1.77,-1.69 -4.13,-3 -6.78,-4.01 -2.99,-1.13 -6.33,-1.88 -9.57,-2.34 l -0.02,0.13 c 2.12,1.46 3.67,3.31 4.38,5.93 0.46,1.71 0.41,3.79 -0.02,5.49 -0.49,1.88 -1.77,2.51 -2.85,3.72 4,-0.4 7.6,-1.69 10.83,-4.68 C -3.32,2.88 -1.65,1.52 0,0"
         style="fill:#ffffff;fill-opacity:1;fill-rule:nonzero;stroke:none"
         transform="matrix(1.3333333,0,0,-1.3333333,432.1028,415.33827)"
         clip-path="url(#clipPath19)"
         id="path45" />
      <path
         d="m 0,0 c 0.43,-1.7 0.48,-3.78 0.02,-5.49 -0.71,-2.62 -2.26,-4.47 -4.38,-5.93 l 0.02,-0.13 c -1.04,-0.16 -2.07,-0.28 -3.07,-0.37 -2.2,-0.2 -4.38,-0.3 -6.55,-0.26 v 0.06 c -3.57,1.29 -5.78,2.83 -6.99,6.63 -0.96,3.04 -0.35,6.23 1.76,8.62 l -0.01,0.08 c 4.41,0.46 8.58,0.51 11.39,0.62 1.72,0.07 3.37,0.05 4.96,-0.11 C -1.77,2.51 -0.49,1.88 0,0 m -10.12,-3.69 c 0.07,-0.05 0.15,-0.1 0.24,-0.13 0.28,0.41 0.23,0.84 -0.02,1.11 -0.05,0.2 -0.16,0.41 -0.31,0.6 -0.09,-0.07 -0.17,-0.14 -0.22,-0.23 -0.29,-0.43 -0.17,-1.03 0.31,-1.35"
         style="fill:#ffffff;fill-opacity:1;fill-rule:nonzero;stroke:none"
         transform="matrix(1.3333333,0,0,-1.3333333,415.72947,409.00493)"
         clip-path="url(#clipPath20)"
         id="path46" />
      <path
         d="m 0,0 c 0.25,-0.27 0.3,-0.7 0.02,-1.11 -0.09,0.03 -0.17,0.08 -0.24,0.13 C 0.07,-0.71 0.12,-0.35 0,0"
         style="fill:#ffffff;fill-opacity:1;fill-rule:nonzero;stroke:none"
         transform="matrix(1.3333333,0,0,-1.3333333,402.5296,412.61827)"
         clip-path="url(#clipPath21)"
         id="path47" />
      <path
         d="m 0,0 c 0.12,-0.35 0.07,-0.71 -0.22,-0.98 -0.48,0.32 -0.6,0.92 -0.31,1.35 0.04,-0.02 0.07,-0.05 0.09,-0.09 -0.03,0.01 -0.06,0.01 -0.1,0.02 -0.04,0.06 0,-0.44 0.01,-0.39 0.1,0.18 0.12,0.28 0.09,0.36 C -0.26,0.23 -0.11,0.13 0,0"
         style="fill:#ffffff;fill-opacity:1;fill-rule:nonzero;stroke:none"
         transform="matrix(1.3333333,0,0,-1.3333333,402.5296,412.61827)"
         clip-path="url(#clipPath22)"
         id="path48" />
      <path
         d="m 0,0 c 0.15,-0.19 0.26,-0.4 0.31,-0.6 -0.11,0.13 -0.26,0.23 -0.44,0.27 v 0.01 c -0.02,0.04 -0.05,0.07 -0.09,0.09 0.05,0.09 0.13,0.16 0.22,0.23"
         style="fill:#ffffff;fill-opacity:1;fill-rule:nonzero;stroke:none"
         transform="matrix(1.3333333,0,0,-1.3333333,402.11627,411.81827)"
         clip-path="url(#clipPath23)"
         id="path49" />
      <path
         d="M 0,0 C 0.03,-0.08 0.01,-0.18 -0.09,-0.36 -0.1,-0.41 -0.14,0.09 -0.1,0.03 -0.06,0.02 -0.03,0.02 0,0.01 Z"
         style="fill:#ffffff;fill-opacity:1;fill-rule:nonzero;stroke:none"
         transform="matrix(1.3333333,0,0,-1.3333333,401.94293,412.25827)"
         clip-path="url(#clipPath24)"
         id="path50" />
      <path
         d="M 0,0 C 0.18,-0.05 0.36,-0.1 0.54,-0.16 -0.04,-0.05 -0.63,0.05 -1.21,0.13 -0.81,0.09 -0.4,0.05 0,0"
         style="fill:#ffffff;fill-opacity:1;fill-rule:nonzero;stroke:none"
         transform="matrix(1.3333333,0,0,-1.3333333,401.19627,542.65827)"
         clip-path="url(#clipPath25)"
         id="path51" />
      <path
         d="m 0,0 v -0.06 c -3.52,0.08 -7,0.55 -10.46,1.61 -4.97,1.53 -9.31,2.26 -14.67,3.95 2.57,6.72 11.65,8.98 19.89,9.83 l 0.01,-0.08 C -7.34,12.86 -7.95,9.67 -6.99,6.63 -5.78,2.83 -3.57,1.29 0,0"
         style="fill:#ffffff;fill-opacity:1;fill-rule:nonzero;stroke:none"
         transform="matrix(1.3333333,0,0,-1.3333333,397.11627,425.16493)"
         clip-path="url(#clipPath26)"
         id="path52" />
    </g>
    <path
       id="path54"
       d="m 0,0 c 0.34,-4.38 0.76,-8.99 2.54,-12.93 0.56,-1.26 1.26,-2.45 2.14,-3.54 2.71,-3.36 6.77,-5.34 10.83,-6.79 0.43,-0.16 0.87,-0.31 1.31,-0.45 11.2,-3.74 23.43,-4.33 34.92,-1.65 5.03,1.17 10.08,3.05 13.74,6.68 3.66,3.64 5.6,9.37 3.63,14.13"
       style="fill:none;stroke:#000000;stroke-width:1.7;stroke-linecap:round;stroke-linejoin:round;stroke-miterlimit:4;stroke-dasharray:none;stroke-opacity:1"
       transform="matrix(1.3333333,0,0,-1.3333333,426.90293,615.16493)"
       clip-path="url(#clipPath55)" />
    <path
       id="path56"
       d="M 0,0 C -2.88,-13.26 -6.03,-27.08 -14.73,-37.49 -19.16,-42.78 -24.8,-46.9 -30.51,-50.77 -44.15,-60 -58.55,-68.1 -73.52,-74.97"
       style="fill:none;stroke:#000000;stroke-width:1.7;stroke-linecap:round;stroke-linejoin:round;stroke-miterlimit:4;stroke-dasharray:none;stroke-opacity:1"
       transform="matrix(1.3333333,0,0,-1.3333333,617.46293,533.68493)"
       clip-path="url(#clipPath57)" />
    <path
       id="path58"
       d="m 0,0 c 5.42,6.7 12.57,20.69 23.43,16.61 0.06,-0.02 0.12,-0.04 0.17,-0.07 12.12,-4.75 9.87,-24.91 8.1,-35.01 -2.19,-12.37 -5.78,-26.74 -14.06,-36.32 -5.1,-5.9 -7.94,-12.18 -12.11,-18.49 -1.58,-2.38 -3.27,-3.84 -5,-4.55 -4.69,-1.95 -9.6,1.55 -12.95,6.67"
       style="fill:none;stroke:#000000;stroke-width:1.7;stroke-linecap:round;stroke-linejoin:round;stroke-miterlimit:4;stroke-dasharray:none;stroke-opacity:1"
       transform="matrix(1.3333333,0,0,-1.3333333,638.0496,411.04493)"
       clip-path="url(#clipPath59)" />
    <path
       id="path60"
       d="m 0,0 c -1.05,-3.95 -2.08,-8.02 -2.27,-12.1 -0.13,-2.77 -0.51,-5.59 -1.07,-8.26 -0.3,-1.43 -0.18,-2.88 -0.49,-4.32 -0.38,-1.8 -0.12,-3.75 -0.12,-5.58 -0.01,-2.34 0.01,-4.68 0,-7.01 -0.01,-2.28 0.31,-4.31 0.51,-6.57 0.16,-1.8 0.32,-3.51 0.56,-5.3 0.22,-1.61 0.56,-3.45 0.64,-5.07 0.08,-1.69 0.26,-3.37 0.61,-5.04 0.29,-1.37 0.28,-2.64 0.47,-4.01 0.15,-1.11 0.61,-2.27 0.88,-3.36 0.27,-1.06 0.09,-2.12 0.33,-3.14 0.25,-1.11 0.54,-2.18 0.78,-3.28 0.16,-0.7 0.29,-1.41 0.38,-2.15 -0.36,1.54 -0.77,3.08 -1.21,4.6"
       style="fill:none;stroke:#000000;stroke-width:1.7;stroke-linecap:round;stroke-linejoin:round;stroke-miterlimit:4;stroke-dasharray:none;stroke-opacity:1"
       transform="matrix(1.3333333,0,0,-1.3333333,638.80947,514.9516)"
       clip-path="url(#clipPath61)" />
    <path
       id="path62"
       d="m 0,0 c 0,-1.7 0.11,-3.38 0.23,-5.06 0.16,-2.11 0.33,-4.21 0.34,-6.37 v -11.46 -0.26"
       style="fill:none;stroke:#000000;stroke-width:1.7;stroke-linecap:round;stroke-linejoin:round;stroke-miterlimit:4;stroke-dasharray:none;stroke-opacity:1"
       transform="matrix(1.3333333,0,0,-1.3333333,449.0628,647.4716)"
       clip-path="url(#clipPath63)" />
    <path
       id="path64"
       d="m 0,0 c 0.25,-2.48 -0.78,-5.22 -2.24,-7.2 -1.78,-2.41 -3.42,-4.97 -5.07,-7.5 -1.19,-1.82 -3.15,-3.08 -4.67,-4.62 -1.86,-1.86 -3.64,-3.82 -5.65,-5.53 -1.87,-1.59 -3.63,-3.36 -5.69,-4.7 -1.59,-1.04 -3.18,-2.09 -4.73,-3.19 -6.77,-4.79 -14.56,-7.66 -21.91,-11.31 -3.44,-1.71 -7.25,-2.76 -10.6,-4.64 -3.48,-1.95 -6.91,-3.21 -10.69,-4.4 -2.18,-0.68 -4.39,-0.95 -6.56,-1.7 -1.82,-0.63 -3.7,-0.95 -5.61,-1.12 -3.27,-0.29 -6.49,-1.19 -9.69,-1.6 -1.81,-0.23 -3.57,0.61 -5.41,0.52 -1.48,-0.08 -2.94,-0.71 -4.42,-0.53 -1.83,0.22 -3.44,1.02 -5.33,1.08 -2.05,0.06 -3.89,-0.03 -5.92,0.38 -6.5,1.32 -12.86,2.2 -18.96,4.81 -1.21,0.51 -1.84,0.77 -3.08,0.97 -0.91,0.15 -1.8,0.45 -2.68,0.72 -0.73,0.23 -1.72,0.44 -2.29,0.95 -0.58,0.52 -0.71,1.35 -1.1,2 -0.05,0.08 -0.1,0.16 -0.16,0.23 -0.21,0.03 -0.36,-0.06 -0.44,-0.25 0.01,0.11 0.02,0.22 0.03,0.32"
       style="fill:none;stroke:#000000;stroke-width:1.7;stroke-linecap:round;stroke-linejoin:round;stroke-miterlimit:4;stroke-dasharray:none;stroke-opacity:1"
       transform="matrix(1.3333333,0,0,-1.3333333,639.55613,615.84493)"
       clip-path="url(#clipPath65)" />
    <path
       id="path66"
       d="m 0,0 c 0.31,2.75 1.18,5.63 1.17,8.4 -0.01,1.75 -0.46,3.53 -0.73,5.26 -0.43,2.68 -1.29,6.1 -3.8,7.7 -2.43,1.54 -5.22,1.29 -7.86,0.8 -5.21,-0.95 -6.79,-0.47 -11.37,-3.52 -3.29,-2.19 -6.5,-3.39 -10.17,-7.39 -1.48,-1.62 -3.73,-4.85 -4.9,-6.77 -1.64,-2.72 -2.8,-5.87 -4.16,-8.74 -2.33,-4.93 -3.97,-10.58 -5.08,-15.91 -0.37,-1.79 -0.55,-3.45 -0.54,-5.27 0.01,-1.03 0.2,-2.29 -0.11,-3.27 -1.04,1.61 -0.91,4.36 -1.35,6.18 -0.46,1.92 -1.59,4.01 -1.33,6.03 -0.95,-1.03 -1.16,-2.58 -1.75,-3.82 -1.42,-2.98 -2.46,-5.97 -3.53,-9.1 -0.75,-2.17 -1.7,-4.54 -2.04,-6.81 -0.25,-1.6 -0.45,-2.89 -1.04,-4.41 -0.79,-2.04 -0.61,-3.83 -0.7,-5.95 -0.04,-1.01 -0.39,-1.11 -0.6,-1.93 -0.28,-1.08 0.35,-2.33 -0.1,-3.4 -0.47,0.18 -1.34,2.14 -1.72,2.8 -0.86,1.51 -1.05,0.89 -1.68,-0.55 -0.96,-2.17 -1.76,-3.68 -3.12,-5.65 -1,-1.44 -1.84,-2.93 -2.84,-4.36 -0.19,0.71 -0.06,1.35 -0.08,2.13 -0.04,1.68 -0.55,3.3 -0.63,4.98 -0.09,2.16 -0.06,4.42 -0.01,6.57 0.07,2.38 0.76,4.47 1.18,6.79 1.13,6.32 2.02,12.61 3.37,18.9 1.4,6.58 2.95,13.28 4.93,19.72 3.32,10.77 7.94,20.9 14.86,29.86 2.55,3.31 5.42,6.41 8.09,9.63 2.01,2.43 4.05,4.8 6.39,6.94 8.02,7.38 17.31,14.16 27.74,17.57 2.3,0.75 4.63,1.45 6.91,2.25 1.86,0.64 3.62,1.56 5.63,1.59 0.55,0.01 1.14,-0.03 1.69,-0.05 0.88,-0.02 1.18,0.28 1.83,0.44 1.29,0.33 2.51,0.65 3.87,0.66 1.76,0.01 3.27,0.68 4.97,1.02 1.44,0.29 2.93,0.39 4.37,0.67 2.68,0.53 5.29,1.36 8,1.66 2.49,0.27 4.58,-0.2 7.02,-0.41 2.53,-0.23 4.81,0.65 7.29,0.95 2.37,0.28 4.79,0.09 7.17,0.09 1.39,0 2.79,0.09 4.17,0.05 1.65,-0.05 2.84,-0.71 4.38,-1.08 1.53,-0.36 3.15,0 4.69,-0.07 1.49,-0.06 2.89,-0.54 4.38,-0.62 2.81,-0.15 5.28,0.08 8.04,-0.69 2.75,-0.76 5.18,-0.27 7.91,0.06 2.1,0.25 4.73,-0.68 6.76,-1.19 2.07,-0.52 4.02,-0.55 5.96,-1.54 1.54,-0.79 3.1,-1.46 4.63,-2.23 0.94,-0.47 1.69,-1.2 2.65,-1.61 1.3,-0.56 2.68,-0.54 3.96,-1.23 2.06,-1.11 4.27,-1.72 6.38,-2.82 2.47,-1.3 4.47,-2.96 7.07,-4.11 2.53,-1.12 4.56,-2.52 6.63,-4.36 1.85,-1.64 3.01,-3.79 4.78,-5.51 1.76,-1.71 3.48,-3.46 5.22,-5.19 1.15,-1.14 2.03,-2.36 3.08,-3.58 1.21,-1.4 2.83,-2.26 4.04,-3.67 5.21,-6.03 9.06,-12.97 12.67,-20.06 3.23,-6.32 4.18,-13.76 5.45,-20.68 0.98,-5.28 3.55,-10.17 4.72,-15.42 1.18,-5.28 2.89,-10.71 2.82,-16.15 -0.04,-3.31 -0.26,-6.46 -0.71,-9.74 -0.46,-3.35 -0.32,-6.67 -0.87,-10.01 -0.43,-2.59 -0.19,-5.38 -0.81,-7.93 -0.36,-1.47 -0.44,-2.88 -1.04,-4.23 0.1,0.62 0.11,1.24 0.03,1.87"
       style="fill:none;stroke:#000000;stroke-width:1.7;stroke-linecap:round;stroke-linejoin:round;stroke-miterlimit:4;stroke-dasharray:none;stroke-opacity:1"
       transform="matrix(1.3333333,0,0,-1.3333333,440.03627,293.5916)"
       clip-path="url(#clipPath67)" />
    <path
       id="path68"
       d="m 0,0 c 0.55,-7.13 -3,-12.66 -3.95,-19.23 -0.93,-6.39 1.12,-11.31 2.98,-17.48 4.58,-15.25 1.67,-25.8 -2.42,-40.37 -3.88,-13.85 0.74,-30.48 6.48,-43.48 4.89,-11.09 11.58,-21.41 16.06,-32.77 3.4,-8.62 4.73,-19.32 9.63,-27.09 3.12,-4.96 21.35,-26.91 26,-24.57"
       style="fill:none;stroke:#000000;stroke-width:1.7;stroke-linecap:round;stroke-linejoin:round;stroke-miterlimit:4;stroke-dasharray:none;stroke-opacity:1"
       transform="matrix(1.3333333,0,0,-1.3333333,357.2096,359.09827)"
       clip-path="url(#clipPath69)" />
    <path
       id="path70"
       d="M 0,0 C 4.19,3.05 7.13,8.02 11.06,11.25 9.66,5.92 11.95,-1.8 13.08,-7.15 15.17,-2.36 17.85,7.53 22.5,10.14 22.39,4.9 22.51,-2.39 24.39,-7.18 29.25,-1.94 32.7,4.17 38.4,9.04"
       style="fill:none;stroke:#000000;stroke-width:1.7;stroke-linecap:round;stroke-linejoin:round;stroke-miterlimit:4;stroke-dasharray:none;stroke-opacity:1"
       transform="matrix(1.3333333,0,0,-1.3333333,440.03627,293.5916)"
       clip-path="url(#clipPath71)" />
    <path
       id="path72"
       d="m 0,0 c 4.07,5.13 13.42,8.15 19.6,9.1 9.18,1.42 17.41,2.8 25.76,-2.05 9.59,-5.59 17.46,-15.01 22.25,-25.02 3.45,-7.2 4.2,-14.87 4.11,-22.75 -0.05,-4.95 0.03,-11.6 -2.44,-16.02 2.75,2.87 5.79,5.79 8.6,8.61 0.54,-7.66 0.23,-15.96 1.66,-23.51 1.25,4.43 6.57,8.61 9.93,11.69 0.06,-0.14 0.06,-0.23 0.03,-0.3 -0.05,-0.14 -0.21,-0.22 -0.28,-0.46"
       style="fill:none;stroke:#000000;stroke-width:1.7;stroke-linecap:round;stroke-linejoin:round;stroke-miterlimit:4;stroke-dasharray:none;stroke-opacity:1"
       transform="matrix(1.3333333,0,0,-1.3333333,491.6096,281.16493)"
       clip-path="url(#clipPath73)" />
    <path
       id="path74"
       d="m 0,0 v -0.11 c 0.15,-10.85 0.21,-22.32 3.03,-32.84 0.9,3.4 1.58,6.88 2.35,10.31 -0.32,-5.56 1.92,-11.16 3.24,-16.48 1.14,-4.54 2.15,-9.17 3.24,-13.68 0.45,3.46 0.59,6.91 2.03,10.13 1.27,-3.67 3.82,-6.6 5.37,-10.12 -1.98,4.81 -0.09,11.04 0.9,15.56 0.06,0.27 0.12,0.54 0.17,0.8"
       style="fill:none;stroke:#000000;stroke-width:1.7;stroke-linecap:round;stroke-linejoin:round;stroke-miterlimit:4;stroke-dasharray:none;stroke-opacity:1"
       transform="matrix(1.3333333,0,0,-1.3333333,610.94293,361.3516)"
       clip-path="url(#clipPath75)" />
    <path
       id="path76"
       d="m 0,0 c 2.39,-2.67 3.6,-4.79 3.13,-8.72 -0.41,-3.41 -2.63,-5 -4.45,-7.68 -2.15,-3.18 -3.73,-6.63 -4.34,-10.34 2.95,4.71 9.29,1.04 10.5,-2.99 -0.28,-0.05 -0.38,0.17 -0.32,0.65"
       style="fill:none;stroke:#000000;stroke-width:1.7;stroke-linecap:round;stroke-linejoin:round;stroke-miterlimit:4;stroke-dasharray:none;stroke-opacity:1"
       transform="matrix(1.3333333,0,0,-1.3333333,639.55613,446.05813)"
       clip-path="url(#clipPath77)" />
    <path
       id="path78"
       d="m 0,0 c 2.69,7.83 5.45,17.43 10.95,23.71 4.33,4.94 8.36,4.93 9.96,-2.56 C 23.21,10.41 18.05,-0.24 14.25,-9.89 11.68,-16.43 6.87,-23 5.1,-29.58 5.09,-29.61 5.08,-29.65 5.07,-29.68 v -0.03 c 0.03,-0.25 0.03,-0.09 0.03,0.13 0,0.18 -0.01,0.41 -0.01,0.5 v 0.04"
       style="fill:none;stroke:#000000;stroke-width:1.7;stroke-linecap:round;stroke-linejoin:round;stroke-miterlimit:4;stroke-dasharray:none;stroke-opacity:1"
       transform="matrix(1.3333333,0,0,-1.3333333,639.55613,446.05813)"
       clip-path="url(#clipPath79)" />
    <path
       id="path80"
       d="m 0,0 c 1.54,-1.36 3.39,-2.98 5.39,-4.4 2,-1.41 4.14,-2.62 6.25,-3.15 5.7,-1.45 12.82,-0.24 18.58,0.04 4.14,0.2 8.32,-0.07 12.32,0.71 3.71,0.73 8.6,4.79 11.31,5.14 0.03,0 0.05,0.01 0.08,0.01"
       style="fill:none;stroke:#000000;stroke-width:1.7;stroke-linecap:round;stroke-linejoin:round;stroke-miterlimit:4;stroke-dasharray:none;stroke-opacity:1"
       transform="matrix(1.3333333,0,0,-1.3333333,488.2228,414.31147)"
       clip-path="url(#clipPath81)" />
    <path
       id="path82"
       d="m 0,0 c 1.71,1.53 3.29,3.56 5.04,5.64 3.65,4.34 8,8.93 15.66,9.75 1.48,0.16 3.03,0.26 4.61,0.3 5.82,0.15 12.14,-0.49 17.81,-2 2.4,-0.63 4.68,-1.42 6.76,-2.36 2.21,-1.01 3.94,-2.34 5.73,-3.85 0.82,-0.69 2.13,-2.26 3.3,-3.39"
       style="fill:none;stroke:#000000;stroke-width:1.7;stroke-linecap:round;stroke-linejoin:round;stroke-miterlimit:4;stroke-dasharray:none;stroke-opacity:1"
       transform="matrix(1.3333333,0,0,-1.3333333,481.4496,421.77827)"
       clip-path="url(#clipPath83)" />
    <path
       id="path84"
       d="m 0,0 c -1.7,-2.12 -1.04,-6.61 3.11,-6.02 2.7,0.38 6.57,4.84 7.05,6.73"
       style="fill:none;stroke:#000000;stroke-width:1.7;stroke-linecap:round;stroke-linejoin:round;stroke-miterlimit:4;stroke-dasharray:none;stroke-opacity:1"
       transform="matrix(1.3333333,0,0,-1.3333333,481.4496,421.77827)"
       clip-path="url(#clipPath85)" />
    <path
       id="path86"
       d="m 0,0 c 2.57,6.72 11.65,8.98 19.89,9.83 4.41,0.46 8.58,0.51 11.39,0.62 1.72,0.07 3.37,0.05 4.96,-0.11 4,-0.4 7.6,-1.69 10.83,-4.68 0.98,-0.91 2.65,-2.27 4.3,-3.79 2.42,-2.21 4.82,-4.75 5.04,-6.73 0.24,-2.26 -1.57,-4.31 -3.96,-4.18 -3.02,0.16 -5.96,4.78 -8.12,6.43"
       style="fill:none;stroke:#000000;stroke-width:1.7;stroke-linecap:round;stroke-linejoin:round;stroke-miterlimit:4;stroke-dasharray:none;stroke-opacity:1"
       transform="matrix(1.3333333,0,0,-1.3333333,363.6096,417.8316)"
       clip-path="url(#clipPath87)" />
    <path
       id="path88"
       d="m 0,0 c 5.36,-1.69 9.7,-2.42 14.67,-3.95 3.46,-1.06 6.94,-1.53 10.46,-1.61 2.17,-0.04 4.35,0.06 6.55,0.26 1,0.09 2.03,0.21 3.07,0.37 3.24,0.46 6.58,1.21 9.57,2.34 2.65,1.01 5.01,2.32 6.78,4.01"
       style="fill:none;stroke:#000000;stroke-width:1.7;stroke-linecap:round;stroke-linejoin:round;stroke-miterlimit:4;stroke-dasharray:none;stroke-opacity:1"
       transform="matrix(1.3333333,0,0,-1.3333333,363.6096,417.8316)"
       clip-path="url(#clipPath89)" />
    <path
       id="path90"
       d="m 0,0 c -0.39,-0.97 -1.34,-1.73 -1.79,-2.73 -0.63,-1.39 -0.88,-2.99 -0.85,-4.52 0.06,-2.67 1.08,-5.61 3.11,-7.41 2.58,-2.28 6.19,-2.79 9.52,-2.7 0.29,0.01 0.58,0.02 0.86,0.04 2.05,0.12 4.66,0.94 6.29,2.24 1.79,1.42 2.57,4.42 2.7,6.6 0.11,1.82 0.1,5.77 -2.05,6.5"
       style="fill:none;stroke:#000000;stroke-width:1.7;stroke-linecap:round;stroke-linejoin:round;stroke-miterlimit:4;stroke-dasharray:none;stroke-opacity:1"
       transform="matrix(1.3333333,0,0,-1.3333333,515.19627,401.00493)"
       clip-path="url(#clipPath91)" />
    <path
       id="path92"
       d="M 0,0 C -0.14,-0.02 -0.28,-0.09 -0.43,-0.25"
       style="fill:none;stroke:#000000;stroke-width:1.7;stroke-linecap:round;stroke-linejoin:round;stroke-miterlimit:4;stroke-dasharray:none;stroke-opacity:1"
       transform="matrix(1.3333333,0,0,-1.3333333,527.82293,409.5916)"
       clip-path="url(#clipPath93)" />
    <path
       id="path94"
       d="M 0,0 C -0.96,0.44 -1.83,-1.21 -1.65,-2.04 -1.36,-3.39 0.27,-3.45 0.89,-2.31 1.25,-1.67 0.74,0.08 0,0 Z"
       style="fill:none;stroke:#000000;stroke-width:1.7;stroke-linecap:round;stroke-linejoin:round;stroke-miterlimit:4;stroke-dasharray:none;stroke-opacity:1"
       transform="matrix(1.3333333,0,0,-1.3333333,527.82293,409.5916)"
       clip-path="url(#clipPath95)" />
    <path
       id="path96"
       d="M 0,0 C -0.08,0.07 -0.16,0.11 -0.23,0.15"
       style="fill:none;stroke:#000000;stroke-width:1.7;stroke-linecap:round;stroke-linejoin:round;stroke-miterlimit:4;stroke-dasharray:none;stroke-opacity:1"
       transform="matrix(1.3333333,0,0,-1.3333333,528.1296,409.7916)"
       clip-path="url(#clipPath97)" />
    <path
       id="path98"
       d="m 0,0 c -0.07,0.1 -0.19,0.19 -0.34,0.23 -0.01,-0.27 -0.01,-0.35 0.08,-0.57 0.09,0.05 0.16,0.11 0.21,0.18 0.03,0.04 0.05,0.08 0.06,0.13 0.03,0.05 0.04,0.1 0.03,0.16 0,0.1 -0.03,0.21 -0.1,0.32"
       style="fill:none;stroke:#000000;stroke-width:1.7;stroke-linecap:round;stroke-linejoin:round;stroke-miterlimit:4;stroke-dasharray:none;stroke-opacity:1"
       transform="matrix(1.3333333,0,0,-1.3333333,527.95627,411.89827)"
       clip-path="url(#clipPath99)" />
    <path
       id="path100"
       d="m 0,0 c 0.57,-0.33 0.92,0.34 0.66,0.74 0,0.01 0,0.02 -0.01,0.02"
       style="fill:none;stroke:#000000;stroke-width:1.7;stroke-linecap:round;stroke-linejoin:round;stroke-miterlimit:4;stroke-dasharray:none;stroke-opacity:1"
       transform="matrix(1.3333333,0,0,-1.3333333,527.0896,412.92493)"
       clip-path="url(#clipPath101)" />
    <path
       id="path102"
       d="m 0,0 c -0.66,1.12 -1.54,-0.43 -1.24,-1.12 0.13,-0.29 0.29,-0.4 0.45,-0.38 h 0.01 c 0.23,0.01 0.46,0.28 0.6,0.61 0.02,0.05 0.04,0.1 0.05,0.15 0.01,0 0.01,0 0,0.01 0.02,0.04 0.03,0.08 0.04,0.13 0.07,0.32 0.05,0.64 -0.15,0.84 -0.71,0.7 -1.16,-1.38 -0.55,-1.74"
       style="fill:none;stroke:#000000;stroke-width:1.7;stroke-linecap:round;stroke-linejoin:round;stroke-miterlimit:4;stroke-dasharray:none;stroke-opacity:1"
       transform="matrix(1.3333333,0,0,-1.3333333,528.1296,410.92493)"
       clip-path="url(#clipPath103)" />
    <path
       id="path104"
       d="m 0,0 c -2.11,-2.39 -2.72,-5.58 -1.76,-8.62 1.21,-3.8 3.42,-5.34 6.99,-6.63"
       style="fill:none;stroke:#000000;stroke-width:1.7;stroke-linecap:round;stroke-linejoin:round;stroke-miterlimit:4;stroke-dasharray:none;stroke-opacity:1"
       transform="matrix(1.3333333,0,0,-1.3333333,390.1428,404.8316)"
       clip-path="url(#clipPath105)" />
    <path
       id="path106"
       d="m 0,0 c 0.03,-0.04 0.06,-0.07 0.1,-0.11 1.08,-1.21 2.36,-1.84 2.85,-3.72 0.43,-1.7 0.48,-3.78 0.02,-5.49 -0.71,-2.62 -2.26,-4.47 -4.38,-5.93"
       style="fill:none;stroke:#000000;stroke-width:1.7;stroke-linecap:round;stroke-linejoin:round;stroke-miterlimit:4;stroke-dasharray:none;stroke-opacity:1"
       transform="matrix(1.3333333,0,0,-1.3333333,411.79627,403.89827)"
       clip-path="url(#clipPath107)" />
    <path
       id="path108"
       d="M 0,0 C -0.02,0.04 -0.05,0.07 -0.09,0.09 -0.18,0.16 -0.31,0.21 -0.41,0.32"
       style="fill:none;stroke:#000000;stroke-width:1.7;stroke-linecap:round;stroke-linejoin:round;stroke-miterlimit:4;stroke-dasharray:none;stroke-opacity:1"
       transform="matrix(1.3333333,0,0,-1.3333333,401.94293,412.24493)"
       clip-path="url(#clipPath109)" />
    <path
       id="path110"
       d="m 0,0 c -3.2,-0.18 0.87,-5.15 1.42,-1.59 0.48,3.13 -4.24,0.74 -1.31,-0.5 0.03,0.02 0.06,0.05 0.09,0.08 0.29,0.27 0.34,0.63 0.22,0.98 -0.05,0.2 -0.16,0.41 -0.31,0.6 C 0.02,-0.5 -0.06,-0.57 -0.11,-0.66 -0.4,-1.09 -0.28,-1.69 0.2,-2.01 0.27,-2.06 0.35,-2.11 0.44,-2.14 0.72,-1.73 0.67,-1.3 0.42,-1.03 0.31,-0.9 0.16,-0.8 -0.02,-0.76 v 0.01 c -0.03,0.01 -0.06,0.01 -0.1,0.02 -0.04,0.06 0,-0.44 0.01,-0.39 0.1,0.18 0.12,0.28 0.09,0.36"
       style="fill:none;stroke:#000000;stroke-width:1.7;stroke-linecap:round;stroke-linejoin:round;stroke-miterlimit:4;stroke-dasharray:none;stroke-opacity:1"
       transform="matrix(1.3333333,0,0,-1.3333333,401.9696,411.24493)"
       clip-path="url(#clipPath111)" />
    <path
       id="path112"
       d="m 0,0 c 0.68,-3.16 2.98,-6.04 3.85,-9.35 0.71,-2.69 1.39,-5.05 1.42,-7.92 0.06,-5.32 -1.51,-10.89 -3.11,-15.95 -3.22,-10.2 -8.56,-19.72 -12.06,-29.67 -1.37,-3.91 -1.17,-8.06 -2.7,-11.86 -1.73,-4.26 -5.72,-7.93 -3.13,-12.89 1.33,-2.56 7.36,-5.9 6.98,-0.92 -0.25,3.41 -5.82,7.5 0.99,7.27 2.88,-0.09 6.55,-1.51 7.4,-4.63 0.62,-2.27 -1.37,-4.64 0.2,-6.7 2.1,-2.75 14.59,-3 15.58,-0.01 0.01,0.01 0.01,0.01 0.01,0.02"
       style="fill:none;stroke:#000000;stroke-width:1.7;stroke-linecap:round;stroke-linejoin:round;stroke-miterlimit:4;stroke-dasharray:none;stroke-opacity:1"
       transform="matrix(1.3333333,0,0,-1.3333333,437.02293,392.7248)"
       clip-path="url(#clipPath113)" />
    <path
       id="path114"
       d="m 0,0 c -0.14,0.12 -0.27,0.24 -0.39,0.36 -5.98,5.72 3.27,9.95 9.03,11.46 6.44,1.68 8.39,-4.06 5.04,-8.72 10.21,-5.41 18.62,9.88 13.51,18 -6.17,9.81 -15.33,-1.76 -21.54,1.86"
       style="fill:none;stroke:#000000;stroke-width:1.7;stroke-linecap:round;stroke-linejoin:round;stroke-miterlimit:4;stroke-dasharray:none;stroke-opacity:1"
       transform="matrix(1.3333333,0,0,-1.3333333,458.1028,516.7116)"
       clip-path="url(#clipPath115)" />
    <path
       id="path116"
       d="M 0,0 C 4.62,-6.63 20.16,-8.99 26.73,-4.52"
       style="fill:none;stroke:#000000;stroke-width:1.7;stroke-linecap:round;stroke-linejoin:round;stroke-miterlimit:4;stroke-dasharray:none;stroke-opacity:1"
       transform="matrix(1.3333333,0,0,-1.3333333,501.76947,441.41827)"
       clip-path="url(#clipPath117)" />
    <path
       id="path118"
       d="M 0,0 C 5.41,-3 17.75,-3.27 22.21,1.51"
       style="fill:none;stroke:#000000;stroke-width:1.7;stroke-linecap:round;stroke-linejoin:round;stroke-miterlimit:4;stroke-dasharray:none;stroke-opacity:1"
       transform="matrix(1.3333333,0,0,-1.3333333,384.31627,441.92493)"
       clip-path="url(#clipPath119)" />
    <path
       id="path120"
       d="m 0,0 c 1.22,-3.71 1.5,-6.4 3.84,-9.56 2.72,-3.67 5.92,-7.03 9.03,-10.39 4.34,-4.69 11.34,-12.95 11.22,-19.58"
       style="fill:none;stroke:#000000;stroke-width:1.7;stroke-linecap:round;stroke-linejoin:round;stroke-miterlimit:4;stroke-dasharray:none;stroke-opacity:1"
       transform="matrix(1.3333333,0,0,-1.3333333,502.78293,496.12493)"
       clip-path="url(#clipPath121)" />
    <path
       id="path122"
       d="m 0,0 c -1.59,-6.05 -7.6,-10.73 -10.99,-15.8 -3.31,-4.93 -4.76,-8.82 -6.33,-14.42 0.28,2.06 0.65,4.1 1.13,6.13"
       style="fill:none;stroke:#000000;stroke-width:1.7;stroke-linecap:round;stroke-linejoin:round;stroke-miterlimit:4;stroke-dasharray:none;stroke-opacity:1"
       transform="matrix(1.3333333,0,0,-1.3333333,409.91627,508.68493)"
       clip-path="url(#clipPath123)" />
    <path
       id="path124"
       d="m 0,0 c 0.4,-0.04 0.81,-0.08 1.21,-0.13 3.04,-0.36 6.06,-1 9.19,-0.84 3.15,0.17 6.41,0.68 9.5,1.37 6.48,1.46 12.52,2.22 18.27,-1.34 1.27,6.57 16.17,4.66 20.66,3.09 5.88,-2.07 10.94,-2.95 16.26,-2.47 1.79,0.16 3.61,0.48 5.5,0.95 0.92,0.24 1.87,0.51 2.83,0.82"
       style="fill:none;stroke:#000000;stroke-width:1.7;stroke-linecap:round;stroke-linejoin:round;stroke-miterlimit:4;stroke-dasharray:none;stroke-opacity:1"
       transform="matrix(1.3333333,0,0,-1.3333333,399.58293,542.48493)"
       clip-path="url(#clipPath125)" />
    <path
       id="path126"
       d="M 0,0 C 1.16,0.08 2.31,0.04 3.46,-0.06"
       style="fill:none;stroke:#000000;stroke-width:1.7;stroke-linecap:round;stroke-linejoin:round;stroke-miterlimit:4;stroke-dasharray:none;stroke-opacity:1"
       transform="matrix(1.3333333,0,0,-1.3333333,394.84947,542.3916)"
       clip-path="url(#clipPath127)" />
    <path
       id="path128"
       d="m 0,0 c 1.03,-0.1 2.05,-0.23 3.08,-0.4 0.03,0.01 0.06,0 0.09,-0.01 0.58,-0.08 1.17,-0.18 1.75,-0.29 12.16,-2.23 23.98,-7.69 36.3,-7.26 11.65,0.41 25.83,4.75 37.04,7.23"
       style="fill:none;stroke:#000000;stroke-width:1.7;stroke-linecap:round;stroke-linejoin:round;stroke-miterlimit:4;stroke-dasharray:none;stroke-opacity:1"
       transform="matrix(1.3333333,0,0,-1.3333333,395.35627,541.93827)"
       clip-path="url(#clipPath129)" />
    <path
       id="path130"
       d="m 0,0 c 1.14,-0.07 2.22,-0.25 3.25,-0.54 0.18,-0.05 0.36,-0.1 0.54,-0.16 6,-1.87 10.53,-6.91 15.85,-9.68 8.31,-4.33 19.01,-3.8 28.2,-3.81 8.42,-0.01 15.04,0.7 21.65,5.82 3.7,2.87 8.87,6.49 13.15,8.55"
       style="fill:none;stroke:#000000;stroke-width:1.7;stroke-linecap:round;stroke-linejoin:round;stroke-miterlimit:4;stroke-dasharray:none;stroke-opacity:1"
       transform="matrix(1.3333333,0,0,-1.3333333,396.86293,541.93827)"
       clip-path="url(#clipPath131)" />
    <path
       id="path132"
       d="m 0,0 c -1.39,-3.79 -2.45,-7.66 -3.83,-11.45 0.25,3.46 1.1,7.16 1.93,10.58 -1.41,-3.31 -2.85,-6.69 -3.99,-10.09 0.78,3.88 1.7,8.39 1.67,12.35 -1.38,-3.6 -2.75,-7.3 -3.97,-10.97 -0.07,2.95 0.89,5.95 0.48,8.88 -0.95,-2.44 -1.47,-5.03 -2.5,-7.44 -0.66,3 0.67,6.38 -0.21,9.27 -0.96,-2.54 -1.09,-5.34 -1.96,-7.9 -0.17,2.52 -0.09,5.11 -0.02,7.64 -0.4,-2.54 -0.98,-5.19 -1.67,-7.67 -0.1,2.01 0.17,4.75 -0.62,6.52 -0.43,-2.01 -0.46,-4.15 -0.89,-6.12 -0.51,1.9 -0.44,4.27 -1.38,5.87 -0.44,-2.1 -0.42,-4.37 -1.02,-6.37 -0.8,2.33 -0.83,4.9 -1.82,7.16 -0.59,-2.07 -0.07,-4.31 -0.44,-6.43 -0.77,1.89 -1,4.02 -1.74,5.95 -0.4,-1.93 -0.35,-3.97 -0.35,-5.93 -0.86,2.26 -1.24,4.64 -1.9,6.94 -0.38,-2.12 -0.21,-4.27 -0.52,-6.39 -0.75,1.74 -0.84,3.82 -1.81,5.46 -0.58,-1.67 -0.6,-3.51 -0.59,-5.25 -0.87,1.68 -1.2,3.61 -2.12,5.3 -0.72,-1.99 0.16,-4.23 -0.46,-6.17 -1.72,1.21 -2.23,4.12 -2.8,6.06 0.04,-1.91 0.36,-3.91 0.02,-5.76 -1.05,1.71 -1.27,3.8 -2.28,5.52 -0.21,-2.08 0.32,-4.3 0.62,-6.38 -0.97,1.73 -1.64,3.62 -2.83,5.22 -0.06,-1.92 0.44,-3.78 0.59,-5.69 -1.38,1.42 -2.31,3.44 -3.14,5.26 0.31,-1.54 0.73,-3.06 0.87,-4.62 -1.51,0.8 -2.12,3.03 -3.29,4.47 -0.23,-1.76 0.64,-3.49 0.39,-5.25 -1.65,0.77 -2,2.86 -3.25,4.12 -0.18,-1.59 0.33,-3.2 0.14,-4.8 -0.85,1.05 -1.37,2.31 -2.21,3.34 0.16,-1.32 0.67,-2.62 0.57,-3.91 -0.36,0.96 -0.95,1.88 -1.66,2.55 0.16,-0.81 -0.02,-1.88 0.2,-2.69 -0.43,0.61 -1.09,0.95 -1.55,1.47 -0.07,-0.91 0.11,-1.93 0.47,-2.82 -0.5,0.55 -1.56,0.98 -2.14,1.42 -0.55,-0.68 -0.42,-1.24 -0.1,-1.98"
       style="fill:none;stroke:#000000;stroke-width:1.7;stroke-linecap:round;stroke-linejoin:round;stroke-miterlimit:4;stroke-dasharray:none;stroke-opacity:1"
       transform="matrix(1.3333333,0,0,-1.3333333,435.1428,371.52493)"
       clip-path="url(#clipPath133)" />
    <path
       id="path134"
       d="M 0,0 C 0.76,-3.28 2.05,-6.55 3.68,-9.35 3.22,-5.99 2.08,-2.69 1.97,0.74 3.18,-1.86 3.82,-4.8 5.08,-7.42 5.26,-4.4 4,-1.46 4.35,1.54 5.54,-1.01 6.03,-3.9 7.41,-6.36 7.64,-3.06 6.78,0.32 6.54,3.6 7.6,0.99 8.03,-2.15 9.52,-4.47 9.91,-1.86 8.99,0.73 9.26,3.3 c 0.96,-2.09 1.36,-4.48 2.29,-6.62 0.13,2.9 -0.3,5.82 -0.18,8.72 0.68,-2.23 0.96,-4.59 1.66,-6.78 0.46,2.63 -0.27,5.51 0.06,8.09 0.77,-2.42 0.94,-5.02 1.67,-7.45 0.86,2.14 0.41,4.93 0.51,7.3 1.12,-1.43 1.24,-4.51 2.04,-6.55 0.43,2.58 -0.11,5.28 0.45,7.81 0.56,-2.11 0.92,-4.33 1.52,-6.4 0.27,2.38 0.28,4.79 0.53,7.18 0.85,-2.29 0.81,-4.96 1.36,-7.36 0.95,1.75 0.44,4.31 0.83,6.37 0.76,-1.9 0.81,-4.1 1.24,-6.11 0.33,2.08 -0.36,4.67 0.15,6.42 0.78,-2.14 1.2,-4.46 1.83,-6.66 0.34,2.19 0.11,4.43 0.23,6.65 0.38,-1.98 0.37,-5.05 1.67,-6.38 0.78,1.99 0.38,4.31 1.11,6.3 0.59,-1.6 0.69,-3.65 1.05,-5.19 0.21,2.17 0.54,4.38 1.23,6.41 0.8,-1.86 0.6,-4.53 0.88,-6.75 0.62,2.04 0.59,4.37 1.44,6.29 0.85,-1.68 0.71,-4.05 1.1,-5.98 1.11,1.64 1.41,4.1 1.73,6.15 0.65,-1.78 0.35,-3.88 0.73,-5.78 0.73,1.71 0.85,3.83 1.9,5.28 0.37,-1.84 0.23,-4.14 0.65,-5.69 0.69,1.5 0.97,3.3 1.88,4.31 0.23,-1.54 0.37,-3.11 0.75,-4.61 0.51,1.6 0.71,3.31 1.59,4.51 0.02,-1.49 0.07,-3.02 0.39,-4.48 0.48,1.52 0.97,3.21 1.67,4.69 0.4,-1.96 0.12,-4.11 0.63,-6.06 0.85,1.42 1.21,3.28 2.18,4.3 0.39,-1.72 0.42,-3.53 0.86,-5.21 0.84,1.44 1.14,3.19 1.89,4.7 0.34,-1.72 0.08,-3.84 0.57,-5.3 0.81,1.49 1.28,3.18 1.98,4.74 1.03,-1.29 0.15,-4.09 0.57,-5.78 0.68,1.5 0.95,3.17 1.62,4.67 0.25,-1.74 -0.06,-3.76 0.34,-5.24 0.67,1.62 1.21,3.31 2,4.86 0.73,-1.54 0.15,-4.14 0.52,-6 1.51,1.45 2.47,3.48 3.75,5.18 0.52,-1.81 -0.24,-3.74 0.22,-5.57 1.25,0.62 1.85,2.43 2.8,3.65 0.16,-1.63 0.04,-3.3 0.09,-4.95 0.86,0.71 1.66,1.8 2.51,2.29 0.05,-1.32 0.02,-2.65 0.05,-3.97 0.82,1.02 1.68,2.61 2.78,2.93 0.05,-1.5 0.02,-3.01 0.02,-4.51 0.97,0.75 1.8,2.1 2.81,2.78 -0.02,-1.32 -0.05,-2.75 0.28,-3.79"
       style="fill:none;stroke:#000000;stroke-width:1.7;stroke-linecap:round;stroke-linejoin:round;stroke-miterlimit:4;stroke-dasharray:none;stroke-opacity:1"
       transform="matrix(1.3333333,0,0,-1.3333333,468.55613,375.68493)"
       clip-path="url(#clipPath135)" />
    <path
       id="path136"
       d="M 0,0 C -2.57,-3.12 -4.52,-6.83 -6.78,-10.17"
       style="fill:none;stroke:#000000;stroke-width:1.7;stroke-linecap:round;stroke-linejoin:round;stroke-miterlimit:4;stroke-dasharray:none;stroke-opacity:1"
       transform="matrix(1.3333333,0,0,-1.3333333,412.92947,521.3516)"
       clip-path="url(#clipPath137)" />
    <path
       id="path138"
       d="M 0,0 C -0.35,-2.6 -2.24,-4.86 -1.98,-7.62"
       style="fill:none;stroke:#000000;stroke-width:1.7;stroke-linecap:round;stroke-linejoin:round;stroke-miterlimit:4;stroke-dasharray:none;stroke-opacity:1"
       transform="matrix(1.3333333,0,0,-1.3333333,419.3296,522.1116)"
       clip-path="url(#clipPath139)" />
    <path
       id="path140"
       d="M 0,0 C -0.07,-2.67 -0.65,-5.65 -1.41,-8.19"
       style="fill:none;stroke:#000000;stroke-width:1.7;stroke-linecap:round;stroke-linejoin:round;stroke-miterlimit:4;stroke-dasharray:none;stroke-opacity:1"
       transform="matrix(1.3333333,0,0,-1.3333333,429.86293,521.72493)"
       clip-path="url(#clipPath141)" />
    <path
       id="path142"
       d="M 0,0 C 0,-2.09 -0.07,-4.15 0.28,-6.22"
       style="fill:none;stroke:#000000;stroke-width:1.7;stroke-linecap:round;stroke-linejoin:round;stroke-miterlimit:4;stroke-dasharray:none;stroke-opacity:1"
       transform="matrix(1.3333333,0,0,-1.3333333,440.4096,524.73827)"
       clip-path="url(#clipPath143)" />
    <path
       id="path144"
       d="M 0,0 C 0,-1.96 -0.24,-4.02 0.28,-5.93"
       style="fill:none;stroke:#000000;stroke-width:1.7;stroke-linecap:round;stroke-linejoin:round;stroke-miterlimit:4;stroke-dasharray:none;stroke-opacity:1"
       transform="matrix(1.3333333,0,0,-1.3333333,449.4496,525.12493)"
       clip-path="url(#clipPath145)" />
    <path
       id="path146"
       d="M 0,0 C 0.35,-2.18 0.87,-4.61 1.98,-6.49"
       style="fill:none;stroke:#000000;stroke-width:1.7;stroke-linecap:round;stroke-linejoin:round;stroke-miterlimit:4;stroke-dasharray:none;stroke-opacity:1"
       transform="matrix(1.3333333,0,0,-1.3333333,459.98293,523.61827)"
       clip-path="url(#clipPath147)" />
    <path
       id="path148"
       d="M 0,0 C -0.02,-2.28 1.77,-4.97 2.55,-7.06"
       style="fill:none;stroke:#000000;stroke-width:1.7;stroke-linecap:round;stroke-linejoin:round;stroke-miterlimit:4;stroke-dasharray:none;stroke-opacity:1"
       transform="matrix(1.3333333,0,0,-1.3333333,470.1428,522.1116)"
       clip-path="url(#clipPath149)" />
    <path
       id="path150"
       d="M 0,0 C 1.48,-2.29 2.74,-4.69 4.52,-6.78"
       style="fill:none;stroke:#000000;stroke-width:1.7;stroke-linecap:round;stroke-linejoin:round;stroke-miterlimit:4;stroke-dasharray:none;stroke-opacity:1"
       transform="matrix(1.3333333,0,0,-1.3333333,482.19627,524.73827)"
       clip-path="url(#clipPath151)" />
    <path
       id="path152"
       d="M 0,0 C 1.17,-2.94 3.32,-6.62 5.64,-8.75"
       style="fill:none;stroke:#000000;stroke-width:1.7;stroke-linecap:round;stroke-linejoin:round;stroke-miterlimit:4;stroke-dasharray:none;stroke-opacity:1"
       transform="matrix(1.3333333,0,0,-1.3333333,492.74293,522.48493)"
       clip-path="url(#clipPath153)" />
    <path
       id="path154"
       d="M 0,0 C 1.17,-2.64 3.05,-4.58 4.8,-6.78"
       style="fill:none;stroke:#000000;stroke-width:1.7;stroke-linecap:round;stroke-linejoin:round;stroke-miterlimit:4;stroke-dasharray:none;stroke-opacity:1"
       transform="matrix(1.3333333,0,0,-1.3333333,503.27627,523.9916)"
       clip-path="url(#clipPath155)" />
    <path
       id="path156"
       d="M 0,0 C 0.38,-1.18 0.54,-2.42 0.57,-3.67"
       style="fill:none;stroke:#000000;stroke-width:1.7;stroke-linecap:round;stroke-linejoin:round;stroke-miterlimit:4;stroke-dasharray:none;stroke-opacity:1"
       transform="matrix(1.3333333,0,0,-1.3333333,381.67627,526.6316)"
       clip-path="url(#clipPath157)" />
    <path
       id="path158"
       d="M 0,0 C 0.17,-1.89 0.65,-3.75 0.85,-5.65"
       style="fill:none;stroke:#000000;stroke-width:1.7;stroke-linecap:round;stroke-linejoin:round;stroke-miterlimit:4;stroke-dasharray:none;stroke-opacity:1"
       transform="matrix(1.3333333,0,0,-1.3333333,370.0096,514.57827)"
       clip-path="url(#clipPath159)" />
    <path
       id="path160"
       d="M 0,0 C 0.1,-1.46 0.67,-2.84 1.13,-4.23"
       style="fill:none;stroke:#000000;stroke-width:1.7;stroke-linecap:round;stroke-linejoin:round;stroke-miterlimit:4;stroke-dasharray:none;stroke-opacity:1"
       transform="matrix(1.3333333,0,0,-1.3333333,385.82293,512.69827)"
       clip-path="url(#clipPath161)" />
    <path
       id="path162"
       d="M 0,0 C 0.34,-2.07 0.34,-4.25 1.13,-6.21"
       style="fill:none;stroke:#000000;stroke-width:1.7;stroke-linecap:round;stroke-linejoin:round;stroke-miterlimit:4;stroke-dasharray:none;stroke-opacity:1"
       transform="matrix(1.3333333,0,0,-1.3333333,399.74293,574.05827)"
       clip-path="url(#clipPath163)" />
    <path
       id="path164"
       d="M 0,0 C 0.51,-1.92 1.1,-3.85 1.97,-5.64"
       style="fill:none;stroke:#000000;stroke-width:1.7;stroke-linecap:round;stroke-linejoin:round;stroke-miterlimit:4;stroke-dasharray:none;stroke-opacity:1"
       transform="matrix(1.3333333,0,0,-1.3333333,406.5296,563.52493)"
       clip-path="url(#clipPath165)" />
    <path
       id="path166"
       d="M 0,0 C 0.13,-1.54 0.72,-2.98 0.85,-4.52"
       style="fill:none;stroke:#000000;stroke-width:1.7;stroke-linecap:round;stroke-linejoin:round;stroke-miterlimit:4;stroke-dasharray:none;stroke-opacity:1"
       transform="matrix(1.3333333,0,0,-1.3333333,414.80947,594.76493)"
       clip-path="url(#clipPath167)" />
    <path
       id="path168"
       d="M 0,0 C 0.12,-1.32 0.49,-2.76 1.13,-3.95"
       style="fill:none;stroke:#000000;stroke-width:1.7;stroke-linecap:round;stroke-linejoin:round;stroke-miterlimit:4;stroke-dasharray:none;stroke-opacity:1"
       transform="matrix(1.3333333,0,0,-1.3333333,430.62293,577.8316)"
       clip-path="url(#clipPath169)" />
    <path
       id="path170"
       d="M 0,0 C 0.13,-1.48 0.41,-2.95 1.13,-4.23"
       style="fill:none;stroke:#000000;stroke-width:1.7;stroke-linecap:round;stroke-linejoin:round;stroke-miterlimit:4;stroke-dasharray:none;stroke-opacity:1"
       transform="matrix(1.3333333,0,0,-1.3333333,433.63627,601.92493)"
       clip-path="url(#clipPath171)" />
    <path
       id="path172"
       d="M 0,0 C 0.69,-1.94 1.04,-4.41 1.13,-6.49"
       style="fill:none;stroke:#000000;stroke-width:1.7;stroke-linecap:round;stroke-linejoin:round;stroke-miterlimit:4;stroke-dasharray:none;stroke-opacity:1"
       transform="matrix(1.3333333,0,0,-1.3333333,455.0896,581.21827)"
       clip-path="url(#clipPath173)" />
    <path
       id="path174"
       d="M 0,0 C 0.21,-0.97 0.49,-1.91 0.84,-2.83"
       style="fill:none;stroke:#000000;stroke-width:1.7;stroke-linecap:round;stroke-linejoin:round;stroke-miterlimit:4;stroke-dasharray:none;stroke-opacity:1"
       transform="matrix(1.3333333,0,0,-1.3333333,451.3296,606.4316)"
       clip-path="url(#clipPath175)" />
    <path
       id="path176"
       d="M 0,0 C 0.46,-1.67 0.92,-3.4 1.42,-5.08"
       style="fill:none;stroke:#000000;stroke-width:1.7;stroke-linecap:round;stroke-linejoin:round;stroke-miterlimit:4;stroke-dasharray:none;stroke-opacity:1"
       transform="matrix(1.3333333,0,0,-1.3333333,476.54293,609.8316)"
       clip-path="url(#clipPath177)" />
    <path
       id="path178"
       d="M 0,0 V -5.37"
       style="fill:none;stroke:#000000;stroke-width:1.7;stroke-linecap:round;stroke-linejoin:round;stroke-miterlimit:4;stroke-dasharray:none;stroke-opacity:1"
       transform="matrix(1.3333333,0,0,-1.3333333,473.54293,586.85827)"
       clip-path="url(#clipPath179)" />
    <path
       id="path180"
       d="M 0,0 C 0.4,-1.6 1.07,-3.13 1.13,-4.8"
       style="fill:none;stroke:#000000;stroke-width:1.7;stroke-linecap:round;stroke-linejoin:round;stroke-miterlimit:4;stroke-dasharray:none;stroke-opacity:1"
       transform="matrix(1.3333333,0,0,-1.3333333,496.87627,602.29827)"
       clip-path="url(#clipPath181)" />
    <path
       id="path182"
       d="M 0,0 C 0.02,-2.08 0.4,-4.15 0.57,-6.22"
       style="fill:none;stroke:#000000;stroke-width:1.7;stroke-linecap:round;stroke-linejoin:round;stroke-miterlimit:4;stroke-dasharray:none;stroke-opacity:1"
       transform="matrix(1.3333333,0,0,-1.3333333,490.47613,582.33827)"
       clip-path="url(#clipPath183)" />
    <path
       id="path184"
       d="M 0,0 C -0.41,-1.58 0.34,-3.22 0.56,-4.8"
       style="fill:none;stroke:#000000;stroke-width:1.7;stroke-linecap:round;stroke-linejoin:round;stroke-miterlimit:4;stroke-dasharray:none;stroke-opacity:1"
       transform="matrix(1.3333333,0,0,-1.3333333,492.74293,624.88493)"
       clip-path="url(#clipPath185)" />
    <path
       id="path186"
       d="M 0,0 C 0.23,-1.93 0.65,-3.84 1.41,-5.64"
       style="fill:none;stroke:#000000;stroke-width:1.7;stroke-linecap:round;stroke-linejoin:round;stroke-miterlimit:4;stroke-dasharray:none;stroke-opacity:1"
       transform="matrix(1.3333333,0,0,-1.3333333,468.6496,629.0316)"
       clip-path="url(#clipPath187)" />
    <path
       id="path188"
       d="M 0,0 C 0.4,-0.81 0.68,-1.66 0.85,-2.54"
       style="fill:none;stroke:#000000;stroke-width:1.7;stroke-linecap:round;stroke-linejoin:round;stroke-miterlimit:4;stroke-dasharray:none;stroke-opacity:1"
       transform="matrix(1.3333333,0,0,-1.3333333,446.0496,631.65827)"
       clip-path="url(#clipPath189)" />
    <path
       id="path190"
       d="M 0,0 C -0.1,-1.53 0.27,-3.02 0.57,-4.51"
       style="fill:none;stroke:#000000;stroke-width:1.7;stroke-linecap:round;stroke-linejoin:round;stroke-miterlimit:4;stroke-dasharray:none;stroke-opacity:1"
       transform="matrix(1.3333333,0,0,-1.3333333,513.0628,589.12493)"
       clip-path="url(#clipPath191)" />
    <path
       id="path192"
       d="M 0,0 C -0.11,-1.83 0.32,-3.57 0.56,-5.37"
       style="fill:none;stroke:#000000;stroke-width:1.7;stroke-linecap:round;stroke-linejoin:round;stroke-miterlimit:4;stroke-dasharray:none;stroke-opacity:1"
       transform="matrix(1.3333333,0,0,-1.3333333,533.39613,606.05827)"
       clip-path="url(#clipPath193)" />
    <path
       id="path194"
       d="M 0,0 C -0.04,-1.99 0.36,-3.93 0.28,-5.93"
       style="fill:none;stroke:#000000;stroke-width:1.7;stroke-linecap:round;stroke-linejoin:round;stroke-miterlimit:4;stroke-dasharray:none;stroke-opacity:1"
       transform="matrix(1.3333333,0,0,-1.3333333,528.87627,577.0716)"
       clip-path="url(#clipPath195)" />
    <path
       id="path196"
       d="M 0,0 C -0.07,-2.18 0.25,-4.33 0.28,-6.5"
       style="fill:none;stroke:#000000;stroke-width:1.7;stroke-linecap:round;stroke-linejoin:round;stroke-miterlimit:4;stroke-dasharray:none;stroke-opacity:1"
       transform="matrix(1.3333333,0,0,-1.3333333,555.6096,592.12493)"
       clip-path="url(#clipPath197)" />
    <path
       id="path198"
       d="M 0,0 C 0.05,-2.11 -0.51,-4.11 0,-6.21"
       style="fill:none;stroke:#000000;stroke-width:1.7;stroke-linecap:round;stroke-linejoin:round;stroke-miterlimit:4;stroke-dasharray:none;stroke-opacity:1"
       transform="matrix(1.3333333,0,0,-1.3333333,551.46293,566.9116)"
       clip-path="url(#clipPath199)" />
    <path
       id="path200"
       d="M 0,0 C -0.01,-1.71 0.17,-3.85 -0.56,-5.36"
       style="fill:none;stroke:#000000;stroke-width:1.7;stroke-linecap:round;stroke-linejoin:round;stroke-miterlimit:4;stroke-dasharray:none;stroke-opacity:1"
       transform="matrix(1.3333333,0,0,-1.3333333,575.1828,583.09827)"
       clip-path="url(#clipPath201)" />
    <path
       id="path202"
       d="M 0,0 V -5.64"
       style="fill:none;stroke:#000000;stroke-width:1.7;stroke-linecap:round;stroke-linejoin:round;stroke-miterlimit:4;stroke-dasharray:none;stroke-opacity:1"
       transform="matrix(1.3333333,0,0,-1.3333333,568.03627,566.9116)"
       clip-path="url(#clipPath203)" />
    <path
       id="path204"
       d="M 0,0 C -0.34,-1.85 -0.56,-3.77 -0.57,-5.65"
       style="fill:none;stroke:#000000;stroke-width:1.7;stroke-linecap:round;stroke-linejoin:round;stroke-miterlimit:4;stroke-dasharray:none;stroke-opacity:1"
       transform="matrix(1.3333333,0,0,-1.3333333,592.50293,568.0316)"
       clip-path="url(#clipPath205)" />
    <path
       id="path206"
       d="M 0,0 C -0.42,-1.35 -0.86,-2.95 -0.28,-4.24"
       style="fill:none;stroke:#000000;stroke-width:1.7;stroke-linecap:round;stroke-linejoin:round;stroke-miterlimit:4;stroke-dasharray:none;stroke-opacity:1"
       transform="matrix(1.3333333,0,0,-1.3333333,582.71627,551.4716)"
       clip-path="url(#clipPath207)" />
    <path
       id="path208"
       d="M 0,0 C -0.39,-1.41 -0.27,-2.76 -0.28,-4.23"
       style="fill:none;stroke:#000000;stroke-width:1.7;stroke-linecap:round;stroke-linejoin:round;stroke-miterlimit:4;stroke-dasharray:none;stroke-opacity:1"
       transform="matrix(1.3333333,0,0,-1.3333333,604.1696,542.81827)"
       clip-path="url(#clipPath209)" />
    <path
       id="path210"
       d="M 0,0 V -5.08"
       style="fill:none;stroke:#000000;stroke-width:1.7;stroke-linecap:round;stroke-linejoin:round;stroke-miterlimit:4;stroke-dasharray:none;stroke-opacity:1"
       transform="matrix(1.3333333,0,0,-1.3333333,592.1296,526.6316)"
       clip-path="url(#clipPath211)" />
    <path
       id="path212"
       d="M 0,0 C 0.37,-1.57 0.53,-3.19 0.56,-4.8"
       style="fill:none;stroke:#000000;stroke-width:1.7;stroke-linecap:round;stroke-linejoin:round;stroke-miterlimit:4;stroke-dasharray:none;stroke-opacity:1"
       transform="matrix(1.3333333,0,0,-1.3333333,608.31627,508.5516)"
       clip-path="url(#clipPath213)" />
    <path
       id="path214"
       d="M 0,0 C -0.07,-1.61 0.13,-3.2 0.28,-4.8"
       style="fill:none;stroke:#000000;stroke-width:1.7;stroke-linecap:round;stroke-linejoin:round;stroke-miterlimit:4;stroke-dasharray:none;stroke-opacity:1"
       transform="matrix(1.3333333,0,0,-1.3333333,602.66293,488.97813)"
       clip-path="url(#clipPath215)" />
    <path
       id="path216"
       d="M 0,0 C -0.08,-1.73 0.44,-3.38 0.57,-5.08"
       style="fill:none;stroke:#000000;stroke-width:1.7;stroke-linecap:round;stroke-linejoin:round;stroke-miterlimit:4;stroke-dasharray:none;stroke-opacity:1"
       transform="matrix(1.3333333,0,0,-1.3333333,617.34293,473.16493)"
       clip-path="url(#clipPath217)" />
    <path
       id="path218"
       d="M 0,0 C -0.07,-1.41 0.06,-2.84 0.29,-4.24"
       style="fill:none;stroke:#000000;stroke-width:1.7;stroke-linecap:round;stroke-linejoin:round;stroke-miterlimit:4;stroke-dasharray:none;stroke-opacity:1"
       transform="matrix(1.3333333,0,0,-1.3333333,612.4496,458.85827)"
       clip-path="url(#clipPath219)" />
    <path
       id="path220"
       d="M 0,0 V -6.21"
       style="fill:none;stroke:#000000;stroke-width:1.7;stroke-linecap:round;stroke-linejoin:round;stroke-miterlimit:4;stroke-dasharray:none;stroke-opacity:1"
       transform="matrix(1.3333333,0,0,-1.3333333,624.50293,442.6716)"
       clip-path="url(#clipPath221)" />
    <path
       id="path222"
       d="M 0,0 C 0.39,-1.59 1.02,-3.04 1.69,-4.52"
       style="fill:none;stroke:#000000;stroke-width:1.7;stroke-linecap:round;stroke-linejoin:round;stroke-miterlimit:4;stroke-dasharray:none;stroke-opacity:1"
       transform="matrix(1.3333333,0,0,-1.3333333,359.84947,497.25827)"
       clip-path="url(#clipPath223)" />
    <path
       id="path224"
       d="m 0,0 c 4.97,-4.94 15.53,-5.8 21.81,-9.1 10.41,-5.47 21.04,-8.97 31.85,-13.49 13.48,-5.63 27.44,-9.29 41.36,-13.69 20.5,-6.48 39.41,-15.06 59.13,-23.49 16.76,-7.17 32.01,-15.58 47.32,-25.5 14.76,-9.55 26.84,-20.53 39.55,-32.61 14.27,-13.57 22.46,-26.37 29.31,-44.73 4.32,-11.59 8.98,-22.97 12.04,-34.99"
       style="fill:none;stroke:#000000;stroke-width:1.7;stroke-linecap:round;stroke-linejoin:round;stroke-miterlimit:4;stroke-dasharray:none;stroke-opacity:1"
       transform="matrix(1.3333333,0,0,-1.3333333,641.0628,612.08493)"
       clip-path="url(#clipPath225)" />
    <path
       id="path226"
       d="m 0,0 c -7.95,-7.6 -22.96,-6.22 -32.93,-10.32 -0.32,-0.13 -0.64,-0.27 -0.95,-0.41"
       style="fill:none;stroke:#000000;stroke-width:1.7;stroke-linecap:round;stroke-linejoin:round;stroke-miterlimit:4;stroke-dasharray:none;stroke-opacity:1"
       transform="matrix(1.3333333,0,0,-1.3333333,449.0628,654.24493)"
       clip-path="url(#clipPath227)" />
    <path
       id="path228"
       d="m 0,0 c -0.03,-0.01 -0.06,-0.03 -0.09,-0.04 -50.54,-23.25 -111.59,-29.94 -146.7,-77.58 -29.42,-39.92 -30.48,-48.81 -37.61,-97.3 -0.01,-0.06 -0.02,-0.12 -0.03,-0.18"
       style="fill:none;stroke:#000000;stroke-width:1.7;stroke-linecap:round;stroke-linejoin:round;stroke-miterlimit:4;stroke-dasharray:none;stroke-opacity:1"
       transform="matrix(1.3333333,0,0,-1.3333333,405.31627,668.04493)"
       clip-path="url(#clipPath229)" />
    <path
       id="path230"
       d="m 0,0 c 15.37,1.72 30.74,-5.3 47.01,-3.17 15.48,2.03 27.9,9.37 43.7,9.44 21.31,0.09 38.85,-4.88 59.19,-10.73 34.93,-10.04 66.02,-5.39 100.65,0.84 19.81,3.57 39.54,2.29 59.45,-1.1 11.31,-1.93 22.9,-1.87 33.77,-6.02 15.02,-5.74 27.9,-17.14 43.89,-20.53 8.78,-1.86 19.65,-1.78 28.66,-0.97 24.96,2.23 42.19,13.45 64.41,23.51 22.08,9.98 53.17,1.84 76.08,-1.62 31.11,-4.7 61.97,13.25 86.7,29.57"
       style="fill:none;stroke:#000000;stroke-width:1.7;stroke-linecap:round;stroke-linejoin:round;stroke-miterlimit:4;stroke-dasharray:none;stroke-opacity:1"
       transform="matrix(1.3333333,0,0,-1.3333333,159.59627,901.29827)"
       clip-path="url(#clipPath231)" />
  </g>
</svg>
