<svg xmlns="http://www.w3.org/2000/svg" xmlns:xlink="http://www.w3.org/1999/xlink" xmlns:inkscape="http://www.inkscape.org/namespaces/inkscape" version="1.1" width="824.509" height="891.969" viewBox="0 0 824.509 891.969">
<defs>
<clipPath id="clip_0">
<path transform="matrix(1,0,0,-1,0,891.969)" d="M0 891.969H824.509V0H0Z"/>
</clipPath>
<clipPath id="clip_1">
<path transform="matrix(1,0,0,-1,0,891.969)" d="M110.923 158.019H722.043V736.714H110.923Z"/>
</clipPath>
</defs>
<g>
<g inkscape:groupmode="layer" inkscape:label="Layer 1">
</g>
<g inkscape:groupmode="layer" inkscape:label="Layer 2">
<g clip-path="url(#clip_0)">
<g>
<g clip-path="url(#clip_1)">
<path transform="matrix(1,0,0,-1,479.303,228.63367)" d="M0 0C.75-1.09 2.15-3.09 1.46-4.42 1.22-4.87 .25-5.38-.12-5.77-.9-6.59-1.21-7.59-1.91-8.43-2.76-9.46-3.55-10.19-3.88-11.57-4.3-13.34-3.98-15.32-4.03-17.13-4.14-21.52-.99-25.06 .61-29 2.06-32.56 3.24-37.72 .59-41.06-1.33-43.5-3.76-45.71-5.47-48.35-7.33-51.22-5.78-56.28-4.79-59.26-3.76-62.39-1.55-65.7-1.22-68.98-1.02-70.88-1.66-72.44-2.08-74.24-2.57-76.39-2.97-78.15-4.13-80.09-5.72-82.75-7.32-85.55-7.33-88.66-7.33-89.27-7.39-89.88-7.35-90.48-7.25-92.53-6.11-93.68-5.13-95.37-4.24-96.92-3.86-98.82-3.51-100.56-3.13-102.47-3.2-103.45-4.31-105.01-5.43-106.57-6.87-107.86-7.98-109.39-9.94-112.09-10.56-115.37-10.95-118.62-11.16-120.29-11.11-121.93-10.41-123.5-9.92-124.6-8.74-126.26-9.36-127.52-9.7-128.21-11.2-129.1-11.83-129.49-13.1-130.29-14.12-131.14-15.2-132.17-16.97-133.85-16.81-135.37-16.8-137.69-16.79-139-16.66-139.95-17.57-140.96-17.93-141.35-18.58-141.69-18.98-141.97-19.73-142.51-20.3-143.27-21.03-143.81-22.81-145.13-24.85-144.77-26.98-144.77H-27C-26.86-143.65-26.82-142.52-26.8-141.4-26.72-137.58-27.16-133.68-27.41-129.87-27.63-126.57-27.75-123.21-27.13-119.96-26.53-116.82-26.19-113.42-26.25-110.22-26.3-106.76-27.37-103.3-27.88-99.89-28.26-97.29-28.8-94.34-30.08-92-30.91-90.48-32.14-88.55-33.59-87.55-34.7-86.79-35.81-86.86-37.07-86.86-38.26-86.86-39.62-86.88-40.64-87.6-41.7-88.35-42.86-89.46-43.73-90.45-48.35-95.76-49.16-103.28-49.89-109.94V-109.96C-50.94-109.96-52.6-108.7-53.5-108.31-55.09-107.61-56.04-106.52-57.28-105.22-58.65-103.8-58.57-103.41-58.05-101.54-57.42-99.26-56.48-97.23-55.61-95.06-54.78-92.99-53.86-89.51-55.71-87.77-56.88-86.68-58.34-86.19-59.87-85.93-61.42-85.66-63.49-85.98-64.86-85.08-66.65-83.91-68.86-81.45-69.74-79.48-70.93-76.82-69.76-74.38-68.19-72.19-66.54-69.89-66.08-67.33-67.95-64.84-70.1-61.97-73.16-59.17-76.56-57.89-77.98-57.35-79.98-57.19-81.19-56.18-82.24-55.3-81.93-53.93-81.91-52.66-81.88-50.84-81.19-49.15-81.15-47.37-81.1-45.21-82.07-43.2-81.91-41.02-81.84-40.07-81.52-39.17-81.36-38.23-80.5-33.36-86.34-29.15-89.84-26.93-92.62-25.16-96.3-24.31-98.67-22-100.83-19.9-102.25-17.33-103.45-14.62-104.8-11.55-106.36-8.17-108.93-5.91-112.55-2.72-118.19-1.9-122.4-4.37-125.45-6.16-129.46-7.41-131.84-3.9-133.39-1.62-133.1 .86-135.63 2.44-136.72 3.11-137.77 3.46-139.04 3.6-142.71 4.03-146.71 3.19-149.84 5.58-151.85 7.12-153.58 9.4-155.03 11.41-155.8 12.48-156.53 13.95-157.56 14.74-157.96 15.05-158.26 15.21-158.75 15.37-159.9 15.76-164.58 14.5-166.63 13.9-166.55 16.35-166.48 18.81-166.41 21.25-166.05 23.91-164.67 25.36-162.28 25.62-161.32 25.87-160.25 26.07-159.27 26.15-157.69 26.28-156.13 25.71-154.58 25.93-152.91 26.17-151.43 27.62-150.21 28.66-148.86 29.81-148.15 31.41-147.07 32.78-145.19 35.16-142.41 36.3-139.87 37.8-138.54 38.59-137.59 38.99-136.03 39.12-134.44 39.26-133.08 39.22-131.59 39.89-129.85 40.68-128.08 41.55-126.61 42.79-125.82 43.46-124.88 44.36-124.32 45.25-123.59 46.42-123.36 47.84-122.64 49.06-121.23 51.46-119.36 53.6-116.66 54.45-115.56 54.8-114.33 55.25-113.2 55.46-111.58 55.76-109.66 55.26-108.18 56.13-106.04 57.38-106.72 59.7-107.48 61.52-107.49 61.55-107.51 61.59-107.52 61.62-108.99 65.07-104.7 65.44-102.17 65.93-100.12 66.32-98.15 66.61-96.07 66.64-93.86 66.67-92.95 66.63-91.62 64.7-88.51 60.2-84.15 63.2-80.45 65.26-77.45 66.93-73.29 67.56-69.97 66.62-66.99 65.77-63.47 64.61-61.43 62.14-60.59 61.12-59.72 60.42-58.77 59.51-56.99 57.8-56.07 56.44-53.49 56.44-51.28 56.44-49.4 57.38-47.18 57.42-42.02 57.51-39.14 54.24-37.86 49.54-37.24 47.25-36.93 44.94-36.2 42.67-35.37 40.1-32.93 35.89-30.11 34.88-29.3 34.6-28.64 34.53-27.9 34.07-27.04 33.53-26.25 32.89-25.38 32.36-21.68 30.14-16.98 28.54-14.72 24.61-13.96 23.28-12.98 21.79-12.78 20.25-12.67 19.46-12.81 18.64-12.73 17.83-12.31 13.89-10.49 10.1-7.67 7.36-5.16 4.93-1.97 2.91 0 0" fill="#ffffff"/>
<path transform="matrix(1,0,0,-1,477.6631,503.2637)" d="M0 0C9.64-.89 18.96-2.35 28.36-4.62 32.76-5.69 36.73-7.12 41.26-7.63 45.69-8.12 50.05-8.58 54.47-9.22 59.54-9.96 64.6-9.91 69.63-10.88 77.62-12.41 85.44-14.7 93.45-16.12 103.84-17.96 114.41-19.66 124.59-22.52 150.8-29.88 178-40.78 197.64-60.23 205.12-67.64 211.21-75.7 216.53-84.83 221.59-93.52 226.15-102.57 229.07-112.22 232.26-122.79 235.72-133.33 238.43-144.05 239.2-147.1 240.43-151.84 240.55-156.31H240.53C240.53-159.78 240.69-163.27 240.87-166.74 241.18-172.84 244.07-178.74 244.38-184.84 243-185.15 241.05-184.98 239.65-185.1 235.11-185.47 231.58-185.79 227.68-188.23 223.67-190.75 219.62-193.14 215.51-195.47 212.69-197.06 209.61-199.54 206.32-200.01 196.19-201.46 193.69-194.88 182.14-197.69 179.48-198.55 176.47-199.51 173.69-201.17 172.55-201.88 171.41-202.59 170.27-203.29 167.37-205.04 164.34-206.52 161.29-207.96 156.03-210.44 152.21-211.81 146.5-211.53 143.67-211.39 140.74-211.23 137.97-210.61 133.23-209.55 128.73-207.6 123.95-206.68 120.25-205.97 115.97-206.23 112.27-206.67 103.4-207.73 95.32-212.85 87.39-216.59 80.72-219.74 74.01-222.28 66.7-223.54 60.1-224.67 53.39-225.44 46.71-225.88 38.87-226.39 30.96-226.06 23.19-224.99 15.85-223.98 8.42-223.49 1.12-222.34-4.33-221.48-9.6-219.57-15.02-218.78-19.72-218.1-24.48-218.6-29.21-218.57-33.84-218.55-38.21-218.5-42.68-219.89-47.2-221.3-51.64-223.01-56.11-224.56-62.37-226.73-68.67-229.21-75.23-230.27-81.07-231.21-87.47-230.34-93.3-229.8-100.93-229.1-109.02-228.55-116.36-226.23-120.43-224.94-124.25-223.27-128.15-221.57-132.3-219.76-136.53-218.22-140.64-216.35-145.37-214.2-151.75-210.23-165.05-212.18-168.8-212.73-172.52-213.45-176.24-214.19-181.52-215.23-186.51-217.41-191.72-218.76-195.59-219.76-199.37-219.44-203.35-219.29-211.67-218.96-219.58-218.33-227.69-216.4-235.48-214.55-242.41-211.14-249.7-207.95-255.41-205.45-261.03-201.88-267.37-202.01-271.33-202.1-274.96-202.27-278.79-203.32-282.24-204.26-285.6-205.59-289.12-206.23-295.16-207.32-300.23-204.29-305.72-202.33-313.4-199.58-321.01-198.04-329.13-197.31-332.08-197.04-335.19-196.92-338.08-196.22-340.54-195.63-342.8-194.43-345.27-193.91-349.86-192.94-355.52-193.52-360.02-194.53-362.16-195-364.57-196.24-366.74-196.4-365.09-192.79-365.1-188.6-363.92-184.83-361.19-176.2-358.96-167.89-357.17-158.97-358.1-158.65-357.82-157.45-357.52-156.4-356.78-153.84-355.7-151.12-354.71-148.65-351.79-141.27-348.23-134.17-345.01-126.92-342.56-121.39-339.89-115.56-336.63-110.45-334.15-106.56-331.1-103.08-328.52-99.26-323.6-91.96-317.48-84.82-309.76-80.41-306.01-78.27-302.48-76.17-298.45-74.59-294.55-73.07-291.82-70.5-288.36-68.15-285.78-66.4-282.86-65.65-280.06-64.35-277.77-63.29-275.59-62.02-273.33-60.91-269.6-59.07-265.75-57.64-261.72-56.61-256.52-55.27-251.25-53.84-245.98-52.83-239.53-51.58-233.34-49.15-226.87-48.12-221.96-47.34-217.02-46.66-212.16-45.66-210.14-45.24-208.17-44.67-206.17-44.21-201.02-43.03-196.9-41.63-192.14-39.54-190.59-43.89-189.08-48.29-187.23-52.52-186.6-53.97-185.83-55.36-185.25-56.83-184.12-59.65-183.04-62.35-181.45-64.96-178.21-70.29-174.99-75.61-171.03-80.44-169.11-82.79-167.58-85.42-165.66-87.78-163.44-90.5-161.15-93.17-158.73-95.72-153.7-100.99-147.47-105.59-141.21-109.28-134.01-113.51-126.07-117.02-118.16-119.7-111.2-122.06-104.52-124.32-97.21-125.34-90.57-126.28-83.82-126.19-77.12-126.06-68.73-125.9-61.41-123.36-54.59-120.36-50.53-118.31-46.44-116.4-42.96-113.44-41.21-111.96-39.49-110.42-37.81-108.85-35.3-106.5-33.28-103.58-31.42-100.7-29.47-97.68-27.29-94.82-25.25-91.86-23.3-89.02-21.62-86.03-19.67-83.2-17.84-80.53-15.87-77.77-14.45-74.86-12.78-71.44-11.74-67.78-10.4-64.23-7.77-57.3-5.44-50.48-3.63-43.3-1.23-33.74 .62-24.16 .62-14.29 .62-11.21 .58-8 .87-4.94 .95-4.12 1.18-3.42 .89-2.59 .62-1.83-.08-1.33-.44-.64L-.41-.22C-.28-.25-.15-.25-.02-.24Z" fill="#ffffff"/>
<path transform="matrix(1,0,0,-1,447.3631,480.3237)" d="M0 0C-.33-.41-.85-.75-.7-1.33L-1.48-1.53C-2.72 3.24-3.48 8.09-4.58 12.93-5.87 18.65-6.64 24.43-7.49 30.24-8.16 34.88-7.94 39.71-8.22 44.41-8.41 47.6-8.29 50.8-8.53 53.99-8.77 57.19-8.76 60.4-8.93 63.6-9.17 68.24-9.66 72.84-10.19 77.45L-11.35 77.48C-10.4 77.82-9.52 78.42-8.85 79.17-7.46 80.71-6.73 82.43-5.54 84.05-4.34 85.68-3.24 87.35-2.17 89.08-1.09 90.82 .12 92.43 .91 94.35 1.42 95.59 1.89 96.82 2.33 98.06L2.37 98.05C3.9 100.15 5.8 99.88 6.99 100.61 8.35 100.74 9.72 100.86 11.09 100.99 13.33 100.77 14.19 99.82 14.89 97.99 15.43 96.54 15.96 95.08 16.51 93.65 17.61 90.8 21.72 89.19 24.5 90.38 26.01 91.02 27.31 92.07 28.84 92.69 30.63 93.41 32.51 93.77 34.44 93.57 38.86 93.11 43.22 89.11 44.78 85.04 46.05 81.74 46.61 78.26 43.99 75.57 41.86 73.38 40.15 70.66 41.33 67.49 42.79 63.53 44.91 60.15 48.13 57.42 49.4 56.35 52.9 52.72 50.97 50.85 50.38 50.28 48.97 50.05 48.21 49.8 47.12 49.44 46.02 49.07 45 48.53 43.97 47.99 42.5 46.91 41.84 45.93 41.08 44.81 40.68 42.15 40.89 40.77 41.32 37.98 43.7 35.53 45.3 33.36 47.28 30.69 50.63 27.4 49.37 23.78 48.17 20.32 44.26 20.28 41.26 20.59 39.73 20.74 38.53 20.97 37.32 19.81 36.38 18.92 35.99 17.62 35.85 16.36 35.43 12.44 37.55 9.31 37.94 5.54 38.36 1.57 35.13-.83 31.43 .39 29.7 .96 28.37 1.68 26.46 1.74 24.1 1.81 22.76 .4 21.44-1.33 21.02-1.89 20.52-2.42 20.21-3.06 19.76-4 19.65-5.11 19.28-6.08 18.76-7.48 18.06-8.95 16.94-9.98 15.73-11.09 13.8-11.65 12.22-11.11 10.27-10.44 9.32-8.63 8.39-6.95 6.73-3.98 5.13-.38 1.61 .65 .66 .92 .55 .67 0 0" fill="#ffffff"/>
<path transform="matrix(1,0,0,-1,446.0331,344.9137)" d="M0 0C.66-4.93 .31-9.94-.38-14.85-.94-18.83-1.5-22.78-2.86-26.57-3.59-28.61-4.25-30.64-4.86-32.73-5.15-33.71-5.41-35.11-5.94-35.99-6.69-35.24-6.87-34.04-8.2-33.87-10.31-33.6-11.46-34.84-13.25-35.67-13.01-34.85-12.49-34.25-12.11-33.5-11.8-32.9-11.67-32.27-11.43-31.65-10.65-29.7-9.72-27.64-9.55-25.52-9.44-24.09-9.41-22.42-9.72-20.99-10.37-17.97-12.1-15.8-14.02-13.95-13.33-11.33-12.59-8.73-12.11-6.06-11.93-5.11-11.73-4.22-11.39-3.31-10.56-1.11-9.77 1.13-8.97 3.35-8.35 5.08-8.02 7.41-6.58 8.56-5.62 9.33-3.82 9.82-2.81 8.92-1.86 8.08-1.45 6.41-1.03 5.26-.43 3.68-.23 1.69 0 0" fill="#ffffff"/>
<path transform="matrix(1,0,0,-1,364.9431,335.26368)" d="M0 0C.9-.38 1.88-.62 2.8-.94 3.41-1.15 4.02-1.3 4.65-1.48 5.17-1.63 5.93-1.98 6.57-2.08L6.54-2.23C3.47-2.23 .51-2.78-2.4-3.76-3.95-4.27-5.57-4.61-7.1-5.15-8.5-5.65-9.87-6.13-11.29-6.54L-11.31-6.46C-11.05-6.36-10.51-5.55-10.41-5.43-9.91-4.83-9.53-4.2-9.3-3.43-8.95-2.3-8.92-1.02-8.96 .15-8.97 .63-9.08 1.11-9.15 1.58-9.34 2.96-10.1 3.86-11.02 4.88L-10.94 5.17C-9.94 4.88-8.99 4.51-8.13 4.02-6.04 3.09-3.87 2.2-1.88 1.03-1.27 .67-.66 .28 0 0" fill="#ffffff"/>
<path transform="matrix(1,0,0,-1,342.2031,336.9937)" d="M0 0C-.19-.24-.48-.43-.81-.56-.71-.48-.63-.38-.56-.26V-.25C-.15 .06 .15 .49 .2 1 .27 .65 .22 .29 0 0" fill="#ffffff"/>
<path transform="matrix(1,0,0,-1,341.3931,337.5537)" d="M0 0C-.23-.09-.47-.15-.71-.18H-.74C-.61-.15-.48-.1-.36-.05-.14 .04 .07 .16 .25 .3 .18 .18 .1 .08 0 0" fill="#ffffff"/>
<path transform="matrix(1,0,0,-1,341.3931,337.5537)" d="M0 0C-.18-.14-.42-.21-.71-.18-.47-.15-.23-.09 0 0" fill="#ffffff"/>
<path transform="matrix(1,0,0,-1,340.243,337.73359)" d="M0 0C.12-.01 .25-.01 .38 0 .25-.02 .12-.02 0 0" fill="#ffffff"/>
<path transform="matrix(1,0,0,-1,340.5831,337.7237)" d="M0 0C-.22 .04-.43 .17-.6 .36-.34 .28-.04 .29 .29 .39 .75 .53 1.08 .92 1.16 1.37 1.24 1.05 1.2 .73 1.06 .48V.47C.88 .33 .67 .21 .45 .12 .33 .07 .2 .02 .07-.01 .05-.01 .03 0 0 0" fill="#ffffff"/>
<path transform="matrix(1,0,0,-1,341.8831,334.9937)" d="M0 0C-.55 .57-1.28 .92-2.03 .62-1.64 .8-1.21 .86-.83 .76-.22 .61 .42 .1 .52-.54 .54-.7 .55-.85 .52-1 .45-.62 .25-.25 0 0" fill="#ffffff"/>
<path transform="matrix(1,0,0,-1,331.5431,344.48359)" d="M0 0C-.24 0-.45 .08-.68 .16-.97 .26-1.29 .27-1.58 .4-1.92 .56-2.32 .8-2.61 1.03-3.26 1.54-4 1.97-4.46 2.7-4.99 3.56-5.16 4.5-5.5 5.44-5.62 5.76-5.62 6.1-5.73 6.43-5.86 6.81-5.88 7.2-5.92 7.6-6.01 8.61-5.87 9.61-5.89 10.61-5.9 11.04-5.68 11.45-5.57 11.87-5.48 12.17-5.38 12.48-5.27 12.77-5.18 13.01-5.02 13.2-4.88 13.4-4.79 13.54-4.68 13.67-4.57 13.8-4.22 14.25-3.78 14.5-3.29 14.81L-3.3 15.15C-2.3 15.18-1.29 15.28-.27 15.28 2.56 15.28 5.35 15.7 8.16 15.68 11.17 15.66 14.15 15.76 17.13 15.38 18.88 15.15 20.74 14.89 22.46 14.39L22.38 14.1C23.3 13.08 24.06 12.18 24.25 10.8 24.32 10.33 24.43 9.85 24.44 9.37 24.48 8.2 24.45 6.92 24.1 5.79 23.87 5.02 23.49 4.39 22.99 3.79 22.89 3.67 22.35 2.86 22.09 2.76L22.11 2.68C21.72 2.56 21.33 2.46 20.94 2.36 16.89 1.35 12.93 .15 8.72 .06 7.37 .04 5.97-.02 4.64-.18 3.57-.31 2.45-.07 1.37-.08 .91-.08 .46-.07 0-.06ZM7.58 9.63C7.35 9.4 7.18 9.12 7.11 8.82 6.94 8.05 7.62 7.04 8.37 6.81 8.47 6.78 8.58 6.76 8.7 6.75 8.82 6.73 8.95 6.73 9.08 6.75H9.11 9.14C9.43 6.72 9.67 6.79 9.85 6.93 10.18 7.06 10.47 7.25 10.66 7.49 10.88 7.78 10.93 8.14 10.86 8.49 10.89 8.64 10.88 8.79 10.86 8.95 10.76 9.59 10.12 10.1 9.51 10.25 9.13 10.35 8.7 10.29 8.31 10.11 8.04 10.01 7.78 9.84 7.58 9.63" fill="#ffffff"/>
<path transform="matrix(1,0,0,-1,339.9831,337.3637)" d="M0 0C.17-.19 .38-.32 .6-.36 .63-.36 .65-.37 .67-.37H.64C.51-.38 .38-.38 .26-.37 .14-.34 .02-.28-.08-.17-.15-.09-.23 0-.29 .11-.2 .06-.1 .02 0 0" fill="#ffffff"/>
<path transform="matrix(1,0,0,-1,339.9831,337.3637)" d="M0 0C-.47 .51-.67 1.43-.33 1.93 .08 2.54 1.18 2.5 1.58 1.91 1.78 1.62 1.83 1.3 1.76 1.01 1.68 .56 1.35 .17 .89 .03 .56-.07 .26-.08 0 0" fill="#ffffff"/>
<path transform="matrix(1,0,0,-1,339.653,335.43373)" d="M0 0C-.34-.5-.14-1.42 .33-1.93 .23-1.91 .13-1.87 .04-1.82H.03C-.12-1.6-.25-1.33-.33-1.13-.47-.76-.61-.22-.58 .25-.48 .55-.28 .81 .01 .97 .07 1 .14 1.04 .2 1.06 .95 1.36 1.68 1.01 2.23 .44 2.48 .19 2.68-.18 2.75-.56 2.7-1.07 2.4-1.5 1.99-1.81 2.13-1.56 2.17-1.24 2.09-.92 2.16-.63 2.11-.31 1.91-.02 1.51 .57 .41 .61 0 0" fill="#ffffff"/>
<path transform="matrix(1,0,0,-1,339.6631,334.46369)" d="M0 0C-.29-.16-.49-.42-.59-.72-.58-.6-.57-.49-.54-.39-.34-.18-.08-.01 .19 .09 .13 .07 .06 .03 0 0" fill="#ffffff"/>
<path transform="matrix(1,0,0,-1,339.023,336.31373)" d="M0 0C-.1 .36-.09 .77 .05 1.13 .02 .66 .16 .12 .3-.25 .38-.45 .51-.72 .66-.94 .35-.76 .12-.44 0 0" fill="#ffffff"/>
<path transform="matrix(1,0,0,-1,339.0731,335.18373)" d="M0 0C-.14-.36-.15-.77-.05-1.13 .07-1.57 .3-1.89 .61-2.07H.62C.68-2.18 .76-2.27 .83-2.35 .93-2.46 1.05-2.52 1.17-2.55 1.05-2.54 .94-2.52 .84-2.49 .09-2.26-.59-1.25-.42-.48-.35-.18-.18 .1 .05 .33 .02 .23 .01 .12 0 0" fill="#ffffff"/>
<path transform="matrix(1,0,0,-1,326.2931,427.2037)" d="M0 0C.2 .04 .39 .07 .59 .09 .38-.02 .14-.05-.11-.02-.07-.01-.04-.01 0 0" fill="#ffffff"/>
<path transform="matrix(1,0,0,-1,314.653,339.94367)" d="M0 0C-2.1-1.69-4.3-3.91-7.15-3.94-8.5-3.95-9.67-3.24-9.88-1.84-10.06-.56-9.21 .46-8.31 1.23-6.98 2.36-5.07 3.58-3.68 4.7-1.82 6.19 1.02 7.52 3.18 8.5 5.43 9.53 6.5 9.99 8.97 10.3 9.63 10.38 10.28 10.33 10.94 10.43 11.62 10.53 12.25 10.61 12.94 10.6 13.16 10.6 13.37 10.6 13.59 10.61L13.6 10.27C13.11 9.96 12.67 9.71 12.32 9.26 12.21 9.13 12.1 9 12.01 8.86 11.87 8.66 11.71 8.47 11.62 8.23 11.51 7.94 11.41 7.63 11.32 7.33 11.21 6.91 10.99 6.5 11 6.07 11.02 5.07 10.88 4.07 10.97 3.06 11.01 2.66 11.03 2.27 11.16 1.89 11.27 1.56 11.27 1.22 11.39 .9 11.73-.04 11.9-.98 12.43-1.84 12.89-2.57 13.63-3 14.28-3.51 14.57-3.74 14.97-3.98 15.31-4.14 15.6-4.27 15.92-4.28 16.21-4.38 16.44-4.46 16.65-4.54 16.89-4.54V-4.6C15.25-4.53 13.6-4.35 12.01-3.94 9.66-3.35 7.22-2.97 4.95-2.11 3.74-1.66 2.55-1.11 1.34-.62 .89-.44 .44-.23 0 0" fill="#ffffff"/>
<path transform="matrix(1,0,0,-1,307.3531,311.8437)" d="M0 0C.15 .31 .3 .62 .47 .92 .34 .6 .18 .29 0 0" fill="#ffffff"/>
<path transform="matrix(1,0,0,-1,306.1631,426.8637)" d="M0 0C2.6 .13 5.27 .16 7.85 .01 9.99-.12 12.14-.46 14.24-.72 14.37-.74 14.5-.75 14.63-.75 14.58-1.25 14.73-1.84 14.73-2.35 14.72-3 14.71-3.55 14.55-4.17 14.44-4.56 14.42-4.58 13.95-4.54 13.69-4.52 13.42-4.48 13.16-4.46 11.48-4.27 9.86-4.05 8.16-3.98L7.91-3.96C7.82-4.17 7.7-4.36 7.54-4.54 7.22-4.91 6.88-4.99 6.41-5.07 4.35-5.43 2.55-4.72 .57-4.08L.3-4.07V-3.97C.32-3.36 .34-2.72 .28-2.11 .22-1.54 .02-1.04 .02-.47Z" fill="#ffffff"/>
<path transform="matrix(1,0,0,-1,303.713,427.0137)" d="M0 0C.8 .06 1.62 .11 2.45 .15L2.47-.32C2.47-.89 2.67-1.39 2.73-1.96 2.79-2.57 2.77-3.21 2.75-3.82V-3.92C2.73-4.53 2.72-5.31 2.47-5.85 2.19-6.45 1.55-6.46 .96-6.38 .36-6.3-.13-6.43-.71-6.43-2.3-6.45-4.02-6.24-5.58-6.15L-5.85-6.1C-5.69-5.08-5.76-4.07-5.68-3.03-5.64-2.54-5.35-1.82-5.76-1.43L-5.89-.82C-3.93-.39-1.9-.15 0 0" fill="#ffffff"/>
<path transform="matrix(1,0,0,-1,307.8831,443.2537)" d="M0 0C-3.34-1.7-6.85-2.96-10.43-4.08L-10.62-3.51C-10.63-3.49-10.63-3.48-10.63-3.47-10.91-2.57-11.24-1.69-11.6-.82-10.13-.14-8.65 .33-7.27 1.25-6.78 1.58-6.31 1.76-5.76 1.96-5.42 2.08-5.1 2.26-4.76 2.04-4.46 1.85-4.31 1.31-4.18 .88-3.88 1.55-3.48 2.16-2.99 2.69-2.89 2.93-2.71 3.06-2.46 3.08-2.26 3.2-2.05 3.31-1.84 3.43-1.3 3.77-.68 3.96-.12 4.26 .37 4.53 .73 4.88 1.26 5.09 1.67 5.26 2.06 5.37 2.46 5.56 2.57 5.62 2.94 5.84 3.03 5.83 3.37 5.8 3.51 5.27 3.61 4.98 3.68 4.79 3.76 4.6 3.85 4.41L3.94 4.45C4.53 5.19 5.08 6.28 6.09 6.49 6.38 6.56 6.66 6.54 6.95 6.6 7.51 6.7 7.96 6.76 8.54 6.76 9.05 6.76 9.94 6.82 10.09 6.15L10.13 6.11C9.3 5.35 8.26 4.85 7.36 4.17 6.58 3.58 5.68 3.22 4.86 2.69 3.3 1.7 1.65 .84 0 0" fill="#ffffff"/>
<path transform="matrix(1,0,0,-1,297.9531,428.4437)" d="M0 0C.41-.39 .12-1.11 .08-1.6 0-2.64 .07-3.65-.09-4.67-.14-4.99-.21-5.32-.32-5.64-.48-6.12-.61-6.47-1.09-6.68-1.44-6.85-1.9-6.93-2.29-6.94-3.98-7-5.63-6.84-7.31-6.66L-7.92-6.74C-7.97-6.25-8.01-5.75-8.05-5.23-8.09-4.65-8.17-4.1-8.43-3.57-8.54-3.33-8.91-2.83-8.7-2.59L-8.74-2.49C-7.32-1.91-5.91-1.29-4.51-.71-3.14-.14-1.65 .29-.13 .61Z" fill="#ffffff"/>
<path transform="matrix(1,0,0,-1,289.2531,431.0337)" d="M0 0C-.21-.24 .16-.74 .27-.98 .53-1.51 .61-2.06 .65-2.64 .69-3.16 .73-3.66 .78-4.15 .83-4.6 .89-5.04 .97-5.5 1.04-5.86 1.43-6.98 1.2-7.35 1.04-7.6 .67-7.55 .43-7.58-.2-7.65-.84-7.64-1.47-7.72-1.93-7.78-2.39-7.91-2.86-7.95-3.53-8.01-4.2-7.91-4.86-7.87-5.43-7.84-6-7.89-6.56-7.86-8.49-7.73-10.42-7.23-12.3-6.84L-12.51-6.83C-12.2-6.46-12.39-5.54-12.39-5.08-12.39-4.44-12.66-3.83-12.67-3.24-12.02-3.27-11.37-3.26-10.72-3.16-8.46-2.82-6.14-1.97-3.93-1.31-2.63-.92-1.33-.43-.04 .1Z" fill="#ffffff"/>
<path transform="matrix(1,0,0,-1,288.5131,448.8837)" d="M0 0 .05-.29C-.08-.31-.22-.33-.35-.35-2-.64-3.63-.83-5.3-.84-6.54-.84-7.77-.79-9-.74L-8.98-.34C-9.21 .46-8.94 1.79-9.52 2.43L-9.07 2.59C-7.4 2.88-5.73 3.2-4.06 3.5-3.62 3.57-3.21 3.61-2.76 3.61-2.33 3.61-1.94 3.61-1.52 3.7-.81 3.85-.55 3.61-.32 2.91-.11 2.29-.1 1.5-.09 .84-.09 .56 .04 .25 0 0" fill="#ffffff"/>
<path transform="matrix(1,0,0,-1,279.5131,449.6237)" d="M0 0C-.71 .04-1.43 .07-2.15 .09-3.79 .14-5.43 .43-7.05 .69-7.1 .7-7.14 .71-7.19 .71-7.16 1.04-7.26 1.5-7.3 1.83-7.37 2.46-7.51 3.13-7.63 3.75-7.7 4.15-7.8 4.53-8.06 4.83-7.13 4.99-6.2 5-5.28 4.88-5.11 4.71-4.9 4.61-4.66 4.58-4.04 4.39-3.44 4.18-2.82 3.98-2.12 3.75-1.06 3.75-.52 3.17 .06 2.53-.21 1.2 .02 .4Z" fill="#ffffff"/>
<path transform="matrix(1,0,0,-1,266.0731,313.58369)" d="M0 0C.06-.08 .11-.16 .16-.25 .1-.18 .05-.09 0 0" fill="#ffffff"/>
<path transform="matrix(1,0,0,-1,272.3231,448.9137)" d="M0 0C-1.55 .26-3.19 .53-4.68 1-5.82 1.35-7.07 1.55-8.14 2.06-9.27 2.6-10.51 2.97-11.67 3.44-12.24 3.67-12.82 3.89-13.39 4.11L-13.32 4.28C-13.24 5.04-12.96 5.68-12.5 6.22-12.38 6.51-12.16 6.6-11.84 6.47-11.54 6.49-11.25 6.59-10.96 6.61-10.18 6.66-9.39 6.65-8.61 6.68-8.19 6.7-7.83 6.56-7.45 6.36-7.11 6.17-7.22 6.25-7.1 5.95-6.95 5.55-6.99 5.04-7.01 4.58L-6.57 4.56C-5.03 4.52-3.5 4.6-1.97 4.57-1.56 4.56-1.34 4.54-1.04 4.28-.98 4.23-.92 4.18-.87 4.12-.61 3.82-.51 3.44-.44 3.04-.32 2.42-.18 1.75-.11 1.12-.07 .79 .03 .33 0 0" fill="#ffffff"/>
<path transform="matrix(1,0,0,-1,261.8931,432.6037)" d="M0 0C2.32-.26 4.71-.12 7.02-.47 8.16-.65 9.32-.9 10.45-1.08 11.82-1.29 13.25-1.6 14.69-1.67 14.7-2.26 14.97-2.87 14.97-3.51 14.97-3.97 15.16-4.89 14.85-5.26 14.65-5.5 14.11-5.55 13.83-5.62 13.28-5.76 12.75-5.85 12.19-5.94 11.24-6.08 10.43-6.53 9.51-6.75 8.79-6.93 8.02-6.9 7.28-7.03 6.24-7.22 5.26-7.45 4.21-7.56 3.7-7.62 3.18-7.74 2.68-7.66 2.52-7.2 2.35-6.73 2.2-6.21 2.11-5.9 2.03-5.62 1.97-5.32L1.74-5.37C.21-5.28-1.27-5.18-2.78-5.27-3.34-5.31-3.75-5.23-4.24-5.02-4.84-4.75-4.77-4.35-4.82-3.7-4.83-3.63-4.83-3.57-4.83-3.51-4.84-3.16-4.8-2.84-4.76-2.49-4.69-1.93-4.81-1.34-4.65-.79-4.57-.53-4.43-.3-4.36-.02-4.35 .04-4.35 .1-4.35 .16-2.88 .18-1.42 .16 0 0" fill="#ffffff"/>
<path transform="matrix(1,0,0,-1,261.9231,331.8437)" d="M0 0C1.44-.34 2.95-.71 4.22-1.47 4.82-1.83 5.51-2.26 6-2.75 6.71-3.47 7.42-4.19 8.15-4.87 8.92-5.58 9.54-6.45 10.13-7.33L9.77-7.56C9.5-7.74 9.26-8.05 9-8.27 8.62-8.59 8.12-8.82 7.73-9.16 6.67-10.08 5.53-10.83 4.26-11.43 2.88-12.06 1.55-12.75 .17-13.36-.26-13.55-.71-13.71-1.16-13.87L-1.24-13.66C-.87-13.66-.6-12.83-.41-12.58 .18-11.81 .39-10.89 .62-9.96 .88-8.94 .68-7.87 .56-6.84 .24-4.18-1.12-2.09-2.8-.05L-2.81 .25C-1.87 .26-.94 .21 0 0" fill="#ffffff"/>
<path transform="matrix(1,0,0,-1,252.063,339.69367)" d="M0 0C.1 .28 .1 .58-.07 .87-.47 1.54-1.16 1.59-1.76 1.29-2 1.3-2.26 1.24-2.54 1.08-3.19 .7-3.17 .01-2.89-.62-2.59-1.28-2.14-1.55-1.63-1.46-1.36-1.56-1.05-1.57-.71-1.45-.04-1.21 .14-.59 0 0M.1 7.87C1.73 8.04 3.36 7.95 5 8.02 5.69 8.06 6.37 8.09 7.05 8.1L7.06 7.8C8.74 5.76 10.1 3.67 10.42 1.01 10.54-.02 10.74-1.09 10.48-2.11 10.25-3.04 10.04-3.96 9.45-4.73 9.26-4.98 8.99-5.81 8.62-5.81L8.7-6.02C8.17-6.22 7.63-6.42 7.12-6.66 6.33-7.03 5.49-7.19 4.69-7.53 4.36-7.67 4.05-7.85 3.69-7.93 3.09-8.06 2.47-8 1.86-8.15 .7-8.44-.43-8.43-1.61-8.53-3.69-8.69-5.9-8.71-7.98-8.51L-7.96-8.29C-8.42-8.25-8.98-7.99-9.38-7.78-9.91-7.5-10.48-7.01-10.95-6.62-11.85-5.84-12.66-4.71-13.15-3.63-13.69-2.46-13.99-1.23-13.85 .05-13.79 .65-13.87 1.26-13.81 1.85-13.77 2.23-13.77 2.61-13.72 2.98-13.54 4.46-12.31 5.35-11.25 6.29L-11.26 6.38C-10.1 6.58-8.92 6.65-7.75 6.82-6.2 7.05-4.68 7.4-3.12 7.54-2.04 7.63-.97 7.75 .1 7.87" fill="#ffffff"/>
<path transform="matrix(1,0,0,-1,251.6031,339.6137)" d="M0 0C.09-.09 .07-.23 .02-.36 .03-.25 .03-.13 0 0" fill="#ffffff"/>
<path transform="matrix(1,0,0,-1,252.063,339.69367)" d="M0 0C.14-.59-.04-1.21-.71-1.45-1.05-1.57-1.36-1.56-1.63-1.46-1.38-1.42-1.11-1.29-.83-1.08-.5-.83-.14-.43 0 0" fill="#ffffff"/>
<path transform="matrix(1,0,0,-1,250.3031,338.4037)" d="M0 0C.6 .3 1.29 .25 1.69-.42 1.86-.71 1.86-1.01 1.76-1.29 1.61-.6 1.04 .03 .34-.07 .23-.02 .12 .01 0 0" fill="#ffffff"/>
<path transform="matrix(1,0,0,-1,250.4131,340.6137)" d="M0 0C-.76 .12-.72 1.38-.14 1.73 .15 1.91 .41 1.97 .64 1.93 .93 1.69 1.12 1.35 1.19 1.01 1.2 1.01 1.19 1 1.19 1 1.22 .87 1.22 .75 1.21 .64 1.17 .54 1.11 .45 1.05 .39 .8 .13 .37-.06 0 0" fill="#ffffff"/>
<path transform="matrix(1,0,0,-1,250.2731,432.71369)" d="M0 0C-.08-.01-.16-.02-.24-.03-.24 .01-.24 .05-.23 .1-.11 .12-.05 .08 0 0" fill="#ffffff"/>
<path transform="matrix(1,0,0,-1,250.2731,432.71369)" d="M0 0C.96 .13 1.91 .21 2.87 .21 4.32 .21 5.8 .27 7.27 .27 7.27 .21 7.27 .15 7.26 .09 7.19-.19 7.05-.42 6.97-.68 6.81-1.23 6.93-1.82 6.86-2.38 6.82-2.73 6.78-3.05 6.79-3.4L6.51-3.41C4.86-3.67 2.73-4.38 .96-3.97 .33-3.82 .14-3.69-.05-3.04-.08-2.95-.1-2.86-.12-2.77-.21-2.21-.13-1.63-.16-1.08-.18-.73-.26-.38-.24-.03-.16-.02-.08-.01 0 0" fill="#ffffff"/>
<path transform="matrix(1,0,0,-1,250.2731,338.88368)" d="M0 0C-.58-.35-.62-1.61 .14-1.73 .51-1.79 .94-1.6 1.19-1.34 1.25-1.28 1.31-1.19 1.35-1.09 1.4-.96 1.42-.82 1.33-.73 1.33-.73 1.34-.72 1.33-.72 1.26-.38 1.07-.04 .78 .2 1.63 .1 1.95-1.2 1.02-1.73-.3-2.47-1.25-.32-.02 .3 .11 .37 .24 .41 .37 .41 .52 .37 .66 .29 .78 .2 .55 .24 .29 .18 0 0" fill="#ffffff"/>
<path transform="matrix(1,0,0,-1,250.4331,341.1537)" d="M0 0C-1.01 .36-1.43 1.89-.39 2.61-.31 2.67-.22 2.72-.13 2.75-.01 2.76 .1 2.73 .21 2.68 .08 2.68-.05 2.64-.18 2.57-1.41 1.95-.46-.2 .86 .54 1.79 1.07 1.47 2.37 .62 2.47 .5 2.56 .36 2.64 .21 2.68 .91 2.78 1.48 2.15 1.63 1.46 1.49 1.03 1.13 .63 .8 .38 .52 .17 .25 .04 0 0" fill="#ffffff"/>
<path transform="matrix(1,0,0,-1,250.0431,338.54359)" d="M0 0C-1.04-.72-.62-2.25 .39-2.61-.12-2.7-.57-2.43-.87-1.77-1.15-1.14-1.17-.45-.52-.07-.24 .09 .02 .15 .26 .14 .17 .11 .08 .06 0 0" fill="#ffffff"/>
<path transform="matrix(1,0,0,-1,272.3231,448.9137)" d="M0 0C.05 0 .09-.01 .14-.02 1.76-.28 3.4-.57 5.04-.62 5.76-.64 6.48-.67 7.19-.71 8.42-.76 9.65-.81 10.89-.81 12.56-.8 14.19-.61 15.84-.32 15.97-.3 16.11-.28 16.24-.26 17.61-.06 19.02-.03 20.35 .3 21.1 .48 21.86 .58 22.61 .76 23.47 .96 24.28 1.32 25.13 1.58 28.71 2.7 32.22 3.96 35.56 5.66 37.21 6.5 38.86 7.36 40.42 8.35 41.24 8.88 42.14 9.24 42.92 9.83 43.82 10.51 44.86 11.01 45.69 11.77 46.82 12.81 48.1 13.63 49.22 14.68 49.54 14.99 49.86 15.3 50.18 15.62 50.64 16.07 51.21 16.35 51.7 16.76 52.3 17.27 52.83 17.87 53.5 18.29 54.8 19.09 55.89 20.24 57.17 21.09 57.65 21.4 58.12 21.68 58.55 22.04 58.6 22.08 58.66 22.13 58.72 22.18 59.12 22.28 59.57 22.39 59.94 22.54L60.59 22.51C60.45 22.3 60.19 22.16 60 22 59.75 21.78 59.52 21.48 59.3 21.23 58.79 20.67 58.22 20.18 57.64 19.69 56.75 18.94 55.82 18.32 55.07 17.41 54.11 16.22 53.13 14.97 52.07 13.86 51.38 13.14 50.97 12.33 50.42 11.5 49.85 10.63 49.17 9.85 48.57 9 47.52 7.53 46.41 6.12 45.25 4.73 44.08 3.33 42.53 2.14 41.03 1.14 39.84 .34 38.65-.48 37.49-1.31 36.69-1.89 36.02-2.54 35.13-2.96 34.27-3.37 33.5-4.01 32.65-4.45 31.95-4.82 31.17-5.07 30.45-5.4 29.4-5.87 28.23-5.99 27.15-6.37 25.85-6.82 24.54-7.22 23.21-7.56 20.72-8.2 18.24-8.8 15.68-9.04 14.49-9.15 13.3-9.2 12.11-9.23 10.74-9.26 9.43-9.53 8.06-9.5-.04-9.3-8.11-6.62-14.5-1.61-15.31-.98-16.02-.29-16.77 .41-17.31 .91-17.93 1.32-18.48 1.81-19.27 2.52-19.92 3.4-20.72 4.08-21.12 4.43-21.6 4.73-22.03 5.04-23.42 6.06-24.64 7.31-26.05 8.3-27.08 9.02-28.01 9.87-29.03 10.61-30.44 11.64-32.04 12.34-33.64 13.02-33.52 13.05-33.41 13.09-33.29 13.13-32.05 12.93-30.87 12.64-29.87 12.06-29.44 11.82-29.03 11.6-28.58 11.4-27.8 11.06-27.09 10.6-26.3 10.28-25.11 9.79-24 9.16-22.82 8.67-21.9 8.28-21.16 7.83-20.33 7.31-19.15 6.58-17.81 5.96-16.55 5.39-15.52 4.92-14.45 4.52-13.39 4.11-12.82 3.89-12.24 3.67-11.67 3.44-10.51 2.97-9.27 2.6-8.14 2.06-7.07 1.55-5.82 1.35-4.68 1-3.19 .53-1.55 .26 0 0" fill="#ffffff"/>
<path transform="matrix(1,0,0,-1,250.1531,435.4837)" d="M0 0C-1.15-.11-2.3-.26-3.44-.48-3.74-.56-4.04-.57-4.34-.51-4.64-.46-4.92-.37-5.22-.36-5.49-.34-5.66-.41-5.86-.23-5.99-.11-6.29 .79-6.24 1.24-4.17 1.88-2.14 2.43-.12 2.74-.14 2.39-.06 2.04-.04 1.69-.01 1.14-.09 .56 0 0" fill="#ffffff"/>
<path transform="matrix(1,0,0,-1,264.5731,440.2637)" d="M0 0C.5-.08 1.02 .04 1.53 .1 2.58 .21 3.56 .44 4.6 .63 5.34 .76 6.11 .73 6.83 .91 7.75 1.13 8.56 1.58 9.51 1.72 10.07 1.81 10.6 1.9 11.15 2.04 11.43 2.11 11.97 2.16 12.17 2.4L12.38 2.39C14.26 2 16.19 1.5 18.12 1.37 18.68 1.34 19.25 1.39 19.82 1.36 20.48 1.32 21.15 1.22 21.82 1.28 22.29 1.32 22.75 1.45 23.21 1.51 23.84 1.59 24.48 1.58 25.11 1.65 25.35 1.68 25.72 1.63 25.88 1.88 26.11 2.25 25.72 3.37 25.65 3.73 25.57 4.19 25.51 4.63 25.46 5.08L26.07 5.16C27.75 4.98 29.4 4.82 31.09 4.88 31.48 4.89 31.94 4.97 32.29 5.14 32.77 5.35 32.9 5.7 33.06 6.18 33.17 6.5 33.24 6.83 33.29 7.15L33.56 7.1C35.12 7.01 36.84 6.8 38.43 6.82 39.01 6.82 39.5 6.95 40.1 6.87 40.69 6.79 41.33 6.8 41.61 7.4 41.86 7.94 41.87 8.72 41.89 9.33L42.16 9.32C44.14 8.68 45.94 7.97 48 8.33 48.47 8.41 48.81 8.49 49.13 8.86 49.29 9.04 49.41 9.23 49.5 9.44L49.75 9.42C51.45 9.35 53.07 9.13 54.75 8.94 55.01 8.92 55.28 8.88 55.54 8.86 56.01 8.82 56.03 8.84 56.14 9.23 56.3 9.85 56.31 10.4 56.32 11.05 56.32 11.56 56.17 12.15 56.22 12.65 58.04 12.48 59.85 12.72 61.61 13.04 61.86 13.01 62.1 13.04 62.31 13.15 63.44 13.29 64.6 13.27 65.73 13.41 65.92 13.43 66.18 13.48 66.47 13.53 66.41 13.48 66.35 13.43 66.3 13.39 65.87 13.03 65.4 12.75 64.92 12.44 63.64 11.59 62.55 10.44 61.25 9.64 60.58 9.22 60.05 8.62 59.45 8.11 58.96 7.7 58.39 7.42 57.93 6.97 57.61 6.65 57.29 6.34 56.97 6.03 55.85 4.98 54.57 4.16 53.44 3.12L53.4 3.16C53.25 3.83 52.36 3.77 51.85 3.77 51.27 3.77 50.82 3.71 50.26 3.61 49.97 3.55 49.69 3.57 49.4 3.5 48.39 3.29 47.84 2.2 47.25 1.46L47.16 1.42C47.07 1.61 46.99 1.8 46.92 1.99 46.82 2.28 46.68 2.81 46.34 2.84 46.25 2.85 45.88 2.63 45.77 2.57 45.37 2.38 44.98 2.27 44.57 2.1 44.04 1.89 43.68 1.54 43.19 1.27 42.63 .97 42.01 .78 41.47 .44 41.26 .32 41.05 .21 40.85 .09 40.6 .07 40.42-.06 40.32-.3 39.83-.83 39.43-1.44 39.13-2.11 39-1.68 38.85-1.14 38.55-.95 38.21-.73 37.89-.91 37.55-1.03 37-1.23 36.53-1.41 36.04-1.74 34.66-2.66 33.18-3.13 31.71-3.81 32.07-4.68 32.4-5.56 32.68-6.46 32.68-6.47 32.68-6.48 32.69-6.5L32.88-7.07C32.03-7.33 31.22-7.69 30.36-7.89 29.61-8.07 28.85-8.17 28.1-8.35 26.77-8.68 25.36-8.71 23.99-8.91L23.94-8.62C23.98-8.37 23.85-8.06 23.85-7.78 23.84-7.12 23.83-6.33 23.62-5.71 23.39-5.01 23.13-4.77 22.42-4.92 22-5.01 21.61-5.01 21.18-5.01 20.73-5.01 20.32-5.05 19.88-5.12 18.21-5.42 16.54-5.74 14.87-6.03L14.42-6.19C13.88-5.61 12.82-5.61 12.12-5.38 11.5-5.18 10.9-4.97 10.28-4.78 10.04-4.75 9.83-4.65 9.66-4.48 8.74-4.36 7.81-4.37 6.88-4.53 6.83-4.47 6.77-4.42 6.71-4.37 6.41-4.11 6.19-4.09 5.78-4.08 4.25-4.05 2.72-4.13 1.18-4.09L.74-4.07C.76-3.61 .8-3.1 .65-2.7 .53-2.4 .64-2.48 .3-2.29-.08-2.09-.44-1.95-.86-1.97-1.64-2-2.43-1.99-3.21-2.04-3.5-2.06-3.79-2.16-4.09-2.18-4.41-2.05-4.63-2.14-4.75-2.43-5.21-2.97-5.49-3.61-5.57-4.37L-5.64-4.54C-6.7-4.13-7.77-3.73-8.8-3.26-10.06-2.69-11.4-2.07-12.58-1.34-13.41-.82-14.15-.37-15.07 .02-16.25 .51-17.36 1.14-18.55 1.63-19.34 1.95-20.05 2.41-20.83 2.75-21.28 2.95-21.69 3.17-22.12 3.41-23.12 3.99-24.3 4.28-25.54 4.48-23.88 4.99-22.26 5.53-20.66 6.02-20.71 5.57-20.41 4.67-20.28 4.55-20.08 4.37-19.91 4.44-19.64 4.42-19.34 4.41-19.06 4.32-18.76 4.27-18.46 4.21-18.16 4.22-17.86 4.3-16.72 4.52-15.57 4.67-14.42 4.78-14.4 4.69-14.38 4.6-14.35 4.51-14.16 3.86-13.97 3.73-13.34 3.58-11.57 3.17-9.44 3.88-7.79 4.14L-7.51 4.15C-7.51 4.09-7.51 4.03-7.5 3.96-7.45 3.31-7.52 2.91-6.92 2.64-6.43 2.43-6.02 2.35-5.46 2.39-3.95 2.48-2.47 2.38-.94 2.29L-.71 2.34C-.65 2.04-.57 1.76-.48 1.45-.33 .93-.16 .46 0 0" fill="#ffffff"/>
<path transform="matrix(1,0,0,-1,272.9431,426.4737)" d="M0 0 .03 .16C1.63-.08 2.87-.34 4.4-.08 4.92 .01 5.42-.08 5.94-.03 6.44 .01 6.92 .19 7.41 .29 9.12 .64 10.72 1.42 12.27 2.18 13.06 2.56 13.72 3.05 14.53 3.39 15.04 3.6 15.54 3.75 16.05 3.91 16.47 4.04 16.9 4.09 17.33 4.18 17.82 4.29 18.28 4.49 18.76 4.61 19.46 4.78 20.24 4.97 20.96 5.07 21.74 5.17 22.57 5.15 23.36 5.15 24.6 5.15 25.87 5.23 27.11 5.13 28.2 5.05 29.38 4.86 30.42 4.51 31.51 4.13 32.67 3.94 33.77 3.59 35.59 3.01 37.45 2.63 39.27 2.08 41.12 1.52 43.05 1.1 44.95 .75 45.9 .57 46.8 .27 47.77 .14 48.69 .01 49.61-.06 50.52-.19 51.13-.28 51.71-.45 52.31-.58 52.61-.65 52.93-.73 53.24-.75 51.48-1.07 49.67-1.31 47.85-1.14 47.72-1.14 47.59-1.13 47.46-1.11 45.36-.85 43.21-.51 41.07-.38 38.49-.23 35.82-.26 33.22-.39 32.39-.43 31.57-.48 30.77-.54 28.87-.69 26.84-.93 24.88-1.36 23.36-1.68 21.87-2.11 20.5-2.68 19.1-3.26 17.69-3.88 16.27-4.46 14.98-4.99 13.68-5.48 12.38-5.87 10.17-6.53 7.85-7.38 5.59-7.72 4.94-7.82 4.29-7.83 3.64-7.8 2.2-7.73 .77-7.42-.6-7.21-1.73-7.03-2.89-6.78-4.03-6.6-6.34-6.25-8.73-6.39-11.05-6.13-12.47-5.97-13.93-5.95-15.4-5.97-16.87-5.97-18.35-6.03-19.8-6.03-20.76-6.03-21.71-6.11-22.67-6.24-22.72-6.16-22.78-6.12-22.9-6.14-22.91-6.19-22.91-6.23-22.91-6.27-24.93-6.58-26.96-7.13-29.03-7.77-30.63-8.26-32.25-8.8-33.91-9.31-33.94-9.31-33.97-9.31-34.01-9.3-32.91-8.82-31.7-8.31-30.68-7.66-30.07-7.28-29.54-6.79-28.94-6.4-27.8-5.68-26.79-4.78-25.62-4.1-25.06-3.77-24.64-3.38-24.14-3-23.24-2.31-22.16-1.85-21.19-1.27-20.41-.81-19.66-.22-18.82 .14-18.07 .48-17.24 .74-16.46 .98-14.6 1.56-12.75 2.21-10.79 2.2-9.46 2.19-8.11 2.32-6.82 2.01-5.67 1.73-4.53 1.37-3.38 1.08-2.87 .95-2.33 .8-1.83 .61-1.34 .41-.92 .18-.39 .07-.26 .04-.13 .02 0 0" fill="#ffffff"/>
<path transform="matrix(1,0,0,-1,239.0331,435.7837)" d="M0 0C-.12-.04-.23-.08-.35-.11H-.37C-.28-.07-.19-.03-.1 .01-.06 0-.03 0 0 0" fill="#ffffff"/>
<path transform="matrix(1,0,0,-1,238.9331,435.77369)" d="M0 0C-.09-.04-.18-.08-.27-.12-.46-.04-.64 .04-.83 .12-.55 .08-.27 .04 0 0" fill="#ffffff"/>
<path transform="matrix(1,0,0,-1,240.813,333.4037)" d="M0 0C-1.06-.94-2.29-1.83-2.47-3.31-2.52-3.68-2.52-4.06-2.56-4.44-2.62-5.03-2.54-5.64-2.6-6.24-2.74-7.52-2.44-8.75-1.9-9.92-1.41-11-.6-12.13 .3-12.91 .77-13.3 1.34-13.79 1.87-14.07 2.27-14.28 2.83-14.54 3.29-14.58L3.27-14.8C3.17-14.8 3.08-14.79 2.98-14.78-.98-14.38-4.85-13.32-8.45-11.64-10.16-10.84-11.84-9.97-13.56-9.19-14.63-8.7-15.6-8.2-16.8-8.13-18.26-8.05-19.76-7.8-21.38-7.15-19.12-6.54-16.72-6.01-14.58-5.07-13.29-4.5-11.87-4.22-10.69-3.43-9.78-2.81-8.83-2.26-7.78-1.91-6.63-1.52-5.43-1.33-4.27-.98-3.01-.59-1.71-.22-.41 .03-.28 .05-.14 .08-.01 .09Z" fill="#ffffff"/>
<path transform="matrix(1,0,0,-1,238.6831,435.8937)" d="M0 0C-.04-.02-.08-.03-.12-.04-.09-.03-.05-.01-.02 0Z" fill="#ffffff"/>
<path transform="matrix(1,0,0,-1,266.183,343.27369)" d="M0 0C1.27 .6 2.41 1.35 3.47 2.27 3.86 2.61 4.36 2.84 4.74 3.16 5 3.38 5.24 3.69 5.51 3.87L5.87 4.1C5.28 4.98 4.66 5.85 3.89 6.56 3.16 7.24 2.45 7.96 1.74 8.68 1.25 9.17 .56 9.6-.04 9.96-1.31 10.72-2.82 11.09-4.26 11.43-5.2 11.64-6.13 11.69-7.07 11.68-7.75 11.67-8.43 11.64-9.12 11.6-10.76 11.53-12.39 11.62-14.02 11.45-15.09 11.33-16.16 11.21-17.24 11.12-18.8 10.98-20.32 10.63-21.87 10.4-23.04 10.23-24.22 10.16-25.38 9.96-25.51 9.95-25.65 9.92-25.78 9.9-27.08 9.65-28.38 9.28-29.64 8.89-30.8 8.54-32 8.35-33.15 7.96-34.2 7.61-35.15 7.06-36.06 6.44-37.24 5.65-38.66 5.37-39.95 4.8-42.09 3.86-44.49 3.33-46.75 2.72-45.13 2.07-43.63 1.82-42.17 1.74-40.97 1.67-40 1.17-38.93 .68-37.21-.1-35.53-.97-33.82-1.77-30.22-3.45-26.35-4.51-22.39-4.91-22.29-4.92-22.2-4.93-22.1-4.93-20.02-5.13-17.81-5.11-15.73-4.95-14.55-4.85-13.42-4.86-12.26-4.57-11.65-4.42-11.03-4.48-10.43-4.35-10.07-4.27-9.76-4.09-9.43-3.95-8.63-3.61-7.79-3.45-7-3.08-6.49-2.84-5.95-2.64-5.42-2.44-4.97-2.28-4.52-2.12-4.09-1.93-2.71-1.32-1.38-.63 0 0M-.11 29.69C-.06 29.6-.01 29.51 .05 29.44 0 29.53-.05 29.61-.11 29.69M6.79-83.04 6.76-83.2C6.63-83.18 6.5-83.16 6.37-83.13 5.84-83.02 5.42-82.79 4.93-82.59 4.43-82.4 3.89-82.25 3.38-82.12 2.23-81.83 1.09-81.47-.06-81.19-1.35-80.88-2.7-81.01-4.03-81-5.99-80.99-7.84-81.64-9.7-82.22-10.48-82.46-11.31-82.72-12.06-83.06-12.9-83.42-13.65-84.01-14.43-84.47-15.4-85.05-16.48-85.51-17.38-86.2-17.88-86.58-18.3-86.97-18.86-87.3-20.03-87.98-21.04-88.88-22.18-89.6-22.78-89.99-23.31-90.48-23.92-90.86-24.94-91.51-26.15-92.02-27.25-92.5-27.52-92.46-27.8-92.42-28.08-92.38-27.89-92.46-27.71-92.54-27.52-92.62-27.55-92.63-27.59-92.65-27.62-92.66-27.58-92.65-27.54-92.64-27.5-92.62-25.9-93.3-24.3-94-22.89-95.03-21.87-95.77-20.94-96.62-19.91-97.34-18.5-98.33-17.28-99.58-15.89-100.6-15.46-100.91-14.98-101.21-14.58-101.56-13.78-102.24-13.13-103.12-12.34-103.83-11.79-104.32-11.17-104.73-10.63-105.23-9.88-105.93-9.17-106.62-8.36-107.25-1.97-112.26 6.1-114.94 14.2-115.14 15.57-115.17 16.88-114.9 18.25-114.87 19.44-114.84 20.63-114.79 21.82-114.68 24.38-114.44 26.86-113.84 29.35-113.2 30.68-112.86 31.99-112.46 33.29-112.01 34.37-111.63 35.54-111.51 36.59-111.04 37.31-110.71 38.09-110.46 38.79-110.09 39.64-109.65 40.41-109.01 41.27-108.6 42.16-108.18 42.83-107.53 43.63-106.95 44.79-106.12 45.98-105.3 47.17-104.5 48.67-103.5 50.22-102.31 51.39-100.91 52.55-99.52 53.66-98.11 54.71-96.64 55.31-95.79 55.99-95.01 56.56-94.14 57.11-93.31 57.52-92.5 58.21-91.78 59.27-90.67 60.25-89.42 61.21-88.23 61.96-87.32 62.89-86.7 63.78-85.95 64.36-85.46 64.93-84.97 65.44-84.41 65.66-84.16 65.89-83.86 66.14-83.64 66.33-83.48 66.59-83.34 66.73-83.13L66.08-83.1C65.71-83.25 65.26-83.36 64.86-83.46 64.57-83.51 64.31-83.56 64.12-83.58 62.99-83.72 61.83-83.7 60.7-83.84 60.5-83.86 60.31-83.89 60.11-83.93 60.07-83.94 60.04-83.94 60-83.95 59.69-83.93 59.37-83.85 59.07-83.78 58.47-83.65 57.89-83.48 57.28-83.39 56.37-83.26 55.45-83.19 54.53-83.06 53.56-82.93 52.66-82.63 51.71-82.45 49.81-82.1 47.88-81.68 46.03-81.12 44.21-80.57 42.35-80.19 40.53-79.61 39.43-79.26 38.27-79.07 37.18-78.69 36.14-78.34 34.96-78.15 33.87-78.07 32.63-77.97 31.36-78.05 30.12-78.05 29.33-78.05 28.5-78.03 27.72-78.13 27-78.23 26.22-78.42 25.52-78.59 25.04-78.71 24.58-78.91 24.09-79.02 23.66-79.11 23.23-79.16 22.81-79.29 22.3-79.45 21.8-79.6 21.29-79.81 20.48-80.15 19.82-80.64 19.03-81.02 17.48-81.78 15.88-82.56 14.17-82.91 13.68-83.01 13.2-83.19 12.7-83.23 12.18-83.28 11.68-83.19 11.16-83.28 9.63-83.54 8.39-83.28 6.79-83.04M19.33-199.44C19.76-198.67 20.61-198.57 21.4-198.4 22.82-198.11 24.24-197.83 25.56-197.22 28.57-195.84 31.94-195.38 34.72-193.6 36.63-192.37 36.46-189.83 36.13-187.77 35.78-185.56 34.96-183.39 34.52-181.18 33.16-174.35 31.26-167.69 29.54-160.94L29.51-160.36C29.3-160.38 29.08-160.39 28.87-160.4 25.67-160.52 22.48-160.6 19.28-160.6 16.35-160.6 13.22-160.91 10.29-160.58 7.97-160.32 5.52-159.74 3.23-159.23 1.33-158.81-.52-158-2.22-157.06-3.15-156.55-4.09-156.01-4.94-155.38-6.78-153.99-7.58-152.55-9.15-150.36-9.84-150.93-10.13-148.54-10.42-147.82-10.67-147.2-11.03-146.58-11.32-145.97-11.6-145.37-11.78-144.69-12.08-144.11-13.83-140.69-16.36-137.47-19.07-134.76-20.31-133.53-21.71-132.43-23.22-131.54-24.61-130.72-25.69-129.71-26.79-128.56-28.94-126.32-31.11-123.94-32.79-121.31-35.75-116.69-38.58-112.11-40.06-106.79-41.08-103.13-42.68-99.63-43.7-95.95-44.54-92.9-45.68-89.95-46.78-86.99-47.41-85.32-48.03-83.64-48.77-82.01-49.38-80.67-49.7-79.2-50.31-77.85-50.86-76.61-51.17-75.25-51.65-73.99-52.19-72.59-52.82-71.21-53.57-69.91-54.19-68.81-54.74-67.63-55.33-66.52-56.18-64.9-56.54-63.02-57.3-61.36-58.57-58.58-59.33-55.34-59.7-52.29-59.95-50.2-60.63-48.19-60.79-46.1-60.92-44.44-61.09-42.73-61.13-41.06-61.21-38-60.88-34.76-60.47-31.72-60.22-29.88-60.03-27.9-59.61-26.09-58.71-22.26-57.18-18.6-55.98-14.88-55.4-13.09-54.68-11.35-53.95-9.62-51.64-4.14-51.96 1.91-53.16 7.61-53.7 10.16-54.55 12.66-55.23 15.18-55.4 15.77-55.55 16.38-55.69 16.98-56.75 21.61-56.02 26.23-54.96 30.78-54.79 31.06-54.55 31.34-54.31 31.76-53.66 32.9-54 33.03-54.39 34.03-55.18 36.09-52.7 37.66-51.47 39.05-50.63 40-50.54 40.53-50.65 41.73-50.81 43.56-50.92 44.96-51.78 46.59-52.34 47.66-52.66 48.19-52.48 49.41-52.22 51.16-50.51 52.81-49.42 54.14-46.93 57.19-42.02 61.4-43.33 65.95-43.71 67.25-44.38 67.67-44.12 69.1-43.72 71.34-42.55 73.65-41.18 75.44-40.47 76.36-40.28 76.53-39.47 76.85-38.52 77.23-37.9 77.22-37 77.94-35.3 79.29-33.31 81.12-32.35 83.07-30.93 85.96-32.47 88.22-32.63 91.1-32.85 95.06-29.48 97.2-27.11 99.84-25.26 101.88-23 103.52-21.17 105.52-20.41 106.35-20.27 106.44-19.13 106.47-18 106.49-16.91 106.25-15.78 106.23-13.64 106.18-12.46 107.72-11.14 109.3-8.73 112.19-9.08 116.29-7.97 119.68-7.57 120.9-5.93 122.06-4.48 122.06-3.67 122.07-3.09 121.64-2.25 121.62-1.52 121.6-.88 121.69-.17 121.8 .75 121.94 2.19 121.94 2.94 122.56 3.77 123.25 4.18 124.16 5.23 124.72 6.94 125.64 9.09 124.93 10.91 124.64 12.54 124.38 14.21 123.79 15.41 122.57 16.33 121.64 16.84 120.25 17.3 119.06 17.89 117.51 18.78 117.37 20.5 117.62 21.98 117.84 23.26 118.48 24.33 119.48 24.7 119.83 25.18 120.4 25.61 120.67 27.11 121.62 33.02 119.37 33.45 119.25 36.08 119.59 39.34 118.51 41.14 121.33 41.53 121.94 41.85 122.59 42.24 123.2 42.85 124.15 43.44 124.96 43.86 126 44.28 127 44.91 127.66 45.52 128.25 45.59 128.28 45.95 128.39 46.49 128.54 48.54 129.14 53.22 130.4 54.37 130.01 54.86 129.85 55.16 129.69 55.56 129.38 56.59 128.59 57.32 127.12 58.09 126.05 59.54 124.04 61.27 121.76 63.28 120.22 66.41 117.83 70.41 118.67 74.08 118.24 75.35 118.1 76.4 117.75 77.49 117.08 80.02 115.5 79.73 113.02 81.28 110.74 83.66 107.23 87.67 108.48 90.72 110.27 94.93 112.74 100.57 111.92 104.19 108.73 106.76 106.47 108.32 103.09 109.67 100.02 110.87 97.31 112.29 94.74 114.45 92.64 116.82 90.33 120.5 89.48 123.28 87.71 126.78 85.49 132.62 81.28 131.76 76.41 131.6 75.47 131.28 74.57 131.21 73.62 131.05 71.44 132.02 69.43 131.97 67.27 131.93 65.49 131.24 63.8 131.21 61.98 131.19 60.71 130.88 59.34 131.93 58.46 133.14 57.45 135.14 57.29 136.56 56.75 139.96 55.47 143.02 52.67 145.17 49.8 147.04 47.31 146.58 44.75 144.93 42.45 143.36 40.26 142.19 37.82 143.38 35.16 144.26 33.19 146.47 30.73 148.26 29.56 149.63 28.66 151.7 28.98 153.25 28.71 154.78 28.45 156.24 27.96 157.41 26.87 159.26 25.13 158.34 21.65 157.51 19.58 156.64 17.41 155.7 15.38 155.07 13.1 154.55 11.23 154.47 10.84 155.84 9.42 157.08 8.12 158.03 7.03 159.62 6.33 160.52 5.94 162.18 4.68 163.23 4.68V4.7C163.96 11.36 164.77 18.88 169.39 24.19 170.26 25.18 171.42 26.29 172.48 27.04 173.5 27.76 174.86 27.78 176.05 27.78 177.31 27.78 178.42 27.85 179.53 27.09 180.98 26.09 182.21 24.16 183.04 22.64 184.32 20.3 184.86 17.35 185.24 14.75 185.75 11.34 186.82 7.88 186.87 4.42 186.93 1.22 186.59-2.18 185.99-5.32 185.37-8.57 185.49-11.93 185.71-15.23 185.96-19.04 186.4-22.94 186.32-26.76 186.3-27.88 186.26-29.01 186.12-30.13 186.04-30.81 185.92-31.47 185.75-32.13 185.41-33.46 184.91-34.72 184.5-36.03 184.19-37.04 183.86-38.02 183.51-38.99 183.07-40.23 182.6-41.46 182.09-42.7 181.3-44.62 180.09-46.23 179.01-47.97 177.94-49.7 176.84-51.37 175.64-53 174.45-54.62 173.72-56.34 172.33-57.88 171.66-58.63 170.78-59.23 169.83-59.57L170.99-59.6C171.52-64.21 172.01-68.81 172.25-73.45 172.42-76.65 172.41-79.86 172.65-83.06 172.89-86.25 172.77-89.45 172.96-92.64 173.24-97.34 173.02-102.17 173.69-106.81 174.54-112.62 175.31-118.4 176.6-124.12 177.7-128.96 178.46-133.81 179.7-138.58 180.04-139.89 180.41-141.2 180.84-142.5 181.75-145.26 183.44-147.66 184.37-150.38 184.73-151.44 185.23-152.67 185.85-153.56 186.21-154.08 186.75-154.4 187.32-154.69 188.65-155.38 190.11-156.13 191.6-156.42 195.38-157.17 199.02-158.77 202.95-158.81 204.56-158.82 206.07-159.03 207.66-159.33 208.68-159.52 209.99-160.13 211.07-160.21L211.04-160.63C211.4-161.32 212.1-161.82 212.37-162.58 212.66-163.41 212.43-164.11 212.35-164.93 212.06-167.99 212.1-171.2 212.1-174.28 212.1-184.15 210.25-193.73 207.85-203.29 206.04-210.47 203.71-217.29 201.08-224.22 199.74-227.77 198.7-231.43 197.03-234.85 195.61-237.76 193.64-240.52 191.81-243.19 189.86-246.02 188.18-249.01 186.23-251.85 184.19-254.81 182.01-257.67 180.06-260.69 178.2-263.57 176.18-266.49 173.67-268.84 171.99-270.41 170.27-271.95 168.52-273.43 165.04-276.39 160.95-278.3 156.89-280.35 150.07-283.35 142.75-285.89 134.36-286.05 127.66-286.18 120.91-286.27 114.27-285.33 106.96-284.31 100.28-282.05 93.32-279.69 85.41-277.01 77.47-273.5 70.27-269.27 64.01-265.58 57.78-260.98 52.75-255.71 50.33-253.16 48.04-250.49 45.82-247.77 43.9-245.41 42.37-242.78 40.45-240.43 36.49-235.6 33.27-230.28 30.03-224.95 28.44-222.34 27.36-219.64 26.23-216.82 25.65-215.35 24.88-213.96 24.25-212.51 22.4-208.28 20.89-203.88 19.34-199.53 19.33-199.5 19.32-199.48 19.31-199.45ZM41.64 32.35C41.47 32.05 41.32 31.74 41.17 31.43 41.35 31.72 41.51 32.03 41.64 32.35M105.33 5.93C104.69 6.03 103.93 6.38 103.41 6.53 102.78 6.71 102.17 6.86 101.56 7.07 100.64 7.39 99.66 7.63 98.76 8.01 98.1 8.29 97.49 8.68 96.88 9.04 94.89 10.21 92.72 11.1 90.63 12.03 89.77 12.52 88.82 12.89 87.82 13.18 86.1 13.68 84.24 13.94 82.49 14.17 79.51 14.55 76.53 14.45 73.52 14.47 70.71 14.49 67.92 14.07 65.09 14.07 64.07 14.07 63.06 13.97 62.06 13.94 61.84 13.93 61.63 13.93 61.41 13.93 60.72 13.94 60.09 13.86 59.41 13.76 58.75 13.66 58.1 13.71 57.44 13.63 54.97 13.32 53.9 12.86 51.65 11.83 49.49 10.85 46.65 9.52 44.79 8.03 43.4 6.91 41.49 5.69 40.16 4.56 39.26 3.79 38.41 2.77 38.59 1.49 38.8 .09 39.97-.62 41.32-.61 44.17-.58 46.37 1.64 48.47 3.33 48.91 3.1 49.36 2.89 49.81 2.71 51.02 2.22 52.21 1.67 53.42 1.22 55.69 .36 58.13-.02 60.48-.61 62.07-1.02 63.72-1.2 65.36-1.27 65.82-1.28 66.27-1.29 66.73-1.29 67.81-1.28 68.93-1.52 70-1.39 71.33-1.23 72.73-1.17 74.08-1.15 78.29-1.06 82.25 .14 86.3 1.15 86.69 1.25 87.08 1.35 87.47 1.47 88.89 1.88 90.26 2.36 91.66 2.86 93.19 3.4 94.81 3.74 96.36 4.25 99.27 5.23 102.23 5.78 105.3 5.78ZM173.91-37.63C174.44-36.75 174.7-35.35 174.99-34.37 175.6-32.28 176.26-30.25 176.99-28.21 178.35-24.42 178.91-20.47 179.47-16.49 180.16-11.58 180.51-6.57 179.85-1.64 179.62 .05 179.42 2.04 178.82 3.62 178.4 4.77 177.99 6.44 177.04 7.28 176.03 8.18 174.23 7.69 173.27 6.92 171.83 5.77 171.5 3.44 170.88 1.71 170.08-.51 169.29-2.75 168.46-4.95 168.12-5.86 167.92-6.75 167.74-7.7 167.26-10.37 166.52-12.97 165.83-15.59 167.75-17.44 169.48-19.61 170.13-22.63 170.44-24.06 170.41-25.73 170.3-27.16 170.13-29.28 169.2-31.34 168.42-33.29 168.18-33.91 168.05-34.54 167.74-35.14 167.36-35.89 166.84-36.49 166.6-37.31 168.39-36.48 169.54-35.24 171.65-35.51 172.98-35.68 173.16-36.88 173.91-37.63" fill="#ffffff"/>
<path transform="matrix(1,0,0,-1,311.7031,215.02368)" d="M0 0C-.61-.59-1.24-1.25-1.66-2.25-2.08-3.29-2.67-4.1-3.28-5.05-3.67-5.66-3.99-6.31-4.38-6.92-6.18-9.74-9.44-8.66-12.07-9-12.5-8.88-18.41-6.63-19.91-7.58-20.34-7.85-20.82-8.42-21.19-8.77-22.26-9.77-23.54-10.41-25.02-10.63-26.74-10.88-27.63-10.74-28.22-9.19-28.68-8-29.19-6.61-30.11-5.68-31.31-4.46-32.98-3.87-34.61-3.61-36.43-3.32-38.58-2.61-40.29-3.53-41.34-4.09-41.75-5-42.58-5.69-43.33-6.31-44.77-6.31-45.69-6.45-46.4-6.56-47.04-6.65-47.77-6.63-48.61-6.61-49.19-6.18-50-6.19-51.45-6.19-53.09-7.35-53.49-8.57-54.6-11.96-54.25-16.06-56.66-18.95-57.98-20.53-59.16-22.07-61.3-22.02-62.43-22-63.52-21.76-64.65-21.78-65.79-21.81-65.93-21.9-66.69-22.73-68.52-24.73-70.78-26.37-72.63-28.41-75-31.05-78.37-33.19-78.15-37.15-77.99-40.03-76.45-42.29-77.87-45.18-78.83-47.13-80.82-48.96-82.52-50.31-83.42-51.03-84.04-51.02-84.99-51.4-85.8-51.72-85.99-51.89-86.7-52.81-88.07-54.6-89.24-56.91-89.64-59.15-89.9-60.58-89.23-61-88.85-62.3-87.54-66.85-92.45-71.06-94.94-74.11-96.03-75.44-97.74-77.09-98-78.84-98.18-80.06-97.86-80.59-97.3-81.66-96.44-83.29-96.33-84.69-96.17-86.52-96.06-87.72-96.15-88.25-96.99-89.2-98.22-90.59-100.7-92.16-99.91-94.22-99.52-95.22-99.18-95.35-99.83-96.49-100.07-96.91-100.31-97.19-100.48-97.47-101.54-102.02-102.27-106.64-101.21-111.27-101.07-111.87-100.92-112.48-100.75-113.07L-101.08-113.16C-101.5-113.69-103.12-113.11-103.69-112.71-104.66-112.02-105.31-110.57-105.81-109.52-106.61-107.86-105.69-105.81-107.99-105.38-110.36-104.94-111.73-105.74-112.75-103.18-113.44-101.43-113.02-99.49-112.33-97.79-111.41-95.55-111.65-93.78-113.15-91.83-114.15-90.52-115.96-89.94-117.08-88.62-117.92-87.63-118.3-86.66-118.38-85.36-118.5-83.46-118.59-81.12-118.11-79.26-117.41-76.54-115.86-73.45-114.43-71.08-112.73-68.27-109.6-66.55-108.34-63.41-107.01-60.1-109.18-57.42-110.23-54.48-111.01-52.3-110.91-49.03-109.81-46.93-108.59-44.6-106.71-42.79-105.61-40.38-105.12-39.31-104.41-38.54-103.87-37.52-103.22-36.3-102.76-34.95-102.15-33.71-101.64-32.69-100.93-31.98-100.69-30.81-100.45-29.62-100.59-28.38-100.99-27.24-101.52-25.76-102.52-24.53-102.01-22.81-101.67-21.64-100.63-20.15-99.84-19.32-98.24-17.63-95.73-17.2-93.87-15.85-91.14-13.86-88.05-11.38-87.09-8.01-86.33-5.3-87.04-3.21-87.12-.6-87.19 1.54-85.67 4.12-84.12 5.43-83.07 6.31-82.33 7.35-81.4 8.3-80.35 9.37-79.05 9.91-77.69 10.42-75.14 11.38-72.56 12.45-70.67 14.5-69.67 15.58-68.42 18.03-68.69 19.62-68.83 20.4-69.55 21.22-68.94 22.03-68.5 22.61-67.34 22.78-66.74 23.25-65.4 24.3-64.8 24.88-62.9 24.88-61.68 24.87-60.5 25.05-59.28 25.1-56.88 25.21-54.79 24.66-52.66 26.04-51.69 26.67-50.24 27.65-49.49 28.59-49.19 28.97-48.97 29.57-48.83 30.02-48.37 31.45-47.67 32.41-47.08 33.78-46.3 35.62-46.3 36.88-44.19 37.63-43.21 37.97-42.4 38.1-41.39 38.11-40.03 38.14-38.66 38.11-37.29 38.11-36.23 38.11-34.82 37.85-33.81 38.14-32.73 38.46-31.56 39.37-30.56 39.87-29.65 40.33-29.31 40.86-28.61 41.66-26.83 43.69-23.75 45.1-21.14 45.72-19.83 46.03-18.38 46.06-17.03 45.9-15.53 45.72-15 45.18-13.95 44.25-11.32 41.92-8.01 42.91-5.04 44.19-3.11 45.02-1.13 46.49-.02 48.3 1.06 50.07 2.07 51.27 3.89 52.31 5.1 53.01 6.35 53.63 7.6 54.24 9.51 55.18 11.26 55.21 13.32 55.16 16.2 55.1 18.78 54.09 21.61 53.76 23.72 53.51 26.3 53.49 28.41 53.74 30.72 54.02 32.67 56.02 34.57 57.19 36.14 58.16 37.95 59.23 39.79 59.61 44.42 60.56 52.39 57.18 51.74 51.52 54.29 49.94 57.01 48.71 59.9 47.82L60.12 47.91C60.88 46.09 61.56 43.77 59.42 42.52 57.94 41.65 56.02 42.15 54.4 41.85 53.27 41.64 52.04 41.19 50.94 40.84 48.24 39.99 46.37 37.85 44.96 35.45 44.24 34.23 44.01 32.81 43.28 31.64 42.72 30.75 41.78 29.85 40.99 29.18 39.52 27.94 37.75 27.07 36.01 26.28 34.52 25.61 33.16 25.65 31.57 25.51 30.01 25.38 29.06 24.98 27.73 24.19 25.19 22.69 22.41 21.55 20.53 19.17 19.45 17.8 18.74 16.2 17.39 15.05 16.17 14.01 14.69 12.56 13.02 12.32 11.47 12.1 9.91 12.67 8.33 12.54 7.35 12.46 6.28 12.26 5.32 12.01 2.93 11.75 1.55 10.3 1.19 7.64 1.12 5.2 1.05 2.74 .97 .29 .43 .14 .07 .03 0 0" fill="#ffffff"/>
</g>
</g>
<path transform="matrix(1,0,0,-1,277.6931,316.19367)" stroke-width="1.7" stroke-linecap="round" stroke-linejoin="round" fill="none" stroke="#000000" d="M0 0C1.49-1.85 3.25-3.51 3.56-5.92 3.65-6.59 3.64-7.25 3.64-7.92 3.63-9.17 3.65-10.41 3.64-11.65 3.61-13.87 2.88-16.06 2.02-18.09 1.25-19.89-.08-21.25-1.04-22.96-1.77-24.28-2.57-25.57-3.19-26.96-3.55-27.76-3.89-28.55-4.23-29.35-5.26-31.8-6.9-33.86-8.19-36.17-8.97-37.55-10.02-38.77-10.79-40.14-11.3-41.05-11.5-42.03-11.88-42.98-13.12-46.12-15.14-49.14-16.93-51.99-17.79-53.35-18.78-54.64-19.28-56.18-19.63-57.26-20.11-58.2-20.69-59.18-22.21-61.73-23.17-64.53-25.14-66.89-27.09-69.23-30.12-70.53-31.16-73.59-32.14-76.49-33.32-79.24-32.92-82.37-32.6-84.91-30.86-87.74-28.93-89.39-27.94-90.23-26.46-90.73-25.25-91.23-23.96-91.77-22.51-91.7-21.14-91.91-20.36-92.04-19.68-92.3-18.87-92.32-16.43-92.39-14.08-92.55-11.83-92.77-13.06-91.46-13.99-89.96-14.6-88.3-13.75-87.86-13.15-87.14-12.27-86.69-11.31-86.2-10.55-85.82-9.45-85.72-6.97-85.52-4.14-85.37-1.7-86.07 .62-86.74 3.05-87.07 5.35-87.88 5.99-88.11 6.68-88.39 7.27-88.74 7.93-89.12 8.61-89.92 9.32-90.17 11.78-91.04 15.18-90.09 17.28-88.46 18.37-87.62 19.83-85.74 20.19-84.37 20.54-83.05 20.25-81.08 20.02-79.8 19.27-75.66 14.17-74.58 10.69-74.58"/>
<path transform="matrix(1,0,0,-1,302.933,388.27369)" stroke-width="1.7" stroke-linecap="round" stroke-linejoin="round" fill="none" stroke="#000000" d="M0 0C2.79-1.28 5.69-2.18 7.69-4.55 8.38-5.37 9.15-6.2 9.75-7.08 10.44-8.09 10.85-9.25 11.46-10.32 12.56-12.23 13.06-14.27 14.1-16.2 15.67-19.12 19.14-21.16 22.24-22.3 27.51-24.24 33.11-25.32 38.21-27.93 40.31-29.01 42.49-30.5 44.07-32.29 45.17-33.54 46.58-34.85 46.61-36.61"/>
<path transform="matrix(1,0,0,-1,241.5431,404.1937)" stroke-width="1.7" stroke-linecap="round" stroke-linejoin="round" fill="none" stroke="#000000" d="M0 0C-.5-4.64-.92-11.57-4.78-15.19-5.71-16.06-6.32-16.83-7.05-17.9-7.56-18.65-8.2-18.99-8.76-19.68-9.45-20.53-9.79-21.61-10.45-22.48-11.11-23.35-11.83-24.23-12.18-25.25-12.81-27.11-13.16-29.38-13.19-31.38"/>
<path transform="matrix(1,0,0,-1,315.6631,353.0337)" stroke-width="1.7" stroke-linecap="round" stroke-linejoin="round" fill="none" stroke="#000000" d="M0 0C1.57-1.54 4.34-5.04 6.89-5.96 7.63-6.23 8.48-6.26 9.25-6.37 10.46-6.54 11.57-6.83 12.78-6.82 14.23-6.8 15.6-7.04 17.05-7.05"/>
<path transform="matrix(1,0,0,-1,248.813,359.62373)" stroke-width="1.7" stroke-linecap="round" stroke-linejoin="round" fill="none" stroke="#000000" d="M0 0C4.01-.13 8.39-.32 12.02 1.76 12.96 2.3 13.57 3.12 14.45 3.72 15 4.11 15.47 4.92 16.15 5"/>
<path transform="matrix(1,0,0,-1,309.813,337.3637)" stroke-width="1.7" stroke-linecap="round" stroke-linejoin="round" fill="none" stroke="#000000" d="M0 0C1.65-.76 3.21-1.77 4.84-2.58 5.28-2.81 5.73-3.02 6.18-3.2 7.39-3.69 8.58-4.24 9.79-4.69 12.06-5.55 14.5-5.93 16.85-6.52 18.44-6.93 20.09-7.11 21.73-7.18 22.19-7.19 22.64-7.2 23.1-7.2 24.18-7.19 25.3-7.43 26.37-7.3 27.7-7.14 29.1-7.08 30.45-7.06 34.66-6.97 38.62-5.77 42.67-4.76 43.06-4.66 43.45-4.56 43.84-4.44 45.26-4.03 46.63-3.55 48.03-3.05 49.56-2.51 51.18-2.17 52.73-1.66 55.64-.68 58.6-.13 61.67-.13"/>
<path transform="matrix(1,0,0,-1,328.2531,329.6737)" stroke-width="1.7" stroke-linecap="round" stroke-linejoin="round" fill="none" stroke="#000000" d="M0 0C-.49-.31-.93-.56-1.28-1.01-1.39-1.14-1.5-1.27-1.59-1.41-1.73-1.61-1.89-1.8-1.98-2.04-2.09-2.33-2.19-2.64-2.28-2.94-2.39-3.36-2.61-3.77-2.6-4.2-2.58-5.2-2.72-6.2-2.63-7.21-2.59-7.61-2.57-8-2.44-8.38-2.33-8.71-2.33-9.05-2.21-9.37-1.87-10.31-1.7-11.25-1.17-12.11-.71-12.84 .03-13.27 .68-13.78 .97-14.01 1.37-14.25 1.71-14.41 2-14.54 2.32-14.55 2.61-14.65 2.84-14.73 3.05-14.81 3.29-14.81H3.37"/>
<path transform="matrix(1,0,0,-1,353.9231,330.38368)" stroke-width="1.7" stroke-linecap="round" stroke-linejoin="round" fill="none" stroke="#000000" d="M0 0C.92-1.02 1.68-1.92 1.87-3.3 1.94-3.77 2.05-4.25 2.06-4.73 2.1-5.9 2.07-7.18 1.72-8.31 1.49-9.08 1.11-9.71 .61-10.31 .51-10.43-.03-11.24-.29-11.34-.33-11.35-.36-11.36-.38-11.34"/>
<path transform="matrix(1,0,0,-1,339.683,337.25373)" stroke-width="1.7" stroke-linecap="round" stroke-linejoin="round" fill="none" stroke="#000000" d="M0 0C-.15 .22-.28 .49-.36 .69-.5 1.06-.64 1.6-.61 2.07-.6 2.19-.59 2.3-.56 2.4-.45 2.76-.18 3.01 .36 2.97"/>
<path transform="matrix(1,0,0,-1,340.623,337.73359)" stroke-width="1.7" stroke-linecap="round" stroke-linejoin="round" fill="none" stroke="#000000" d="M0 0C-.13-.02-.26-.02-.38 0-.5 .03-.62 .09-.72 .2-.79 .28-.87 .37-.93 .48"/>
<path transform="matrix(1,0,0,-1,341.6431,337.25373)" stroke-width="1.7" stroke-linecap="round" stroke-linejoin="round" fill="none" stroke="#000000" d="M0 0C-.18-.14-.39-.26-.61-.35-.73-.4-.86-.45-.99-.48"/>
<path transform="matrix(1,0,0,-1,340.653,337.73359)" stroke-width="1.7" stroke-linecap="round" stroke-linejoin="round" fill="none" stroke="#000000" d="M0 0H-.03C-.16-.01-.29-.01-.41 0-.53 .01-.64 .03-.74 .06-1.49 .29-2.17 1.3-2 2.07-1.93 2.37-1.76 2.65-1.53 2.88-1.33 3.09-1.07 3.26-.8 3.36-.41 3.54 .02 3.6 .4 3.5 1.01 3.35 1.65 2.84 1.75 2.2 1.77 2.04 1.78 1.89 1.75 1.74 1.7 1.23 1.4 .8 .99 .49"/>
<path transform="matrix(1,0,0,-1,340.653,336.98359)" stroke-width="1.7" stroke-linecap="round" stroke-linejoin="round" fill="none" stroke="#000000" d="M0 0C-.59 .33-.88 .8-.88 1.42-.01 2.1 .81 1.7 1.08 .69 1.09 .67 1.09 .65 1.09 .63 1.17 .31 1.13-.01 .99-.26V-.27C.92-.39 .84-.49 .74-.57 .56-.71 .32-.78 .03-.75H0C-.02-.75-.04-.74-.07-.74-.29-.7-.5-.57-.67-.38-1.14 .13-1.34 1.05-1 1.55-.59 2.16 .51 2.12 .91 1.53 1.11 1.24 1.16 .92 1.09 .63 1.01 .18 .68-.21 .22-.35-.11-.45-.41-.46-.67-.38-.77-.36-.87-.32-.96-.27H-.97C-1.28-.09-1.51 .23-1.63 .67-1.73 1.03-1.72 1.44-1.58 1.8-1.48 2.1-1.28 2.36-.99 2.52-.93 2.55-.86 2.59-.8 2.61-.05 2.91 .68 2.56 1.23 1.99 1.48 1.74 1.68 1.37 1.75 .99 1.82 .64 1.77 .28 1.55-.01 1.36-.25 1.07-.44 .74-.57 .51-.66 .27-.72 .03-.75"/>
<path transform="matrix(1,0,0,-1,271.6931,339.4037)" stroke-width="1.7" stroke-linecap="round" stroke-linejoin="round" fill="none" stroke="#000000" d="M0 0C-.27-.18-.51-.49-.77-.71-1.15-1.03-1.65-1.26-2.04-1.6-3.1-2.52-4.24-3.27-5.51-3.87-6.89-4.5-8.22-5.19-9.6-5.8-10.03-5.99-10.48-6.15-10.93-6.31-11.46-6.51-12-6.71-12.51-6.95-13.3-7.32-14.14-7.48-14.94-7.82-15.27-7.96-15.58-8.14-15.94-8.22-16.54-8.35-17.16-8.29-17.77-8.44-18.93-8.73-20.06-8.72-21.24-8.82-23.32-8.98-25.53-9-27.61-8.8-27.71-8.8-27.8-8.79-27.9-8.78-31.86-8.38-35.73-7.32-39.33-5.64-41.04-4.84-42.72-3.97-44.44-3.19-45.51-2.7-46.48-2.2-47.68-2.13-49.14-2.05-50.64-1.8-52.26-1.15-50-.54-47.6-.01-45.46 .93-44.17 1.5-42.75 1.78-41.57 2.57-40.66 3.19-39.71 3.74-38.66 4.09-37.51 4.48-36.31 4.67-35.15 5.02-33.89 5.41-32.59 5.78-31.29 6.03-31.16 6.05-31.02 6.08-30.89 6.09-29.73 6.29-28.55 6.36-27.38 6.53-25.83 6.76-24.31 7.11-22.75 7.25-21.67 7.34-20.6 7.46-19.53 7.58-17.9 7.75-16.27 7.66-14.63 7.73-13.94 7.77-13.26 7.8-12.58 7.81-11.64 7.82-10.71 7.77-9.77 7.56-8.33 7.22-6.82 6.85-5.55 6.09-4.95 5.73-4.26 5.3-3.77 4.81-3.06 4.09-2.35 3.37-1.62 2.69-.85 1.98-.23 1.11 .36 .23 .65-.21 .94-.64 1.23-1.07 1.77-1.84 2.45-2.64 2.76-3.55"/>
<path transform="matrix(1,0,0,-1,267.6031,343.31373)" stroke-width="1.7" stroke-linecap="round" stroke-linejoin="round" fill="none" stroke="#000000" d="M0 0C.88-.97 1.76-1.93 2.68-2.85 2.98-3.15 3.23-3.43 3.6-3.65 3.99-3.88 4.4-3.89 4.8-4.09"/>
<path transform="matrix(1,0,0,-1,240.813,333.4037)" stroke-width="1.7" stroke-linecap="round" stroke-linejoin="round" fill="none" stroke="#000000" d="M0 0C-1.06-.94-2.29-1.83-2.47-3.31-2.52-3.68-2.52-4.06-2.56-4.44-2.62-5.03-2.54-5.64-2.6-6.24-2.74-7.52-2.44-8.75-1.9-9.92-1.41-11-.6-12.13 .3-12.91 .77-13.3 1.34-13.79 1.87-14.07 2.27-14.28 2.83-14.54 3.29-14.58"/>
<path transform="matrix(1,0,0,-1,259.123,331.89369)" stroke-width="1.7" stroke-linecap="round" stroke-linejoin="round" fill="none" stroke="#000000" d="M0 0C1.68-2.04 3.04-4.13 3.36-6.79 3.48-7.82 3.68-8.89 3.42-9.91 3.19-10.84 2.98-11.76 2.39-12.53 2.2-12.78 1.93-13.61 1.56-13.61 1.55-13.61 1.53-13.6 1.51-13.6"/>
<path transform="matrix(1,0,0,-1,251.6031,339.6137)" stroke-width="1.7" stroke-linecap="round" stroke-linejoin="round" fill="none" stroke="#000000" d="M0 0C.03-.13 .03-.25 .02-.36-.02-.79-.31-1.12-.93-1.08"/>
<path transform="matrix(1,0,0,-1,251.123,339.98359)" stroke-width="1.7" stroke-linecap="round" stroke-linejoin="round" fill="none" stroke="#000000" d="M0 0C.06 .15 .12 .3 .18 .44 .33 .46 .43 .43 .48 .38 .49 .38 .48 .37 .48 .37 .57 .28 .55 .14 .5 .01 .46-.09 .4-.18 .34-.24 .09-.5-.34-.69-.71-.63-1.47-.51-1.43 .75-.85 1.1-.56 1.28-.3 1.34-.07 1.3 .78 1.2 1.1-.1 .17-.63-1.15-1.37-2.1 .78-.87 1.4-.74 1.47-.61 1.51-.48 1.51 .22 1.61 .79 .98 .94 .29 1.08-.3 .9-.92 .23-1.16-.11-1.28-.42-1.27-.69-1.17-1.7-.81-2.12 .72-1.08 1.44-1 1.5-.91 1.55-.82 1.58-.22 1.88 .47 1.83 .87 1.16 1.04 .87 1.04 .57 .94 .29 .8-.14 .44-.54 .11-.79-.17-1-.44-1.13-.69-1.17-1.2-1.26-1.65-.99-1.95-.33-2.23 .3-2.25 .99-1.6 1.37-1.32 1.53-1.06 1.59-.82 1.58-.7 1.59-.59 1.56-.48 1.51-.33 1.47-.19 1.39-.07 1.3 .22 1.06 .41 .72 .48 .38"/>
<path transform="matrix(1,0,0,-1,266.063,313.56373)" stroke-width="1.7" stroke-linecap="round" stroke-linejoin="round" fill="none" stroke="#000000" d="M0 0C-.19 .27-.42 .51-.62 .76-1.26 1.59-1.86 2.33-2.67 3.01-3.95 4.08-5.4 4.94-6.73 5.95-6.05 5.39-5.58 4.33-5.17 3.58-4.55 2.46-4 1.28-3.34 .19-5.11 1.8-6.69 3.55-8.56 5.06-9.54 5.85-10.81 7.28-12.14 7.49-11.02 5.69-9.41 4.2-8.26 2.4-7.95 1.93-7.67 1.45-7.34 .99-7.1 .67-6.7 .29-6.6-.1-7.25 .25-7.81 .89-8.39 1.34-9.5 2.21-10.59 3.09-11.74 3.91-12.96 4.78-14.22 5.55-15.49 6.34-14.2 5.32-13.05 3.98-11.98 2.74-11.55 2.24-11.09 1.74-10.7 1.21-10.49 .92-10.35 .58-10.1 .3-11.21 .63-12.27 1.51-13.22 2.14-14.37 2.9-15.52 3.66-16.67 4.43-18.07 5.37-19.43 6.31-20.92 7.11-21.18 6.8-18.14 4.43-17.93 4.26-16.43 3.02-15.19 1.55-13.96 .08-15.64 .76-17.21 1.97-18.77 2.87-20.13 3.66-21.53 4.35-22.88 5.14-23.63 5.58-24.38 6.02-25.13 6.46-25.45 6.73-25.81 6.9-26.21 6.96-26.1 6.44-25.43 5.99-25.07 5.69-24.16 4.92-23.18 4.26-22.23 3.54-21.36 2.87-20.53 2.17-19.73 1.42-19.42 1.13-18.99 .79-18.78 .42-19.39 .48-20.02 .85-20.56 1.1-22.03 1.77-23.53 2.36-24.99 3.07-26.34 3.72-27.79 4.48-29.27 4.79-29.11 4.3-28.2 3.83-27.8 3.51-27.18 3.01-26.61 2.46-25.97 1.98-25.02 1.27-24.09 .53-23.14-.19-24-.27-25.22 .72-25.93 1.04-27.74 1.87-29.57 2.55-31.44 3.22-32.31 3.53-33.08 4.02-33.92 4.33-32.94 3.54-31.98 2.74-31.03 1.89-30.79 1.68-28-.51-28.15-.83-30.71 .45-33.46 1.36-36.1 2.45-36.55 2.63-36.99 2.8-37.41 3.03-37.69 3.18-38.01 3.41-38.34 3.46-37.22 2.6-36.05 1.81-34.95 .91-34.4 .47-33.45 .02-33.07-.58-33.45-.52-33.8-.33-34.15-.18-35.06 .2-35.96 .58-36.91 .86-37.73 1.11-38.57 1.36-39.41 1.55-39.91 1.66-40.76 1.83-41.26 1.75-41.24 1.46-40.93 1.37-40.71 1.24-40.15 .9-39.6 .56-39.03 .23-38.1-.31-37.31-.96-36.47-1.63-37.14-1.61-37.76-1.36-38.41-1.19-39.83-.8-41.26-.4-42.7-.11-43.37 .03-44.05 0-44.68-.11-44.02-.78-43.14-1.23-42.38-1.8-41.99-2.08-40.73-2.77-40.73-3.3-41.24-3.33-41.89-3.08-42.38-2.95-43.51-2.64-44.63-2.31-45.79-2.1-46.34-2-46.9-1.96-47.45-1.84-47.77-1.77-48.12-1.64-48.44-1.72-48.57-2.27-46.55-3.26-46.23-3.43-45.72-3.71-44.02-4.3-43.93-4.98-44.38-5.09-44.84-4.87-45.27-4.76-45.89-4.59-46.5-4.48-47.11-4.27-48.07-3.94-49.28-3.28-50.31-3.5-50.4-4.11-49.17-4.59-48.79-4.82-48.24-5.15-47.71-5.47-47.21-5.88-46.9-6.12-46.51-6.29-46.25-6.58-46.86-6.7-47.44-6.45-48.02-6.26-48.75-6.03-49.53-5.87-50.28-5.76-51.01-5.65-51.99-5.36-52.72-5.44-52.8-6.05-51.27-6.81-50.9-7.05-50.44-7.33-49.98-7.7-49.51-7.95-49.81-8.34-50.93-7.95-51.35-7.84-51.89-7.7-52.39-7.66-52.94-7.66H-52.63"/>
<path transform="matrix(1,0,0,-1,266.0731,313.58369)" stroke-width="1.7" stroke-linecap="round" stroke-linejoin="round" fill="none" stroke="#000000" d="M0 0C.05-.09 .1-.18 .16-.25 .11-.16 .06-.08 0 0Z"/>
<path transform="matrix(1,0,0,-1,266.0731,313.58369)" stroke-width="1.7" stroke-linecap="round" stroke-linejoin="round" fill="none" stroke="#000000" d="M0 0C0 .01-.01 .01-.01 .02"/>
<path transform="matrix(1,0,0,-1,263.4731,307.5337)" stroke-width="1.7" stroke-linecap="round" stroke-linejoin="round" fill="none" stroke="#000000" d="M0 0C.71-1.91 1.44-3.76 2.37-5.58 2.44-5.72 2.51-5.88 2.59-6.03"/>
<path transform="matrix(1,0,0,-1,307.8231,310.9237)" stroke-width="1.7" stroke-linecap="round" stroke-linejoin="round" fill="none" stroke="#000000" d="M0 0C1.06 1.96 2.42 3.68 3.92 5.35 4.55 6.06 5.43 6.72 5.89 7.54 5.84 7.1 5.48 6.6 5.26 6.12 4.83 5.2 4.57 4.26 4.28 3.3 4.06 2.62 3.66 1.91 3.63 1.19 4.3 2.7 5.51 4.23 6.41 5.62 7.14 6.76 8.12 7.48 8.98 8.46 8.36 5.95 6.62 3.81 6.07 1.31 6.95 2.77 7.88 4.26 8.93 5.61 9.69 6.57 10.42 7.6 11.26 8.49 11.48 8.73 11.7 9.01 12.01 9.07 12.2 7.67 10.94 5.92 10.34 4.71 9.94 3.92 9.58 3.09 9.09 2.35 11.21 3.93 11.95 6.83 14.04 8.39 14.26 7.12 13.14 5.41 12.65 4.34 12.19 3.36 11.78 2.38 11.47 1.35 13.1 2.64 14.06 4.74 15.61 6.16 16.08 6.6 18.47 9.14 19.15 8.87 18.61 7.07 17.55 5.66 16.88 3.95 16.69 3.49 16.29 2.83 16.28 2.36 16.68 2.67 16.95 3.14 17.22 3.55 18.2 5.01 19.12 6.5 20.2 7.9 21.05 8.99 21.92 10.11 23.17 10.76 22.87 9.23 22.11 7.78 21.55 6.34 21.06 5.05 20.22 3.54 20.12 2.14 20.61 2.15 21.04 2.82 21.34 3.14 22.34 4.2 23.17 5.33 24.08 6.48 25.21 7.93 26.33 9.7 28.14 10.37 28.94 9.28 26.69 6.74 26.17 5.91 25.67 5.13 24.6 3.85 24.45 2.9 26.1 3.89 27.25 5.87 28.6 7.19 29.12 7.7 29.7 8.1 30.25 8.57 30.48 7.88 29.13 6.16 28.81 5.62 28.44 5 28.03 4.38 27.82 3.69 29.07 3.54 30.74 5.52 31.58 6.21 32.41 6.88 33.35 7.84 34.43 8.09 33.78 6.9 32.59 5.6 32.28 4.28 33.23 4.39 34.29 5.57 35 6.12 35.8 6.75 36.7 7.79 37.69 8.1 37.44 6.74 35.98 5.13 35.22 3.99 36.3 3.9 37.43 5.17 38.24 5.74 39.03 6.29 39.99 7.1 40.91 7.36 41.02 6.81 39.54 5.4 39.26 5.03 39.01 4.69 38.55 4.25 38.57 3.81 39.19 3.73 39.63 4.17 40.11 4.5 40.94 5.08 41.77 5.72 42.69 6.13 43.21 6.36 43.8 6.41 44.3 6.67 43.99 5.95 43.53 5.29 43.13 4.61 42.92 4.26 42.49 3.76 42.54 3.38 43.72 3.47 44.85 4.58 45.92 5.08 46.85 5.52 47.78 5.98 48.8 6.17 48.08 5.05 46.96 4.28 46.27 3.18 47.64 3.12 48.98 4.03 50.21 4.5 50.77 4.71 51.76 5.5 52.32 5.41 51.68 4.3 50.6 3.45 50.09 2.26 52.27 1.97 54.07 4.88 56.2 4.75 56.54 3.52 53.76 2.53 53.62 1.31 54.4 1.28 55.26 1.87 55.98 2.12 56.51 2.31 57.06 2.44 57.58 2.66 58.42 3.03 59.09 3.43 60.02 3.53 59.24 2.71 58.23 1.94 57.63 .88 59.36 .66 60.91 2.16 62.57 1.94 62.29 1.33 61.42 .86 60.93 .44 60.64 .2 59.8-.28 59.84-.65 61.62-1.01 63.03 .39 64.78 .25 64.63-.29 63.83-.74 63.37-1.03 63.58-1.7 66.8-1.17 67.56-1.46 67.6-2.45 65.63-3 64.94-3.48 65.14-3.43 65.34-3.37 65.54-3.31"/>
<path transform="matrix(1,0,0,-1,307.8231,310.9237)" stroke-width="1.7" stroke-linecap="round" stroke-linejoin="round" fill="none" stroke="#000000" d="M0 0C-.13-.32-.29-.63-.47-.92-.32-.61-.17-.3 0 0Z"/>
<path transform="matrix(1,0,0,-1,308.3931,307.73359)" stroke-width="1.7" stroke-linecap="round" stroke-linejoin="round" fill="none" stroke="#000000" d="M0 0C.47 1.29 1.41 2.23 1.92 3.47 1.47 2.15 .85 .91 .35-.39 .01-1.27-.2-2.28-.57-3.19"/>
<path transform="matrix(1,0,0,-1,211.5431,311.13368)" stroke-width="1.7" stroke-linecap="round" stroke-linejoin="round" fill="none" stroke="#000000" d="M0 0C-.11-.45-.22-.9-.32-1.36-1.38-5.91-2.11-10.53-1.05-15.16-.91-15.76-.76-16.37-.59-16.96 .09-19.48 .94-21.98 1.48-24.53 2.68-30.23 3-36.28 .69-41.76-.04-43.49-.76-45.23-1.34-47.02-2.54-50.74-4.07-54.4-4.97-58.23-5.39-60.04-5.58-62.02-5.83-63.86-6.24-66.9-6.57-70.14-6.49-73.2-6.45-74.87-6.28-76.58-6.15-78.24-5.99-80.33-5.31-82.34-5.06-84.43-4.69-87.48-3.93-90.72-2.66-93.5-1.9-95.16-1.54-97.04-.69-98.66-.1-99.77 .45-100.95 1.07-102.05 1.82-103.35 2.45-104.73 2.99-106.13 3.47-107.39 3.78-108.75 4.33-109.99 4.94-111.34 5.26-112.81 5.87-114.15 6.61-115.78 7.23-117.46 7.86-119.13 8.96-122.09 10.1-125.04 10.94-128.09 11.96-131.77 13.56-135.27 14.58-138.93 16.06-144.25 18.89-148.83 21.85-153.45 23.53-156.08 25.7-158.46 27.85-160.7 28.95-161.85 30.03-162.86 31.42-163.68 32.93-164.57 34.33-165.67 35.57-166.9 38.28-169.61 40.81-172.83 42.56-176.25 42.86-176.83 43.04-177.51 43.32-178.11 43.61-178.72 43.97-179.34 44.22-179.96 44.51-180.68 44.8-183.07 45.49-182.5 47.06-184.69 47.86-186.13 49.7-187.52 50.55-188.15 51.49-188.69 52.42-189.2 54.12-190.14 55.97-190.95 57.87-191.37 60.16-191.88 62.61-192.46 64.93-192.72 67.86-193.05 70.99-192.74 73.92-192.74 77.12-192.74 80.31-192.66 83.51-192.54 83.72-192.53 83.94-192.52 84.15-192.5 87.12-192.34 90.01-191.77 92.96-191.48 95.33-191.24 97.68-191.15 100.05-190.83 102.98-190.43 106.2-190.12 108.78-190.14 110.68-189.39 112.02-188.9 113.85-188.41 114.73-188.17 115.22-187.91 115.97-187.48 117.09-186.84 118.07-186.68 119.27-186.33 121.66-185.62 123.75-184.11 125.95-182.98 127.76-182.05 129.74-181.61 131.6-180.79 136.2-178.78 140.99-176.98 145.46-174.7 149.64-172.58 153.85-170.57 157.98-168.35 158.85-167.88 159.8-167.62 160.68-167.19 162.18-166.45 163.53-165.39 165-164.6 167.33-163.35 169.43-161.92 171.51-160.27 175.11-157.41 178.53-154.15 181.52-150.68 183.19-148.73 185.25-147.18 186.93-145.28 188.38-143.66 189.42-141.52 190.7-139.75 192.87-136.72 194.74-133.53 196.66-130.36 197.36-129.22 198.01-128.14 198.57-126.93 199.31-125.32 200.52-124.35 201.49-122.94 203.33-120.27 204.12-117.18 205.76-114.39 206.53-113.08 207.04-111.68 207.68-110.31 207.89-109.84 208.41-108.29 208.74-108.05"/>
<path transform="matrix(1,0,0,-1,429.4131,338.57368)" stroke-width="1.7" stroke-linecap="round" stroke-linejoin="round" fill="none" stroke="#000000" d="M0 0C.73 6.66 1.54 14.18 6.16 19.49 7.03 20.48 8.19 21.59 9.25 22.34 10.27 23.06 11.63 23.08 12.82 23.08 14.08 23.08 15.19 23.15 16.3 22.39 17.75 21.39 18.98 19.46 19.81 17.94 21.09 15.6 21.63 12.65 22.01 10.05 22.52 6.64 23.59 3.18 23.64-.28 23.7-3.48 23.36-6.88 22.76-10.02 22.14-13.27 22.26-16.63 22.48-19.93 22.73-23.74 23.17-27.64 23.09-31.46 23.07-32.58 23.03-33.71 22.89-34.83 22.81-35.51 22.69-36.17 22.52-36.83 22.18-38.16 21.68-39.42 21.27-40.73 20.96-41.74 20.63-42.72 20.28-43.69 19.84-44.93 19.37-46.16 18.86-47.4 18.07-49.32 16.86-50.93 15.78-52.67 14.71-54.4 13.61-56.07 12.41-57.7 11.22-59.32 10.49-61.04 9.1-62.58 8.43-63.33 7.55-63.93 6.6-64.27 5.23-64.76 3.73-64.73 2.47-63.86 1.09-62.91-.32-62.08-1.11-60.54-1.62-59.55-2.04-58.44-2.24-57.35-2.35-56.76-2.72-55.38-2.24-54.92"/>
<path transform="matrix(1,0,0,-1,440.093,380.9037)" stroke-width="1.7" stroke-linecap="round" stroke-linejoin="round" fill="none" stroke="#000000" d="M0 0C-.02-.04-.05-.08-.07-.12"/>
<path transform="matrix(1,0,0,-1,440.093,380.9037)" stroke-width="1.7" stroke-linecap="round" stroke-linejoin="round" fill="none" stroke="#000000" d="M0 0C-.75 .75-.93 1.95-2.26 2.12-4.37 2.39-5.52 1.15-7.31 .32-7.07 1.14-6.55 1.74-6.17 2.49-5.86 3.09-5.73 3.72-5.49 4.34-4.71 6.29-3.78 8.35-3.61 10.47-3.5 11.9-3.47 13.57-3.78 15-4.43 18.02-6.16 20.19-8.08 22.04-7.39 24.66-6.65 27.26-6.17 29.93-5.99 30.88-5.79 31.77-5.45 32.68-4.62 34.88-3.83 37.12-3.03 39.34-2.41 41.07-2.08 43.4-.64 44.55 .32 45.32 2.12 45.81 3.13 44.91 4.08 44.07 4.49 42.4 4.91 41.25 5.51 39.67 5.71 37.68 5.94 35.99 6.6 31.06 6.25 26.05 5.56 21.14 5 17.16 4.44 13.21 3.08 9.42 2.35 7.38 1.69 5.35 1.08 3.26 .79 2.28 .53 .88 0 0Z"/>
<path transform="matrix(1,0,0,-1,440.2031,381.02369)" stroke-width="1.7" stroke-linecap="round" stroke-linejoin="round" fill="none" stroke="#000000" d="M0 0C-.04 .04-.09 .08-.11 .12"/>
<path transform="matrix(1,0,0,-1,311.6931,215.02368)" stroke-width="1.7" stroke-linecap="round" stroke-linejoin="round" fill="none" stroke="#000000" d="M0 0H.01C-.6-.59-1.23-1.25-1.65-2.25-2.07-3.29-2.66-4.1-3.27-5.05-3.66-5.66-3.98-6.31-4.37-6.92-6.17-9.74-9.43-8.66-12.06-9-12.49-8.88-18.4-6.63-19.9-7.58-20.33-7.85-20.81-8.42-21.18-8.77-22.25-9.77-23.53-10.41-25.01-10.63-26.73-10.88-27.62-10.74-28.21-9.19-28.67-8-29.18-6.61-30.1-5.68-31.3-4.46-32.97-3.87-34.6-3.61-36.42-3.32-38.57-2.61-40.28-3.53-41.33-4.09-41.74-5-42.57-5.69-43.32-6.31-44.76-6.31-45.68-6.45-46.39-6.56-47.03-6.65-47.76-6.63-48.6-6.61-49.18-6.18-49.99-6.19-51.44-6.19-53.08-7.35-53.48-8.57-54.59-11.96-54.24-16.06-56.65-18.95-57.97-20.53-59.15-22.07-61.29-22.02-62.42-22-63.51-21.76-64.64-21.78-65.78-21.81-65.92-21.9-66.68-22.73-68.51-24.73-70.77-26.37-72.62-28.41-74.99-31.05-78.36-33.19-78.14-37.15-77.98-40.03-76.44-42.29-77.86-45.18-78.82-47.13-80.81-48.96-82.51-50.31-83.41-51.03-84.03-51.02-84.98-51.4-85.79-51.72-85.98-51.89-86.69-52.81-88.06-54.6-89.23-56.91-89.63-59.15-89.89-60.58-89.22-61-88.84-62.3-87.53-66.85-92.44-71.06-94.93-74.11-96.02-75.44-97.73-77.09-97.99-78.84-98.17-80.06-97.85-80.59-97.29-81.66-96.43-83.29-96.32-84.69-96.16-86.52-96.05-87.72-96.14-88.25-96.98-89.2-98.21-90.59-100.69-92.16-99.9-94.22-99.51-95.22-99.17-95.35-99.82-96.49-100.06-96.91-100.3-97.19-100.47-97.47-100.74-97.86-100.9-98.23-100.84-98.96"/>
<path transform="matrix(1,0,0,-1,429.8331,338.12373)" stroke-width="1.7" stroke-linecap="round" stroke-linejoin="round" fill="none" stroke="#000000" d="M0 0C-.01-.14-.02-.27-.04-.4-.15-.45-.28-.47-.42-.47-1.47-.47-3.13 .79-4.03 1.18-5.62 1.88-6.57 2.97-7.81 4.27-9.18 5.69-9.1 6.08-8.58 7.95-7.95 10.23-7.01 12.26-6.14 14.43-5.31 16.5-4.39 19.98-6.24 21.72-7.41 22.81-8.87 23.3-10.4 23.56-11.95 23.83-14.02 23.51-15.39 24.41-17.18 25.58-19.39 28.04-20.27 30.01-21.46 32.67-20.29 35.11-18.72 37.3-17.07 39.6-16.61 42.16-18.48 44.65-20.63 47.52-23.69 50.32-27.09 51.6-28.51 52.14-30.51 52.3-31.72 53.31-32.77 54.19-32.46 55.56-32.44 56.83-32.41 58.65-31.72 60.34-31.68 62.12-31.63 64.28-32.6 66.29-32.44 68.47-32.37 69.42-32.05 70.32-31.89 71.26-31.03 76.13-36.87 80.34-40.37 82.56-43.15 84.33-46.83 85.18-49.2 87.49-51.36 89.59-52.78 92.16-53.98 94.87-55.33 97.94-56.89 101.32-59.46 103.58-63.08 106.77-68.72 107.59-72.93 105.12-75.98 103.33-79.99 102.08-82.37 105.59-83.92 107.87-83.63 110.35-86.16 111.93-87.25 112.6-88.3 112.95-89.57 113.09-93.24 113.52-97.24 112.68-100.37 115.07-102.38 116.61-104.11 118.89-105.56 120.9-106.33 121.97-107.06 123.44-108.09 124.23-108.49 124.54-108.79 124.7-109.28 124.86-110.43 125.25-115.11 123.99-117.16 123.39-117.7 123.24-118.06 123.13-118.13 123.1"/>
<path transform="matrix(1,0,0,-1,312.653,215.50373)" stroke-width="1.7" stroke-linecap="round" stroke-linejoin="round" fill="none" stroke="#000000" d="M0 0C.01 .26 .02 .51 .02 .77 .1 3.22 .17 5.68 .24 8.12 .6 10.78 1.98 12.23 4.37 12.49 5.33 12.74 6.4 12.94 7.38 13.02 8.96 13.15 10.52 12.58 12.07 12.8 13.74 13.04 15.22 14.49 16.44 15.53 17.79 16.68 18.5 18.28 19.58 19.65 21.46 22.03 24.24 23.17 26.78 24.67 28.11 25.46 29.06 25.86 30.62 25.99 32.21 26.13 33.57 26.09 35.06 26.76 36.8 27.55 38.57 28.42 40.04 29.66 40.83 30.33 41.77 31.23 42.33 32.12 43.06 33.29 43.29 34.71 44.01 35.93 45.42 38.33 47.29 40.47 49.99 41.32 51.09 41.67 52.32 42.12 53.45 42.33 55.07 42.63 56.99 42.13 58.47 43 60.61 44.25 59.93 46.57 59.17 48.39 59.16 48.42 59.14 48.46 59.13 48.49 57.66 51.94 61.95 52.31 64.48 52.8 66.53 53.19 68.5 53.48 70.58 53.51 72.79 53.54 73.7 53.5 75.03 51.57 78.14 47.07 82.5 50.07 86.2 52.13 89.2 53.8 93.36 54.43 96.68 53.49 99.66 52.64 103.18 51.48 105.22 49.01 106.06 47.99 106.93 47.29 107.88 46.38 109.66 44.67 110.58 43.31 113.16 43.31 115.37 43.31 117.25 44.25 119.47 44.29 124.63 44.38 127.51 41.11 128.79 36.41 129.41 34.12 129.72 31.81 130.45 29.54 131.28 26.97 133.72 22.76 136.54 21.75 137.35 21.47 138.01 21.4 138.75 20.94 139.61 20.4 140.4 19.76 141.27 19.23 144.97 17.01 149.67 15.41 151.93 11.48 152.69 10.15 153.67 8.66 153.87 7.12 153.98 6.33 153.84 5.51 153.92 4.7 154.34 .76 156.16-3.03 158.98-5.77 161.49-8.2 164.68-10.22 166.65-13.13 167.4-14.22 168.8-16.22 168.11-17.55 167.87-18 166.9-18.51 166.53-18.9 165.75-19.72 165.44-20.72 164.74-21.56 163.89-22.59 163.1-23.32 162.77-24.7 162.35-26.47 162.67-28.45 162.62-30.26 162.51-34.65 165.66-38.19 167.26-42.13 168.71-45.69 169.89-50.85 167.24-54.19 165.32-56.63 162.89-58.84 161.18-61.48 159.32-64.35 160.87-69.41 161.86-72.39 162.89-75.52 165.1-78.83 165.43-82.11 165.63-84.01 164.99-85.57 164.57-87.37 164.08-89.52 163.68-91.28 162.52-93.22 160.93-95.88 159.33-98.68 159.32-101.79 159.32-102.4 159.26-103.01 159.3-103.61 159.4-105.66 160.54-106.81 161.52-108.5 162.41-110.05 162.79-111.95 163.14-113.69 163.52-115.6 163.45-116.58 162.34-118.14 161.22-119.7 159.78-120.99 158.67-122.52 156.71-125.22 156.09-128.5 155.7-131.75 155.49-133.42 155.54-135.06 156.24-136.63 156.73-137.73 157.91-139.39 157.29-140.65 156.95-141.34 155.45-142.23 154.82-142.62 153.55-143.42 152.53-144.27 151.45-145.3 149.68-146.98 149.84-148.5 149.85-150.82 149.86-152.13 149.99-153.08 149.08-154.09 148.72-154.48 148.07-154.82 147.67-155.1 146.92-155.64 146.35-156.4 145.62-156.94 143.84-158.26 141.8-157.9 139.67-157.9"/>
<path transform="matrix(1,0,0,-1,371.6031,167.20368)" stroke-width="1.7" stroke-linecap="round" stroke-linejoin="round" fill="none" stroke="#000000" d="M0 0C-2.89 .89-5.61 2.12-8.16 3.7-7.51 9.36-15.48 12.74-20.11 11.79-21.95 11.41-23.76 10.34-25.33 9.37-27.23 8.2-29.18 6.2-31.49 5.92-33.6 5.67-36.18 5.69-38.29 5.94-41.12 6.27-43.7 7.28-46.58 7.34-48.64 7.39-50.39 7.36-52.3 6.42-53.55 5.81-54.8 5.19-56.01 4.49-57.83 3.45-58.84 2.25-59.92 .48-61.03-1.33-63.01-2.8-64.94-3.63-67.91-4.91-71.22-5.9-73.85-3.57-74.9-2.64-75.43-2.1-76.93-1.92-78.28-1.76-79.73-1.79-81.04-2.1-83.65-2.72-86.73-4.13-88.51-6.16-89.21-6.96-89.55-7.49-90.46-7.95-91.46-8.45-92.63-9.36-93.71-9.68-94.72-9.97-96.13-9.71-97.19-9.71-98.56-9.71-99.93-9.68-101.29-9.71-102.3-9.72-103.11-9.85-104.09-10.19-106.2-10.94-106.2-12.2-106.98-14.04-107.57-15.41-108.27-16.37-108.73-17.8-108.87-18.25-109.09-18.85-109.39-19.23-110.14-20.17-111.59-21.15-112.56-21.78-114.69-23.16-116.78-22.61-119.18-22.72-120.4-22.77-121.58-22.95-122.8-22.94-124.7-22.94-125.3-23.52-126.64-24.57-127.24-25.04-128.4-25.21-128.84-25.79-129.45-26.6-128.73-27.42-128.59-28.2-128.32-29.79-129.57-32.24-130.57-33.32-132.46-35.37-135.04-36.44-137.59-37.4-138.95-37.91-140.25-38.45-141.3-39.52-142.23-40.47-142.97-41.51-144.02-42.39-145.57-43.7-147.09-46.28-147.02-48.42-146.94-51.03-146.23-53.12-146.99-55.83-147.95-59.2-151.04-61.68-153.77-63.67-155.63-65.02-158.14-65.45-159.74-67.14-160.53-67.97-161.57-69.46-161.91-70.63-162.42-72.35-161.42-73.58-160.89-75.06-160.49-76.2-160.35-77.44-160.59-78.63-160.83-79.8-161.54-80.51-162.05-81.53-162.66-82.77-163.12-84.12-163.77-85.34-164.31-86.36-165.02-87.13-165.51-88.2-166.61-90.61-168.49-92.42-169.71-94.75-170.81-96.85-170.91-100.12-170.13-102.3-169.08-105.24-166.91-107.92-168.24-111.23-169.5-114.37-172.63-116.09-174.33-118.9-175.76-121.27-177.31-124.36-178.01-127.08-178.49-128.94-178.4-131.28-178.28-133.18-178.2-134.48-177.82-135.45-176.98-136.44-175.86-137.76-174.05-138.34-173.05-139.65-171.55-141.6-171.31-143.37-172.23-145.61-172.92-147.31-173.34-149.25-172.65-151-171.63-153.56-170.26-152.76-167.89-153.2-165.59-153.63-166.51-155.68-165.71-157.34-165.21-158.39-164.56-159.84-163.59-160.53-163.02-160.93-161.4-161.51-160.98-160.98"/>
<path transform="matrix(1,0,0,-1,332.7531,426.08369)" stroke-width="1.7" stroke-linecap="round" stroke-linejoin="round" fill="none" stroke="#000000" d="M0 0C.06 .04 .11 .08 .17 .11 .04-.04-.2-.17-.49-.29-.86-.44-1.31-.55-1.71-.65-2-.7-2.26-.75-2.45-.77-3.58-.91-4.74-.89-5.87-1.03-6.07-1.05-6.26-1.08-6.46-1.12-6.5-1.13-6.53-1.13-6.57-1.14-8.33-1.46-10.14-1.7-11.96-1.53-12.09-1.53-12.22-1.52-12.35-1.5-14.45-1.24-16.6-.9-18.74-.77-21.32-.62-23.99-.65-26.59-.78-27.42-.82-28.24-.87-29.04-.93-30.94-1.08-32.97-1.32-34.93-1.75-36.45-2.07-37.94-2.5-39.31-3.07-40.71-3.65-42.12-4.27-43.54-4.85-44.83-5.38-46.13-5.87-47.43-6.26-49.64-6.92-51.96-7.77-54.22-8.11-54.87-8.21-55.52-8.22-56.17-8.19-57.61-8.12-59.04-7.81-60.41-7.6-61.54-7.42-62.7-7.17-63.84-6.99-66.15-6.64-68.54-6.78-70.86-6.52-72.28-6.36-73.74-6.34-75.21-6.36-76.68-6.36-78.16-6.42-79.61-6.42-80.57-6.42-81.52-6.5-82.48-6.63-82.56-6.64-82.64-6.65-82.72-6.66-84.74-6.97-86.77-7.52-88.84-8.16-90.44-8.65-92.06-9.19-93.72-9.7-93.84-9.74-93.95-9.78-94.07-9.81-94.11-9.83-94.15-9.84-94.19-9.85-94.16-9.84-94.12-9.82-94.09-9.81-94-9.77-93.91-9.73-93.82-9.69-92.72-9.21-91.51-8.7-90.49-8.05-89.88-7.67-89.35-7.18-88.75-6.79-87.61-6.07-86.6-5.17-85.43-4.49-84.87-4.16-84.45-3.77-83.95-3.39-83.05-2.7-81.97-2.24-81-1.66-80.22-1.2-79.47-.61-78.63-.25-77.88 .09-77.05 .35-76.27 .59-74.41 1.17-72.56 1.82-70.6 1.81-69.27 1.8-67.92 1.93-66.63 1.62-65.48 1.34-64.34 .98-63.19 .69-62.68 .56-62.14 .41-61.64 .22-61.15 .02-60.73-.21-60.2-.32-60.07-.35-59.94-.37-59.81-.39-59.52-.45-59.23-.5-58.95-.6"/>
<path transform="matrix(1,0,0,-1,272.9731,426.3137)" stroke-width="1.7" stroke-linecap="round" stroke-linejoin="round" fill="none" stroke="#000000" d="M0 0C1.6-.24 2.84-.5 4.37-.24 4.89-.15 5.39-.24 5.91-.19 6.41-.15 6.89 .03 7.38 .13 9.09 .48 10.69 1.26 12.24 2.02 13.03 2.4 13.69 2.89 14.5 3.23 15.01 3.44 15.51 3.59 16.02 3.75 16.44 3.88 16.87 3.93 17.3 4.02 17.79 4.13 18.25 4.33 18.73 4.45 19.43 4.62 20.21 4.81 20.93 4.91 21.71 5.01 22.54 4.99 23.33 4.99 24.57 4.99 25.84 5.07 27.08 4.97 28.17 4.89 29.35 4.7 30.39 4.35 31.48 3.97 32.64 3.78 33.74 3.43 35.56 2.85 37.42 2.47 39.24 1.92 41.09 1.36 43.02 .94 44.92 .59 45.87 .41 46.77 .11 47.74-.02 48.66-.15 49.58-.22 50.49-.35 51.1-.44 51.68-.61 52.28-.74 52.58-.81 52.9-.89 53.21-.91 53.46-.94 53.7-.91 53.91-.8 53.95-.79 53.99-.76 54.02-.74"/>
<path transform="matrix(1,0,0,-1,331.803,426.3137)" stroke-width="1.7" stroke-linecap="round" stroke-linejoin="round" fill="none" stroke="#000000" d="M0 0C-.24 0-.53-.23-.76-.42-.82-.47-.88-.52-.93-.56-1.36-.92-1.83-1.2-2.31-1.51-3.59-2.36-4.68-3.51-5.98-4.31-6.65-4.73-7.18-5.33-7.78-5.84-8.27-6.25-8.84-6.53-9.3-6.98-9.62-7.3-9.94-7.61-10.26-7.92-11.38-8.97-12.66-9.79-13.79-10.83-14.62-11.59-15.66-12.09-16.56-12.77-17.34-13.36-18.24-13.72-19.06-14.25-20.62-15.24-22.27-16.1-23.92-16.94-27.26-18.64-30.77-19.9-34.35-21.02-35.2-21.28-36.01-21.64-36.87-21.84-37.62-22.02-38.38-22.12-39.13-22.3-40.46-22.63-41.87-22.66-43.24-22.86-43.37-22.88-43.51-22.9-43.64-22.92-45.29-23.21-46.92-23.4-48.59-23.41-49.83-23.41-51.06-23.36-52.29-23.31-53-23.27-53.72-23.24-54.44-23.22-56.08-23.17-57.72-22.88-59.34-22.62-59.39-22.61-59.43-22.6-59.48-22.6-61.03-22.34-62.67-22.07-64.16-21.6-65.3-21.25-66.55-21.05-67.62-20.54-68.75-20-69.99-19.63-71.15-19.16-71.72-18.93-72.3-18.71-72.87-18.49-73.93-18.08-75-17.68-76.03-17.21-77.29-16.64-78.63-16.02-79.81-15.29-80.64-14.77-81.38-14.32-82.3-13.93-83.48-13.44-84.59-12.81-85.78-12.32-86.57-12-87.28-11.54-88.06-11.2-88.51-11-88.92-10.78-89.35-10.54-90.35-9.96-91.53-9.67-92.77-9.47-92.8-9.47-92.83-9.47-92.87-9.46-93.14-9.42-93.42-9.38-93.7-9.34-93.51-9.42-93.33-9.5-93.14-9.58H-93.12C-91.52-10.26-89.92-10.96-88.51-11.99-87.49-12.73-86.56-13.58-85.53-14.3-84.12-15.29-82.9-16.54-81.51-17.56-81.08-17.87-80.6-18.17-80.2-18.52-79.4-19.2-78.75-20.08-77.96-20.79-77.41-21.28-76.79-21.69-76.25-22.19-75.5-22.89-74.79-23.58-73.98-24.21-67.59-29.22-59.52-31.9-51.42-32.1-50.05-32.13-48.74-31.86-47.37-31.83-46.18-31.8-44.99-31.75-43.8-31.64-41.24-31.4-38.76-30.8-36.27-30.16-34.94-29.82-33.63-29.42-32.33-28.97-31.25-28.59-30.08-28.47-29.03-28-28.31-27.67-27.53-27.42-26.83-27.05-25.98-26.61-25.21-25.97-24.35-25.56-23.46-25.14-22.79-24.49-21.99-23.91-20.83-23.08-19.64-22.26-18.45-21.46-16.95-20.46-15.4-19.27-14.23-17.87-13.07-16.48-11.96-15.07-10.91-13.6-10.31-12.75-9.63-11.97-9.06-11.1-8.51-10.27-8.1-9.46-7.41-8.74-6.35-7.63-5.37-6.38-4.41-5.19-3.66-4.28-2.73-3.66-1.84-2.91-1.26-2.42-.69-1.93-.18-1.37 .04-1.12 .27-.82 .52-.6 .71-.44 .97-.3 1.11-.09"/>
<path transform="matrix(1,0,0,-1,263.813,433.5337)" stroke-width="1.7" stroke-linecap="round" stroke-linejoin="round" fill="none" stroke="#000000" d="M0 0C-.09-1.52-.24-2.64-.02-4.01 0-4.14 .02-4.27 .05-4.39 .11-4.69 .19-4.97 .28-5.28 .43-5.8 .6-6.27 .76-6.73 1.26-6.81 1.78-6.69 2.29-6.63 3.34-6.52 4.32-6.29 5.36-6.1 6.1-5.97 6.87-6 7.59-5.82 8.51-5.6 9.32-5.15 10.27-5.01 10.83-4.92 11.36-4.83 11.91-4.69 12.19-4.62 12.73-4.57 12.93-4.33 13.24-3.96 13.05-3.04 13.05-2.58 13.05-1.94 12.78-1.33 12.77-.74"/>
<path transform="matrix(1,0,0,-1,276.9531,437.8737)" stroke-width="1.7" stroke-linecap="round" stroke-linejoin="round" fill="none" stroke="#000000" d="M0 0C1.88-.39 3.81-.89 5.74-1.02 6.3-1.05 6.87-1 7.44-1.03 8.1-1.07 8.77-1.17 9.44-1.11 9.91-1.07 10.37-.94 10.83-.88 11.46-.8 12.1-.81 12.73-.74 12.97-.71 13.34-.76 13.5-.51 13.73-.14 13.34 .98 13.27 1.34 13.19 1.8 13.13 2.24 13.08 2.69 13.03 3.18 12.99 3.68 12.95 4.2 12.91 4.78 12.83 5.33 12.57 5.86 12.46 6.1 12.09 6.6 12.3 6.84"/>
<path transform="matrix(1,0,0,-1,290.6431,435.1037)" stroke-width="1.7" stroke-linecap="round" stroke-linejoin="round" fill="none" stroke="#000000" d="M0 0C1.68-.18 3.33-.34 5.02-.28 5.41-.27 5.87-.19 6.22-.02 6.7 .19 6.83 .54 6.99 1.02 7.1 1.34 7.17 1.67 7.22 1.99 7.38 3.01 7.31 4.02 7.39 5.06 7.43 5.55 7.72 6.27 7.31 6.66"/>
<path transform="matrix(1,0,0,-1,298.1331,433.1637)" stroke-width="1.7" stroke-linecap="round" stroke-linejoin="round" fill="none" stroke="#000000" d="M0 0C1.56-.09 3.28-.3 4.87-.28 5.45-.28 5.94-.15 6.54-.23 7.13-.31 7.77-.3 8.05 .3 8.3 .84 8.31 1.62 8.33 2.23V2.33C8.35 2.94 8.37 3.58 8.31 4.19 8.25 4.76 8.05 5.26 8.05 5.83"/>
<path transform="matrix(1,0,0,-1,306.7331,430.9437)" stroke-width="1.7" stroke-linecap="round" stroke-linejoin="round" fill="none" stroke="#000000" d="M0 0C1.98-.64 3.78-1.35 5.84-.99 6.31-.91 6.65-.83 6.97-.46 7.13-.28 7.25-.09 7.34 .12 7.79 1.14 7.49 2.43 7.69 3.51 7.77 3.52 7.82 3.5 7.87 3.43"/>
<path transform="matrix(1,0,0,-1,314.3231,430.8437)" stroke-width="1.7" stroke-linecap="round" stroke-linejoin="round" fill="none" stroke="#000000" d="M0 0C1.7-.07 3.32-.29 5-.48 5.26-.5 5.53-.54 5.79-.56 6.26-.6 6.28-.58 6.39-.19 6.55 .43 6.56 .98 6.57 1.63 6.57 2.14 6.42 2.73 6.47 3.23"/>
<path transform="matrix(1,0,0,-1,263.6331,437.9737)" stroke-width="1.7" stroke-linecap="round" stroke-linejoin="round" fill="none" stroke="#000000" d="M0 0C-1.53 .09-3.01 .19-4.52 .1-5.08 .06-5.49 .14-5.98 .35-6.58 .62-6.51 1.02-6.56 1.67-6.57 1.74-6.57 1.8-6.57 1.86-6.58 2.21-6.54 2.53-6.5 2.88-6.43 3.44-6.55 4.03-6.39 4.58-6.31 4.84-6.17 5.07-6.1 5.35-6.09 5.41-6.09 5.47-6.09 5.53-6.08 5.66-6.07 5.77-5.92 5.83"/>
<path transform="matrix(1,0,0,-1,256.7831,436.1237)" stroke-width="1.7" stroke-linecap="round" stroke-linejoin="round" fill="none" stroke="#000000" d="M0 0C-1.65-.26-3.78-.97-5.55-.56-6.18-.41-6.37-.28-6.56 .37-6.59 .46-6.61 .55-6.63 .64-6.72 1.2-6.64 1.78-6.67 2.33-6.69 2.68-6.77 3.03-6.75 3.38-6.75 3.42-6.75 3.46-6.74 3.51-6.62 3.53-6.56 3.49-6.51 3.41-6.5 3.39-6.48 3.36-6.47 3.33"/>
<path transform="matrix(1,0,0,-1,250.2131,435.4737)" stroke-width="1.7" stroke-linecap="round" stroke-linejoin="round" fill="none" stroke="#000000" d="M0 0C-.02 0-.04 0-.06-.01-1.21-.12-2.36-.27-3.5-.49-3.8-.57-4.1-.58-4.4-.52-4.7-.47-4.98-.38-5.28-.37-5.55-.35-5.72-.42-5.92-.24-6.05-.12-6.35 .78-6.3 1.23-6.3 1.36-6.26 1.45-6.19 1.48"/>
<path transform="matrix(1,0,0,-1,265.4831,446.6337)" stroke-width="1.7" stroke-linecap="round" stroke-linejoin="round" fill="none" stroke="#000000" d="M0 0V.01 .06"/>
<path transform="matrix(1,0,0,-1,259.0031,444.6337)" stroke-width="1.7" stroke-linecap="round" stroke-linejoin="round" fill="none" stroke="#000000" d="M0 0C.08 .76 .36 1.4 .82 1.94 .94 2.23 1.16 2.32 1.48 2.19 1.78 2.21 2.07 2.31 2.36 2.33 3.14 2.38 3.93 2.37 4.71 2.4 5.13 2.42 5.49 2.28 5.87 2.08 6.21 1.89 6.1 1.97 6.22 1.67 6.37 1.27 6.33 .76 6.31 .3 6.29 .15 6.29 0 6.29-.13 6.29-.55 6.38-.94 6.43-1.35 6.45-1.5 6.47-1.64 6.48-1.79V-1.94"/>
<path transform="matrix(1,0,0,-1,272.3231,448.9237)" stroke-width="1.7" stroke-linecap="round" stroke-linejoin="round" fill="none" stroke="#000000" d="M0 0V.01C-.04 .07-.04 .14 0 .22"/>
<path transform="matrix(1,0,0,-1,265.7531,444.3537)" stroke-width="1.7" stroke-linecap="round" stroke-linejoin="round" fill="none" stroke="#000000" d="M0 0C1.54-.04 3.07 .04 4.6 .01 5.01 0 5.23-.02 5.53-.28 5.59-.33 5.65-.38 5.7-.44 5.96-.74 6.06-1.12 6.13-1.52 6.25-2.14 6.39-2.81 6.46-3.44 6.5-3.77 6.6-4.23 6.57-4.56"/>
<path transform="matrix(1,0,0,-1,271.303,444.8137)" stroke-width="1.7" stroke-linecap="round" stroke-linejoin="round" fill="none" stroke="#000000" d="M0 0C.05 .01 .1 .02 .15 .02 1.08 .18 2.01 .19 2.93 .07 3.1-.1 3.31-.2 3.55-.23 4.17-.42 4.77-.63 5.39-.83 6.09-1.06 7.15-1.06 7.69-1.64 8.27-2.28 8-3.61 8.23-4.41 8.2-4.39 8.17-4.37 8.14-4.35"/>
<path transform="matrix(1,0,0,-1,279.4431,446.2937)" stroke-width="1.7" stroke-linecap="round" stroke-linejoin="round" fill="none" stroke="#000000" d="M0 0C1.67 .29 3.34 .61 5.01 .91 5.45 .98 5.86 1.02 6.31 1.02 6.74 1.02 7.13 1.02 7.55 1.11 8.26 1.26 8.52 1.02 8.75 .32 8.96-.3 8.97-1.09 8.98-1.75 8.98-2.03 9.11-2.34 9.07-2.59"/>
<path transform="matrix(1,0,0,-1,288.9731,445.83369)" stroke-width="1.7" stroke-linecap="round" stroke-linejoin="round" fill="none" stroke="#000000" d="M0 0C1.31 .29 2.69 .49 3.97 .89 4.56 1.07 5.11 1.29 5.73 1.31 6.15 1.32 6.99 1.43 7.32 1.15 7.69 .85 8.05-.25 8.05-.74"/>
<path transform="matrix(1,0,0,-1,297.2631,446.7637)" stroke-width="1.7" stroke-linecap="round" stroke-linejoin="round" fill="none" stroke="#000000" d="M0 0C-.01 .02-.01 .03-.01 .04-.01 .12 .04 .16 .13 .19"/>
<path transform="matrix(1,0,0,-1,304.4231,444.0737)" stroke-width="1.7" stroke-linecap="round" stroke-linejoin="round" fill="none" stroke="#000000" d="M0 0C-.17 .47-.42 .9-.61 1.37-.65 1.46-.68 1.58-.72 1.7-.85 2.13-1 2.67-1.3 2.86-1.64 3.08-1.96 2.9-2.3 2.78-2.85 2.58-3.32 2.4-3.81 2.07-5.19 1.15-6.67 .68-8.14 0-7.78-.87-7.45-1.75-7.17-2.65"/>
<path transform="matrix(1,0,0,-1,303.683,442.4137)" stroke-width="1.7" stroke-linecap="round" stroke-linejoin="round" fill="none" stroke="#000000" d="M0 0C.01 .01 .01 .03 .02 .04 .32 .71 .72 1.32 1.21 1.85 1.31 2.09 1.49 2.22 1.74 2.24 1.94 2.36 2.15 2.47 2.36 2.59 2.9 2.93 3.52 3.12 4.08 3.42 4.57 3.69 4.93 4.04 5.46 4.25 5.87 4.42 6.26 4.53 6.66 4.72 6.77 4.78 7.14 5 7.23 4.99 7.57 4.96 7.71 4.43 7.81 4.14 7.88 3.95 7.96 3.76 8.05 3.57 8.28 3.07 8.53 2.55 8.6 2.04"/>
<path transform="matrix(1,0,0,-1,311.8231,438.80369)" stroke-width="1.7" stroke-linecap="round" stroke-linejoin="round" fill="none" stroke="#000000" d="M0 0C.59 .74 1.14 1.83 2.15 2.04 2.44 2.11 2.72 2.09 3.01 2.15 3.57 2.25 4.02 2.31 4.6 2.31 5.11 2.31 6 2.37 6.15 1.7 6.1 1.72 6.06 1.74 6.01 1.76"/>
<path transform="matrix(1,0,0,-1,437.1731,402.8737)" stroke-width="1.7" stroke-linecap="round" stroke-linejoin="round" fill="none" stroke="#000000" d="M0 0C.53-4.61 1.02-9.21 1.26-13.85 1.43-17.05 1.42-20.26 1.66-23.46 1.9-26.65 1.78-29.85 1.97-33.04 2.25-37.74 2.03-42.57 2.7-47.21 3.55-53.02 4.32-58.8 5.61-64.52 6.71-69.36 7.47-74.21 8.71-78.98 9.05-80.29 9.42-81.6 9.85-82.9 10.76-85.66 12.45-88.06 13.38-90.78 13.74-91.84 14.24-93.07 14.86-93.96 15.22-94.48 15.76-94.8 16.33-95.09 17.66-95.78 19.12-96.53 20.61-96.82 24.39-97.57 28.03-99.17 31.96-99.21 33.57-99.22 35.08-99.43 36.67-99.73 37.69-99.92 39-100.53 40.08-100.61 40.21-100.64 40.34-100.64 40.47-100.63"/>
<path transform="matrix(1,0,0,-1,295.7231,504.21369)" stroke-width="1.7" stroke-linecap="round" stroke-linejoin="round" fill="none" stroke="#000000" d="M0 0C1.72-6.75 3.62-13.41 4.98-20.24 5.42-22.45 6.24-24.62 6.59-26.83 6.92-28.89 7.09-31.43 5.18-32.66 2.4-34.44-.97-34.9-3.98-36.28-5.3-36.89-6.72-37.17-8.14-37.46-8.93-37.63-9.78-37.73-10.21-38.5"/>
<path transform="matrix(1,0,0,-1,449.7331,382.27369)" stroke-width="1.7" stroke-linecap="round" stroke-linejoin="round" fill="none" stroke="#000000" d="M0 0C1.53 2.1 3.43 1.83 4.62 2.56 5.98 2.69 7.35 2.81 8.72 2.94 10.96 2.72 11.82 1.77 12.52-.06 13.06-1.51 13.59-2.97 14.14-4.4 15.24-7.25 19.35-8.86 22.13-7.67 23.64-7.03 24.94-5.98 26.47-5.36 28.26-4.64 30.14-4.28 32.07-4.48 36.49-4.94 40.85-8.94 42.41-13.01 43.68-16.31 44.24-19.79 41.62-22.48 39.49-24.67 37.78-27.39 38.96-30.56 40.42-34.52 42.54-37.9 45.76-40.63 47.03-41.7 50.53-45.33 48.6-47.2 48.01-47.77 46.6-48 45.84-48.25 44.75-48.61 43.65-48.98 42.63-49.52 41.6-50.06 40.13-51.14 39.47-52.12 38.71-53.24 38.31-55.9 38.52-57.28 38.95-60.07 41.33-62.52 42.93-64.69 44.91-67.36 48.26-70.65 47-74.27 45.8-77.73 41.89-77.77 38.89-77.46 37.36-77.31 36.16-77.08 34.95-78.24 34.01-79.13 33.62-80.43 33.48-81.69 33.06-85.61 35.18-88.74 35.57-92.51 35.99-96.48 32.76-98.88 29.06-97.66 27.33-97.09 26-96.37 24.09-96.31 21.73-96.24 20.39-97.65 19.07-99.38 18.65-99.94 18.15-100.47 17.84-101.11 17.39-102.05 17.28-103.16 16.91-104.13 16.39-105.53 15.69-107 14.57-108.03 13.36-109.14 11.43-109.7 9.85-109.16 7.9-108.49 6.95-106.68 6.02-105 4.36-102.03 2.76-98.43-.76-97.4-1.71-97.13-1.82-97.38-2.37-98.05-2.7-98.46-3.22-98.8-3.07-99.38"/>
<path transform="matrix(1,0,0,-1,314.8331,339.8037)" stroke-width="1.7" stroke-linecap="round" stroke-linejoin="round" fill="none" stroke="#000000" d="M0 0C-.06-.05-.12-.09-.18-.14-2.28-1.83-4.48-4.05-7.33-4.08-8.68-4.09-9.85-3.38-10.06-1.98-10.24-.7-9.39 .32-8.49 1.09-7.16 2.22-5.25 3.44-3.86 4.56-2 6.05 .84 7.38 3 8.36 5.25 9.39 6.32 9.85 8.79 10.16 9.45 10.24 10.1 10.19 10.76 10.29 11.44 10.39 12.07 10.47 12.76 10.46 12.98 10.46 13.19 10.46 13.41 10.47 14.41 10.5 15.42 10.6 16.44 10.6 19.27 10.6 22.06 11.02 24.87 11 27.88 10.98 30.86 11.08 33.84 10.7 35.59 10.47 37.45 10.21 39.17 9.71 40.17 9.42 41.12 9.05 41.98 8.56 44.07 7.63 46.24 6.74 48.23 5.57 48.84 5.21 49.45 4.82 50.11 4.54 51.01 4.16 51.99 3.92 52.91 3.6 53.52 3.39 54.13 3.24 54.76 3.06 55.28 2.91 56.04 2.56 56.68 2.46 56.86 2.43 57.04 2.42 57.2 2.44"/>
<path transform="matrix(1,0,0,-1,285.3831,542.4037)" stroke-width="1.7" stroke-linecap="round" stroke-linejoin="round" fill="none" stroke="#000000" d="M0 0C.04-.11 .08-.21 .11-.32 .12-.35 .13-.37 .14-.4 1.69-4.75 3.2-9.15 5.05-13.38 5.68-14.83 6.45-16.22 7.03-17.69 8.16-20.51 9.24-23.21 10.83-25.82 14.07-31.15 17.29-36.47 21.25-41.3 23.17-43.65 24.7-46.28 26.62-48.64 28.84-51.36 31.13-54.03 33.55-56.58 38.58-61.85 44.81-66.45 51.07-70.14 58.27-74.37 66.21-77.88 74.12-80.56 81.08-82.92 87.76-85.18 95.07-86.2 101.71-87.14 108.46-87.05 115.16-86.92 123.55-86.76 130.87-84.22 137.69-81.22 141.75-79.17 145.84-77.26 149.32-74.3 151.07-72.82 152.79-71.28 154.47-69.71 156.98-67.36 159-64.44 160.86-61.56 162.81-58.54 164.99-55.68 167.03-52.72 168.98-49.88 170.66-46.89 172.61-44.06 174.44-41.39 176.41-38.63 177.83-35.72 179.5-32.3 180.54-28.64 181.88-25.09 184.51-18.16 186.84-11.34 188.65-4.16 191.05 5.4 192.9 14.98 192.9 24.85 192.9 27.93 192.86 31.14 193.15 34.2 193.23 35.02 193.46 35.72 193.17 36.55 192.9 37.31 192.2 37.81 191.84 38.5"/>
<path transform="matrix(1,0,0,-1,376.3331,574.13369)" stroke-width="1.7" stroke-linecap="round" stroke-linejoin="round" fill="none" stroke="#000000" d="M0 0C1.93-3 4.28-5.6 7.04-7.8 7.78-7.82 8.52-7.84 9.25-7.86 10.1-7.81 10.52-7.73 11.13-7.06 12.04-6.03 12.55-4.53 12.68-3.19 12.8-1.93 12.72-.56 12.42 .67 12.25 1.4 12 1.99 12.05 2.75"/>
<path transform="matrix(1,0,0,-1,372.1031,566.7237)" stroke-width="1.7" stroke-linecap="round" stroke-linejoin="round" fill="none" stroke="#000000" d="M0 0C-1.97 1.85-3.02 3.52-5.68 4.09-7.37 4.45-9.41 4.41-11.12 4.45-13.5 4.51-15.98 4.3-18.36 4.18-22.31 3.98-26.25 3.98-30.19 3.79-39.26 3.35-48.25 2.32-57.32 2.32"/>
<path transform="matrix(1,0,0,-1,389.8631,562.70376)" stroke-width="1.7" stroke-linecap="round" stroke-linejoin="round" fill="none" stroke="#000000" d="M0 0C.07 1.53-.32 4.02 1.07 5.1 1.38 5.34 1.95 5.52 2.31 5.66 4.11 6.33 6.16 6.75 8.03 7.24 11.02 8.03 14.12 8.35 17.07 9.26 18.73 9.77 20.54 9.94 22.24 10.34 24.19 10.81 26.06 11.47 27.99 11.97 34.41 13.62 40.77 15.54 47.22 17.03 49.11 17.47 51 17.83 52.91 18.18 55.36 18.63 57.78 19.35 60.28 19.46"/>
<path transform="matrix(1,0,0,-1,477.343,503.2337)" stroke-width="1.7" stroke-linecap="round" stroke-linejoin="round" fill="none" stroke="#000000" d="M0 0C.11-.01 .21-.02 .32-.03 9.96-.92 19.28-2.38 28.68-4.65 33.08-5.72 37.05-7.15 41.58-7.66 46.01-8.15 50.37-8.61 54.79-9.25 59.86-9.99 64.92-9.94 69.95-10.91 77.94-12.44 85.76-14.73 93.77-16.15 104.16-17.99 114.73-19.69 124.91-22.55 151.12-29.91 178.32-40.81 197.96-60.26 205.44-67.67 211.53-75.73 216.85-84.86 221.91-93.55 226.47-102.6 229.39-112.25 232.58-122.82 236.04-133.36 238.75-144.08 239.52-147.13 240.75-151.87 240.87-156.34 240.89-156.59 240.89-156.85 240.89-157.1"/>
<path transform="matrix(1,0,0,-1,287.1431,542.0837)" stroke-width="1.7" stroke-linecap="round" stroke-linejoin="round" fill="none" stroke="#000000" d="M0 0C-.55-.25-1.09-.49-1.62-.72-6.38-2.81-10.5-4.21-15.65-5.39-17.65-5.85-19.62-6.42-21.64-6.84-26.5-7.84-31.44-8.52-36.35-9.3-42.82-10.33-49.01-12.76-55.46-14.01-60.73-15.02-66-16.45-71.2-17.79-75.23-18.82-79.08-20.25-82.81-22.09-85.07-23.2-87.25-24.47-89.54-25.53-92.34-26.83-95.26-27.58-97.84-29.33-101.3-31.68-104.03-34.25-107.93-35.77-111.96-37.35-115.49-39.45-119.24-41.59-126.96-46-133.08-53.14-138-60.44-140.58-64.26-143.63-67.74-146.11-71.63-149.37-76.74-152.04-82.57-154.49-88.1-157.71-95.35-161.27-102.45-164.19-109.83-165.18-112.3-166.26-115.02-167-117.58-167.3-118.63-167.58-119.83-166.65-120.15-168.44-129.07-170.67-137.38-173.4-146.01-174.58-149.78-174.57-153.97-176.22-157.58-174.05-157.42-171.64-156.18-169.5-155.71-165-154.7-159.34-154.12-154.75-155.09-152.28-155.61-150.02-156.81-147.56-157.4-144.67-158.1-141.56-158.22-138.61-158.49-130.49-159.22-122.88-160.76-115.2-163.51-109.71-165.47-104.64-168.5-98.6-167.41-95.08-166.77-91.72-165.44-88.27-164.5-84.44-163.45-80.81-163.28-76.85-163.19-70.51-163.06-64.89-166.63-59.18-169.13-51.89-172.32-44.96-175.73-37.17-177.58-29.06-179.51-21.15-180.14-12.83-180.47-8.85-180.62-5.07-180.94-1.2-179.94 4.01-178.59 9-176.41 14.28-175.37 18-174.63 21.72-173.91 25.47-173.36 38.77-171.41 45.15-175.38 49.88-177.53 53.99-179.4 58.22-180.94 62.37-182.75 66.27-184.45 70.09-186.12 74.16-187.41 81.5-189.73 89.59-190.28 97.22-190.98 103.05-191.52 109.45-192.39 115.29-191.45 121.85-190.39 128.15-187.91 134.41-185.74 138.88-184.19 143.32-182.48 147.84-181.07 152.31-179.68 156.68-179.73 161.31-179.75 166.04-179.78 170.8-179.28 175.5-179.96 180.92-180.75 186.19-182.66 191.64-183.52 198.94-184.67 206.37-185.16 213.71-186.17 221.48-187.24 229.39-187.57 237.23-187.06 243.91-186.62 250.62-185.85 257.22-184.72 264.53-183.46 271.24-180.92 277.91-177.77 285.84-174.03 293.92-168.91 302.79-167.85 306.49-167.41 310.77-167.15 314.47-167.86 319.25-168.78 323.75-170.73 328.49-171.79 331.26-172.41 334.19-172.57 337.02-172.71 342.73-172.99 346.55-171.62 351.81-169.14 354.86-167.7 357.89-166.22 360.79-164.47 361.93-163.77 363.07-163.06 364.21-162.35 366.99-160.69 370-159.73 372.66-158.87 384.21-156.06 386.71-162.64 396.84-161.19 400.13-160.72 403.21-158.24 406.03-156.65 410.14-154.32 414.19-151.93 418.2-149.41 422.1-146.97 425.63-146.65 430.17-146.28 431.57-146.16 433.52-146.33 434.9-146.02 434.59-139.92 431.7-134.02 431.39-127.92 431.21-124.45 431.05-120.96 431.05-117.49"/>
</g>
</g>
</g>
</svg>
