<svg width="24" height="24" viewBox="0 0 24 24" fill="none" xmlns="http://www.w3.org/2000/svg">
<path d="M20.205 18.4932C20.2538 18.6273 20.2633 18.7726 20.2324 18.9119C20.2015 19.0512 20.1315 19.1788 20.0306 19.2798L17.7806 21.5298C17.711 21.5996 17.6283 21.655 17.5372 21.6928C17.4462 21.7306 17.3486 21.75 17.25 21.7501C17.2253 21.7515 17.2006 21.7515 17.1759 21.7501C17.0655 21.7392 16.9589 21.704 16.8637 21.6469C16.7685 21.5899 16.6872 21.5124 16.6256 21.4201L12.4941 15.2213L10.5 17.2117V19.5001C10.4999 19.6987 10.421 19.8892 10.2806 20.0298C10.2806 20.0298 8.96812 21.3479 8.79187 21.5185C8.7186 21.5952 8.62973 21.6554 8.53125 21.6948C8.3477 21.7695 8.14202 21.7686 7.95915 21.6922C7.77628 21.6158 7.63109 21.4701 7.55531 21.287L7.54968 21.2729L6.17156 17.8267L2.71875 16.4457C2.60356 16.3996 2.50161 16.3257 2.42201 16.2305C2.34242 16.1354 2.28768 16.022 2.26269 15.9005C2.2377 15.7789 2.24324 15.6531 2.27882 15.5343C2.3144 15.4154 2.37891 15.3073 2.46656 15.2195L3.96656 13.7195C4.0366 13.6495 4.11979 13.5941 4.21134 13.5565C4.3029 13.5188 4.401 13.4996 4.5 13.5001H6.7875L8.78156 11.506L2.58375 7.37353C2.49131 7.312 2.41368 7.2307 2.35649 7.13551C2.29929 7.04033 2.26394 6.93363 2.253 6.82312C2.24206 6.71261 2.25579 6.60105 2.29321 6.4965C2.33063 6.39194 2.39079 6.297 2.46937 6.21853L4.71937 3.96853C4.8203 3.86765 4.94792 3.79765 5.08725 3.76676C5.22657 3.73588 5.37182 3.74538 5.50593 3.79416L13.5628 6.72385L16.5187 3.76791C17.0111 3.2756 17.6788 2.99902 18.375 2.99902C18.7197 2.99902 19.0611 3.06692 19.3796 3.19885C19.6981 3.33078 19.9875 3.52414 20.2312 3.76791C20.475 4.01167 20.6684 4.30107 20.8003 4.61956C20.9322 4.93806 21.0001 5.27942 21.0001 5.62416C21.0001 5.9689 20.9322 6.31026 20.8003 6.62875C20.6684 6.94725 20.475 7.23664 20.2312 7.48041L17.2753 10.4363L20.205 18.4932Z" fill="black"/>
</svg>
