<svg width="136" height="45" viewBox="0 0 136 45" fill="none" xmlns="http://www.w3.org/2000/svg">
<path d="M74.7784 40.4212V34.6032C74.7784 34.0711 74.6109 33.644 74.276 33.322C73.955 32.9859 73.5433 32.8179 73.0409 32.8179C72.692 32.8179 72.385 32.8949 72.1198 33.0489C71.8546 33.189 71.6453 33.399 71.4918 33.679C71.3383 33.9451 71.2615 34.2531 71.2615 34.6032L70.0264 33.9941C70.0264 33.196 70.2008 32.4958 70.5497 31.8937C70.8986 31.2916 71.3801 30.8296 71.9942 30.5075C72.6222 30.1714 73.327 30.0034 74.1085 30.0034C74.8621 30.0034 75.5251 30.1854 76.0973 30.5495C76.6834 30.8996 77.144 31.3686 77.4789 31.9567C77.8138 32.5448 77.9813 33.189 77.9813 33.8891V40.4212H74.7784ZM68.0586 40.4212V30.2135H71.2615V40.4212H68.0586Z" fill="white"/>
<path d="M60.1424 44.9999C59.026 44.9999 58.0421 44.8039 57.1908 44.4118C56.3534 44.0338 55.6905 43.4947 55.202 42.7946L57.1698 40.8202C57.5327 41.2543 57.9374 41.5834 58.384 41.8074C58.8445 42.0314 59.3958 42.1435 60.0378 42.1435C60.8333 42.1435 61.4543 41.9474 61.9009 41.5554C62.3615 41.1633 62.5917 40.6102 62.5917 39.8961V37.2916L63.136 35.0653L62.6545 32.8389V30.2135H65.7946V39.8121C65.7946 40.8622 65.5504 41.7724 65.0619 42.5425C64.5735 43.3127 63.9036 43.9148 63.0523 44.3488C62.201 44.7829 61.231 44.9999 60.1424 44.9999ZM59.9959 40.1061C59.0609 40.1061 58.2305 39.8821 57.5048 39.434C56.7791 38.9859 56.2069 38.3768 55.7882 37.6067C55.3695 36.8366 55.1602 35.9824 55.1602 35.0443C55.1602 34.0921 55.3695 33.238 55.7882 32.4818C56.2069 31.7117 56.7791 31.1096 57.5048 30.6755C58.2305 30.2275 59.0609 30.0034 59.9959 30.0034C60.6937 30.0034 61.3148 30.1364 61.859 30.4025C62.4173 30.6545 62.8639 31.0186 63.1988 31.4947C63.5477 31.9567 63.7431 32.4958 63.785 33.1119V36.9976C63.7431 37.5997 63.5477 38.1388 63.1988 38.6149C62.8639 39.0769 62.4173 39.441 61.859 39.7071C61.3008 39.9731 60.6798 40.1061 59.9959 40.1061ZM60.603 37.2496C61.0496 37.2496 61.4334 37.1516 61.7544 36.9556C62.0893 36.7596 62.3405 36.5005 62.508 36.1785C62.6894 35.8424 62.7801 35.4643 62.7801 35.0443C62.7801 34.6242 62.6894 34.2461 62.508 33.9101C62.3405 33.574 62.0893 33.308 61.7544 33.1119C61.4334 32.9159 61.0496 32.8179 60.603 32.8179C60.1704 32.8179 59.7866 32.9159 59.4516 33.1119C59.1167 33.308 58.8585 33.574 58.6771 33.9101C58.4956 34.2461 58.4049 34.6242 58.4049 35.0443C58.4049 35.4363 58.4956 35.8074 58.6771 36.1575C58.8585 36.4935 59.1097 36.7596 59.4307 36.9556C59.7656 37.1516 60.1564 37.2496 60.603 37.2496Z" fill="white"/>
<path d="M50.3756 40.4213V30.2135H53.5785V40.4213H50.3756ZM51.9875 28.8063C51.4851 28.8063 51.0664 28.6383 50.7315 28.3022C50.4105 27.9522 50.25 27.5321 50.25 27.042C50.25 26.5379 50.4105 26.1178 50.7315 25.7818C51.0664 25.4457 51.4851 25.2777 51.9875 25.2777C52.4899 25.2777 52.9016 25.4457 53.2226 25.7818C53.5436 26.1178 53.7041 26.5379 53.7041 27.042C53.7041 27.5321 53.5436 27.9522 53.2226 28.3022C52.9016 28.6383 52.4899 28.8063 51.9875 28.8063Z" fill="white"/>
<path d="M44.4911 40.6734C43.891 40.6734 43.2979 40.5964 42.7117 40.4423C42.1395 40.2883 41.6022 40.0713 41.0998 39.7912C40.6113 39.4972 40.1927 39.1611 39.8438 38.783L41.665 36.9347C42 37.2988 42.3977 37.5858 42.8583 37.7959C43.3188 37.9919 43.8212 38.0899 44.3655 38.0899C44.7423 38.0899 45.0284 38.0339 45.2238 37.9219C45.4331 37.8099 45.5378 37.6559 45.5378 37.4598C45.5378 37.2078 45.4122 37.0188 45.161 36.8927C44.9237 36.7527 44.6167 36.6337 44.2399 36.5357C43.8631 36.4237 43.4653 36.3046 43.0467 36.1786C42.628 36.0526 42.2302 35.8776 41.8534 35.6535C41.4766 35.4295 41.1696 35.1214 40.9323 34.7294C40.6951 34.3233 40.5764 33.8122 40.5764 33.1961C40.5764 32.538 40.7439 31.9709 41.0789 31.4948C41.4138 31.0047 41.8883 30.6197 42.5024 30.3396C43.1164 30.0596 43.8352 29.9196 44.6586 29.9196C45.5238 29.9196 46.3193 30.0736 47.045 30.3816C47.7847 30.6757 48.3848 31.1168 48.8454 31.7049L47.0241 33.5532C46.7031 33.1751 46.3403 32.9091 45.9355 32.755C45.5448 32.601 45.161 32.524 44.7842 32.524C44.4213 32.524 44.1492 32.58 43.9678 32.692C43.7863 32.79 43.6956 32.9371 43.6956 33.1331C43.6956 33.3431 43.8142 33.5112 44.0515 33.6372C44.2887 33.7632 44.5958 33.8752 44.9726 33.9732C45.3494 34.0713 45.7471 34.1903 46.1658 34.3303C46.5845 34.4703 46.9822 34.6594 47.3591 34.8974C47.7359 35.1354 48.0429 35.4575 48.2802 35.8636C48.5174 36.2556 48.636 36.7737 48.636 37.4178C48.636 38.412 48.2592 39.2031 47.5056 39.7912C46.7659 40.3793 45.7611 40.6734 44.4911 40.6734Z" fill="white"/>
<path d="M34.3405 40.6523C33.238 40.6523 32.2541 40.4283 31.3888 39.9802C30.5375 39.5182 29.8676 38.881 29.3792 38.0689C28.8907 37.2568 28.6465 36.3396 28.6465 35.3174C28.6465 34.2953 28.8837 33.3851 29.3582 32.587C29.8467 31.7748 30.5026 31.1377 31.326 30.6757C32.1494 30.2136 33.0775 29.9825 34.1103 29.9825C35.1151 29.9825 36.0013 30.1996 36.7689 30.6337C37.5365 31.0677 38.1366 31.6698 38.5692 32.44C39.0158 33.2101 39.2391 34.0922 39.2391 35.0864C39.2391 35.2684 39.2251 35.4645 39.1972 35.6745C39.1833 35.8705 39.1484 36.1016 39.0926 36.3676L30.3212 36.3886V34.1833L37.7318 34.1622L36.3502 35.0864C36.3362 34.4983 36.2455 34.0152 36.0781 33.6372C35.9106 33.2451 35.6594 32.951 35.3244 32.755C35.0034 32.545 34.6057 32.44 34.1312 32.44C33.6288 32.44 33.1892 32.559 32.8124 32.797C32.4495 33.0211 32.1634 33.3431 31.9541 33.7632C31.7587 34.1833 31.661 34.6943 31.661 35.2964C31.661 35.8985 31.7657 36.4166 31.975 36.8507C32.1983 37.2708 32.5053 37.5998 32.8961 37.8379C33.3008 38.0619 33.7753 38.1739 34.3196 38.1739C34.822 38.1739 35.2756 38.0899 35.6803 37.9219C36.085 37.7399 36.4409 37.4738 36.7479 37.1237L38.5064 38.888C38.004 39.4761 37.3969 39.9172 36.6851 40.2113C35.9734 40.5053 35.1919 40.6523 34.3405 40.6523Z" fill="white"/>
<path d="M21.1996 40.6315C20.2367 40.6315 19.3784 40.4004 18.6248 39.9383C17.8851 39.4763 17.2989 38.8462 16.8663 38.048C16.4476 37.2499 16.2383 36.3397 16.2383 35.3176C16.2383 34.2954 16.4476 33.3852 16.8663 32.5871C17.2989 31.789 17.8851 31.1589 18.6248 30.6968C19.3784 30.2347 20.2367 30.0037 21.1996 30.0037C21.8974 30.0037 22.5255 30.1367 23.0837 30.4027C23.6559 30.6688 24.1234 31.0398 24.4863 31.5159C24.8631 31.978 25.0724 32.5101 25.1143 33.1122V37.4179C25.0724 38.02 24.8701 38.5661 24.5072 39.0562C24.1444 39.5323 23.6768 39.9173 23.1046 40.2114C22.5324 40.4914 21.8974 40.6315 21.1996 40.6315ZM21.7649 37.733C22.2254 37.733 22.6232 37.635 22.9581 37.4389C23.293 37.2289 23.5582 36.9418 23.7536 36.5778C23.949 36.2137 24.0467 35.7936 24.0467 35.3176C24.0467 34.8415 23.949 34.4284 23.7536 34.0784C23.5722 33.7143 23.307 33.4272 22.9581 33.2172C22.6232 33.0072 22.2324 32.9022 21.7858 32.9022C21.3392 32.9022 20.9415 33.0072 20.5926 33.2172C20.2576 33.4272 19.9855 33.7143 19.7761 34.0784C19.5807 34.4424 19.4831 34.8555 19.4831 35.3176C19.4831 35.7796 19.5807 36.1927 19.7761 36.5568C19.9715 36.9208 20.2437 37.2079 20.5926 37.4179C20.9415 37.628 21.3322 37.733 21.7649 37.733ZM27.0612 40.4214H23.9211V37.67L24.4025 35.1915L23.8583 32.7131V25.1729H27.0612V40.4214Z" fill="white"/>
<path d="M1.00391 31.0748V28.1553L10.7801 32.272V34.4773L1.00391 38.594V35.6955L8.41455 32.7551V34.0153L1.00391 31.0748Z" fill="white"/>
<path d="M129.175 15.5216L124.988 5.27185H128.442L131.101 13.4002H129.824L132.545 5.27185H136L131.645 15.5216H129.175ZM126.558 19.7853L129.615 13.1692L131.645 15.5216L129.845 19.7853H126.558Z" fill="white"/>
<path d="M117.918 15.6898C116.955 15.6898 116.097 15.4588 115.344 14.9967C114.604 14.5346 114.018 13.9045 113.585 13.1064C113.166 12.3082 112.957 11.3981 112.957 10.3759C112.957 9.35374 113.166 8.44359 113.585 7.64545C114.018 6.84732 114.604 6.21721 115.344 5.75513C116.097 5.29305 116.955 5.06202 117.918 5.06202C118.616 5.06202 119.244 5.19504 119.802 5.46108C120.375 5.72713 120.842 6.09819 121.205 6.57427C121.582 7.03635 121.791 7.56844 121.833 8.17054V12.4763C121.791 13.0784 121.589 13.6245 121.226 14.1145C120.863 14.5906 120.396 14.9757 119.823 15.2697C119.251 15.5498 118.616 15.6898 117.918 15.6898ZM118.484 12.7913C118.944 12.7913 119.342 12.6933 119.677 12.4973C120.012 12.2872 120.277 12.0002 120.472 11.6361C120.668 11.2721 120.765 10.852 120.765 10.3759C120.765 9.89983 120.668 9.48676 120.472 9.1367C120.291 8.77264 120.026 8.48559 119.677 8.27556C119.342 8.06552 118.951 7.9605 118.505 7.9605C118.058 7.9605 117.66 8.06552 117.311 8.27556C116.976 8.48559 116.704 8.77264 116.495 9.1367C116.299 9.50076 116.202 9.91383 116.202 10.3759C116.202 10.838 116.299 11.2511 116.495 11.6151C116.69 11.9792 116.962 12.2662 117.311 12.4763C117.66 12.6863 118.051 12.7913 118.484 12.7913ZM123.78 15.4798H120.64V12.7283L121.121 10.2499L120.577 7.77147V0.231201H123.78V15.4798Z" fill="white"/>
<path d="M105.385 15.6896C104.45 15.6896 103.613 15.4585 102.873 14.9964C102.148 14.5344 101.568 13.9043 101.136 13.1061C100.717 12.308 100.508 11.3978 100.508 10.3757C100.508 9.35349 100.717 8.44334 101.136 7.6452C101.568 6.84707 102.148 6.21696 102.873 5.75488C103.613 5.29281 104.45 5.06177 105.385 5.06177C106.069 5.06177 106.683 5.19479 107.228 5.46083C107.786 5.72688 108.239 6.09794 108.588 6.57402C108.937 7.0361 109.133 7.56819 109.174 8.17029V12.581C109.133 13.1831 108.937 13.7222 108.588 14.1983C108.253 14.6604 107.807 15.0244 107.249 15.2905C106.69 15.5565 106.069 15.6896 105.385 15.6896ZM106.034 12.7911C106.718 12.7911 107.269 12.567 107.688 12.119C108.107 11.6569 108.316 11.0758 108.316 10.3757C108.316 9.89958 108.219 9.47951 108.023 9.11545C107.842 8.75139 107.577 8.47134 107.228 8.27531C106.893 8.06527 106.502 7.96026 106.055 7.96026C105.609 7.96026 105.211 8.06527 104.862 8.27531C104.527 8.47134 104.255 8.75139 104.046 9.11545C103.85 9.47951 103.753 9.89958 103.753 10.3757C103.753 10.8377 103.85 11.2508 104.046 11.6149C104.241 11.9789 104.513 12.266 104.862 12.476C105.211 12.6861 105.602 12.7911 106.034 12.7911ZM108.191 15.4795V12.7281L108.672 10.2496L108.191 7.77122V5.2718H111.331V15.4795H108.191Z" fill="white"/>
<path d="M94.6882 15.7106C93.5857 15.7106 92.6018 15.4865 91.7365 15.0385C90.8852 14.5764 90.2153 13.9393 89.7268 13.1271C89.2384 12.315 88.9941 11.3978 88.9941 10.3757C88.9941 9.3535 89.2314 8.44334 89.7059 7.64521C90.1944 6.83307 90.8503 6.19597 91.6737 5.73389C92.4971 5.27181 93.4252 5.04077 94.4579 5.04077C95.4628 5.04077 96.349 5.25781 97.1165 5.69188C97.8841 6.12595 98.4842 6.72806 98.9169 7.49819C99.3635 8.26832 99.5868 9.15046 99.5868 10.1446C99.5868 10.3267 99.5728 10.5227 99.5449 10.7327C99.5309 10.9288 99.496 11.1598 99.4402 11.4258L90.6689 11.4469V9.24148L98.0795 9.22048L96.6979 10.1446C96.6839 9.55653 96.5932 9.07345 96.4257 8.69539C96.2582 8.30332 96.007 8.00927 95.6721 7.81324C95.3511 7.6032 94.9534 7.49819 94.4789 7.49819C93.9764 7.49819 93.5368 7.6172 93.16 7.85525C92.7972 8.07928 92.5111 8.40134 92.3017 8.82141C92.1063 9.24148 92.0086 9.75257 92.0086 10.3547C92.0086 10.9568 92.1133 11.4749 92.3227 11.9089C92.546 12.329 92.853 12.6581 93.2437 12.8961C93.6485 13.1201 94.123 13.2322 94.6673 13.2322C95.1697 13.2322 95.6232 13.1481 96.028 12.9801C96.4327 12.7981 96.7886 12.532 97.0956 12.182L98.8541 13.9463C98.3516 14.5344 97.7446 14.9754 97.0328 15.2695C96.3211 15.5635 95.5395 15.7106 94.6882 15.7106Z" fill="white"/>
<path d="M81.0195 15.4795V5.2718H84.2224V15.4795H81.0195ZM84.2224 9.87158L82.8827 8.8214C83.1478 7.6312 83.5944 6.70704 84.2224 6.04893C84.8505 5.39082 85.7227 5.06177 86.8392 5.06177C87.3276 5.06177 87.7533 5.13878 88.1162 5.29281C88.493 5.43283 88.8209 5.65687 89.1001 5.96492L87.1951 8.38033C87.0555 8.2263 86.8811 8.10728 86.6717 8.02327C86.4624 7.93925 86.2251 7.89724 85.96 7.89724C85.4296 7.89724 85.004 8.06527 84.683 8.40133C84.376 8.72338 84.2224 9.21347 84.2224 9.87158Z" fill="white"/>
<path d="M65.1562 6.13299V3.2135L74.9324 7.3302V9.53557L65.1562 13.6523V10.7538L72.5669 7.81328V9.07349L65.1562 6.13299Z" fill="white"/>
<path d="M54.6608 15.7106C53.5583 15.7106 52.5744 15.4865 51.7092 15.0385C50.8578 14.5764 50.1879 13.9393 49.6995 13.1271C49.211 12.315 48.9668 11.3978 48.9668 10.3757C48.9668 9.3535 49.204 8.44334 49.6786 7.64521C50.167 6.83307 50.8229 6.19597 51.6464 5.73389C52.4698 5.27181 53.3978 5.04077 54.4306 5.04077C55.4354 5.04077 56.3216 5.25781 57.0892 5.69188C57.8568 6.12595 58.4569 6.72806 58.8895 7.49819C59.3361 8.26832 59.5594 9.15046 59.5594 10.1446C59.5594 10.3267 59.5454 10.5227 59.5175 10.7327C59.5036 10.9288 59.4687 11.1598 59.4129 11.4258L50.6415 11.4469V9.24148L58.0522 9.22048L56.6705 10.1446C56.6566 9.55653 56.5658 9.07345 56.3984 8.69539C56.2309 8.30332 55.9797 8.00927 55.6447 7.81324C55.3238 7.6032 54.926 7.49819 54.4515 7.49819C53.9491 7.49819 53.5095 7.6172 53.1327 7.85525C52.7698 8.07928 52.4837 8.40134 52.2744 8.82141C52.079 9.24148 51.9813 9.75257 51.9813 10.3547C51.9813 10.9568 52.086 11.4749 52.2953 11.9089C52.5186 12.329 52.8256 12.6581 53.2164 12.8961C53.6211 13.1201 54.0956 13.2322 54.6399 13.2322C55.1423 13.2322 55.5959 13.1481 56.0006 12.9801C56.4053 12.7981 56.7612 12.532 57.0683 12.182L58.8267 13.9463C58.3243 14.5344 57.7172 14.9754 57.0055 15.2695C56.2937 15.5635 55.5122 15.7106 54.6608 15.7106Z" fill="white"/>
<path d="M40.9922 15.4795V5.2718H44.1951V15.4795H40.9922ZM44.1951 9.87158L42.8553 8.8214C43.1205 7.6312 43.5671 6.70704 44.1951 6.04893C44.8231 5.39082 45.6954 5.06177 46.8118 5.06177C47.3003 5.06177 47.726 5.13878 48.0888 5.29281C48.4656 5.43283 48.7936 5.65687 49.0727 5.96492L47.1677 8.38033C47.0282 8.2263 46.8537 8.10728 46.6444 8.02327C46.435 7.93925 46.1978 7.89724 45.9326 7.89724C45.4023 7.89724 44.9766 8.06527 44.6556 8.40133C44.3486 8.72338 44.1951 9.21347 44.1951 9.87158Z" fill="white"/>
<path d="M34.228 15.7106C33.293 15.7106 32.4626 15.5216 31.7369 15.1435C31.0251 14.7514 30.4669 14.2194 30.0622 13.5472C29.6574 12.8611 29.4551 12.077 29.4551 11.1948V5.27185H32.658V11.1528C32.658 11.5029 32.7138 11.804 32.8255 12.056C32.9511 12.308 33.1325 12.5041 33.3697 12.6441C33.607 12.7841 33.8931 12.8541 34.228 12.8541C34.7025 12.8541 35.0793 12.7071 35.3585 12.4131C35.6376 12.105 35.7771 11.6849 35.7771 11.1528V5.27185H38.9801V11.1738C38.9801 12.07 38.7777 12.8611 38.373 13.5472C37.9682 14.2194 37.41 14.7514 36.6982 15.1435C35.9865 15.5216 35.1631 15.7106 34.228 15.7106Z" fill="white"/>
<path d="M22.7891 15.4797V1.05029H25.992V15.4797H22.7891ZM20.4863 8.00247V5.272H28.2947V8.00247H20.4863Z" fill="white"/>
<path d="M14.5815 15.7106C13.6465 15.7106 12.8161 15.5216 12.0904 15.1435C11.3786 14.7514 10.8204 14.2194 10.4157 13.5472C10.011 12.8611 9.80859 12.077 9.80859 11.1948V5.27185H13.0115V11.1528C13.0115 11.5029 13.0673 11.804 13.179 12.056C13.3046 12.308 13.486 12.5041 13.7233 12.6441C13.9605 12.7841 14.2466 12.8541 14.5815 12.8541C15.0561 12.8541 15.4329 12.7071 15.712 12.4131C15.9911 12.105 16.1307 11.6849 16.1307 11.1528V5.27185H19.3336V11.1738C19.3336 12.07 19.1312 12.8611 18.7265 13.5472C18.3218 14.2194 17.7635 14.7514 17.0518 15.1435C16.34 15.5216 15.5166 15.7106 14.5815 15.7106Z" fill="white"/>
<path d="M2.23994 15.4796V4.38974C2.23994 3.5636 2.42137 2.82148 2.78422 2.16337C3.16104 1.49125 3.68439 0.966163 4.35427 0.588099C5.02416 0.196033 5.81965 0 6.74075 0C7.43855 0 8.04564 0.11902 8.56201 0.357061C9.09234 0.581098 9.55289 0.896151 9.94366 1.30222L7.93399 3.31856C7.79443 3.17854 7.63394 3.07352 7.45251 3.00351C7.28504 2.91949 7.08267 2.87749 6.84542 2.87749C6.41279 2.87749 6.07086 3.00351 5.81965 3.25555C5.56845 3.50759 5.44284 3.85065 5.44284 4.28472V15.4796H2.23994ZM0 8.00235V5.27189H8.3736V8.00235H0Z" fill="white"/>
</svg>
