<?xml version="1.0" encoding="UTF-8"?>
<svg id="Layer_7_xA0_Image" xmlns="http://www.w3.org/2000/svg" version="1.1" viewBox="0 0 488.88 270">
  <!-- Generator: Adobe Illustrator 29.8.3, SVG Export Plug-In . SVG Version: 2.1.1 Build 3)  -->
  <defs>
    <style>
      .st0 {
        fill: #fff;
      }
    </style>
  </defs>
  <path class="st0" d="M83.72,6.96c-.72.38-1.22.64-1.21,1.56.02,2.96,8.27,9.69,10.93,11.15l-.37.62-.6-.12c-1.7-1.42-3.37-2.9-5.18-4.18-1.99-1.41-8.05-5.7-9.75-2.13-1.5,3.16,4.12,6.89,5.94,8.93-1.56-.52-3.72-1.58-5.16-.25-.56.51-.35,1.14-.83,1.44-1.04-2.8-1.99-5.94-3.25-8.62-.9-1.92-3.34-6.51-5.88-4.69-4.53,3.24-.03,13.1,2.04,16.92.23.42,2.45,3.69,2.28,3.83l-5.52.63c-2.49-1.65-4.78-3.59-7.31-5.19s-10.06-5.86-12.9-5.46c-4.39.62-.83,5.51.89,7.15l3.48,2.87c-1.41-.09-2.8.56-2.64,2.16-3.92-1.05-9.95-.5-5.28,4.44l4.32,2.75c-4.15-.33-8.42-1.33-12.6-.97-1.61.14-4.74.82-3.77,3.06,1.29,2.96,9.98,4.6,12.97,5.26l23.31,4.39c-6.06-.91-11.95-1.79-18.12-1.45-2.35.13-9.83.83-9.96,3.97-.12,2.87,4.92,3.61,6.97,4.07-14.56,11.22-24.4,31.28-20.38,49.83-7.74,6.9-12.9,16.21-15.59,26.2-8.97,33.33,5.28,59.9,32.29,78.7,32.07,22.33,69.51,34.08,107.74,41.21,66.84,12.46,137.32,12.14,203.7-2.92,31.7-7.19,68.88-20.58,92.48-43.52,22.75-22.12,35.78-51.31,21.74-82.41-9.18-20.35-24.56-37.73-42.53-50.76-.87-.63-3.21-1.8-3.7-2.29-.38-.38-.35-.97-.83-1.33-.57-.43-1.26-.23-1.68-.48-.27-.16-.96-1.87-1.44-2.39-1.78-1.92-8.77-5.26-11.38-6.12-4.17-1.38-8.83-1.39-12.59-3.73,1.5-2.53-1.12-4.33-2.96-5.66-5-3.62-12.34-6.3-18.51-6.67-2.68-.16-5.37.18-8.05.25,1.09-2.89-2.11-4.34-4.16-5.55-3.11-1.84-15.57-8.46-18.5-8.6-1.48-.07-2.55.44-3.96.49.09-1.52-.99-2.2-2.3-2.62-3.91-1.26-13.72-3.24-17.74-3.37-4.72-.15-14.92,1.48-18.81,4.21-2.43,1.7-3.59,5.14-5.2,7.52-4.05-1.3-8.48-1.82-12.72-2.35-18.8-2.37-38.43-3.43-57.29-1.72-23.96-13.31-51.65-14.09-78.44-13.17-2.84.1-5.71-.11-8.52.47.23-5.78-3.01-7.27-4.64-.92-.13.49-.07,1.74-.51,1.82-3.76-.32-7.97.44-11.72,1.06-3.19.52-6.56,1.14-9.62,2.13-1.92-3.1-4.38-7.03-7.35-9.23-2.22-1.64-3.32-.99-3.22,1.78-5.21-4.02-9.8-9.42-15.95-11.99h390.28v257.52H7.2V6.96h76.52Z"/>
  <path d="M84.2,6.96c6.16,2.57,10.74,7.97,15.95,11.99-.1-2.77,1-3.42,3.22-1.78,2.97,2.2,5.44,6.12,7.35,9.23,3.06-1,6.43-1.61,9.62-2.13,3.76-.62,7.96-1.38,11.72-1.06.43-.08.38-1.33.51-1.82,1.63-6.35,4.87-4.86,4.64.92,2.81-.58,5.68-.37,8.52-.47,26.79-.92,54.48-.14,78.44,13.17,18.86-1.71,38.49-.65,57.29,1.72,4.24.54,8.66,1.05,12.72,2.35,1.6-2.38,2.77-5.82,5.2-7.52,3.9-2.73,14.09-4.36,18.81-4.21,4.02.13,13.83,2.11,17.74,3.37,1.3.42,2.38,1.1,2.3,2.62,1.41-.04,2.49-.56,3.96-.49,2.93.14,15.39,6.76,18.5,8.6,2.05,1.21,5.25,2.67,4.16,5.55,2.67-.07,5.36-.41,8.05-.25,6.17.37,13.51,3.05,18.51,6.67,1.84,1.33,4.46,3.13,2.96,5.66,3.75,2.34,8.42,2.35,12.59,3.73,2.61.86,9.6,4.21,11.38,6.12.49.52,1.17,2.23,1.44,2.39.42.25,1.11.05,1.68.48.48.36.45.95.83,1.33.49.49,2.84,1.66,3.7,2.29,17.96,13.04,33.34,30.41,42.53,50.76,14.04,31.11,1.01,60.29-21.74,82.41-23.6,22.94-60.78,36.33-92.48,43.52-66.38,15.05-136.86,15.38-203.7,2.92-38.23-7.13-75.67-18.88-107.74-41.21C15.86,195.04,1.61,168.47,10.58,135.14c2.69-9.99,7.85-19.3,15.59-26.2-4.03-18.55,5.82-38.6,20.38-49.83-2.05-.46-7.09-1.2-6.97-4.07.13-3.14,7.61-3.84,9.96-3.97,6.17-.34,12.06.53,18.12,1.45l-23.31-4.39c-2.99-.66-11.68-2.3-12.97-5.26-.97-2.24,2.16-2.93,3.77-3.06,4.18-.36,8.45.63,12.6.97l-4.32-2.75c-4.67-4.94,1.36-5.49,5.28-4.44-.16-1.6,1.23-2.25,2.64-2.16l-3.48-2.87c-1.72-1.63-5.28-6.53-.89-7.15,2.83-.4,10.31,3.83,12.9,5.46s4.82,3.54,7.31,5.19l5.52-.63c.17-.14-2.06-3.41-2.28-3.83-2.07-3.82-6.57-13.67-2.04-16.92,2.54-1.82,4.98,2.78,5.88,4.69,1.26,2.69,2.21,5.83,3.25,8.62.48-.31.27-.93.83-1.44,1.45-1.33,3.6-.28,5.16.25-1.83-2.04-7.44-5.78-5.94-8.93,1.7-3.57,7.76.72,9.75,2.13,1.82,1.28,3.48,2.76,5.18,4.18l.6.12.37-.62c-2.66-1.45-10.91-8.18-10.93-11.15,0-.92.49-1.18,1.21-1.56h.48ZM116.34,40.05c-.3.39-3.87-4.2-4.17-4.58-3.65-4.67-6.91-9.79-10.59-14.35-.64-.8-4.84-3.27-6.08-4.23-2.63-2.02-5.07-4.49-7.77-6.38-.96-.67-2.36-1.86-3.53-1.75,4.15,6.16,10.9,9.57,16.42,14.27,1.26,1.08,4.75,4.1,5.42,5.37.12.22.44.68.11.85-3.71-2.76-7.05-6.39-11.63-7.67-.24.22,1.87,2.7,2.15,3,2.04,2.18,4.7,3.58,6.73,5.51.34.33,1,.69.35,1.08-.49.1-1.76-.81-2.25-1.1-5.9-3.47-10.2-9.32-15.97-13.05-1.1-.71-5.79-3.81-6.74-2.16-.18.31.66,1.76.94,2.08,1.86,2.15,9.81,7.71,12.55,9.63,5.35,3.75,11.48,6.57,16.85,10.25.62.42,2.62,1.6,2.42,2.37l-.55.32c-5.71-1.65-12.24-3.97-18.13-2.32-.46,1.7.85,1.98,2.25,2.12,2.43.24,5.11-.02,7.67.24,5.3.54,12.38,1.72,15.51,6.44,2.1-.05,1.26-1.24.72-2.53-2.23-5.39-6.6-11.81-9.78-16.84-1.98-3.14-4.54-5.81-7.18-8.41-.26,1.34.85,2.88,1.56,3.96,3.43,5.26,8.37,10.27,11.71,15.62.43.68,1.04,1.37,1,2.23ZM88.27,26.87c-2.11-.52-6.74-4.3-8.77-3.39-1.48.67,1.1,2.01,1.89,2.46.58.33,3.17,1.15,3.04,1.75-.09.42-3.03,1.36-3.76,1.76-.56.3-1.31,1.33-1.99.9-2.74-4.95-4.27-11.13-7.07-15.96-.32-.56-1.35-2.41-1.93-2.41-1.73,1.17-1.31,4.39-.97,6.26.87,4.76,3.55,9.47,5.44,13.87l2.13-.33c-2.09-3.35-3.74-7.28-4.56-11.15l5.19,10.99c2.09.04,4.32-.47,6.4.04.24.06.05.55.48.45,1.87-.44,4.15-3.37,4.48-5.24ZM135.29,18.95c-.54-.12-.39.08-.55.3-1.21,1.65-2.91,10.52-3.45,13.08-.78,3.68-1.26,7.43-2.23,11.07l.98-.14,3.69-13.04c.35,3.05-.59,6.19-1.44,9.11-.2.7-.76,1.72-.84,2.28-.06.37,0,.41.36.36.17.07.25-.03.37-.11.79-.55,1.61-5.17,1.84-6.32,1.05-5.36,1.93-11.17,1.27-16.59ZM66.21,34.78c-.89-.1-1.16-1.03-1.7-1.54-3.33-3.12-11.12-8.19-15.44-9.5-.45-.14-2.45-.85-2.52-.11,3.37,6.54,11.24,8.76,16.86,12.89.92.4,1.55-1.22,2.65-1.24l.15-.49ZM191.67,141.23c3.49-2.82,7.68-4.72,11.49-7.09,14.44-8.98,26.74-19.76,35.62-34.41,11.81-19.47,13.08-39.2-4.89-55.25-24.06-21.48-58.13-21.5-88.63-20.73-2.16.05-5.79-.36-7.69-.01-.27.05-.49.08-.57.39l-1.47,10.16c1.66-.68,3.46-1.08,5.22-1.37,17.49-2.89,43.93.18,60.92,5.38,18.85,5.77,35.13,19.55,31.89,41.12-.51,3.36-1.5,6.67-2.09,10.02,1.11-1.44,2.05-3.29,2.84-4.95,3.24-6.82,5.2-13.64,4.07-21.27-.4-2.7-1.39-5.23-2.12-7.83.65-.14.41.2.59.48,4.14,6.25,3.63,16.71,1.57,23.62-7.83,26.23-37.07,43.78-61.35,52.57-23.61,8.55-53.83,12.18-78.86,10.13-11.78-.97-23.51-4.1-33.94-9.59l.12-.48c4.96,1.76,9.84,3.8,14.94,5.21,24.69,6.82,51.26,3.75,76.14-.48l21.06-6.89c.05-.45-.49-.19-.73-.13-2.45.58-5.17,1.7-7.66,2.41-23.73,6.73-51.12,9.76-75.68,6.59-20.18-2.61-49.34-18.75-47.86-42.31.03-.51.21-1.86.35-2.28.26-.78.33.58.84.24.47-4.8,2.72-9.61,5-13.83,3.89-7.21,9.12-14.12,16.43-18.1l4.72-1.87-15.48-.85c-8.21,5.91-14.95,13.75-17.26,23.87-3.62,15.87,4.08,33.1,16.56,42.91,2.45,1.93,5.12,3.34,7.57,5.15.12.09.89.27.45.62-.39.31-3.7-1.7-4.3-2.06-22.17-13.31-32.24-44.3-12.26-64.25l7.68-6.34-6.3-.44c-10.29,8.2-18.02,19.23-20.73,32.29-3,14.43.59,25.03,10.01,35.89,12.19,14.06,29.61,21.11,47.25,25.79-.12.48-.35.39-.72.38-4.04-.15-10.42-2.92-14.52-3.97-.13-.03-.39-.07-.35.11,10.19,10.34,24.1,16.21,37.9,20.14,38.01,10.84,79.73,1.81,106.99-27.33,7.81-8.34,16.1-22.72,20.03-33.45.08-.23.32-.78-.13-.73-8.11,11.19-19.23,20.29-31.11,27.28-3.6,2.12-7.58,4.39-11.59,5.56ZM130.25,32.14l1.92-8.39-20.87,3.84,9.51,16.55c.38-.04.92.21.81-.37-.63-2.12-5.18-10.89-3.54-12.53.89-.89,2.25.31,2.7,1.14.17-.77.12-1.95,1.25-1.5,1.62.65,3.21,5.73,3.19,7.5l.83-6.72c.45-1.45,1.19-5.71,3.36-3.82l.85,4.3ZM82.28,27.34c-1.81-.24-3.13-1.64-4.32-2.88l1.2,4.56,3.12-1.68ZM77.48,35.73c4.25,1.43,11.75-3.27,12.22-7.57.09-.8.07-1.72-.94-1.77.84,3.23-2.2,5.83-4.91,6.96-1.73.72-3.97.94-5.53,1.66-.34.16-.72.33-.83.73ZM107.95,37.65l-16.79-10.31c.44,1.54-.98,2.87-.98,4.19,0,2.81,2.17,8.77,3.85,11.04.33.44.94.66,1.33,1.07,1.53,1.59,2.92,3.31,4.55,4.8.1-1.86,2.03-2.48,3.53-2.94,3.23-.99,6.35-.84,9.63-1.17.24-.02,1.13-.1,1.11-.45-2.08-.89-4.19-1.65-6.43-2.09-4.11-.81-9.39-.65-13.19-1.68-.46-.12-1.63-.54-1.91-.86-.23-.26-.1-.61-.21-.89-.19-.46-.87-.51-.44-1.43,1.14-2.48,8.49-1.11,10.72-.65,1.77.37,3.47.98,5.23,1.36ZM127.62,43.17c.46-.08.4-.5.49-.83.8-2.88,1.42-10.03.89-12.9-.07-.41-.2-.86-.54-1.13-1.07,0-1.94,6.29-2.04,7.31-.14,1.52-.41,6.27-.07,7.51.12.42-.08.62.55.52-.18-2.64-.64-6.8.46-9.25.16-.36.25-.67.74-.58l-.48,9.35ZM336.37,35.43c-.49-.52-.29-1.57-.09-2.2-.12-.51-3.95-.81-4.78-.97-7.47-1.43-15.04-4.39-22.66-1.8l-3.12,6.23c-.53-.36-.21-.45-.12-.83.28-1.27,1-2.78,1.55-3.97.09-.19,1.12-1.44.25-1.19-1.85.54-2.6,5.44-4.08,6.71-.25-1.89,1.58-3.87,2.04-5.4.09-.31-.06-.48-.35-.35-1.27.54-3.32,8.02-4.56,9.35-.63.05-.24-.1-.18-.42.47-2.47,1.83-5.12,2.94-7.37-.47-.73-.78.23-1.05.62-2.37,3.44-4.43,8.24-4.34,12.45-.43-.35-.54-.79-.61-1.31-.47-4,2.31-8.47,4.32-11.76-1.92-.21-2.83,2-3.57,3.39-2,3.78-3.42,7.88-4.23,12.07-1.91,9.79-3.22,17.55-9.03,25.98-1.32,1.92-4.72,5.4-5.52,6.95-.7,1.36-1.06,4.43-1.57,6.11-2.66,8.84-8.47,16.31-13.55,23.86.3,3.04-1.58,3.77-2.7,5.93-2.65,5.11-.65,11.75-4.59,15.79-1.26,1.29-2.11.83-2.8,2.95-.84,2.57-1.04,4.66-2.36,7.24-2.09,4.1-5.8,6.69-6.2,11.54-.54,6.44.16,13.48-.23,19.91-.22,3.64-1.37,7.28-.92,10.97.16.51,4.29,2.87,4.93,2.99.7.14,1.01-.02,1.63-.18,2.44-.65,5.68-2.78,8.1-3.89,13.39-6.12,26.72-10.99,40.21-16.63,16.47-6.89,32.21-14.51,49.06-20.74,10.83-4,31.57-9.11,39.47-16.66,5.85-5.59,13.75-21.24,16.55-29.01,2.42-6.72,3.47-12.32,7.81-18.33,1.92-2.66,5.16-5.5,6.77-8.1.4-.65.91-1.13.77-1.99-1.58.32-1.78-1.1-2.64-2.04-3.98-4.36-13.32-5.97-18.66-7.72-1.42-.47-2.51-1.35-3.87-1.47.15.71-2.12,2.67-2.43,2.37.2-1.23,1.41-1.69,2.16-2.52l-.93-.33c-.38,1.09-1.5,1.62-2.43,2.13-.39-.46,1.62-2.1,2.16-2.16-1.65-2.06-2.17,1.8-3.84,1.68,0-.84,2.88-3.09,2.4-3.59l-3.48,2.4c-.16.05-.17-.23-.12-.35.42-.93,4.39-3.49,3.97-4.44-6.61-6.26-16.21-8.1-25.08-7.67.04.71,0,1.89-.96,1.92-.03-.45.16-.87.25-1.3.08-.35.48-.7-.13-.61l-1.08,3.11c-.5-1.04.07-1.91,0-2.99-1.83-.75-1.08,2.58-2.4,3.23-.38-.88.78-2.9.67-3.44-.09-.44-1-.74-1.15-1.48-.17-.88.13-1.49.37-2.28l-17.77-9.34-1.31,1.44.71-1.56c-2.09-1.89-2.3,1.22-3.59,2.28-.03-.49-.03-.96.11-1.45.11-.38,1.65-2.18.73-1.91-1.53.45-1.87,3.06-3.12,3.84-.23-1.18.73-2.32,1.32-3.24.05-.16-.22-.18-.35-.12-.91.4-2.29,3.56-3,4.43-.24.3-.52.67-.96.6.48-1.73,1.43-3.34,2.64-4.67.06-.14-1.18-.46-1.38-.66ZM124.5,45.8c.42-.86.99-2.02.85-3-.04-.3-.48-.58-.56-1-.62-3.54-.61-7.46-3.05-10.38-.53-.1-.34.24-.36.6-.1,1.73,1.63,4.82,2.23,6.64.45,1.36,1.13,3.13,1.01,4.5-1.36-2.1-1.87-4.67-2.89-6.94-.15-.35-2.35-5.06-2.99-4.32l.11,2.41,4.35,11.48.58.14c-.74-1.93-1.55-4.11-2.05-6.1-.08-.33-.35-.83.25-.74l2.52,6.71ZM95.71,49.88l-5.46-12.89-1.25-4.86c-.05.52-.57.88-.68,1.37-.38,1.71,2.24,8.37,3.11,10.22.23.49,3.62,6.93,4.28,6.15ZM82.76,32.38c-5.41.64-11.2.88-15.99,3.79-.63.39-1.7.9-1.76,1.72.54.6,7.26-.59,8.52-.72.57-.06,2.99.21,2.99-.36-.74-.42-1.01-1.6-.41-2.22.71-.74,4.68-1.37,5.98-1.81.25-.09.73-.05.67-.4ZM78.68,44.85c-2.92-.91-5.76-2.1-8.56-3.32-.99-.43-2.65-1.61-3.42-1.85s-1.73-.03-2.58-.54c-.99-.59-.57-1.46-1.03-1.85-.21-.18-1.24-.46-1.68-.72-3.15-1.77-7.07-4.9-10.79-3.12-.14.58,2.97,1.99,3.53,2.22,2.63,1.05,5.57,1.4,8.1,2.69l-.25.48c-2.87-.91-5.87-1.43-8.75-2.28-2.67-.79-4.5-2.04-7.56-1.99-.44,0-1.93.19-1.8.79,2.05,2.47,4.88,3.89,7.75,5.2,6.02,2.75,12.57,4.13,18.62,6.8,1.17.52,2.6.94,3.37,2.03-.57.08-1.08-.04-1.63-.17-3.7-.86-8.21-3.26-12.1-4.45-5.7-1.75-20.45-4.81-25.9-3.47-.9.22-1.67.45-.75,1.34,2.35,2.29,15.41,4.65,19.23,5.47,7.6,1.64,15.57,2.55,22.81,5.37.26.85-.29.47-.46.93l.71.36c-.23.34-.46.35-.83.38-1.89.14-6.65-1.13-8.91-1.43-6.29-.82-11.6-1.16-17.95-.51-1.66.17-10,1.17-4.98,3.3,1.76.74,4.27,1.04,6.18,1.25,11.74,1.3,23.74,1.37,35.5,1.92.92.04,1.84-.02,2.75,0l-3.54-1.37c-6.02-.8-12.11-1.13-18.15-1.51h-13.32c-.12-.72.18-.37.58-.48,3.36-.85,13.34-.21,17.28,0s7.92.9,11.88.95c-.59-.86-1.51.11-2.49-.5-2.17-1.36-1.25-9.59-.86-11.96ZM87.08,34.54c-.17-.18-2.31,1.69-2.36,1.84-.21.61.39,4.67.56,5.6.4,2.23,1.12,4.74,2.08,6.79.65,1.39,1.74,3.67,3.32,3.99l-3.6-18.22ZM293.61,40.29l-34.42-3.12c-10.44-.93-20.98,0-31.44-.47-.49-.02-.84-.23-1.3-.25l2.28,1.67c8.82-.84,17.6-.18,26.38.24,9.98.48,20.05.83,29.95,2.19,2.54.35,5.38.63,7.71,1.64l.84-1.91ZM83.24,36.93c-2.02.34-2.5,4.17-2.81,5.94-.67,3.87-1.19,8.51-.07,12.28l1.08-2.39c1.24-5.19,1.35-10.53,1.8-15.83ZM80.36,37.41l-4.08.84,2.87,3,1.2-3.83ZM75.52,38.41l-1.88.32,3.6,2.28-1.72-2.6ZM73.88,39.81c-1.65-.91-2.88-.74-4.67-.48-.33.05-.73.09-.36.47l9.83,4.56c-.09-.35.19-.83.15-1.09-.03-.23-2.73-1.96-3.09-2.09-.43-.15-.81.12-1.18.01s-2.84-1.04-2.34-1.63c.34.08,1.49.85,1.67.24ZM292.65,42.93l-61.89-3.36,2.76,2.15c15.56-.12,31.36.75,46.73,3.16,1.06.17,2.49.32,3.48.61.42.12.63-.09.52.55-16.49-1.75-33.05-3.43-49.65-3.35,2.77,2.56,5.29,5.36,7.59,8.35,11.5.79,23.28.66,34.68,2.5.92.15,2.11.37,2.99.62.4.12.67-.18.55.51l-37.18-2.15c8.65,14,7.26,28.98-.2,43.08-1.28,2.42-3.19,4.84-4.33,7.18-3.47,7.1-4.81,15.81-9.77,22.37l-4.42,6.25,30.96.13c3.15-4.81,1.68-10.67,4.5-15.64.79-1.39,2-2.1,1.78-3.98,4.15-8.41,11.24-16.31,14.34-25.23.74-2.12,1.01-4.94,1.87-6.76,1.77-3.73,5.62-7.81,7.76-11.66,4.13-7.41,3.42-11.6,5.07-19.39.42-1.99,1.06-4.08,1.84-5.95ZM101.23,59.47l-9.42-5.09c-1.97-.1-3.15-.8-4.33-2.34l-3.28-8.15-.48,6.47c2.33.23,2.29,1.31-.24.96.16,2.37,2.38,2.62,4.06,3.5,3.9,2.03,8.55,3.93,12.96,4.79.25.05.79.31.73-.13ZM106.75,58.99c-1.11-2.13-4.99-6.67-6.72-8.75-1.41-1.69-3.01-3.24-4.43-4.92-.01,1.59,2.34,4.5,1.44,6-1.25,1.16-2.61-.4-3.47-1.33l-2.64-4.43c.34,2.66,1.2,5.15.99,7.88,2.07.66,4.05,1.55,5.97,2.55,2.18,1.13,6.72,4.54,8.62,5.05.82.22,1.57.18,2.16-.49-.65-.5-1.3-1.01-1.91-1.56.1.19.84,1.49.12,1.2-.28-.12-3.84-3.77-4.32-4.31-1.67-1.89-3.94-4.85-5.25-6.98-.18-.3-.46-.53-.38-.93.47-.11.57.25.82.5,3.22,3.26,5.23,7.14,9.02,10.53ZM180.91,48.65c.3.5,6.11,2.09,4.54-.58-1.22-2.06-5.4-.84-4.54.58ZM146.41,48.04c-1.47,1.45-1.16,5.95,1.43,5.15,1.25-.39.66-2.49.63-3.43s.7-2.31-.82-2.3c-.4,0-.96.31-1.24.59ZM156.11,48.49c-4.02.61,2.92,5.8,4.4,3.93,1.61-2.05-2.46-4.22-4.4-3.93ZM194.71,51.61c-2.72.82,3.12,4.26,2.42,1.08-.23-1.05-1.49-1.36-2.42-1.08ZM73.88,53.72l-5.03-.96,4.26,1.14.78-.18ZM96.43,59.71c-4.87-.7-9.06-3.3-13.35-5.48l-1.03,1.76c3.6,2.05,9.15,3.71,13.3,3.96.26.02,1.13.17,1.09-.25ZM133.08,56.65c-.78.04-2.02.56-2.25,1.37-.32,1.17,1.54.9,2.26,1.13.86.27,1.97,1.26,2.82.58,1.27-1.77-1.28-3.17-2.84-3.08ZM163.57,59.68c.17-.11.29-.95.24-1.23-.3-1.64-2.49-1.78-3.8-1.61-.64.66,2.59,3.47,3.57,2.84ZM152.75,60.97c-1.08-.65-2.36-.19-3.19.65-2.39,2.42-.16,5.44,1.81,3,.47-.58,1.98-3.09,1.38-3.66ZM100.27,61.39c-3.8.14-8.44.07-11.99,1.56-1.95.82-2.5,1.59.11,1.8,5.65.47,11.82-.97,17.16-2.65.03-.37-.6-.4-.86-.45-2.04-.37-2.74.27-4.61.62-2.33.44-5.04,1.09-7.36,1.27-.32.02-1.48.2-1.55-.23l9.11-1.92ZM114.05,64.61c.26-.25.63-.39.85-.7-.33-.49-.36-.24-.66-.2-1.15.15-1.89,1.03-2.87,1.45-3.58,1.53-6.97,2-9.51,5.36-1.64,2.17-2.52,5.02,1.18,2.62,1.39-.9,2.52-2.34,3.84-3.36,2.18-1.68,5.27-3.34,7.17-5.18ZM130.97,64.52c-1.91-1.18-6.53,2.36-5.4,4.32.44.31,1.39-.14,1.8-.38.64-.38,4.1-3.23,3.6-3.94ZM70.29,79.85c.66.69,3.26-2.52,3.32-3.28.08-.91-1.28-.31-1.73-.04-1.11.67-1.85,2.02-1.59,3.32ZM195.81,80.26c-.2-.16-.31-.62-.66-.89-3.57-2.8-10.89-1.49-15.12-1.92-1.82-.18-3.75-1.06-5.75-1.21-3.17-.23-7.06.2-10.32.3-2.88.09-5.29,2.12-7.42,1.85-3.17-.4-6.55-1.62-9.47.88-.51.44-1.05,1.53-1.14,1.55-1.02.23-1.8-.64-1.52-1.69-1.34.46-3.5-.84-4.55-.36-.47.22-.73,1.02-1.58,1.07-.79.05-1.48-.76-2.19-.9-3.05-.63-3.21,2.22-5,2.33-.87.06-2.7-1.05-3.7-1.32-1.58-.42-3.18-.46-4.65.4-.86.5-1.79,2.21-2.49,2.32-1.45.12-2.77-.91-4.24-.89-2.36.04-3.9,2.12-6,1.87-1.64-.19-2.56-.89-4.55-.67s-3.3,1.68-4.6,1.88c-2.07.32-3.68-.74-6.23.24-1.64.64-1.24,1.38-1.57,1.67-.13.11-1.08-.18-1.6-.07-.71.15-1.28.63-1.73,1.16.44.8,1.16.46,1.75.64,1.11.34-.84,2.22.27,3.33.98.98,1.99.03,2.62.24.64.61.29,1.35,1.12,2.01,1.48,1.19,4.32,1.12,6.12,1.1.72,0,1.35-.33,2.15-.26.89.08,1.95.81,3.15.94s2.59-.11,3.79.05c1.06.14,2.2.78,3.41.91,1.63.17,3.38-.11,5,.03,2.73.24,5.19,1.28,8.13.93.87-.1,2.17-.8,2.89-.7s.75.89,1.4,1.26c1.4.82,5.83.84,7.49.67.87-.09,1.82-.62,2.7-.66,1.03-.04,3.21-.04,4.23.01.59.03.58.55.92.72,2.03.97,5.56.93,7.62.06,1.03-.44,2.36-1.84,3.04-2,1.44-.33,3.8.06,5.44-.08,3.01-.26,5.87-2.08,8.01-2.32.9-.1,1.88.45,2.8.44,6.14-.08,7.74-5.86,12.11-6.85,2.76-.63,6.3-1.6,7.94-4.29.29-.48.28-1.36.63-1.59,1.09-.71,3.59.5,4.52-1.18-.4-1.26-2.31-.33-3.18-1.03ZM18.72,165.45c.09,1.37.8,2.78,1.32,4.07,3.04,7.39,7.14,15.86,11.53,22.53,7.06,10.74,20.28,20.83,31.36,27.16,21.68,12.38,43.89,20.54,68.28,25.98,48.54,10.82,98.63,15.98,148.36,12.34,20.48-1.5,41.8-3.15,61.77-7.79,42.82-9.95,82.3-23.37,111.53-57.8,15.11-17.8,18.91-38.78,12.6-61.26-5.23-18.62-24.89-39.93-40.07-51.55-.65-.5-3.98-3-4.53-2.86l-2.06,2.61c9.79,4.49,18.13,12.24,25.31,20.14,12.27,13.5,20.43,26.05,19.32,45.21-.08,1.45-1.11,8.89-2.29,9.46-.42.2-.36-.29-.43-.52-.8-2.95.03-8.89-.16-12.32-.76-13.81-8.1-26.97-17.27-36.92-7.84-8.51-16.73-16.06-26.04-22.91-.37,0-2.34,2.77-2.71,3.3-4.85,6.91-5.81,15.02-9.36,22.54-1.78,3.77-4.21,7.2-6.13,10.9-4.83,9.33-5.04,12.02-14.37,18-2.25,1.44-4.63,3.23-7.13,4.38-11.76,5.41-25.91,9.28-38.19,14.09-14.5,5.69-28.53,12.53-43.06,18.1-5.82,2.23-11.79,4.07-17.56,6.42-8.2,3.34-16.5,7.69-24.72,10.78-2.51.94-4.8,1.56-7.36.41-.65-.3-2.72-1.59-3.2-2.07-1.85-1.86-.55-5.33-.46-7.67.31-8.25-.37-15.56.74-23.96.32-2.43.81-5.05,1.65-7.34-6.05,5.76-14.03,8.93-21.5,12.43-2.83,1.33-5.65,2.24-8.49,3.75-3.3,1.75-8.32,5.86-11.48,6.7-4.59,1.22-9.27,2.74-13.94,3.86-9.24,2.23-19.3,3.37-28.36,5.94-4.15,1.17-8.54,3.63-12.61,4.42-5.33,1.02-10.45-1.6-15.79-2.3-12.09-1.58-24.13-1.34-36.32-3.74-1.38-.27-6.01-.99-6.42-2.45-.11-.37-.26-2.07-.29-2.59-.05-.83-.04-1.8,0-2.63.07-1.36,1.2-5.9.48-6.72-7.54-2.77-14.24-7.08-20.04-12.58-1.18-1.12-3.11-3.73-4.21-4.42-1.68-1.05-5.07-2-7.1-2.98-10.21-4.91-20.96-13.15-27.19-22.69-1.3-2-2.25-4.21-3.59-6.12-10.63,15.9-12.31,35.44-4.36,52.91,11.07,24.34,37.75,42.6,61.77,52.63,1.4.59,10.08,3.55,10.36,4.03.18.3.12.64.12.96-.99-.72-2.43-.57-3.65-.79-26.29-4.82-59.73-30.08-71.16-54.27l-2.91-6.8ZM58.3,90.16c2.05.27,3.52-6.31,2.04-6.42-1.79,1.11-3.09,4.48-2.04,6.42ZM202.87,92.36c-1.37.22-1.87,2.77-.98,3.06,1.61.53,2.63-3.32.98-3.06ZM73.31,94.98c-2.26,3.57,2.89,4.43.82.09l-.82-.09ZM69.07,99.73c.09-.65-.2-3.64-1.28-3.32-1.15.35-.82,4.38,1.28,3.32ZM194.3,99.03l-3.06,4.49-.3,1.98c3.81.42,3.98-3.69,3.36-6.48ZM121.56,109.87c-2.46.31-3.03,6.02.14,5.44.8-.26,1.39-4.35,1-5-.31-.31-.69-.49-1.14-.43ZM154.78,115.4c-1.62,1.6,2.73,2.71,3.26.97.58-1.9-2.47-1.76-3.26-.97ZM143.62,116.1c-1.48.31-2.2,2.55-1.56,3.86,1.45,2.96,6.77,1.68,5.52-1.2-.55-1.28-2.13-.87-2.7-1.38-.5-.44.1-1.57-1.26-1.28ZM85.52,118.22c-2.4,1.51-.63,10.08,2.36,9.08.66-.42.43-1.7.29-2.39-.18-.89-1.66-5.34-2.04-6.12-.13-.27-.21-.67-.61-.58ZM92.89,120.91c-1.11,1.88,1.05,3.88,2.93,3.53,2.72-.5-1.68-4.81-2.93-3.53ZM248.03,134.52c-.15-.16-2.14.75-1.92,1.44.22.21,2.34-.65,1.92-1.44ZM221.65,158.02l23.63-13.9c1.55-1.24,3.65-2.44,5-3.88.29-.31.52-.34.39-.92-10.46,4.9-20.17,11.3-29.02,18.7ZM237.24,140.04c-1.65.43-3.01,1.66-3.84,3.11.41.08.7-.11,1.04-.28.44-.21,3.17-2.47,2.8-2.84ZM229.32,145.31c-.66-.22-2.42.7-2.39,1.32.04.92,2.59-.44,2.39-1.32ZM219.01,151.79c-.19-.17-2.63.48-2.16,1.44.23.23,2.37-.69,2.16-1.44ZM211.09,158.5c-.26-.25-2.82,1.52-2.4,1.92.62.27,2.75-1.58,2.4-1.92ZM183.51,172.41l-3.84,1.08c.47.56,1.84,0,2.45-.19.45-.14,1.56-.23,1.39-.89ZM173.43,175.04c-.43-.36-5.25,1.14-6.01,1.56-.33.18-.59-.02-.47.6,1.05-.19,2.13-.29,3.17-.55.26-.06,3.95-1.06,3.31-1.61Z"/>
  <path class="st0" d="M18.72,165.45l2.91,6.8c11.43,24.19,44.87,49.46,71.16,54.27,1.21.22,2.66.07,3.65.79,0-.32.06-.66-.12-.96-.28-.48-8.96-3.45-10.36-4.03-24.02-10.04-50.7-28.29-61.77-52.63-7.95-17.48-6.26-37.01,4.36-52.91,1.34,1.91,2.29,4.12,3.59,6.12,6.23,9.54,16.98,17.79,27.19,22.69,2.02.97,5.42,1.93,7.1,2.98,1.1.69,3.04,3.3,4.21,4.42,5.8,5.5,12.5,9.81,20.04,12.58.72.81-.41,5.35-.48,6.72-.04.83-.05,1.8,0,2.63.03.52.18,2.22.29,2.59.42,1.46,5.04,2.18,6.42,2.45,12.19,2.41,24.22,2.16,36.32,3.74,5.34.7,10.46,3.32,15.79,2.3,4.08-.78,8.47-3.24,12.61-4.42,9.06-2.57,19.12-3.71,28.36-5.94,4.67-1.13,9.35-2.64,13.94-3.86,3.16-.84,8.18-4.95,11.48-6.7,2.84-1.5,5.66-2.42,8.49-3.75,7.47-3.5,15.45-6.68,21.5-12.43-.83,2.29-1.33,4.91-1.65,7.34-1.11,8.4-.43,15.71-.74,23.96-.09,2.34-1.39,5.81.46,7.67.48.48,2.55,1.78,3.2,2.07,2.56,1.15,4.84.54,7.36-.41,8.22-3.09,16.52-7.44,24.72-10.78,5.78-2.35,11.74-4.19,17.56-6.42,14.53-5.57,28.56-12.42,43.06-18.1,12.28-4.82,26.43-8.68,38.19-14.09,2.51-1.15,4.88-2.94,7.13-4.38,9.33-5.98,9.54-8.68,14.37-18,1.92-3.7,4.35-7.12,6.13-10.9,3.55-7.52,4.51-15.62,9.36-22.54.37-.53,2.34-3.3,2.71-3.3,9.31,6.85,18.2,14.4,26.04,22.91,9.17,9.96,16.51,23.12,17.27,36.92.19,3.42-.64,9.37.16,12.32.06.23,0,.72.43.52,1.18-.57,2.21-8.01,2.29-9.46,1.12-19.16-7.05-31.71-19.32-45.21-7.18-7.9-15.52-15.65-25.31-20.14l2.06-2.61c.55-.13,3.88,2.36,4.53,2.86,15.17,11.62,34.84,32.93,40.07,51.55,6.31,22.47,2.51,43.46-12.6,61.26-29.23,34.42-68.71,47.84-111.53,57.8-19.97,4.64-41.3,6.29-61.77,7.79-49.73,3.64-99.82-1.52-148.36-12.34-24.39-5.44-46.61-13.6-68.28-25.98-11.08-6.33-24.3-16.42-31.36-27.16-4.39-6.67-8.48-15.13-11.53-22.53-.53-1.28-1.23-2.69-1.32-4.07ZM444.74,169.53c2.34-2.88,4.21-6.86,5.63-10.32,4.89-11.91,5.04-25.43.61-37.52-3.65-9.98-12.26-23.11-21.52-28.6-.8-.47-1.81-1.16-2.71-1.24,1.73,1.45,3.68,2.58,5.39,4.08,4.09,3.58,8.04,8.93,10.93,13.54,9.55,15.23,12.53,31.42,6.17,48.62-1.42,3.83-3.64,7.46-4.49,11.45ZM29.99,121.57c-2.1.31-3.15,3.36-3.84,5.15-4.9,12.7-4.71,26.47,1.4,38.65,9.65,19.22,25.65,33.17,44.41,43.12,2.21,1.17,4.62,2.44,6.96,3.23-1.92-1.45-4.1-2.53-6.12-3.83-16.72-10.69-32.1-24.14-41.65-41.8-6.83-12.63-6.96-23.18-3.3-36.95.27-1.03,2.46-7.23,2.14-7.57ZM428.9,128.29c-.35-.34-.43.02-.48.35-.29,2.26.39,4.52.49,6.71.38,8.74-2.14,15.19-6.45,22.59-6.92,11.9-16.88,21.67-27.87,29.81,5-2.09,9.34-5.24,13.32-8.86,10.72-9.77,24.38-27.8,22.87-43.02-.26-2.6-.91-5.18-1.89-7.58ZM49.65,145.31c-.79-.67-.72,2.15-.69,2.49.74,7.22,10.15,21.37,14.96,27,14,16.37,41.01,29.35,61.35,35.79,10.48,3.32,21.75,6.02,32.81,4.97.37-.3,0-.44-.36-.48-2.45-.29-4.96-.21-7.41-.51-16.75-2.02-39.2-11.52-54.04-19.59-17.65-9.6-30.85-19.21-40.9-37.05-2.33-4.14-3.91-8.25-5.72-12.63ZM358.14,203.1c-17.91,5.8-36.17,10.23-54.84,12.91-20.65,2.97-42.2,4.91-63.06,5.54-10.81.32-21.57.09-32.36,0-4.91-.04-9.9-.19-14.76.37.4.42,1.09.42,1.63.53,5.79,1.12,12.5,1.07,18.41,1.26,46.77,1.52,96.01-5.26,140.74-18.51l4.25-2.1ZM414.51,209.57c-1.92.48-3.73,1.86-5.51,2.76-24.15,12.19-52.61,21.82-79.16,27.1-24.04,4.78-49.25,8.99-73.77,9.95-.46.02-.92.23-1.43.25-11.77.38-22.71-.76-34.3-1.22-1.74-.07-4.07-.13-5.78,0-.43.03-.78-.07-1.06.37,0,.45,5.24,1.41,5.91,1.52,33.94,5.62,72.12-.06,105.63-6.55,27.96-5.42,57.31-14.68,81.95-29.1,2.56-1.5,5.29-3.15,7.51-5.07ZM320.96,236.43c-1.75.31-3.4,1.04-5.13,1.47-24.84,6.09-53.23,5.33-78.7,4.99-16.03-.21-32.28-.04-48.19-1.94-7.49-.9-19.54-4.18-26.42-3.8-.29.02-1.05-.18-.84.36.13.33,5.86,1.72,6.72,1.92,28.67,6.69,60.92,5.92,90.31,5.38,17.73-.33,42.12-.65,58.78-6.7,1.13-.41,2.55-.91,3.47-1.68Z"/>
  <path class="st0" d="M336.37,35.43c.19.2,1.44.52,1.38.66-1.21,1.34-2.16,2.94-2.64,4.67.44.08.72-.3.96-.6.72-.87,2.09-4.03,3-4.43.14-.06.41-.04.35.12-.59.92-1.55,2.06-1.32,3.24,1.25-.77,1.59-3.38,3.12-3.84.92-.27-.62,1.52-.73,1.91-.14.48-.14.95-.11,1.45,1.29-1.06,1.5-4.17,3.59-2.28l-.71,1.56,1.31-1.44,17.77,9.34c-.24.78-.54,1.4-.37,2.28.14.73,1.06,1.04,1.15,1.48.11.55-1.05,2.57-.67,3.44,1.32-.65.57-3.97,2.4-3.23.07,1.07-.5,1.95,0,2.99l1.08-3.11c.61-.09.21.26.13.61-.1.43-.28.85-.25,1.3.95-.02.99-1.21.96-1.92,8.87-.43,18.47,1.41,25.08,7.67.42.95-3.55,3.51-3.97,4.44-.06.13-.05.41.12.35l3.48-2.4c.48.51-2.4,2.75-2.4,3.59,1.67.12,2.19-3.74,3.84-1.68-.54.06-2.54,1.7-2.16,2.16.93-.52,2.05-1.05,2.43-2.13l.93.33c-.74.82-1.96,1.29-2.16,2.52.3.3,2.58-1.66,2.43-2.37,1.36.12,2.45,1.01,3.87,1.47,5.34,1.76,14.68,3.36,18.66,7.72.86.94,1.06,2.36,2.64,2.04.15.86-.37,1.34-.77,1.99-1.61,2.6-4.85,5.44-6.77,8.1-4.34,6-5.39,11.61-7.81,18.33-2.8,7.77-10.7,23.42-16.55,29.01-7.9,7.54-28.63,12.65-39.47,16.66-16.84,6.23-32.59,13.85-49.06,20.74-13.49,5.64-26.82,10.51-40.21,16.63-2.42,1.11-5.66,3.24-8.1,3.89-.62.17-.94.32-1.63.18-.64-.13-4.77-2.48-4.93-2.99-.44-3.7.7-7.33.92-10.97.39-6.43-.31-13.47.23-19.91.41-4.85,4.11-7.45,6.2-11.54,1.32-2.58,1.52-4.67,2.36-7.24.69-2.13,1.55-1.66,2.8-2.95,3.94-4.04,1.94-10.68,4.59-15.79,1.12-2.16,3-2.89,2.7-5.93,5.08-7.55,10.89-15.02,13.55-23.86.51-1.68.87-4.75,1.57-6.11.8-1.55,4.2-5.03,5.52-6.95,5.81-8.42,7.13-16.19,9.03-25.98.82-4.19,2.23-8.3,4.23-12.07.74-1.39,1.65-3.59,3.57-3.39-2.01,3.28-4.79,7.76-4.32,11.76.06.53.18.96.61,1.31-.09-4.21,1.97-9,4.34-12.45.27-.39.58-1.35,1.05-.62-1.1,2.25-2.47,4.9-2.94,7.37-.06.32-.45.47.18.42,1.24-1.33,3.3-8.81,4.56-9.35.29-.13.44.04.35.35-.46,1.53-2.29,3.51-2.04,5.4,1.48-1.27,2.23-6.17,4.08-6.71.86-.25-.16,1-.25,1.19-.55,1.2-1.27,2.7-1.55,3.97-.08.38-.41.47.12.83l3.12-6.23c7.62-2.59,15.19.37,22.66,1.8.83.16,4.65.46,4.78.97-.2.63-.41,1.68.09,2.2ZM303.45,58.51c-.79-.01-2.86-2.61-3.35-2.16.09.65.64,1.45,1.07,1.92,3.13,3.42,12.03,5.69,16.56,5.99,2.37.15,6.27-.41,8.34.05,1.34.3,2.52,2.41,3.65,3.3,3.89,3.04,10.55,2.72,15.23,3.12-.25,1.42,1.38,2.91,2.42,3.7,3.56,2.69,11.02,4.44,15.44,4.71,3.15.19,6.48.18,9.48-.73.56-.6-2.06-1.08-2.34-1.13-7.19-1.4-14.78-.72-21.38-5-.81-.52-2.25-2.24-2.48-2.34-1.57-.69-5.86-.97-7.9-1.43-2.33-.53-4.9-1.2-6.98-2.37-1.61-.9-3.08-2.51-4.6-3.32-2.32-1.24-7.68-.68-10.56-.95-2.13-.2-4.23-.77-6.36-.96.22-.46.3-.8.01-1.27-.1-.16-1.98-1.74-1.69-.77l.47,1.08-1.8-1.92-.12.96-.96-.48.24.96c-.73.55-2.33-2.19-2.76-2.63l.36,1.68ZM350.46,61.39c-.5-.51-2.99,3.25-3.22,3.62-.85,1.36-1.84,2.93-2.06,4.53l5.27-8.15ZM346.62,63.79c-.45-.09-.58.22-.82.5-.46.53-2.48,3.8-2.06,4.3.49.1.56-.24.76-.55.25-.36,2.28-4.07,2.11-4.24ZM297.42,64.06h-1.13c-1.37,5.3,3.28,5.7,1.13,0ZM302.37,64.56c-1.58.36-1.76,3.63-.2,3.75,1.33.1,1.45-3.23.2-3.75ZM344.23,64.99c-.44-.46-1.53,1.74-1.8,1.92l-.12-.72c-.83.06-1.33,2.65-.6,2.63.57-.31,2.8-3.53,2.52-3.83ZM312.99,68.65c-.96.08-4.66.59-4.76,1.74s1.47,1.23,2.29,1.3c1.54.14,3.21-.12,4.76.03,1.11.11,8.12,2.72,5.8-.76-1.41-2.12-5.79-2.51-8.1-2.31ZM392.2,81.05c1.57-1.56,3.12-3.91,3.83-5.99-1.62,1.5-3.26,3.82-3.83,5.99ZM312.32,78.65c1.39-.44,4.69,1.52,5.39,0,1.3-2.84-5.57-2.87-5.39,0ZM394.6,80.09c.85-.59,1.87-1.95,2.28-2.88.16-.36-.06-.72-.24-.71-.39.01-2.42,2.84-2.04,3.59ZM397.72,77.94c-.39-.42-2.36,2.3-2.16,2.87.4.43,2.42-2.59,2.16-2.87ZM398.92,78.89c-1.04.09-1.3,1.32-1.2,2.16h.96c-.33-.86.2-1.33.24-2.16ZM404.92,82.49c.68-.49,1.4-1.17,1.82-1.89.23-.39.53-.31-.03-.74-.73.71-1.6,1.58-1.8,2.63ZM302.66,80.88c-1.62-1.68-5.9.38-4.75,2.89,1.88,1.37,3.09-1.88,5.05-2.01.09-.13-.16-.74-.3-.88ZM348.22,80.6c-1.02.35.36,4.05,1.15,4.54,2.72,1.69,1.37-5.4-1.15-4.54ZM335.33,83.19c.82-2.76-6.52-3.16-5.14-.93.46.74,4.24,1.62,5.14.93ZM408.03,81.29c-.63-.49-1.86,1.59-1.68,2.15.47.51,1.58-1.88,1.68-2.15ZM285.46,84.65c1.05.05,4.84-.5,3.73-2.17-1.6-1.08-4.19.08-3.73,2.17ZM324.83,83.71c-1.32,2.19,5.83,4.81,4.91,1.88-.43-1.38-3.61-1.86-4.91-1.88ZM355.98,89.44c.45-.49-.68-4.96-2.16-4.55-.43.45.69,4.85,2.16,4.55ZM368.39,87.36c-2.23-1.84-2.5,2.55-1.87,3.85,2.49,1.74,3.47-2.53,1.87-3.85ZM372.57,91.32c.83,1.32,2.09-1.79,1.04-2.12-.93-.29-1.35,1.63-1.04,2.12ZM279.46,94.24c1.33-.35,1.95-1.46,3.46-1.93.86-.27,6.86-.69,3.47-2.48-2.35-1.25-7.64,1.28-6.94,4.42ZM403.48,91.6c-8.06,1.84-13.12,11.2-20.39,14.02-2.64,1.02-2.12.31-4.25-.06-2.46-.42-15.08,3.98-18.48,4.91-5.16,1.42-10.38,1.96-15.17,4.5-.47.25-2.6,1.41-2.81,1.62-.56.56.16.9.31,1.37.42,1.29-.88,2.63-2.05,3.01-.55.18-1.26.05-1.76.34-.67.39-1.63,2.64-3.28,2.17-.19-1.67,3.76-2.23,3.33-3.91-.52-2.02-5.7.16-6.99.61-5.72,2.03-12.32,4.8-17.85,7.33-1.25.57-10.36,5.08-10.39,5.68-.02.43.63.26.9.19,1.91-.5,4.49-1.9,6.47-2.65,4.89-1.86,9.87-3.51,14.75-5.4,2.27-.87,5.84-2.81,7.98-3.29.61-.14.23.17.17.41-.85,3.33,2.09,3.91,4.38,2.23.69-.5,1.25-1.62,1.67-1.93s1.26-.36,1.89-.75c1.7-1.03,2.5-2.92,1.6-4.75,5.65-2.19,11.73-2.45,17.56-3.91,3.02-.75,16.51-6.07,17.8-5.92.77.09,1.37.74,2.41.72,5.15-.11,11.88-7.6,15.61-10.79,1.54-1.32,5.22-3.55,6.25-4.79.27-.32.42-.51.34-.97ZM335.85,99.01c3.05,1.26,6.22-3.48,4.78-6.1-1.43-.69-1.61,1.15-2.35,2.22-.48.7-2.95,3.13-2.43,3.88ZM344.05,98.25c.24.24.81.37,1.13.19,1.13-.86,1.44-2.88.08-3.69-1.4-.41-1.74,2.97-1.21,3.5ZM310.59,99.58c-1.37.16-6.1,1.24-5.11,3.29.76,1.55,4.12.12,5.35-.17.98-.23,3.55-.24,3.85-1.2.63-2.06-2.85-2.07-4.09-1.92ZM353.6,101.69c-.28.74-.55,1.73.22,2.26,1.75.88,1.7-2.82-.22-2.26ZM359.97,101.93l-.89,1.07c.58,2.53,2.96-.19.89-1.07ZM314.42,110c.27-.26.68-1.15.31-1.49-1.37-1.25-7.32.93-6.7,2.85.37,1.16,5.76-.72,6.39-1.35ZM289.06,167.85c18.5-6.93,36.19-15.87,54.63-22.96,11.9-4.57,26.14-6.61,36.92-12.73,9.21-5.23,10.07-12.98,14.19-21.54.16-.34.36-.63.28-1.04-3.59,4.25-4.53,10.02-7.58,14.6-6.91,10.41-22.58,12.43-33.62,15.78-11.41,3.47-22.29,9.08-33.24,13.77-9.1,3.9-18.78,7.45-27.67,11.66-.97.46-2.53,1.11-3.36,1.67-.31.21-.66.27-.55.77ZM275.56,111.56c-1.11-.89-5.11.06-4.71,1.69.31,1.26,4.81.08,4.98-.47l-.27-1.22ZM288.98,116.23c.7-.83.18-1.44-.78-1.59-2.45-.39-6.34,1.47-8.15,3.09-.65.59-2.27,2.05-1.58,2.98s4.62-1.76,5.49-2.18c.99-.47,4.55-1.74,5.01-2.3ZM269.83,119.85c.11-.07.15-.6.52-.79.58-.31,1.66-.12,2.29-.59,1.84-1.37-.95-3.26-3.26-1.34-1.7,1.41-.63,3.36.45,2.72ZM303.6,127c.81-.89.94-2.49-.51-2.57-1.12-.06-3.15,1.06-4.59,1.19-1.16.1-4.9-.88-3.46,1.6,1.31,2.27,6.89,1.62,8.56-.22ZM364.62,128.53c.87-.5.96-1.38,1.98-1.73.78-.27,2.72-.51,3.01.46.68,2.25-2.55,1.86-2.35,2.82,2.49,1.65,5.49-2.05,3.37-4.08s-6.24-.39-6.01,2.53ZM343.99,125.89c-2.3-.53-6.24,3.34-3.83,5.15,1.87,1.4,5.26-.63,5.05-2.87-.04-.4-.24-.93-.62-1.07-.64-.25-.45,1.64-1.08,1.79-1.12.83-2.83.98-1.67-.72.57-.84,1.83-1.32,2.16-2.27ZM281.56,129.31c-1.15-1.15-3.52,1.69-2.84,2.47,1.18,1.36,4.06-1.26,2.84-2.47ZM330.08,131.4c3.25-.99,4.03,3.34,1.08,3.14-.85-.06-1.16-.88-1.92-1.22-1.09,1.1.26,2.67,1.46,2.86,3.48.55,5.65-4.4,2.36-5.72-1.06-.43-2.94-.62-2.97.93ZM279.4,133.61c-.55.14-1.41,1.04-2.29,1.32-1.26.41-4.03-.16-3.61,1.34.63,2.24,7.44,1.44,7.41-1.63,0-.91-.7-1.24-1.52-1.02ZM294.81,142.68c.95-.07,1.92-.37,2.82-.66,1.62-.52,7.71-2.62,7.72-4.5-.26-1.51-2.14-1.91-3.47-2.03-3.67-.33-7.82,1.01-11.27,2.15-11.85,3.91-23.47,8.6-34.91,13.55l-.47.6c5.63-1.62,10.91-4.28,16.43-6.24,6.35-2.25,23.67-8.68,29.51-8.58.74.01,3.41.16,2.12,1.12-1.61,1.19-9.55,3.17-9.8,3.63-.13.24-.17.54-.12.8,3.05,1.45-2.41,5.8.25,6.99,2.87,1.27,6.45-5.88,5.99-6.35-2.46.39-3.07,3.86-5.27,5.03.03-2.09,2.15-3.33.48-5.51ZM267.17,137.22c-1.47-.56-4.37-.86-4.26,1.38,1.55-.06,5.52,1.6,4.26-1.38ZM260.94,140.57c-1.16.08-3.52.86-2.97,2.35.53.78,6.75,1.14,5.29-1.7-.7-.54-1.46-.72-2.33-.66Z"/>
  <path class="st0" d="M191.67,141.23c4-1.17,7.98-3.44,11.59-5.56,11.88-6.99,23-16.09,31.11-27.28.44-.05.21.5.13.73-3.93,10.73-12.23,25.11-20.03,33.45-27.26,29.13-68.98,38.17-106.99,27.33-13.8-3.94-27.71-9.8-37.9-20.14-.04-.18.22-.15.35-.11,4.1,1.05,10.48,3.82,14.52,3.97.37.01.6.1.72-.38-17.64-4.67-35.06-11.73-47.25-25.79-9.42-10.86-13-21.45-10.01-35.89,2.71-13.05,10.44-24.08,20.73-32.29l6.3.44-7.68,6.34c-19.98,19.95-9.91,50.93,12.26,64.25.59.36,3.91,2.37,4.3,2.06.44-.35-.34-.53-.45-.62-2.45-1.81-5.12-3.22-7.57-5.15-12.49-9.82-20.19-27.04-16.56-42.91,2.31-10.12,9.05-17.95,17.26-23.87l15.48.85-4.72,1.87c-7.31,3.99-12.54,10.89-16.43,18.1-2.28,4.22-4.53,9.03-5,13.83-.51.34-.58-1.02-.84-.24-.14.42-.32,1.78-.35,2.28-1.48,23.56,27.67,39.71,47.86,42.31,24.56,3.17,51.94.14,75.68-6.59,2.49-.71,5.21-1.83,7.66-2.41.24-.06.78-.32.73.13l-21.06,6.89c-24.88,4.22-51.46,7.3-76.14.48-5.1-1.41-9.98-3.45-14.94-5.21l-.12.48c10.43,5.5,22.16,8.63,33.94,9.59,25.03,2.05,55.24-1.58,78.86-10.13,24.28-8.79,53.52-26.34,61.35-52.57,2.07-6.92,2.57-17.38-1.57-23.62-.18-.28.06-.62-.59-.48.73,2.6,1.72,5.13,2.12,7.83,1.12,7.63-.83,14.45-4.07,21.27-.79,1.66-1.74,3.51-2.84,4.95.59-3.35,1.58-6.66,2.09-10.02,3.24-21.57-13.04-35.34-31.89-41.12-17-5.2-43.44-8.27-60.92-5.38-1.77.29-3.57.69-5.22,1.37l1.47-10.16c.08-.31.29-.34.57-.39,1.9-.35,5.53.07,7.69.01,30.5-.78,64.57-.75,88.63,20.73,17.98,16.05,16.7,35.78,4.89,55.25-8.88,14.65-21.18,25.43-35.62,34.41-3.82,2.37-8,4.27-11.49,7.09ZM185.19,141.48c-.25-.2-5.2,1.94-6.05,2.22-21.3,6.95-45.49,11.84-67.96,11.46-2.85-.05-5.52-.49-8.4-.26-.43.03-.78-.07-1.06.37,0,.64,6.3,1.48,7.07,1.56,14.83,1.41,32.18-1.34,46.66-4.67,9.27-2.13,21.13-5.2,29.27-10.08.14-.08.93-.22.47-.59ZM130.74,171.93c.09.44.47.45.83.49,6.96.78,17.17-.72,24.12-2.04,13.39-2.55,28.08-7.51,39.89-14.32,1.94-1.12,4.91-2.82,6.58-4.21.27-.23.66-.27.54-.77-13.52,8.54-28.38,14.63-44.09,17.91-6.4,1.33-13.06,2.35-19.6,2.71-2.75.15-5.54-.23-8.27.24Z"/>
  <path class="st0" d="M292.65,42.93c-.78,1.87-1.42,3.96-1.84,5.95-1.65,7.78-.95,11.97-5.07,19.39-2.14,3.85-5.99,7.93-7.76,11.66-.86,1.82-1.13,4.64-1.87,6.76-3.1,8.92-10.19,16.82-14.34,25.23.22,1.88-.99,2.59-1.78,3.98-2.83,4.97-1.36,10.83-4.5,15.64l-30.96-.13,4.42-6.25c4.95-6.56,6.3-15.27,9.77-22.37,1.14-2.34,3.05-4.76,4.33-7.18,7.46-14.1,8.84-29.08.2-43.08l37.18,2.15c.12-.69-.15-.4-.55-.51-.88-.25-2.07-.47-2.99-.62-11.4-1.84-23.17-1.72-34.68-2.5-2.3-3-4.83-5.79-7.59-8.35,16.6-.07,33.16,1.6,49.65,3.35.11-.63-.1-.42-.52-.55-.99-.29-2.42-.44-3.48-.61-15.37-2.41-31.17-3.28-46.73-3.16l-2.76-2.15,61.89,3.36Z"/>
  <path class="st0" d="M195.81,80.26c.86.7,2.78-.23,3.18,1.03-.94,1.67-3.44.47-4.52,1.18-.35.23-.34,1.1-.63,1.59-1.64,2.7-5.17,3.67-7.94,4.29-4.37.99-5.97,6.77-12.11,6.85-.93.01-1.91-.54-2.8-.44-2.14.24-5,2.06-8.01,2.32-1.63.14-3.99-.24-5.44.08-.68.15-2.01,1.56-3.04,2-2.06.87-5.59.91-7.62-.06-.35-.17-.33-.69-.92-.72-1.02-.05-3.2-.06-4.23-.01-.88.04-1.83.57-2.7.66-1.67.18-6.1.15-7.49-.67-.64-.37-.69-1.16-1.4-1.26s-2.03.6-2.89.7c-2.94.35-5.4-.69-8.13-.93-1.62-.14-3.38.14-5-.03-1.21-.13-2.35-.77-3.41-.91-1.2-.16-2.55.08-3.79-.05s-2.26-.87-3.15-.94c-.8-.07-1.43.25-2.15.26-1.8.02-4.63.09-6.12-1.1-.83-.67-.48-1.41-1.12-2.01-.63-.21-1.64.74-2.62-.24-1.11-1.11.84-2.99-.27-3.33-.6-.18-1.32.16-1.75-.64.45-.53,1.03-1.02,1.73-1.16.52-.11,1.48.18,1.6.07.32-.29-.08-1.03,1.57-1.67,2.55-.99,4.16.07,6.23-.24,1.3-.2,2.63-1.66,4.6-1.88s2.91.48,4.55.67c2.1.24,3.64-1.83,6-1.87,1.47-.03,2.79,1.01,4.24.89.7-.11,1.62-1.81,2.49-2.32,1.47-.86,3.07-.82,4.65-.4,1,.27,2.83,1.37,3.7,1.32,1.79-.11,1.95-2.96,5-2.33.71.15,1.41.95,2.19.9.85-.05,1.11-.85,1.58-1.07,1.05-.49,3.21.81,4.55.36-.28,1.05.5,1.92,1.52,1.69.09-.02.63-1.12,1.14-1.55,2.93-2.5,6.31-1.28,9.47-.88,2.12.27,4.54-1.76,7.42-1.85,3.27-.1,7.15-.53,10.32-.3,2,.14,3.93,1.02,5.75,1.21,4.22.43,11.55-.89,15.12,1.92.35.27.47.73.66.89Z"/>
  <path class="st0" d="M78.68,44.85c-.38,2.37-1.3,10.59.86,11.96.99.62,1.9-.36,2.49.5-3.96-.05-7.92-.74-11.88-.95s-13.92-.85-17.28,0c-.4.1-.7-.24-.58.48h13.32c6.05.37,12.13.7,18.15,1.51l3.54,1.37c-.91-.02-1.84.04-2.75,0-11.76-.55-23.76-.62-35.5-1.92-1.91-.21-4.42-.51-6.18-1.25-5.02-2.13,3.32-3.13,4.98-3.3,6.36-.64,11.66-.31,17.95.51,2.26.29,7.02,1.57,8.91,1.43.37-.03.61-.04.83-.38l-.71-.36c.17-.46.72-.08.46-.93-7.24-2.82-15.21-3.73-22.81-5.37-3.82-.83-16.88-3.18-19.23-5.47-.91-.89-.14-1.12.75-1.34,5.45-1.35,20.2,1.71,25.9,3.47,3.89,1.19,8.39,3.59,12.1,4.45.55.13,1.06.24,1.63.17-.76-1.09-2.19-1.51-3.37-2.03-6.05-2.67-12.6-4.05-18.62-6.8-2.87-1.31-5.71-2.73-7.75-5.2-.13-.6,1.36-.78,1.8-.79,3.05-.06,4.88,1.2,7.56,1.99,2.88.85,5.88,1.36,8.75,2.28l.25-.48c-2.53-1.29-5.47-1.64-8.1-2.69-.56-.22-3.67-1.64-3.53-2.22,3.72-1.79,7.64,1.35,10.79,3.12.45.25,1.47.54,1.68.72.45.39.04,1.26,1.03,1.85.85.51,1.77.28,2.58.54s2.44,1.42,3.42,1.85c2.8,1.22,5.63,2.41,8.56,3.32ZM77.72,47.48c-.22-.5-.89-.7-1.35-.92-7.57-3.71-15.94-6.42-23.83-9.38-.13.64.16.41.47.6,3.49,2.05,9.26,3.69,13.19,5.29s7.52,3.71,11.52,4.43ZM75.08,51.32c-5.33-1.47-10.66-3.03-16.07-4.2-3.23-.7-6.52-1.54-9.84-1.55l25.79,6.23.12-.47Z"/>
  <path class="st0" d="M116.34,40.05c.03-.87-.57-1.55-1-2.23-3.35-5.36-8.28-10.36-11.71-15.62-.71-1.08-1.81-2.62-1.56-3.96,2.64,2.6,5.19,5.27,7.18,8.41,3.18,5.03,7.54,11.45,9.78,16.84.53,1.28,1.37,2.47-.72,2.53-3.13-4.72-10.21-5.9-15.51-6.44-2.56-.26-5.24,0-7.67-.24-1.4-.14-2.71-.42-2.25-2.12,5.88-1.65,12.42.67,18.13,2.32l.55-.32c.2-.77-1.8-1.95-2.42-2.37-5.37-3.68-11.5-6.51-16.85-10.25-2.74-1.92-10.7-7.48-12.55-9.63-.28-.32-1.12-1.77-.94-2.08.95-1.65,5.64,1.45,6.74,2.16,5.77,3.73,10.07,9.58,15.97,13.05.5.29,1.76,1.2,2.25,1.1.64-.39,0-.76-.35-1.08-2.03-1.92-4.69-3.33-6.73-5.51-.28-.3-2.4-2.78-2.15-3,4.59,1.28,7.92,4.91,11.63,7.67.33-.17.01-.63-.11-.85-.67-1.27-4.16-4.3-5.42-5.37-5.52-4.71-12.27-8.12-16.42-14.27,1.17-.12,2.57,1.08,3.53,1.75,2.7,1.89,5.14,4.36,7.77,6.38,1.24.96,5.44,3.43,6.08,4.23,3.68,4.57,6.94,9.69,10.59,14.35.3.38,3.87,4.97,4.17,4.58ZM113.94,38.85c.18-.18-.47-.96-.62-1.17-2.53-3.54-7.02-7.78-10.58-10.29-.37-.26-2.73-1.94-2.95-1.72-.11.5.26.55.54.77,3.24,2.55,6.04,4.89,8.93,7.86.45.46,4.14,5.1,4.67,4.56Z"/>
  <path class="st0" d="M107.95,37.65c-1.76-.38-3.46-.99-5.23-1.36-2.23-.46-9.58-1.83-10.72.65-.42.92.26.97.44,1.43.12.29-.01.63.21.89.28.32,1.45.74,1.91.86,3.8,1.03,9.08.87,13.19,1.68,2.23.44,4.35,1.2,6.43,2.09.02.35-.86.42-1.11.45-3.28.32-6.4.17-9.63,1.17-1.5.46-3.43,1.07-3.53,2.94-1.63-1.49-3.02-3.21-4.55-4.8-.39-.41-1.01-.63-1.33-1.07-1.68-2.27-3.86-8.23-3.85-11.04,0-1.32,1.42-2.66.98-4.19l16.79,10.31Z"/>
  <path class="st0" d="M130.25,32.14l-.85-4.3c-2.16-1.89-2.91,2.37-3.36,3.82l-.83,6.72c.01-1.76-1.58-6.85-3.19-7.5-1.12-.45-1.07.73-1.25,1.5-.45-.83-1.82-2.03-2.7-1.14-1.64,1.64,2.91,10.41,3.54,12.53.12.58-.43.33-.81.37l-9.51-16.55,20.87-3.84-1.92,8.39Z"/>
  <path class="st0" d="M88.27,26.87c-.33,1.87-2.61,4.8-4.48,5.24-.43.1-.24-.39-.48-.45-2.08-.51-4.31,0-6.4-.04l-5.19-10.99c.82,3.86,2.46,7.8,4.56,11.15l-2.13.33c-1.89-4.4-4.57-9.11-5.44-13.87-.34-1.87-.76-5.09.97-6.26.57,0,1.6,1.85,1.93,2.41,2.8,4.83,4.33,11.02,7.07,15.96.68.43,1.44-.6,1.99-.9.73-.39,3.67-1.34,3.76-1.76.13-.6-2.45-1.43-3.04-1.75-.79-.45-3.38-1.79-1.89-2.46,2.02-.91,6.66,2.87,8.77,3.39Z"/>
  <path class="st0" d="M293.61,40.29l-.84,1.91c-2.34-1.01-5.18-1.29-7.71-1.64-9.9-1.37-19.97-1.72-29.95-2.19-8.79-.42-17.56-1.08-26.38-.24l-2.28-1.67c.46.02.81.23,1.3.25,10.46.47,21-.47,31.44.47l34.42,3.12Z"/>
  <path class="st0" d="M106.75,58.99c-3.79-3.39-5.8-7.27-9.02-10.53-.25-.25-.34-.61-.82-.5-.08.4.2.63.38.93,1.31,2.13,3.58,5.1,5.25,6.98.48.54,4.04,4.19,4.32,4.31.72.3-.02-1.01-.12-1.2.61.54,1.26,1.06,1.91,1.56-.59.66-1.34.71-2.16.49-1.91-.51-6.45-3.92-8.62-5.05-1.92-1-3.9-1.89-5.97-2.55.21-2.73-.65-5.21-.99-7.88l2.64,4.43c.86.93,2.22,2.49,3.47,1.33.9-1.49-1.46-4.41-1.44-6,1.42,1.68,3.02,3.23,4.43,4.92,1.73,2.07,5.61,6.61,6.72,8.75Z"/>
  <path class="st0" d="M66.21,34.78l-.15.49c-1.1.02-1.73,1.64-2.65,1.24-5.62-4.14-13.49-6.35-16.86-12.89.07-.74,2.06-.02,2.52.11,4.32,1.32,12.11,6.38,15.44,9.5.54.51.81,1.44,1.7,1.54ZM62.85,34.53l-.5-.82-11.49-7.81c-.11.47.24.57.5.81,1.54,1.48,4.56,3.64,6.38,4.89.57.39,4.8,3.22,5.11,2.92Z"/>
  <path class="st0" d="M135.29,18.95c.66,5.42-.23,11.23-1.27,16.59-.23,1.15-1.04,5.77-1.84,6.32-.12.08-.2.18-.37.11-.37.05-.42.01-.36-.36.09-.56.64-1.58.84-2.28.85-2.92,1.79-6.06,1.44-9.11l-3.69,13.04-.98.14c.97-3.64,1.45-7.39,2.23-11.07.54-2.56,2.24-11.43,3.45-13.08.16-.22,0-.42.55-.3Z"/>
  <path class="st0" d="M87.08,34.54l3.6,18.22c-1.59-.32-2.67-2.6-3.32-3.99-.96-2.05-1.68-4.56-2.08-6.79-.17-.93-.77-4.99-.56-5.6.05-.14,2.19-2.02,2.36-1.84Z"/>
  <path class="st0" d="M221.65,158.02c8.85-7.4,18.56-13.8,29.02-18.7.13.58-.1.61-.39.92-1.35,1.44-3.45,2.64-5,3.88l-23.63,13.9Z"/>
  <path class="st0" d="M101.23,59.47c.06.44-.48.18-.73.13-4.41-.86-9.06-2.76-12.96-4.79-1.68-.87-3.9-1.12-4.06-3.5,2.53.34,2.57-.74.24-.96l.48-6.47,3.28,8.15c1.18,1.54,2.36,2.24,4.33,2.34l9.42,5.09Z"/>
  <path class="st0" d="M82.76,32.38c.06.35-.42.32-.67.4-1.3.44-5.27,1.07-5.98,1.81-.59.62-.33,1.79.41,2.22,0,.57-2.43.31-2.99.36-1.26.12-7.98,1.31-8.52.72.06-.82,1.12-1.33,1.76-1.72,4.79-2.92,10.58-3.15,15.99-3.79Z"/>
  <path class="st0" d="M83.24,36.93c-.45,5.3-.55,10.64-1.8,15.83l-1.08,2.39c-1.12-3.76-.6-8.41.07-12.28.31-1.77.79-5.6,2.81-5.94Z"/>
  <path class="st0" d="M114.05,64.61c-1.89,1.84-4.99,3.5-7.17,5.18-1.32,1.02-2.44,2.45-3.84,3.36-3.71,2.4-2.83-.45-1.18-2.62,2.54-3.36,5.93-3.83,9.51-5.36.99-.42,1.73-1.3,2.87-1.45.31-.04.34-.29.66.2-.22.31-.59.44-.85.7Z"/>
  <path class="st0" d="M100.27,61.39l-9.11,1.92c.07.44,1.23.26,1.55.23,2.33-.18,5.04-.84,7.36-1.27,1.86-.35,2.57-.99,4.61-.62.26.05.9.08.86.45-5.34,1.68-11.51,3.12-17.16,2.65-2.6-.22-2.05-.99-.11-1.8,3.55-1.49,8.19-1.42,11.99-1.56Z"/>
  <path class="st0" d="M124.5,45.8l-2.52-6.71c-.6-.09-.34.41-.25.74.5,1.99,1.31,4.17,2.05,6.1l-.58-.14-4.35-11.48-.11-2.41c.64-.73,2.84,3.98,2.99,4.32,1.02,2.28,1.52,4.85,2.89,6.94.11-1.38-.56-3.14-1.01-4.5-.61-1.82-2.33-4.92-2.23-6.64.02-.36-.17-.7.36-.6,2.45,2.92,2.43,6.83,3.05,10.38.07.42.51.7.56,1,.14.99-.43,2.14-.85,3Z"/>
  <path class="st0" d="M95.71,49.88c-.66.78-4.05-5.66-4.28-6.15-.87-1.85-3.49-8.52-3.11-10.22.11-.49.63-.85.68-1.37l1.25,4.86,5.46,12.89Z"/>
  <path class="st0" d="M143.62,116.1c1.37-.28.76.84,1.26,1.28.57.5,2.15.1,2.7,1.38,1.25,2.88-4.07,4.16-5.52,1.2-.64-1.31.08-3.56,1.56-3.86Z"/>
  <path class="st0" d="M127.62,43.17l.48-9.35c-.49-.09-.57.22-.74.58-1.11,2.44-.65,6.61-.46,9.25-.62.1-.43-.09-.55-.52-.34-1.24-.07-5.99.07-7.51.09-1.02.97-7.31,2.04-7.31.34.27.47.73.54,1.13.53,2.87-.09,10.02-.89,12.9-.09.33-.03.74-.49.83Z"/>
  <path class="st0" d="M85.52,118.22c.4-.09.48.32.61.58.38.78,1.85,5.23,2.04,6.12.14.69.38,1.97-.29,2.39-3,.99-4.76-7.57-2.36-9.08Z"/>
  <path class="st0" d="M96.43,59.71c.04.41-.83.26-1.09.25-4.15-.25-9.7-1.92-13.3-3.96l1.03-1.76c4.29,2.18,8.48,4.78,13.35,5.48Z"/>
  <path class="st0" d="M156.11,48.49c1.94-.3,6.01,1.88,4.4,3.93-1.47,1.87-8.42-3.31-4.4-3.93Z"/>
  <path class="st0" d="M77.48,35.73c.11-.4.49-.57.83-.73,1.56-.72,3.81-.94,5.53-1.66,2.72-1.13,5.75-3.73,4.91-6.96,1.01.05,1.03.97.94,1.77-.47,4.3-7.96,9.01-12.22,7.57Z"/>
  <path class="st0" d="M146.41,48.04c.28-.28.84-.58,1.24-.59,1.52-.01.79,1.35.82,2.3s.62,3.05-.63,3.43c-2.59.8-2.9-3.7-1.43-5.15Z"/>
  <path class="st0" d="M152.75,60.97c.59.57-.92,3.08-1.38,3.66-1.97,2.44-4.2-.58-1.81-3,.83-.84,2.1-1.31,3.19-.65Z"/>
  <path class="st0" d="M121.56,109.87c.45-.06.83.12,1.14.43.39.65-.2,4.74-1,5-3.17.58-2.61-5.13-.14-5.44Z"/>
  <path class="st0" d="M73.88,39.81c-.19.61-1.34-.17-1.67-.24-.49.59,1.97,1.53,2.34,1.63s.75-.16,1.18-.01c.36.12,3.06,1.86,3.09,2.09.04.26-.24.74-.15,1.09l-9.83-4.56c-.37-.38.03-.42.36-.47,1.79-.26,3.02-.44,4.67.48Z"/>
  <path class="st0" d="M130.97,64.52c.5.71-2.96,3.56-3.6,3.94-.41.24-1.35.69-1.8.38-1.13-1.96,3.49-5.5,5.4-4.32Z"/>
  <path class="st0" d="M194.3,99.03c.62,2.78.45,6.89-3.36,6.48l.3-1.98,3.06-4.49Z"/>
  <path class="st0" d="M58.3,90.16c-1.05-1.95.24-5.31,2.04-6.42,1.48.11.01,6.69-2.04,6.42Z"/>
  <path class="st0" d="M133.08,56.65c1.56-.08,4.11,1.31,2.84,3.08-.86.68-1.96-.31-2.82-.58-.72-.22-2.58.04-2.26-1.13.22-.82,1.47-1.33,2.25-1.37Z"/>
  <path class="st0" d="M92.89,120.91c1.25-1.27,5.65,3.03,2.93,3.53-1.88.35-4.04-1.65-2.93-3.53Z"/>
  <path class="st0" d="M180.91,48.65c-.86-1.42,3.32-2.65,4.54-.58,1.57,2.67-4.23,1.08-4.54.58Z"/>
  <polygon class="st0" points="80.36 37.41 79.16 41.25 76.29 38.25 80.36 37.41"/>
  <path class="st0" d="M163.57,59.68c-.98.62-4.21-2.18-3.57-2.84,1.31-.17,3.51-.03,3.8,1.61.05.28-.06,1.12-.24,1.23Z"/>
  <path class="st0" d="M154.78,115.4c.79-.78,3.84-.93,3.26.97-.53,1.73-4.88.63-3.26-.97Z"/>
  <path class="st0" d="M70.29,79.85c-.26-1.3.48-2.65,1.59-3.32.45-.27,1.81-.87,1.73.04-.06.76-2.66,3.97-3.32,3.28Z"/>
  <path class="st0" d="M82.28,27.34l-3.12,1.68-1.2-4.56c1.18,1.24,2.51,2.64,4.32,2.88Z"/>
  <path class="st0" d="M194.71,51.61c.93-.28,2.19.03,2.42,1.08.69,3.17-5.14-.27-2.42-1.08Z"/>
  <path class="st0" d="M202.87,92.36c1.65-.26.62,3.59-.98,3.06-.89-.29-.39-2.85.98-3.06Z"/>
  <path class="st0" d="M69.07,99.73c-2.1,1.06-2.43-2.97-1.28-3.32,1.08-.33,1.37,2.66,1.28,3.32Z"/>
  <path class="st0" d="M173.43,175.04c.65.54-3.05,1.54-3.31,1.61-1.03.26-2.12.36-3.17.55-.12-.62.13-.42.47-.6.76-.41,5.58-1.92,6.01-1.56Z"/>
  <path class="st0" d="M73.31,94.98l.82.09c2.07,4.34-3.08,3.48-.82-.09Z"/>
  <path class="st0" d="M237.24,140.04c.37.37-2.36,2.62-2.8,2.84-.34.17-.63.36-1.04.28.83-1.45,2.18-2.68,3.84-3.11Z"/>
  <polygon class="st0" points="75.52 38.41 77.24 41.01 73.65 38.73 75.52 38.41"/>
  <path class="st0" d="M229.32,145.31c.19.88-2.35,2.23-2.39,1.32-.03-.62,1.73-1.53,2.39-1.32Z"/>
  <path class="st0" d="M183.51,172.41c.17.66-.94.75-1.39.89-.61.19-1.98.74-2.45.19l3.84-1.08Z"/>
  <path class="st0" d="M211.09,158.5c.35.33-1.78,2.18-2.4,1.92-.43-.4,2.13-2.17,2.4-1.92Z"/>
  <path class="st0" d="M219.01,151.79c.21.75-1.93,1.67-2.16,1.44-.48-.96,1.97-1.61,2.16-1.44Z"/>
  <polygon class="st0" points="73.88 53.72 73.11 53.9 68.85 52.76 73.88 53.72"/>
  <path class="st0" d="M248.03,134.52c.42.79-1.7,1.64-1.92,1.44-.22-.68,1.77-1.6,1.92-1.44Z"/>
  <path d="M414.51,209.57c-2.22,1.92-4.95,3.57-7.51,5.07-24.64,14.42-54,23.68-81.95,29.1-33.51,6.49-71.69,12.17-105.63,6.55-.67-.11-5.91-1.07-5.91-1.52.29-.44.63-.34,1.06-.37,1.71-.13,4.04-.07,5.78,0,11.59.46,22.53,1.6,34.3,1.22.51-.02.97-.23,1.43-.25,24.52-.96,49.73-5.17,73.77-9.95,26.55-5.28,55.01-14.91,79.16-27.1,1.78-.9,3.59-2.28,5.51-2.76Z"/>
  <path d="M49.65,145.31c1.81,4.37,3.39,8.49,5.72,12.63,10.05,17.84,23.24,27.44,40.9,37.05,14.84,8.07,37.3,17.57,54.04,19.59,2.46.3,4.96.22,7.41.51.35.04.72.18.36.48-11.06,1.05-22.33-1.65-32.81-4.97-20.34-6.44-47.34-19.42-61.35-35.79-4.82-5.63-14.23-19.79-14.96-27-.03-.34-.1-3.16.69-2.49Z"/>
  <path d="M320.96,236.43c-.93.77-2.34,1.27-3.47,1.68-16.66,6.05-41.05,6.37-58.78,6.7-29.39.54-61.64,1.31-90.31-5.38-.85-.2-6.59-1.6-6.72-1.92-.21-.54.55-.34.84-.36,6.88-.38,18.93,2.9,26.42,3.8,15.91,1.91,32.16,1.73,48.19,1.94,25.47.33,53.86,1.1,78.7-4.99,1.73-.42,3.37-1.16,5.13-1.47Z"/>
  <path d="M29.99,121.57c.32.34-1.86,6.54-2.14,7.57-3.66,13.77-3.53,24.32,3.3,36.95,9.56,17.66,24.94,31.11,41.65,41.8,2.03,1.3,4.21,2.38,6.12,3.83-2.34-.79-4.76-2.06-6.96-3.23-18.76-9.96-34.76-23.91-44.41-43.12-6.11-12.17-6.3-25.95-1.4-38.65.69-1.78,1.75-4.84,3.84-5.15Z"/>
  <path d="M358.14,203.1l-4.25,2.1c-44.73,13.25-93.97,20.03-140.74,18.51-5.91-.19-12.62-.14-18.41-1.26-.54-.11-1.23-.11-1.63-.53,4.86-.56,9.85-.41,14.76-.37,10.8.09,21.56.32,32.36,0,20.86-.63,42.42-2.57,63.06-5.54,18.68-2.69,36.93-7.11,54.84-12.91Z"/>
  <path d="M428.9,128.29c.98,2.4,1.63,4.99,1.89,7.58,1.51,15.21-12.15,33.24-22.87,43.02-3.98,3.63-8.32,6.77-13.32,8.86,10.99-8.14,20.95-17.9,27.87-29.81,4.3-7.4,6.83-13.86,6.45-22.59-.1-2.19-.78-4.44-.49-6.71.04-.33.13-.69.48-.35Z"/>
  <path d="M444.74,169.53c.85-3.99,3.08-7.62,4.49-11.45,6.36-17.2,3.38-33.39-6.17-48.62-2.89-4.61-6.84-9.95-10.93-13.54-1.71-1.5-3.66-2.63-5.39-4.08.9.09,1.91.77,2.71,1.24,9.26,5.49,17.86,18.62,21.52,28.6,4.43,12.09,4.28,25.61-.61,37.52-1.42,3.45-3.28,7.44-5.63,10.32Z"/>
  <path d="M403.48,91.6c.08.46-.07.65-.34.97-1.03,1.24-4.71,3.47-6.25,4.79-3.73,3.19-10.46,10.68-15.61,10.79-1.04.02-1.64-.63-2.41-.72-1.28-.15-14.78,5.17-17.8,5.92-5.84,1.46-11.92,1.72-17.56,3.91.91,1.84.1,3.72-1.6,4.75-.63.38-1.47.43-1.89.75s-.98,1.43-1.67,1.93c-2.3,1.68-5.24,1.11-4.38-2.23.06-.23.45-.54-.17-.41-2.14.49-5.71,2.42-7.98,3.29-4.89,1.88-9.86,3.53-14.75,5.4-1.97.75-4.56,2.15-6.47,2.65-.27.07-.92.24-.9-.19.02-.59,9.14-5.11,10.39-5.68,5.53-2.53,12.13-5.3,17.85-7.33,1.29-.46,6.47-2.63,6.99-.61.43,1.68-3.52,2.24-3.33,3.91,1.65.47,2.61-1.79,3.28-2.17.5-.29,1.2-.16,1.76-.34,1.17-.39,2.47-1.72,2.05-3.01-.15-.46-.88-.81-.31-1.37.22-.21,2.34-1.38,2.81-1.62,4.79-2.54,10.01-3.08,15.17-4.5,3.4-.93,16.03-5.33,18.48-4.91,2.13.36,1.61,1.08,4.25.06,7.27-2.82,12.34-12.18,20.39-14.02Z"/>
  <path d="M303.45,58.51l-.36-1.68c.43.44,2.03,3.19,2.76,2.63l-.24-.96.96.48.12-.96,1.8,1.92-.47-1.08c-.29-.97,1.59.62,1.69.77.28.46.21.81-.01,1.27,2.13.19,4.23.76,6.36.96,2.88.27,8.24-.28,10.56.95,1.51.81,2.99,2.42,4.6,3.32,2.08,1.17,4.66,1.84,6.98,2.37,2.04.46,6.34.74,7.9,1.43.23.1,1.67,1.81,2.48,2.34,6.61,4.27,14.19,3.6,21.38,5,.29.06,2.9.54,2.34,1.13-3,.91-6.34.92-9.48.73-4.43-.27-11.88-2.01-15.44-4.71-1.04-.79-2.67-2.27-2.42-3.7-4.68-.41-11.33-.08-15.23-3.12-1.14-.89-2.31-3-3.65-3.3-2.08-.46-5.97.1-8.34-.05-4.53-.29-13.43-2.56-16.56-5.99-.43-.47-.99-1.27-1.07-1.92.49-.45,2.57,2.14,3.35,2.16Z"/>
  <path d="M289.06,167.85c-.11-.5.24-.56.55-.77.84-.56,2.39-1.21,3.36-1.67,8.89-4.21,18.58-7.77,27.67-11.66,10.95-4.69,21.83-10.31,33.24-13.77,11.05-3.35,26.71-5.38,33.62-15.78,3.05-4.58,3.98-10.36,7.58-14.6.08.41-.11.7-.28,1.04-4.12,8.57-4.98,16.32-14.19,21.54-10.78,6.12-25.02,8.15-36.92,12.73-18.44,7.09-36.13,16.03-54.63,22.96Z"/>
  <path d="M294.81,142.68c1.67,2.19-.45,3.42-.48,5.51,2.21-1.18,2.81-4.65,5.27-5.03.46.47-3.12,7.62-5.99,6.35-2.66-1.18,2.8-5.53-.25-6.99-.05-.27,0-.57.12-.8.25-.46,8.2-2.43,9.8-3.63,1.28-.95-1.38-1.1-2.12-1.12-5.84-.1-23.16,6.33-29.51,8.58-5.52,1.96-10.79,4.61-16.43,6.24l.47-.6c11.44-4.95,23.05-9.64,34.91-13.55,3.45-1.14,7.61-2.48,11.27-2.15,1.32.12,3.21.52,3.47,2.03,0,1.88-6.1,3.98-7.72,4.5-.9.29-1.87.58-2.82.66Z"/>
  <path d="M312.99,68.65c2.31-.2,6.68.19,8.1,2.31,2.32,3.48-4.69.87-5.8.76-1.55-.16-3.22.1-4.76-.03-.82-.07-2.39-.2-2.29-1.3s3.8-1.65,4.76-1.74Z"/>
  <path d="M288.98,116.23c-.47.56-4.03,1.82-5.01,2.3-.88.42-4.78,3.14-5.49,2.18s.93-2.39,1.58-2.98c1.81-1.62,5.69-3.48,8.15-3.09.96.15,1.48.76.78,1.59Z"/>
  <path d="M303.6,127c-1.68,1.84-7.25,2.49-8.56.22-1.44-2.48,2.31-1.5,3.46-1.6,1.43-.12,3.47-1.25,4.59-1.19,1.46.08,1.32,1.69.51,2.57Z"/>
  <path d="M310.59,99.58c1.24-.14,4.73-.14,4.09,1.92-.29.96-2.87.97-3.85,1.2-1.23.29-4.59,1.72-5.35.17-1-2.05,3.74-3.13,5.11-3.29Z"/>
  <path d="M343.99,125.89c-.33.96-1.59,1.44-2.16,2.27-1.15,1.69.55,1.55,1.67.72.63-.15.45-2.04,1.08-1.79.38.15.59.67.62,1.07.21,2.24-3.19,4.28-5.05,2.87-2.41-1.81,1.53-5.67,3.83-5.15Z"/>
  <path d="M279.4,133.61c.82-.21,1.51.12,1.52,1.02.02,3.07-6.78,3.88-7.41,1.63-.42-1.5,2.35-.93,3.61-1.34.88-.28,1.74-1.18,2.29-1.32Z"/>
  <path d="M279.46,94.24c-.7-3.13,4.58-5.66,6.94-4.42,3.38,1.79-2.61,2.21-3.47,2.48-1.51.47-2.13,1.58-3.46,1.93Z"/>
  <path d="M330.08,131.4c.03-1.55,1.91-1.36,2.97-.93,3.29,1.32,1.12,6.27-2.36,5.72-1.2-.19-2.54-1.76-1.46-2.86.76.33,1.07,1.16,1.92,1.22,2.96.2,2.18-4.13-1.08-3.14Z"/>
  <path d="M335.85,99.01c-.51-.75,1.95-3.18,2.43-3.88.74-1.07.93-2.91,2.35-2.22,1.43,2.62-1.73,7.36-4.78,6.1Z"/>
  <path d="M364.62,128.53c-.23-2.92,3.97-4.48,6.01-2.53s-.87,5.73-3.37,4.08c-.2-.96,3.03-.57,2.35-2.82-.29-.97-2.22-.73-3.01-.46-1.02.35-1.12,1.24-1.98,1.73Z"/>
  <path d="M314.42,110c-.63.63-6.02,2.51-6.39,1.35-.61-1.91,5.33-4.1,6.7-2.85.37.34-.05,1.23-.31,1.49Z"/>
  <path d="M260.94,140.57c.87-.06,1.63.12,2.33.66,1.46,2.83-4.77,2.47-5.29,1.7-.55-1.5,1.81-2.27,2.97-2.35Z"/>
  <path d="M302.66,80.88c.14.15.4.75.3.88-1.96.13-3.18,3.38-5.05,2.01-1.15-2.51,3.13-4.57,4.75-2.89Z"/>
  <path d="M312.32,78.65c-.18-2.87,6.69-2.84,5.39,0-.7,1.53-4-.44-5.39,0Z"/>
  <path d="M324.83,83.71c1.29.02,4.47.5,4.91,1.88.92,2.93-6.22.31-4.91-1.88Z"/>
  <path d="M368.39,87.36c1.59,1.32.62,5.59-1.87,3.85-.63-1.29-.36-5.69,1.87-3.85Z"/>
  <path d="M269.83,119.85c-1.08.64-2.15-1.31-.45-2.72,2.31-1.92,5.1-.03,3.26,1.34-.63.47-1.71.28-2.29.59-.37.2-.41.73-.52.79Z"/>
  <path d="M335.33,83.19c-.9.69-4.69-.2-5.14-.93-1.38-2.23,5.96-1.83,5.14.93Z"/>
  <path d="M348.22,80.6c2.52-.86,3.87,6.24,1.15,4.54-.79-.49-2.17-4.2-1.15-4.54Z"/>
  <path d="M275.56,111.56l.27,1.22c-.17.55-4.67,1.73-4.98.47-.4-1.63,3.6-2.58,4.71-1.69Z"/>
  <path d="M267.17,137.22c1.26,2.98-2.71,1.32-4.26,1.38-.11-2.24,2.79-1.94,4.26-1.38Z"/>
  <path d="M285.46,84.65c-.46-2.09,2.13-3.25,3.73-2.17,1.11,1.66-2.68,2.22-3.73,2.17Z"/>
  <path d="M344.05,98.25c-.53-.53-.19-3.91,1.21-3.5,1.36.81,1.05,2.83-.08,3.69-.32.18-.89.05-1.13-.19Z"/>
  <path d="M281.56,129.31c1.21,1.21-1.66,3.83-2.84,2.47-.68-.78,1.69-3.62,2.84-2.47Z"/>
  <path d="M297.42,64.06c2.15,5.7-2.5,5.3-1.13,0h1.13Z"/>
  <path d="M350.46,61.39l-5.27,8.15c.21-1.61,1.2-3.18,2.06-4.53.23-.36,2.71-4.13,3.22-3.62Z"/>
  <path d="M302.37,64.56c1.25.52,1.13,3.85-.2,3.75-1.56-.12-1.38-3.39.2-3.75Z"/>
  <path d="M355.98,89.44c-1.47.3-2.59-4.11-2.16-4.55,1.48-.4,2.61,4.06,2.16,4.55Z"/>
  <path d="M392.2,81.05c.58-2.17,2.21-4.49,3.83-5.99-.72,2.09-2.26,4.43-3.83,5.99Z"/>
  <path d="M344.23,64.99c.29.3-1.95,3.52-2.52,3.83-.73.01-.23-2.57.6-2.63l.12.72c.27-.17,1.36-2.37,1.8-1.92Z"/>
  <path d="M346.62,63.79c.17.17-1.87,3.88-2.11,4.24-.21.31-.27.65-.76.55-.42-.49,1.59-3.77,2.06-4.3.24-.27.37-.59.82-.5Z"/>
  <path d="M353.6,101.69c1.91-.56,1.96,3.14.22,2.26-.77-.53-.49-1.52-.22-2.26Z"/>
  <path d="M394.6,80.09c-.38-.75,1.65-3.58,2.04-3.59.19,0,.4.35.24.71-.41.93-1.43,2.29-2.28,2.88Z"/>
  <path d="M372.57,91.32c-.3-.49.11-2.41,1.04-2.12,1.05.33-.22,3.44-1.04,2.12Z"/>
  <path d="M359.97,101.93c2.08.88-.3,3.6-.89,1.07l.89-1.07Z"/>
  <path d="M397.72,77.94c.27.28-1.76,3.31-2.16,2.87-.2-.58,1.76-3.29,2.16-2.87Z"/>
  <path d="M398.92,78.89c-.04.82-.57,1.29-.24,2.16h-.96c-.1-.84.16-2.06,1.2-2.16Z"/>
  <path d="M404.92,82.49c.19-1.05,1.06-1.93,1.8-2.63.55.43.25.35.03.74-.42.72-1.14,1.41-1.82,1.89Z"/>
  <path d="M408.03,81.29c-.1.27-1.2,2.66-1.68,2.15-.18-.57,1.05-2.65,1.68-2.15Z"/>
  <path d="M185.19,141.48c.45.37-.34.51-.47.59-8.13,4.88-20,7.94-29.27,10.08-14.48,3.33-31.83,6.08-46.66,4.67-.78-.07-7.07-.92-7.07-1.56.29-.44.64-.34,1.06-.37,2.88-.23,5.55.21,8.4.26,22.47.39,46.65-4.51,67.96-11.46.85-.28,5.8-2.42,6.05-2.22Z"/>
  <path d="M130.74,171.93c2.73-.48,5.52-.09,8.27-.24,6.54-.36,13.2-1.37,19.6-2.71,15.71-3.28,30.57-9.37,44.09-17.91.12.5-.27.54-.54.77-1.67,1.4-4.63,3.09-6.58,4.21-11.8,6.81-26.49,11.77-39.89,14.32-6.96,1.32-17.16,2.82-24.12,2.04-.36-.04-.74-.05-.83-.49Z"/>
  <path d="M77.72,47.48c-4-.71-7.76-2.9-11.52-4.43s-9.7-3.24-13.19-5.29c-.31-.18-.6.04-.47-.6,7.89,2.97,16.27,5.67,23.83,9.38.46.23,1.13.43,1.35.92Z"/>
  <path d="M75.08,51.32l-.12.47-25.79-6.23c3.31.02,6.61.85,9.84,1.55,5.41,1.17,10.74,2.74,16.07,4.2Z"/>
  <path d="M113.94,38.85c-.54.54-4.22-4.1-4.67-4.56-2.89-2.96-5.69-5.31-8.93-7.86-.29-.23-.65-.27-.54-.77.22-.21,2.58,1.46,2.95,1.72,3.55,2.51,8.05,6.75,10.58,10.29.16.22.81.99.62,1.17Z"/>
  <path d="M62.85,34.53c-.31.3-4.55-2.53-5.11-2.92-1.82-1.26-4.84-3.41-6.38-4.89-.26-.25-.61-.35-.5-.81l11.49,7.81.5.82Z"/>
</svg>