<?xml version="1.0" encoding="UTF-8"?>
<svg id="Layer_9_xA0_Image" xmlns="http://www.w3.org/2000/svg" version="1.1" viewBox="0 0 485.76 315.36">
  <!-- Generator: Adobe Illustrator 29.8.3, SVG Export Plug-In . SVG Version: 2.1.1 Build 3)  -->
  <defs>
    <style>
      .st0 {
        fill: #fff;
      }
    </style>
  </defs>
  <path class="st0" d="M467.04,6.48v294.72H13.2V6.48h453.84ZM277.44,11.28c.52-1.33,1.47-3.55-.3-4.38-1.59-.74-1.14.73-1.86,1.13s-1.87-.05-2.77.83c-1.78,1.74-2.51,8.55-3.23,11.06-.27-.1-.5-.25-.81-.22-9.53.81-15.2,11.2-16.71,19.66l-3.1-.74c.14-3.85-1.7-7.78-5.06-9.71.58-2.16,4.12-10.51,3.56-12.18-.29-.87-1.37-.35-1.64-.51-.65-.39-.58-2.55-2.14-2.52l-.98,1.43v-1.44c-.75.82-.98-.18-1.92,0-1.07,4.83-1.31,9.78-1.24,14.72-1.45.85-2.79,1.52-3.93,2.79-1.34,1.5-2,3.41-3.16,5.02-1.86-.72-4.3.34-5.95.02-1.07-.21-3.62-2.86-5.41-2.51-.4-.31-.12-.26,0-.49.55-1.08,1.74-2.02,1.08-3.47-.96-2.11-4.14-.32-5.15.96-.04-1.44,1.55-7.03.24-7.8-2.6-1.54-4.08,5.5-3.85,7.08-.94-1.49-3.3-3.15-4.13-.66-.71,2.14.77,3.31,1.73,4.97-1.97-.26-3.62.58-5.21,1.63-.68.44-1.89,1.7-2.41,1.91-1.16.47-3.37.38-4.68.6-10.94,1.82-25.23,4.24-34.62,10.02-5.85,3.6-11.34,8.06-11.88,15.48-1.48,20.03,12.68,41.14,28.87,51.78,1.73,1.14,3.75,1.96,5.39,3.01.24.15.43-.02.31.54-4.36-.05-8.73.06-13.09.01-2.43-.03-4.96-.49-7.44-.26-.94.09-1.87.7-2.39.71-.59.01-1.6-.61-2.4-.7-2.02-.22-4.6-.31-6.73-.47-26.75-2.07-50.16-.56-75.96,6.84-19.66,5.64-34.95,12.52-48.97,27.83-11.49,12.55-18.39,23.83-15.28,41.7,1.26,7.22,4.44,11.35,7.74,17.46,3.69,6.84,7.78,15.98,10.62,23.22,3.42,8.72,2.52,13.01,10.88,19.36,15.56,11.83,39.14,17.86,58.06,22.1s38.46,4.47,58.21,3.49c27.71-1.39,62.32-7,86.34-21.42,18.13-10.88,17.31-24.48,26.76-40.68,5.25-8.98,14.08-15.7,14.92-26.84,1.53-20.26-12.38-33.26-27-44.51-3.73-2.87-8.92-5.73-12.23-8.65-1.33-1.17-2.01-2.58-3.12-3.84-3.23-3.66-6.92-5.32-10.85-7.86-.23-.15-.43.03-.31-.54,10.27-3.25,20.35-8.63,28.08-16.2,11.74-11.49,24.57-33.1,18.9-49.87-.68-2.01-1.74-3.86-2.59-5.8,2.25-4.55,7.43-11.74,5.94-17-.18-.65-1.07-2.86-1.86-2.58v-.36c1.88-3.35,4.52-6.39,6.28-9.8.41-.8.99-1.62.92-2.56-.37-.43-1.7,2.03-1.68,2.4l-.35-1.2c-2.24,2.73-3.92,5.9-5.68,8.96-1.07,1.85-2.43,5.22-3.59,6.73-.33.42-.97.76-1.4,1.11-.04-1.28,1.09-2.32,1.72-3.44,1.39-2.47,2.61-5.05,4-7.52s3.02-4.73,4.12-7.28c.47.09.17.75.71,1.09.21.13.72.23.73-.01l-.25-3.72c-.23-.04-.31,0-.49.11-.55.34-3.83,5.44-4.41,6.39-1.5,2.45-2.83,5-4.04,7.6-2.19.43-3.94,1.99-5.94,2.94.66-1.48,1.59-2.67,2.09-4.27,1.11-3.54,1.34-8.49-2.33-10.49,1.9-2.72,8.22-8.66,8.62-11.79.5-3.89-3.35.91-4.3,1.58ZM365.95,80.47c-3.77.25-8.23.02-11.77.47-3.98.5-9.49,2.88-13.57,3.95-8.94,2.34-20.2,3.89-27.87,9.33-6.9,4.9-13.4,11.24-20.67,15.81-2.85,3.67-5.66,7.35-9.11,10.57-1.86,1.73-3.02,1.94-4.45,4.43-2.42,4.24-1.7,6.68-1.81,11.13-.09,3.59-2.62,6.08.06,9.84.74,1.03,2.56,2.26,3.02,3.22.51,1.04.33,3.31.64,4.64.7,3.01,2.44,3.88,4.07,6.01,1.2,1.56,2.34,3.56,3.62,5.02,1.43,1.64,4.67,3.28,6.68,4.36,1.13.61,3.9,1.33,4.48,1.76.14.11,2.05,2.22,2.42,2.62,1.83,1.99,2.69,3.95,5.19,5.37,10.95,6.22,23.09,10.34,35.55,12.45,7.86,1.33,14.08,1.97,22.01,1.51s15.68.07,23.51.23c3.44-.25,6.05-2.6,9.08-3.88,1.95-.82,4.02-1.19,5.98-1.94.83-.32,2.05-1.26,2.76-1.34,1.78-.21,6.41,1.02,8.58,1.15,3.77.24,8.96.11,12.71-.24,6.91-.64,11.54-3.05,17.82-5.46,4.25-1.63,7.72-2.21,11.11-5.69,1.77-1.82,5.72-10.06,5.75-12.49.03-2.71-1.93-4.75-1.66-6.94.08-.65.61-2.87.82-3.5.84-2.61,4.3-4.6,4.87-7.85.37-2.12-.74-2.74-.67-4.25.14-3.12,2.32-5.45,1.15-9.08-.82-2.56-1.68-2.78-1.09-6,.38-2.04,2.12-3.23.63-5.78-1.19-2.03-3.02-1.8-4.74-2.7-2.79-1.45-3.88-6.4-5.5-9.14-1.51-2.54-3.93-5.21-6.45-6.75-2.18-1.33-2.42-1.29-4.39-3.05-1.77-1.58-3.94-.94-6-1.68-3.16-1.13-5.27-3.53-8.52-4.68-2.54-.9-5.19-1.08-7.75-1.85-6.02-1.82-12.73-4.98-18.72-6.48-3.27-.82-4.39.09-6.84-.12-1.59-.14-3.66-1.02-5.33-1.16-3.67-.31-7.77.65-11.29.25-1.39-.16-2.62-1.15-4.01-1.51-2.41-.63-7.74-.75-10.32-.58ZM383.09,216.43c-.54-.95,1.03-3.1,1.32-4.22.42-1.61.34-3.32.62-4.9.39-2.22,2.17-5.63,1.1-7.71-.52-1.01-3.13-2.32-4.23-2.73-4.12-1.58-11.23-3.63-15.55-3.67-2.93-.03-6.46,2.7-9.59,2.88-2.55.15-5.57-.61-8.15-.73s-4.72.34-7.21.49c-6.92.41-12.91-4.97-19.51-6.65-4.11-1.04-10.96-1.62-14.93.05-2.06.87-5.71,4.85-6.49,6.95-1.78,4.77,1.37,9.01,2.62,13.4-1.07,1.35-2.28,2.58-3.13,4.09-2.47,4.38-4.1,10.01-6.56,14.32-1.42,2.49-2.81,3.25-3.42,6.42-.94,4.82-1.67,5.87-3.46,10.22-1.16,2.83-.77,3.09-1.03,5.81-.04.44-.67,1.03-.8,1.72-.42,2.29,1.03,6.86,2.59,8.58s3.72,1.57,5.76,2.16c6.89,2,13.23,4.32,19.84,7.04,4,1.64,10.38,4.62,14.6,5.08,5.14.56,11.73,1.28,15.55,5.09,4.97,1.6,11.42,6.72,16.58,6.41.73-.04,1.92-.14,2.64-.22,1.38-.14,1.78-1.89,1.98-1.93,4.08-.18,3.94,2.78,5.56,5.46,1.99,3.28,3,2.49,5.55,4.29,1.36.97,2.31,2.78,3.78,3.9.99.76,4.43,2.76,5.55,2.87,3.35.33,3.24-3.26,4.61-5.11.79-1.06,1.97-1.33,2.88-2.16.42-.38,1-1.44,1.36-1.54.79-.21,2.25,1.86,4,1.81,1.04-.03,2.71-1.26,3.52-1.95s1.29-1.87,2.29-2.03c2.06.31,4.15.11,6.22.23,1.06.06,2.24.44,3.35.49,3.05.14,7.23-.19,8.9-3.12.57-1.01,1.7-3.85,1.53-4.92-.3-1.92-5.33-4.07-7.02-5.22-3.17-2.15-5.99-5.01-9.27-7.05-1.8-1.85-.05-1.77.94-2.87.75-.83,3-4.84,3.42-5.94.21-.55.1-1.27.3-1.62.11-.19,3.13-1.99,3.73-2.51,1.56-1.37,2.94-4.2,3.1-6.27.08-1-.31-1.83-.22-2.85.07-.86.6-1.61.7-2.42.13-.99-.08-2.02.08-3.04.49-3.22,3.45-4.97,1.6-8.91-.91-1.94-2.12-1.21-3.51-1.77-.34-.14-.69-.61-1.09-.83-7.8-4.31-14.46-7.64-22.65-11.19-2.3-1-4.69-2.76-7.18-3.14-.75-.11-2.74.18-3.16-.56Z"/>
  <path d="M277.44,11.28c.95-.67,4.79-5.47,4.3-1.58-.4,3.13-6.72,9.07-8.62,11.79,3.67,2,3.44,6.95,2.33,10.49-.5,1.6-1.43,2.78-2.09,4.27,2-.95,3.75-2.51,5.94-2.94,1.21-2.6,2.54-5.15,4.04-7.6.58-.95,3.86-6.04,4.41-6.39.18-.11.26-.15.49-.11l.25,3.72c-.01.25-.53.14-.73.01-.54-.34-.24-1-.71-1.09-1.1,2.54-2.76,4.85-4.12,7.28s-2.61,5.05-4,7.52c-.63,1.12-1.76,2.16-1.72,3.44.43-.35,1.08-.69,1.4-1.11,1.17-1.51,2.52-4.88,3.59-6.73,1.77-3.05,3.45-6.22,5.68-8.96l.35,1.2c-.01-.37,1.31-2.83,1.68-2.4.07.94-.51,1.76-.92,2.56-1.76,3.41-4.4,6.45-6.28,9.8v.36c.78-.28,1.67,1.93,1.85,2.58,1.49,5.26-3.69,12.45-5.94,17,.85,1.94,1.91,3.79,2.59,5.8,5.67,16.77-7.16,38.38-18.9,49.87-7.73,7.57-17.82,12.95-28.08,16.2-.12.56.08.38.31.54,3.93,2.54,7.62,4.2,10.85,7.86,1.11,1.26,1.8,2.66,3.12,3.84,3.31,2.93,8.49,5.78,12.23,8.65,14.63,11.25,28.53,24.25,27,44.51-.84,11.14-9.67,17.86-14.92,26.84-9.46,16.19-8.63,29.79-26.76,40.68-24.02,14.42-58.64,20.03-86.34,21.42-19.75.99-38.8.87-58.21-3.49s-42.5-10.28-58.06-22.1c-8.36-6.36-7.45-10.64-10.88-19.36-2.84-7.24-6.93-16.38-10.62-23.22-3.3-6.12-6.48-10.24-7.74-17.46-3.1-17.86,3.8-29.15,15.28-41.7,14.02-15.31,29.31-22.19,48.97-27.83,25.8-7.4,49.21-8.91,75.96-6.84,2.13.16,4.71.25,6.73.47.81.09,1.82.71,2.4.7.52-.01,1.44-.62,2.39-.71,2.48-.23,5.01.23,7.44.26,4.36.05,8.73-.06,13.09-.01.12-.56-.07-.39-.31-.54-1.63-1.05-3.66-1.87-5.39-3.01-16.2-10.65-30.35-31.76-28.87-51.78.55-7.42,6.03-11.88,11.88-15.48,9.39-5.77,23.69-8.19,34.62-10.02,1.3-.22,3.51-.13,4.68-.6.52-.21,1.73-1.47,2.41-1.91,1.59-1.04,3.25-1.89,5.21-1.63-.97-1.67-2.45-2.84-1.73-4.97.84-2.5,3.19-.83,4.13.66-.23-1.58,1.24-8.62,3.85-7.08,1.31.78-.28,6.36-.24,7.8,1.01-1.28,4.19-3.07,5.15-.96.66,1.45-.53,2.39-1.08,3.47-.12.23-.39.18,0,.49,1.79-.35,4.34,2.3,5.41,2.51,1.65.32,4.1-.74,5.95-.02,1.16-1.61,1.82-3.52,3.16-5.02,1.14-1.27,2.48-1.94,3.93-2.79-.08-4.95.16-9.9,1.24-14.72.94-.18,1.17.82,1.91,0v1.44s.99-1.43.99-1.43c1.56-.03,1.49,2.13,2.14,2.52.27.16,1.35-.36,1.64.51.56,1.68-2.98,10.03-3.56,12.18,3.35,1.93,5.2,5.86,5.06,9.71l3.1.74c1.51-8.47,7.19-18.85,16.71-19.66.3-.03.54.13.81.22.72-2.5,1.44-9.32,3.23-11.06.9-.88,2.06-.43,2.77-.83s.28-1.88,1.86-1.13c1.78.83.82,3.04.3,4.38ZM272.16,18.24c.37-.05.44-.46.6-.72.79-1.28,4.78-8.06,4.68-9-.05-.49-.55-.76-.84-1.08l-4.44,10.8ZM274.8,8.88c-2.18-.14-2.5,2.64-3,4.32-.44,1.49-.77,3.04-1.08,4.56l4.08-8.88ZM271.68,21.36c2.32-2.43,4.79-5.01,6.81-7.7.97-1.29,2.42-2.94,2.54-4.54-2.99,2.71-5.63,5.96-7.78,9.38-.56.89-1.19,1.88-1.58,2.86ZM242.62,16.58c-1.53.08-.45-1.39-1.42-1.94-1.19,5.92-.97,11.98-.96,18l2.38-16.06ZM244.62,16.74c-.41-.39-.35-1.59-1.02-1.86l-2.16,16.56,5.04-14.04c.11-.71-1.29-.11-1.86-.66ZM268.8,21.84c-6.73.33-10.72,6.44-13.4,11.91-1.47,3-3.28,7.09-4.11,10.29-.03.13-.07.39.11.35,1.21-.84,2.78-1.23,4.2-.72,1.55-4.85,3.8-9.44,6.6-13.68.85-.76.82.18,1.09.34.18.11,1.96.74,1.67,1.1-.03.04-.34-.04-.41.04s.16.42.05.66c-.94,1.95-2.5,3.7-3.23,5.78l4.92-5.28c.66-.15.87,2.23.85,2.75-.16,3.14-5.77,7.48-7.93,9.62v.33c1.65.95,2.2,3.47,2.16,5.3l4.7-6.93c.85-1.75,4.26-4.15,5-5.56.29-.55.25-1.31.5-1.9,1.27-2.97,3-5.61,2.76-9.02-.18-2.59-1.12-2.64-2.53-4.43-1.12.93-1.78,2.53-3.48,2.16l.48-3.12ZM215.3,33.33c-.71-1.19,1.16-7.01,1.18-8.75,0-.45.06-.77-.37-1.06-.72.02-1.64,3.08-1.74,3.78-.13.96.15,5.4-.08,5.56-1.36.94-2.33-4.2-4.06-3.58-.03.75-.05,1.37.18,2.1.54,1.66,2.31,3.36,2.99,4.7s.8,2.97,1.63,4.25c.29.07.32-.26.36-.47.38-1.68-.6-3.41-.85-5.05l2.88.72c.01-.39-.44-.2-.67-.64-.08-.15-.33-1.23-.29-1.27,1.91.75,4.49-1.67,4.32-3.6-1.39-.19-2.52.52-3.36,1.56-.65.81-.82,2.42-2.14,1.77ZM264.24,31.44c-.64.07-1.14-.17-1.68-.48-1.56,3.62-3.52,7.06-4.8,10.8l6.48-10.32ZM239.28,32.16c-.45-.06-.71,0-1.09.23-2.95,1.72-5.32,12.86-5.83,16.25-1.19,7.82-1.94,16.19-1.47,24.08l1.71-3.92c2.21-4.58,4.99-8.84,7.83-13.05.94-1.39,3.42-4.15,3.87-5.49,1.04-3.12,1.98-11.7,1.11-14.75-.49-1.73-1.78-2.22-3.01-3.35-.22,1.31-1.03,2.24-1.63,3.29-.21.37-.26,1.63-.89,1.5s-.65-4.13-.6-4.8ZM258.24,44.64c2.97-2.73,7.44-5.98,7.68-10.32l-7.68,10.32ZM277.44,36.96l-3.47,2.4c-4.48,4.15-8.21,8.98-11.78,13.92-.04.12,1.13,1.79,1.34,2.03.29.33,2.44,2.03,2.15,2.28-1.55.2-2.73-1.01-3.33-2.3l-.51-1.42c-1.32,1.93-1.66,4.33-2.6,6.52-3.07,7.23-8.53,13.95-13.72,19.76,3.27-.73,7.7-1.14,10.69-2.63,8.9-4.44,18.03-19.49,22-28.4,1.52-3.42,3.55-7.69,2.84-11.44-.56-.15-.4.14-.55.31-.74.85-2.37,3.45-3.62,3.03-1.35-.46.71-3.89.57-4.05ZM230.64,40.56h-1.44s.48,2.16.48,2.16c.59.07.38,0,.5-.34.2-.55.3-1.25.45-1.82ZM200.88,41.52l-19.92,3.72,1.21,3.72c1.55-1.22,3.88-2.51,4.56.24,6.51-1.34,14.93,4.15,15.09,11.18.03,1.13-.62,2.33-.58,3.45.92-1.18,3.28-1.93,4.19-2.77.47-.43.51-1.19,1.22-1.66.67-.44,1.46-.39,2.15-.73-7.13-2.45-11.63-9.97-7.92-17.16ZM185.2,50.56c.41-.48.99-2.04-.02-2.07-.46-.01-2.06.89-2.39,1.22-.39.39-.55,1.47-1.11,1.06s-1.4-6.31-2.18-7.42c-.41-.58-.83-.4-1.36-.08-.44.41.07,1.42.24,1.92.69,1.97,1.94,3.76,2.58,5.69-1.6-.15-3.88,0-5.04,1.2.74.33,4.65-.65,4.8.13.12.65-3.1,5.47-.24,6.11.79-1.82,1.51-4.01,1.21-6,.83-.14,1.14.88,1.79,1.44.78.67,1.54,1.13,2.52,1.44-.43-1.36-1.71-2.57-3.11-2.89l.1-.72c.65-.32,1.72-.45,2.21-1.03ZM250.55,43.69l-2.39-.49-.48,3.6c.59-.42,3.57-2.28,2.87-3.11ZM178.3,46.34c-.17-.15-2.86.49-3.27.64-5.73,2.05-15.83,8.36-17.24,14.68-.65,2.91-.18,3.93,1.48,6.23,4.04,5.6,10.97,9.65,17.26,12.26l.86-3.69c-9.25-4.73-7.97-18.05-.26-23.55-4.8-.98.39-3.15,2.64-2.76l-1.46-3.81ZM254.64,46.32c-3.4-.04-6.57,3.62-8.76,6-6.69,7.23-11.99,17.03-16,26-.66,1.47-.84,3.19-2.11,4.48.4.29,8.82-.55,9.93-.75,2-.35,3.79-1.47,5.91-1.53,3.3-4.31,6.86-8.45,9.7-13.1s5.27-11.62,4.7-17.14c-.13-1.26-.88-2.22-.72-3.48l-1.37,1.46-.57.11c-.98-.24-.68-1.26-.7-2.05ZM212.88,52.92c-.26.93,0,4.92,0,6.24,0,.24-.62.5.24.36.51-2.37.54-4.78.48-7.2-.19.04-.69.5-.72.6ZM228.96,69.36l-.36-17.04c-2.04,3.2-4.89,6.37-8.96,6.52l-1,1.64c3.3.24,6.37,2.95,8.25,5.55l2.06,3.33ZM153.84,65.04c.05,1.15-.07,2.33,0,3.48.29,4.54.38,7.12,3.83,10.33,10.67,9.9,34.49,12.62,48.59,13.09,17.55.58,48.53-1.62,63.23-11.67,4.62-3.16,9.92-9.04,10.95-14.73.53-2.88-1.05-7.53-2.77-9.85-.08.88.45,1.53.65,2.35,2.71,11.31-8.42,17.69-17.4,20.86-10.7,3.78-22.02,5.62-33.29,6.79-24.95,2.58-55.9,4.98-72.48-17.75l-1.31-2.88ZM218.4,58.8c-2.18-.3-3.77,1.33-5.76,1.44.47.83-.37,1.15-.49,2.03-.14,1.02.18,2.02.25,3.01,1.15-.57.04-2.57.26-3.21.12-.34,1.06-.35.7-1.35,1.62,0,3.26-.35,4.59-1.3.28-.2.59,0,.45-.62ZM264.48,74.64c2.99-1.43,6.37-2.97,8.35-5.68s3.43-6.72,3.16-10.16l-11.52,15.84ZM212.4,60.24c-1.7-.43-3.67-.43-5.28.36.88.88,3.15.76,4.25.41.16-.05,1.01-.51,1.03-.77ZM217.68,63.12c.83-.72-3.69-1.58-4.08-1.2.97,1.17,2.66,1.29,4.08,1.2ZM185.52,71.76c.02-2.05.01-5.13-2.03-6.24-1.36.28.82,4.38,1.19,5.04.19.35.47,1.06.84,1.2ZM189.36,67.92c-.4-.07-.54,0-.83.24-.46.4-2.06,4.04-1.8,4.31,1.73-.41,3.32-2.87,2.64-4.56ZM185.28,73.2c-.47-.89-3.26-5.07-4.45-3.12s3.08,3.33,4.45,3.12ZM276.96,82.8c.51-.38.82-1.32,1.07-1.92,1.29-3.06,1.92-6.02,2.04-9.36l-4.53,6.17c.37,1.05,1.06,1.76,1.31,2.94.15.73.12,1.44.11,2.17ZM187.2,73.44c-2.09-1.02-2.93,5.61-.95,3.73.78-.74,1.07-2.69.95-3.73ZM172.56,104.88c-.31-1.03-1.1-1.93-1.55-2.88-2.09-4.39-3.17-9.37-2.87-14.17-4.01-1.86-8.09-3.73-11.41-6.71,3.42,8.95,8.96,17.14,15.84,23.76ZM262.8,86.4l-10.94,3.59c1.6,6.36.59,13.9-1.18,20.17-.67,2.37-1.79,4.47-2.76,6.72.27.27,5.26-3.22,5.83-3.64,1.1-.8,4.1-2.94,4.67-3.97,1.54-2.8,2.76-9.44,3.34-12.74s1.23-6.71,1.03-10.12ZM199.41,93.62l-13.29-1.47c-.38.04-.4-.11-.35.35,1.06,9.03,5.18,18.28,9.72,26.05l.71.49,7.8.24c-3.4-8.02-5.44-16.88-4.59-25.65ZM232.77,93.15l-15.33.93c1.15,5.86,1.24,11.91,1.44,17.88.02.46.23.92.25,1.43.07,2.38.05,4.77-.37,7.1l11.29,3.82c.42-.03,1.76-5.46,1.92-6.23,1.45-6.82,1.43-13.6,1.07-20.51-.04-.75.2-4.12-.26-4.42ZM241.75,146.32c-.18-.12-.27-.49-.77-.78-2.33-1.33-3.45-.48-5.66-.35-3.02.18-12.48-.46-14.98-1.81s-4.25-3.44-7.15-4.61c-1.24-.5-3.03-.71-4.07-1.21s-3.37-2.9-5.19-3.93c-5.75-3.26-13.41-7.15-19.56-9.24-2.81-.95-2.67-.89-5.66-1.3-1.11-.15-2.27-.92-3.65-1.15-5.48-.93-12.27-2.4-17.66-1.4-3.5.65-7.18,2.19-10.87,1.85-.87-.08-1.61-.59-2.42-.7-2.63-.35-3.94.3-6.28.88-5.27,1.3-10.74,2.4-15.89,4.27-9.36,3.4-16.42,9.36-27.25,8.51-2.04-.16-4.21-.97-6.25-1.19-4.24-.47-11-.74-15.05.31-2.14.55-4.31,1.15-6.44,1.72-7.64,2.04-8.34,3.66-14.03,8.29-2.38,1.94-7.84,4.69-9.19,6.89-.71,1.15-.31,2.96-1.74,3.09l-.58-.37-.12-1.68c-1.21.3-3.09,1.86-3.65,2.95s-.4,2.34-.8,3.52c-1.17,3.47-4.19,3.37-5.74,5.54-.32.46-1.08,2.23-1.03,2.71.03.27.33.55.37.81.31,2.61,1.08,5.23,1.25,7.87.34,5.34-2.7,10.73-2.66,16.08,0,1.13.74,2.98.71,3.85-.02.56-.55.99-.65,1.49-.12.6,1.21,4.27,1.59,5.02,3.5,7,16.92,16.9,23.58,21.3,22.71,14.97,50.72,18.9,77.38,21.02,29.51,2.34,65.48-1.23,93.06-12.3,13.82-5.55,38.75-21.75,42.96-36.72,2.57-9.14-.39-15.44-2.11-23.94-.46-2.28,0-3.92-1.67-5.77-.42-.47-.98-.69-1.33-1.07-2.08-2.2-.66-4.62-4.22-6.34-.64-.31-1.7-.41-2.12-.76-.26-.21-.53-.95-.85-1.31-2.96-3.27-5.18-7.14-9.35-8.89-1.11-.46-3.64-.74-4.25-1.16ZM198,123.6l11.87.97c9.87-1.54,16.2,3,24.48,6.48,1.16.49,2.32.54.96-.72-1.55-1.44-5.98-3.67-8.03-4.69-8.74-4.38-13.45-2.94-22.68-2.5-1.97.09-4.38-.25-6.25-.01-.43.06-.39-.08-.35.48ZM246.96,144c-4.94-4.62-11.21-5.94-17.41-7.91-1.54-.49-3.02-1.36-4.67-1.81-1.79-.49-3.86-.58-5.58-1.14s-3.53-1.72-5.41-2.27c-1.54-.45-3.25-.79-4.85-.78l19.31,7.92c2.54,1.1,5.4.91,7.99,1.61,3.47.94,7.23,3.1,10.61,4.38ZM22.08,167.76c-.61-.64-2.37,3.27-2.51,3.6-3.24,7.75-4.06,16.44-1.32,24.48.63.1.49-.11.49-.61-.01-1.63-.86-4.11-.98-5.99-.38-6.19,1.07-12.93,3.12-18.74.33-.94.9-1.8,1.2-2.75ZM262.32,219.12c.26.24,2.77-1.96,3.12-2.27,5.35-4.8,12.3-11.83,15.16-18.44,2.64-6.1,3.51-13.64.08-19.6-.25,1.58.59,3.12.81,4.71,1.19,8.39-3,17.35-8.14,23.73-3.4,4.22-7.63,7.7-11.03,11.88ZM33.6,222.24c-1.95-3.25-4.2-6.36-6.04-9.68-.89-1.61-1.47-3.53-2.41-5.03-.14-.22-1.26-2.02-1.63-1.61.36,3.17,2.79,5.62,4.37,8.23,1.3,2.15,3,6.04,4.87,7.61.27.23.39.58.84.48ZM140.64,256.32c-6.65-1.64-13.34,1.13-19.88,2.32-8.49,1.55-14.69,2.28-23.19.06s-17.87-5.57-26.18-8.38c-8.18-2.76-16.57-6.73-23.27-12.25-3.69-3.05-6.7-7.27-11.64-8.39-.17.94.15,1.46.53,2.23,4.27,8.67,12.06,14.97,20.43,19.41,8.97,4.76,18.78,6.39,28.53,8.91s16.11,5.39,26.2,4.22c8-.93,14.44-4,21.94-5.9,2.18-.55,4.46-.6,6.51-1.54l.03-.69Z"/>
  <path d="M365.95,80.47c2.58-.17,7.91-.05,10.32.58,1.39.36,2.62,1.35,4.01,1.51,3.52.4,7.61-.56,11.29-.25,1.67.14,3.74,1.02,5.33,1.16,2.45.21,3.57-.7,6.84.12,6,1.5,12.7,4.66,18.72,6.48,2.56.77,5.2.95,7.75,1.85,3.25,1.15,5.36,3.55,8.52,4.68,2.06.73,4.23.1,6,1.68,1.97,1.76,2.21,1.72,4.39,3.05,2.52,1.54,4.94,4.22,6.45,6.75,1.62,2.73,2.71,7.69,5.5,9.14,1.72.89,3.55.67,4.74,2.7,1.5,2.56-.25,3.74-.63,5.78-.59,3.22.27,3.44,1.09,6,1.16,3.63-1.02,5.96-1.15,9.08-.07,1.52,1.04,2.13.67,4.25-.56,3.25-4.03,5.24-4.87,7.85-.2.64-.73,2.86-.82,3.5-.27,2.19,1.69,4.23,1.66,6.94-.02,2.43-3.98,10.67-5.75,12.49-3.39,3.48-6.86,4.06-11.11,5.69-6.28,2.41-10.91,4.82-17.82,5.46-3.76.35-8.95.48-12.71.24-2.17-.14-6.8-1.37-8.58-1.15-.71.09-1.93,1.02-2.76,1.34-1.97.75-4.03,1.11-5.98,1.94-3.04,1.28-5.64,3.63-9.08,3.88-7.84-.16-15.69-.68-23.51-.23s-14.16-.18-22.01-1.51c-12.45-2.11-24.6-6.23-35.55-12.45-2.5-1.42-3.36-3.38-5.19-5.37-.37-.4-2.28-2.51-2.42-2.62-.57-.43-3.34-1.15-4.48-1.76-2.01-1.08-5.25-2.73-6.68-4.36-1.28-1.46-2.42-3.47-3.62-5.02-1.64-2.13-3.37-2.99-4.07-6.01-.31-1.33-.13-3.6-.64-4.64-.46-.95-2.29-2.18-3.02-3.22-2.68-3.76-.15-6.25-.06-9.84.11-4.45-.61-6.89,1.81-11.13,1.42-2.49,2.59-2.71,4.45-4.43,3.45-3.21,6.26-6.9,9.11-10.57,7.27-4.57,13.77-10.91,20.67-15.81,7.66-5.44,18.93-7,27.87-9.33,4.08-1.07,9.59-3.45,13.57-3.95,3.54-.45,8-.22,11.77-.47ZM445.12,102.8c-2.78-2.26-4.55-1.9-7.73-2.95-5.39-1.78-10.5-4.74-15.72-6.84-2.59-1.05-5.4-1.59-8.04-2.52-3.2-1.12-10-4.7-12.94-4.57-.92.04-1.99.6-2.92.7-2.56.28-3.46-.53-5.6-1.07-4.17-1.04-9.57,1.03-13.7.02-1.59-.39-2.74-1.26-4.5-1.5-5.49-.76-11.5-.23-16.97.12-4.7.3-6.08,1.18-10.39,2.38-11.36,3.16-24.19,4.22-33.77,11.83-6.28,4.99-12.35,10.3-19.06,14.78-1.93,2.7-4.05,5.29-5.79,8.13-.35.57-2.09,3.43-2.1,3.8,0,1.18,1.12,1.97,1.33,2.98.18.87-.02,1.83.12,2.76.6,4.15,2.31,8.23,6.43,9.89.22.09,2.59.82,2.74.82.72.02,1.72-.61,2.44-.68,1.18-.11,6.63,2.44,8.19,3.05,3.61,1.41,8.91,4.1,12.42,4.62.73.11,1.53-.05,2.33.07,1.88.27,3.21,1.26,5.33,1.38,6.37.37,5.88-1.3,10.1-4.56,2.58-2,6.39-3.84,9.47-2.05,0,.55-2.55.32-3.18.42-2.3.35-5.45,2.81-7.14,4.38-.32.3-2.16,1.99-1.91,2.28,2.57-1.21,5.01.93,7.32.98s4.09-1.85,6.84-.62c1.76.79,1.42,2.59,2.29,3.95,2.7,4.22,11.51,3,15.32,4.84,1.74.84,1.39,1.6,2.2,2.84,1.47,2.24,4.02,2.32,6.19,3.41,2.5,1.26,7.44,5.79,9.91,5.95,1.24.08,2.07-.77,3.32.49l7.85-3.43c3.53-.05,6.17-.67,9.06-2.7.76-.53,1.71-2.17,2.8-1.32s-1.16,2.87-.86,3.14c1.86-.27,3.85.39,5.64.24,1.91-.16,3.94-1.48,5.79-1.65,1.21-.12,2.24.5,3.16.3,3.18-.7,9.01-6.02,12.69-7.73,4.36-2.02,8.25-1.95,12.1-4.94,1.69-1.31,3.9-1.29,5.87-1.81.75-1.01.93-3.44,1.96-4.07.54-.33.67.25,1.16-.73.81-1.62.59-3.09.84-4.68.54-3.43,1.48-7.06,2.63-10.33,1.04-2.94,3.47-6.62,4.21-9.46.63-2.42-1.61-1.67-3.24-2.17-.32.32,1.03,2.81.96,3.47-.08.78-.94,1.1-1.58.62-1.14-.84-1.06-4.42-1.61-5.83-.7-1.79-2.32-4.26-3.26-6.1-1.51-2.96-2.21-5.22-5.07-7.41-1.41-1.08-2.45-1.71-3.93-2.91ZM282.96,125.04c-.35-.39-1.39,1.23-1.54,1.46-2.54,4.01-.72,7.66-1.69,11.75-.35,1.48-1.18,2.5-1.1,4.2.1,2.4,2.13,3.37,2.94,5.23,1,2.29.7,4.73,2.4,7.2.87,1.26,2.23,1.69,3.2,2.8s1.43,2.72,2.51,3.73c.99.92,3.21,1.84,4.51,2.69,2.41,1.59,2.29,1.67,5.1,2.82,1.3.53,2.04,1.41,3.28,2,1.39.66,3.06,1.04,4.5,1.74,2.82,1.37,5.95,3.73,8.9,4.78,3.99,1.42,7.73,1.08,11.71,1.73,4.53.74,7.07,2.1,12.06,1.86,7.63-.37,12.92-1.54,20.88-.96,4.2.31,7.92-.93,12-1.2,8.68-.56,16.64-.2,25.4-1.48,7.65-1.11,15.03-3.33,22.47-5.25-.21-.44-1.39-.72-1.8-.72-1.51,0-4.02,1.23-5.79,1.41-2.73.28-4.05-.32-6.48-.67-3.19-.45-4.17.59-6.96.91-3.06.34-4.78.33-7.77,1.59-1.14.48-2.09,1.54-3.3,1.74-.69.11-3.45.11-4.27.07-2.6-.11-5.03-2.2-6.95-2.42-2.23-.25-5.39.77-7.69.74s-4.83-.68-7.45-.75c-12.65-.32-22.04-2.03-34.08-5.98-5.15-1.69-12.14-4-16.66-6.86-3.77-2.4-7.29-5.41-10.59-8.4l-1.43.38c-.08-.46.28-.9.02-1.33-.08-.12-2.06-1.85-2.19-1.91-.38-.17-1.31-.06-1.43-.49-.26-.88.98-.7.6-1.08-1.46-.72-2.63-1.87-3.98-2.74-1.09-.7-2.6-1.12-3.56-1.96-2.11-1.87-5.08-6.2-5.08-9.1,0-.94.56-2.18.5-2.87-.05-.54-.91-1.25-1.09-2.03-.2-.88-.07-1.77-.1-2.66ZM429.84,166.32c1.49.03,2.94-.44,4.37-.79,4.75-1.14,11.37-2.74,15.29-5.59,3.55-2.58,11.88-10.69,12.69-14.92.19-.96-.28-2.94-.19-4.26.23-3.17,2.36-6.08.47-9.24-.39.12-.58.95-.72,1.31-.63,1.66-1.42,4.15-1.8,5.88-.68,3.08-.73,9.12-2.41,11.51-.41.58-1.14,1-1.51,1.61-.99,1.62-.67,2.63-2.75,3.73-1.57.83-3.75.46-4.07.66s-1.04,1.41-1.61,1.83c-2.45,1.8-6.58.91-9.29,2.47l-8.48,5.8ZM333.12,152.4c-3.86,2.22-7.31-.71-10.79-1.57-1.89-.47-3.8-.29-5.77-.71-5.55-1.19-10.72-4.7-16.08-6.36,1.58,2.18,2.86,5.74,4.79,7.57,5.17,4.9,18.38,9.9,25.26,12.42,11.61,4.24,22.71,6.79,35.1,6.41,2.76-.09,5.53.01,8.29-.23-2.29-2.14-6.15-1.95-8.02-4.57-.55-.77-1.02-2.58-1.83-2.97-2.6-.63-5.32-.71-7.91-1.45-4.27-1.23-5.5-2.8-10.44-3.04-2.23-.11-5.34-3.78-8.9-4.25-1.52-.2-3.45.82-3.7-1.22ZM306.24,174c1.27,1.75,3.66,2.22,5.53,3.23,3.58,1.94,7.79,4.8,11.52,6.24,2.92,1.13,7.21,1.32,10.42,2.3,4.23,1.29,4.97,1.62,9.55,2.21,3.82.49,8.88,2.39,12.78,2.82,4.22.46,7.4-.75,11.27-.97,4.4-.26,9.77.28,14.4.24,2.24-.02,4.89.45,6.97.25,2.75-.27,5.89-2.66,8.63-3.61,1.73-.59,3.71-.79,5.41-1.55,2.14-.96,1.69-1.56,4.68-1.32,6.95.57,12.75-.24,19.69-.72.98-.07,1.92.18,2.77.13,2.87-.17,15.89-5.05,18.95-6.49,2.3-1.09,4.94-4.9,6.34-7.1.67-1.05,2.64-4.24,2.91-5.25.61-2.38-.56-3.95-1.45-6-5.65,7.1-14.83,8.52-23.16,10.44-2.16.5-4.61.59-6.67,1.25-1.71.55-3.34,1.77-5.03,2.41-7.19,2.74-13.78,3.72-21.27,4.89-5.93.93-10.32,4.56-16.36,4.76-1.29.04-3-.59-3.82-.48-.46.06-.72.5-1.08.61-1.34.42-1.94-.33-3.02-.38-1.38-.07-1.6.07-3.17-.17s-5.53-.47-6.98-.13c-2.23.52-4.12,2.42-6.69,1.08-.61-.31-.91-.93-1.42-1.22-2.06-1.14-3.01-.4-5.01-.27-6.9.43-12.74.79-19.67,0-6.53-.75-15.23-2.19-21.3-4.62-1.91-.76-3.68-2.03-5.7-2.58Z"/>
  <path d="M383.09,216.43c.42.74,2.41.44,3.16.56,2.49.38,4.88,2.14,7.18,3.14,8.19,3.55,14.85,6.88,22.65,11.19.4.22.75.69,1.09.83,1.39.56,2.6-.18,3.51,1.77,1.86,3.94-1.1,5.7-1.6,8.91-.16,1.02.05,2.05-.08,3.04-.11.81-.63,1.56-.7,2.42-.08,1.02.3,1.85.22,2.85-.16,2.07-1.54,4.91-3.1,6.27-.59.52-3.61,2.32-3.73,2.51-.21.35-.09,1.07-.3,1.62-.41,1.1-2.66,5.11-3.42,5.94-.99,1.1-2.75,1.01-.94,2.87,3.28,2.04,6.1,4.9,9.27,7.05,1.69,1.15,6.72,3.3,7.02,5.22.17,1.07-.96,3.91-1.53,4.92-1.67,2.93-5.86,3.26-8.9,3.12-1.12-.05-2.29-.43-3.35-.49-2.07-.12-4.16.08-6.22-.23-1,.16-1.5,1.35-2.29,2.03s-2.48,1.93-3.52,1.95c-1.75.05-3.2-2.01-4-1.81-.36.09-.94,1.16-1.36,1.54-.91.83-2.09,1.09-2.88,2.16-1.38,1.84-1.26,5.44-4.61,5.11-1.12-.11-4.56-2.11-5.55-2.87-1.46-1.13-2.42-2.94-3.78-3.9-2.55-1.81-3.56-1.01-5.55-4.29-1.62-2.67-1.49-5.64-5.56-5.46-.2.05-.6,1.79-1.98,1.93-.73.07-1.91.17-2.64.22-5.16.31-11.61-4.81-16.58-6.41-3.82-3.81-10.4-4.53-15.55-5.09-4.23-.46-10.6-3.43-14.6-5.08-6.62-2.72-12.96-5.04-19.84-7.04-2.04-.59-4.21-.45-5.76-2.16s-3.01-6.3-2.59-8.58c.13-.69.76-1.28.8-1.72.25-2.73-.14-2.98,1.03-5.81,1.79-4.35,2.53-5.39,3.46-10.22.62-3.17,2-3.92,3.42-6.42,2.46-4.31,4.09-9.94,6.56-14.32.85-1.51,2.06-2.74,3.13-4.09-1.25-4.39-4.4-8.63-2.62-13.4.78-2.09,4.43-6.08,6.49-6.95,3.97-1.67,10.82-1.09,14.93-.05,6.6,1.68,12.59,7.06,19.51,6.65,2.49-.15,4.56-.61,7.21-.49s5.6.87,8.15.73c3.13-.18,6.67-2.91,9.59-2.88,4.32.04,11.43,2.09,15.55,3.67,1.09.42,3.71,1.72,4.23,2.73,1.07,2.09-.71,5.49-1.1,7.71-.28,1.59-.2,3.29-.62,4.9-.29,1.12-1.86,3.28-1.32,4.22ZM355.68,278.88l6.17,2.11c1.98-.89,2.24-3.24,2.64-5.18.7-3.41.85-7.03,1.58-10.42,1.05-4.86,4.46-9.25,5.38-14.06.65-3.39-.58-6.33-.07-9.67.23-1.47,1.09-3.03,1.5-4.5,1.58-5.59,2.65-11.89,4.56-17.28.65-1.82,1.66-3.51,2.29-5.39.93-2.78,1.33-5.75,2.27-8.53.45-1.32,2.05-3.91,1.57-5.03-.65-1.5-3.66-1.24-5.15-1.58-5.56-1.27-7.61-3.18-13.89-1.74-1.54.35-1.97,1.1-3.21,1.59-4.76,1.86-10.44.2-15.13.21-2.74,0-6.41,1.03-9.12.74-3.68-.39-7.51-3.21-11.03-4.56-5.58-2.15-14.45-5.27-19.97-1.96-1.6.96-1.63,1.69-2.48,3.28l2.9,1.25c.63,2.23,1,4.56,1.86,6.72,1.18,2.98,3.26,5.87,4.73,8.71.41.79,1.94,3.62,2,4.25.11,1.18-1.17-.22-1.51-.66-.42-.55-.74-1.4-1.13-1.99-.17-.25-.48-.75-.44-.04,1.55,2.95,3.04,5.93,4.52,8.92,1.31,2.65,2,5.54,4.48,7.52.18.04.16-.25.12-.35-.35-.84-1.38-2.12-1.88-3.16-.73-1.53-1.56-3.47-2.13-5.07-.25-.69-1.15-2.94-.9-3.42.15-.29.31-.28.47.01,1.78,3.01,3.21,6.2,4.89,9.27,1.57,2.87,2.34,3.95,4.35,6.45s3.52,5.46,5.43,8.01c1.19,1.59,2.69,2.92,3.93,4.47,4.46,5.54,6.28,10.87,9.16,17.24.86,1.9,2.13,3.85,2.89,5.75.45,1.13,1.02,4.34,1.89,4.83.34.2.86.17,1.28.4.39.21.64.77,1.04.88,1.17.34,2.6-.21,3.4,1.41l-.2.69c-.67.46-1.37-.36-1.92-.5-1.44-.37-2.89-.63-4.27-1.25-1.54-.69-2.04-4.32-2.74-5.9-2.67-6.08-6.82-14.33-10.24-20-1.75-2.89-3.44-3.94-5.42-6.34s-3.64-5.47-5.3-8.14c-.36.19.07.58.16.8,2.77,6.55,7.79,12.69,11.28,18.96,2.27,4.07,3.71,8.51,5.75,12.49.83,1.62,2.96,3.51,3,5.35.03,1.09-.81,1.62-.02,2.94.61,1.01,3.85,1.51,5.2,2,2.98,1.08,5.82,2.49,8.72,3.76,1.01-.05,2.82.5,2.98-.94-2-.5-5.21-1.47-6.24-3.36ZM305.03,199.45c-.39.16-1.72-.7-1.67.11.07,1.16,1.16,2.84,1.92,3.72l-.25-3.83ZM340.08,268.32c.48-.62-4.07-9.03-4.76-10.24-2.95-5.19-6.44-10.12-9.44-15.28-1.48-2.55-2.58-5.35-4.18-7.82s-3.8-4.62-5.33-7.39c-2.54-4.59-4.51-9.64-7.21-14.15-.4-.68-1.41-2.5-1.86-2.94-.2-.2-.22-.34-.58-.25-.25,1.64-1.83,2.43-2.77,3.6-1.64,2.04-2.21,4.5-3.31,6.77-2.98,6.2-6.14,12.23-7.98,18.9-.56,2.27-2.81,5.15-3.37,7.2-.34,1.23.93,1.43.8,2.71-.12,1.19-2.07,2.55-2.13,3.89-.04,1.01,1.05,3.93,1.78,4.61.61.57,2.83.64,3.77.91,12.92,3.73,23.91,10.33,37.26,12.66,4.26.74,8.29,2.86,12.66,3.06.44-.45-1.27-2.87-1.7-3.22-4.16-3.48-7.17-3.26-11.74-4.82-1.29-.44-2.54-1.43-3.9-1.86-1.91-.61-4.02-.6-5.94-1.26-5.23-1.79-11.58-7-16.52-8.2-1.99-.48-4.01-.34-5.81-1.52l.12-.48c3.39-.12,6.28.55,9.33,1.96,4.7,2.16,9.23,4.93,14.08,6.8,1.91.73,7.99,2.8,9.82,3.14,1.32.25,2.66.15,4.04.52,1.83.48,3.41,1.54,4.85,2.71ZM418.52,235.23c-3.76.37-6.3-2.4-9.32-4-2.46-1.31-5.04-2.49-7.52-3.76-4.42-2.25-11.36-6.21-16.18-6.86-1.06-.14-2.3.11-3.25-.11-.77-.18-1.64-1.4-2.78-1.13-2.25,6.15-3.02,12.69-4.94,18.94-.62,2.02-1.68,3.32-1.71,5.6-.02,1.66.58,3.44.64,5.07.21,6.24-3.97,10.27-5.59,15.55s-1.72,11.74-4.02,16.98c.23.22,4.05.51,4.86.79,2.25.77,2.44,4.4,3.89,5.95.94,1,3.03,1.36,4.09,2.39.6.58.96,1.47,1.67,2.17,1.73,1.67,4.24,2.97,5.78,5.02,1.17-.43,1.12-1.82,1.58-2.72.71-1.41,1.34-2.2,2.5-3.26s4.53-3.73,6.03-3.83c2.73-.19,2.42,2.08,4.62,2.12.76-2.76.48-5.67.51-8.51,0-.62-.28-1.23-.27-1.91.01-1.55.76-6,.45-7.14-.24-.87-.98-.79-.51-2.3.5-1.6,2.12-1.83,3.19-2.57.52-.36,4.78-6.89,5.18-7.78.59-1.32.38-1.79.65-2.95.29-1.27,1.95-1.67,2.36-.43h.34c1.09-1.23,2.82-2.41,3.53-3.9,1.03-2.16.28-3.19.47-5.29.13-1.45,1.44-6.76,2.04-8.04.67-1.45,2.56-2.5,1.74-4.07ZM402.48,286.32c.43.02.89-.06,1.32,0,3.49.5,7.27,1.09,10.79,1.21,3.95.14,4.91-.08,5.85-4.18-.11-.58-4.69-2.78-5.55-3.32-2.8-1.73-9.22-5.92-11.21-8.23-.34-.4-.42-.97-.84-1.31l-.79.58c.67,2.29.6,5.03.67,7.45.01.47.26.93.26,1.44,0,1.99-1.01,4.23-.5,6.36Z"/>
  <path class="st0" d="M241.75,146.32c.6.41,3.14.69,4.25,1.16,4.17,1.74,6.4,5.62,9.35,8.89.32.36.6,1.1.85,1.31.42.35,1.48.45,2.12.76,3.57,1.71,2.14,4.14,4.22,6.34.35.37.91.6,1.33,1.07,1.67,1.85,1.21,3.48,1.67,5.77,1.71,8.5,4.68,14.8,2.11,23.94-4.21,14.97-29.14,31.17-42.96,36.72-27.58,11.07-63.55,14.64-93.06,12.3-26.66-2.11-54.67-6.05-77.38-21.02-6.67-4.39-20.08-14.3-23.58-21.3-.38-.76-1.71-4.42-1.59-5.02.1-.5.63-.93.65-1.49.03-.87-.7-2.72-.71-3.85-.04-5.34,2.99-10.74,2.66-16.08-.17-2.64-.94-5.26-1.25-7.87-.03-.26-.34-.54-.37-.81-.05-.48.71-2.25,1.03-2.71,1.54-2.17,4.56-2.07,5.74-5.54.4-1.18.25-2.45.8-3.52s2.44-2.65,3.65-2.95l.12,1.68.58.37c1.43-.13,1.03-1.94,1.74-3.09,1.36-2.19,6.81-4.95,9.19-6.89,5.69-4.62,6.4-6.24,14.03-8.29,2.13-.57,4.3-1.16,6.44-1.72,4.05-1.05,10.81-.78,15.05-.31,2.03.23,4.2,1.03,6.25,1.19,10.83.86,17.89-5.1,27.25-8.51,5.15-1.87,10.62-2.97,15.89-4.27,2.34-.58,3.65-1.23,6.28-.88.81.11,1.55.62,2.42.7,3.69.34,7.38-1.2,10.87-1.85,5.39-1,12.18.47,17.66,1.4,1.38.23,2.54,1,3.65,1.15,2.99.4,2.86.34,5.66,1.3,6.14,2.09,13.8,5.98,19.56,9.24,1.82,1.03,4.1,3.41,5.19,3.93s2.83.71,4.07,1.21c2.9,1.17,4.73,3.3,7.15,4.61s11.96,2,14.98,1.81c2.21-.14,3.33-.98,5.66.35.51.29.59.66.77.78ZM160.8,123.36c-.35,1.27,2.27,2.69,3.25,2.62.4-.03.66-.51,1.18-.47s.89.84,1.61,1.06c.44.14,2.98.59,3.47.63,1.23.1,2.6-.94,1.17-1.19s-3.32-.03-4.51-.29c-.56-.13-1.09-.83-1.53-.86s-.7.42-1.12.38c-.65-.05-3.27-2.15-3.52-1.87ZM177.76,129.2c-1.15-1.31-3.58-2.1-5.2-2.72.54,1.13,1.91,1.26,2.85,1.82s1.55,1.69,2.67,1.53c.03-.02-.23-.54-.32-.64ZM192.96,133.92c-.1-1.23-1.97-.55-2.95-.77-.65-.15-1.28-.95-2.02-1.1-.69-.14-1.45.07-2.06-.1-.52-.15-.71-1-1.37-.91.14,2.12,2.31,1.62,3.61,2.03.64.2,1.15.93,2.04,1.08s1.89.02,2.74-.23ZM150.96,139.92c.51-.87-1.93-3.37-2.4-2.88-.22,1.34,1.01,2.99,2.4,2.88ZM74.16,137.28c-.56-.12-.39.07-.54.31-.73,1.14-.55,2.36.78,2.81l-.24-3.12ZM83.64,137.52c-1.36,1.11,1.06,5.95,2.16,5.99.43-.35.32-.26.16-.63-.3-.72-1.08-1.44-1.42-2.19-.5-1.12-.36-2.17-.9-3.17ZM86.64,141.12c-.06-.7.05-2.35-.96-2.4-.02.81-.19,2.29.96,2.4ZM180.72,139.44c-3.16-.38-3.6,1.68-2.88,4.31-2.21.59-4.42.57-4.97,3.28.43,1.18-.04,3.27,1.51,1.53.17-.84-.86-1.06,0-2.4s2.73-1.21,3.97-2.03c.7-.82-.67-2.45.6-3.48.53-.43,1.79-.33,1.77-1.22ZM123.6,147.84c-8.08-.68-15.48,2.21-23.23,3.52-11.23,1.9-21.49,1.77-32.79,1.5-1.95-.05-3.95-.04-5.89.13.58.65,1.53.26,2.28.36,10.05,1.35,17.87,1.82,28.05.69,3.02-.34,6.03-.95,9.03-1.41l-4.31,2.52c-6.64,3.42-13.78,6.88-21.49,6.36-2.88-.19-5.61-1.4-8.51-1.21,1.14,1.32,3.64,1.88,5.32,2.24,11.64,2.47,20.93-4.39,30.68-9.33,6.86-3.47,12.35-3.68,19.74-4.74.4-.06,1.35-.03,1.15-.65ZM150.16,151.73c-2.04.18.46,4.06,1.39,3.78s.13-3.92-1.39-3.78ZM168.06,157.02c.16-.25.8-.17.91-.92.02-.14-.54-2.56-.61-2.74-.32-.74-1.75-1.13-2.53-1.09-2.16.11-6.71,3-8.95,4.01-1.17.53-5.23,1.74-5.81,2.35-1.08,1.14.34,1.36,1.33.97-.76,1.13,2.27,3.24,2.88,2.64.41-1.88-1.55-1.56-2.4-2.64.85.08,1.88-.15,2.7.06,1.23.31,1.72,2.12,3.16,2.11.6,0,3.53-.73,4.07-1,.99-.49.94-1.39.87-2.37.91.71,3.61.77,4.14-.3.17-.33.08-.83.24-1.08ZM190.74,153.16c-.52.05-2.23.9-2.1,1.52,1.02.92,2.46.23,2.89-.95-.03-.53-.34-.61-.79-.56ZM191.46,156.3c-.85-.45-2.1-.31-2.92-.8-1.21-.73-.08-2.04-3.08-1.1-2.05.64-2.65,2.46-3.43,4.25-.64-.51-1.48-3.2-2.53-2.53l-.98,2.27c-.53.02-1.95,0-2.1.65-.13.56.99,3,.91,4.03-.13,1.8-2.62,2.88-2.1,5.49.18.92,2.38,2.65,3.25,2.99.94.37,1.25.33,2.14.78,1.33.67,3.52-.59,5.2.27s2.23,5.17,4.6,5.27c1.27.05,2.97-1.36,3.19-2.6.1-.57-.17-.96-.13-1.35.05-.48.6-1.08.63-1.73.06-1.14.17-1.85.36-2.99.09-.57.38-1.28.39-1.81.01-.71-.47-1.09-.45-1.38.03-.39.6-.96.68-1.72.23-2.16-.72-2.27-1.69-3.6-.29-.4-.32-.95-.6-1.32s-.92-.52-1.04-.88c-.2-.61.16-1.55-.33-2.19ZM197.25,156.69c.12-.07.29-.78.24-1-.15-.63-1.67-1.34-2.27-1.37-2.05-.09.83,3.13,2.03,2.36ZM140.32,154.83c-1.49.49,1.11,2.67,1.89,2.85,1.12-1.05-.61-3.27-1.89-2.85ZM210.88,158.96c-.99-.97-3.56-.99-4.89-1.71-.81-.44-1.33-1.58-1.63-1.73-.57-.29-.31.62-.17.89,1.13,2.26,4.59,1.94,5.8,3.08.35.33.38.83.75,1.17.74.69,1.99,1.29,2.62,1.94.57.59.83,1.52,1.43,2.17.74.8,1.88,1.27,2.65,2.15,2.24,2.61,3.99,11.74,3.01,14.99-.37,1.21-1.7,2.47-1.8,3.01-.14.75.26,1.42.25,2.14-.03,2.59-1.34,3.89-2.54,5.88-.57.95-.63,2.06-1.79,2.77-.21.51.54.4.82.34,1.53-.34,1.37-1.62,1.96-2.6,1.49-2.51,2.19-2.96,2.41-6.18.04-.64-.33-1.29-.1-2.07.11-.38.95-.99,1.28-1.6,1.88-3.47.24-13.9-2.29-16.94-.9-1.09-2.34-1.87-3.12-2.88-.74-.94-.78-1.77-1.94-2.62-1.43-1.06-1.43-.97-2.71-2.22ZM136.32,156.96c-.09-1.2-1.38-1.14-1.69-.12l.38.6,1.31-.48ZM230.4,159.6c-.7-1.01-2.19-1.24-3.29-1.87-.46-.27-2.38-2-2.71-1.72,1.24,2.09,3.4,3.97,6,3.6ZM130.3,161.5c.57-.81-1.7-3.15-2.35-2.11-.74,1.17,1.63,3.14,2.35,2.11ZM248.94,176.58c1.02,1.11.79-.72.59-1.42-1.2-4.26-6.22-8.08-9.65-10.75-1.25-.97-5.2-3.96-6.42-4.38-.38-.13-.71-.26-1.13-.19-.49.43,1.92,1.87,2.14,2.06,3.5,3.01,10.75,6.74,12.87,10.65.54.99,1.12,3.48,1.62,4.02ZM112.41,163.06c.66-.51,1.87-1.48,1.42-2.43-.81-1.71-3.99,1.45-2,2.7.6.37.43-.15.57-.27ZM137.04,160.32c-.36-.31-2.57,1.2-3.2,1.48-1.97.87-4.71,1.19-5.61,3.51-.68,1.74-.11,3.91,1.85,4.37-.01-1.08-.97-1.91-.96-3,0-3.16,5-3.46,6.85-5.15,1.36,2.57,3.83,4.14,1.66,7.18-1.2,1.68-2.76,1.47-4.55,1.7-.33.04-.7.12-.36.47,3.56,1.27,7.05-1.08,6.94-4.89-.07-2.37-3.28-3.38-2.62-5.66ZM61.7,163.41c.33-.94.3-2.23-.98-2.13l-.22,2.24,1.26.85.63-.57-.69-.39ZM118.83,163.17c-.25-2.24-2.01-1.67-2.19.27-3.73-.91-.91,3.64.48,4.8-2.81-.61-4.96-2.54-7.61-3.55l-.8.91c-1.4-1.34-1.62.34-2.05.44-.3.07-.9-.43-1.32-.11-.32.24-.12.89-.26,1.06-.4.49-4.03-.16-2.13,2.56-.03.52-2.6.59-3.12,1.19-.45.54-.08,1.13-.29,1.51-.14.26-1.28.55-1.72,1.51-.27.6-.75,2.55-.86,3.23-.28,1.83.42,1.24,1.26,1.77.53.34.4,1.17,1.73,1.23.43.02,2.77-.46,3.24-.61,1.42-.46,2.59-2.13,4.26-1.4.32.14.36.57.69.75.83.46,2.24.48,2.96-.19.19.23-2.02,2.93-.8,3.33,1.07.35,2.37-1.06,3.44-1.17-.05,1.48,1.02.88,1.52,1.04.45.15.72.6,1.26.64.9.06,1.44-.84,2.26-.96,1.1,3.4,3.03-.93,3.96-2.16.5,1.32,2.19-.58,3.08-1,1.89-.9,3.97-1.03,5.8.04,1.09-.7-.41-1.85-.33-2.25.09-.47,1.02-.53.65-2.14-.19-.83-2.87-4.44-3.65-4.75-.55-.21-1.27-.12-1.71-.45-.1-.07-1.67-1.64-1.73-1.74-.23-.42.23-1.39-.53-1.76-.83-.41-1.65.61-2.52-.6-.3-.41-.31-1.25-.76-1.4l-2.22-.06ZM103.44,165.12c1.26.12,3.22-.19,3.48-1.66.39-2.14-4.19-.27-3.48,1.66ZM134.88,163.92c-1.53,0-1.98,2.39-1.92,3.6.56-.11,2.06-3.45,1.92-3.6ZM41.76,176.88c1.43-.58.89-.74,1.83-1.41,1.4-.99,3.32-1.29,4.52-3.16.64-1.01.27-1.71.5-2.37.32-.92,1.59-1.23,1.92-2.88.44-2.13-1.15-2.84-1.57-1.81-.27.66.49.48.5.95.03,1.15-.63,1.99-1.26,2.85-.22.31-.67.44-.79.65-.28.48-.13,1.29-.64,2-1.29,1.77-4.41,1.53-4.95,3.94-.1.45,0,.86-.06,1.26-3.38,1.37-1.62,5.35-1.44,8.04.35,5.29-3.52,4.28-5.03,8.28.64-.27.85-.99,1.35-1.4,2.36-1.96,5-1.73,5.37-5.91.26-2.96-.69-5.56-.25-9.01ZM157.44,174.96c.03-1.61,2.11-3.07.72-4.68-1.33-.15-2.65-.12-3.91-.65-.54-.22-.5-1.04-1.52-1.14s-1.54.58-2.19.67c-.75.1-2.52-.9-2.95-1.51-.59-.83-1-4.38-2.98-2.27-1.86,1.98.95,4.7,2.5,5.87-1.35.5-.34,1.17-.51,1.88-.12.49-.87.59-1.05.88-.79,1.25,2.8,4.42,3.89,5,1.85.97,3.98.99,5.89,1.74.27.11.25.59.84.66.69.08,1.12-.26,2-.1,1.22.22,2.14,1.37,3.49,1.56,1.75.24,4.38.14,5.58-1.33.62-.76.59-1.73.98-2.31.22-.33.84-.45,1.18-1.04.97-1.7-.06-2.77.04-4.26.08-1.2,1.08-1.96.6-3.52-.6-1.94-3.56-.55-4.26.8-.91,1.77.13,2.61-2.7,2.82-1.16.09-2.43-.47-2.85-.44-.52.04-2.17,1.14-2.8,1.39ZM204.96,168.24c-1.28-.18-2.43.56-2.4,1.92,1.19.05,2.61-.53,2.4-1.92ZM96.91,169.24c-.67-.43-1.1-.72-1.76-.05-.48,1.16.41,1.38,1.41,1.17.47-.16.49-.74.35-1.12ZM175.68,171.36c-.99.03-.68,1.31-1.31,1.93-.68.68-1.98.72-2.77,1.79-1.61,2.17-.17,5.9,2.58,6.06,1.2.07,3.92-.91,3.9-2.34-2.28.55-4.99,2.38-5.83-1.01-.7-2.8,2.11-2.7,3.56-4.26.62,1.17,2.89,1.2,3.5,1.77.88.83-.5,2.35.35,2.53.58.12,1.22-1.39,1.27-1.86.3-3.13-5.13-1.64-5.23-4.62ZM234.72,176.16c.07-1.53-4.05-4.81-4.93-3.12-.34.66.3,1.06.77,1.4,1.24.89,2.71,1.32,4.16,1.72ZM95.28,173.28c-.4-.34-3.59,1.14-4.47,1.19-.69.04-2.78-.71-2.22.82.34.93,2.42.55,3.14.32.36-.11,4.16-1.8,3.55-2.33ZM222.79,175.37c1.29,1.25,5.3.37,6.66,2.1.32.41.5,1.32.7,1.46,1.05.74,1.07-.82.49-1.7-1.3-1.98-4.43-1.69-6.49-2.15-.42-.09-1.84-1.05-1.66-.25.12.16.17.4.3.54ZM175.68,175.2c-.56-.51-2.59,1.48-1.56,2.15l1.56-2.15ZM205.17,176.67l-1.02-.26-2.06.58c.65,1.14,1.87,1.82,3,.85l.09-1.17ZM87.39,182.67c.32-.52,6.06-1.04,7.18-3.02.37-.64.36-2.47-.37-2.53-.54-.04-.05,1.36-.16,1.74-.49,1.71-5.94,2.05-7.06,3.04-.63.55-.15,1.46-.47,2.17-.53,1.22-3.19,1.59-3.86,2.38-.4.47-.33,1.05-.61,1.55-.44.79-1.7,1.72-2.18,2.62-1.51,2.8,1.52,4.62,2.19,7.26.42,1.63-.06,4.26.43,5.33.33.71,1.08.62,1.63,1.01,2.08,1.5,1.62,5.07,3.6,6.72.38-.27.34-.36.3-.77-.08-.9-1.27-4.15-1.73-4.99-.66-1.21-1.7-1.75-2.73-2.55-.07-1.82.11-3.35-.4-5.12-.43-1.52-2.5-4.25-2.54-5.16-.07-1.65,1.96-2.77,2.48-4.02.19-.46.1-1.14.22-1.34.22-.35,3.09-1.02,3.77-2.35.39-.76.15-1.73.3-1.98ZM135.6,180.72c.19-.56.66-3.18-.32-3.09-.74.07-3.62,2.9-4.5,3.43l-2.51,1.1c-.21,1.6,1.61,2.45,2.16,3.62.19.4-.08,1.75,1.18,1.61.14-.02,2.51-1.08,2.64-1.18.89-.67.42-1.2.39-2.13,2.55.67,3.36-2.98.96-3.36ZM254.16,180.96c.39-1.1-3.45-4.96-3.08-2.57.04.24,1.88,2.33,2.13,2.45.32.15.62.16.95.12ZM77.8,179.48c.81.55,2.42.77,3.1-.06,1.26-1.55-3.89-2.73-3.1.06ZM186.68,191.8c.08.06.1.55.27.8.58.85,1.24.43,1.94.71.6.23,1.01.93,1.73.81.92-.14,2.17-2.32,4.19-2.79,1.06-.24,1.97.42,2.21-1.15.62-4.09-4.38-4.08-6.34-5.86-1.65-1.5-3.34-5.24-5.2-5.84-.5-.16-2.24-.57-2.74-.63-2.29-.26-3.7,1.59-3.71,3.71,0,.47.25.92.2,1.38-.15,1.65-2.96,2.89-.79,4.74,1.33,1.13,1.8.43,3.12.45,2.44.04,2.07,2.8,3.95,3.52.36.14,1.03.02,1.17.15ZM233.76,185.52c1.68.17,2.04-1.47,1.5-2.82-.15-.37-.63-.68-.83-1.09-.38-.79-.51-1.65-1.03-2.32-.54-.02-.14,1.96-.06,2.22.21.65,1.02,1.42,1.04,1.98.02.63-.75,1.33-.62,2.04ZM147.12,179.52c-.15-.13-3.35,1.18-3.76,1.4-.66.35-1.88,1.59-2.17,1.67-.48.14-1.01-.05-1.51.17-.11.05-1.75,1.45-1.8,1.56-.36.73.07,1.92-.17,2.71-.2.67-1.29.87-1.15,2.19.1.89,1.55,2.22,1.81,3.26.21.82-.55,2.81.5,3.11.89.25,2.18-2.53,2.99-3.21,1.26-1.07,3.09-1.14,3.81-1.71.4-.32,1.61-2.36,1.59-2.87-.04-1.33-1.72-.46-2.3-1.2.32-.57,1.03-1.23.96-1.91-.08-.74-1.37-1.1-1.22-1.91.83-.28.67-.96,1.01-1.43.21-.29,1.68-1.58,1.41-1.83ZM106.73,190.97c.98-1.08.22-2.02.36-3.1.1-.81,1.07-1.88,1.08-2.22,0-.55-1.11-1.15-1.1-1.92,0-.87,1.58-2.09.72-3.14-1.49-1.05-7.37,3.58-9.28,3.97-.96.2-.74-.34-.99-.46-.88-.45-1.8-.81-2.59-1.44-1.26,1.11.51,3.99-2.04,3.83.13,1.03.64,2.85.3,3.77-.62,1.68-2.96,2.29-4.02,3.67-.54.7-1.16,2,.2,1.16.65-.4,1.13-1.14,1.73-1.63,1.29-1.07,2.83-1.59,3-3.6.5.12.43.78.71,1.09,1.03,1.13,2.1.83,1.21,2.99,1.51.2,2.11-.05,3.23-.96l1.8,1.08c-.47.46-.78,1.27-.73,1.93.05.72.51.79.63,1.19.11.36-.08,1.15.23,1.57.3.52,1.02-.02,1.34.12.22.1,1.07,1.43,1.14,1.73.31,1.38-.78,1.78-.84,2.86s1.31,3.81,2.33,4.28c.38.17,3.29-.07,3.9-.17,3.4-.56,1.64-4.1,2.82-5.1.72-.61,2.22-.24,3-.84.6-.45.43-1.24.72-1.68,1.29-1.98,8.85-.17,5.39-4.09,1.46.54,2.77-.78,3.73-.95,1.52-.28,2.25.53,3.43-1.13,1.58-2.22.5-4.23-1.29-5.83-.73-.66-2.07-1.26-2.64-1.92s-.89-2.7-1.75-1.53c-.43.58-.64,1.31-1.23,1.89-.85.84-1.81.92-2.42,2.14-.5.99-.8,2.51.25,3.25.38-1.15.03-2.35.85-3.35l2.86-2.17c1.26,2.12,6.07,3.35,4.57,6.48-.85,1.76-2.13.78-3.54,1.22-.22.07-.1.42-.52.48-1.48.2-2.48-.39-3.83-.48l-.28.47.62.95c-.8.05-1.01-.98-.96-1.68l.96-.36c-1.24-.66-1.72-2.76-3.43-2.24-.59.18-.95,1.28-1.92,1.12-.45-.07-.89-.63-1.37-.81-.53-.2-1.27-.12-1.76-.4-.44-.25-.49-.93-1-.93-.19,0-2.48,1.66-3.35,1.95-1.09.35-2.05.24-3.13.47l2.92-1.52ZM239.88,181.44c-.41.1-.61,1.34-.56,1.74.13,1.07,1.36,1.97,1.58,2.76.63,2.34-1.71,3.53-2.71,5.33-.15.27-1.28,2.42-.47,2.4.37,0,3.71-5.08,4.01-5.83,1.04-2.66-.64-2.8-1.14-4.48-.14-.47.06-2.11-.7-1.93ZM162.44,186.93c1.27-3.38-3.82-1.29-5.12-1.41-1.22-.12-1.31-1.58-3.8-.66-2.8,1.03-2.85,2.5-4.15,4.49-.33.5-2.5,3.25-2.49,3.5.64.86,1.03-.37,1.84-.55,1.24-.28,2.53.17,3.91-.41,1.13-.48,1.32-1.66,2.32-2.24.75-.44,1.91-.42,2.49-.87.49-.38.4-1,.88-1.28,1.02-.6,2.97-.47,4.13-.55ZM204.13,185.04c-1.2,1.07,1.33,3.22,2.29,2.53,1.17-.83-1.5-2.53-2.29-2.53ZM198.13,186.96c-1.02.2.17,2.73,1.41,2.39,1.1-.3-.65-2.54-1.41-2.39ZM71.28,190.56c.65-1.05-1.76-2.98-2.29-2.17-.63.99,1.32,2.43,2.29,2.17ZM121.2,191.52l.48-3.12c-1.13.58-1.74,2.37-.48,3.12ZM65.04,191.76c.02-.77-2.83-2.85-3.12-2.64-.66,1.7,1.61,2.95,3.12,2.64ZM165.36,191.04c-.68-.47-2.35.25-2.16,1.06.25,1.09,2.53-.57,2.16-1.06ZM225.36,199.44c-.21-.23.52-5.14-1.68-4.8.37,1.57-.81,1.78-1.37,2.47-1.85,2.32-2.43,4.92-5.58,5.82-2.56.73-2.16.77-4.32,1.92-1.78.94-3.7,1.3-5.63,1.77-.59,1.53,2.81,1.79,3.82,1.7,1.07-.1,1.9-.91,2.41-.96.78-.07,2.37.48,3.31.46,2.61-.05,6.38-1.79,8.54-3.24.56-.38,3.31-2.57,3.5-2.98.4-.87-.78-2.62-1.68-2.62-.51,0-.8.54-1.32.46ZM151.13,202.49c.98-.88.8-2.37,1.26-3.18.57-1,4.93-2.53,2.07-3.96-3.19-1.59-3.24.84-5.11,1.16-1.16.2-1.91-.38-2.72-.29-.21.02-3.08,1.62-3.41,1.83-1.16.73-3.87,2.45-3.9,3.92-.08.67.97.75,1.07,1.22.1.53-1.32,2.18-.33,3.21.82.86,1.13-.5,1.38-.66.4-.25,3.12-1.63,3.61-1.79,1.62-.54,4.93-.42,6.09-1.47ZM197.05,206.87c.36-2.85-2.53-2.65-4.07-4.22-.22-.91,3.54-4.06,3.48-5.74-.09-2.49-3.67,1.2-4.34,1.08-.89-.16.84-2.29-.36-3-3.37-2-6.99,8.07-7.58,8.06l-1.55-.5c.05-.72.6-1.17.38-1.92-.05-.18-1.95-2.46-2.18-2.64-1-.79-1.79-.26-2.78-.58s-.89-1.92-2.58-1.42c-1.1.32-2.26,2.26-3.72,2.24l-.16.72c1.32.59,3.66-2.08,4.39-1.89.3.08.84.85,1.54,1.12,1.09.42,1.91-.12,2.77.53.09.07,1.22,1.36,1.26,1.45.56,1.2-.46,1.54-.7,2.17-.64,1.66-.53,2.76-2.05,4.19-.61.58-2.49,1.43-2.77,2.04-.34.73.23,1.59.11,2.49-.16,1.18-1.42,2.49-2.28,3.26-.23.21-2.5,1.5-2.03,1.92,2.87-.93,6.69-4.04,5.04-7.43,2.5-.9,4.5-3.06,4.8-5.77.64.47,1.5.42,2.15.85.59.39,1.91,1.73,2.59,2.28,1.51,1.23,2.79,1.79,3.41,3.97s-.13,2.81-.94,4.66c1.2-.03,1.45-2,2.29-2.17.68-.21.6.47.97.7,1.64.98,4.53,1.53,6.4,1.18.36-.07,3.08-1.08,3.31-1.25,3.35-2.48-1.92-6.84-4.81-6.38ZM254.4,206.64c.61.56,2.66-2.4,2.87-3.01.64-1.91.41-2.78.47-4.55.05-1.41.7-2.89-.34-4.19.01,1.36-.34,2.9-.38,4.2-.05,1.57.53,2.44-.23,4.31-.43,1.08-2.23,1.73-2.39,3.25ZM130.2,195.6c-.4.99-.4,1.93-.87,2.97-.69,1.49-2.17,2.72-2.62,4.34-.53,1.91-.4,3.77,1.42,4.85,5.23,3.09,11.95-3.97,7.84-8.08-.65-.65-1.52-.9-2.17-1.43-1.12-.92-1.97-2.37-3.6-2.64ZM254.16,198.48l-.58.48-1.58,2.63c1.44-.1,2.32-1.77,2.16-3.12ZM170.64,198.96c-4.48.64-6.68,5.02-11.22,5.7-.79.12-1.55-.02-2.31.09-2.4.33-4.22,2.92-6.41,4.15-1.34.76-2.42.98-3.77,1.52-.36.15-.65-.14-.53.54,1.97.09,4.05-.84,5.74-1.82,1.43-.83,2.84-2.4,4.27-2.93,1.84-.68,3.94-.78,5.83-1.61,2.14-.93,3.64-2.68,5.53-3.83.27-.16,3.35-1.37,2.86-1.82ZM72.21,201.57c.1-.45.15-1.21-.36-1.38-4.18-.61-3.03,2.65.36,1.38ZM70.49,206.45c-.35.08-.66.27-.89.55-.21.9,2.26.75,2.64,0,.17-.74-1.3-.65-1.75-.54ZM244.8,217.92c1.37-.22,3.15-1.29,4.08-2.28.64-.68,1.06-1.83,1.67-2.41.74-.7,1.98-.9,2.76-1.8.94-1.1,1.26-3.3.49-4.54-.56,1.18-.3,2.59-1.08,3.72-.62.91-1.87,1.22-2.65,1.91s-1.16,1.81-1.91,2.65c-1.02,1.15-2.35,1.67-3.36,2.75ZM135.24,212.4c-1.39.62-1.08,5.01.47,4.55.89-.27-.2-4.55-.47-4.55ZM89.76,212.88c-2.08-.19-1.03,1.74-.13,2.65,1.47,1.48,2.67.98,4.06,1.7,1.46.76,2.07,2.38,3.99,3.21,3.91,1.69,16.27,3.77,20.79,4.17.75.07,1.5.03,2.25.03-.97-1-2.95-1.24-4.32-1.56-5.05-1.18-16.09-1.97-19.9-4.58-2.32-1.59-1.52-1.68-4.54-2.66-1.07-.35-2.79-1.73-2.2-2.96ZM126.66,215.08c-1.1.22-1.6,2.05-.74,2.33,1.77.6,2.77-2.74.74-2.33ZM143.52,215.52c-.62.88,1.11,2.56,1.92,2.05.98-.62-1.24-2.22-1.92-2.05ZM236.04,222.72c-1.02.17-2.41-.12-3.48,0-.03.56-.09.43.35.48,4.95.6,7.93-2.14,11.4-5.16.03-.18-.23-.15-.36-.12-1.95.41-5.34,4.37-7.92,4.8ZM161.76,223.68c1.92-.45,4.93-.14,5.52-2.51-.69-.93-1.3.56-1.94.94-1.07.64-2.8.45-3.58,1.58ZM232.08,223.68c-1.01.41-1.36,1.09-2.53,1.42-1.75.49-3.32.03-5.14.62-1.08.35-2.4,1.55-3.3,1.74-1.94.4-4.14.54-6.08.88-1.12.2-1.75,1.01-2.28,1.1-.71.12-1.42-.37-2.13-.25-.59.09-.89.84-1.48.9-.86.1-2.53-.91-3.57-.9s-2.24.85-3.22,1.09c-3.33.83-6.66-2.08-9.95-.87l-.14.74c1.66.03,3.72.19,5.34.54.81.17,2.63,1.25,3.3.79.16-.11.18-.51.27-.58.13-.09.63.21.98.16,1.03-.14,1.92-.82,2.94-.91,1.75-.15,3.15,1.1,4.69.62.37-.12.65-.59,1.06-.6.51-.02,1.25.72,1.89.65.79-.08,1.04-1.2,2.03-1.54,1.69-.58,4.55-.7,6.35-1.09,1.21-.26,2.93-1.75,4.19-2.05,2.29-.56,5.65.35,6.79-2.45ZM181.92,228c-.64-1.76-4.01-2.92-5.63-2.38-.32.11-2.74,1.74-2.88,1.92-.91,1.18.68,3.49-1.45,3.37-.81-.05-2.73-1.74-3.8-2.22-1.59-.73-3.85-1.25-5.37-2.07-.78-.42-1.28-1.28-2.27-1.57-1.9-.56-2.69.75-4.52.56.88,1.3,2.75.43,4.09.83.69.21,1.37,1.12,1.97,1.39.72.31,1.68.29,2.5.62,1.86.74,5.59,3.75,7.15,3.9s2.59-.69,2.68-2.33c.03-.5-.31-1.04-.12-1.6.07-.2,1.57-1.34,1.88-1.48,2.38-1.07,3.69.31,5.76,1.08ZM188.93,228.78c-.38.4-.19,1.75-1.36,1.63-.5-.05-2.23-2.05-3.08-2.46-.23-.11-1.54-.61-1.61-.07l3.13,2.87c2.92,1.88,3.13-1.16,3.73-1.29l1.78.46c.14-1.15-1.91-1.84-2.58-1.14ZM87.55,230.47c-.05-.06-1.25-.72-1.32-.75-1.43-.44-3.06,2.07-3.18,3.32l2.76-2.58c.24.02,1.5,1.36,2.03,1.52.76.24,1.32-.43,1.77-.34.32.06,1.48,1.5,2.78,1.77,2.18.45,3.38-.7,4.68-.61.28.02,2.74,1.41,3.31,1.7.2.1.19.45.32.47.82.12,1.21-.79.42-1.16-1.42-.25-2.61-1.8-3.96-2.04-1.22-.22-2.86.5-4.37.29-1.17-.16-2.29-1.32-2.94-1.37-.48-.04-1.18.65-2.11.44-.25-.11-.05-.51-.18-.67ZM164.64,235.68c-.36-1.78-2.79-.48-3.77-.89-1.24-.52-2.57-3.19-4.05-3.41-.48-.07-2.86.17-3.23.35-.32.15-.59.9-.95,1.21-1.36,1.22-3.62.4-5.15-.14-.94,2.48,3.36,2.97,5.14,2.29s1.25-1.69,1.73-2.23c.08-.1,2.18-.57,2.47-.53.87.12,2.12,3.07,3.48,3.5s2.93-.4,4.33-.13ZM146.88,234.24c-.11-.13-2.58,1.49-2.94,1.69-.16.09-.16.43-.34.47-.75.16-1.87-.09-2.71.25-.12.64.3.93.72,1.32l-1.81,1.31c-.09.19.75,1.41.2,2.59l-1.98,1.49c1.92.23,3.55-1.76,2.64-3.6,1.18-.1,1.78-.71,1.69-1.91.69,0,1.52.07,2.05-.48.29-.3.26-.75.41-.9s.58-.12.77-.3c.28-.27,1.71-1.5,1.32-1.93ZM110.64,236.64c-.24.68-.24,1.18.36,1.67.57-.33.08-.64.17-1.01.07-.26.39-.48.43-.8.19-1.26-2.5-.81-3.48-.83-1.48-.02-1.56.07-2.9.22-1.27.14-2.3.03-3.46-.46-.1,1.61,2.31,1.56,3.46,1.42.59-.07,1.08-.46,1.69-.46,1.06,0,2.52.5,3.72.25Z"/>
  <path class="st0" d="M153.84,65.04l1.31,2.88c16.58,22.73,47.53,20.33,72.48,17.75,11.27-1.16,22.6-3.01,33.29-6.79,8.98-3.17,20.1-9.55,17.4-20.86-.2-.82-.73-1.47-.65-2.35,1.72,2.33,3.29,6.97,2.77,9.85-1.04,5.69-6.33,11.56-10.95,14.73-14.69,10.06-45.68,12.25-63.23,11.67-14.1-.47-37.92-3.18-48.59-13.09-3.45-3.2-3.54-5.78-3.83-10.33-.07-1.15.05-2.33,0-3.48Z"/>
  <path class="st0" d="M140.64,256.32l-.03.69c-2.05.93-4.33.98-6.51,1.54-7.5,1.9-13.94,4.97-21.94,5.9-10.09,1.17-16.84-1.8-26.2-4.22s-19.56-4.15-28.53-8.91c-8.37-4.44-16.17-10.74-20.43-19.41-.38-.77-.69-1.29-.53-2.23,4.94,1.12,7.95,5.35,11.64,8.39,6.69,5.52,15.09,9.5,23.27,12.25,8.32,2.8,17.78,6.18,26.18,8.38s14.7,1.5,23.19-.06c6.54-1.2,13.23-3.96,19.88-2.32Z"/>
  <path class="st0" d="M254.64,46.32c.02.79-.28,1.81.7,2.05l.57-.11,1.37-1.46c-.16,1.26.59,2.23.72,3.48.57,5.52-1.86,12.5-4.7,17.14s-6.4,8.79-9.7,13.1c-2.12.06-3.91,1.18-5.91,1.53-1.11.19-9.53,1.04-9.93.75,1.27-1.29,1.46-3.02,2.11-4.48,4.02-8.97,9.31-18.77,16-26,2.2-2.37,5.36-6.04,8.76-6ZM246.72,63.84c.27-.76-1.79-1.5-1.92-.84.16.85,1.25.88,1.92.84ZM244.8,69.84c.54-.46-3.17-2.1-3.36-1.92.05,1.56,2.06,2.09,3.36,1.92ZM244.56,73.44c-2.5-.57-4.87-1.4-6.24-3.73l-.48.25c.43,2.23,3.28,4.71,5.62,4.43.47-.06,1.19-.37,1.1-.95Z"/>
  <path class="st0" d="M277.44,36.96c.15.16-1.92,3.6-.57,4.05,1.25.42,2.88-2.17,3.62-3.03.15-.17-.01-.45.55-.31.71,3.75-1.32,8.02-2.84,11.44-3.97,8.92-13.1,23.97-22,28.4-2.99,1.49-7.41,1.9-10.69,2.63,5.19-5.81,10.65-12.52,13.72-19.76.93-2.2,1.28-4.59,2.6-6.52l.51,1.42c.61,1.29,1.78,2.5,3.33,2.3.29-.25-1.86-1.95-2.15-2.28-.21-.24-1.38-1.91-1.34-2.03,3.56-4.94,7.3-9.77,11.78-13.92l3.47-2.4ZM272.88,50.4c.48-.43-2.55-2.21-2.88-1.92-.12.89,2.42,2.33,2.88,1.92ZM270.64,52.15c-.28-.33-1.11-.66-1.48-1.03-.24-.24-1.63-2.63-2.04-2.16-.24,1.56.81,3.05,2.18,3.69.9.42,2.21.51,1.34-.5ZM265.2,54.72c.14-.94-.86-1.48-1.68-1.44l.04.92,1.64.52Z"/>
  <path class="st0" d="M232.77,93.15c.46.29.22,3.66.26,4.42.37,6.91.38,13.69-1.07,20.51-.16.77-1.5,6.2-1.92,6.23l-11.29-3.82c.43-2.33.44-4.73.37-7.1-.01-.51-.23-.97-.25-1.43-.2-5.97-.29-12.01-1.44-17.88l15.33-.93Z"/>
  <path class="st0" d="M178.3,46.34l1.46,3.81c-2.25-.39-7.44,1.78-2.64,2.76-7.7,5.5-8.99,18.83.26,23.55l-.86,3.69c-6.28-2.61-13.21-6.66-17.26-12.26-1.65-2.29-2.13-3.32-1.48-6.23,1.41-6.32,11.5-12.63,17.24-14.68.41-.15,3.1-.79,3.27-.64Z"/>
  <path class="st0" d="M239.28,32.16c-.05.67-.02,4.68.6,4.8s.68-1.13.89-1.5c.6-1.05,1.41-1.98,1.63-3.29,1.23,1.13,2.51,1.62,3.01,3.35.87,3.05-.07,11.63-1.11,14.75-.45,1.34-2.93,4.1-3.87,5.49-2.85,4.2-5.62,8.46-7.83,13.05l-1.71,3.92c-.47-7.89.28-16.26,1.47-24.08.52-3.39,2.89-14.53,5.83-16.25.38-.22.65-.29,1.09-.23ZM241.92,39.84c-.09-.1-1.06-.26-1.31-.25-.22,0-1.69.12-1.57.61.28.41.64.36,1.07.38.25.01,2.4-.09,1.81-.74ZM240.96,41.04c-.9-.15-1.83-.37-2.77-.24-.33.04-.72.14-.36.48.9.15,1.83.37,2.77.24.33-.04.72-.14.36-.48Z"/>
  <path class="st0" d="M199.41,93.62c-.85,8.77,1.18,17.63,4.59,25.65l-7.8-.24-.71-.49c-4.54-7.77-8.66-17.01-9.72-26.05-.05-.46-.03-.31.35-.35l13.29,1.47Z"/>
  <path class="st0" d="M268.8,21.84l-.48,3.12c1.7.37,2.36-1.23,3.48-2.16,1.41,1.79,2.34,1.84,2.53,4.43.24,3.4-1.49,6.05-2.76,9.02-.25.58-.22,1.35-.5,1.9-.74,1.41-4.14,3.81-5,5.56l-4.7,6.93c.04-1.82-.51-4.34-2.15-5.3v-.33c2.15-2.14,7.76-6.48,7.91-9.62.03-.52-.19-2.9-.85-2.75l-4.92,5.28c.73-2.08,2.29-3.83,3.23-5.78.12-.24-.11-.58-.05-.66s.38,0,.41-.04c.29-.35-1.48-.99-1.67-1.1-.27-.16-.24-1.1-1.09-.34-2.8,4.24-5.05,8.83-6.6,13.68-1.42-.51-2.99-.12-4.2.72-.18.04-.15-.22-.11-.35.83-3.2,2.64-7.29,4.11-10.29,2.68-5.47,6.67-11.59,13.4-11.91ZM271.44,27.6c-.63-1.22-1.98-.96-3.12-.96l.14.74c1.02.23,1.96.65,2.98.22ZM269.65,28.8c-.08.02-.48.34-.25.48.28.41,3.03,1.47,3,.6-.02-.52-2.23-1.2-2.75-1.08Z"/>
  <path class="st0" d="M262.8,86.4c.2,3.42-.44,6.78-1.03,10.12s-1.8,9.94-3.34,12.74c-.57,1.03-3.57,3.17-4.67,3.97-.58.42-5.57,3.91-5.83,3.64.96-2.25,2.09-4.35,2.76-6.72,1.77-6.27,2.78-13.81,1.18-20.17l10.94-3.59Z"/>
  <path class="st0" d="M200.88,41.52c-3.71,7.19.8,14.7,7.92,17.16-.69.34-1.49.29-2.15.73-.71.47-.75,1.23-1.22,1.66-.91.84-3.27,1.58-4.19,2.77-.04-1.13.6-2.33.58-3.45-.16-7.03-8.57-12.53-15.09-11.18-.68-2.75-3.02-1.46-4.56-.24l-1.21-3.72,19.92-3.72Z"/>
  <path class="st0" d="M172.56,104.88c-6.88-6.62-12.42-14.81-15.84-23.76,3.32,2.98,7.4,4.85,11.41,6.71-.3,4.8.78,9.78,2.87,14.17.45.95,1.24,1.85,1.55,2.88Z"/>
  <path class="st0" d="M228.96,69.36l-2.06-3.33c-1.88-2.6-4.95-5.31-8.25-5.55l1-1.64c4.07-.15,6.92-3.32,8.96-6.52l.36,17.04Z"/>
  <path class="st0" d="M198,123.6c-.04-.56-.08-.42.35-.48,1.87-.24,4.29.1,6.25.01,9.23-.44,13.93-1.88,22.68,2.5,2.04,1.02,6.48,3.25,8.03,4.69,1.36,1.26.2,1.21-.96.72-8.28-3.48-14.61-8.02-24.48-6.48l-11.87-.97Z"/>
  <path class="st0" d="M246.96,144c-3.39-1.28-7.14-3.45-10.61-4.38-2.6-.7-5.45-.51-7.99-1.61l-19.31-7.92c1.6,0,3.31.34,4.85.78,1.88.55,3.68,1.7,5.41,2.27s3.79.65,5.58,1.14c1.65.45,3.13,1.32,4.67,1.81,6.2,1.97,12.46,3.29,17.41,7.91Z"/>
  <path class="st0" d="M262.32,219.12c3.41-4.18,7.63-7.66,11.03-11.88,5.14-6.38,9.32-15.33,8.14-23.73-.22-1.58-1.06-3.13-.81-4.71,3.43,5.96,2.56,13.5-.08,19.6-2.85,6.61-9.81,13.65-15.16,18.44-.35.32-2.86,2.51-3.12,2.27Z"/>
  <path class="st0" d="M215.3,33.33c1.32.64,1.48-.96,2.14-1.77.84-1.04,1.97-1.75,3.36-1.56.17,1.93-2.41,4.35-4.32,3.6-.05.04.21,1.12.29,1.27.23.44.68.25.67.64l-2.88-.72c.25,1.64,1.22,3.37.85,5.05-.05.21-.08.54-.36.47-.84-1.27-.99-2.96-1.63-4.25s-2.45-3.04-2.99-4.7c-.24-.73-.22-1.35-.18-2.1,1.73-.61,2.71,4.53,4.06,3.58.23-.16-.05-4.6.08-5.56.09-.69,1.02-3.76,1.74-3.78.43.29.37.61.37,1.06-.02,1.73-1.9,7.55-1.18,8.75Z"/>
  <path class="st0" d="M264.48,74.64l11.52-15.84c.26,3.44-1.15,7.39-3.16,10.16s-5.37,4.25-8.35,5.68Z"/>
  <path class="st0" d="M185.2,50.56c-.49.58-1.56.71-2.21,1.03l-.1.72c1.4.33,2.68,1.53,3.11,2.89-.99-.3-1.74-.77-2.52-1.44-.65-.56-.97-1.58-1.79-1.44.31,1.98-.42,4.17-1.21,6-2.86-.64.37-5.47.24-6.11-.15-.78-4.06.2-4.8-.13,1.15-1.2,3.44-1.35,5.04-1.2-.64-1.93-1.89-3.73-2.58-5.69-.18-.5-.68-1.51-.24-1.92.53-.32.95-.5,1.36.08.78,1.11,1.6,6.99,2.18,7.42s.72-.67,1.11-1.06c.33-.33,1.93-1.23,2.39-1.22,1.01.03.43,1.59.02,2.07Z"/>
  <path class="st0" d="M22.08,167.76c-.3.95-.87,1.81-1.2,2.75-2.06,5.81-3.5,12.55-3.12,18.74.11,1.88.97,4.35.98,5.99,0,.49.14.7-.49.61-2.74-8.03-1.92-16.73,1.32-24.48.14-.33,1.9-4.25,2.51-3.6Z"/>
  <path class="st0" d="M244.62,16.74c.58.55,1.97-.05,1.86.66l-5.04,14.04,2.16-16.56c.67.27.6,1.46,1.02,1.86Z"/>
  <path class="st0" d="M276.96,82.8c.01-.73.04-1.44-.11-2.17-.24-1.18-.94-1.89-1.31-2.94l4.53-6.17c-.12,3.34-.75,6.29-2.04,9.36-.25.6-.56,1.54-1.07,1.92Z"/>
  <path class="st0" d="M242.62,16.58l-2.38,16.06c0-6.02-.23-12.08.96-18,.97.54-.12,2.02,1.42,1.94Z"/>
  <path class="st0" d="M271.68,21.36c.39-.97,1.02-1.97,1.58-2.86,2.15-3.42,4.79-6.68,7.78-9.38-.12,1.59-1.57,3.25-2.54,4.54-2.02,2.69-4.49,5.27-6.81,7.7Z"/>
  <path class="st0" d="M33.6,222.24c-.45.11-.57-.25-.84-.48-1.87-1.57-3.56-5.46-4.87-7.61-1.58-2.61-4.01-5.06-4.37-8.23.37-.41,1.49,1.38,1.63,1.61.93,1.51,1.51,3.42,2.41,5.03,1.84,3.32,4.09,6.43,6.04,9.68Z"/>
  <path class="st0" d="M258.24,44.64l7.68-10.32c-.24,4.34-4.71,7.59-7.68,10.32Z"/>
  <path class="st0" d="M264.24,31.44l-6.48,10.32c1.28-3.74,3.25-7.18,4.8-10.8.53.31,1.03.56,1.68.48Z"/>
  <path class="st0" d="M272.16,18.24l4.44-10.8c.3.33.79.59.84,1.08.1.94-3.89,7.71-4.68,9-.16.26-.24.66-.6.72Z"/>
  <path class="st0" d="M185.28,73.2c-1.37.21-5.6-1.24-4.45-3.12s3.97,2.23,4.45,3.12Z"/>
  <path class="st0" d="M274.8,8.88l-4.08,8.88c.31-1.52.64-3.07,1.08-4.56.5-1.68.82-4.46,3-4.32Z"/>
  <path class="st0" d="M218.4,58.8c.14.62-.17.42-.45.62-1.33.95-2.96,1.29-4.59,1.3.36,1-.59,1.01-.7,1.35-.21.64.9,2.64-.26,3.21-.08-1-.39-1.99-.25-3.01.12-.88.96-1.2.49-2.03,1.99-.11,3.58-1.74,5.76-1.44Z"/>
  <path class="st0" d="M185.52,71.76c-.37-.13-.65-.84-.84-1.2-.37-.67-2.55-4.76-1.19-5.04,2.05,1.11,2.06,4.19,2.03,6.24Z"/>
  <path class="st0" d="M189.36,67.92c.69,1.69-.91,4.15-2.64,4.56-.26-.27,1.34-3.92,1.8-4.31.29-.25.44-.31.83-.24Z"/>
  <path class="st0" d="M187.2,73.44c.12,1.04-.17,2.99-.95,3.73-1.98,1.88-1.14-4.75.95-3.73Z"/>
  <path class="st0" d="M250.55,43.69c.7.83-2.28,2.69-2.87,3.11l.48-3.6,2.39.49Z"/>
  <path class="st0" d="M212.4,60.24c-.02.26-.86.71-1.03.77-1.09.35-3.37.47-4.25-.41,1.61-.78,3.58-.78,5.28-.36Z"/>
  <path class="st0" d="M212.88,52.92c.03-.1.53-.56.72-.6.06,2.42.03,4.83-.48,7.2-.86.14-.24-.12-.24-.36,0-1.32-.26-5.31,0-6.24Z"/>
  <path class="st0" d="M217.68,63.12c-1.41.09-3.11-.02-4.08-1.2.39-.39,4.91.48,4.08,1.2Z"/>
  <path class="st0" d="M230.64,40.56c-.15.58-.25,1.27-.45,1.82-.12.34.08.41-.5.34l-.48-2.16h1.44Z"/>
  <path class="st0" d="M445.12,102.8c1.48,1.2,2.52,1.83,3.93,2.91,2.86,2.19,3.56,4.45,5.07,7.41.94,1.84,2.55,4.31,3.26,6.1.55,1.4.47,4.98,1.61,5.83.64.47,1.5.16,1.58-.62.07-.66-1.28-3.15-.96-3.47,1.64.49,3.87-.25,3.24,2.17-.74,2.84-3.18,6.52-4.21,9.46-1.15,3.27-2.09,6.9-2.63,10.33-.25,1.59-.03,3.06-.84,4.68-.49.98-.62.4-1.16.73-1.03.63-1.21,3.06-1.96,4.07-1.97.52-4.18.5-5.87,1.81-3.85,2.99-7.75,2.91-12.1,4.94-3.68,1.71-9.51,7.03-12.69,7.73-.92.2-1.95-.42-3.16-.3-1.85.18-3.88,1.5-5.79,1.65-1.79.15-3.78-.5-5.64-.24-.3-.27,1.9-2.32.86-3.14s-2.04.79-2.8,1.32c-2.88,2.03-5.53,2.65-9.06,2.7l-7.85,3.43c-1.25-1.26-2.09-.41-3.32-.49-2.47-.16-7.41-4.69-9.91-5.95-2.17-1.09-4.71-1.17-6.19-3.41-.81-1.24-.47-2-2.2-2.84-3.81-1.84-12.62-.63-15.32-4.84-.87-1.36-.53-3.16-2.29-3.95-2.75-1.23-4.43.67-6.84.62s-4.75-2.19-7.32-.98c-.25-.3,1.6-1.99,1.91-2.28,1.69-1.57,4.84-4.03,7.14-4.38.63-.1,3.18.13,3.18-.42-3.07-1.79-6.88.05-9.47,2.05-4.21,3.25-3.73,4.92-10.1,4.56-2.12-.12-3.45-1.12-5.33-1.38-.81-.11-1.61.04-2.33-.07-3.51-.51-8.82-3.21-12.42-4.62-1.57-.61-7.02-3.16-8.19-3.05-.72.07-1.72.7-2.44.68-.14,0-2.51-.73-2.74-.82-4.12-1.66-5.83-5.74-6.43-9.89-.13-.93.06-1.89-.12-2.76-.21-1.02-1.33-1.8-1.33-2.98,0-.37,1.74-3.22,2.1-3.8,1.74-2.84,3.86-5.43,5.79-8.13,6.71-4.48,12.78-9.79,19.06-14.78,9.57-7.61,22.41-8.67,33.77-11.83,4.3-1.2,5.68-2.08,10.39-2.38,5.48-.35,11.49-.89,16.97-.12,1.76.25,2.91,1.11,4.5,1.5,4.13,1.01,9.53-1.06,13.7-.02,2.15.54,3.04,1.34,5.6,1.07.93-.1,2-.66,2.92-.7,2.95-.13,9.75,3.45,12.94,4.57,2.64.93,5.45,1.47,8.04,2.52,5.22,2.1,10.32,5.07,15.72,6.84,3.18,1.05,4.95.69,7.73,2.95ZM378.18,87.17c-1.28.18-5.03,1.81-5.21,3.21-.43,3.24,5.62,1.3,6.93-.04,1.53-1.56.45-3.48-1.72-3.17ZM401.22,88.13c-.6.12-2.2,1.15-1.75,1.87.38.6,3.37.96,3.98.6,1.23-1.62-.52-2.82-2.23-2.47ZM383.7,91.72c-1.81.22-2.63,2.44-.44,2.97,3.67.88,3.33-3.33.44-2.97ZM330.8,93.19c-.14.16-.22.36-.28.56-.05.88,2.66.29,3.07-.04,1.52-1.22-1.5-1.99-2.79-.52ZM388.74,94.87c-.38.06-.77.17-1.14.3-.29.15-.31.42-.23.7.28.91,5.13,1.44,5.74.02-1.01-1.01-3-1.22-4.37-1.01ZM329.55,98.13c.41.65,4.16.21,3.71-1.42-.56-2.03-4.8-.31-3.71,1.42ZM413.94,96.04c-.23.06-2.84,1.91-2.94,2.12-1.11,2.44,2.81,2.65,4.05.46.63-1.11.28-2.93-1.12-2.58ZM432.9,101.58c-2.79.43-6.85,3.43-2.83,5.59,1.2.64,5.22,1.33,6.61,1.33,4.4,0,2.71-3.3.73-5.31-1.27-1.29-2.69-1.89-4.51-1.61ZM318.16,103.99c-1-1.14-2.61-1.22-4.02-.93-.67.14-4.3,1.69-4.87,2.09-2.31,1.66.08,2.21,1.87,1.87.68-.13.88-.85,1.51-1.13.51-.23,2.01-.44,2.58-.41,1.08.05,2.05,1,2.98.22.59-.49.39-1.19-.07-1.71ZM375.79,103.27c-.69.04-2.9.15-3.2.64-1.45,2.38,7.68,2.99,6.01-.48-.54-.47-2.08-.21-2.81-.17ZM402.42,108.29c-1.52.31-2.71,2.36-1.21,3.26.9.54,4.48-.16,4.94-1.22.89-2.08-2.35-2.32-3.73-2.04ZM356.4,114.72c1.14,1.37,2.7.24,4.17.26,1.14.02,3.49,1.23,4.13.72.9-.73-.2-1.86-.87-2.29-1.15-.73-2.58-.73-3.89-.55-.98.13-2.87,1.16-3.4,1.15-.1,0-.16-.76-1.19-.71-.87.04-5.56,1.3-4.6,2.64,1.17.47,3.1.08,4.32-.27.51-.15,1.39-.33,1.34-.94ZM405.55,115.03c-.98.13-1.98.13-1.59,1.44.5,1.65,5.18,1.35,4.72-.62-.27-1.16-2.23-.94-3.14-.82ZM393.08,116.46c-1.16.03-3.75.21-3.8,1.72.11,2.18,6.54,2.06,7.42.72,1.35-2.07-2.27-2.48-3.61-2.44ZM333.39,121.41c.15.24,5.24,1.03,4.73-1-.54-2.16-5.97-.97-4.73,1ZM447.3,122.46c-.12-.13-1.29-.64-1.38-.54-.23,1.38.19,3.32,1.8,1.93.09-.2-.27-1.22-.42-1.39ZM330.18,123.9c-1.12-1.1-4.3.49-2.81,1.73,1.72,1.44,3.97-.6,2.81-1.73ZM332.7,126.18c1.18.65,4.97,1.6,4.74-.76s-4.76-1.67-4.98.01l.24.74ZM419.94,128.7c-1.6.25-5.79,2.72-6.88,3.92-.75.83-.89,2.4.39,2.69,2.15.47,5-2.49,7.41-2.81,1.73-.23,5.2,1.42,5.76-.49.93-3.15-4.64-3.63-6.68-3.31ZM354.43,138.07c-1.07.13-3.2.64-2.79,2.16.49,1.8,3.67.9,4.82.96.9.04,3.68,1.27,3.27-.84-.35-1.82-3.76-2.45-5.3-2.27ZM376.02,138.06c-.42.08-1.72.77-2.09,1.03s-.15.46.16.55c1.78.52,4.16.49,5.98,1.22,1.14-.24,2.46.38,3.43.38,1.12,0,1.35-.88.35-1.52-.33-.21-2.73-1.2-3.21-1.35-1.23-.39-3.36-.54-4.62-.31Z"/>
  <path class="st0" d="M282.96,125.04c.03.88-.1,1.78.1,2.66.18.78,1.04,1.49,1.09,2.03.07.69-.5,1.93-.5,2.87,0,2.9,2.97,7.23,5.08,9.1.96.85,2.47,1.26,3.56,1.96,1.35.87,2.52,2.02,3.98,2.74.38.38-.86.2-.6,1.08.12.43,1.05.32,1.43.49.13.06,2.11,1.78,2.19,1.91.26.43-.1.87-.02,1.33l1.43-.38c3.29,2.99,6.81,6,10.59,8.4,4.51,2.87,11.5,5.17,16.66,6.86,12.03,3.96,21.42,5.66,34.08,5.98,2.62.07,5.18.73,7.45.75s5.46-.99,7.69-.74c1.92.21,4.35,2.3,6.95,2.42.82.04,3.58.04,4.27-.07,1.21-.2,2.16-1.26,3.3-1.74,2.99-1.26,4.71-1.25,7.77-1.59,2.8-.31,3.78-1.36,6.96-.91,2.43.34,3.75.94,6.48.67,1.77-.18,4.28-1.42,5.79-1.41.41,0,1.59.28,1.8.72-7.44,1.92-14.83,4.13-22.47,5.25-8.77,1.28-16.72.91-25.4,1.48-4.08.26-7.8,1.5-12,1.2-7.96-.58-13.26.59-20.88.96-4.99.24-7.53-1.12-12.06-1.86-3.98-.65-7.71-.31-11.71-1.73-2.95-1.05-6.08-3.41-8.9-4.78-1.44-.7-3.1-1.08-4.5-1.74-1.24-.59-1.98-1.47-3.28-2-2.81-1.15-2.69-1.23-5.1-2.82-1.29-.85-3.52-1.77-4.51-2.69-1.08-1.01-1.55-2.64-2.51-3.73s-2.33-1.53-3.2-2.8c-1.7-2.47-1.4-4.91-2.4-7.2-.81-1.86-2.84-2.84-2.94-5.23-.07-1.69.75-2.71,1.1-4.2.97-4.09-.85-7.74,1.69-11.75.15-.23,1.19-1.85,1.54-1.46ZM294.42,156.06c-2.19.56-1.86,3.83,1.51,3.19.86-.16,2.59-1.23,2.74-1.25.24-.03.82.35,1.23.39,2.11.21,2.35-2.19-.73-1.9-.37.03-.74.39-.97.38-.2,0-1.38-.71-1.98-.81s-1.24-.15-1.8,0ZM305.45,160.85c-1.64.38-.88,1.6.67,1.58,1.93-.03,1.94-2.19-.67-1.58Z"/>
  <path class="st0" d="M306.24,174c2.02.55,3.79,1.82,5.7,2.58,6.08,2.42,14.78,3.87,21.3,4.62,6.93.79,12.78.43,19.67,0,2-.13,2.95-.87,5.01.27.51.28.82.9,1.42,1.22,2.57,1.34,4.46-.56,6.69-1.08,1.45-.34,5.39-.11,6.98.13s1.79.1,3.17.17c1.08.06,1.68.81,3.02.38.37-.11.63-.55,1.08-.61.82-.11,2.53.52,3.82.48,6.03-.21,10.43-3.83,16.36-4.76,7.49-1.17,14.08-2.16,21.27-4.89,1.69-.64,3.32-1.86,5.03-2.41,2.06-.66,4.51-.75,6.67-1.25,8.33-1.92,17.5-3.34,23.16-10.44.88,2.05,2.06,3.63,1.45,6-.26,1.02-2.23,4.2-2.91,5.25-1.4,2.19-4.04,6.01-6.34,7.1-3.06,1.44-16.08,6.32-18.95,6.49-.85.05-1.79-.2-2.77-.13-6.93.48-12.73,1.29-19.69.72-2.99-.24-2.54.36-4.68,1.32-1.7.76-3.68.96-5.41,1.55-2.75.94-5.88,3.33-8.63,3.61-2.08.21-4.73-.27-6.97-.25-4.63.04-10-.5-14.4-.24-3.87.23-7.05,1.44-11.27.97-3.9-.43-8.96-2.33-12.78-2.82-4.58-.59-5.32-.92-9.55-2.21-3.21-.98-7.5-1.17-10.42-2.3-3.73-1.44-7.94-4.31-11.52-6.24-1.87-1.01-4.26-1.48-5.53-3.23ZM428.67,173.49c3.17.74,6.85.42,8.84-2.48-3.22-1.4-8.8-2.58-8.84,2.48Z"/>
  <path class="st0" d="M333.12,152.4c.25,2.04,2.18,1.02,3.7,1.22,3.56.47,6.67,4.14,8.9,4.25,4.94.25,6.17,1.82,10.44,3.04,2.58.74,5.3.82,7.91,1.45.81.4,1.28,2.2,1.83,2.97,1.87,2.62,5.74,2.44,8.02,4.57-2.76.25-5.53.15-8.29.23-12.39.38-23.49-2.17-35.1-6.41-6.89-2.51-20.09-7.52-25.26-12.42-1.93-1.83-3.21-5.38-4.79-7.57,5.36,1.65,10.53,5.17,16.08,6.36,1.97.42,3.87.25,5.77.71,3.48.85,6.93,3.79,10.79,1.57ZM334.98,156.06c-1.17.21-2.04,1-.55,1.64.66.28,4.7,1.4,5.33,1.42,1.15.04,1.54-1.32.7-2.16-1.06-1.05-4.08-1.14-5.47-.89ZM350.57,159.89c-.48.11-1.07.51-1.14,1.03,0,1.05,3.5,2.42,4.56,1.67,2.1-1.47-1.5-3.14-3.42-2.7Z"/>
  <path class="st0" d="M429.84,166.32l8.48-5.8c2.71-1.56,6.84-.67,9.29-2.47.56-.41,1.3-1.63,1.61-1.83s2.5.17,4.07-.66c2.08-1.09,1.76-2.11,2.75-3.73.37-.61,1.1-1.03,1.51-1.61,1.68-2.39,1.73-8.43,2.41-11.51.38-1.73,1.17-4.21,1.8-5.88.14-.37.33-1.2.72-1.31,1.89,3.17-.24,6.07-.47,9.24-.1,1.31.37,3.29.19,4.26-.81,4.23-9.15,12.33-12.69,14.92-3.92,2.86-10.54,4.46-15.29,5.59-1.43.34-2.88.82-4.37.79Z"/>
  <path class="st0" d="M355.68,278.88c1.03,1.89,4.24,2.86,6.24,3.36-.15,1.43-1.97.89-2.98.94-2.9-1.27-5.74-2.68-8.72-3.76-1.35-.49-4.59-.99-5.2-2-.8-1.32.05-1.86.02-2.94-.05-1.84-2.17-3.73-3-5.35-2.04-3.98-3.49-8.41-5.75-12.49-3.49-6.27-8.51-12.41-11.28-18.96-.09-.22-.52-.61-.16-.8,1.66,2.67,3.3,5.71,5.3,8.14s3.67,3.45,5.42,6.34c3.42,5.67,7.58,13.92,10.24,20,.69,1.58,1.2,5.21,2.74,5.9,1.37.62,2.83.89,4.27,1.25.54.14,1.25.96,1.92.5l.2-.69c-.79-1.62-2.23-1.07-3.4-1.41-.39-.11-.65-.67-1.04-.88-.42-.23-.94-.2-1.28-.4-.87-.49-1.44-3.7-1.89-4.83-.76-1.9-2.03-3.85-2.89-5.75-2.88-6.37-4.7-11.7-9.16-17.24-1.24-1.54-2.74-2.88-3.93-4.47-1.91-2.55-3.37-5.46-5.43-8.01s-2.78-3.57-4.35-6.45c-1.68-3.07-3.11-6.26-4.89-9.27-.16-.29-.31-.31-.47-.01-.25.48.65,2.73.9,3.42.58,1.6,1.4,3.53,2.13,5.07.5,1.04,1.53,2.32,1.88,3.16.05.11.06.39-.12.35-2.47-1.98-3.16-4.87-4.48-7.52-1.48-2.99-2.97-5.97-4.52-8.92-.04-.71.27-.2.44.04.39.59.71,1.44,1.13,1.99.34.44,1.62,1.84,1.51.66-.06-.63-1.59-3.46-2-4.25-1.47-2.85-3.55-5.73-4.73-8.71-.86-2.17-1.23-4.49-1.86-6.72l-2.9-1.25c.85-1.59.88-2.32,2.48-3.28,5.52-3.31,14.39-.19,19.97,1.96,3.52,1.36,7.35,4.17,11.03,4.56,2.71.29,6.38-.73,9.12-.74,4.69-.01,10.37,1.65,15.13-.21,1.24-.48,1.67-1.23,3.21-1.59,6.28-1.43,8.33.47,13.89,1.74,1.49.34,4.5.07,5.15,1.58.49,1.12-1.12,3.72-1.57,5.03-.94,2.78-1.34,5.74-2.27,8.53-.63,1.88-1.65,3.57-2.29,5.39-1.91,5.39-2.98,11.69-4.56,17.28-.42,1.47-1.28,3.03-1.5,4.5-.51,3.34.72,6.28.07,9.67-.92,4.81-4.34,9.2-5.38,14.06-.73,3.39-.88,7.01-1.58,10.42-.4,1.94-.66,4.29-2.64,5.18l-6.17-2.11ZM325.38,211.26c-1.31.24-3.32,2.09-3.17,3.58.27,2.62,3.13,1.37,4.74,1.7.98.2,1.83,1.15,3.15,1.12,1.52-.04,1.99-1.29,2.46-1.38.4-.08,1.23.76,2.13.71,2.32-.15,1.47-3.97-.67-4.87-1.32-.55-2-.08-3.15-.2-1.93-.21-3.15-1.08-5.49-.65ZM352.96,215.83c-1.03.05-1.94,1.16-1.83,2.19.16,1.63,3.37,4.13,5.02,3.12,2.77-1.69-1.47-5.4-3.18-5.31ZM367.62,220.14c-1.09.14-2.13.85-3.2,1.12-1.02,3.88,8,2.72,5.38-.55-.62-.77-1.29-.68-2.18-.57ZM333.06,224.46c-1.42.22-3.12,1.37-4.73,1.75-1.08.26-4.07-.04-3.01,2.26.67,1.46,2.13.67,3.12.7.73.03,1.35.3,2.16.28,1.66-.05,2.9-.87,3.87-2.16.93.29,1.43.7,2.48.84.34.04,2.08.04,2.34-.06,1.99-.81-.27-3.63-2.22-3.68-.85-.02-3.29-.04-4.01.07ZM366.66,224.7c-1.87.32-5.46,3.54-3.53,5.35,1.17.58,2.88-1.29,4.01-1.52,1.3-.26,3.63.43,3.59-1.81s-2.25-2.33-4.07-2.02ZM346.48,231.92c-1-1-4.39-1.73-5.78-1.5-.47.08-2.51,1.23-2.77,1.54-2.24,2.69,5.39,3.93,7.06,3.7,2.06-.28,3.04-2.2,1.5-3.74ZM358.74,257.7c1.37-1.45-1.68-5.04-3.12-5.51-1.52-.5-7.03-.28-6.32,2.22.48,1.69,3.01,1.12,4.36,1.66,1.15.46,3.62,3.18,5.08,1.64Z"/>
  <path class="st0" d="M418.52,235.23c.83,1.57-1.07,2.63-1.74,4.07-.59,1.28-1.91,6.59-2.04,8.04-.19,2.1.56,3.13-.47,5.29-.71,1.5-2.44,2.67-3.53,3.91h-.34c-.41-1.25-2.07-.86-2.36.42-.27,1.17-.06,1.64-.65,2.95-.4.89-4.66,7.43-5.18,7.78-1.07.74-2.69.97-3.19,2.57-.47,1.51.27,1.43.51,2.3.31,1.14-.44,5.59-.45,7.14,0,.68.28,1.29.27,1.91-.03,2.84.25,5.75-.51,8.51-2.21-.05-1.89-2.31-4.62-2.12-1.5.1-4.83,2.73-6.03,3.83s-1.79,1.85-2.5,3.26c-.45.9-.41,2.29-1.58,2.72-1.54-2.06-4.05-3.35-5.78-5.02-.72-.7-1.07-1.58-1.67-2.17-1.06-1.03-3.15-1.39-4.09-2.39-1.45-1.54-1.64-5.18-3.89-5.95-.8-.27-4.62-.57-4.86-.79,2.3-5.24,2.35-11.57,4.02-16.98s5.8-9.31,5.59-15.55c-.06-1.62-.66-3.41-.64-5.07.03-2.27,1.09-3.58,1.71-5.6,1.92-6.26,2.7-12.8,4.94-18.94,1.14-.27,2.02.95,2.78,1.13.94.22,2.19-.03,3.25.11,4.82.65,11.76,4.6,16.18,6.86,2.48,1.27,5.06,2.45,7.52,3.76,3.02,1.6,5.56,4.37,9.32,4ZM387.55,235.03c-2.43.25-6.1,1.62-5.96,4.61s2.94.32,4.17-.16,2.29-.55,3.64-.43c2.62.22,7.09,3.21,9.26,2.53.78-.24,1.26-1.12,1.18-1.91-.13-1.35-1.7-1.42-2.62-1.96-3.46-2.07-5.38-3.11-9.67-2.67ZM408.08,238.48c.31.37,1.98,1.41,2.06,1.68.11.82-.96,1.14-1.24,1.83-.55,1.33.51,4.42.65,5.94l.49.25c2.57-.16,1.73-3.3,2.09-4.89.23-1.02,1.32-1.49,1.1-3.11-.14-1-2.18-3.52-3.07-3.9-1.86-.8-3.6.39-2.07,2.19ZM404.64,254.16c3.45-.59,1.67-4.68-.16-6.2-2.46-2.04-4.57-1.39-7.4-1-.7.1-2.01-.29-2.4.48v.96c3.08,2.29,6.44-.19,9.24,3.01.85.97,1.3,1.56.73,2.75ZM379.62,247.73c-1.3.26-2.47,1.87-1.27,2.84.35.28,2.64.67,3.14.66,3.12-.07,1.63-4.21-1.87-3.5ZM369.18,263.82c-1.42,1.37,2.61,1.26,3.59,1.45,3.08.59,9.34,3.05,10.85,5.95.6,1.15.89,3.36,1.46,4.3.23.37.87-.06.98-.24.16-.26-1.79-4.99-1.93-5.77-2.05-4.04-8.65-6.58-12.98-6.24-.48.04-1.65.25-1.97.55ZM393.53,278.21c-3.43.71-4.32,5.22.98,4.1,4.19-.89,2.99-4.92-.98-4.1Z"/>
  <path class="st0" d="M340.08,268.32c-1.44-1.17-3.02-2.23-4.85-2.71-1.39-.36-2.72-.27-4.04-.52-1.83-.34-7.92-2.4-9.82-3.14-4.85-1.87-9.38-4.64-14.08-6.8-3.05-1.4-5.93-2.07-9.33-1.96l-.12.48c1.8,1.18,3.82,1.03,5.81,1.52,4.93,1.2,11.28,6.41,16.52,8.2,1.92.66,4.03.65,5.94,1.26,1.36.44,2.6,1.42,3.9,1.86,4.56,1.57,7.58,1.34,11.74,4.82.42.35,2.14,2.78,1.7,3.22-4.37-.2-8.4-2.31-12.66-3.06-13.35-2.33-24.34-8.93-37.26-12.66-.94-.27-3.16-.35-3.77-.91-.73-.68-1.82-3.6-1.78-4.61.06-1.35,2.02-2.7,2.13-3.89.12-1.27-1.14-1.47-.8-2.71.56-2.05,2.81-4.93,3.37-7.2,1.83-6.67,5-12.7,7.98-18.9,1.09-2.28,1.66-4.73,3.31-6.77.94-1.17,2.52-1.96,2.77-3.6.37-.09.38.05.58.25.44.44,1.45,2.27,1.86,2.94,2.7,4.52,4.67,9.56,7.21,14.15,1.53,2.77,3.67,4.82,5.33,7.39s2.69,5.27,4.18,7.82c3,5.15,6.5,10.09,9.44,15.28.69,1.21,5.23,9.63,4.76,10.24ZM315.77,231.19c-.83-.82-3.28-1.27-3.31.52.74,2.63,5.49,1.63,3.31-.52ZM312.64,235.52c-2.48-2.49-5.97,1.59-1.77,2.85,2.53.76,3.3-1.32,1.77-2.85ZM323.46,251.7c1.1-1.1-.32-2.54-.56-3.29-.26-.83-.13-1.56-.54-2.58-.62-1.55-3.81-4.5-5.37-4.95-2.19-.64-3.86.33-4.02,2.63-.18,2.6,2.04,1.81,3.46,2.72,1.62,1.04,3.26,5.47,5.54,5.76.4.05,1.2,0,1.48-.29ZM305.21,248.69c-2.85.67.63,4.09,2.93,2.69s-.51-3.26-2.93-2.69Z"/>
  <path class="st0" d="M402.48,286.32c-.51-2.13.5-4.37.5-6.36,0-.51-.24-.97-.26-1.44-.07-2.42,0-5.16-.67-7.45l.79-.58c.42.35.49.91.84,1.31,1.98,2.32,8.41,6.5,11.21,8.23.86.53,5.44,2.74,5.55,3.32-.93,4.1-1.89,4.31-5.85,4.18-3.53-.12-7.3-.71-10.79-1.21-.43-.06-.88.02-1.32,0Z"/>
  <path class="st0" d="M305.03,199.45l.25,3.83c-.76-.88-1.86-2.56-1.92-3.72-.05-.81,1.29.05,1.67-.11Z"/>
  <path d="M118.83,163.17l2.22.06c.45.15.46.99.76,1.4.87,1.21,1.69.19,2.52.6.76.37.3,1.34.53,1.76.06.11,1.63,1.67,1.73,1.74.44.32,1.17.23,1.71.45.79.31,3.46,3.92,3.65,4.75.37,1.61-.56,1.67-.65,2.14-.08.4,1.42,1.54.33,2.25-1.83-1.07-3.91-.94-5.8-.04-.89.42-2.57,2.33-3.08,1-.93,1.23-2.86,5.56-3.96,2.16-.82.12-1.36,1.02-2.26.96-.54-.04-.81-.49-1.26-.64-.5-.16-1.58.44-1.52-1.04-1.07.12-2.37,1.52-3.44,1.17-1.22-.4.99-3.1.8-3.33-.72.67-2.13.65-2.96.19-.33-.18-.37-.61-.69-.75-1.67-.73-2.84.95-4.26,1.4-.47.15-2.81.63-3.24.61-1.33-.06-1.2-.89-1.73-1.23-.84-.54-1.54.06-1.26-1.77.11-.68.59-2.64.86-3.23.43-.96,1.57-1.25,1.72-1.51.21-.38-.16-.98.29-1.51.52-.61,3.09-.68,3.12-1.19-1.9-2.72,1.73-2.07,2.13-2.56.14-.17-.05-.82.26-1.06.41-.32,1.02.18,1.32.11.43-.1.66-1.79,2.05-.44l.8-.91c2.65,1.01,4.8,2.94,7.61,3.55-1.4-1.16-4.22-5.71-.48-4.8.18-1.93,1.94-2.51,2.19-.27ZM122.64,171.36c-.2-1.04-1.76-1.46-2.64-1.44-.54.47,2.23,1.64,2.64,1.44ZM108,174c2.41-.39,4.35-.88,6.85-.73,3.21.2,6.75,1.47,9.83,1.69.6.04,1.38.18,1.79-.36-.27-.45-.68-.29-1.06-.38-3.75-.86-10.42-2.35-14.07-1.79-1.01.15-2.81.66-3.35,1.57Z"/>
  <path d="M106.73,190.97l-2.92,1.52c1.08-.23,2.04-.12,3.13-.47.87-.28,3.16-1.95,3.35-1.95.51,0,.56.68,1,.93.49.28,1.23.2,1.76.4.48.18.92.73,1.37.81.97.16,1.33-.94,1.92-1.12,1.71-.53,2.19,1.57,3.43,2.24l-.96.36c-.05.7.17,1.73.96,1.68l-.62-.95.28-.47c1.35.09,2.35.67,3.83.48.43-.06.3-.41.52-.48,1.4-.44,2.69.54,3.54-1.22,1.51-3.13-3.31-4.36-4.57-6.48l-2.86,2.17c-.83.99-.47,2.2-.85,3.35-1.04-.74-.74-2.26-.25-3.25.61-1.22,1.57-1.3,2.42-2.14.59-.59.8-1.31,1.23-1.89.86-1.16,1.2.91,1.75,1.53.58.65,1.91,1.26,2.64,1.92,1.79,1.6,2.86,3.61,1.29,5.83-1.18,1.66-1.91.85-3.43,1.13-.96.18-2.27,1.49-3.73.95,3.46,3.91-4.1,2.1-5.39,4.09-.29.44-.12,1.23-.72,1.68-.78.59-2.29.23-3,.84-1.18,1,.58,4.53-2.82,5.1-.61.1-3.52.35-3.9.17-1.02-.47-2.39-3.17-2.33-4.28s1.15-1.49.84-2.86c-.07-.3-.91-1.63-1.14-1.73-.32-.14-1.04.4-1.34-.12-.31-.42-.12-1.2-.23-1.57-.12-.41-.58-.48-.63-1.19-.05-.66.27-1.46.73-1.93l-1.8-1.08c-1.12.9-1.72,1.15-3.23.96.89-2.16-.17-1.86-1.21-2.99-.28-.31-.21-.97-.71-1.09-.17,2.02-1.71,2.54-3,3.6-.59.49-1.08,1.23-1.73,1.63-1.36.84-.74-.46-.2-1.16,1.06-1.38,3.41-1.99,4.02-3.67.34-.92-.17-2.73-.3-3.77,2.55.16.78-2.72,2.04-3.83.79.62,1.71.98,2.59,1.44.25.13.03.66.99.46,1.91-.39,7.79-5.01,9.28-3.97.86,1.05-.71,2.26-.72,3.14,0,.77,1.11,1.37,1.1,1.92,0,.35-.97,1.41-1.08,2.22-.14,1.08.62,2.02-.36,3.1ZM103.44,185.52c-.38-.15-2.85.44-2.16,1.2.11.12,1.44-.46,1.69-.6.33-.18.59.02.47-.6ZM101.76,188.64c-1.59-1.61-4.59-1.05-6.48-.23-.02.4-.13.53.35.47.91-.11,1.83-.71,2.89-.73s2.14.51,3.24.5ZM111.6,198.96c.66-.58-3.21-2.47-3.51-2.6-1.27-.56-2.78-1.14-4.16-1.23-.12.64.14.42.48.59.86.42,1.86.71,2.72,1.13.62.3,4.23,2.34,4.47,2.12ZM108.96,200.16c.2-.18-.42-2.16-1.2-1.92.01.76.21,2.18,1.2,1.92Z"/>
  <path d="M191.46,156.3c.5.63.13,1.57.33,2.19.12.36.76.51,1.04.88s.31.92.6,1.32c.97,1.33,1.92,1.45,1.69,3.6-.08.76-.65,1.33-.68,1.72-.02.29.46.67.45,1.38,0,.53-.29,1.24-.39,1.81-.19,1.14-.3,1.85-.36,2.99-.03.65-.59,1.25-.63,1.73-.04.39.23.78.13,1.35-.22,1.24-1.92,2.65-3.19,2.6-2.36-.09-2.9-4.4-4.6-5.27s-3.87.4-5.2-.27c-.9-.45-1.2-.41-2.14-.78-.87-.34-3.06-2.07-3.25-2.99-.52-2.61,1.97-3.69,2.1-5.49.07-1.03-1.04-3.47-.91-4.03.15-.65,1.56-.63,2.1-.65l.98-2.27c1.04-.68,1.89,2.02,2.53,2.53.78-1.78,1.38-3.6,3.43-4.25,3-.94,1.87.37,3.08,1.1.82.5,2.07.35,2.92.8ZM189.6,162c-4.8.05-7.78,4.15-10.32,7.68.45.11.57-.25.84-.48,2.18-1.83,3.83-4.48,6.51-5.73.94-.44,2.72-.5,2.97-1.47Z"/>
  <path d="M157.44,174.96c.63-.24,2.28-1.35,2.8-1.39.42-.03,1.69.52,2.85.44,2.83-.21,1.79-1.05,2.7-2.82.7-1.35,3.66-2.74,4.26-.8.48,1.56-.52,2.32-.6,3.52-.1,1.49.93,2.56-.04,4.26-.34.59-.96.71-1.18,1.04-.39.59-.36,1.56-.98,2.31-1.21,1.47-3.83,1.58-5.58,1.33-1.35-.19-2.27-1.34-3.49-1.56-.87-.16-1.31.18-2,.1-.59-.07-.57-.55-.84-.66-1.91-.75-4.04-.77-5.89-1.74-1.09-.57-4.67-3.74-3.89-5,.18-.29.94-.4,1.05-.88.17-.71-.84-1.38.51-1.88-1.55-1.17-4.36-3.89-2.5-5.87,1.98-2.11,2.39,1.45,2.98,2.27.44.61,2.2,1.61,2.95,1.51.65-.09,1.22-.77,2.19-.67s.98.92,1.52,1.14c1.26.53,2.58.5,3.91.65,1.39,1.61-.69,3.07-.72,4.68ZM152.88,177.6c.39-2.73-1.08-5.79-3.84-6.48l2.37,3.27.75,3.21h.72ZM164.88,178.08c-.09-.43-.48-.46-.84-.49-1.14-.1-3.35.42-4.43.86-.29.12-.96.25-.97.59l6.24-.96Z"/>
  <path d="M197.05,206.87c2.89-.45,8.16,3.9,4.81,6.38-.23.17-2.95,1.18-3.31,1.25-1.87.35-4.76-.2-6.4-1.18-.38-.22-.3-.91-.97-.7-.84.17-1.09,2.14-2.29,2.17.82-1.86,1.56-2.5.94-4.66s-1.9-2.74-3.41-3.97c-.67-.55-1.99-1.88-2.59-2.28-.65-.43-1.51-.38-2.15-.85-.3,2.71-2.3,4.87-4.8,5.77,1.65,3.39-2.17,6.5-5.04,7.43-.47-.43,1.8-1.72,2.03-1.92.86-.77,2.12-2.07,2.28-3.26.12-.9-.45-1.77-.11-2.49.28-.61,2.16-1.46,2.77-2.04,1.52-1.44,1.4-2.54,2.05-4.19.25-.63,1.27-.97.7-2.17-.04-.09-1.17-1.38-1.26-1.45-.86-.65-1.68-.11-2.77-.53-.7-.27-1.24-1.05-1.54-1.12-.73-.19-3.08,2.48-4.39,1.89l.16-.72c1.47.01,2.62-1.92,3.72-2.24,1.68-.49,1.61,1.11,2.58,1.42s1.78-.21,2.78.58c.23.18,2.13,2.46,2.18,2.64.21.75-.33,1.21-.38,1.92l1.55.5c.59.01,4.21-10.06,7.58-8.06,1.2.71-.53,2.84.36,3,.67.12,4.25-3.57,4.34-1.08.06,1.67-3.7,4.82-3.48,5.74,1.54,1.57,4.42,1.37,4.07,4.22ZM190.17,200.01c-.52.51-1.35,1.87-1.64,2.56-.09.21-.84,2.2-.24,2.15.25-.02,1.03-2.1,1.28-2.56.47-.84,1.57-1.82,1.36-2.72-.2.26-.54.35-.76.56Z"/>
  <path d="M186.68,191.8c-.15-.12-.81,0-1.17-.15-1.88-.72-1.51-3.47-3.95-3.52-1.32-.02-1.8.68-3.12-.45-2.17-1.85.64-3.09.79-4.74.04-.46-.21-.91-.2-1.38.02-2.12,1.42-3.97,3.71-3.71.5.06,2.25.47,2.74.63,1.86.6,3.55,4.34,5.2,5.84,1.96,1.79,6.97,1.77,6.34,5.86-.24,1.57-1.15.91-2.21,1.15-2.02.47-3.27,2.65-4.19,2.79-.73.11-1.13-.58-1.73-.81-.7-.27-1.36.14-1.94-.71-.17-.25-.19-.74-.27-.8ZM183.12,181.92c.62,2.76,1.8,4.46,4.49,5.46.22.08,2.03.75,1.98.17-.02-.26-2.72-1.42-3.23-1.8-.41-.3-1.37-1.28-1.67-1.69-.18-.26-1.11-2.61-1.58-2.14Z"/>
  <path d="M123.6,147.84c.21.62-.75.59-1.15.65-7.39,1.06-12.88,1.27-19.74,4.74-9.75,4.93-19.04,11.8-30.68,9.33-1.68-.36-4.18-.92-5.32-2.24,2.9-.2,5.63,1.01,8.51,1.21,7.71.52,14.85-2.95,21.49-6.36l4.31-2.52c-3,.46-6,1.07-9.03,1.41-10.18,1.13-18,.67-28.05-.69-.75-.1-1.7.28-2.28-.36,1.94-.17,3.94-.18,5.89-.13,11.3.27,21.56.4,32.79-1.5,7.76-1.31,15.15-4.2,23.23-3.52Z"/>
  <path d="M225.36,199.44c.52.07.81-.46,1.32-.46.9,0,2.09,1.75,1.68,2.62-.19.41-2.94,2.61-3.5,2.98-2.16,1.46-5.93,3.19-8.54,3.24-.94.02-2.54-.53-3.31-.46-.51.05-1.34.86-2.41.96-1.01.09-4.4-.16-3.82-1.7,1.93-.47,3.85-.83,5.63-1.77,2.17-1.15,1.76-1.19,4.32-1.92,3.15-.9,3.73-3.5,5.58-5.82.56-.69,1.74-.9,1.37-2.47,2.2-.34,1.47,4.57,1.68,4.8ZM222.96,201.6c-1.57.29-2.58,1.85-4.08,2.52s-3.24.58-4.8,1.2c1.03,1.12,3.55.32,4.8-.24,1.55-.69,3.01-2.18,4.08-3.48Z"/>
  <path d="M168.06,157.02c-.16.25-.07.75-.24,1.08-.54,1.07-3.23,1.01-4.14.3.06.98.12,1.87-.87,2.37-.54.27-3.47,1-4.07,1-1.44,0-1.93-1.8-3.16-2.11-.82-.21-1.85.02-2.7-.06.85,1.08,2.81.76,2.4,2.64-.61.61-3.64-1.51-2.88-2.64-.99.39-2.41.17-1.33-.97.58-.61,4.64-1.82,5.81-2.35,2.24-1.01,6.78-3.9,8.95-4.01.77-.04,2.2.35,2.53,1.09.08.18.63,2.6.61,2.74-.11.74-.74.66-.91.92Z"/>
  <path d="M151.13,202.49c-1.16,1.04-4.48.93-6.09,1.47-.49.16-3.21,1.54-3.61,1.79-.26.16-.56,1.52-1.38.66-.99-1.03.44-2.69.33-3.21-.1-.48-1.14-.56-1.07-1.22.03-1.47,2.74-3.19,3.9-3.92.34-.21,3.2-1.81,3.41-1.83.81-.09,1.56.49,2.72.29,1.87-.32,1.93-2.75,5.11-1.16,2.87,1.43-1.5,2.96-2.07,3.96-.46.81-.27,2.3-1.26,3.18ZM146.64,199.68c-.97.03-1.91.74-2.67,1.3-.12.09-.88.26-.45.62.2.17,2.96-1.38,3.12-1.92Z"/>
  <path d="M147.12,179.52c.28.25-1.2,1.54-1.41,1.83-.34.47-.18,1.15-1.01,1.43-.14.8,1.15,1.17,1.22,1.91.07.68-.65,1.34-.96,1.91.57.74,2.26-.14,2.3,1.2.02.51-1.19,2.55-1.59,2.87-.72.57-2.55.64-3.81,1.71-.8.68-2.1,3.46-2.99,3.21-1.05-.3-.29-2.29-.5-3.11-.26-1.04-1.72-2.37-1.81-3.26-.14-1.32.95-1.52,1.15-2.19.24-.8-.19-1.99.17-2.71.05-.11,1.7-1.51,1.8-1.56.5-.22,1.02-.03,1.51-.17.29-.08,1.5-1.32,2.17-1.67.41-.22,3.61-1.53,3.76-1.4ZM143.28,183.84c-1.18.26-1.75,1.74-2.2,2.72-.74,1.63-1.24,3.41-1.4,5.2.57.1.45-.06.59-.48.2-.63.22-1.32.45-1.97.67-1.91,1.75-3.64,2.56-5.48Z"/>
  <path d="M210.88,158.96c1.28,1.25,1.28,1.16,2.71,2.22,1.15.85,1.2,1.68,1.94,2.62.79,1.01,2.22,1.79,3.12,2.88,2.53,3.04,4.17,13.47,2.29,16.94-.33.6-1.17,1.22-1.28,1.6-.24.78.14,1.43.1,2.07-.22,3.23-.91,3.67-2.41,6.18-.59.99-.42,2.26-1.96,2.6-.28.06-1.03.17-.82-.34,1.15-.71,1.22-1.83,1.79-2.77,1.2-2,2.51-3.29,2.54-5.88,0-.72-.39-1.38-.25-2.14.1-.54,1.43-1.8,1.8-3.01.99-3.25-.76-12.39-3.01-14.99-.76-.89-1.91-1.35-2.65-2.15-.6-.65-.86-1.58-1.43-2.17-.63-.65-1.88-1.25-2.62-1.94-.36-.34-.4-.84-.75-1.17-1.22-1.14-4.68-.81-5.8-3.08-.14-.27-.4-1.18.17-.89.3.15.82,1.28,1.63,1.73,1.33.72,3.9.74,4.89,1.71Z"/>
  <path d="M162.44,186.93c-1.16.09-3.11-.05-4.13.55-.48.28-.38.9-.88,1.28-.58.45-1.73.44-2.49.87-.99.58-1.19,1.77-2.32,2.24-1.38.59-2.66.13-3.91.41-.81.18-1.2,1.41-1.84.55,0-.25,2.17-3.01,2.49-3.5,1.31-1.99,1.35-3.45,4.15-4.49,2.48-.92,2.57.55,3.8.66,1.29.13,6.39-1.97,5.12,1.41ZM156.48,186.96c-2.65-.27-5.69,1.64-6.72,4.08l3.76-2.84,2.96-1.24Z"/>
  <path d="M135.6,180.72c2.4.38,1.59,4.03-.96,3.36.03.92.5,1.45-.39,2.13-.13.1-2.5,1.17-2.64,1.18-1.26.14-.99-1.21-1.18-1.61-.55-1.17-2.37-2.02-2.16-3.62l2.51-1.1c.88-.53,3.76-3.36,4.5-3.43.98-.09.51,2.53.32,3.09Z"/>
  <path d="M87.39,182.67c-.15.25.08,1.21-.3,1.98-.67,1.34-3.55,2-3.77,2.35-.12.2-.03.87-.22,1.34-.52,1.25-2.55,2.36-2.48,4.02.04.91,2.11,3.65,2.54,5.16.5,1.78.33,3.3.4,5.12,1.03.79,2.07,1.34,2.73,2.55.46.84,1.65,4.1,1.73,4.99.04.42.08.5-.3.77-1.98-1.65-1.52-5.22-3.6-6.72-.55-.4-1.29-.3-1.63-1.01-.49-1.06-.02-3.7-.43-5.33-.68-2.65-3.7-4.47-2.19-7.26.48-.9,1.74-1.84,2.18-2.62.28-.5.2-1.08.61-1.55.67-.79,3.32-1.16,3.86-2.38.31-.72-.16-1.62.47-2.17,1.12-.99,6.57-1.33,7.06-3.04.11-.38-.38-1.78.16-1.74.73.06.74,1.88.37,2.53-1.12,1.98-6.86,2.5-7.18,3.02Z"/>
  <path d="M89.76,212.88c-.59,1.23,1.13,2.61,2.2,2.96,3.02.98,2.22,1.07,4.54,2.66,3.81,2.61,14.85,3.4,19.9,4.58,1.37.32,3.35.56,4.32,1.56-.75,0-1.5.04-2.25-.03-4.51-.4-16.87-2.49-20.79-4.17-1.93-.83-2.53-2.45-3.99-3.21s-2.59-.22-4.06-1.7c-.9-.91-1.96-2.84.13-2.65Z"/>
  <path d="M181.92,228c-2.07-.77-3.38-2.15-5.76-1.08-.31.14-1.82,1.28-1.88,1.48-.19.57.15,1.1.12,1.6-.09,1.63-1.05,2.48-2.68,2.33s-5.3-3.15-7.15-3.9c-.82-.33-1.78-.3-2.5-.62-.6-.26-1.28-1.18-1.97-1.39-1.34-.4-3.21.47-4.09-.83,1.83.19,2.62-1.12,4.52-.56.99.29,1.49,1.15,2.27,1.57,1.52.82,3.78,1.34,5.37,2.07,1.07.49,2.99,2.18,3.8,2.22,2.13.12.54-2.19,1.45-3.37.14-.18,2.56-1.81,2.88-1.92,1.62-.53,4.99.63,5.63,2.38Z"/>
  <path d="M232.08,223.68c-1.14,2.8-4.5,1.89-6.79,2.45-1.25.31-2.98,1.79-4.19,2.05-1.8.39-4.67.51-6.35,1.09-.98.34-1.23,1.46-2.03,1.54-.64.07-1.38-.67-1.89-.65-.42.01-.7.49-1.06.6-1.54.48-2.94-.77-4.69-.62-1.02.09-1.92.76-2.94.91-.35.05-.85-.25-.98-.16-.1.07-.11.47-.27.58-.67.46-2.5-.62-3.3-.79-1.63-.34-3.69-.5-5.34-.54l.14-.74c3.29-1.21,6.62,1.7,9.95.87.98-.24,2.21-1.09,3.22-1.09s2.72.99,3.57.9c.59-.07.9-.81,1.48-.9.71-.12,1.42.37,2.13.25.53-.09,1.16-.9,2.28-1.1,1.93-.34,4.14-.48,6.08-.88.9-.19,2.22-1.39,3.3-1.74,1.82-.59,3.38-.13,5.14-.62,1.17-.33,1.53-1.02,2.53-1.42Z"/>
  <path d="M130.2,195.6c1.62.27,2.47,1.72,3.6,2.64.64.53,1.52.78,2.17,1.43,4.11,4.11-2.61,11.18-7.84,8.08-1.82-1.07-1.95-2.94-1.42-4.85.45-1.62,1.93-2.84,2.62-4.34.48-1.04.47-1.98.87-2.97ZM130.56,196.8c.1,2.89-5.18,7.02-2.25,9.57,3.71,3.22,10.32-2.79,7.17-5.97-.6-.6-1.94-1.17-2.74-1.82-.6-.49-1.1-1.72-2.18-1.77Z"/>
  <path d="M137.04,160.32c-.66,2.28,2.55,3.29,2.62,5.66.12,3.82-3.38,6.16-6.94,4.89-.35-.36.03-.43.36-.47,1.78-.23,3.34-.02,4.55-1.7,2.17-3.04-.3-4.6-1.66-7.18-1.85,1.69-6.84,1.99-6.85,5.15,0,1.09.95,1.92.96,3-1.95-.45-2.52-2.62-1.85-4.37.9-2.31,3.64-2.64,5.61-3.51.63-.28,2.84-1.79,3.2-1.48Z"/>
  <path d="M175.68,171.36c.1,2.99,5.53,1.49,5.23,4.62-.04.47-.69,1.98-1.27,1.86-.85-.18.53-1.7-.35-2.53-.61-.58-2.87-.6-3.5-1.77-1.44,1.57-4.26,1.46-3.56,4.26.85,3.39,3.55,1.56,5.83,1.01.02,1.43-2.7,2.41-3.9,2.34-2.75-.16-4.19-3.9-2.58-6.06.79-1.07,2.09-1.11,2.77-1.79.62-.62.31-1.9,1.31-1.93Z"/>
  <path d="M164.64,235.68c-1.41-.27-3.03.54-4.33.13s-2.61-3.38-3.48-3.5c-.28-.04-2.38.44-2.47.53-.47.55.1,1.53-1.73,2.23s-6.08.19-5.14-2.29c1.54.54,3.79,1.36,5.15.14.35-.32.63-1.06.95-1.21.37-.18,2.75-.42,3.23-.35,1.47.22,2.81,2.89,4.05,3.41.98.41,3.41-.89,3.77.89Z"/>
  <path d="M41.76,176.88c.05-.4-.05-.81.06-1.26.54-2.41,3.66-2.17,4.95-3.94.52-.71.36-1.52.64-2,.12-.2.57-.34.79-.65.63-.86,1.3-1.7,1.26-2.85-.01-.46-.78-.29-.5-.95.42-1.02,2.01-.32,1.57,1.81-.34,1.65-1.6,1.96-1.92,2.88-.23.66.14,1.36-.5,2.37-1.19,1.87-3.11,2.17-4.52,3.16-.94.67-.41.83-1.83,1.41-.44,3.45.52,6.05.25,9.01-.37,4.18-3.01,3.95-5.37,5.91-.5.42-.71,1.13-1.35,1.4,1.51-4,5.38-2.99,5.03-8.28-.18-2.69-1.93-6.67,1.44-8.04Z"/>
  <path d="M248.94,176.58c-.5-.54-1.08-3.03-1.62-4.02-2.11-3.91-9.36-7.65-12.87-10.65-.22-.19-2.63-1.63-2.14-2.06.42-.07.75.06,1.13.19,1.22.42,5.17,3.41,6.42,4.38,3.43,2.67,8.46,6.49,9.65,10.75.2.7.43,2.54-.59,1.42Z"/>
  <path d="M170.64,198.96c.49.45-2.59,1.65-2.86,1.82-1.89,1.15-3.39,2.89-5.53,3.83-1.89.82-3.99.93-5.83,1.61-1.44.53-2.84,2.1-4.27,2.93-1.69.98-3.77,1.9-5.74,1.82-.12-.68.16-.39.53-.54,1.35-.54,2.44-.76,3.77-1.52,2.18-1.24,4-3.82,6.41-4.15.76-.1,1.52.03,2.31-.09,4.54-.67,6.75-5.06,11.22-5.7Z"/>
  <path d="M87.55,230.47c.14.16-.06.56.18.67.93.2,1.63-.48,2.11-.44.65.05,1.77,1.21,2.94,1.37,1.52.21,3.16-.51,4.37-.29,1.35.24,2.54,1.79,3.96,2.04.8.37.41,1.28-.42,1.16-.13-.02-.12-.36-.32-.47-.57-.29-3.03-1.68-3.31-1.7-1.3-.09-2.5,1.06-4.68.61-1.3-.27-2.46-1.7-2.78-1.77-.46-.09-1.01.58-1.77.34-.53-.17-1.79-1.5-2.03-1.52l-2.76,2.58c.12-1.25,1.75-3.76,3.18-3.32.07.02,1.27.69,1.32.75Z"/>
  <path d="M239.88,181.44c.76-.18.56,1.46.7,1.93.5,1.68,2.18,1.82,1.14,4.48-.29.75-3.63,5.82-4.01,5.83-.81.02.32-2.13.47-2.4,1-1.81,3.34-2.99,2.71-5.33-.21-.79-1.44-1.69-1.58-2.76-.05-.39.16-1.64.56-1.74Z"/>
  <path d="M146.88,234.24c.39.43-1.04,1.66-1.32,1.93-.19.18-.62.15-.77.3s-.12.6-.41.9c-.53.54-1.36.47-2.05.48.09,1.2-.51,1.82-1.69,1.91.91,1.83-.72,3.83-2.64,3.6l1.98-1.49c.55-1.18-.29-2.4-.2-2.59l1.81-1.31c-.41-.39-.83-.68-.72-1.32.85-.34,1.96-.09,2.71-.25.19-.04.19-.38.34-.47.36-.2,2.83-1.81,2.94-1.69Z"/>
  <path d="M180.72,139.44c.02.89-1.24.8-1.77,1.22-1.27,1.03.1,2.66-.6,3.48-1.24.82-3.13.71-3.97,2.03s.18,1.56,0,2.4c-1.56,1.74-1.09-.36-1.51-1.53.55-2.72,2.76-2.7,4.97-3.28-.72-2.64-.28-4.69,2.88-4.31Z"/>
  <path d="M244.8,217.92c1.01-1.09,2.34-1.6,3.36-2.75.74-.84,1.11-1.94,1.91-2.65s2.03-1,2.65-1.91c.77-1.14.51-2.55,1.08-3.72.77,1.24.45,3.45-.49,4.54-.77.9-2.01,1.1-2.76,1.8-.61.58-1.03,1.73-1.67,2.41-.93.99-2.71,2.06-4.08,2.28Z"/>
  <path d="M160.8,123.36c.25-.28,2.87,1.82,3.52,1.87.42.03.71-.42,1.12-.38.44.04.97.74,1.53.86,1.19.27,3.14.05,4.51.29,1.43.25.06,1.29-1.17,1.19-.49-.04-3.02-.5-3.47-.63-.72-.22-1.11-1.02-1.61-1.06s-.78.45-1.18.47c-.98.07-3.6-1.34-3.25-2.62Z"/>
  <path d="M110.64,236.64c-1.2.25-2.66-.25-3.72-.25-.61,0-1.11.39-1.69.46-1.15.14-3.56.19-3.46-1.42,1.16.49,2.19.6,3.46.46,1.34-.15,1.42-.24,2.9-.22.98.01,3.67-.44,3.48.83-.05.32-.37.54-.43.8-.09.36.4.68-.17,1.01-.6-.49-.6-1-.36-1.67Z"/>
  <path d="M188.93,228.78c.68-.7,2.73-.01,2.58,1.14l-1.78-.46c-.61.14-.81,3.17-3.73,1.29l-3.13-2.87c.06-.54,1.38-.04,1.61.07.85.42,2.58,2.41,3.08,2.46,1.17.12.98-1.24,1.36-1.63Z"/>
  <path d="M222.79,175.37c-.14-.13-.18-.38-.3-.54-.18-.79,1.25.16,1.66.25,2.06.46,5.19.17,6.49,2.15.58.88.55,2.44-.49,1.7-.2-.14-.38-1.05-.7-1.46-1.35-1.73-5.37-.85-6.66-2.1Z"/>
  <path d="M234.72,176.16c-1.45-.4-2.91-.83-4.16-1.72-.47-.34-1.11-.74-.77-1.4.88-1.69,5,1.59,4.93,3.12Z"/>
  <path d="M95.28,173.28c.61.53-3.19,2.22-3.55,2.33-.72.22-2.8.61-3.14-.32-.56-1.53,1.53-.78,2.22-.82.88-.05,4.07-1.53,4.47-1.19Z"/>
  <path d="M236.04,222.72c2.58-.43,5.97-4.39,7.92-4.8.13-.03.4-.06.36.12-3.48,3.02-6.46,5.76-11.4,5.16-.44-.05-.39.08-.35-.48,1.07-.12,2.46.17,3.48,0Z"/>
  <path d="M254.4,206.64c.16-1.51,1.96-2.17,2.39-3.25.76-1.88.17-2.74.23-4.31.04-1.29.39-2.84.38-4.2,1.04,1.31.39,2.79.34,4.19-.07,1.78.17,2.64-.47,4.55-.21.61-2.26,3.57-2.87,3.01Z"/>
  <path d="M192.96,133.92c-.86.25-1.86.37-2.74.23s-1.4-.87-2.04-1.08c-1.3-.41-3.47.09-3.61-2.03.66-.09.84.76,1.37.91.61.18,1.37-.03,2.06.1.75.15,1.37.95,2.02,1.1.98.22,2.85-.46,2.95.77Z"/>
  <path d="M103.44,165.12c-.71-1.93,3.87-3.8,3.48-1.66-.27,1.47-2.23,1.78-3.48,1.66Z"/>
  <path d="M150.16,151.73c1.52-.13,2.33,3.51,1.39,3.78s-3.43-3.61-1.39-3.78Z"/>
  <path d="M233.76,185.52c-.13-.71.64-1.41.62-2.04-.02-.56-.83-1.33-1.04-1.98-.08-.26-.48-2.24.06-2.22.52.68.65,1.54,1.03,2.32.2.41.68.72.83,1.09.55,1.34.18,2.98-1.5,2.82Z"/>
  <path d="M112.41,163.06c-.15.11.02.64-.57.27-1.99-1.25,1.19-4.41,2-2.7.45.95-.76,1.92-1.42,2.43Z"/>
  <path d="M77.8,179.48c-.79-2.8,4.36-1.61,3.1-.06-.68.83-2.29.61-3.1.06Z"/>
  <path d="M135.24,212.4c.28,0,1.37,4.29.47,4.55-1.55.46-1.86-3.93-.47-4.55Z"/>
  <path d="M230.4,159.6c-2.6.38-4.76-1.51-6-3.6.33-.28,2.25,1.46,2.71,1.72,1.1.64,2.58.86,3.29,1.87Z"/>
  <path d="M83.64,137.52c.54,1,.41,2.05.9,3.17.33.75,1.12,1.47,1.42,2.19.15.37.27.29-.16.63-1.1-.05-3.52-4.88-2.16-5.99Z"/>
  <path d="M197.25,156.69c-1.2.77-4.09-2.45-2.03-2.36.6.03,2.12.74,2.27,1.37.05.21-.12.92-.24,1Z"/>
  <path d="M204.13,185.04c.78,0,3.45,1.7,2.29,2.53-.96.68-3.49-1.47-2.29-2.53Z"/>
  <path d="M140.32,154.83c1.28-.42,3,1.8,1.89,2.85-.77-.17-3.37-2.35-1.89-2.85Z"/>
  <path d="M254.16,180.96c-.34.03-.64.02-.95-.12-.25-.12-2.09-2.21-2.13-2.45-.36-2.39,3.47,1.47,3.08,2.57Z"/>
  <path d="M161.76,223.68c.78-1.13,2.51-.94,3.58-1.58.63-.38,1.25-1.87,1.94-.94-.59,2.38-3.6,2.06-5.52,2.51Z"/>
  <path d="M72.21,201.57c-3.39,1.27-4.54-1.99-.36-1.38.51.17.46.93.36,1.38Z"/>
  <path d="M130.3,161.5c-.73,1.03-3.09-.93-2.35-2.11.65-1.04,2.92,1.3,2.35,2.11Z"/>
  <path d="M205.17,176.67l-.09,1.17c-1.13.98-2.35.29-3-.85l2.06-.58,1.02.26Z"/>
  <path d="M65.04,191.76c-1.51.32-3.78-.93-3.12-2.64.28-.22,3.13,1.87,3.12,2.64Z"/>
  <path d="M126.66,215.08c2.03-.4,1.03,2.93-.74,2.33-.86-.29-.35-2.12.74-2.33Z"/>
  <path d="M150.96,139.92c-1.38.11-2.62-1.54-2.4-2.88.47-.49,2.91,2.01,2.4,2.88Z"/>
  <path d="M177.76,129.2c.09.1.36.61.32.64-1.12.16-1.76-.99-2.67-1.53s-2.31-.69-2.85-1.82c1.62.62,4.04,1.41,5.2,2.72Z"/>
  <path d="M71.28,190.56c-.96.27-2.92-1.17-2.29-2.17.52-.82,2.93,1.12,2.29,2.17Z"/>
  <path d="M190.74,153.16c.44-.04.75.03.79.56-.43,1.19-1.87,1.87-2.89.95-.13-.62,1.58-1.46,2.1-1.52Z"/>
  <path d="M61.7,163.41l.69.39-.63.57-1.26-.85.22-2.24c1.28-.11,1.31,1.19.98,2.13Z"/>
  <path d="M198.13,186.96c.76-.15,2.51,2.09,1.41,2.39-1.24.33-2.43-2.19-1.41-2.39Z"/>
  <path d="M204.96,168.24c.21,1.38-1.21,1.97-2.4,1.92-.03-1.36,1.11-2.09,2.4-1.92Z"/>
  <path d="M143.52,215.52c.69-.18,2.91,1.43,1.92,2.05-.81.51-2.54-1.17-1.92-2.05Z"/>
  <path d="M134.88,163.92c.15.14-1.35,3.49-1.92,3.6-.06-1.21.38-3.6,1.92-3.6Z"/>
  <path d="M70.49,206.45c.45-.11,1.92-.2,1.75.54-.38.76-2.84.91-2.64,0,.23-.28.54-.47.89-.55Z"/>
  <path d="M96.91,169.24c.15.38.12.97-.35,1.12-1,.21-1.89-.01-1.41-1.17.65-.67,1.09-.38,1.76.05Z"/>
  <path d="M74.16,137.28l.24,3.12c-1.33-.46-1.51-1.67-.78-2.81.15-.24-.02-.43.54-.31Z"/>
  <path d="M254.16,198.48c.17,1.34-.72,3.02-2.16,3.12l1.58-2.63.58-.48Z"/>
  <path d="M165.36,191.04c.38.5-1.9,2.15-2.16,1.06-.19-.81,1.47-1.54,2.16-1.06Z"/>
  <path d="M175.68,175.2l-1.56,2.15c-1.03-.67.99-2.66,1.56-2.15Z"/>
  <path d="M121.2,191.52c-1.26-.75-.65-2.54.48-3.12l-.48,3.12Z"/>
  <path d="M86.64,141.12c-1.15-.11-.97-1.58-.96-2.4,1.01.04.9,1.69.96,2.4Z"/>
  <path d="M136.32,156.96l-1.31.48-.38-.6c.31-1.03,1.6-1.08,1.69.12Z"/>
  <path d="M244.56,73.44c.09.59-.64.9-1.1.95-2.34.28-5.19-2.2-5.62-4.43l.48-.25c1.37,2.33,3.74,3.16,6.24,3.73Z"/>
  <path d="M244.8,69.84c-1.3.17-3.31-.35-3.36-1.92.18-.19,3.9,1.46,3.36,1.92Z"/>
  <path d="M246.72,63.84c-.67.04-1.76.01-1.92-.84.12-.66,2.18.07,1.92.84Z"/>
  <path d="M270.64,52.15c.88,1.02-.44.93-1.34.5-1.37-.65-2.42-2.14-2.18-3.69.41-.47,1.81,1.92,2.04,2.16.37.37,1.2.7,1.48,1.03Z"/>
  <path d="M272.88,50.4c-.45.41-3-1.03-2.88-1.92.32-.3,3.36,1.49,2.88,1.92Z"/>
  <path d="M265.2,54.72l-1.64-.52-.04-.92c.81-.04,1.82.49,1.68,1.44Z"/>
  <path d="M241.92,39.84c.6.64-1.55.75-1.81.74-.43-.02-.79.02-1.07-.38-.12-.49,1.35-.6,1.57-.61.25,0,1.22.16,1.31.25Z"/>
  <path d="M240.96,41.04c.36.34-.03.43-.36.48-.93.13-1.86-.09-2.77-.24-.36-.34.03-.43.36-.48.93-.13,1.86.09,2.77.24Z"/>
  <path d="M271.44,27.6c-1.02.43-1.96.01-2.98-.22l-.14-.74c1.14,0,2.49-.26,3.12.96Z"/>
  <path d="M269.65,28.8c.51-.12,2.73.56,2.75,1.08.03.87-2.72-.19-3-.6-.22-.14.17-.46.25-.48Z"/>
  <path d="M432.9,101.58c1.82-.28,3.24.33,4.51,1.61,1.98,2.01,3.67,5.31-.73,5.31-1.39,0-5.41-.68-6.61-1.33-4.02-2.16.04-5.17,2.83-5.59Z"/>
  <path d="M419.94,128.7c2.04-.32,7.61.16,6.68,3.31-.56,1.92-4.04.27-5.76.49-2.4.31-5.25,3.28-7.41,2.81-1.28-.28-1.14-1.86-.39-2.69,1.09-1.21,5.28-3.67,6.88-3.92Z"/>
  <path d="M356.4,114.72c.05.61-.83.8-1.34.94-1.23.35-3.16.74-4.32.27-.96-1.34,3.73-2.6,4.6-2.64,1.03-.04,1.09.71,1.19.71.53.01,2.42-1.01,3.4-1.15,1.3-.18,2.74-.18,3.89.55.68.43,1.78,1.56.87,2.29-.64.51-2.99-.7-4.13-.72-1.46-.02-3.03,1.11-4.17-.26Z"/>
  <path d="M378.18,87.17c2.17-.31,3.25,1.61,1.72,3.17-1.32,1.34-7.36,3.28-6.93.04.18-1.4,3.94-3.02,5.21-3.21Z"/>
  <path d="M318.16,103.99c.46.53.66,1.22.07,1.71-.93.78-1.9-.17-2.98-.22-.57-.03-2.07.19-2.58.41-.63.28-.83,1-1.51,1.13-1.8.34-4.18-.21-1.87-1.87.56-.4,4.19-1.96,4.87-2.09,1.41-.29,3.02-.21,4.02.93Z"/>
  <path d="M354.43,138.07c1.54-.18,4.94.45,5.3,2.27.41,2.11-2.37.89-3.27.84-1.16-.06-4.33.84-4.82-.96-.41-1.52,1.72-2.03,2.79-2.16Z"/>
  <path d="M393.08,116.46c1.35-.04,4.97.37,3.61,2.44-.88,1.34-7.31,1.46-7.42-.72.06-1.51,2.65-1.69,3.8-1.72Z"/>
  <path d="M376.02,138.06c1.26-.23,3.4-.08,4.62.31.47.15,2.88,1.14,3.21,1.35,1,.65.77,1.53-.35,1.52-.97,0-2.29-.63-3.43-.38-1.82-.73-4.2-.7-5.98-1.22-.31-.09-.53-.3-.16-.55s1.67-.95,2.09-1.03Z"/>
  <path d="M402.42,108.29c1.38-.28,4.62-.04,3.73,2.04-.46,1.07-4.03,1.76-4.94,1.22-1.51-.9-.31-2.95,1.21-3.26Z"/>
  <path d="M375.79,103.27c.74-.04,2.28-.31,2.81.17,1.67,3.47-7.46,2.86-6.01.48.3-.5,2.51-.61,3.2-.64Z"/>
  <path d="M413.94,96.04c1.4-.35,1.75,1.47,1.12,2.58-1.25,2.19-5.17,1.99-4.05-.46.09-.21,2.7-2.06,2.94-2.12Z"/>
  <path d="M332.7,126.18l-.24-.74c.21-1.68,4.76-2.26,4.98-.01.23,2.36-3.56,1.41-4.74.76Z"/>
  <path d="M405.55,115.03c.91-.12,2.86-.34,3.14.82.46,1.97-4.22,2.27-4.72.62-.4-1.31.6-1.31,1.59-1.44Z"/>
  <path d="M333.39,121.41c-1.24-1.97,4.19-3.16,4.73-1,.51,2.02-4.58,1.24-4.73,1Z"/>
  <path d="M383.7,91.72c2.89-.35,3.23,3.85-.44,2.97-2.19-.53-1.37-2.75.44-2.97Z"/>
  <path d="M401.22,88.13c1.7-.35,3.46.84,2.23,2.47-.61.36-3.6,0-3.98-.6-.45-.72,1.15-1.75,1.75-1.87Z"/>
  <path d="M388.74,94.87c1.37-.2,3.36,0,4.37,1.01-.61,1.42-5.46.89-5.74-.02-.08-.28-.06-.54.23-.7.37-.13.75-.24,1.14-.3Z"/>
  <path d="M329.55,98.13c-1.09-1.73,3.15-3.45,3.71-1.42.45,1.63-3.3,2.07-3.71,1.42Z"/>
  <path d="M330.18,123.9c1.15,1.14-1.09,3.17-2.81,1.73-1.49-1.24,1.69-2.84,2.81-1.73Z"/>
  <path d="M330.8,93.19c1.29-1.47,4.31-.7,2.79.52-.41.33-3.13.93-3.07.04.06-.2.14-.4.28-.56Z"/>
  <path d="M447.3,122.46c.16.17.51,1.19.42,1.39-1.61,1.39-2.04-.55-1.8-1.93.09-.1,1.26.4,1.38.54Z"/>
  <path d="M294.42,156.06c.57-.15,1.23-.1,1.8,0s1.78.8,1.98.81c.23,0,.6-.34.97-.38,3.08-.29,2.84,2.11.73,1.9-.41-.04-.99-.42-1.23-.39-.15.02-1.89,1.09-2.74,1.25-3.37.64-3.7-2.63-1.51-3.19Z"/>
  <path d="M305.45,160.85c2.61-.61,2.6,1.56.67,1.58-1.55.02-2.31-1.2-.67-1.58Z"/>
  <path d="M428.67,173.49c.05-5.07,5.62-3.88,8.84-2.48-1.99,2.91-5.67,3.23-8.84,2.48Z"/>
  <path d="M334.98,156.06c1.39-.25,4.42-.16,5.47.89.84.84.45,2.21-.7,2.16-.62-.02-4.67-1.13-5.33-1.42-1.49-.64-.62-1.43.55-1.64Z"/>
  <path d="M350.57,159.89c1.92-.43,5.52,1.23,3.42,2.7-1.06.74-4.56-.62-4.56-1.67.07-.52.66-.92,1.14-1.03Z"/>
  <path d="M325.38,211.26c2.34-.43,3.55.44,5.49.65,1.15.13,1.82-.35,3.15.2,2.14.9,2.99,4.73.67,4.87-.89.06-1.73-.78-2.13-.71-.47.09-.93,1.34-2.46,1.38-1.32.03-2.17-.92-3.15-1.12-1.61-.34-4.46.92-4.74-1.7-.15-1.49,1.86-3.34,3.17-3.58Z"/>
  <path d="M333.06,224.46c.73-.11,3.16-.09,4.01-.07,1.95.04,4.21,2.87,2.22,3.68-.25.1-2,.11-2.34.06-1.05-.14-1.55-.55-2.48-.84-.97,1.3-2.21,2.11-3.87,2.16-.81.02-1.43-.25-2.16-.28-.99-.04-2.45.75-3.12-.7-1.05-2.3,1.93-2.01,3.01-2.26,1.6-.38,3.3-1.54,4.73-1.75Z"/>
  <path d="M346.48,231.92c1.54,1.54.56,3.46-1.5,3.74-1.67.23-9.3-1.01-7.06-3.7.26-.31,2.3-1.47,2.77-1.54,1.39-.22,4.78.51,5.78,1.5Z"/>
  <path d="M358.74,257.7c-1.46,1.54-3.93-1.18-5.08-1.64-1.35-.54-3.89.03-4.36-1.66-.71-2.5,4.8-2.72,6.32-2.22,1.44.47,4.5,4.06,3.12,5.51Z"/>
  <path d="M366.66,224.7c1.81-.31,4.02-.29,4.07,2.02s-2.29,1.56-3.59,1.81c-1.13.22-2.84,2.09-4.01,1.52-1.92-1.81,1.67-5.03,3.53-5.35Z"/>
  <path d="M352.96,215.83c1.71-.09,5.96,3.62,3.18,5.31-1.65,1-4.86-1.5-5.02-3.12-.1-1.02.81-2.13,1.83-2.19Z"/>
  <path d="M367.62,220.14c.89-.11,1.57-.2,2.18.57,2.62,3.27-6.41,4.43-5.38.55,1.07-.27,2.12-.98,3.2-1.12Z"/>
  <path d="M387.55,235.03c4.29-.44,6.21.6,9.67,2.67.91.54,2.48.61,2.62,1.96.08.79-.4,1.66-1.18,1.91-2.16.68-6.64-2.31-9.26-2.53-1.35-.11-2.38-.05-3.64.43s-4.04,3.17-4.17.16,3.53-4.36,5.96-4.61Z"/>
  <path d="M408.08,238.48c-1.53-1.8.21-2.99,2.07-2.19.89.38,2.94,2.9,3.07,3.9.22,1.61-.88,2.09-1.1,3.11-.35,1.58.48,4.73-2.09,4.89l-.49-.25c-.14-1.53-1.2-4.62-.65-5.94.29-.69,1.35-1.01,1.24-1.83-.08-.26-1.75-1.31-2.06-1.68Z"/>
  <path d="M369.18,263.82c.31-.3,1.49-.51,1.97-.55,4.33-.34,10.93,2.2,12.98,6.24.14.79,2.09,5.52,1.93,5.77-.11.17-.76.61-.98.24-.57-.94-.87-3.15-1.46-4.3-1.5-2.9-7.76-5.36-10.85-5.95-.98-.19-5.01-.08-3.59-1.45Z"/>
  <path d="M404.64,254.16c.57-1.19.12-1.78-.73-2.75-2.8-3.2-6.16-.71-9.24-3.01v-.96c.39-.77,1.7-.38,2.4-.48,2.83-.39,4.94-1.04,7.4,1,1.83,1.52,3.61,5.61.16,6.2Z"/>
  <path d="M393.53,278.21c3.97-.82,5.17,3.2.98,4.1-5.3,1.13-4.41-3.39-.98-4.1Z"/>
  <path d="M379.62,247.73c3.5-.71,4.99,3.43,1.87,3.5-.5.01-2.79-.38-3.14-.66-1.2-.97-.03-2.58,1.27-2.84Z"/>
  <path d="M323.46,251.7c-.28.28-1.08.34-1.48.29-2.28-.28-3.92-4.72-5.54-5.76-1.43-.91-3.64-.13-3.46-2.72.16-2.31,1.83-3.27,4.02-2.63,1.55.45,4.74,3.41,5.37,4.95.41,1.02.28,1.74.54,2.58.24.76,1.66,2.19.56,3.29Z"/>
  <path d="M312.64,235.52c1.53,1.53.75,3.61-1.77,2.85-4.2-1.26-.71-5.34,1.77-2.85Z"/>
  <path d="M305.21,248.69c2.42-.57,5.15,1.33,2.93,2.69s-5.78-2.01-2.93-2.69Z"/>
  <path d="M315.77,231.19c2.18,2.16-2.57,3.15-3.31.52.03-1.79,2.48-1.34,3.31-.52Z"/>
  <path class="st0" d="M108,174c.54-.91,2.34-1.42,3.35-1.57,3.65-.56,10.32.94,14.07,1.79.38.09.78-.07,1.06.38-.41.53-1.2.4-1.79.36-3.08-.22-6.62-1.49-9.83-1.69-2.5-.15-4.44.33-6.85.73Z"/>
  <path class="st0" d="M122.64,171.36c-.4.2-3.18-.97-2.64-1.44.88-.03,2.43.4,2.64,1.44Z"/>
  <path class="st0" d="M111.6,198.96c-.25.22-3.85-1.83-4.47-2.12-.87-.42-1.86-.7-2.72-1.13-.34-.17-.6.05-.48-.59,1.38.1,2.9.67,4.16,1.23.3.13,4.17,2.02,3.51,2.6Z"/>
  <path class="st0" d="M101.76,188.64c-1.1.01-2.14-.52-3.24-.5s-1.99.62-2.89.73c-.47.06-.36-.07-.35-.47,1.89-.82,4.89-1.38,6.48.23Z"/>
  <path class="st0" d="M108.96,200.16c-.99.26-1.19-1.16-1.2-1.92.78-.24,1.39,1.73,1.2,1.92Z"/>
  <path class="st0" d="M103.44,185.52c.12.62-.14.42-.47.6-.25.14-1.58.72-1.69.6-.69-.75,1.78-1.34,2.16-1.2Z"/>
  <path class="st0" d="M189.6,162c-.25.97-2.03,1.03-2.97,1.47-2.68,1.25-4.33,3.9-6.51,5.73-.27.23-.39.58-.84.48,2.54-3.52,5.52-7.63,10.32-7.68Z"/>
  <path class="st0" d="M152.88,177.6h-.72s-.75-3.21-.75-3.21l-2.37-3.27c2.76.69,4.23,3.75,3.84,6.48Z"/>
  <path class="st0" d="M164.88,178.08l-6.24.96c0-.34.68-.47.97-.59,1.08-.44,3.29-.97,4.43-.86.36.03.75.07.84.49Z"/>
  <path class="st0" d="M190.17,200.01c.22-.21.56-.31.76-.56.2.9-.89,1.88-1.36,2.72-.25.45-1.02,2.54-1.28,2.56-.6.04.15-1.94.24-2.15.29-.69,1.13-2.05,1.64-2.56Z"/>
  <path class="st0" d="M183.12,181.92c.47-.47,1.39,1.89,1.58,2.14.3.41,1.26,1.4,1.67,1.69.51.38,3.21,1.54,3.23,1.8.05.58-1.76-.09-1.98-.17-2.7-1.01-3.87-2.71-4.49-5.46Z"/>
  <path class="st0" d="M222.96,201.6c-1.07,1.3-2.53,2.78-4.08,3.48-1.24.56-3.77,1.36-4.8.24,1.55-.62,3.24-.51,4.8-1.2s2.51-2.22,4.08-2.52Z"/>
  <path class="st0" d="M146.64,199.68c-.16.54-2.92,2.09-3.12,1.92-.42-.36.33-.53.45-.62.75-.56,1.69-1.27,2.67-1.3Z"/>
  <path class="st0" d="M143.28,183.84c-.81,1.84-1.89,3.57-2.56,5.48-.23.65-.24,1.34-.45,1.97-.14.42-.02.57-.59.48.16-1.79.65-3.57,1.4-5.2.45-.98,1.02-2.46,2.2-2.72Z"/>
  <path class="st0" d="M156.48,186.96l-2.96,1.24-3.76,2.84c1.03-2.44,4.07-4.34,6.72-4.08Z"/>
  <path class="st0" d="M130.56,196.8c1.08.06,1.58,1.28,2.18,1.77.8.65,2.14,1.22,2.74,1.82,3.16,3.18-3.46,9.18-7.17,5.97-2.93-2.54,2.35-6.68,2.25-9.57ZM131.04,200.64c-1.41-.46-1.08,2.4-.6,2.39.62-.62.63-1.58.6-2.39Z"/>
  <path d="M131.04,200.64c.03.81.02,1.78-.6,2.39-.48,0-.81-2.85.6-2.39Z"/>
</svg>