<svg xmlns="http://www.w3.org/2000/svg" xmlns:xlink="http://www.w3.org/1999/xlink" xmlns:inkscape="http://www.inkscape.org/namespaces/inkscape" version="1.1" width="1237.83" height="1752.84" viewBox="0 0 1237.83 1752.84">
<defs>
<clipPath id="clip_0">
<path transform="matrix(1,0,0,-1,0,1752.84)" d="M0 1752.844H1237.833V0H0Z"/>
</clipPath>
<clipPath id="clip_1">
<path transform="matrix(1,0,0,-1,0,1752.84)" d="M227.711 219.755H1040.51V1556.23H227.711Z"/>
</clipPath>
</defs>
<g>
<g inkscape:groupmode="layer" inkscape:label="Laag 1">
</g>
<g inkscape:groupmode="layer" inkscape:label="Laag 2">
<g clip-path="url(#clip_0)">
<g>
<g clip-path="url(#clip_1)">
<path transform="matrix(1,0,0,-1,1040.2575,303.71827)" d="M0 0C1.13-11.29-1.79-17.28-5.08-23.72-9.15-31.68-13.88-37.01-23.58-37.28-37.77-37.68-56.65-29.91-70.58-30.21-91.82-30.67-89.9-48.38-102.21-61.27-109.13-68.52-113.81-70.83-121-71.14-122.46-71.1-123.9-70.98-125.31-70.78-135.63-69.37-144.54-64.08-149.6-56.69-154.47-49.56-155.77-40.49-151.31-31.03-145.13-17.93-136.55-5.04-137.67 10.2-139.51 35.21-164.72 63.52-186.07 74.26L-186.01 74.42C-171.43 69.24-150.72 94-158.34 103.79-145.35 93.68-130.63 91.16-118.57 78.97-106.41 66.68-100.12 49.44-88.06 37.18-66.69 15.45-14.46 27.15 0 0" fill="#404347"/>
<path transform="matrix(1,0,0,-1,914.9474,374.4983)" d="M0 0-.05-.37C-24.09-38.69-47.61-79.4-70.56-118.47-114.55-193.32-167.7-262.45-210.07-338.22-319.66-534.21-436.77-726.44-540.62-925.51-567.64-977.29-590.74-1031.04-616.5-1083.01-616.94-1083.92-617.39-1084.82-617.84-1085.73-624.78-1099.19-650.51-1082.69-651.9-1072.21L-651.72-1072.18C-650.75-1070-649.76-1067.8-648.76-1065.59-625.1-1013.65-592.14-954.85-562.63-903.66-505.35-804.27-452.27-702.64-394.74-603.46-333.36-497.63-274.53-387.37-207.06-285.39-166.04-223.39-124.92-160.83-87.67-96.84-76.8-78.16-67.12-58.91-56.7-39.96-47.28-22.8-29.08-5.24-24.9 13.75L-24.29 14.09C-19.23 6.7-10.32 1.41 0 0" fill="#bbbfc4"/>
<path transform="matrix(1,0,0,-1,881.9174,199.92823)" d="M0 0C7.62-9.79-13.09-34.55-27.67-29.37-27.78-29.34-27.9-29.29-28.01-29.25-37.38-21.29-16.69 8.84-3.11 2.43-1.77 1.8-.74 .97 0 0" fill="#656c74"/>
<path transform="matrix(1,0,0,-1,263.0475,1446.7083)" d="M0 0C1.39-10.48 27.12-26.98 34.06-13.52 34.51-12.61 34.96-11.71 35.4-10.8L35.76-10.98C36.58-11.16 38.2-12.21 39.33-13.52 46.01-25.11 34.21-40.95 30.06-54.37 26.66-65.35 27.83-83.95 14.51-85.98-1.3-88.38-21.93-79.62-31.1-66.96-39.76-54.98-33.34-46.3-27.81-33.89-23.08-23.26-12.32 8.92 2.72 6.81L3.14 6.62C2.14 4.41 1.15 2.21 .18 .03Z" fill="#404347"/>
</g>
</g>
<path transform="matrix(1,0,0,-1,854.1874,229.45825)" stroke-width="1.7" stroke-linecap="round" stroke-linejoin="round" fill="none" stroke="#000000" d="M0 0C21.35-10.74 46.56-39.05 48.4-64.06 49.52-79.3 40.94-92.19 34.76-105.29 30.3-114.75 31.6-123.82 36.47-130.95 41.53-138.34 50.44-143.63 60.76-145.04 62.17-145.24 63.61-145.36 65.07-145.4 65.12-145.41 65.18-145.41 65.23-145.41"/>
<path transform="matrix(1,0,0,-1,853.9075,229.17823)" stroke-width="1.7" stroke-linecap="round" stroke-linejoin="round" fill="none" stroke="#000000" d="M0 0C.11-.04 .23-.09 .34-.12 14.92-5.3 35.63 19.46 28.01 29.25 27.27 30.22 26.24 31.05 24.9 31.68 11.32 38.09-9.37 7.96 0 0"/>
<path transform="matrix(1,0,0,-1,880.7274,198.96826)" stroke-width="1.7" stroke-linecap="round" stroke-linejoin="round" fill="none" stroke="#000000" d="M0 0C.4-.32 .79-.64 1.19-.96 14.18-11.07 28.9-13.59 40.96-25.78 53.12-38.07 59.41-55.31 71.47-67.57 92.84-89.3 145.07-77.6 159.53-104.75"/>
<path transform="matrix(1,0,0,-1,919.1274,374.8683)" stroke-width="1.7" stroke-linecap="round" stroke-linejoin="round" fill="none" stroke="#000000" d="M0 0C.04 0 .09 0 .13 .01 7.32 .32 12 2.63 18.92 9.88 31.23 22.77 29.31 40.48 50.55 40.94 64.48 41.24 83.36 33.47 97.55 33.87 107.25 34.14 111.98 39.47 116.05 47.43 119.34 53.87 122.26 59.86 121.13 71.15"/>
<path transform="matrix(1,0,0,-1,890.0474,360.7483)" stroke-width="1.7" stroke-linecap="round" stroke-linejoin="round" fill="none" stroke="#000000" d="M0 0C-4.18-18.99-22.38-36.55-31.8-53.71-42.22-72.66-51.9-91.91-62.77-110.59-100.02-174.58-141.14-237.14-182.16-299.14-249.63-401.12-308.46-511.38-369.84-617.21-427.37-716.39-480.45-818.02-537.73-917.41-567.24-968.6-600.2-1027.4-623.86-1079.34-624.86-1081.55-625.85-1083.75-626.82-1085.93"/>
<path transform="matrix(1,0,0,-1,914.8975,374.8683)" stroke-width="1.7" stroke-linecap="round" stroke-linejoin="round" fill="none" stroke="#000000" d="M0 0C-24.04-38.32-47.56-79.03-70.51-118.1-114.5-192.95-167.65-262.08-210.02-337.85-319.61-533.84-436.72-726.07-540.57-925.14-567.59-976.92-590.69-1030.67-616.45-1082.64-616.89-1083.55-617.34-1084.45-617.79-1085.36"/>
<path transform="matrix(1,0,0,-1,263.0374,1446.6782)" stroke-width="1.7" stroke-linecap="round" stroke-linejoin="round" fill="none" stroke="#000000" d="M0 0C0-.01 0-.02 .01-.03 1.4-10.51 27.13-27.01 34.07-13.55"/>
<path transform="matrix(1,0,0,-1,265.7675,1439.8982)" stroke-width="1.7" stroke-linecap="round" stroke-linejoin="round" fill="none" stroke="#000000" d="M0 0C-15.04 2.11-25.8-30.07-30.53-40.7-36.06-53.11-42.48-61.79-33.82-73.77-24.65-86.43-4.02-95.19 11.79-92.79 25.11-90.76 23.94-72.16 27.34-61.18 31.49-47.76 43.29-31.92 36.61-20.33 35.48-19.02 33.86-17.97 33.04-17.79"/>
</g>
</g>
</g>
</svg>
