<svg xmlns="http://www.w3.org/2000/svg" xmlns:xlink="http://www.w3.org/1999/xlink" xmlns:inkscape="http://www.inkscape.org/namespaces/inkscape" version="1.1" width="1445.64" height="1409.5" viewBox="0 0 1445.64 1409.5">
<defs>
<clipPath id="clip_0">
<path transform="matrix(1,0,0,-1,0,1409.5)" d="M0 1409.503H1445.644V0H0Z"/>
</clipPath>
<clipPath id="clip_1">
<path transform="matrix(1,0,0,-1,0,1409.5)" d="M370.407 215.027H1137.1V1286.96H370.407Z"/>
</clipPath>
</defs>
<g>
<g inkscape:groupmode="layer" inkscape:label="Laag 1">
</g>
<g inkscape:groupmode="layer" inkscape:label="Laag 2">
<g clip-path="url(#clip_0)">
<g>
<g clip-path="url(#clip_1)">
<path transform="matrix(1,0,0,-1,376.9271,1034.1356)" d="M0 0C1.62 5.21 5.55 9.86 9.03 13.74 10.29 15.15 11.35 16.6 12.28 18.09L12.34 18.05C16.23 18.22 19.44 15.12 23.11 17.89 25.74 19.89 27.34 24.27 28.63 27.17 30.44 31.24 31.04 35.39 31.95 39.56 31.95 39.66 31.94 39.7 31.91 39.7L31.95 39.92C35.09 39.43 38.13 37.7 38.16 34.48H38.3C38.21 32.86 38.15 31.24 38.1 29.6 37.87 21.64 38.15 13.65 38.13 5.69 38.13 3.68 37.94 1.55 38.1-.46 38.22-1.99 38.14-3.65 38.45-3.65L38.7-3.98C46.18-10.22 55.18-14.82 62.99-20.76 68.24-24.75 72.86-28.13 79.57-29.42 90.28-31.48 101.72-28.94 112.54-28.83 118.4-28.77 124.09-29.7 129.89-29.84 136.13-29.99 142.05-27.93 148.25-27.69L148.81-27.13C157.43-28.31 169.87-15.75 169.73-6.82L170.27-6.8V10.39C170.27 17.09 169.98 23.87 170.23 30.56 170.24 30.82 170.25 31.07 170.27 31.33L170.55 31.32C181.95 30.18 191.15 34.52 201.32 28.12 202.05 27.68 202.78 27.16 203.52 26.59 208.34 22.85 211.61 18.46 214.56 13.88 217.66 9.1 220.44 4.1 224.34-.6 231.36-9.04 238.65-15.51 248.36-20.81 260.88-27.63 273-37.66 287.73-37.29 296.48-37.58 320.1-32.95 326.71-31.38 357.51-24.04 386.37-11.45 416.43-1.88 452.86 9.71 489.31 18.63 526.56 27.08 542.2 30.63 558.05 33.37 573.84 36.32 568.43 41.66 563.97 49.6 560.25 56.32 553.08 69.26 546.61 82.37 540.59 95.9 536.94 104.1 533.63 112.73 531.12 121.37 530.65 123 527.73 128.35 526.6 130.61L526.47 130.91C531.69 133.1 537.3 134.31 543.13 136.14 558.57 140.97 563.98 152.35 574.73 163.22 584.9 173.5 597.17 177.09 611.39 177.81 624.59 178.48 637.71 175.35 650.91 176.58 664.93 177.9 676.76 184.75 688.61 191.74 694.96 195.49 702.57 199.15 710.24 200.96L710.32 200.63C714.19 188.51 721.89 175.65 725.29 163.28 728.46 151.72 730.55 139.48 732.15 127.64 736.66 94.25 744.36 61.48 747.4 27.87 750.18-2.88 751.95-32.55 746.24-62.51 755.69-54.79 763.46-69.52 758.76-77.74 754.19-85.73 735.37-92.74 732.25-80.05L731.59-80.21C723.23-80.41 712.43-89.62 703.94-92.21 683.21-98.54 662.15-104.16 641.17-109.56 616.6-115.89 591.64-120.59 566.98-126.54 535.71-134.08 504.31-142.76 472.36-146.93 448.92-149.98 426.42-148.71 402.99-148.5 377.44-148.27 351.69-149.71 326.18-148.03 315.15-147.3 304.25-145.16 293.22-144.66 283.32-144.21 273.4-145.07 263.51-144.35 256.22-143.81 246.26-139.73 239.17-141.76 227.41-150.39 219.12-157.45 203.95-159.23 173.15-162.83 140.73-156.51 109.85-156.45 103.97-156.07 98.48-158.57 92.6-158.43 85.92-158.28 79.12-156.37 72.55-155.19 64.78-153.8 57.79-150.28 51.49-145.7 49.15-144 46.91-142.15 44.75-140.21 39.35-135.33 34.32-131.57 27.46-128.8 24.4-127.57 21.02-126.69 18.01-125.2 16.12-124.27 14.37-123.1 12.95-121.45 12.87-121.36 12.79-121.27 12.72-121.17 7.5-114.89 5.75-104.04 2.55-96.59 .08-94.38-1.84-91.62-2.99-87.92-3.53-86.2-3.9-84.28-4.08-82.11-4.75-74.21-6.55-65.96-6.52-58.11-6.49-52.62-4.75-41.85-1.4-37.29L-1.31-37.28C-2.01-29.96-1.69-22.8 1.56-18.03 .73-15.55 .09-13.07-.31-10.69-.74-8.16-.9-5.75-.72-3.6-.62-2.37-.37-1.17 0 0" fill="#96672f"/>
<path transform="matrix(1,0,0,-1,521.6971,783.1556)" d="M0 0-.29 .1C-11.31 29.25-15.76 72.05-4.3 101.26 3.82 121.96 14.01 137.83 34.25 148.23 43.09 152.78 50.33 158.43 57.69 165.29 61.84 169.16 70.22 173.96 71.24 179.87L71.28 179.86C72.25 184.13 75.97 207.68 84.23 204.71L84.58 204.76C84.7 203.9 84.8 202.91 84.8 201.89H84.98C91.51 196.53 100.66 198.75 108.47 199.76 129.01 202.39 148.54 207.68 168.67 212.34 193.04 217.96 216.42 228.48 236.23 243.81 242.49 248.66 264.76 265.38 261.55 275.49H261.52C261.46 275.85 261.4 276.22 261.35 276.59L261.55 276.62C265.31 282.21 271.14 280.19 275.17 276.33 278.16 273.46 280.87 269.63 283.33 266.36 284.64 264.62 285.27 262.31 286.96 261.18 297.9 255.91 313.05 256.12 324.96 253.84 336.42 251.65 347.8 249.33 359.23 247.06 375.47 243.85 390.34 236.83 405.2 229.72 429.61 218.06 450.9 205.6 470.27 186.25 515.9 140.68 538.5 77.07 565.6 19.78 573.24 3.62 580.21-11.94 585.14-29.1 587.59-37.64 591.81-47.27 593-55.96 585.42-48.38 575.39-47.66 565.47-50.02 557.8-51.83 550.19-55.49 543.84-59.24 531.99-66.23 520.16-73.08 506.14-74.4 492.94-75.63 479.82-72.5 466.62-73.17 452.4-73.89 440.13-77.48 429.96-87.76 419.21-98.63 413.8-110.01 398.36-114.84 392.53-116.67 386.92-117.88 381.7-120.07L381.83-120.37C382.96-122.63 385.88-127.98 386.35-129.61 388.86-138.25 392.17-146.88 395.82-155.08 401.84-168.61 408.31-181.72 415.48-194.66 419.2-201.38 423.66-209.32 429.07-214.66 413.28-217.61 397.43-220.35 381.79-223.9 344.54-232.35 308.09-241.27 271.66-252.86 241.6-262.43 212.74-275.02 181.94-282.36 175.33-283.93 151.71-288.56 142.96-288.27 128.23-288.64 116.11-278.61 103.59-271.79 93.88-266.49 86.59-260.02 79.57-251.58 75.67-246.88 72.89-241.88 69.79-237.1L70.11-236.89C72.94-227 68.74-215.31 65.93-210.89 59.48-200.75 38.67-192.79 27.33-199.55 27.76-193.76 27.8-187.96 26.63-182.11L26.4-182.15C25.56-177.27 20.45-173.6 15.51-170.75 9.58-167.33 3.15-166.7-3.32-166.26L-3.3-166.02C-6.05-161.87-3.17-156.87-2.75-152.08-1.93-142.78-.81-133.52 .07-124.23 2.33-100.49-2.43-76.98-5.6-53.44-7.97-35.84-5.62-16.97 0 0" fill="#72af99"/>
<path transform="matrix(1,0,0,-1,530.0671,202.8656)" d="M0 0V1.08C-5.2 1.13-12.85-2.59-17.24-5.53-16.55 .96-10.41 6.5-6.73 11.78-.96 20.05 6.47 27.23 14.74 33.29 46.18 56.33 78.7 71.63 117.77 76.47 137.03 78.85 157.66 82.21 176.98 79.03 199.29 75.36 220.28 64.37 237.9 50.48 280.84 16.64 292.76-40.17 290.95-91.81 289.84-123.39 280.62-153.43 269.34-182.76 265.11-193.74 261.68-203.87 259.65-215.49 258.51-222.05 259.16-230.29 256.95-236.6 256.88-236.81 256.81-237.01 256.73-237.21 253.1-227.61 248.72-215.56 250.87-205.27 246.16-216 240.18-226.23 235.11-236.75 231.78-228.17 233.52-214.5 233.43-205.11 233.35-196.68 232.12-188.06 232.26-179.67 232.32-175.99 233.84-172.02 232.46-168.72 232.63-168.48 232.53-168.31 232.39-168.27 233.03-167.35 233.69-166.45 234.38-165.55 244.69-152.13 251.72-134.11 253.1-117.06 254.29-102.37 247.36-82.66 230.6-81.91 213.4-81.13 192.79-100.4 193.32-118.07L193.51-118.26C193.13-122.4 196.24-126.02 198.35-130.87 192.01-129.59 186.93-120.23 183.81-114.81 183.81-120.83 184.6-130.52 182.64-135.51 179.36-129.35 174.94-123.73 171.86-117.53 170.99-122.06 171.28-128.81 169.06-132.61 163.81-127.49 161.3-119.36 157.83-112.97 157.17-118.19 153.56-123.18 151.48-127.96 147.24-119.85 146.75-107.07 144-97.87 141.7-90.17 139.46-81.92 136.02-74.64 133.13-68.52 128.65-63.15 125.61-57.13 119.96-58.38 118.36-66.71 115.39-70.77 111-62.6 108.01-53.86 102.4-46.35 103.91-50.96 98.71-58.61 96.18-62.05 91.94-55.98 94.1-47.21 91.27-40.7 89.23-43.31 84.36-48.16 81.03-47.96 80.97-39.13 85.81-30.02 86.03-20.94 86.46-4.22 77.69 7.03 61.92 12.42 47.95 17.2 35.69 16.22 22.39 9.23 13.91 4.78 1.67-5.36-2.68-14.03-2.79-11.31-2.26-8.69-1.58-6.1-1.06-4.06-.45-2.04 0 0" fill="#bbbfc4"/>
<path transform="matrix(1,0,0,-1,587.2971,514.6456)" d="M0 0C-26.02-8.8-60.11-14.21-80.69 3.33-96.62 16.9-100.25 43.1-89.27 60.33-94.87 63.02-104.71 65.76-107.45 71.7-110.83 79.01-101.38 84.03-99.2 89.61V89.68C-102.98 89.53-107.14 89.47-110.12 91.5-108.91 97.07-96.47 116.09-105.42 119.73H-105.6C-115.45 118.18-140.47 114.52-145.17 127.07-154.41 151.71-103.63 181.85-97.7 203.31-95.45 211.44-102.16 213.84-103.35 221.38-104.56 229.12-102.77 231.99-98.87 238.78-93.95 247.34-87.79 254.38-83.61 263.45-77.31 277.12-72.58 295.68-58.92 305.71L-58.81 305.68C-59.49 303.09-60.02 300.47-59.91 297.75-55.56 306.42-43.32 316.56-34.84 321.01-21.54 328-9.28 328.98 4.69 324.2 20.46 318.81 29.23 307.56 28.8 290.84 28.58 281.76 23.74 272.65 23.8 263.82 27.13 263.62 32 268.47 34.04 271.08 36.87 264.57 34.71 255.8 38.95 249.73 41.48 253.17 46.68 260.82 45.17 265.43 50.78 257.92 53.77 249.18 58.16 241.01 61.13 245.07 62.73 253.4 68.38 254.65 71.42 248.63 75.9 243.26 78.79 237.14 82.23 229.86 84.47 221.61 86.77 213.91 89.52 204.71 90.01 191.93 94.25 183.82 96.33 188.6 99.94 193.59 100.6 198.81 104.07 192.42 106.58 184.29 111.83 179.17 114.05 182.97 113.76 189.72 114.63 194.25 117.71 188.05 122.13 182.43 125.41 176.27 127.37 181.26 126.58 190.95 126.58 196.97 129.7 191.55 134.78 182.19 141.12 180.91 139.01 185.76 135.9 189.38 136.28 193.52L136.09 193.71C135.56 211.38 156.17 230.65 173.37 229.87 190.13 229.12 197.06 209.41 195.87 194.72 194.49 177.67 187.46 159.65 177.15 146.23 176.46 145.33 175.8 144.43 175.16 143.51 175.11 143.54 175.06 143.54 175.01 143.52 175.03 143.47 175.06 143.43 175.08 143.38 175.13 143.28 175.18 143.17 175.23 143.06 176.61 139.76 175.09 135.79 175.03 132.11 174.89 123.72 176.12 115.1 176.2 106.67 176.29 97.28 174.55 83.61 177.88 75.03 182.95 85.55 188.93 95.78 193.64 106.51 191.49 96.22 195.87 84.17 199.5 74.57 199.58 74.77 199.65 74.97 199.72 75.18L199.9 75.12C196.35 53.87 192.59 28.42 195.75 8.08 195.8 7.71 195.86 7.34 195.92 6.98H195.95C199.16-3.13 176.89-19.85 170.63-24.7 150.82-40.03 127.44-50.55 103.07-56.17 82.94-60.83 63.41-66.12 42.87-68.75 35.06-69.76 25.91-71.98 19.38-66.62H19.2C19.2-65.6 19.1-64.61 18.98-63.75 18.87-62.86 18.73-62.1 18.65-61.55 18.15-58.29 17.86-55.19 16.96-51.97 15.72-47.5 14.08-43.38 10.59-40.14 8.1-37.82 3.63-36.78 1.77-33.92-1.15-29.43 1.44-26.5 2.26-21.69 3.53-14.27 1.83-7.16 0 0M3.97 201.33C3.52 201.54 2.24 202.09 1.59 202.37-.08 203.09-1.5 203.79-3.02 204.81-13.1 211.52-25.89 212.16-37.7 210.18-38.86 209.98-40.01 209.76-41.14 209.52-52.19 207.18-61.67 204.08-68.07 192.34L-68.15 192.39C-68.24 192.31-68.32 192.23-68.41 192.12-70.79 189.28-73.11 176.24-67.39 176.68-64.85 176.88-59.49 186.18-58.36 188.06L-58.28 188.42C-52.96 187.18-47.27 186.74-42.3 186.5-39.12 186.35-35.75 186.69-32.47 187.41-29.49 188.05-26.58 188.99-23.94 190.13-18.48 192.49-12.94 194.55-7.63 197.3-3.96 199.21-.18 200.82 3.95 201.24ZM158.99 138.32 159.81 138.37C169.5 154.28 184.77 181.67 177.33 201.2 173.95 210.04 163.68 208.31 157.36 202.07 153 197.77 152.4 190.3 150.58 184.66 149.02 179.81 144.34 174.16 144 169.43 161.71 169.45 146.56 145.57 143.92 138.5 145.5 142.39 150.69 144.62 154.64 143.05 156.22 142.43 158.13 139.85 158.99 138.32" fill="#96672f"/>
<path transform="matrix(1,0,0,-1,764.6271,313.44557)" d="M0 0C7.44-19.53-7.83-46.92-17.52-62.83L-18.34-62.88C-19.2-61.35-21.11-58.77-22.69-58.15-26.64-56.58-31.83-58.81-33.41-62.7-30.77-55.63-15.62-31.75-33.33-31.77-32.99-27.04-28.31-21.39-26.75-16.54-24.93-10.9-24.33-3.43-19.97 .87-13.65 7.11-3.38 8.84 0 0" fill="#96672f"/>
<path transform="matrix(1,0,0,-1,578.2471,1006.0156)" d="M0 0C-10.17 6.4-19.37 2.06-30.77 3.2L-31.05 3.21C-30.75 9.97-29.72 16.64-29.22 23.31-17.88 30.07 2.93 22.11 9.38 11.97 12.19 7.55 16.39-4.14 13.56-14.03L13.24-14.24C10.29-9.66 7.02-5.27 2.2-1.53 1.46-.96 .73-.44 0 0" fill="#7eb2de"/>
<path transform="matrix(1,0,0,-1,565.847,315.1156)" d="M0 0C1.67 .83 1.55 3.43-.02 3.9L-.01 3.97C-4.07 5.42-3.41-1.72 0 0M25.42 1.8 25.4 1.71C21.27 1.29 17.49-.32 13.82-2.23 8.51-4.98 2.97-7.04-2.49-9.4-5.13-10.54-8.04-11.48-11.02-12.12L-11.12-11.66C-18.54-9.81-23.91 5.33-16.2 10.37L-16.25 10.65C-4.44 12.63 8.35 11.99 18.43 5.28 19.95 4.26 21.37 3.56 23.04 2.84 23.69 2.56 24.97 2.01 25.42 1.8" fill="#712d06"/>
<path transform="matrix(1,0,0,-1,519.2271,322.30555)" d="M0 0C6.4 11.74 15.88 14.84 26.93 17.18 28.06 17.42 29.21 17.64 30.37 17.84L30.42 17.56C22.71 12.52 28.08-2.62 35.5-4.47L35.6-4.93C32.32-5.65 28.95-5.99 25.77-5.84 20.8-5.6 15.11-5.16 9.79-3.92 6.31-3.13 2.99-1.98 .11-.33L-.34-.22C-.25-.11-.17-.03-.08 .05Z" fill="#ffffff"/>
<path transform="matrix(1,0,0,-1,549.0271,982.70559)" d="M0 0C-.5-6.67-1.53-13.34-1.83-20.1-1.85-20.36-1.86-20.61-1.87-20.87-2.12-27.56-1.83-34.34-1.83-41.04V-58.23L-2.37-58.25C-2.23-67.18-14.67-79.74-23.29-78.56L-23.85-79.12C-30.05-79.36-35.97-81.42-42.21-81.27-48.01-81.13-53.7-80.2-59.56-80.26-70.38-80.37-81.82-82.91-92.53-80.85-99.24-79.56-103.86-76.18-109.11-72.19-116.92-66.25-125.92-61.65-133.4-55.41L-133.65-55.08C-133.96-55.08-133.88-53.42-134-51.89-134.16-49.88-133.97-47.75-133.97-45.74-133.95-37.78-134.23-29.79-134-21.83-133.95-20.19-133.89-18.57-133.8-16.95-133.2-5.62-131.66 5.38-128.89 16.31L-128.66 16.3C-128.95 14.88-128.87 13.29-128.32 11.51-126.59 5.89-119.76 1.4-115-1.2-114.57-1.43-114.14-1.66-113.71-1.89-100.89-8.59-87.97-10.89-73.31-10.85-57.18-10.81-40.12-7.64-24.9-2.18-22.87-1.45-20.63-.73-18.34 .1-11.65 2.49-4.64 5.65-1.79 11.84-.86 13.85-.64 15.7-.93 17.4L-.7 17.44C.47 11.59 .43 5.79 0 0" fill="#7eb2de"/>
<path transform="matrix(1,0,0,-1,507.3771,948.3655)" d="M0 0C3.62-.61 7.32-.8 11-1.05 17.47-1.49 23.9-2.12 29.83-5.54 34.77-8.39 39.88-12.06 40.72-16.94 41.01-18.64 40.79-20.49 39.86-22.5 37.01-28.69 30-31.85 23.31-34.24L23.16-33.84C19.35-27.36 .9-27.57-5.03-28.51-18.48-30.63-23.63-32.52-37.16-29.14-48.18-26.38-64.13-25.39-71.71-35.54L-72.06-36.23C-72.49-36-72.92-35.77-73.35-35.54-78.11-32.94-84.94-28.45-86.67-22.83-87.22-21.05-87.3-19.46-87.01-18.04-85.43-10.15-72.56-7.37-65.22-5.32-41.34 1.36-24.56 4.38 .01 .04Z" fill="#126de2"/>
<path transform="matrix(1,0,0,-1,530.537,982.20559)" d="M0 0 .15-.4C-2.14-1.23-4.38-1.95-6.41-2.68-21.63-8.14-38.69-11.31-54.82-11.35-69.48-11.39-82.4-9.09-95.22-2.39L-94.87-1.7C-87.29 8.45-71.34 7.46-60.32 4.7-46.79 1.32-41.64 3.21-28.19 5.33-22.26 6.27-3.81 6.48 0 0" fill="#712d06"/>
<path transform="matrix(1,0,0,-1,529.0171,326.2256)" d="M0 0-.08-.36C-1.21-2.24-6.57-11.54-9.11-11.74-14.83-12.18-12.51 .86-10.13 3.7L-9.68 3.59C-6.8 1.94-3.48 .79 0 0" fill="#eb996a"/>
<path transform="matrix(1,0,0,-1,483.1471,883.1855)" d="M0 0C2.65-8.76 9.23-8.31 .88-17.67-5.44-24.77-10-27.52-12.21-34.42-16.07-18.24-1.02-5.56-24.12 1.38-52.2 9.82-18.7 26.29-21.28 42.6-25.01 66.23-66.07 63.41-43.14 92.19-34.9 102.54-22.38 115.37-35.45 127.88-43.65 135.74-59.36 133.23-66.7 142.52-77.02 155.57-57.34 161.02-49.21 167.64-41.21 174.15-38.89 179.03-38.7 188.9-38.52 198.37-39.69 200.81-28.94 203.1 19.35 213.37 19.43 148.8 .44 121-4.41 113.91-17.95 101.76-17.83 92.38-17.71 83.16-4.29 75.26 .57 67.99 7.7 57.34 8.34 50.46-.49 41.3-8.01 33.51-13.57 32.03-6.85 22.13-4.47 18.62-1.19 16.29 .07 11.94 1.25 7.91-1.08 3.56 0 0" fill="#bbbfc4"/>
<path transform="matrix(1,0,0,-1,408.8371,994.4355)" d="M0 0C.03 0 .04-.04 .04-.14-.87-4.31-1.47-8.46-3.28-12.53-4.57-15.43-6.17-19.81-8.8-21.81-12.47-24.58-15.68-21.48-19.57-21.65L-19.63-21.61C-17.37-18-15.84-14.15-13.83-10.07-11.86-6.11-9.39-1.91-5.11-.16-3.79 .38-1.86 .53 .04 .22Z" fill="#eb996a"/>
</g>
</g>
<path transform="matrix(1,0,0,-1,528.3771,208.93555)" stroke-width="1.7" stroke-linecap="round" stroke-linejoin="round" fill="none" stroke="#000000" d="M0 0C-13.66-10.03-18.39-28.59-24.69-42.26-28.87-51.33-35.03-58.37-39.95-66.93-43.85-73.72-45.64-76.59-44.43-84.33-43.24-91.87-36.53-94.27-38.78-102.4-44.71-123.86-95.49-154-86.25-178.64-81.55-191.19-56.53-187.53-46.68-185.98-62.5-182.03-62.42-175.55-47.81-171.3-42.02-169.61-31.56-168.5-26.35-171.3-21.09-174.12-20.71-178.95-26.92-183.72-14.47-186.01-.94-172.43-11.77-156.61-18.65-146.56-31.22-154.42-41.6-153.23"/>
<path transform="matrix(1,0,0,-1,481.8771,394.91554)" stroke-width="1.7" stroke-linecap="round" stroke-linejoin="round" fill="none" stroke="#000000" d="M0 0C8.95-3.64-3.49-22.66-4.7-28.23"/>
<path transform="matrix(1,0,0,-1,477.1771,423.14564)" stroke-width="1.7" stroke-linecap="round" stroke-linejoin="round" fill="none" stroke="#000000" d="M0 0C2.98-2.03 7.14-1.97 10.92-1.82 11.99-1.77 13.04-1.72 14.02-1.71 20.12-1.63 25.44-3.1 31.53-3.97 45.98-6.05 54.11 .86 66.07 6.77"/>
<path transform="matrix(1,0,0,-1,488.0971,425.03559)" stroke-width="1.7" stroke-linecap="round" stroke-linejoin="round" fill="none" stroke="#000000" d="M0 0C-2.18-5.58-11.63-10.6-8.25-17.91-5.51-23.85 4.33-26.59 9.93-29.28-1.05-46.51 2.58-72.71 18.51-86.28 39.09-103.82 73.18-98.41 99.2-89.61 103.68-88.09 107.93-86.48 111.82-84.86 125.61-79.14 139.88-74.78 153.52-68.7 168.49-62.03 185.19-57.51 199.15-48.94"/>
<path transform="matrix(1,0,0,-1,687.2471,473.97554)" stroke-width="1.7" stroke-linecap="round" stroke-linejoin="round" fill="none" stroke="#000000" d="M0 0C4.03 5.35 9.04 7.2 12.2 14.25 15.06 20.6 18.75 28.75 19.76 35.58"/>
<path transform="matrix(1,0,0,-1,723.3871,320.93556)" stroke-width="1.7" stroke-linecap="round" stroke-linejoin="round" fill="none" stroke="#000000" d="M0 0C-.53 17.67 20.08 36.94 37.28 36.16 54.04 35.41 60.97 15.7 59.78 1.01 58.4-16.04 51.37-34.06 41.06-47.48 40.37-48.38 39.71-49.28 39.07-50.2 39.04-50.24 39-50.29 38.99-50.33 32.72-59.32 28.64-69.13 22.88-78.45 16.41-88.89 5.69-92.2-2.26-81.88"/>
<path transform="matrix(1,0,0,-1,731.2971,345.21559)" stroke-width="1.7" stroke-linecap="round" stroke-linejoin="round" fill="none" stroke="#000000" d="M0 0C17.71 .02 2.56-23.86-.08-30.93 1.5-27.04 6.69-24.81 10.64-26.38 12.22-27 14.13-29.58 14.99-31.11 15.45-31.93 15.61-32.45 15.24-32.19"/>
<path transform="matrix(1,0,0,-1,731.2971,345.21559)" stroke-width="1.7" stroke-linecap="round" stroke-linejoin="round" fill="none" stroke="#000000" d="M0 0C.34 4.73 5.02 10.38 6.58 15.23 8.4 20.87 9 28.34 13.36 32.64 19.68 38.88 29.95 40.61 33.33 31.77 40.77 12.24 25.5-15.15 15.81-31.06"/>
<path transform="matrix(1,0,0,-1,530.2571,201.97559)" stroke-width="1.7" stroke-linecap="round" stroke-linejoin="round" fill="none" stroke="#000000" d="M0 0C-.06-.3-.12-.59-.19-.89-.64-2.93-1.25-4.95-1.77-6.99-2.45-9.58-2.98-12.2-2.87-14.92 1.48-6.25 13.72 3.89 22.2 8.34 35.5 15.33 47.76 16.31 61.73 11.53 77.5 6.14 86.27-5.11 85.84-21.83 85.62-30.91 80.78-40.02 80.84-48.85 84.17-49.05 89.04-44.2 91.08-41.59 93.91-48.1 91.75-56.87 95.99-62.94 98.52-59.5 103.72-51.85 102.21-47.24"/>
<path transform="matrix(1,0,0,-1,632.4671,249.21558)" stroke-width="1.7" stroke-linecap="round" stroke-linejoin="round" fill="none" stroke="#000000" d="M0 0C5.61-7.51 8.6-16.25 12.99-24.42 15.96-20.36 17.56-12.03 23.21-10.78 26.25-16.8 30.73-22.17 33.62-28.29 37.06-35.57 39.3-43.82 41.6-51.52 44.35-60.72 44.84-73.5 49.08-81.61 51.16-76.83 54.77-71.84 55.43-66.62 58.9-73.01 61.41-81.14 66.66-86.26 68.88-82.46 68.59-75.71 69.46-71.18 72.54-77.38 76.96-83 80.24-89.16 82.2-84.17 81.41-74.48 81.41-68.46 84.53-73.88 89.61-83.24 95.95-84.52 93.84-79.67 90.73-76.05 91.11-71.91"/>
<path transform="matrix(1,0,0,-1,530.2571,201.78553)" stroke-width="1.7" stroke-linecap="round" stroke-linejoin="round" fill="none" stroke="#000000" d="M0 0H-.19C-5.39 .05-13.04-3.67-17.43-6.61-16.74-.12-10.6 5.42-6.92 10.7-1.15 18.97 6.28 26.15 14.55 32.21 45.99 55.25 78.51 70.55 117.58 75.39 136.84 77.77 157.47 81.13 176.79 77.95 199.1 74.28 220.09 63.29 237.71 49.4 280.65 15.56 292.57-41.25 290.76-92.89 289.65-124.47 280.43-154.51 269.15-183.84 264.92-194.82 261.49-204.95 259.46-216.57 258.32-223.13 258.97-231.37 256.76-237.68 256.69-237.89 256.62-238.09 256.54-238.29 252.91-228.69 248.53-216.64 250.68-206.35 245.97-217.08 239.99-227.31 234.92-237.83 231.59-229.25 233.33-215.58 233.24-206.19 233.16-197.76 231.93-189.14 232.07-180.75 232.13-177.07 233.65-173.1 232.27-169.8 232.22-169.69 232.17-169.58 232.12-169.48 232.1-169.43 232.07-169.39 232.05-169.34 232.1-169.32 232.15-169.32 232.2-169.35 232.34-169.39 232.44-169.56 232.27-169.8 232.23-169.86 232.17-169.92 232.09-169.98"/>
<path transform="matrix(1,0,0,-1,787.1971,439.52558)" stroke-width="1.7" stroke-linecap="round" stroke-linejoin="round" fill="none" stroke="#000000" d="M0 0C-3.55-21.25-7.31-46.7-4.15-67.04-4.1-67.41-4.04-67.78-3.98-68.14-3.97-68.2-3.96-68.27-3.95-68.33"/>
<path transform="matrix(1,0,0,-1,587.2971,514.6356)" stroke-width="1.7" stroke-linecap="round" stroke-linejoin="round" fill="none" stroke="#000000" d="M0 0V-.01C1.83-7.17 3.53-14.28 2.26-21.7 1.44-26.51-1.15-29.44 1.77-33.93 3.63-36.79 8.1-37.83 10.59-40.15 14.08-43.39 15.72-47.51 16.96-51.98 17.86-55.2 18.15-58.3 18.65-61.56 18.73-62.11 18.87-62.87 18.98-63.76 19.1-64.62 19.2-65.61 19.2-66.63"/>
<path transform="matrix(1,0,0,-1,783.2471,507.66554)" stroke-width="1.7" stroke-linecap="round" stroke-linejoin="round" fill="none" stroke="#000000" d="M0 0C3.21-10.11-19.06-26.83-25.32-31.68-45.13-47.01-68.51-57.53-92.88-63.15-113.01-67.81-132.54-73.1-153.08-75.73-160.89-76.74-170.04-78.96-176.57-73.6"/>
<path transform="matrix(1,0,0,-1,783.2471,506.53559)" stroke-width="1.7" stroke-linecap="round" stroke-linejoin="round" fill="none" stroke="#000000" d="M0 0C3.76 5.59 9.59 3.57 13.62-.29 16.61-3.16 19.32-6.99 21.78-10.26 23.09-12 23.72-14.31 25.41-15.44"/>
<path transform="matrix(1,0,0,-1,605.9271,578.4456)" stroke-width="1.7" stroke-linecap="round" stroke-linejoin="round" fill="none" stroke="#000000" d="M0 0C-8.26 2.97-11.98-20.58-12.95-24.85-12.96-24.92-12.98-24.97-12.99-25.03"/>
<path transform="matrix(1,0,0,-1,808.6571,521.9755)" stroke-width="1.7" stroke-linecap="round" stroke-linejoin="round" fill="none" stroke="#000000" d="M0 0C10.94-5.27 26.09-5.06 38-7.34 49.46-9.53 60.84-11.85 72.27-14.12 88.51-17.33 103.38-24.35 118.24-31.46 142.65-43.12 163.94-55.58 183.31-74.93 228.94-120.5 251.54-184.11 278.64-241.4 286.28-257.56 293.25-273.12 298.18-290.28 300.63-298.82 304.85-308.45 306.04-317.14 306.05-317.21 306.06-317.29 306.07-317.36"/>
<path transform="matrix(1,0,0,-1,1115.107,839.5256)" stroke-width="1.7" stroke-linecap="round" stroke-linejoin="round" fill="none" stroke="#000000" d="M0 0C-.14 .14-.27 .28-.41 .41-7.99 7.99-18.02 8.71-27.94 6.35-35.61 4.54-43.22 .88-49.57-2.87-61.42-9.86-73.25-16.71-87.27-18.03-100.47-19.26-113.59-16.13-126.79-16.8-141.01-17.52-153.28-21.11-163.45-31.39-174.2-42.26-179.61-53.64-195.05-58.47-200.88-60.3-206.49-61.51-211.71-63.7-215.68-65.37-219.43-67.6-222.86-71.11-227.3-75.64-228.57-81.53-232.47-86.21"/>
<path transform="matrix(1,0,0,-1,792.847,694.2056)" stroke-width="1.7" stroke-linecap="round" stroke-linejoin="round" fill="none" stroke="#000000" d="M0 0C-.31-24.28 7.27-51.78 16.93-73.93 24.07-90.27 34.45-104.58 43.48-119.82 52.72-135.39 56.1-148.41 57.67-166.03 59.89-190.84 83.44-210.11 89.79-231.53"/>
<path transform="matrix(1,0,0,-1,592.9371,603.2856)" stroke-width="1.7" stroke-linecap="round" stroke-linejoin="round" fill="none" stroke="#000000" d="M0 0C-1.02-5.91-9.4-10.71-13.55-14.58-20.91-21.44-28.15-27.09-36.99-31.64-57.23-42.04-67.42-57.91-75.54-78.61-87-107.82-82.55-150.62-71.53-179.77"/>
<path transform="matrix(1,0,0,-1,549.4571,686.8655)" stroke-width="1.7" stroke-linecap="round" stroke-linejoin="round" fill="none" stroke="#000000" d="M0 0C-4.64-13.85-6.31-29.12-10.15-43.29-14.2-58.21-18.87-73.73-24.72-88.03-25.82-90.72-26.84-93.48-27.76-96.29-33.38-113.26-35.73-132.13-33.36-149.73-30.19-173.27-25.43-196.78-27.69-220.52-28.57-229.81-29.69-239.07-30.51-248.37-30.93-253.16-33.81-258.16-31.06-262.31"/>
<path transform="matrix(1,0,0,-1,547.4771,1002.8156)" stroke-width="1.7" stroke-linecap="round" stroke-linejoin="round" fill="none" stroke="#000000" d="M0 0C11.4-1.14 20.6 3.2 30.77-3.2 31.5-3.64 32.23-4.16 32.97-4.73 37.79-8.47 41.06-12.86 44.01-17.44 47.11-22.22 49.89-27.22 53.79-31.92 60.81-40.36 68.1-46.83 77.81-52.13 90.33-58.95 102.45-68.98 117.18-68.61"/>
<path transform="matrix(1,0,0,-1,903.5271,903.5255)" stroke-width="1.7" stroke-linecap="round" stroke-linejoin="round" fill="none" stroke="#000000" d="M0 0C1.13-2.26 4.05-7.61 4.52-9.24 7.03-17.88 10.34-26.51 13.99-34.71 20.01-48.24 26.48-61.35 33.65-74.29 37.37-81.01 41.83-88.95 47.24-94.29 47.31-94.36 47.37-94.43 47.44-94.49"/>
<path transform="matrix(1,0,0,-1,1087.2471,833.5056)" stroke-width="1.7" stroke-linecap="round" stroke-linejoin="round" fill="none" stroke="#000000" d="M0 0C3.87-12.12 11.57-24.98 14.97-37.35 18.14-48.91 20.23-61.15 21.83-72.99 26.34-106.38 34.04-139.15 37.08-172.76 39.86-203.51 41.63-233.18 35.92-263.14 45.37-255.42 53.14-270.15 48.44-278.37 43.87-286.36 25.05-293.37 21.93-280.68 21.89-280.55 21.86-280.42 21.83-280.28"/>
<path transform="matrix(1,0,0,-1,996.1371,996.32559)" stroke-width="1.7" stroke-linecap="round" stroke-linejoin="round" fill="none" stroke="#000000" d="M0 0C-10.9 3.03-26.12 2.19-37.31 .03-39.99-.49-42.68-1-45.37-1.49-61.16-4.44-77.01-7.18-92.65-10.73-129.9-19.18-166.35-28.1-202.78-39.69-232.84-49.26-261.7-61.85-292.5-69.19-299.11-70.76-322.73-75.39-331.48-75.1"/>
<path transform="matrix(1,0,0,-1,1108.5171,1114.3456)" stroke-width="1.7" stroke-linecap="round" stroke-linejoin="round" fill="none" stroke="#000000" d="M0 0C-8.36-.2-19.16-9.41-27.65-12-48.38-18.33-69.44-23.95-90.42-29.35-114.99-35.68-139.95-40.38-164.61-46.33-195.88-53.87-227.28-62.55-259.23-66.72-282.67-69.77-305.17-68.5-328.6-68.29-354.15-68.06-379.9-69.5-405.41-67.82-416.44-67.09-427.34-64.95-438.37-64.45-448.27-64-458.19-64.86-468.08-64.14-475.37-63.6-485.33-59.52-492.42-61.55"/>
<path transform="matrix(1,0,0,-1,548.3271,965.2656)" stroke-width="1.7" stroke-linecap="round" stroke-linejoin="round" fill="none" stroke="#000000" d="M0 0C1.17-5.85 1.13-11.65 .7-17.44 .2-24.11-.83-30.78-1.13-37.54-1.15-37.8-1.16-38.05-1.17-38.31-1.42-45-1.13-51.78-1.13-58.48V-75.67"/>
<path transform="matrix(1,0,0,-1,548.8971,982.7755)" stroke-width="1.7" stroke-linecap="round" stroke-linejoin="round" fill="none" stroke="#000000" d="M0 0C.04 .03 .09 .05 .13 .07 11.47 6.83 32.28-1.13 38.73-11.27 41.54-15.69 45.74-27.38 42.91-37.27"/>
<path transform="matrix(1,0,0,-1,507.3871,948.32559)" stroke-width="1.7" stroke-linecap="round" stroke-linejoin="round" fill="none" stroke="#000000" d="M0 0C-24.57 4.34-41.35 1.32-65.23-5.36-72.57-7.41-85.44-10.19-87.02-18.08-87.31-19.5-87.23-21.09-86.68-22.87-84.95-28.49-78.12-32.98-73.36-35.58-72.93-35.81-72.5-36.04-72.07-36.27-59.25-42.97-46.33-45.27-31.67-45.23-15.54-45.19 1.52-42.02 16.74-36.56 18.77-35.83 21.01-35.11 23.3-34.28 29.99-31.89 37-28.73 39.85-22.54 40.78-20.53 41-18.68 40.71-16.98 39.87-12.1 34.76-8.43 29.82-5.58 23.89-2.16 17.46-1.53 10.99-1.09 7.31-.84 3.61-.65-.01-.04-.1-.03-.19-.02-.28 0"/>
<path transform="matrix(1,0,0,-1,420.1371,966.3956)" stroke-width="1.7" stroke-linecap="round" stroke-linejoin="round" fill="none" stroke="#000000" d="M0 0C-2.77-10.93-4.31-21.93-4.91-33.26-5-34.88-5.06-36.5-5.11-38.14-5.34-46.1-5.06-54.09-5.08-62.05-5.08-64.06-5.27-66.19-5.11-68.2-4.99-69.73-5.07-71.39-4.76-71.39-4.7-71.39-4.61-71.32-4.51-71.15"/>
<path transform="matrix(1,0,0,-1,415.0571,1000.2755)" stroke-width="1.7" stroke-linecap="round" stroke-linejoin="round" fill="none" stroke="#000000" d="M0 0C.02 .21 .03 .42 .03 .62 0 3.84-3.04 5.57-6.18 6.06-8.08 6.37-10.01 6.22-11.33 5.68-15.61 3.93-18.08-.27-20.05-4.23-22.06-8.31-23.59-12.16-25.85-15.77-26.78-17.26-27.84-18.71-29.1-20.12-32.58-24-36.51-28.65-38.13-33.86-38.5-35.03-38.75-36.23-38.85-37.46-39.03-39.61-38.87-42.02-38.44-44.55-38.04-46.93-37.4-49.41-36.57-51.89-33.92-59.81-29.32-67.68-24.33-71.84-15.41-79.3-5.86-84.44 1.78-93.53 6.08-98.64 9.11-104.43 14.83-108.11 21.5-112.4 31.12-114.54 38.97-114.59 45.06-114.63 56.91-112.86 60.99-115.77"/>
<path transform="matrix(1,0,0,-1,415.6271,1038.1155)" stroke-width="1.7" stroke-linecap="round" stroke-linejoin="round" fill="none" stroke="#000000" d="M0 0C7.48-6.24 16.48-10.84 24.29-16.78 29.54-20.77 34.16-24.15 40.87-25.44 51.58-27.5 63.02-24.96 73.84-24.85 79.7-24.79 85.39-25.72 91.19-25.86 97.43-26.01 103.35-23.95 109.55-23.71"/>
<path transform="matrix(1,0,0,-1,525.7371,1061.2656)" stroke-width="1.7" stroke-linecap="round" stroke-linejoin="round" fill="none" stroke="#000000" d="M0 0C8.62-1.18 21.06 11.38 20.92 20.31 20.93 20.5 20.92 20.7 20.9 20.89"/>
<path transform="matrix(1,0,0,-1,378.6371,1051.9456)" stroke-width="1.7" stroke-linecap="round" stroke-linejoin="round" fill="none" stroke="#000000" d="M0 0C-.05-.07-.1-.14-.15-.22-3.4-4.99-3.72-12.15-3.02-19.47-2.51-24.79-1.47-30.2-.62-34.85-.26-36.81 .07-38.64 .3-40.27 2.82-57.83 18.83-59.59 31.49-68.47 42.43-76.16 50.1-84.14 63.38-88.42 69.32-90.34 76.65-90.73 82.87-90.1 88.2-89.56 95.87-87.07 100.23-89.51"/>
<path transform="matrix(1,0,0,-1,375.5271,1071.4255)" stroke-width="1.7" stroke-linecap="round" stroke-linejoin="round" fill="none" stroke="#000000" d="M0 0C-3.35-4.56-5.09-15.33-5.12-20.82-5.15-28.67-3.35-36.92-2.68-44.82-2.5-46.99-2.13-48.91-1.59-50.63-.44-54.33 1.48-57.09 3.95-59.3 9.18-63.95 16.89-66.15 25.16-69.56 31.07-72 36.2-75.49 41.23-79.04 48.36-84.09 55.31-89.27 64.08-91.77 72.24-94.11 81.17-94.88 89.65-94.2 95.02-93.76 103.69-91.41 108.42-93.75"/>
<path transform="matrix(1,0,0,-1,379.4771,1130.7256)" stroke-width="1.7" stroke-linecap="round" stroke-linejoin="round" fill="none" stroke="#000000" d="M0 0C3.2-7.45 4.95-18.3 10.17-24.58 10.24-24.68 10.32-24.77 10.4-24.86 11.82-26.51 13.57-27.68 15.46-28.61 18.47-30.1 21.85-30.98 24.91-32.21 31.77-34.98 36.8-38.74 42.2-43.62 44.36-45.56 46.6-47.41 48.94-49.11 55.24-53.69 62.23-57.21 70-58.6 76.57-59.78 83.37-61.69 90.05-61.84 95.93-61.98 101.42-59.48 107.3-59.86"/>
<path transform="matrix(1,0,0,-1,486.7771,1190.5856)" stroke-width="1.7" stroke-linecap="round" stroke-linejoin="round" fill="none" stroke="#000000" d="M0 0C30.88-.06 63.3-6.38 94.1-2.78 109.27-1 117.56 6.06 129.32 14.69"/>
<path transform="matrix(1,0,0,-1,470.9371,917.6056)" stroke-width="1.7" stroke-linecap="round" stroke-linejoin="round" fill="none" stroke="#000000" d="M0 0C-.2-.6-.38-1.24-.54-1.92"/>
<path transform="matrix(1,0,0,-1,470.9371,917.6056)" stroke-width="1.7" stroke-linecap="round" stroke-linejoin="round" fill="none" stroke="#000000" d="M0 0C-3.86 16.18 11.19 28.86-11.91 35.8-39.99 44.24-6.49 60.71-9.07 77.02-12.8 100.65-53.86 97.83-30.93 126.61-22.69 136.96-10.17 149.79-23.24 162.3-31.44 170.16-47.15 167.65-54.49 176.94-64.81 189.99-45.13 195.44-37 202.06-29 208.57-26.68 213.45-26.49 223.32-26.31 232.79-27.48 235.23-16.73 237.52 31.56 247.79 31.64 183.22 12.65 155.42 7.8 148.33-5.74 136.18-5.62 126.8-5.5 117.58 7.92 109.68 12.78 102.41 19.91 91.76 20.55 84.88 11.72 75.72 4.2 67.93-1.36 66.45 5.36 56.55 7.74 53.04 11.02 50.71 12.28 46.36 13.46 42.33 11.13 37.98 12.21 34.42 14.86 25.66 21.44 26.11 13.09 16.75 6.77 9.65 2.21 6.9 0 0Z"/>
<path transform="matrix(1,0,0,-1,472.0971,921.2155)" stroke-width="1.7" stroke-linecap="round" stroke-linejoin="round" fill="none" stroke="#000000" d="M0 0C-.5 1.22-.89 2.42-1.16 3.61"/>
<path transform="matrix(1,0,0,-1,946.4471,584.0856)" stroke-width="1.7" stroke-linecap="round" stroke-linejoin="round" fill="none" stroke="#000000" d="M0 0C-6.69 8.44-20.97 14.81-31.38 13.7-47.8 11.95-49.74 .25-59.71-10.14-69.44-20.29-81.27-17.06-92.95-22.24-105.09-27.62-128.13-42.11-126.21-57.6"/>
<path transform="matrix(1,0,0,-1,610.1671,893.2656)" stroke-width="1.7" stroke-linecap="round" stroke-linejoin="round" fill="none" stroke="#000000" d="M0 0C8.8-20.3 12.12-44.15 28.8-60.14"/>
<path transform="matrix(1,0,0,-1,614.3971,836.5156)" stroke-width="1.7" stroke-linecap="round" stroke-linejoin="round" fill="none" stroke="#000000" d="M0 0C5.49-27.32 18.34-52.94 26.26-79.62"/>
<path transform="matrix(1,0,0,-1,435.6671,983.9055)" stroke-width="1.7" stroke-linecap="round" stroke-linejoin="round" fill="none" stroke="#000000" d="M0 0C7.58 10.15 23.53 9.16 34.55 6.4 48.08 3.02 53.23 4.91 66.68 7.03 72.61 7.97 91.06 8.18 94.87 1.7"/>
<path transform="matrix(1,0,0,-1,389.2671,1016.0855)" stroke-width="1.7" stroke-linecap="round" stroke-linejoin="round" fill="none" stroke="#000000" d="M0 0C3.89 .17 7.1-2.93 10.77-.16 13.4 1.84 15 6.22 16.29 9.12 18.1 13.19 18.7 17.34 19.61 21.51 19.61 21.61 19.6 21.65 19.57 21.65 19.5 21.65 19.31 21.23 19.2 21.08"/>
<path transform="matrix(1,0,0,-1,376.4671,1045.0756)" stroke-width="1.7" stroke-linecap="round" stroke-linejoin="round" fill="none" stroke="#000000" d="M0 0C.05 .09 .1 .17 .15 .25 3.25 5.52 8.57 7.03 13.93 8.28"/>
<path transform="matrix(1,0,0,-1,376.4671,1034.5357)" stroke-width="1.7" stroke-linecap="round" stroke-linejoin="round" fill="none" stroke="#000000" d="M0 0C.15 .13 .31 .27 .46 .4 2.97 2.56 6 4.63 9.41 4.52"/>
<path transform="matrix(1,0,0,-1,415.2471,1091.7556)" stroke-width="1.7" stroke-linecap="round" stroke-linejoin="round" fill="none" stroke="#000000" d="M0 0C1.94 7.68 5.58 12.74 11.67 17.69"/>
<path transform="matrix(1,0,0,-1,422.3971,1100.7957)" stroke-width="1.7" stroke-linecap="round" stroke-linejoin="round" fill="none" stroke="#000000" d="M0 0C1.49 5.64 5.04 13.01 9.79 16.57"/>
<path transform="matrix(1,0,0,-1,377.9771,1086.8655)" stroke-width="1.7" stroke-linecap="round" stroke-linejoin="round" fill="none" stroke="#000000" d="M0 0C.01 .02 .03 .05 .04 .07 2.22 3.69 4.94 6.44 7.9 9.41"/>
<path transform="matrix(1,0,0,-1,376.8471,1077.0756)" stroke-width="1.7" stroke-linecap="round" stroke-linejoin="round" fill="none" stroke="#000000" d="M0 0C1.25 2.97 4.2 6.03 7.53 6.4"/>
<path transform="matrix(1,0,0,-1,414.8671,1123.3856)" stroke-width="1.7" stroke-linecap="round" stroke-linejoin="round" fill="none" stroke="#000000" d="M0 0C-.3 4.08 1.22 6.88 2.64 10.54"/>
<path transform="matrix(1,0,0,-1,424.6571,1130.9155)" stroke-width="1.7" stroke-linecap="round" stroke-linejoin="round" fill="none" stroke="#000000" d="M0 0C-1.51 4.33 1.06 11.31 3.77 14.69"/>
<path transform="matrix(1,0,0,-1,416.7571,1150.4856)" stroke-width="1.7" stroke-linecap="round" stroke-linejoin="round" fill="none" stroke="#000000" d="M0 0V.02C-.08 3.79-.2 7.78 2.25 10.91"/>
<path transform="matrix(1,0,0,-1,423.9071,1155.3856)" stroke-width="1.7" stroke-linecap="round" stroke-linejoin="round" fill="none" stroke="#000000" d="M0 0C-.11 5.45 .91 10.42 3.01 15.44"/>
<path transform="matrix(1,0,0,-1,378.7271,1129.7857)" stroke-width="1.7" stroke-linecap="round" stroke-linejoin="round" fill="none" stroke="#000000" d="M0 0C-.26 5.12 4.8 11.63 8.66 14.68"/>
<path transform="matrix(1,0,0,-1,373.8371,1122.2556)" stroke-width="1.7" stroke-linecap="round" stroke-linejoin="round" fill="none" stroke="#000000" d="M0 0C.03 .07 .07 .14 .1 .2 2.21 4.24 4.57 7.52 8.66 9.79"/>
<path transform="matrix(1,0,0,-1,428.7971,1168.5557)" stroke-width="1.7" stroke-linecap="round" stroke-linejoin="round" fill="none" stroke="#000000" d="M0 0C-1.23-2.75-2.12-8.54-.38-11.28-.38-11.29-.37-11.29-.37-11.3"/>
<path transform="matrix(1,0,0,-1,433.6971,1168.5557)" stroke-width="1.7" stroke-linecap="round" stroke-linejoin="round" fill="none" stroke="#000000" d="M0 0C-.76-3.81-.98-11.43 1.13-15.06"/>
<path transform="matrix(1,0,0,-1,394.9171,1159.5256)" stroke-width="1.7" stroke-linecap="round" stroke-linejoin="round" fill="none" stroke="#000000" d="M0 0C0 .06 .01 .13 .02 .19 .31 4.6 1.7 9.7 4.52 13.18"/>
<path transform="matrix(1,0,0,-1,389.6471,1155.3856)" stroke-width="1.7" stroke-linecap="round" stroke-linejoin="round" fill="none" stroke="#000000" d="M0 0V.08C-.1 4.59 .79 8.05 4.14 11.3"/>
<path transform="matrix(1,0,0,-1,500.3271,1116.9856)" stroke-width="1.7" stroke-linecap="round" stroke-linejoin="round" fill="none" stroke="#000000" d="M0 0C4.22-5.48 12.03-3.68 15.44 1.88"/>
<path transform="matrix(1,0,0,-1,504.4671,1142.2056)" stroke-width="1.7" stroke-linecap="round" stroke-linejoin="round" fill="none" stroke="#000000" d="M0 0C5.05-3.58 8.07-2.64 12.8 .38"/>
<path transform="matrix(1,0,0,-1,503.7171,1170.0656)" stroke-width="1.7" stroke-linecap="round" stroke-linejoin="round" fill="none" stroke="#000000" d="M0 0C4.14-3.03 14.93-5.45 15.81 2.26"/>
<path transform="matrix(1,0,0,-1,568.4671,1003.28567)" stroke-width="1.7" stroke-linecap="round" stroke-linejoin="round" fill="none" stroke="#000000" d="M0 0C-.49-3.07-2.22-10.37-4.89-15.06"/>
<path transform="matrix(1,0,0,-1,578.2571,1005.9256)" stroke-width="1.7" stroke-linecap="round" stroke-linejoin="round" fill="none" stroke="#000000" d="M0 0C0-.03 0-.06-.01-.09-.47-6.45-2.38-14.31-6.02-19.58"/>
<path transform="matrix(1,0,0,-1,653.1771,1162.1555)" stroke-width="1.7" stroke-linecap="round" stroke-linejoin="round" fill="none" stroke="#000000" d="M0 0C5.61-7.79 12.83-8.51 20.33-3.39"/>
<path transform="matrix(1,0,0,-1,569.2271,636.6055)" stroke-width="1.7" stroke-linecap="round" stroke-linejoin="round" fill="none" stroke="#000000" d="M0 0C4.45-13.44-13.67-19.56-18.08-32.75"/>
<path transform="matrix(1,0,0,-1,504.6571,286.67555)" stroke-width="1.7" stroke-linecap="round" stroke-linejoin="round" fill="none" stroke="#000000" d="M0 0C-.44 .3-.94 .53-1.37 .84 2.54-3.63 7.71-6.94 12.35-10.61 8.09-6.84 3.44-1.98 1.56 3.49 4.09 .49 6.55-2.58 9.67-5 10.84-5.91 13.45-8.34 15.13-7.67 11.75-3 6.69-.05 4.3 5.49 6.37 3.3 8.82 1.41 11.23-.39 12.5-1.34 15.87-4.55 17.51-4.05 14.3 .56 9.24 3.82 6.16 8.61 9.28 6.62 11.9 3.71 14.88 1.5 16.7 .16 19.68-2.54 22.15-2.84 22.39-1.7 16.44 2 15.67 2.67 13.66 4.44 11.27 6.47 9.72 8.69 14.52 6.27 19.91-.92 25.7-.58 22.84 2.88 15.04 6.08 14.47 10.75 17.52 8.83 20.18 6.24 23.11 4.14 24.75 2.96 26.97 .79 29.12 .78 26.5 5.22 21.28 7.6 19.35 12.68 21.51 12.52 24.14 9.03 25.77 7.64 27.61 6.08 29.47 3.87 31.75 2.97 28.67 6.39 25.15 9.43 22.74 13.46 26.93 11.35 29.88 6.43 34.28 4.48 33.02 6.17 31.3 7.71 29.96 9.41 28.89 10.78 26.01 13.76 26.08 15.73 30.77 13.73 33.21 7.26 37.94 5.58 36.42 9.75 32.03 12.35 31.18 17.04 33.18 18.08 38.35 7.28 41.43 7.34 39.61 10.75 36.55 14.08 36.31 18.11 37.82 19.17 44.08 7.7 46.89 7.36 46.32 9.66 42.15 15.87 43.89 17.95 46.29 16.13 47.72 13.13 49.44 10.71 50.38 9.39 51.56 6.78 53.13 6.17 53.05 9.85 48.03 14.1 49.26 17.96 52.86 15.49 54.49 9.64 57.48 6.36 57.29 8.43 53.04 16.01 54.79 17.71 56.62 15.42 57.79 12.59 59.17 10.01 59.84 8.76 60.46 6.96 61.57 6.26 60.64 9.89 58.76 13.53 59.1 17.37 61.54 17.55 62.9 8.11 64.99 6.86 65.74 9.69 62.27 13.73 63.63 16.36 65.27 13.65 66.37 7.14 68.93 5.46 68.79 8.91 66.72 12.38 67.31 15.88 69.82 13.89 69.67 8.73 71.59 6.15 71.7 9.13 70.13 12.08 70.43 15.14 73.27 12.74 72.46 6.68 75.69 4.3 75.73 6.73 73.8 12 75.32 13.96 78.56 10.22 77.49 3.45 81.43 .08 82.79 2.29 80.83 6.1 82.44 8.23 84.99 5.52 84.2 .41 87.16-1.96 88.05 .57 86.03 4.14 87.18 6.39 88.41 3.9 88.41-2.07 90.72-3.62 91.11-1.97 90.26 3.03 91.81 3.94 94.04 .99 93.71-3.35 95.83-6.41 97.33-5.65 96.85-2.21 97.63-.7 99.62-2.38 98.56-6.35 100.43-8.36 101.55-7.37 101.14-5.24 102.15-4.02 103.75-6 103.52-9.2 105.41-10.92"/>
<path transform="matrix(1,0,0,-1,519.3371,322.6355)" stroke-width="1.7" stroke-linecap="round" stroke-linejoin="round" fill="none" stroke="#000000" d="M0 0C2.88-1.65 6.2-2.8 9.68-3.59 15-4.83 20.69-5.27 25.66-5.51 28.84-5.66 32.21-5.32 35.49-4.6 38.47-3.96 41.38-3.02 44.02-1.88 49.48 .48 55.02 2.54 60.33 5.29 64 7.2 67.78 8.81 71.91 9.23"/>
<path transform="matrix(1,0,0,-1,519.1471,322.44557)" stroke-width="1.7" stroke-linecap="round" stroke-linejoin="round" fill="none" stroke="#000000" d="M0 0C.03 .05 .05 .1 .08 .14 6.48 11.88 15.96 14.98 27.01 17.32 28.14 17.56 29.29 17.78 30.45 17.98 42.26 19.96 55.05 19.32 65.13 12.61 66.65 11.59 68.07 10.89 69.74 10.17 70.39 9.89 71.67 9.34 72.12 9.13 72.23 9.08 72.29 9.05 72.29 9.04"/>
<path transform="matrix(1,0,0,-1,519.1471,322.2556)" stroke-width="1.7" stroke-linecap="round" stroke-linejoin="round" fill="none" stroke="#000000" d="M0 0C-.09-.08-.17-.16-.26-.27-2.64-3.11-4.96-16.15 .76-15.71 3.3-15.51 8.66-6.21 9.79-4.33"/>
<path transform="matrix(1,0,0,-1,549.6471,304.7456)" stroke-width="1.7" stroke-linecap="round" stroke-linejoin="round" fill="none" stroke="#000000" d="M0 0C-7.71-5.04-2.34-20.18 5.08-22.03"/>
<path transform="matrix(1,0,0,-1,565.8371,311.1455)" stroke-width="1.7" stroke-linecap="round" stroke-linejoin="round" fill="none" stroke="#000000" d="M0 0C-4.06 1.45-3.4-5.69 .01-3.97 1.68-3.14 1.56-.54-.01-.07-.13-.03-.25-.01-.38 0"/>
<path transform="matrix(1,0,0,-1,534.7771,347.66554)" stroke-width="1.7" stroke-linecap="round" stroke-linejoin="round" fill="none" stroke="#000000" d="M0 0C4.05-6.37 14.67-8.95 21.51-8.98 24.65-9 27.97-9.02 30.98-7.99 32.74-7.39 34.32-5.95 36.14-5.65"/>
<path transform="matrix(1,0,0,-1,531.5771,369.68556)" stroke-width="1.7" stroke-linecap="round" stroke-linejoin="round" fill="none" stroke="#000000" d="M0 0C.18-6.64 4.29-15.04 8.64-19.87 12.59-24.26 17.83-27.61 22-31.86 25.83-35.76 28.92-40.39 30.67-45.6 32.19-50.12 32.4-54.73 33.5-59.3"/>
<path transform="matrix(1,0,0,-1,492.9871,402.63563)" stroke-width="1.7" stroke-linecap="round" stroke-linejoin="round" fill="none" stroke="#000000" d="M0 0C-1.26-4.28-.7-9.3-1.69-13.74"/>
<path transform="matrix(1,0,0,-1,502.7771,402.8156)" stroke-width="1.7" stroke-linecap="round" stroke-linejoin="round" fill="none" stroke="#000000" d="M0 0C-1.08-3.69 1.04-9.61 2.26-13.18"/>
<path transform="matrix(1,0,0,-1,510.1171,402.8156)" stroke-width="1.7" stroke-linecap="round" stroke-linejoin="round" fill="none" stroke="#000000" d="M0 0C-.04-4.17 3.74-10.11 6.21-13.37"/>
<path transform="matrix(1,0,0,-1,518.0271,401.1255)" stroke-width="1.7" stroke-linecap="round" stroke-linejoin="round" fill="none" stroke="#000000" d="M0 0C.28-4.22 6.31-9.92 9.6-12.42"/>
<path transform="matrix(1,0,0,-1,525.3671,399.05549)" stroke-width="1.7" stroke-linecap="round" stroke-linejoin="round" fill="none" stroke="#000000" d="M0 0C.32-4.1 5.86-8.97 8.47-12.05"/>
<path transform="matrix(1,0,0,-1,681.037,356.8855)" stroke-width="1.7" stroke-linecap="round" stroke-linejoin="round" fill="none" stroke="#000000" d="M0 0C.09-3.46-.49-6.9 0-10.36"/>
<path transform="matrix(1,0,0,-1,701.1771,346.53553)" stroke-width="1.7" stroke-linecap="round" stroke-linejoin="round" fill="none" stroke="#000000" d="M0 0C-.79-2.95-.83-6.19-.75-9.23"/>
<path transform="matrix(1,0,0,-1,711.9071,382.4856)" stroke-width="1.7" stroke-linecap="round" stroke-linejoin="round" fill="none" stroke="#000000" d="M0 0C-.49-2.32-.92-4.63-1.32-6.97"/>
<path transform="matrix(1,0,0,-1,693.0771,395.85554)" stroke-width="1.7" stroke-linecap="round" stroke-linejoin="round" fill="none" stroke="#000000" d="M0 0C-.84-2.96-.89-6.97-.75-9.98"/>
<path transform="matrix(1,0,0,-1,675.7671,391.90559)" stroke-width="1.7" stroke-linecap="round" stroke-linejoin="round" fill="none" stroke="#000000" d="M0 0C-.2-2.51-.39-5.03-.76-7.53"/>
<path transform="matrix(1,0,0,-1,674.6371,428.79548)" stroke-width="1.7" stroke-linecap="round" stroke-linejoin="round" fill="none" stroke="#000000" d="M0 0C-.71-2.73-1.07-5.83-1.13-8.66"/>
<path transform="matrix(1,0,0,-1,699.1071,422.77558)" stroke-width="1.7" stroke-linecap="round" stroke-linejoin="round" fill="none" stroke="#000000" d="M0 0C-.85-3.49-1.67-6.99-2.26-10.54"/>
<path transform="matrix(1,0,0,-1,676.5171,456.27558)" stroke-width="1.7" stroke-linecap="round" stroke-linejoin="round" fill="none" stroke="#000000" d="M0 0C-1.04-2.7-1.62-5.56-2.64-8.29"/>
<path transform="matrix(1,0,0,-1,652.0471,429.54548)" stroke-width="1.7" stroke-linecap="round" stroke-linejoin="round" fill="none" stroke="#000000" d="M0 0C-.58-3.01-1.6-6.01-2.26-9.04"/>
<path transform="matrix(1,0,0,-1,648.6571,460.41554)" stroke-width="1.7" stroke-linecap="round" stroke-linejoin="round" fill="none" stroke="#000000" d="M0 0C-1.04-3.13-1.97-6.29-3.01-9.42"/>
<path transform="matrix(1,0,0,-1,626.8271,440.46559)" stroke-width="1.7" stroke-linecap="round" stroke-linejoin="round" fill="none" stroke="#000000" d="M0 0C-.94-2.82-.63-5.85-1.51-8.66"/>
<path transform="matrix(1,0,0,-1,621.1771,471.33558)" stroke-width="1.7" stroke-linecap="round" stroke-linejoin="round" fill="none" stroke="#000000" d="M0 0C-.65-2.58-.14-5.1-1.51-7.53"/>
<path transform="matrix(1,0,0,-1,603.4771,459.66554)" stroke-width="1.7" stroke-linecap="round" stroke-linejoin="round" fill="none" stroke="#000000" d="M0 0C-.16-3.36-.47-6.87-1.13-10.17"/>
<path transform="matrix(1,0,0,-1,598.5871,484.88563)" stroke-width="1.7" stroke-linecap="round" stroke-linejoin="round" fill="none" stroke="#000000" d="M0 0C0-2.75 .25-5.59-.38-8.29"/>
<path transform="matrix(1,0,0,-1,585.037,469.45564)" stroke-width="1.7" stroke-linecap="round" stroke-linejoin="round" fill="none" stroke="#000000" d="M0 0C.11-2.53-.5-5-.38-7.53"/>
<path transform="matrix(1,0,0,-1,575.6271,496.1855)" stroke-width="1.7" stroke-linecap="round" stroke-linejoin="round" fill="none" stroke="#000000" d="M0 0C-.05-2.15-.57-4.26-.76-6.4"/>
<path transform="matrix(1,0,0,-1,564.3271,477.36549)" stroke-width="1.7" stroke-linecap="round" stroke-linejoin="round" fill="none" stroke="#000000" d="M0 0C-.52-2.33-.43-4.77-.38-7.15"/>
<path transform="matrix(1,0,0,-1,559.4371,500.70564)" stroke-width="1.7" stroke-linecap="round" stroke-linejoin="round" fill="none" stroke="#000000" d="M0 0C-.47-1.55-.53-3.28-.38-4.89"/>
<path transform="matrix(1,0,0,-1,547.0071,486.39564)" stroke-width="1.7" stroke-linecap="round" stroke-linejoin="round" fill="none" stroke="#000000" d="M0 0C-.49-1.83-.43-3.76-.37-5.65"/>
<path transform="matrix(1,0,0,-1,540.6071,502.96559)" stroke-width="1.7" stroke-linecap="round" stroke-linejoin="round" fill="none" stroke="#000000" d="M0 0V-5.64"/>
<path transform="matrix(1,0,0,-1,525.5471,496.9355)" stroke-width="1.7" stroke-linecap="round" stroke-linejoin="round" fill="none" stroke="#000000" d="M0 0C-.13-1.27-.01-2.56 .38-3.77"/>
<path transform="matrix(1,0,0,-1,534.9671,476.98548)" stroke-width="1.7" stroke-linecap="round" stroke-linejoin="round" fill="none" stroke="#000000" d="M0 0C-.65-2.16-.37-4.52-.38-6.78"/>
<path transform="matrix(1,0,0,-1,515.3871,488.65559)" stroke-width="1.7" stroke-linecap="round" stroke-linejoin="round" fill="none" stroke="#000000" d="M0 0C.11-1.63-.07-3.3-.38-4.89"/>
<path transform="matrix(1,0,0,-1,524.0471,464.1855)" stroke-width="1.7" stroke-linecap="round" stroke-linejoin="round" fill="none" stroke="#000000" d="M0 0C-.35-1.73-.48-3.5-.38-5.27"/>
<path transform="matrix(1,0,0,-1,510.8671,469.07563)" stroke-width="1.7" stroke-linecap="round" stroke-linejoin="round" fill="none" stroke="#000000" d="M0 0C-.23-2.27-.71-4.5-.75-6.78"/>
<path transform="matrix(1,0,0,-1,551.1471,464.9355)" stroke-width="1.7" stroke-linecap="round" stroke-linejoin="round" fill="none" stroke="#000000" d="M0 0C-.06-1.38-.19-2.76-.37-4.14"/>
<path transform="matrix(1,0,0,-1,573.7371,462.67549)" stroke-width="1.7" stroke-linecap="round" stroke-linejoin="round" fill="none" stroke="#000000" d="M0 0V-7.16"/>
<path transform="matrix(1,0,0,-1,565.1571,312.4856)" stroke-width="1.7" stroke-linecap="round" stroke-linejoin="round" fill="none" stroke="#000000" d="M0 0C0 0 .01-.01 .02-.02 .27-.32 .37-.7 .29-1.08 .28-1.13 .27-1.18 .24-1.23 .22-1.32 .18-1.4 .13-1.49-.05-1.35-.18-1.2-.25-1.05-.39-.78-.38-.51-.23-.27-.17-.18-.08-.09 .02-.02L.03-.01C.05 0 .07 .02 .1 .04 .21 .11 .35 .17 .51 .22 .75-.19 .79-.51 .72-.72 .66-.89 .53-1 .37-1.06 .35-1.07 .32-1.08 .29-1.08 .24-1.1 .19-1.11 .13-1.11 .01-1.11-.12-1.09-.25-1.05-.38-1.01-.5-.94-.61-.85-.88-.64-1.06-.28-1 .2-.98 .33-.95 .47-.89 .61-.88 .66-.85 .72-.83 .77"/>
<path transform="matrix(1,0,0,-1,565.0571,314.2356)" stroke-width="1.7" stroke-linecap="round" stroke-linejoin="round" fill="none" stroke="#000000" d="M0 0C-.06-.02-.12-.03-.18-.03-.39-.06-.55 .02-.6 .23-.64 .38-.61 .6-.51 .9-.43 1.11-.32 1.36-.15 1.66-.12 1.71-.08 1.77-.05 1.84-.04 1.85-.04 1.86-.03 1.87-.01 1.89 0 1.92 .02 1.95 .09 1.9 .15 1.84 .2 1.79 .28 1.71 .34 1.63 .38 1.55 .53 1.3 .53 1.03 .47 .69 .46 .61 .44 .52 .42 .43 .39 .46 .36 .49 .34 .52 .3 .56 .26 .6 .23 .64 .02 .89-.1 1.16-.13 1.48-.15 1.54-.16 1.6-.15 1.66-.16 1.73-.16 1.81-.15 1.89-.16 1.92-.15 1.95-.15 1.98-.11 1.95-.07 1.91-.03 1.87 .01 1.84 .05 1.8 .09 1.76"/>
<path transform="matrix(1,0,0,-1,563.847,312.1355)" stroke-width="1.7" stroke-linecap="round" stroke-linejoin="round" fill="none" stroke="#000000" d="M0 0C.08 .13 .22 .22 .42 .26 .64 .3 .93 .28 1.32 .17 2.67-.21 2.56-.98 2.07-1.53 1.84-1.79 1.52-2.01 1.23-2.1"/>
<path transform="matrix(1,0,0,-1,563.9271,313.29554)" stroke-width="1.7" stroke-linecap="round" stroke-linejoin="round" fill="none" stroke="#000000" d="M0 0C-.03 .05-.05 .1-.06 .14-.21 .52-.24 .89-.09 1.14"/>
<path transform="matrix(1,0,0,-1,564.3071,313.93556)" stroke-width="1.7" stroke-linecap="round" stroke-linejoin="round" fill="none" stroke="#000000" d="M0 0C-.12 .15-.23 .33-.31 .5"/>
<path transform="matrix(1,0,0,-1,564.2371,313.78553)" stroke-width="1.7" stroke-linecap="round" stroke-linejoin="round" fill="none" stroke="#000000" d="M0 0C-.1 .11-.18 .22-.24 .35-.27 .4-.29 .44-.31 .49-.33 .53-.35 .58-.37 .63-.49 .97-.52 1.34-.4 1.63-.4 1.64-.4 1.64-.39 1.65-.36 1.72-.31 1.8-.26 1.86 .56 2.82 2.3 1.51 2.16 .46 1.93-1.19 1.11-1.14 .44-.55 .31-.44 .19-.31 .08-.16"/>
<path transform="matrix(1,0,0,-1,565.0771,313.9756)" stroke-width="1.7" stroke-linecap="round" stroke-linejoin="round" fill="none" stroke="#000000" d="M0 0C-.04-.11-.09-.19-.15-.25-.16-.27-.18-.28-.2-.29-.26-.34-.32-.36-.4-.36-.45-.36-.51-.34-.57-.32-.64-.2-.71-.08-.76 .03-.77 .03-.77 .03-.77 .04-.79 .09-.81 .13-.83 .17-.83 .18-.84 .18-.84 .19-1.29 1.12-1.21 1.56-.92 1.69-.73 1.79-.46 1.74-.17 1.63-.14 1.61-.11 1.6-.07 1.58-.02 1.56 .03 1.53 .07 1.5 .08 1.5 .08 1.5 .08 1.49 .09 1.49 .1 1.48 .11 1.48 .2 1.42 .28 1.36 .36 1.29 .55 1.14 .71 .96 .8 .77 .87 .62 .89 .46 .84 .31 .8 .14 .67-.02 .42-.15 .28-.22 .14-.26 0-.26H-.02C-.06-.26-.11-.25-.15-.25-.32-.22-.48-.14-.62-.03-.69 .03-.76 .1-.83 .17"/>
</g>
</g>
</g>
</svg>
