<svg xmlns="http://www.w3.org/2000/svg" xmlns:xlink="http://www.w3.org/1999/xlink" xmlns:inkscape="http://www.inkscape.org/namespaces/inkscape" version="1.1" width="1477.27" height="1450.16" viewBox="0 0 1477.27 1450.16">
<defs>
<clipPath id="clip_0">
<path transform="matrix(1,0,0,-1,0,1450.16)" d="M0 1450.162H1477.268V0H0Z"/>
</clipPath>
<clipPath id="clip_1">
<path transform="matrix(1,0,0,-1,0,1450.16)" d="M109.666 245.529H1399.24V1307.75H109.666Z"/>
</clipPath>
</defs>
<g>
<g inkscape:groupmode="layer" inkscape:label="Laag 1">
</g>
<g inkscape:groupmode="layer" inkscape:label="Laag 2">
<g clip-path="url(#clip_0)">
<g>
<g clip-path="url(#clip_1)">
<path transform="matrix(1,0,0,-1,1383.7964,573.5385)" d="M0 0C-2.02-4.71-4.23-9.26-7.47-12.9-7.69-13.14-7.91-13.38-8.14-13.6L-8.18-13.56C-9.42-11.61-12.26-8.72-14.72-8.47-17.75-8.16-19.66-11.25-21.38-13.42-24.44-17.29-30.12-22.37-30.81-27.42-30.95-27.35-31.06-27.26-31.14-27.15-31.19-27.05-31.24-26.94-31.29-26.84V-26.82C-32.29-24.61-32.79-22.08-32.74-20.06L-32.96-19.87C-29.32-15.46-28.62-8.15-26.36-3.3-26.05-2.63-25.71-1.97-25.34-1.33-22.4 3.92-18.04 8.46-15.5 13.85-13.42 18.25-14.12 22.15-12.52 26.42-10.57 31.61-5.79 35.55-2.83 40.04-.2 44.03 2.1 48.23 3.11 52.79H3.12C22.48 45.36 15.24 28 6.98 14.88 4.15 10.38 2.18 5.1 0 0" fill="#96672f"/>
<path transform="matrix(1,0,0,-1,1337.7664,559.39859)" d="M0 0C.64 3 1.25 5.62 1.95 7.35 6.57 18.83 9.42 28.7 17.39 38.31 21.76 43.58 26.13 49.38 27.95 55.91 28.45 57.72 28.76 59.59 28.81 61.52H28.82C38.38 56.39 46.71 61.76 49.32 47.44 49.88 44.35 49.75 41.43 49.14 38.65 48.13 34.09 45.83 29.89 43.2 25.9 40.24 21.41 35.46 17.47 33.51 12.28 31.91 8.01 32.61 4.11 30.53-.29 27.99-5.68 23.63-10.22 20.69-15.47L20.35-15.28C18.98-13.78 15.22-10.95 13.36-11.1 10.33-11.35 8.33-17.9 7.52-20.14 5.78-24.95 2.29-32.03 2.56-37.3L2.47-37.46C-2.87-34.75-4.91-24.32-5.06-18.19-2.67-13.35-1.28-5.94 0 0" fill="#96672f"/>
<path transform="matrix(1,0,0,-1,1375.6163,587.0985)" d="M0 0 .04-.04C-2.72-2.82-6.25-4.56-8.64-7.76-10.4-10.11-11.23-16.58-14.05-17.8-15.31-18.35-16.46-18.5-17.5-18.36-19.94-18.02-21.77-16.04-22.96-13.59-22.88-13.7-22.77-13.79-22.63-13.86-21.94-8.81-16.26-3.73-13.2 .14-11.48 2.31-9.57 5.4-6.54 5.09-4.08 4.84-1.24 1.95 0 0" fill="#eb996a"/>
<path transform="matrix(1,0,0,-1,859.0463,959.15859)" d="M0 0C1.56 3.35 3.52 6.48 5.49 9.6 10.05 16.84 14.59 23.95 13.99 33.23 13.58 35.3 12.04 36.72 10.04 37.61 6.54 39.19 1.6 39.16-1.23 38.21-10.46 35.11-20.39 22.74-25 14.88-28.79 8.44-30.84 4.78-35.1 1.51L-35.33 1.8C-38.02 3.04-40.36 5.37-42.5 7.41-45.87 10.63-49.27 13.96-52.46 17.36-54.91 19.97-59.57 23.45-60.93 26.64L-61 26.7C-57.69 30.65-54.69 34.56-52.12 36.71-46.47 41.44-37.91 42.04-31.44 45.3-18.15 51.99-12.58 66.54-6.29 79.15-2.08 87.61 .79 101.14 8.29 107.73 13.49 112.3 20.31 112.12 26.44 114.68 41.76 121.09 44.54 134.24 48.66 149.25 48.95 150.29 49.24 151.34 49.54 152.4L49.56 152.39C75.91 131.66 102.57 111.57 128.23 89.96 140.77 79.4 153.35 69.62 165.28 58.88L165.33 58.93C168.01 68.57 175.6 78.3 180.35 87.02 194.57 113.18 216.06 136.63 235.22 159.3 262.75 191.87 286.99 226.96 312.57 261.03 328.81 282.66 340.68 300.65 349.86 326.25L349.7 326.31C354.88 348.66 344.65 371.54 344.9 394.55 345.1 411.99 351.5 428.34 352.52 445.37 353.21 456.86 347.18 465.26 346.6 476.1 346.28 482.14 347.52 487.91 347.4 494.03H347.45C348.66 492.81 354.24 492.95 355.98 494.11 358.56 495.84 357.03 499.84 356.76 502.93 356.27 508.55 355.48 516.11 352.57 521.06 359.33 521.57 368.38 512.98 370.32 507.02 373.7 497.42 373.5 489.18 378.15 480.1 380.41 475.69 383.26 471.8 384.64 466.79 386.12 461.44 385.22 456.57 389.59 451.92 394.76 446.43 404.19 446.52 405.89 455.35 407.47 468.6 421.12 482.51 426.03 495.42 429.44 504.36 431.87 513.33 437.02 521.42 442.66 530.28 450.03 537.13 455.02 546.83 459.45 555.43 461.69 565.49 467.68 572.9 473.22 579.75 497.22 621.9 501.65 595.01 503.94 581.13 493.96 571.34 488.22 560.38 481.76 548.05 479.95 533.41 474.32 520.74 469.89 510.79 465.7 502.87 462.03 492.45 458.77 483.24 452.49 463.8 446.53 457.06L446.55 457.04C455.17 463.89 464.05 471.27 472.79 478.08 476.85 481.23 486.36 487.97 491.87 486.73 498.33 485.28 504.81 474.3 506.61 468.26 506.65 468.14 506.68 468.02 506.71 467.91 507.34 465.62 507.59 463.42 507.53 461.28 507.48 459.35 507.17 457.48 506.67 455.67 504.85 449.14 500.48 443.34 496.11 438.07 488.14 428.46 485.29 418.59 480.67 407.11 479.97 405.38 479.36 402.76 478.72 399.76 473.76 406.28 466.88 401.93 465.04 395.75 463.56 390.82 461.88 385.09 461.27 380.02 467.31 374.12 471.07 376.34 473.66 381.57 473.81 375.44 475.85 365.01 481.19 362.3 483.43 361.15 486.26 361.37 489.77 363.85 490.54 364.39 491.21 365.03 491.79 365.75L492.01 365.56C491.96 363.54 492.46 361.01 493.46 358.8V358.78C493.49 358.66 493.54 358.56 493.61 358.47 494.8 356.02 496.63 354.04 499.07 353.7 492.26 332.13 473.85 312.04 451.81 305.22 448.68 304.25 445.49 303.38 442.25 302.75 423.35 268.64 405.52 233.85 391.24 197.44 374.56 154.93 358.86 111.87 337.51 71.47 314.49 27.9 289.67-14.59 261.83-55.27 251.76-69.98 242.2-84.82 230.72-98.48 227.58-102.22 222.67-107.35 221.23-110.48H221.52C230.27-116.98 223.77-129 218.44-131.66 212.15-134.8 204.26-132.65 200.02-127.29 197.67-124.33 194.99-118.02 196.58-114.16V-113.78C194.84-113.03 191.73-113.01 189.52-112.74 184.27-112.11 179.13-111.01 173.93-110.02 157.13-106.82 141.62-99.64 125.73-93.55 108.88-87.1 91.54-80.35 75.56-71.89 68.71-68.26 61.83-64.71 55.09-60.87 50.97-58.52 44.7-56.42 41.47-53.17L41.44-53.09C47.14-51.21 52.86-49.71 57.04-44.7 59.43-41.83 60.89-38.01 60.58-34.69 60.28-31.46 58.32-28.69 53.94-27.72 45.76-25.9 34.09-31.72 25.83-32.98 21.05-33.71 17.32-34.71 13.83-36.08L13.61-35.47C11.83-34.78 9.1-32.5 7.13-30.94 2.33-27.17-7.76-21.46-10.3-16.74L-10.32-16.71C-6.55-13.45-3.84-9.26-.82-1.86-.56-1.23-.29-.61 0 0" fill="#96672f"/>
<path transform="matrix(1,0,0,-1,1358.1163,574.6785)" d="M0 0 .34-.19C-.03-.83-.37-1.49-.68-2.16-2.94-7.01-3.64-14.32-7.28-18.73-7.86-19.45-8.53-20.09-9.3-20.63-12.81-23.11-15.64-23.33-17.88-22.18L-17.79-22.02C-18.06-16.75-14.57-9.67-12.83-4.86-12.02-2.62-10.02 3.93-6.99 4.18-5.13 4.33-1.37 1.5 0 0" fill="#eb996a"/>
<path transform="matrix(1,0,0,-1,1332.7063,577.58859)" d="M0 0C-2.59-5.23-6.35-7.45-12.39-1.55-11.78 3.52-10.1 9.25-8.62 14.18-6.78 20.36 .1 24.71 5.06 18.19 3.78 12.25 2.39 4.84 0 0" fill="#eb996a"/>
<path transform="matrix(1,0,0,-1,1215.8064,456.22853)" d="M0 0C.27-3.09 1.8-7.09-.78-8.82-2.52-9.98-8.1-10.12-9.31-8.9H-9.36C-9.36-8.51-9.37-8.12-9.39-7.73-9.67-1.75-12.67 7.88-10.18 13.45-8.79 16.59-6.64 17.96-4.19 18.13-1.28 13.18-.49 5.62 0 0" fill="#eb996a"/>
<path transform="matrix(1,0,0,-1,927.9863,1036.8385)" d="M0 0C2.71-2.8 3.52-6.65-.15-10.52-4.43-15.04-12.97-15.65-18.44-18.67L-18.81-18.03C-19.66-16.99-20.56-16.14-21.17-14.64-21.74-13.25-22.48-10.98-21.91-9.66-21-7.52-16.39-5.86-14.3-4.85-9.95-2.76-5.11-1.25-.36-.33Z" fill="#eb996a"/>
<path transform="matrix(1,0,0,-1,702.8663,956.2285)" d="M0 0C8.81 3.88 17.31 6.86 25.57 12.77 25.61 12.8 25.64 12.82 25.68 12.85L25.98 12.42C25.54 12.15 30.13 6.64 32.37 5.92 35.45 4.93 39.14 7.15 41.8 8.64 45.02 10.43 48.72 13.09 51.22 15.72 52.86 17.45 53.76 20.19 56.1 21.08 60.1 15.49 55.96 4.18 52.68-1.38 45.55-13.47 29.4-16.64 24.58-30.55 22.3-37.14 23.58-46.27 31.33-48.2 38.46-49.98 50.59-42.35 56.65-39.04 60.49-36.94 63.86-34.32 67.27-31.86 71.7-28.67 76.22-25.75 82.01-24.6 89.16-23.18 92.34-23.47 98.03-18.42 103.54-13.51 108.04-8.69 114.83-5.24 117.41-3.93 119.41-2.7 121.08-1.42 125.34 1.85 127.39 5.51 131.18 11.95 135.79 19.81 145.72 32.18 154.95 35.28 157.78 36.23 162.72 36.26 166.22 34.68L166.03 34.26C163.03 30.13 155.77 23.39 154.73 17.5 153.86 12.6 158.71 10.11 161.51 6.77L161.67 6.67C159.7 3.55 157.74 .42 156.18-2.93 155.89-3.54 155.62-4.16 155.36-4.79 152.34-12.19 149.63-16.38 145.86-19.64 142.38-22.66 138.01-24.89 131.68-28.15 122.61-32.8 120.12-42.89 112.01-48.51 105.71-52.87 95.65-58.35 92.27-65.81 94.64-74.52 115.73-61.01 120.15-58.33 131.61-51.37 146.17-52.24 157.77-45.35 162.37-42.62 166.04-40.57 170.01-39.01 173.5-37.64 177.23-36.64 182.01-35.91 190.27-34.65 201.94-28.83 210.12-30.65 214.5-31.62 216.46-34.39 216.76-37.62L216.47-37.65C210.6-39.97 200.44-39.17 195.75-43.58 192.72-46.43 193.86-53.64 195.77-56.1L195.92-56.6C195.03-56.92 194.15-57.25 193.27-57.62 189.37-59.26 187.54-62.13 184.17-63.86 181.01-65.48 176.87-65.53 173.46-66.39 163.66-68.86 157.37-74.91 149.04-79.81 136.97-86.93 121.57-81.34 111.92-93.3L112-93.37C112.43-99.57 132.3-95.43 136.92-95.64 147.92-96.15 152.11-90.47 162.11-87.71 171.24-85.18 181.04-87.79 189.82-84.77 198.17-81.9 205.89-76.07 215.35-76.37 218.88-76.48 222.74-78.14 225.12-80.61L224.76-80.94C220.01-81.86 215.17-83.37 210.82-85.46 208.73-86.47 204.12-88.13 203.21-90.27 202.64-91.59 203.38-93.86 203.95-95.25 204.56-96.75 205.46-97.6 206.31-98.64L206.68-99.28C206.51-99.38 206.34-99.47 206.18-99.57 200.12-103.22 196.89-105.05 189.9-106.48 184.11-107.67 177.1-109.52 171.77-112.13 166.96-114.49 162.53-118.14 157.37-120.23 156.05-120.76 154.68-121.2 153.24-121.48 143.05-123.46 134.35-123.46 124.58-127.79L124.65-127.95C123.83-128.34 122.81-129.07 122.16-129.52 125.47-132.32 130.49-130.88 134.35-131.26 139.73-131.79 144.55-133.73 149.68-133.43 155.33-133.1 161.43-131.26 167.36-130.65 173.21-130.06 179.13-131.29 184.83-129.95 192.37-128.18 200.71-123.61 208.28-127.79 208.39-127.85 208.49-127.91 208.59-127.97L208.57-128C203.79-130.09 185.87-133.5 194.45-142.21L194.46-142.26C193.7-142.44 192.94-142.64 192.19-142.89 188.19-144.22 185.78-147.23 181.99-148.88 174.18-152.29 164.42-150.26 156.33-152.66 148.2-155.08 142.16-157.42 133.45-157.74 120.19-158.24 108.94-161.95 96.64-166.78 66.32-178.69 15.06-204.73-14.49-176.94H-14.68C-17.14-175.55-33.65-183.33-38.77-185.23-56.08-191.64-68.84-195.99-86.75-200.67-141.22-214.89-194.07-235.28-250.08-243.15-294.67-249.42-339.8-249.62-384.61-246.15-425.98-242.94-476.56-238.51-514.25-219.86-541.51-241.08-545.43-198.92-526.79-199.36-534.95-176.44-541.72-152.79-545.57-128.27-550.09-99.51-554.74-69.27-554.72-40.17-554.7-5.62-559.96 35.35-551.34 69.08L-551.33 69.09C-539.31 61.95-528.04 51.45-515.56 43.52-503.61 35.93-493.88 33.23-480.91 40.35-468.41 47.21-456.9 56.21-441.46 51.77-428.93 48.16-423.72 34.8-409.45 34.18-396.73 33.62-388.14 39.75-375.01 34.28-367.14 31-359.33 26.13-351.38 23.09L-351.43 22.96C-355.56-7.2-359.07-38.57-363.76-68.69-365.09-77.25-365.5-87.8-368.17-94.11-361.09-93.95-353.2-95.3-347.55-95.77-335.6-96.76-323.8-98.07-311.88-99.45-276.94-103.51-240.79-104.66-205.64-105.79-178.9-106.65-149.95-110.05-123.62-104.4-111.25-101.75-99.84-101.03-87.9-97.13H-87.71C-79.43-95.06-70.59-89.08-65.33-84.49-57.02-77.23-50.15-70.92-45.14-60.89-35.06-40.73-26.85-12.81-4.71-2.15-3.13-1.39-1.56-.68 0 0" fill="#96672f"/>
<path transform="matrix(1,0,0,-1,775.1364,943.37857)" d="M0 0C-.49-7.22-1.27-14.24-2.92-21.86-4.09-27.28-5.18-32.95-5.47-38.46-5.61-41.13-5.36-44.08-5.44-44.1L-5-44.71C-8.41-47.17-11.78-49.79-15.62-51.89-21.68-55.2-33.81-62.83-40.94-61.05-48.69-59.12-49.97-49.99-47.69-43.4-42.87-29.49-26.72-26.32-19.59-14.23-16.31-8.67-12.17 2.64-16.17 8.23-17.23 9.72-18.87 10.8-21.26 11.26-29.2 12.78-40.19 4.57-46.59 0-46.63-.03-46.66-.05-46.7-.08-54.96-5.99-63.46-8.97-72.27-12.85-73.83-13.53-75.4-14.24-76.98-15-99.12-25.66-107.33-53.58-117.41-73.74-122.42-83.77-129.29-90.08-137.6-97.34-142.86-101.93-151.7-107.91-159.98-109.98H-160.17C-172.11-113.88-183.52-114.6-195.89-117.25-222.22-122.9-251.17-119.5-277.91-118.64-313.06-117.51-349.21-116.36-384.15-112.3-396.07-110.92-407.87-109.61-419.82-108.62-425.47-108.15-433.36-106.8-440.44-106.96-437.77-100.65-437.36-90.1-436.03-81.54-431.34-51.42-427.83-20.05-423.7 10.11L-423.65 10.24C-431.6 13.28-439.41 18.15-447.28 21.43-460.41 26.9-469 20.77-481.72 21.33-495.99 21.95-501.2 35.31-513.73 38.92-529.17 43.36-540.68 34.36-553.18 27.5-566.15 20.38-575.88 23.08-587.83 30.67-600.31 38.6-611.58 49.1-623.6 56.24-636.04 63.63-649.28 67.41-665.47 61-655.41 108.67-641.3 154.99-632.13 202.69-619.29 269.45-595.16 344.15-556.79 400.78-533.06 435.81-504.01 444.95-463.91 451.14-426.14 456.98-389.68 454.15-352.08 451.81-329.44 450.39-302.7 438.98-281.55 443.55-281.77 443.19-281.99 442.84-282.22 442.49-274.7 430.79-267.58 419.89-257.84 409.75-240.1 391.25-216.21 374.94-191.84 367.03-175.15 361.62-156.31 359.22-139.03 363.24-133.69 364.48-124.82 366.24-120.55 370.29L-120.64 370.39C-120.59 371.52-120.31 373.01-119.88 374.68-114.72 368.69-104.61 370.45-97.29 369.88-83.24 368.78-68.59 365.48-54.93 362.01-23.36 353.99 2.98 329.18 26.74 308.08 53.24 284.56 69.95 254.45 93.36 228.53 107.48 212.88 124.77 200.5 140.64 186.78 147.18 181.13 153.75 176.94 151.88 168.25 150.64 162.49 143.18 158.39 140.32 153.74 137.14 148.56 135.14 142.53 133.45 136.62 133.15 135.56 132.86 134.51 132.57 133.47 128.45 118.46 125.67 105.31 110.35 98.9 104.22 96.34 97.4 96.52 92.2 91.95 84.7 85.36 81.83 71.83 77.62 63.37 71.33 50.76 65.76 36.21 52.47 29.52 46 26.26 37.44 25.66 31.79 20.93 29.22 18.78 26.22 14.87 22.91 10.92 16.51 3.3 8.91-4.47 .77-.05Z" fill="#72af99"/>
<path transform="matrix(1,0,0,-1,919.6263,993.8485)" d="M0 0C.31-3.32-1.15-7.14-3.54-10.01-7.72-15.02-13.44-16.52-19.14-18.4-19.71-18.59-20.27-18.78-20.84-18.98L-20.99-18.48C-22.9-16.02-24.04-8.81-21.01-5.96-16.32-1.55-6.16-2.35-.29-.03Z" fill="#eb996a"/>
<path transform="matrix(1,0,0,-1,911.4564,1084.1985)" d="M0 0C8.35-4.84 1.52-10.29-4.51-12.25-7.69-13.29-10.97-13.56-14.13-14.29L-14.14-14.24C-22.72-5.53-4.8-2.12-.02-.03Z" fill="#eb996a"/>
<path transform="matrix(1,0,0,-1,873.0363,925.9285)" d="M0 0C.6-9.28-3.94-16.39-8.5-23.63L-8.66-23.53C-11.46-20.19-16.31-17.7-15.44-12.8-14.4-6.91-7.14-.17-4.14 3.96L-3.95 4.38C-1.95 3.49-.41 2.07 0 0" fill="#eb996a"/>
<path transform="matrix(1,0,0,-1,512.3964,398.40858)" d="M0 0C-.25-.41-.5-.83-.73-1.24-4.58 14.2-5.27 30.67-7.9 46.38-9.94 58.6-12.61 70.51-13.12 82.95-13.55 93.5-13.07 104.05-12.54 114.57-11.71 130.62-7.02 146.15-1.52 161.13 4.11 176.44 9.31 190.76 19.36 203.89 29.54 217.18 42.14 230.4 56.42 239.27 75.09 250.85 100.43 253.97 121.94 255.45 133.21 256.23 144.32 256.25 155.57 254.99 167.94 253.61 180.05 250.14 192.26 247.8 211.09 244.2 227.25 238.91 242.52 227.3 255 217.81 266.79 207.47 274.9 193.89 278.84 187.28 291.76 160 292.3 151.8H292.36C292.89 145.61 294.41 139.42 293.96 133.21 293.5 126.92 292.12 120.16 290.5 114.18 289.37 116.61 288.49 119.17 287.77 121.76 287.37 119.01 282.13 110.4 281.58 111.16L280.98 111.2C281.36 117.04 282.55 122.74 284.97 127.82L285.04 127.8C288.73 140.89 274.12 157.43 267.92 163.11 265.52 165.31 257.26 172.47 253.29 169.81 251.88 168.86 252.43 163.11 252.12 161.56 251.29 157.56 249.75 152.65 247.82 149.07 244.96 155.61 239.94 160.65 236.89 166.98 237.19 162.05 235.4 156.21 233.72 151.82 232.2 156.66 230.05 162.83 226.66 168.48 220.25 179.17 214.66 184.58 205.06 192.48 191.51 204.34 162.12 200.95 143.73 189.74 129.71 181.18 116.09 169.4 110.16 153.75 105.62 141.77 105.38 130.28 103.5 118.12 101.21 121.74 99.24 126.27 95.88 128.95 95.73 120.68 98.42 111.95 99.68 104 96.45 105.96 93.88 109.25 90.82 111.09 87.19 101.93 87.67 90.29 84.69 80.8 81.42 85.03 79.71 90.89 76.56 94.72 74.35 89.06 72.79 83.02 70.83 77.28 66.63 81.88 67.15 87.53 65.86 93.09 64.71 116.18 42.59 132.6 22.93 116.56 8.36 104.68 9.22 80.98 15.02 65.14 18.38 55.95 23.69 47.6 24.78 37.74 25.37 32.34 25.29 27.18 27.05 21.93 27.42 20.82 27.81 19.68 28.28 18.58 27.82 16.86 26.98 13.75 26.13 11.62 24.02 6.33 20.03 3.23 16.78-1.33 15.52 2.88 14.83 7.28 12.88 11.33 11.33 7.5 9.79 3.45 7.97-.24 6.45 2.86 5.8 6.54 4.48 9.8 4.07 6.18 1.88 3.08 0 0" fill="#bbbfc4"/>
<path transform="matrix(1,0,0,-1,710.2963,517.52859)" d="M0 0C-5.73-8.79-13.98-9.35-26.05-8.02-27.9-7.82-30.71-7.49-34.04-7L-34.06-7.17C-35.64-9.9-37.36-11.45-39-14.11-41.63-18.36-40.4-20.74-41.67-25.27-43.11-30.43-48.23-32.78-50.49-38.15-51.94-41.61-53.95-46.95-55.04-51.17-55.47-52.84-55.75-54.33-55.8-55.46L-55.71-55.56C-59.98-59.61-68.85-61.37-74.19-62.61-91.47-66.63-110.31-64.23-127-58.82-151.37-50.91-175.26-34.6-193-16.1-202.74-5.96-209.86 4.94-217.38 16.64-217.15 16.99-216.93 17.34-216.71 17.7-210.57 27.59-206.56 39.68-204.31 51.08-202.11 62.26-200.41 73.65-199.89 85.05-199.39 95.86-195.65 108.38-197.9 119.12-196.02 122.2-193.83 125.3-193.42 128.92-192.1 125.66-191.45 121.98-189.93 118.88-188.11 122.57-186.57 126.62-185.02 130.45-183.07 126.4-182.38 122-181.12 117.79-177.87 122.35-173.88 125.45-171.77 130.74-170.92 132.87-170.08 135.98-169.62 137.7-170.09 138.8-170.48 139.94-170.85 141.05-172.61 146.3-172.53 151.46-173.12 156.86-174.21 166.72-179.52 175.07-182.88 184.26-188.68 200.1-189.54 223.8-174.97 235.68-155.31 251.72-133.19 235.3-132.04 212.21-130.75 206.65-131.27 201-127.07 196.4-125.11 202.14-123.55 208.18-121.34 213.84-118.19 210.01-116.48 204.15-113.21 199.92-110.23 209.41-110.71 221.05-107.08 230.21-104.02 228.37-101.45 225.08-98.22 223.12-99.48 231.07-102.17 239.8-102.02 248.07-98.66 245.39-96.69 240.86-94.4 237.24-92.52 249.4-92.28 260.89-87.74 272.87-81.81 288.52-68.19 300.3-54.17 308.86-35.78 320.07-6.39 323.46 7.16 311.6 16.76 303.7 22.35 298.29 28.76 287.6 32.15 281.95 34.3 275.78 35.82 270.94 37.5 275.33 39.29 281.17 38.99 286.1 42.04 279.77 47.06 274.73 49.92 268.19 51.85 271.77 53.39 276.68 54.22 280.68 54.53 282.23 53.98 287.98 55.39 288.93 59.36 291.59 67.62 284.43 70.02 282.23 76.22 276.55 90.83 260.01 87.14 246.92L87.07 246.94C84.65 241.86 83.46 236.16 83.08 230.32 82.63 223.33 83.35 216.13 84.55 209.53 86.35 199.67 90.29 192.65 84.22 183.1 84.18 183.04 84.15 182.99 84.12 182.94 79.87 176.29 79.65 169.56 80.41 162.69L78.78 162.52C78.31 164.41 76.14 169.67 73.89 172.22 71.07 175.42 66.98 176.68 63.2 178.47 62.23 178.93 61.25 179.38 60.25 179.8 56.79 181.26 53.16 182.43 49.5 182.84 45.11 183.33 42.28 181.51 38.13 180.59L38 180.54C38.85 178.35 39.81 176.18 40.83 174.05 42.64 170.27 44.61 166.61 46.42 163.18 53.75 149.31 61.31 135.85 66.76 121.1 68.23 117.13 69.47 112.65 69.43 108.32 69.4 104.38 68.3 100.55 65.33 97.35 64.38 96.33 63.44 95.48 62.49 94.81 54.95 81.4 51.62 67.82 48.54 52.94 46.66 43.83 41.07 36.29 35.43 29.11 27.84 19.46 13.49 1.94 0 0M41.27 50.57 41.42 50.78C40.67 51.32 39.95 51.93 39.26 52.59 34.67 57.02 31.43 63.78 27.96 69.46 25.52 73.44 23.11 76.72 18.74 78.37 15.22 79.69 11.67 78.03 8.38 79.32 2.59 87.1-6.44 88.69-16 86.86-20.96 85.91-26.08 84-30.86 82.34-35.04 80.88-44.49 77.22-50.44 77.43-50.54 77.43-50.63 77.44-50.72 77.44V77.25C-48.08 73.72-40.26 71.26-36.59 68.22-33.36 65.54-30.22 62.69-27.05 59.93-21.76 55.33-16.46 50.55-9.91 47.8 1.97 42.81 16.61 40.54 28.63 45.53 32.77 47.25 35.91 50.19 40.4 50.53 40.68 50.56 40.97 50.57 41.27 50.57M83.2 185.25C83.07 184.83 82.93 184.41 82.78 184 83.12 184.32 83.26 184.74 83.2 185.25M-151.74 160.18C-150.95 166.02-150.69 167.78-151.83 173.8-152.98 179.89-150.59 189.38-143.33 190.75H-143.19C-142.43 190.76-141.87 191.28-141.13 191.43-144.82 202.38-148.52 241.54-167.92 222.1-178.43 211.58-170.84 195.36-167.62 183.28-165.45 175.16-165.3 167.41-164.68 159.17-160.81 162.63-154.02 162.74-152.37 160.26ZM-60.68 204.93C-56.2 202.2-53.21 197.95-48.55 195.25-41.08 190.92-32.71 188.93-24.32 187.32-23.74 187.21-23.16 187.09-22.57 186.97-17.4 185.94-12.08 184.74-6.97 184.35-5.51 184.24-4.15 184.28-2.85 184.44L-2.72 183.41C-.84 175.44 8.08 168.92 6.88 180.89 6.71 182.54 6.56 184.55 6.33 186.67 5.81 191.5 4.87 196.92 2.36 200.02-1.68 205.01-10.09 205.69-15.92 207.7-17.32 208.18-18.75 208.71-20.21 209.24-26.27 211.46-32.72 213.86-38.85 213.92-47.91 214-52.62 206.95-60.68 204.93" fill="#96672f"/>
<path transform="matrix(1,0,0,-1,790.7064,354.8385)" d="M0 0C.68-6.3 2.19-12.73 2.18-19.32 2.16-30.62-1.52-46.56-10.28-54.38L-10.98-54.37C-10.94-50.04-12.18-45.56-13.65-41.59-19.1-26.84-26.66-13.38-33.99 .49-35.8 3.92-37.77 7.58-39.58 11.36L-39.27 11.5C-35.41 7.56-29.05 3.79-22.79 1.49-20.82 .77-18.87 .19-17-.2-14.3-.77-3.14-2.57-2-.55L-1.63-.17Z" fill="#96672f"/>
<path transform="matrix(1,0,0,-1,789.0764,355.00856)" d="M0 0-.37-.38C-1.51-2.4-12.67-.6-15.37-.03-17.24 .36-19.19 .94-21.16 1.66L-21.08 1.88C-25.76 6.62-25.33 14.2-18.53 17.28-17.53 16.86-16.55 16.41-15.58 15.95-11.8 14.16-7.71 12.9-4.89 9.7-2.64 7.15-.47 1.89 0 0M-10.55 8.23C-13 10-15.42 6.17-12.61 5.29-10.52 4.63-9.68 6.88-10.55 8.23" fill="#712d06"/>
<path transform="matrix(1,0,0,-1,777.8163,348.25856)" d="M0 0C.04 .25 .01 .5-.09 .73-.17 .69-.24 .66-.3 .63-.32 .77-.35 .93-.38 1.12-.66 .98-.89 .87-1.12 .74-1.14 .77-1.17 .8-1.19 .83-1.47 .74-1.54 .63-1.51 .53-1.6 .47-1.7 .4-1.8 .33-1.76-.01-1.63-.3-1.41-.52-1.44-.56-1.46-.62-1.49-.67-1.42-.65-1.36-.63-1.3-.61-1.26-.66-1.22-.69-1.17-.72-1.14-.66-1.12-.61-1.09-.56-.66-.45-.42-.39-.3-.29-.21-.42-.13-.44 0 0M.71 1.48C1.58 .13 .74-2.12-1.35-1.46-4.16-.58-1.74 3.25 .71 1.48" fill="#712d06"/>
<path transform="matrix(1,0,0,-1,759.7963,334.68849)" d="M0 0C3.66-.41 7.29-1.58 10.75-3.04 3.95-6.12 3.52-13.7 8.2-18.44L8.12-18.66C1.86-16.36-4.5-12.59-8.36-8.65L-8.67-8.79C-9.69-6.66-10.65-4.49-11.5-2.3L-11.37-2.25C-7.22-1.33-4.39 .49 0 0" fill="#ffffff"/>
<path transform="matrix(1,0,0,-1,758.9664,935.14859)" d="M0 0C-2.34-.89-3.24-3.63-4.88-5.36-7.38-7.99-11.08-10.65-14.3-12.44-16.96-13.93-20.65-16.15-23.73-15.16-25.97-14.44-30.56-8.93-30.12-8.66L-30.42-8.23C-24.02-3.66-13.03 4.55-5.09 3.03-2.7 2.57-1.06 1.49 0 0" fill="#eb996a"/>
<path transform="matrix(1,0,0,-1,751.7164,466.74855)" d="M0 0-.15-.21C-.45-.21-.74-.22-1.02-.25L-1.04 .3C-4.74 .69-8.74 .21-12.65-.15L-12.66-.07C-11.67 2.96-17.04 2.54-18.73 2.61L-18.76 2.59C-18.77 2.62-18.79 2.64-18.81 2.67-19.12 3.06-19.61 3.33-20.19 3.51L-20 4.02C-19.74 6.61-20.06 8.75-20.56 11.36L-20.55 11.39C-19.25 10.79-17.96 10.38-17.38 10.73-16.76 11.1-16.6 13.21-16.61 13.9L-16.54 13.98C-16.07 13.56-15.58 13.12-15.07 12.65-10.82 8.72-6.65 4.99-2.16 1.81-1.47 1.15-.75 .54 0 0" fill="#712d06"/>
<path transform="matrix(1,0,0,-1,661.1663,440.43855)" d="M0 0C6.1-1.45 12.69-3.92 19.09-6.73 21.49-7.79 23.87-8.9 26.18-10.02 28.6-11.19 30.96-12.38 33.2-13.54 34.29-14.1 35.35-14.65 36.38-15.2 37.76-15.94 39.08-16.7 40.38-17.47 42.87-18.95 45.28-20.43 47.85-21.69 49.6-22.54 51.43-23.28 53.41-23.85 54.64-24.2 55.9-24.53 57.18-24.84 59.42-25.38 61.74-25.84 64.06-26.18 66.66-26.56 69.28-26.79 71.82-26.8 72.55-26.81 73.28-26.79 74-26.76 75.28-26.7 76.58-26.59 77.9-26.46 81.81-26.1 85.81-25.62 89.51-26.01L89.53-26.56C85.04-26.9 81.9-29.84 77.76-31.56 65.74-36.55 51.1-34.28 39.22-29.29 32.67-26.54 27.37-21.76 22.08-17.16 18.91-14.4 15.77-11.55 12.54-8.87 8.87-5.83 1.05-3.37-1.59 .16V.35C-1.5 .35-1.41 .34-1.31 .34V.3C-.88 .21-.44 .11 0 0" fill="#eb996a"/>
<path transform="matrix(1,0,0,-1,738.2563,448.06855)" d="M0 0C3.47-5.68 6.71-12.44 11.3-16.87 6.81-13.69 2.64-9.96-1.61-6.03-2.12-5.56-2.61-5.12-3.08-4.7-5.24-2.83-7.15-1.45-9.42-.49-10.96 .16-12.66 .62-14.7 .91-17.7 1.34-19.82 2.35-21.87 3.55-23.92 4.76-25.88 6.14-28.53 7.33-30.63 8.26-33.13 8.68-35.74 8.86-39.23 9.12-42.91 8.96-46.05 9.07-46.26 9.07-46.47 9.08-46.68 9.09-51.07 9.3-55.23 9.55-59.67 9.11-64.27 8.65-72.03 6.91-77.09 7.63-77.53 7.74-77.97 7.84-78.4 7.93V7.97C-72.45 7.76-63 11.42-58.82 12.88-54.04 14.54-48.92 16.45-43.96 17.4-34.4 19.23-25.37 17.64-19.58 9.86-16.29 8.57-12.74 10.23-9.22 8.91-4.85 7.26-2.44 3.98 0 0" fill="#eb996a"/>
<path transform="matrix(1,0,0,-1,732.9863,464.13856)" d="M0 0C1.69-.07 7.06 .35 6.07-2.68L6.08-2.76C4.76-2.89 3.46-3 2.18-3.06 1.46-3.09 .73-3.11 0-3.1V-2.96C-.08-2.45 .47-.79-.03-.02Z" fill="#ffffff"/>
<path transform="matrix(1,0,0,-1,735.1763,452.76856)" d="M0 0-.07-.08C-.06-.77-.22-2.88-.84-3.25-1.42-3.6-2.71-3.19-4.01-2.59-5.5-1.91-7.02-.98-7.55-.64H-7.76C-7.46 1.23-7.44 3.92-6.42 4.02L-6.34 4.21C-4.07 3.25-2.16 1.87 0 0" fill="#ffffff"/>
<path transform="matrix(1,0,0,-1,732.9564,464.1585)" d="M0 0C.5-.77-.05-2.43 .03-2.94V-3.08C-2.51-3.07-5.13-2.84-7.73-2.46V-2.45C-7.48-1-7.03 .54-7.29 1.63L-7.24 1.64C-5.92 1.32-3.22 1.51-1.43 .92-.85 .74-.36 .47-.05 .08-.03 .05-.01 .03 0 0" fill="#ffffff"/>
<path transform="matrix(1,0,0,-1,731.1564,455.38856)" d="M0 0C.5-2.61 .82-4.75 .56-7.34L.37-7.85C-1.42-7.26-4.12-7.45-5.44-7.13L-5.49-7.14C-5.52-7-5.57-6.88-5.62-6.76-6.32-5.21-9.78-5.34-11.3-4.87H-11.35C-11.32-4.48-11.37-4.16-11.52-3.96-13.08-1.84-17.78-3.44-19.77-1.69L-20.19-1.62C-20.07-.6-20.41-.65-21.67-.14-23.61 .65-25.59 1.51-27.51 2.25-27.56 2.15-27.61 2.04-27.67 1.91L-27.82 1.98C-28.76 2.85-30.65 2.81-31.84 3.38-32.5 3.7-33.89 4.93-34.6 4.67L-34.73 4.94C-36.08 6.13-38.13 6.42-39.67 7.28-40.37 7.67-40.96 8.28-41.77 8.31L-42.08 8.61C-43.33 9.27-44.73 9.47-46.08 9.85-46.77 10.05-48.08 10.85-48.78 10.73-49.47 10.62-49.8 9.97-50.19 9.38-50.34 9.16-50.96 8.41-50.82 8.41L-50.9 8.22C-57.3 11.03-63.89 13.5-69.99 14.95-64.93 14.23-57.17 15.97-52.57 16.43-48.13 16.87-43.97 16.62-39.58 16.41-39.37 16.4-39.16 16.39-38.95 16.39V16.38C-39.09 12-33.29 13.31-30.55 12.64H-30.47C-30.53 12.08-30.31 11.55-29.56 11.02-26.77 9.05-23.06 7.87-19.98 6.41-18.91 5.91-18.01 5.23-17.3 5.23H-16.24C-13.78 3.15-9.82 2.34-6.87 1.16-6.41 .97-4.95 .03-4.45 .28-4.08 .46-3.88 1.13-3.74 1.98H-3.53C-3 1.64-1.48 .71 .01 .03Z" fill="#c14c0a"/>
<path transform="matrix(1,0,0,-1,728.8364,448.55854)" d="M0 0-.08-.19C-1.1-.29-1.12-2.98-1.42-4.85-1.56-5.7-1.76-6.37-2.13-6.55-2.63-6.8-4.09-5.86-4.55-5.67-7.5-4.49-11.46-3.68-13.92-1.6H-14.98C-14.46-1.6-14.04-1.25-13.73-.22-13.39 .91-12.52 2.67-12.51 3.76L-12.45 4.04C-10.4 2.84-8.28 1.83-5.28 1.4-3.24 1.11-1.54 .65 0 0" fill="#ffffff"/>
<path transform="matrix(1,0,0,-1,725.6663,462.52857)" d="M0 0C.26-1.09-.19-2.63-.44-4.08V-4.09C-2.76-3.75-5.08-3.29-7.32-2.75L-7.22-2.32C-7.05-1.61-5.95 .82-5.86 2.27H-5.81C-4.29 1.8-.83 1.93-.13 .38-.08 .26-.03 .14 0 0" fill="#ffffff"/>
<path transform="matrix(1,0,0,-1,719.6364,459.3485)" d="M0 0C.15-.2 .2-.52 .17-.91 .08-2.36-1.02-4.79-1.19-5.5L-1.29-5.93C-2.57-5.62-3.83-5.29-5.06-4.94-7.04-4.37-8.87-3.63-10.62-2.78L-10.51-2.53C-10.5-.93-8.99 .38-8.73 1.95-8.71 2.1-8.69 2.23-8.67 2.34L-8.25 2.27C-6.26 .52-1.56 2.12 0 0" fill="#ffffff"/>
<path transform="matrix(1,0,0,-1,717.1763,336.63856)" d="M0 0C1.2-11.97-7.72-5.45-9.6 2.52L-9.73 3.55C-6.79 3.9-4.12 4.81-1.13 5.72L-.55 5.78C-.32 3.66-.17 1.65 0 0" fill="#eb996a"/>
<path transform="matrix(1,0,0,-1,716.6263,330.85853)" d="M0 0-.58-.06C-3.57-.97-6.24-1.88-9.18-2.23-10.48-2.39-11.84-2.43-13.3-2.32-18.41-1.93-23.73-.73-28.9 .3L-28.82 .7C-34.78 4.98-34.87 21.91-26.56 22.53L-26.54 22.57C-25.08 22.04-23.65 21.51-22.25 21.03-16.42 19.02-8.01 18.34-3.97 13.35-1.46 10.25-.52 4.83 0 0M-16.63 11.21C-20 10.74-18.48 5.94-15.81 7.12-13.76 8.03-14.87 10.85-16.63 11.21" fill="#712d06"/>
<path transform="matrix(1,0,0,-1,716.3864,444.51856)" d="M0 0-.06-.28C-.07-1.37-.94-3.13-1.28-4.26-1.59-5.29-2.01-5.64-2.53-5.64-3.24-5.64-4.14-4.96-5.21-4.46-8.29-3-12-1.82-14.79 .15-15.54 .68-15.76 1.21-15.7 1.77-15.58 2.8-14.48 3.88-13.89 5.09L-13.87 5.31C-11.26 5.13-8.76 4.71-6.66 3.78-4.01 2.59-2.05 1.21 0 0" fill="#ffffff"/>
<path transform="matrix(1,0,0,-1,709.4863,455.52857)" d="M0 0C1.26-.51 1.6-.46 1.48-1.48 1.46-1.59 1.44-1.72 1.42-1.87 1.16-3.44-.35-4.75-.36-6.35L-.47-6.6C-3.04-5.34-5.45-3.86-7.94-2.38L-7.91-2.33C-7.53-.93-6.53 .96-6 2.05-5.94 2.18-5.89 2.29-5.84 2.39-3.92 1.65-1.94 .79 0 0" fill="#ffffff"/>
<path transform="matrix(1,0,0,-1,703.3364,453.4085)" d="M0 0 .15-.07C-.38-1.16-1.38-3.05-1.76-4.45L-1.79-4.5C-3.09-3.73-4.41-2.97-5.79-2.23-6.82-1.68-7.88-1.13-8.97-.57L-8.61 0C-8.24 .39-7.57 2.4-6.78 2.69-6.07 2.95-4.68 1.72-4.02 1.4-2.83 .83-.94 .87 0 0" fill="#ffffff"/>
<path transform="matrix(1,0,0,-1,702.5164,439.20857)" d="M0 0-.02-.22C-.61-1.43-1.71-2.51-1.83-3.54H-1.91C-4.65-2.87-10.45-4.18-10.31 .2V.21C-7.17 .1-3.49 .26 0 0" fill="#ffffff"/>
<path transform="matrix(1,0,0,-1,699.9963,319.64857)" d="M0 0C1.76-.36 2.87-3.18 .82-4.09-1.85-5.27-3.37-.47 0 0M-.87-.94C-.81-1.05-.51-1.2-.52-1.45-1.05-1.66-1.35-2.26-.74-2.8-.56-3.49 .08-4.03 1.34-3.43 1.33-3 1.26-2.64 1.15-2.36 1.26-2.29 1.34-2.25 1.34-2.25 1.07-1.87 .82-1.61 .59-1.44 .4-1.09 .15-1.02-.18-1.21-.18-1.22-.17-1.24-.17-1.25-.2-1.25-.23-1.26-.25-1.28H-.26C-.4-1.13-.52-.96-.63-.77-.86-.82-.9-.87-.87-.94" fill="#712d06"/>
<path transform="matrix(1,0,0,-1,696.4263,450.44856)" d="M0 0 .13-.27C-.66-.56-1.33-2.57-1.7-2.96L-2.06-3.53C-4.3-2.37-6.66-1.18-9.08-.01L-9.04 .07C-8.62 .99-7.2 2.72-7.04 3.37-6.23 3.34-5.64 2.73-4.94 2.34-3.4 1.48-1.35 1.19 0 0" fill="#ffffff"/>
<path transform="matrix(1,0,0,-1,690.0864,308.28858)" d="M0 0-.02-.04C-8.33-.66-8.24-17.59-2.28-21.87L-2.36-22.27C-2.95-22.15-3.53-22.03-4.11-21.92-12.5-20.31-20.87-18.32-28.34-13.99-33-11.29-35.99-7.04-40.47-4.31-32.41-2.29-27.7 4.76-18.64 4.68-12.51 4.62-6.06 2.22 0 0" fill="#ffffff"/>
<path transform="matrix(1,0,0,-1,680.3364,446.97853)" d="M0 0C-.14 0 .48 .75 .63 .97 1.02 1.56 1.35 2.21 2.04 2.32 2.74 2.44 4.05 1.64 4.74 1.44 6.09 1.06 7.49 .86 8.74 .2L9.05-.1C8.89-.75 7.47-2.48 7.05-3.4L7.01-3.48C4.7-2.36 2.32-1.25-.08-.19Z" fill="#ffffff"/>
<path transform="matrix(1,0,0,-1,569.1663,326.0985)" d="M0 0C-.74-.15-1.3-.67-2.06-.68H-2.2C-9.46-2.05-11.85-11.54-10.7-17.63-9.56-23.65-9.82-25.41-10.61-31.25L-11.24-31.17C-12.89-28.69-19.68-28.8-23.55-32.26-24.17-24.02-24.32-16.27-26.49-8.15-29.71 3.93-37.3 20.15-26.79 30.67-7.39 50.11-3.69 10.95 0 0" fill="#96672f"/>
</g>
</g>
<path transform="matrix(1,0,0,-1,794.4163,334.5885)" stroke-width="1.7" stroke-linecap="round" stroke-linejoin="round" fill="none" stroke="#000000" d="M0 0C-.14-.22-.29-.44-.44-.66"/>
<path transform="matrix(1,0,0,-1,797.3663,270.5885)" stroke-width="1.7" stroke-linecap="round" stroke-linejoin="round" fill="none" stroke="#000000" d="M0 0C-2.42-5.08-3.61-10.78-3.99-16.62-4.44-23.61-3.72-30.81-2.52-37.41-.72-47.27 3.22-54.29-2.85-63.84"/>
<path transform="matrix(1,0,0,-1,795.1063,333.54859)" stroke-width="1.7" stroke-linecap="round" stroke-linejoin="round" fill="none" stroke="#000000" d="M0 0C-.21-.29-.41-.59-.59-.88-.63-.94-.66-.99-.69-1.04-4.94-7.69-5.16-14.42-4.4-21.29-3.72-27.59-2.21-34.02-2.22-40.61-2.24-51.91-5.92-67.85-14.68-75.67"/>
<path transform="matrix(1,0,0,-1,750.4963,305.31849)" stroke-width="1.7" stroke-linecap="round" stroke-linejoin="round" fill="none" stroke="#000000" d="M0 0C-7.91-9.68-6.38-20.95-2.2-31.67-1.35-33.86-.39-36.03 .63-38.16 2.44-41.94 4.41-45.6 6.22-49.03 13.55-62.9 21.11-76.36 26.56-91.11 28.03-95.08 29.27-99.56 29.23-103.89 29.2-107.83 28.1-111.66 25.13-114.86 24.18-115.88 23.24-116.73 22.29-117.4 15.38-122.43 8.5-119.01 1.13-115.76"/>
<path transform="matrix(1,0,0,-1,751.6263,419.9485)" stroke-width="1.7" stroke-linecap="round" stroke-linejoin="round" fill="none" stroke="#000000" d="M0 0C3.18-.34 6.43 3.38 5.39 6.51 3.7 11.63-8.92 12.46-13.09 13.06-17.38 13.68-34.21 11.79-23.38 5.65-32.15 .34-47.51 9.27-45.46 20.07-43.04 32.83-27.05 23.03-20.9 30.49"/>
<path transform="matrix(1,0,0,-1,773.0764,422.2085)" stroke-width="1.7" stroke-linecap="round" stroke-linejoin="round" fill="none" stroke="#000000" d="M0 0C-.1-.17-.19-.34-.29-.51-7.83-13.92-11.16-27.5-14.24-42.38-16.12-51.49-21.71-59.03-27.35-66.21-34.94-75.86-49.29-93.38-62.78-95.32-63.13-95.37-63.47-95.41-63.81-95.44"/>
<path transform="matrix(1,0,0,-1,555.1063,409.2185)" stroke-width="1.7" stroke-linecap="round" stroke-linejoin="round" fill="none" stroke="#000000" d="M0 0C4.79-15.19 4.23-29.6 13.57-43.45 22.54-56.74 36.43-65.59 49.15-74.98 59.13-82.33 72.21-91.93 82.48-96.34 82.66-96.42 82.83-96.5 83.01-96.57"/>
<path transform="matrix(1,0,0,-1,638.6763,499.00856)" stroke-width="1.7" stroke-linecap="round" stroke-linejoin="round" fill="none" stroke="#000000" d="M0 0C-1.06-2.39-1.37-4.57-1.09-6.55 .59-18.44 23.68-23.47 37.58-25.52 40.91-26.01 43.72-26.34 45.57-26.54 57.64-27.87 65.89-27.31 71.62-18.52 72.46-17.24 73.25-15.78 73.98-14.12"/>
<path transform="matrix(1,0,0,-1,676.2363,524.69857)" stroke-width="1.7" stroke-linecap="round" stroke-linejoin="round" fill="none" stroke="#000000" d="M0 0C-1.58-2.73-3.3-4.28-4.94-6.94-7.57-11.19-6.34-13.57-7.61-18.1-9.05-23.26-14.17-25.61-16.43-30.98-17.88-34.44-19.89-39.78-20.98-44-21.41-45.67-21.69-47.16-21.74-48.29"/>
<path transform="matrix(1,0,0,-1,578.2563,305.31849)" stroke-width="1.7" stroke-linecap="round" stroke-linejoin="round" fill="none" stroke="#000000" d="M0 0C-1.15 23.09-23.27 39.51-42.93 23.47-57.5 11.59-56.64-12.11-50.84-27.95-47.48-37.14-42.17-45.49-41.08-55.35-40.49-60.75-40.57-65.91-38.81-71.16-38.44-72.27-38.05-73.41-37.58-74.51-36.29-77.59-34.43-80.34-30.82-81.2-25.56-82.44-21.22-78.93-20.89-73.97"/>
<path transform="matrix(1,0,0,-1,566.9664,326.77857)" stroke-width="1.7" stroke-linecap="round" stroke-linejoin="round" fill="none" stroke="#000000" d="M0 0C-7.26-1.37-9.65-10.86-8.5-16.95-7.36-22.97-7.62-24.73-8.41-30.57-8.43-30.73-8.45-30.89-8.47-31.05"/>
<path transform="matrix(1,0,0,-1,567.1063,326.77857)" stroke-width="1.7" stroke-linecap="round" stroke-linejoin="round" fill="none" stroke="#000000" d="M0 0C.76 .01 1.32 .53 2.06 .68-1.63 11.63-5.33 50.79-24.73 31.35-35.24 20.83-27.65 4.61-24.43-7.47-22.26-15.59-22.11-23.34-21.49-31.58-17.62-28.12-10.83-28.01-9.18-30.49"/>
<path transform="matrix(1,0,0,-1,717.4564,205.92859)" stroke-width="1.7" stroke-linecap="round" stroke-linejoin="round" fill="none" stroke="#000000" d="M0 0C9.6-7.9 15.19-13.31 21.6-24 24.99-29.65 27.14-35.82 28.66-40.66 30.34-36.27 32.13-30.43 31.83-25.5 34.88-31.83 39.9-36.87 42.76-43.41 44.69-39.83 46.23-34.92 47.06-30.92 47.37-29.37 46.82-23.62 48.23-22.67 52.2-20.01 60.46-27.17 62.86-29.37 69.06-35.05 83.67-51.59 79.98-64.68 79.96-64.77 79.94-64.85 79.91-64.94"/>
<path transform="matrix(1,0,0,-1,804.7563,246.60852)" stroke-width="1.7" stroke-linecap="round" stroke-linejoin="round" fill="none" stroke="#000000" d="M0 0C.53-6.19 2.05-12.38 1.6-18.59 1.14-24.88-.24-31.64-1.86-37.62-2.99-35.19-3.87-32.63-4.59-30.04-4.99-32.79-10.23-41.4-10.78-40.64"/>
<path transform="matrix(1,0,0,-1,717.4564,205.92859)" stroke-width="1.7" stroke-linecap="round" stroke-linejoin="round" fill="none" stroke="#000000" d="M0 0C-13.55 11.86-42.94 8.47-61.33-2.74-75.35-11.3-88.97-23.08-94.9-38.73-99.44-50.71-99.68-62.2-101.56-74.36-103.85-70.74-105.82-66.21-109.18-63.53-109.33-71.8-106.64-80.53-105.38-88.48-108.61-86.52-111.18-83.23-114.24-81.39-117.87-90.55-117.39-102.19-120.37-111.68-123.64-107.45-125.35-101.59-128.5-97.76-130.71-103.42-132.27-109.46-134.23-115.2-138.43-110.6-137.91-104.95-139.2-99.39"/>
<path transform="matrix(1,0,0,-1,649.9763,277.0785)" stroke-width="1.7" stroke-linecap="round" stroke-linejoin="round" fill="none" stroke="#000000" d="M0 0C1-1.53 2.19-2.93 3.28-4.38 3.06-2.98 3.25-1.41 2.87 .06 4.14-1.51 5.51-3.53 7.28-4.55 6.98-3.07 7.29-1.12 6.82 .38 8-.7 9.62-3.05 11.23-4.44 11.17-2.26 10.76-.04 10.76 2.15 12.01 .13 13.2-1.98 14.64-3.84 14.37-1.69 14.13 .49 14.04 2.64 14.97 .37 16.16-1.91 17.6-3.77 18.04-1.03 17.17 1.73 16.99 4.38 18.33 2.07 19.42-.38 20.52-2.81 21.23-.53 21 2.47 20.36 4.98 21.81 2.22 22.49-.81 24.24-3.3 24.27-.44 23.6 2.41 23.78 5.28 25.61 2.57 26.53-.96 28.16-3.86 28.16-1.3 28.16 1.33 28.88 3.76 30.05 1.05 30.86-1.85 32.11-4.45 32.44-1.2 31.4 1.93 31.1 5.14 32.95 2.72 33.51-1.53 34.92-4.52 35-1.85 34.49 .82 34.53 3.49 36.33 .94 36.81-3.21 38.78-6.05 39.2-3.27 38.51-.33 38.86 2.52 40.97-.08 41.19-3.83 42.89-6.5 42.45-2.78 41.41 .87 41.85 4.64 43.7 1.43 43.77-2.51 45.68-5.54 45.32-2.23 44.55 1.25 45.83 4.34 47.78 .52 47.75-3.89 49-7.93 49.41-4.1 49.49-.16 50.4 3.59 51.52 .02 50.95-4.37 52.41-7.82 52.59-3.76 52.05 .67 54.1 4.05 54.95-.08 53.57-6.49 55.78-9.71 56.4-5.88 56.01-1.77 57.47 1.84 58.63-2.7 57.31-7.75 58.56-12.1 59.36-7.98 59.97-3.83 61.14 .2 62.92-2.98 61.29-7.86 61.64-11.51 62.37-8.32 62.44-3.16 65.05-1.52 65.88-5.99 63.92-10.28 63.83-14.74 65.85-11.55 66.2-7.19 68.27-4.47 68.65-8.38 67.18-12.39 67.39-16.1 68.67-13 69.43-9.26 71.71-7.53 71.64-11.29 70.13-15.09 69.84-18.58 71.72-16.1 73.11-11.51 75.65-10.8 74.99-14.09 73.46-17.17 72.87-20.47 74.71-17.87 76.06-14.84 78.61-12.75 79.61-15.57 75.38-20.02 74.26-22.92 73.87-22.56 73.97-22.07 74.54-21.46"/>
<path transform="matrix(1,0,0,-1,793.4963,332.27857)" stroke-width="1.7" stroke-linecap="round" stroke-linejoin="round" fill="none" stroke="#000000" d="M0 0C-.02 .13-.04 .27-.09 .42"/>
<path transform="matrix(1,0,0,-1,793.4963,332.27857)" stroke-width="1.7" stroke-linecap="round" stroke-linejoin="round" fill="none" stroke="#000000" d="M0 0C-.13-.42-.27-.84-.42-1.25-.08-.93 .06-.51 0 0Z"/>
<path transform="matrix(1,0,0,-1,765.1763,306.4485)" stroke-width="1.7" stroke-linecap="round" stroke-linejoin="round" fill="none" stroke="#000000" d="M0 0C-1.3-3.39-1.68-7.02-1.77-10.63-.95-7.07 .49-3.21 2.66-.48 1.85-4.19 .82-7.92 .6-11.71 2.35-7.87 3.56-3.64 5.91-.13 6.18-4.44 4.6-8.58 4.42-12.89 6.22-9.65 7.17-6.05 9.03-2.86 9.76-6.55 8.42-10.97 7.94-14.83 9.94-12.61 10.64-9.45 12.55-7.05 13.07-10.33 12.02-13.68 11.89-16.95 13.69-14.48 14.53-11.54 15.87-8.84 16.86-11.55 15.8-15.2 15.29-18.16 17.09-16.25 17.8-13.43 19.85-11.59 20.84-14.31 18.63-17.26 18.67-20.22 19.6-18.07 20.65-15.92 22.58-14.55 22.92-16.68 21.49-19.67 20.9-22.12 22.64-20.46 23.89-17.91 25.94-17.02 25.58-19.44 24.67-21.73 24.27-24.15 25.69-22.51 27.09-20.76 28.72-19.29 29.31-21.38 28.97-23.67 28.32-25.83"/>
<path transform="matrix(1,0,0,-1,649.4064,312.65858)" stroke-width="1.7" stroke-linecap="round" stroke-linejoin="round" fill="none" stroke="#000000" d="M0 0C.07 .02 .14 .03 .21 .06 8.27 2.08 12.98 9.13 22.04 9.05 28.17 8.99 34.62 6.59 40.68 4.37 42.14 3.84 43.57 3.31 44.97 2.83 50.8 .82 59.21 .14 63.25-4.85 65.76-7.95 66.7-13.37 67.22-18.2 67.45-20.32 67.6-22.33 67.77-23.98 68.97-35.95 60.05-29.43 58.17-21.46"/>
<path transform="matrix(1,0,0,-1,649.4064,312.4685)" stroke-width="1.7" stroke-linecap="round" stroke-linejoin="round" fill="none" stroke="#000000" d="M0 0C.07-.04 .14-.09 .21-.13 4.69-2.86 7.68-7.11 12.34-9.81 19.81-14.14 28.18-16.13 36.57-17.74 37.15-17.85 37.73-17.97 38.32-18.09 43.49-19.12 48.81-20.32 53.92-20.71 55.38-20.82 56.74-20.78 58.04-20.62 60.98-20.27 63.65-19.36 66.64-18.45"/>
<path transform="matrix(1,0,0,-1,751.4363,343.3385)" stroke-width="1.7" stroke-linecap="round" stroke-linejoin="round" fill="none" stroke="#000000" d="M0 0C3.86-3.94 10.22-7.71 16.48-10.01 18.45-10.73 20.4-11.31 22.27-11.7 24.97-12.27 36.13-14.07 37.27-12.05"/>
<path transform="matrix(1,0,0,-1,748.4263,336.93849)" stroke-width="1.7" stroke-linecap="round" stroke-linejoin="round" fill="none" stroke="#000000" d="M0 0C4.15 .92 6.98 2.74 11.37 2.25 15.03 1.84 18.66 .67 22.12-.79 23.12-1.21 24.1-1.66 25.07-2.12 28.85-3.91 32.94-5.17 35.76-8.37 38.01-10.92 40.18-16.18 40.65-18.07"/>
<path transform="matrix(1,0,0,-1,690.0663,308.3285)" stroke-width="1.7" stroke-linecap="round" stroke-linejoin="round" fill="none" stroke="#000000" d="M0 0C-8.31-.62-8.22-17.55-2.26-21.83"/>
<path transform="matrix(1,0,0,-1,699.9963,319.64857)" stroke-width="1.7" stroke-linecap="round" stroke-linejoin="round" fill="none" stroke="#000000" d="M0 0C-.04 .02-.09 .02-.14 .03"/>
<path transform="matrix(1,0,0,-1,699.9963,319.64857)" stroke-width="1.7" stroke-linecap="round" stroke-linejoin="round" fill="none" stroke="#000000" d="M0 0C-3.37-.47-1.85-5.27 .82-4.09 2.87-3.18 1.76-.36 0 0Z"/>
<path transform="matrix(1,0,0,-1,700.2363,319.61854)" stroke-width="1.7" stroke-linecap="round" stroke-linejoin="round" fill="none" stroke="#000000" d="M0 0C-.08-.01-.16-.01-.24-.03"/>
<path transform="matrix(1,0,0,-1,770.6364,337.68849)" stroke-width="1.7" stroke-linecap="round" stroke-linejoin="round" fill="none" stroke="#000000" d="M0 0C-.03-.01-.06-.03-.09-.04-6.89-3.12-7.32-10.7-2.64-15.44"/>
<path transform="matrix(1,0,0,-1,778.5264,346.77857)" stroke-width="1.7" stroke-linecap="round" stroke-linejoin="round" fill="none" stroke="#000000" d="M0 0C-.09 .16-.21 .3-.36 .43"/>
<path transform="matrix(1,0,0,-1,778.5264,346.77857)" stroke-width="1.7" stroke-linecap="round" stroke-linejoin="round" fill="none" stroke="#000000" d="M0 0C-2.45 1.77-4.87-2.06-2.06-2.94 .03-3.6 .87-1.35 0 0Z"/>
<path transform="matrix(1,0,0,-1,778.9163,347.0985)" stroke-width="1.7" stroke-linecap="round" stroke-linejoin="round" fill="none" stroke="#000000" d="M0 0C-.13 .12-.26 .23-.39 .32"/>
<path transform="matrix(1,0,0,-1,668.2363,342.9585)" stroke-width="1.7" stroke-linecap="round" stroke-linejoin="round" fill="none" stroke="#000000" d="M0 0C5.99-6.53 14.32-9.99 22.96-7.53"/>
<path transform="matrix(1,0,0,-1,766.8663,366.6786)" stroke-width="1.7" stroke-linecap="round" stroke-linejoin="round" fill="none" stroke="#000000" d="M0 0C4.1-4.92 10.93-5.27 15.81-1.88"/>
<path transform="matrix(1,0,0,-1,699.9763,322.0885)" stroke-width="1.7" stroke-linecap="round" stroke-linejoin="round" fill="none" stroke="#000000" d="M0 0C-.04 .11-.06 .2-.08 .29-.11 .52-.07 .73-.13 1.07-.13 1.11-.14 1.15-.15 1.19-.15 1.2-.16 1.22-.16 1.23 .17 1.42 .42 1.35 .61 1 .62 .99 .62 .97 .63 .96"/>
<path transform="matrix(1,0,0,-1,699.7463,320.9286)" stroke-width="1.7" stroke-linecap="round" stroke-linejoin="round" fill="none" stroke="#000000" d="M0 0C.02 .02 .05 .03 .08 .03 .29 .09 .55 .04 .84-.16 1.07-.33 1.32-.59 1.59-.97 1.59-.97 1.51-1.01 1.4-1.08 1.08-1.24 .48-1.56 .47-1.57 .36-1.42 .29-1.29 .24-1.18"/>
<path transform="matrix(1,0,0,-1,699.5363,321.06849)" stroke-width="1.7" stroke-linecap="round" stroke-linejoin="round" fill="none" stroke="#000000" d="M0 0C.06 .07 .12 .11 .2 .14"/>
<path transform="matrix(1,0,0,-1,699.9863,322.10853)" stroke-width="1.7" stroke-linecap="round" stroke-linejoin="round" fill="none" stroke="#000000" d="M0 0C.05-.21 .09-.45 .18-.85-.23-.7-.53-.52-.73-.34-1.34 .2-1.04 .8-.51 1.01-.5 1.02-.48 1.02-.47 1.03-.46 1.03-.45 1.03-.45 1.04-.35 1.07-.25 1.09-.14 1.09 .34 1.13 .88 .87 1.16 .1 1.27-.18 1.34-.54 1.35-.97 .09-1.57-.55-1.03-.73-.34-.86 .13-.77 .67-.51 .98-.5 1-.48 1.02-.47 1.03"/>
<path transform="matrix(1,0,0,-1,699.9863,322.10853)" stroke-width="1.7" stroke-linecap="round" stroke-linejoin="round" fill="none" stroke="#000000" d="M0 0V.01 .02"/>
<path transform="matrix(1,0,0,-1,700.2363,321.87855)" stroke-width="1.7" stroke-linecap="round" stroke-linejoin="round" fill="none" stroke="#000000" d="M0 0C-.09-.09-.17-.16-.25-.21H-.26C-.49-.35-.67-.29-.82-.05-.85 .22-.8 .48-.69 .72-.5 .43-.4 .25-.34 .08-.3-.02-.27-.11-.25-.21"/>
<path transform="matrix(1,0,0,-1,777.5164,348.53858)" stroke-width="1.7" stroke-linecap="round" stroke-linejoin="round" fill="none" stroke="#000000" d="M0 0C-.08 .12-.17 .32-.32 .34-.37 .36-.42 .35-.48 .31"/>
<path transform="matrix(1,0,0,-1,777.5164,348.54859)" stroke-width="1.7" stroke-linecap="round" stroke-linejoin="round" fill="none" stroke="#000000" d="M0 0C-.12-.1-.36-.16-.79-.27-.85-.29-.92-.31-1-.32-1.06-.34-1.12-.36-1.19-.38-1.16-.33-1.14-.27-1.11-.23-.98 .04-.9 .22-.82 .35-.74 .48-.67 .56-.53 .65-.41 .72-.25 .8 0 .92 .06 .95 .13 .98 .21 1.02 .31 .79 .34 .54 .3 .29 .17-.15 .09-.13 0 0"/>
<path transform="matrix(1,0,0,-1,777.5164,348.54859)" stroke-width="1.7" stroke-linecap="round" stroke-linejoin="round" fill="none" stroke="#000000" d="M0 0V.01"/>
<path transform="matrix(1,0,0,-1,776.6564,348.22853)" stroke-width="1.7" stroke-linecap="round" stroke-linejoin="round" fill="none" stroke="#000000" d="M0 0C.02 .01 .03 .03 .03 .04 .03 .14-.31 .31-.35 .5-.38 .6-.31 .71-.03 .8-.01 .77 .02 .74 .04 .71 .16 .55 .25 .43 .33 .33 .47 .15 .53 .08 .54 .03 .56-.06 .34-.05 .07-.59 .04-.64 .02-.69-.01-.75-.06-.72-.1-.69-.14-.64-.18-.62-.21-.59-.25-.55-.47-.33-.6-.04-.64 .3-.54 .37-.44 .44-.35 .5-.22 .58-.09 .65 .04 .71 .27 .84 .5 .95 .78 1.09 .81 .9 .84 .74 .86 .6 .96 .03 1.02-.19 .86-.31"/>
<path transform="matrix(1,0,0,-1,700.9863,388.51856)" stroke-width="1.7" stroke-linecap="round" stroke-linejoin="round" fill="none" stroke="#000000" d="M0 0C-4.37-11.64-17.45-14.32-28.06-17.83-38.83-21.38-50.84-29.68-56.85-39.53"/>
<path transform="matrix(1,0,0,-1,699.4763,321.12855)" stroke-width="1.7" stroke-linecap="round" stroke-linejoin="round" fill="none" stroke="#000000" d="M0 0V.03C.01 .28-.29 .43-.35 .54-.38 .61-.34 .66-.11 .71 0 .52 .12 .35 .26 .2H.27C.28 .18 .3 .16 .32 .14 .3 .16 .28 .17 .26 .2-.15 .54-.02 .65-.35 .54-.43 .52-.54 .48-.7 .43-.01 1.63 .06 .68 .76 .38"/>
<path transform="matrix(1,0,0,-1,718.6763,438.20857)" stroke-width="1.7" stroke-linecap="round" stroke-linejoin="round" fill="none" stroke="#000000" d="M0 0C-5.79 7.78-14.82 9.37-24.38 7.54-29.34 6.59-34.46 4.68-39.24 3.02-43.42 1.56-52.87-2.1-58.82-1.89-58.92-1.89-59.01-1.88-59.1-1.88"/>
<path transform="matrix(1,0,0,-1,718.6763,438.20857)" stroke-width="1.7" stroke-linecap="round" stroke-linejoin="round" fill="none" stroke="#000000" d="M0 0C3.29-1.29 6.84 .37 10.36-.95 14.73-2.6 17.14-5.88 19.58-9.86 23.05-15.54 26.29-22.3 30.88-26.73 31.57-27.39 32.29-28 33.04-28.54 33.07-28.57 33.1-28.59 33.13-28.61"/>
<path transform="matrix(1,0,0,-1,659.7164,440.13856)" stroke-width="1.7" stroke-linecap="round" stroke-linejoin="round" fill="none" stroke="#000000" d="M0 0C.45-.13 .93-.23 1.45-.3 6.51-1.02 14.27 .72 18.87 1.18 23.31 1.62 27.47 1.37 31.86 1.16 32.07 1.15 32.28 1.14 32.49 1.14 35.63 1.03 39.31 1.19 42.8 .93 45.41 .75 47.91 .33 50.01-.6 52.66-1.79 54.62-3.17 56.67-4.38 58.72-5.58 60.84-6.59 63.84-7.02 65.88-7.31 67.58-7.77 69.12-8.42 71.39-9.38 73.3-10.76 75.46-12.63 75.93-13.05 76.42-13.49 76.93-13.96 81.18-17.89 85.35-21.62 89.84-24.8"/>
<path transform="matrix(1,0,0,-1,659.8563,440.13856)" stroke-width="1.7" stroke-linecap="round" stroke-linejoin="round" fill="none" stroke="#000000" d="M0 0C.43-.09 .87-.19 1.31-.3 7.41-1.75 14-4.22 20.4-7.03 22.8-8.09 25.18-9.2 27.49-10.32 29.91-11.49 32.27-12.68 34.51-13.84 35.6-14.4 36.66-14.95 37.69-15.5 39.07-16.24 40.39-17 41.69-17.77 44.18-19.25 46.59-20.73 49.16-21.99 50.91-22.84 52.74-23.58 54.72-24.15 55.95-24.5 57.21-24.83 58.49-25.14 60.73-25.68 63.05-26.14 65.37-26.48 67.97-26.86 70.59-27.09 73.13-27.1 73.86-27.11 74.59-27.09 75.31-27.06 76.59-27 77.89-26.89 79.21-26.76 83.12-26.4 87.12-25.92 90.82-26.31"/>
<path transform="matrix(1,0,0,-1,659.5764,440.27857)" stroke-width="1.7" stroke-linecap="round" stroke-linejoin="round" fill="none" stroke="#000000" d="M0 0C2.64-3.53 10.46-5.99 14.13-9.03 17.36-11.71 20.5-14.56 23.67-17.32 28.96-21.92 34.26-26.7 40.81-29.45 52.69-34.44 67.33-36.71 79.35-31.72 83.49-30 86.63-27.06 91.12-26.72 91.4-26.69 91.69-26.68 91.99-26.68H92.19"/>
<path transform="matrix(1,0,0,-1,702.4963,439.42854)" stroke-width="1.7" stroke-linecap="round" stroke-linejoin="round" fill="none" stroke="#000000" d="M0 0C-.59-1.21-1.69-2.29-1.81-3.32-1.87-3.88-1.65-4.41-.9-4.94 1.89-6.91 5.6-8.09 8.68-9.55 9.75-10.05 10.65-10.73 11.36-10.73 11.88-10.73 12.3-10.38 12.61-9.35 12.95-8.22 13.82-6.46 13.83-5.37"/>
<path transform="matrix(1,0,0,-1,714.9163,450.1585)" stroke-width="1.7" stroke-linecap="round" stroke-linejoin="round" fill="none" stroke="#000000" d="M0 0C2.46-2.08 6.42-2.89 9.37-4.07 9.83-4.26 11.29-5.2 11.79-4.95 12.16-4.77 12.36-4.1 12.5-3.25 12.8-1.38 12.82 1.31 13.84 1.41"/>
<path transform="matrix(1,0,0,-1,727.6263,453.4085)" stroke-width="1.7" stroke-linecap="round" stroke-linejoin="round" fill="none" stroke="#000000" d="M0 0C.53-.34 2.05-1.27 3.54-1.95 4.84-2.55 6.13-2.96 6.71-2.61 7.33-2.24 7.49-.13 7.48 .56"/>
<path transform="matrix(1,0,0,-1,700.6063,442.74855)" stroke-width="1.7" stroke-linecap="round" stroke-linejoin="round" fill="none" stroke="#000000" d="M0 0C-2.74 .67-8.54-.64-8.4 3.74"/>
<path transform="matrix(1,0,0,-1,709.1263,461.87855)" stroke-width="1.7" stroke-linecap="round" stroke-linejoin="round" fill="none" stroke="#000000" d="M0 0C.01 1.6 1.52 2.91 1.78 4.48 1.8 4.63 1.82 4.76 1.84 4.87 1.96 5.89 1.62 5.84 .36 6.35-1.58 7.14-3.56 8-5.48 8.74-5.53 8.64-5.58 8.53-5.64 8.4-6.17 7.31-7.17 5.42-7.55 4.02"/>
<path transform="matrix(1,0,0,-1,711.3864,457.07856)" stroke-width="1.7" stroke-linecap="round" stroke-linejoin="round" fill="none" stroke="#000000" d="M0 0C1.99-1.75 6.69-.15 8.25-2.27 8.4-2.47 8.45-2.79 8.42-3.18 8.33-4.63 7.23-7.06 7.06-7.77"/>
<path transform="matrix(1,0,0,-1,719.8563,460.25856)" stroke-width="1.7" stroke-linecap="round" stroke-linejoin="round" fill="none" stroke="#000000" d="M0 0C1.52-.47 4.98-.34 5.68-1.89 5.73-2.01 5.78-2.13 5.81-2.27 6.07-3.36 5.62-4.9 5.37-6.35"/>
<path transform="matrix(1,0,0,-1,725.7164,462.51856)" stroke-width="1.7" stroke-linecap="round" stroke-linejoin="round" fill="none" stroke="#000000" d="M0 0C1.32-.32 4.02-.13 5.81-.72 6.39-.9 6.88-1.17 7.19-1.56 7.21-1.59 7.23-1.61 7.24-1.64 7.74-2.41 7.19-4.07 7.27-4.58"/>
<path transform="matrix(1,0,0,-1,732.9863,464.13856)" stroke-width="1.7" stroke-linecap="round" stroke-linejoin="round" fill="none" stroke="#000000" d="M0 0C1.69-.07 7.06 .35 6.07-2.68"/>
<path transform="matrix(1,0,0,-1,703.3364,453.4085)" stroke-width="1.7" stroke-linecap="round" stroke-linejoin="round" fill="none" stroke="#000000" d="M0 0C-.94 .87-2.83 .83-4.02 1.4-4.68 1.72-6.07 2.95-6.78 2.69-7.57 2.4-8.24 .39-8.61 0"/>
<path transform="matrix(1,0,0,-1,696.4263,450.44856)" stroke-width="1.7" stroke-linecap="round" stroke-linejoin="round" fill="none" stroke="#000000" d="M0 0C-1.35 1.19-3.4 1.48-4.94 2.34-5.64 2.73-6.23 3.34-7.04 3.37-7.2 2.72-8.62 .99-9.04 .07"/>
<path transform="matrix(1,0,0,-1,689.0764,446.77857)" stroke-width="1.7" stroke-linecap="round" stroke-linejoin="round" fill="none" stroke="#000000" d="M0 0C-1.25 .66-2.65 .86-4 1.24-4.69 1.44-6 2.24-6.7 2.12-7.39 2.01-7.72 1.36-8.11 .77-8.26 .55-8.88-.2-8.74-.2-8.72-.2-8.68-.18-8.61-.14"/>
<path transform="matrix(1,0,0,-1,731.1564,455.38856)" stroke-width="1.7" stroke-linecap="round" stroke-linejoin="round" fill="none" stroke="#000000" d="M0 0C.5-2.61 .82-4.75 .56-7.34"/>
<path transform="matrix(1,0,0,-1,698.8264,415.99855)" stroke-width="1.7" stroke-linecap="round" stroke-linejoin="round" fill="none" stroke="#000000" d="M0 0C-3.24-2.25-7.16-3.7-10.17-6.21"/>
<path transform="matrix(1,0,0,-1,707.8563,419.66859)" stroke-width="1.7" stroke-linecap="round" stroke-linejoin="round" fill="none" stroke="#000000" d="M0 0C-1.84-1.11-2.76-3.65-4.8-4.23"/>
<path transform="matrix(1,0,0,-1,719.4363,421.9286)" stroke-width="1.7" stroke-linecap="round" stroke-linejoin="round" fill="none" stroke="#000000" d="M0 0C-1.06-1.42-1.45-3.14-1.98-4.8"/>
<path transform="matrix(1,0,0,-1,727.3364,426.15858)" stroke-width="1.7" stroke-linecap="round" stroke-linejoin="round" fill="none" stroke="#000000" d="M0 0C-.75-1.65-1.29-3.54-1.13-5.37"/>
<path transform="matrix(1,0,0,-1,736.9363,429.54853)" stroke-width="1.7" stroke-linecap="round" stroke-linejoin="round" fill="none" stroke="#000000" d="M0 0V-7.63"/>
<path transform="matrix(1,0,0,-1,744.5663,435.19856)" stroke-width="1.7" stroke-linecap="round" stroke-linejoin="round" fill="none" stroke="#000000" d="M0 0V-7.9"/>
<path transform="matrix(1,0,0,-1,749.6464,439.42854)" stroke-width="1.7" stroke-linecap="round" stroke-linejoin="round" fill="none" stroke="#000000" d="M0 0C-.39-2.91-.28-5.83-.28-8.76"/>
<path transform="matrix(1,0,0,-1,754.4464,445.35853)" stroke-width="1.7" stroke-linecap="round" stroke-linejoin="round" fill="none" stroke="#000000" d="M0 0C-.62-3.12-1.37-8.02-.28-11.02"/>
<path transform="matrix(1,0,0,-1,579.9564,342.86854)" stroke-width="1.7" stroke-linecap="round" stroke-linejoin="round" fill="none" stroke="#000000" d="M0 0V-7.91"/>
<path transform="matrix(1,0,0,-1,576.5663,379.85853)" stroke-width="1.7" stroke-linecap="round" stroke-linejoin="round" fill="none" stroke="#000000" d="M0 0C.01-2.37-.02-4.7-.29-7.06"/>
<path transform="matrix(1,0,0,-1,591.2463,371.66859)" stroke-width="1.7" stroke-linecap="round" stroke-linejoin="round" fill="none" stroke="#000000" d="M0 0C.71-2.36 .56-4.91 .85-7.34"/>
<path transform="matrix(1,0,0,-1,590.1163,404.98854)" stroke-width="1.7" stroke-linecap="round" stroke-linejoin="round" fill="none" stroke="#000000" d="M0 0C0-2.63 .09-5.28-.28-7.9"/>
<path transform="matrix(1,0,0,-1,612.7064,412.04859)" stroke-width="1.7" stroke-linecap="round" stroke-linejoin="round" fill="none" stroke="#000000" d="M0 0C.05-2.46-.18-4.88-.28-7.34"/>
<path transform="matrix(1,0,0,-1,603.9564,426.72853)" stroke-width="1.7" stroke-linecap="round" stroke-linejoin="round" fill="none" stroke="#000000" d="M0 0V-9.6"/>
<path transform="matrix(1,0,0,-1,581.0764,428.98854)" stroke-width="1.7" stroke-linecap="round" stroke-linejoin="round" fill="none" stroke="#000000" d="M0 0C-.09-2.65 .66-5.24 .57-7.9"/>
<path transform="matrix(1,0,0,-1,593.2263,449.31855)" stroke-width="1.7" stroke-linecap="round" stroke-linejoin="round" fill="none" stroke="#000000" d="M0 0C.33-3.08 .58-6.21 .56-9.31"/>
<path transform="matrix(1,0,0,-1,624.2764,441.68855)" stroke-width="1.7" stroke-linecap="round" stroke-linejoin="round" fill="none" stroke="#000000" d="M0 0C.36-1.77 .33-3.58 .29-5.37"/>
<path transform="matrix(1,0,0,-1,614.3964,460.04853)" stroke-width="1.7" stroke-linecap="round" stroke-linejoin="round" fill="none" stroke="#000000" d="M0 0C-.07-2.71 .28-5.49 .57-8.18"/>
<path transform="matrix(1,0,0,-1,633.3163,477.82856)" stroke-width="1.7" stroke-linecap="round" stroke-linejoin="round" fill="none" stroke="#000000" d="M0 0C0-1.69-.23-3.51 .28-5.09"/>
<path transform="matrix(1,0,0,-1,645.1763,460.32856)" stroke-width="1.7" stroke-linecap="round" stroke-linejoin="round" fill="none" stroke="#000000" d="M0 0C-.01-2.8 .23-5.7-.28-8.47"/>
<path transform="matrix(1,0,0,-1,650.8264,487.7185)" stroke-width="1.7" stroke-linecap="round" stroke-linejoin="round" fill="none" stroke="#000000" d="M0 0C-.56-1.71-.36-3.61 0-5.36"/>
<path transform="matrix(1,0,0,-1,665.2263,471.89857)" stroke-width="1.7" stroke-linecap="round" stroke-linejoin="round" fill="none" stroke="#000000" d="M0 0V-6.5"/>
<path transform="matrix(1,0,0,-1,669.1763,503.80854)" stroke-width="1.7" stroke-linecap="round" stroke-linejoin="round" fill="none" stroke="#000000" d="M0 0C-.52-1.62-.28-3.4-.28-5.08"/>
<path transform="matrix(1,0,0,-1,686.1163,485.17854)" stroke-width="1.7" stroke-linecap="round" stroke-linejoin="round" fill="none" stroke="#000000" d="M0 0C0-2.32 .25-4.77-.28-7.05"/>
<path transform="matrix(1,0,0,-1,692.6063,511.14857)" stroke-width="1.7" stroke-linecap="round" stroke-linejoin="round" fill="none" stroke="#000000" d="M0 0C.04-1.52 .12-3.05-.28-4.52"/>
<path transform="matrix(1,0,0,-1,705.5964,490.5385)" stroke-width="1.7" stroke-linecap="round" stroke-linejoin="round" fill="none" stroke="#000000" d="M0 0C.08-2.27-.09-4.52-.28-6.78"/>
<path transform="matrix(1,0,0,-1,711.2463,501.26856)" stroke-width="1.7" stroke-linecap="round" stroke-linejoin="round" fill="none" stroke="#000000" d="M0 0C.07-1.51-.07-3.02-.28-4.52"/>
<path transform="matrix(1,0,0,-1,728.1863,493.35853)" stroke-width="1.7" stroke-linecap="round" stroke-linejoin="round" fill="none" stroke="#000000" d="M0 0C-.49-1.61-.75-3.41-.85-5.09"/>
<path transform="matrix(1,0,0,-1,735.5264,484.60853)" stroke-width="1.7" stroke-linecap="round" stroke-linejoin="round" fill="none" stroke="#000000" d="M0 0C.08-1.82-.57-3.58-.85-5.37"/>
<path transform="matrix(1,0,0,-1,804.7064,246.72852)" stroke-width="1.7" stroke-linecap="round" stroke-linejoin="round" fill="none" stroke="#000000" d="M0 0C0 .04 0 .08-.01 .12-.55 8.32-13.47 35.6-17.41 42.21-25.52 55.79-37.31 66.13-49.79 75.62-65.06 87.23-81.22 92.52-100.05 96.12-112.26 98.46-124.37 101.93-136.74 103.31-147.99 104.57-159.1 104.55-170.37 103.77-191.88 102.29-217.22 99.17-235.89 87.59-250.17 78.72-262.77 65.5-272.95 52.21-283 39.08-288.2 24.76-293.83 9.45-299.33-5.53-304.02-21.06-304.85-37.11-305.38-47.63-305.86-58.18-305.43-68.73-304.92-81.17-302.25-93.08-300.21-105.3-297.58-121.01-296.89-137.48-293.04-152.92-292.81-152.51-292.56-152.09-292.31-151.68-290.43-148.6-288.24-145.5-287.83-141.88-286.51-145.14-285.86-148.82-284.34-151.92-282.52-148.23-280.98-144.18-279.43-140.35-277.48-144.4-276.79-148.8-275.53-153.01-272.28-148.45-268.29-145.35-266.18-140.06-265.33-137.93-264.49-134.82-264.03-133.1-264.02-133.06-264.01-133.03-264-132.99"/>
<path transform="matrix(1,0,0,-1,512.3763,398.29859)" stroke-width="1.7" stroke-linecap="round" stroke-linejoin="round" fill="none" stroke="#000000" d="M0 0C.01-.04 .02-.07 .02-.11 2.27-10.85-1.47-23.37-1.97-34.18-2.49-45.58-4.19-56.97-6.39-68.15-8.64-79.55-12.65-91.64-18.79-101.53-19.01-101.89-19.23-102.24-19.46-102.59-19.5-102.65-19.54-102.72-19.58-102.78"/>
<path transform="matrix(1,0,0,-1,492.7964,500.69856)" stroke-width="1.7" stroke-linecap="round" stroke-linejoin="round" fill="none" stroke="#000000" d="M0 0C.04-.06 .08-.13 .12-.19 7.64-11.89 14.76-22.79 24.5-32.93 42.24-51.43 66.13-67.74 90.5-75.65 107.19-81.06 126.03-83.46 143.31-79.44 148.65-78.2 157.52-76.44 161.79-72.39 161.95-72.23 162.11-72.07 162.26-71.91"/>
<path transform="matrix(1,0,0,-1,494.6763,499.57856)" stroke-width="1.7" stroke-linecap="round" stroke-linejoin="round" fill="none" stroke="#000000" d="M0 0C-.36-.09-.72-.17-1.09-.25-22.24-4.82-48.98 6.59-71.62 8.01-109.22 10.35-145.68 13.18-183.45 7.34-223.55 1.15-252.6-7.99-276.33-43.02-314.7-99.65-338.83-174.35-351.67-241.11-360.84-288.81-374.95-335.13-385.01-382.8-368.82-376.39-355.58-380.17-343.14-387.56-331.12-394.7-319.85-405.2-307.37-413.13-295.42-420.72-285.69-423.42-272.72-416.3-260.22-409.44-248.71-400.44-233.27-404.88-220.74-408.49-215.53-421.85-201.26-422.47-188.54-423.03-179.95-416.9-166.82-422.37-158.95-425.65-151.14-430.52-143.19-433.56-133.44-437.31-123.48-438.32-112.94-430.3"/>
<path transform="matrix(1,0,0,-1,399.8063,674.62857)" stroke-width="1.7" stroke-linecap="round" stroke-linejoin="round" fill="none" stroke="#000000" d="M0 0C20.15-63.89-3.22-135.52-15.24-198.87-17.76-212.14-18.8-225.89-18.07-239.46-17.78-244.73-16.37-254.69-17.88-255.25"/>
<path transform="matrix(1,0,0,-1,655.0563,568.4685)" stroke-width="1.7" stroke-linecap="round" stroke-linejoin="round" fill="none" stroke="#000000" d="M0 0C.06-.08 .13-.15 .2-.23 5.36-6.22 15.47-4.46 22.79-5.03 36.84-6.13 51.49-9.43 65.15-12.9 96.72-20.92 123.06-45.73 146.82-66.83 173.32-90.35 190.03-120.46 213.44-146.38 227.56-162.03 244.85-174.41 260.72-188.13 267.26-193.78 273.83-197.97 271.96-206.66 270.72-212.42 263.26-216.52 260.4-221.17 257.22-226.35 255.22-232.38 253.53-238.29 253.23-239.35 252.94-240.4 252.65-241.44 248.53-256.45 245.75-269.6 230.43-276.01 224.3-278.57 217.48-278.39 212.28-282.96 204.78-289.55 201.91-303.08 197.7-311.54 191.41-324.15 185.84-338.7 172.55-345.39 166.08-348.65 157.52-349.25 151.87-353.98 149.3-356.13 146.3-360.04 142.99-363.99 136.59-371.61 128.99-379.38 120.85-374.96"/>
<path transform="matrix(1,0,0,-1,351.4363,933.26858)" stroke-width="1.7" stroke-linecap="round" stroke-linejoin="round" fill="none" stroke="#000000" d="M0 0C-4.13-30.16-7.64-61.53-12.33-91.65-13.66-100.21-14.07-110.76-16.74-117.07L-16.75-117.08"/>
<path transform="matrix(1,0,0,-1,151.5264,887.14859)" stroke-width="1.7" stroke-linecap="round" stroke-linejoin="round" fill="none" stroke="#000000" d="M0 0C-8.62-33.73-3.36-74.7-3.38-109.25-3.4-138.35 1.25-168.59 5.77-197.35 9.62-221.87 16.39-245.52 24.55-268.44 5.91-268 9.83-310.16 37.09-288.94"/>
<path transform="matrix(1,0,0,-1,188.6163,1176.0885)" stroke-width="1.7" stroke-linecap="round" stroke-linejoin="round" fill="none" stroke="#000000" d="M0 0C37.69-18.65 88.27-23.08 129.64-26.29 174.45-29.76 219.58-29.56 264.17-23.29 320.18-15.42 373.03 4.97 427.5 19.19 445.41 23.87 458.17 28.22 475.48 34.63 480.6 36.53 497.11 44.31 499.57 42.92"/>
<path transform="matrix(1,0,0,-1,688.3763,1133.1686)" stroke-width="1.7" stroke-linecap="round" stroke-linejoin="round" fill="none" stroke="#000000" d="M0 0C29.55-27.79 80.81-1.75 111.13 10.16 123.43 14.99 134.68 18.7 147.94 19.2 156.65 19.52 162.69 21.86 170.82 24.28 178.91 26.68 188.67 24.65 196.48 28.06 200.27 29.71 202.68 32.72 206.68 34.05 207.43 34.3 208.19 34.5 208.95 34.68 212.11 35.41 215.39 35.68 218.57 36.72 224.6 38.68 231.43 44.13 223.08 48.97 222.98 49.03 222.88 49.09 222.77 49.15 215.2 53.33 206.86 48.76 199.32 46.99 193.62 45.65 187.7 46.88 181.85 46.29 175.92 45.68 169.82 43.84 164.17 43.51 159.04 43.21 154.22 45.15 148.84 45.68 144.98 46.06 139.96 44.62 136.65 47.42 137.3 47.87 138.32 48.6 139.14 48.99 139.26 49.04 139.37 49.09 139.48 49.13"/>
<path transform="matrix(1,0,0,-1,826.1663,1084.6085)" stroke-width="1.7" stroke-linecap="round" stroke-linejoin="round" fill="none" stroke="#000000" d="M0 0C.43 .2 .86 .4 1.28 .59 11.05 4.92 19.75 4.92 29.94 6.9 31.38 7.18 32.75 7.62 34.07 8.15 39.23 10.24 43.66 13.89 48.47 16.25 53.8 18.86 60.81 20.71 66.6 21.9 73.59 23.33 76.82 25.16 82.88 28.81 83.04 28.91 83.21 29 83.38 29.1 88.85 32.12 97.39 32.73 101.67 37.25 105.34 41.12 104.53 44.97 101.82 47.77 99.44 50.24 95.58 51.9 92.05 52.01 82.59 52.31 74.87 46.48 66.52 43.61 57.74 40.59 47.94 43.2 38.81 40.67 28.81 37.91 24.62 32.23 13.62 32.74 9 32.95-10.87 28.81-11.3 35.01"/>
<path transform="matrix(1,0,0,-1,814.3063,1050.1586)" stroke-width="1.7" stroke-linecap="round" stroke-linejoin="round" fill="none" stroke="#000000" d="M0 0C.16 .21 .32 .42 .48 .63 10.13 12.59 25.53 7 37.6 14.12 45.93 19.02 52.22 25.07 62.02 27.54 65.43 28.4 69.57 28.45 72.73 30.07 76.1 31.8 77.93 34.67 81.83 36.31 82.71 36.68 83.59 37.01 84.48 37.33 85.05 37.53 85.61 37.72 86.18 37.91 91.88 39.79 97.6 41.29 101.78 46.3 104.17 49.17 105.63 52.99 105.32 56.31 105.02 59.54 103.06 62.31 98.68 63.28 90.5 65.1 78.83 59.28 70.57 58.02 65.79 57.29 62.06 56.29 58.57 54.92 54.6 53.36 50.93 51.31 46.33 48.58 34.73 41.69 20.17 42.56 8.71 35.6 4.29 32.92-16.8 19.41-19.17 28.12-19.18 28.15-19.19 28.19-19.2 28.23"/>
<path transform="matrix(1,0,0,-1,873.0363,925.9285)" stroke-width="1.7" stroke-linecap="round" stroke-linejoin="round" fill="none" stroke="#000000" d="M0 0C.6-9.28-3.94-16.39-8.5-23.63-10.47-26.75-12.43-29.88-13.99-33.23-14.28-33.84-14.55-34.46-14.81-35.09-17.83-42.49-20.54-46.68-24.31-49.94-27.79-52.96-32.16-55.19-38.49-58.45-47.56-63.1-50.05-73.19-58.16-78.81-64.46-83.17-74.52-88.65-77.9-96.11-78.13-96.63-78.33-97.16-78.5-97.69"/>
<path transform="matrix(1,0,0,-1,873.0363,925.9285)" stroke-width="1.7" stroke-linecap="round" stroke-linejoin="round" fill="none" stroke="#000000" d="M0 0C-.41 2.07-1.95 3.49-3.95 4.38-7.45 5.96-12.39 5.93-15.22 4.98-24.45 1.88-34.38-10.49-38.99-18.35-42.78-24.79-44.83-28.45-49.09-31.72-50.76-33-52.76-34.23-55.34-35.54-62.13-38.99-66.63-43.81-72.14-48.72-77.83-53.77-81.01-53.48-88.16-54.9-93.95-56.05-98.47-58.97-102.9-62.16-106.31-64.62-109.68-67.24-113.52-69.34-119.58-72.65-131.71-80.28-138.84-78.5-146.59-76.57-147.87-67.44-145.59-60.85-140.77-46.94-124.62-43.77-117.49-31.68-114.21-26.12-110.07-14.81-114.07-9.22-115.13-7.73-116.77-6.65-119.16-6.19-127.1-4.67-138.09-12.88-144.49-17.45-144.53-17.48-144.56-17.5-144.6-17.53-152.86-23.44-161.36-26.42-170.17-30.3-171.73-30.98-173.3-31.69-174.88-32.45-197.02-43.11-205.23-71.03-215.31-91.19-220.32-101.22-227.19-107.53-235.5-114.79-240.76-119.38-249.6-125.36-257.88-127.43"/>
<path transform="matrix(1,0,0,-1,324.1364,1052.4186)" stroke-width="1.7" stroke-linecap="round" stroke-linejoin="round" fill="none" stroke="#000000" d="M0 0C2.9 1.46 6.61 2.01 10.56 2.08 17.64 2.24 25.53 .89 31.18 .42 43.13-.57 54.93-1.88 66.85-3.26 101.79-7.32 137.94-8.47 173.09-9.6 199.83-10.46 228.78-13.86 255.11-8.21 267.48-5.56 278.89-4.84 290.83-.94"/>
<path transform="matrix(1,0,0,-1,757.2664,737.31857)" stroke-width="1.7" stroke-linecap="round" stroke-linejoin="round" fill="none" stroke="#000000" d="M0 0C.66-9.82 5.96-19.92 8.91-29.2 12.2-39.55 13.46-49.21 14.23-59.98 15.51-78.04 21-95.21 23.52-113.03 27.35-140.15 19.92-165.81 18.61-192.5 18.38-197.21 18.18-201.67 17.87-206.06 17.38-213.28 16.6-220.3 14.95-227.92 13.78-233.34 12.69-239.01 12.4-244.52 12.26-247.19 12.51-250.14 12.43-250.16"/>
<path transform="matrix(1,0,0,-1,569.7863,903.89859)" stroke-width="1.7" stroke-linecap="round" stroke-linejoin="round" fill="none" stroke="#000000" d="M0 0C-14.1-14.11-27.76-28.84-42.59-42.17-51.01-49.74-60.55-55.91-68.62-63.85-70.84-66.04-75.62-72.02-76.8-71.72"/>
<path transform="matrix(1,0,0,-1,638.6763,867.19857)" stroke-width="1.7" stroke-linecap="round" stroke-linejoin="round" fill="none" stroke="#000000" d="M0 0C-2.37-1.35-2.81-2.69-4.62-4.82-10.32-11.53-15.61-18.16-21.75-24.54-29.72-32.83-38.13-40.63-46.52-48.5-48.63-50.48-51.07-53.86-53.64-53.64"/>
<path transform="matrix(1,0,0,-1,342.7763,506.3485)" stroke-width="1.7" stroke-linecap="round" stroke-linejoin="round" fill="none" stroke="#000000" d="M0 0C7.27-8.94 17.77-12.65 26.2-20.08 32.25-25.42 36.26-31.74 36.61-40.07 36.87-46.27 34.03-52.54 35.03-58.72 36.61-68.44 46.35-72 50.03-80.96 55.23-93.59 52.01-109.19 54.21-122.54"/>
<path transform="matrix(1,0,0,-1,711.5264,612.51858)" stroke-width="1.7" stroke-linecap="round" stroke-linejoin="round" fill="none" stroke="#000000" d="M0 0C8.03-6.91 15.75-18.13 17.16-28.87 18.06-35.83 14.79-42.18 18.87-48.28 20.92-51.34 24.55-53.19 26.64-56.45 29.91-61.56 30.75-67.85 31.55-73.71 32.75-82.53 35.38-90.32 37.27-98.82"/>
<path transform="matrix(1,0,0,-1,908.6063,806.76858)" stroke-width="1.7" stroke-linecap="round" stroke-linejoin="round" fill="none" stroke="#000000" d="M0 0C26.35-20.73 53.01-40.82 78.67-62.43 91.21-72.99 103.79-82.77 115.72-93.51 121.16-98.42 126.47-103.52 131.58-108.99"/>
<path transform="matrix(1,0,0,-1,798.1163,932.51858)" stroke-width="1.7" stroke-linecap="round" stroke-linejoin="round" fill="none" stroke="#000000" d="M0 0C1.36-3.19 6.02-6.67 8.47-9.28 11.66-12.68 15.06-16.01 18.43-19.23 20.57-21.27 22.91-23.6 25.6-24.84"/>
<path transform="matrix(1,0,0,-1,848.7463,975.89859)" stroke-width="1.7" stroke-linecap="round" stroke-linejoin="round" fill="none" stroke="#000000" d="M0 0C2.54-4.72 12.63-10.43 17.43-14.2 19.4-15.76 22.13-18.04 23.91-18.73"/>
<path transform="matrix(1,0,0,-1,900.5164,1012.3285)" stroke-width="1.7" stroke-linecap="round" stroke-linejoin="round" fill="none" stroke="#000000" d="M0 0C3.23-3.25 9.5-5.35 13.62-7.7 20.36-11.54 27.24-15.09 34.09-18.72 50.07-27.18 67.41-33.93 84.26-40.38 100.15-46.47 115.66-53.65 132.46-56.85 137.66-57.84 142.8-58.94 148.05-59.57 150.26-59.84 153.37-59.86 155.11-60.61"/>
<path transform="matrix(1,0,0,-1,1055.6264,1073.3186)" stroke-width="1.7" stroke-linecap="round" stroke-linejoin="round" fill="none" stroke="#000000" d="M0 0C-1.59-3.86 1.09-10.17 3.44-13.13 7.68-18.49 15.57-20.64 21.86-17.5 27.19-14.84 33.69-2.82 24.94 3.68"/>
<path transform="matrix(1,0,0,-1,1264.9364,503.80854)" stroke-width="1.7" stroke-linecap="round" stroke-linejoin="round" fill="none" stroke="#000000" d="M0 0C-1.7-8.83-11.13-8.92-16.3-3.43-20.67 1.22-19.77 6.09-21.25 11.44-22.63 16.45-25.48 20.34-27.74 24.75-32.39 33.83-32.19 42.07-35.57 51.67"/>
<path transform="matrix(1,0,0,-1,1229.3663,452.13856)" stroke-width="1.7" stroke-linecap="round" stroke-linejoin="round" fill="none" stroke="#000000" d="M0 0C-1.94 5.96-10.99 14.55-17.75 14.04-20.2 13.87-22.35 12.5-23.74 9.36-26.23 3.79-23.23-5.84-22.95-11.82-22.93-12.21-22.92-12.6-22.92-12.99-22.8-19.11-24.04-24.88-23.72-30.92-23.14-41.76-17.11-50.16-17.8-61.65-18.82-78.68-25.22-95.03-25.42-112.47-25.67-135.48-15.44-158.36-20.62-180.71"/>
<path transform="matrix(1,0,0,-1,1209.0364,632.55856)" stroke-width="1.7" stroke-linecap="round" stroke-linejoin="round" fill="none" stroke="#000000" d="M0 0C-.04-.12-.08-.24-.13-.35-9.31-25.95-21.18-43.94-37.42-65.57-63-99.64-87.24-134.73-114.77-167.3-133.93-189.97-155.42-213.42-169.64-239.58-174.39-248.3-181.98-258.03-184.66-267.67"/>
<path transform="matrix(1,0,0,-1,1264.9364,503.80854)" stroke-width="1.7" stroke-linecap="round" stroke-linejoin="round" fill="none" stroke="#000000" d="M0 0C1.58 13.25 15.23 27.16 20.14 40.07 23.55 49.01 25.98 57.98 31.13 66.07 36.77 74.93 44.14 81.78 49.13 91.48 53.56 100.08 55.8 110.14 61.79 117.55 67.33 124.4 91.33 166.55 95.76 139.66 98.05 125.78 88.07 115.99 82.33 105.03 75.87 92.7 74.06 78.06 68.43 65.39 64 55.44 59.81 47.52 56.14 37.1 52.88 27.89 46.6 8.45 40.64 1.71 40.36 1.39 40.09 1.11 39.81 .85"/>
<path transform="matrix(1,0,0,-1,1305.5963,502.11854)" stroke-width="1.7" stroke-linecap="round" stroke-linejoin="round" fill="none" stroke="#000000" d="M0 0C8.62 6.85 17.5 14.23 26.24 21.04 30.3 24.19 39.81 30.93 45.32 29.69 51.78 28.24 58.26 17.26 60.06 11.22 60.1 11.1 60.13 10.98 60.16 10.87 60.79 8.58 61.04 6.38 60.98 4.24 60.93 2.31 60.62 .44 60.12-1.37 58.3-7.9 53.93-13.7 49.56-18.97 41.59-28.58 38.74-38.45 34.12-49.93 33.42-51.66 32.81-54.28 32.17-57.28 30.89-63.22 29.5-70.63 27.11-75.47 24.52-80.7 20.76-82.92 14.72-77.02 14.06-76.37 13.37-75.63 12.66-74.79 7.72-68.96 6.24-61.27 6.72-53.59 7.12-47.36 8.81-41.15 10.99-35.93 14.2-28.28 16.08-17.71 20.33-11.01"/>
<path transform="matrix(1,0,0,-1,1366.5863,497.87855)" stroke-width="1.7" stroke-linecap="round" stroke-linejoin="round" fill="none" stroke="#000000" d="M0 0C9.56-5.13 17.89 .24 20.5-14.08 21.06-17.17 20.93-20.09 20.32-22.87 19.31-27.43 17.01-31.63 14.38-35.62 11.42-40.11 6.64-44.05 4.69-49.24 3.09-53.51 3.79-57.41 1.71-61.81-.83-67.2-5.19-71.74-8.13-76.99-8.5-77.63-8.84-78.29-9.15-78.96-11.41-83.81-12.11-91.12-15.75-95.53-16.33-96.25-17-96.89-17.77-97.43-21.28-99.91-24.11-100.13-26.35-98.98-31.69-96.27-33.73-85.84-33.88-79.71V-79.62"/>
<path transform="matrix(1,0,0,-1,1352.5064,600.3585)" stroke-width="1.7" stroke-linecap="round" stroke-linejoin="round" fill="none" stroke="#000000" d="M0 0C-1 2.21-1.5 4.74-1.45 6.76"/>
<path transform="matrix(1,0,0,-1,1386.9164,520.74856)" stroke-width="1.7" stroke-linecap="round" stroke-linejoin="round" fill="none" stroke="#000000" d="M0 0C19.36-7.43 12.12-24.79 3.86-37.91 1.03-42.41-.94-47.69-3.12-52.79-5.14-57.5-7.35-62.05-10.59-65.69-10.81-65.93-11.03-66.17-11.26-66.39-14.02-69.17-17.55-70.91-19.94-74.11-21.7-76.46-22.53-82.93-25.35-84.15-26.61-84.7-27.76-84.85-28.8-84.71-31.24-84.37-33.07-82.39-34.26-79.94-34.31-79.84-34.36-79.73-34.41-79.63"/>
<path transform="matrix(1,0,0,-1,1358.1163,605.45858)" stroke-width="1.7" stroke-linecap="round" stroke-linejoin="round" fill="none" stroke="#000000" d="M0 0C-6.81-21.57-25.22-41.66-47.26-48.48-50.39-49.45-53.58-50.32-56.82-50.95-61.53-51.87-66.35-52.28-71.24-51.71-76.72-51.08-82.36-46.12-87.25-46.59"/>
<path transform="matrix(1,0,0,-1,1301.3663,656.27859)" stroke-width="1.7" stroke-linecap="round" stroke-linejoin="round" fill="none" stroke="#000000" d="M0 0C-.02-.04-.05-.09-.07-.13-18.97-34.24-36.8-69.03-51.08-105.44-67.76-147.95-83.46-191.01-104.81-231.41-127.83-274.98-152.65-317.47-180.49-358.15-190.56-372.86-200.12-387.7-211.6-401.36-214.74-405.1-219.65-410.23-221.09-413.36"/>
<path transform="matrix(1,0,0,-1,1206.4963,465.12855)" stroke-width="1.7" stroke-linecap="round" stroke-linejoin="round" fill="none" stroke="#000000" d="M0 0C1.21-1.22 6.79-1.08 8.53 .08 11.11 1.81 9.58 5.81 9.31 8.9 8.82 14.52 8.03 22.08 5.12 27.03 5.11 27.06 5.1 27.08 5.08 27.11"/>
<path transform="matrix(1,0,0,-1,1205.9264,483.47853)" stroke-width="1.7" stroke-linecap="round" stroke-linejoin="round" fill="none" stroke="#000000" d="M0 0C1.86-.89 5.35-1.7 7.43-1.41 9.05-1.19 10.21-.04 11.86 0"/>
<path transform="matrix(1,0,0,-1,1207.3363,491.94856)" stroke-width="1.7" stroke-linecap="round" stroke-linejoin="round" fill="none" stroke="#000000" d="M0 0C4.94-2.43 10.6-2.41 15.81-1.13"/>
<path transform="matrix(1,0,0,-1,1270.0164,539.94857)" stroke-width="1.7" stroke-linecap="round" stroke-linejoin="round" fill="none" stroke="#000000" d="M0 0C12.33-3.16 25.55-6.14 36.87-12.19 38.71-13.17 40.75-14.33 42.3-15.76 42.32-15.77 42.34-15.79 42.36-15.81"/>
<path transform="matrix(1,0,0,-1,1258.4463,552.6585)" stroke-width="1.7" stroke-linecap="round" stroke-linejoin="round" fill="none" stroke="#000000" d="M0 0C9.17-5.25 18.81-10.68 26.85-17.61 33.99-23.76 40.08-32.13 45.49-39.83 50.46-46.9 53.65-54.28 57.6-61.83"/>
<path transform="matrix(1,0,0,-1,1337.7864,559.4285)" stroke-width="1.7" stroke-linecap="round" stroke-linejoin="round" fill="none" stroke="#000000" d="M0 0C-.01 .01-.02 .02-.02 .03-4.98 6.55-11.86 2.2-13.7-3.98-15.18-8.91-16.86-14.64-17.47-19.71-17.48-19.82-17.5-19.94-17.51-20.05"/>
<path transform="matrix(1,0,0,-1,1358.1163,574.6785)" stroke-width="1.7" stroke-linecap="round" stroke-linejoin="round" fill="none" stroke="#000000" d="M0 0C-1.37 1.5-5.13 4.33-6.99 4.18-10.02 3.93-12.02-2.62-12.83-4.86-14.57-9.67-18.06-16.75-17.79-22.02"/>
<path transform="matrix(1,0,0,-1,1375.6163,587.0985)" stroke-width="1.7" stroke-linecap="round" stroke-linejoin="round" fill="none" stroke="#000000" d="M0 0C-1.24 1.95-4.08 4.84-6.54 5.09-9.57 5.4-11.48 2.31-13.2 .14-16.26-3.73-21.94-8.81-22.63-13.86-22.77-13.79-22.88-13.7-22.96-13.59-23.03-13.5-23.08-13.4-23.11-13.28V-13.26C-23.13-13.18-23.15-13.09-23.15-12.99"/>
<path transform="matrix(1,0,0,-1,1331.5763,536.8485)" stroke-width="1.7" stroke-linecap="round" stroke-linejoin="round" fill="none" stroke="#000000" d="M0 0C2.16-.99 10.64-4.44 10.73-7.05"/>
<path transform="matrix(1,0,0,-1,1334.1163,527.80856)" stroke-width="1.7" stroke-linecap="round" stroke-linejoin="round" fill="none" stroke="#000000" d="M0 0C4.24-2.24 8.83-6.21 11.29-9.6"/>
<path transform="matrix(1,0,0,-1,1357.8363,551.24856)" stroke-width="1.7" stroke-linecap="round" stroke-linejoin="round" fill="none" stroke="#000000" d="M0 0C1.85-1.3 10.58-5.74 9.88-7.62"/>
<path transform="matrix(1,0,0,-1,1357.2664,541.07858)" stroke-width="1.7" stroke-linecap="round" stroke-linejoin="round" fill="none" stroke="#000000" d="M0 0C3.18-2.69 7.11-4.35 10.13-7.37 11.04-8.28 11.68-9.35 12.71-10.17"/>
<path transform="matrix(1,0,0,-1,1375.0564,565.3585)" stroke-width="1.7" stroke-linecap="round" stroke-linejoin="round" fill="none" stroke="#000000" d="M0 0C3.3-2.45 5.88-5.53 8.74-8.18L8.75-8.19"/>
<path transform="matrix(1,0,0,-1,1376.1864,555.75857)" stroke-width="1.7" stroke-linecap="round" stroke-linejoin="round" fill="none" stroke="#000000" d="M0 0C4.54-1.78 7.81-7.02 10.16-10.17"/>
<path transform="matrix(1,0,0,-1,1348.7964,489.12855)" stroke-width="1.7" stroke-linecap="round" stroke-linejoin="round" fill="none" stroke="#000000" d="M0 0C6.13-2.87 13.34-8.35 16.92-14.36 16.92-14.37 16.93-14.39 16.94-14.4"/>
<path transform="matrix(1,0,0,-1,1351.0564,479.52857)" stroke-width="1.7" stroke-linecap="round" stroke-linejoin="round" fill="none" stroke="#000000" d="M0 0C5.06-2.57 11.08-6.64 14.6-11.37 14.72-11.53 14.84-11.69 14.96-11.86"/>
<path transform="matrix(1,0,0,-1,1372.5164,511.14857)" stroke-width="1.7" stroke-linecap="round" stroke-linejoin="round" fill="none" stroke="#000000" d="M0 0C5.14-3.28 9.22-7.04 12.8-11.89 12.99-12.3 12.5-11.64 12.42-11.58"/>
<path transform="matrix(1,0,0,-1,1375.9064,504.93855)" stroke-width="1.7" stroke-linecap="round" stroke-linejoin="round" fill="none" stroke="#000000" d="M0 0C4.64-2.53 8.03-6 11.01-10.16"/>
<path transform="matrix(1,0,0,-1,1387.7664,532.6085)" stroke-width="1.7" stroke-linecap="round" stroke-linejoin="round" fill="none" stroke="#000000" d="M0 0C4.46-3.6 7.31-7.23 9.88-12.14"/>
<path transform="matrix(1,0,0,-1,1391.4364,527.80856)" stroke-width="1.7" stroke-linecap="round" stroke-linejoin="round" fill="none" stroke="#000000" d="M0 0C3.39-2.49 5.72-5.31 7.34-9.04"/>
<path transform="matrix(1,0,0,-1,1313.2163,444.51856)" stroke-width="1.7" stroke-linecap="round" stroke-linejoin="round" fill="none" stroke="#000000" d="M0 0C3.27-4.25 9.15-7.35 12.43-10.44"/>
<path transform="matrix(1,0,0,-1,1335.8064,398.2085)" stroke-width="1.7" stroke-linecap="round" stroke-linejoin="round" fill="none" stroke="#000000" d="M0 0C2.01-2.09 4.8-5.49 7.91-5.65"/>
<path transform="matrix(1,0,0,-1,1211.2964,647.52859)" stroke-width="1.7" stroke-linecap="round" stroke-linejoin="round" fill="none" stroke="#000000" d="M0 0C-4.96-3.19-9.42-12.88-4.24-17.5"/>
<path transform="matrix(1,0,0,-1,868.8964,921.9685)" stroke-width="1.7" stroke-linecap="round" stroke-linejoin="round" fill="none" stroke="#000000" d="M0 0C-3-4.13-10.26-10.87-11.3-16.76-12.17-21.66-7.32-24.15-4.52-27.49"/>
<path transform="matrix(1,0,0,-1,851.1964,948.69857)" stroke-width="1.7" stroke-linecap="round" stroke-linejoin="round" fill="none" stroke="#000000" d="M0 0C1.99-4.15 5.22-6.91 7.85-10.46 7.87-10.49 7.89-10.51 7.91-10.54"/>
<path transform="matrix(1,0,0,-1,847.4363,956.6085)" stroke-width="1.7" stroke-linecap="round" stroke-linejoin="round" fill="none" stroke="#000000" d="M0 0C1.35-3.3 5.18-7.76 8.28-9.79"/>
<path transform="matrix(1,0,0,-1,821.8364,977.31857)" stroke-width="1.7" stroke-linecap="round" stroke-linejoin="round" fill="none" stroke="#000000" d="M0 0C.22-4.23 2.89-8.38 5.27-11.67"/>
<path transform="matrix(1,0,0,-1,815.8063,986.3485)" stroke-width="1.7" stroke-linecap="round" stroke-linejoin="round" fill="none" stroke="#000000" d="M0 0C1.5-3.8 3.1-7.69 6.4-10.17"/>
<path transform="matrix(1,0,0,-1,728.8464,943.80856)" stroke-width="1.7" stroke-linecap="round" stroke-linejoin="round" fill="none" stroke="#000000" d="M0 0C-.44-.27 4.15-5.78 6.39-6.5 9.47-7.49 13.16-5.27 15.82-3.78 19.04-1.99 22.74 .67 25.24 3.3 26.88 5.03 27.78 7.77 30.12 8.66"/>
<path transform="matrix(1,0,0,-1,702.8663,956.2285)" stroke-width="1.7" stroke-linecap="round" stroke-linejoin="round" fill="none" stroke="#000000" d="M0 0C3.18-1.26 11.19-9.44 11.67-12.8"/>
<path transform="matrix(1,0,0,-1,695.3364,960.3685)" stroke-width="1.7" stroke-linecap="round" stroke-linejoin="round" fill="none" stroke="#000000" d="M0 0C3.99-3.22 9.47-9.2 11.3-13.18"/>
<path transform="matrix(1,0,0,-1,919.3364,993.87857)" stroke-width="1.7" stroke-linecap="round" stroke-linejoin="round" fill="none" stroke="#000000" d="M0 0C-5.87-2.32-16.03-1.52-20.72-5.93-23.75-8.78-22.61-15.99-20.7-18.45"/>
<path transform="matrix(1,0,0,-1,888.0964,1019.0985)" stroke-width="1.7" stroke-linecap="round" stroke-linejoin="round" fill="none" stroke="#000000" d="M0 0C-.01 3.72 .04 9.97-1.89 12.42"/>
<path transform="matrix(1,0,0,-1,880.9363,1021.7385)" stroke-width="1.7" stroke-linecap="round" stroke-linejoin="round" fill="none" stroke="#000000" d="M0 0C.05 3.9-.1 8.15-1.88 11.67"/>
<path transform="matrix(1,0,0,-1,849.6964,1037.1686)" stroke-width="1.7" stroke-linecap="round" stroke-linejoin="round" fill="none" stroke="#000000" d="M0 0C1.47 4.19-.18 10.7-1.89 14.68"/>
<path transform="matrix(1,0,0,-1,842.1663,1039.4285)" stroke-width="1.7" stroke-linecap="round" stroke-linejoin="round" fill="none" stroke="#000000" d="M0 0C1.33 3.96-.78 10.45-2.64 13.93"/>
<path transform="matrix(1,0,0,-1,852.3264,1077.4585)" stroke-width="1.7" stroke-linecap="round" stroke-linejoin="round" fill="none" stroke="#000000" d="M0 0C2.03 4.31-.06 10.38-1.13 14.69"/>
<path transform="matrix(1,0,0,-1,860.2363,1076.6985)" stroke-width="1.7" stroke-linecap="round" stroke-linejoin="round" fill="none" stroke="#000000" d="M0 0C0 .08-.01 .16 0 .24-.18 6.06 1.46 11.99-1.89 17.31"/>
<path transform="matrix(1,0,0,-1,888.0964,1062.7686)" stroke-width="1.7" stroke-linecap="round" stroke-linejoin="round" fill="none" stroke="#000000" d="M0 0C.61 2.99-.16 7.77-1.51 10.91"/>
<path transform="matrix(1,0,0,-1,894.8663,1061.2686)" stroke-width="1.7" stroke-linecap="round" stroke-linejoin="round" fill="none" stroke="#000000" d="M0 0C-.02 3.7 .27 7.57-1.13 10.92"/>
<path transform="matrix(1,0,0,-1,927.6263,1037.1686)" stroke-width="1.7" stroke-linecap="round" stroke-linejoin="round" fill="none" stroke="#000000" d="M0 0C-4.75-.92-9.59-2.43-13.94-4.52-16.03-5.53-20.64-7.19-21.55-9.33-22.12-10.65-21.38-12.92-20.81-14.31-20.2-15.81-19.3-16.66-18.45-17.7"/>
<path transform="matrix(1,0,0,-1,911.4363,1084.2285)" stroke-width="1.7" stroke-linecap="round" stroke-linejoin="round" fill="none" stroke="#000000" d="M0 0C-4.78-2.09-22.7-5.5-14.12-14.21"/>
<path transform="matrix(1,0,0,-1,885.8364,1092.5186)" stroke-width="1.7" stroke-linecap="round" stroke-linejoin="round" fill="none" stroke="#000000" d="M0 0C1.24-3.32 2.46-6.19 2.26-9.78"/>
<path transform="matrix(1,0,0,-1,880.1863,1094.7686)" stroke-width="1.7" stroke-linecap="round" stroke-linejoin="round" fill="none" stroke="#000000" d="M0 0C.71-2.31 3.21-9.12 1.88-10.55"/>
<path transform="matrix(1,0,0,-1,857.9763,1098.5386)" stroke-width="1.7" stroke-linecap="round" stroke-linejoin="round" fill="none" stroke="#000000" d="M0 0C.43-2.23 2.54-8.77 .37-9.79"/>
<path transform="matrix(1,0,0,-1,850.8264,1100.7986)" stroke-width="1.7" stroke-linecap="round" stroke-linejoin="round" fill="none" stroke="#000000" d="M0 0C1.35-2.92 1.64-6.58 1.5-9.79"/>
<path transform="matrix(1,0,0,-1,791.3364,1096.2786)" stroke-width="1.7" stroke-linecap="round" stroke-linejoin="round" fill="none" stroke="#000000" d="M0 0C5.14-2.44 8.32 1.52 11.67 4.14"/>
<path transform="matrix(1,0,0,-1,784.5663,1067.6686)" stroke-width="1.7" stroke-linecap="round" stroke-linejoin="round" fill="none" stroke="#000000" d="M0 0C5.22-.55 8.25-.26 11.67 3.77"/>
<path transform="matrix(1,0,0,-1,769.5063,1038.6785)" stroke-width="1.7" stroke-linecap="round" stroke-linejoin="round" fill="none" stroke="#000000" d="M0 0C3.5-1.29 8.48-.81 10.16 3.01"/>
<path transform="matrix(1,0,0,-1,624.5663,1063.1486)" stroke-width="1.7" stroke-linecap="round" stroke-linejoin="round" fill="none" stroke="#000000" d="M0 0C4.14 7.46 15.57 6.82 20.33 0"/>
</g>
</g>
</g>
</svg>
