<?xml version="1.0" encoding="utf-8"?>
<!-- Generator: Adobe Illustrator 28.0.0, SVG Export Plug-In . SVG Version: 6.00 Build 0)  -->
<svg version="1.1" xmlns="http://www.w3.org/2000/svg" xmlns:xlink="http://www.w3.org/1999/xlink" x="0px" y="0px"
	 viewBox="0 0 2909.4 1725.7" style="enable-background:new 0 0 2909.4 1725.7;" xml:space="preserve">
<style type="text/css">
	.st0{clip-path:url(#SVGID_00000119119409922481508200000010781469150106743732_);}
	.st1{clip-path:url(#SVGID_00000042714887446828290260000000482498155487261585_);}
	.st2{fill:#404347;}
	.st3{fill:#F4E0A2;}
	.st4{fill:#3A5B51;}
	.st5{fill:#F7D14C;}
	.st6{fill:#656C74;}
	.st7{fill:#7EB2DE;}
	.st8{fill:#3B2A51;}
	.st9{fill:#5C447A;}
	.st10{fill:#72AF99;}
	.st11{fill:#96672F;}
	.st12{fill:#BBBFC4;}
	.st13{fill:#EB996A;}
	.st14{fill:#712D06;}
	.st15{fill:#FFFFFF;}
	.st16{fill:#C14C0A;}
	.st17{fill:none;stroke:#000000;stroke-width:1.7;stroke-linecap:round;stroke-linejoin:round;}
	.st18{fill:#C14C0A;stroke:#000000;stroke-width:1.7;stroke-miterlimit:10;}
</style>
<g id="Layer_1" xmlns:inkscape="http://www.inkscape.org/namespaces/inkscape">
	<g>
		<g inkscape:groupmode="layer" inkscape:label="Laag 1">
		</g>
		<g>
			<defs>
				<rect id="SVGID_1_" x="0" y="0" width="2909.4" height="1725.7"/>
			</defs>
			<clipPath id="SVGID_00000118397432953993768900000012481557992171787686_">
				<use xlink:href="#SVGID_1_"  style="overflow:visible;"/>
			</clipPath>
			<g style="clip-path:url(#SVGID_00000118397432953993768900000012481557992171787686_);">
				<g>
					<g>
						<defs>
							<rect id="SVGID_00000071556237274221798820000003874874497906353300_" x="198" y="204.8" width="2559.1" height="1356.1"/>
						</defs>
						<clipPath id="SVGID_00000124146618806590911010000004818872127792023185_">
							<use xlink:href="#SVGID_00000071556237274221798820000003874874497906353300_"  style="overflow:visible;"/>
						</clipPath>
						<g style="clip-path:url(#SVGID_00000124146618806590911010000004818872127792023185_);">
							<path class="st2" d="M222.6,1241.6c0,5.7,1.5,12.9,0.4,18.5c2.5,0.5,5.6,0.2,10.9,0.2c7.9-0.8,30.2,1.5,41.2,2.2
								c42.6,2.6,86.6,10,129.3,10l0.3,0.1c-5.3,11.5-9.4,23.7-12.5,36.3c-5.3,21.8-8.2,44.2-9.3,66.6c-0.5,9.5,0.1,22.9-3.3,31.6
								c-40.1,1.2-81.9-3.4-122.1-3.4c-16.1,0-30.3,2.9-46.2,0v0c-10.2-2.3-10.1-4-11.5-13.6c-3-20-1.6-42.9-0.6-63.2
								c1.3-27.8,4-55.7,2.6-83.6c-1-19.7,1-28.2,20.9-28.3c0.1,4.3,0,8.6,0,12.9v13V1241.6"/>
							<path class="st3" d="M216.2,1128.2c-0.8-22.8,0.4-45.7,6-68.2c4.7-18.9,10.4-32.9,17.9-44.1l0.7,0.5
								c16.8,1.8,33.5,5.3,49.9,9.2l-0.2,0.9c1.1,15.6-1.9,28.2,7.9,43.5c5.8,8.9,11.8,14.3,20.3,19.7l0.4,0.3
								c-3.3,5.2-6.6,10.5-9.7,15.8c-4,6.8-14.9,21.8-15.5,25.7c-14.2-0.7-28.4,0.2-42.6-1.1c-10.6-1-24.5-4.7-34.3-2.2
								c-0.4,0-0.5,0-0.5-0.1L216.2,1128.2z"/>
							<path class="st4" d="M1229.2,932.8c-5.7-1.4-11.8-0.8-18,0.2l-0.1-0.5c-12.9-29.7-61.9-29.6-71.2,4.2v0.1
								c-8.6-0.4-17.4-1.1-25.3,0c-0.9,4.3-2.9,9.1-1.8,13.1c7.9-1.8,17.1-0.5,25.9,0.4l0,0.2c-2.5,8.2,10.2,23.7,17.8,26.6
								c21.9,8.5,47.4-2.6,56.2-23.5l0-0.8c5.8,0.3,11.3,0.1,15.9-1c1.7-5.5,1.5-13.3,0.9-19.1L1229.2,932.8z M1264.2,362.5
								c-37.9,0-76,1.9-113.2,5.1c-18.4,1.6-34.6,5.1-49.2,17.4c-56.9,47.9-106.8,121.6-145,185.3c-16.4,27.4-41.1,58.5-60,88.1
								l0,0.3c-3.7-0.2-7.4,0.1-10.5,0.2c-10.7,0.5-20.8,0.1-31.8,0c-20.3,2.3-19.2,49.7-17.4,80.2l-0.1,0
								c-17.2-0.6-33.8,1.6-49.3,3c-0.8,14.6,2.7,31.8-0.7,45.7c7.2-3,16.3-4.2,25.4-4.6l0,0.2c-15.2,15.2-97,80.2-79.6,104.5
								c7.3,11,67.5,3.1,82.5,0.6l0,0c112.3-16.9,224.9-30.9,336.5-50c27.8-4.8,128.2-0.8,141.5-37.5l0.1,0
								c5.2-17.6,1.6-40.3,1.6-58.5c0-97.5-3.5-194.3-6.8-291.2C1287.2,421.5,1300.7,368.1,1264.2,362.5 M222.6,1215.2
								c0-3-0.1-6-0.4-9c-1.9-25.6-5.2-51.8-6.1-78l0.2,0c0,0.1,0.1,0.1,0.5,0.1c9.7-2.6,23.6,1.2,34.3,2.2
								c14.3,1.4,28.5,0.5,42.6,1.1c0.7-4,11.5-18.9,15.5-25.7c3.2-5.3,6.4-10.5,9.7-15.8c10.4-16.4,21.2-32.8,29.9-49.8
								c-13.9-5.6-30.8-8-45.4-11.6c-4.3-1.1-8.6-2.1-13-3.1c-16.4-3.9-33.1-7.5-49.9-9.2l-0.7-0.5c14.1-21.2,34.7-32.1,67.5-46.8
								c78.9-35.4,161.9-69,237.6-110.7c40.5-22.3,79.8-41.7,111.4-75.9l0.1,0.1c25-9.9,61.3,1.8,83.6-16.1
								c13.8-11,24-30.3,34.5-44.3c22.5-30.2,45.1-60.4,68-90.5c47.3-62,96.1-122.6,145.2-183.2c15.1-18.6,28.6-39.9,44.7-57.4
								c5.3-5.8,18.2-12.1,20.4-20.2c3-11.5-17.6-6.1-25.5-6.1c-19.4-0.1-38.9-1.5-58.5-1.5c14.4-15.4,29.1-30.4,44.1-45l0.1,0.1
								c39.3-9.7,83.7-4.9,124.6-8.4c64.3-5.5,128.9-9.2,193.5-11.7l0,0.5c-7.3,166.7,2.8,336.8,4.4,504.1
								c1.1,111,3.2,221.6,8,332.5c2.5,57-1.1,113.3-1.3,170.1h-0.3c-33.5,0-67,0-100.5,0c-16.8,0-33.5,1.1-50.3,1.1
								c-13.6,0.1-33.5-1.3-43.6,1.1c-39.1,7.3-82.7-1.3-122.4-1.1c-47.4,0.2-94.1,11.4-141.8,11.3c-43.1-0.1-85.9-2.2-128.9-2.2
								l-0.1,0c-9.2-28.7-21.9-56.3-37.8-80.9c-16.7-25.9-34.8-42.1-63.9-51.2c-28.1-8.8-60.7-11.3-90.2-11.4
								c-19.6,0.8-40.1,4.8-59.5,10.8c-21.7,6.7-44.7,22-61.1,37.4c-16.1,15.1-28.3,32.7-37.2,52.1l-0.3-0.1
								c-42.7,0-86.7-7.4-129.3-10c-11.1-0.7-33.3-2.9-41.2-2.2c-5.3,0-8.3,0.3-10.9-0.2c1.1-5.7-0.4-12.8-0.4-18.5v-0.5v-13
								C222.6,1223.8,222.7,1219.5,222.6,1215.2"/>
							<path class="st5" d="M290.6,1025.6c4.4,1,8.7,2.1,13,3.1c14.6,3.5,31.5,6,45.4,11.5c-8.7,17-19.5,33.3-29.9,49.8l-0.4-0.3
								c-8.5-5.4-14.6-10.8-20.3-19.7c-9.9-15.3-6.8-27.9-7.9-43.5L290.6,1025.6"/>
							<path d="M491.4,1419.6c7.4,23.4,14.7,33.5,49.7,48.6h0.4c8.7,2.3,25.8,6,38.5,3.3c14.9-3.2,31.3-7.7,44.1-16.3
								c40.1-26.9,36.4-91.2,12.5-127.3c-6.8-10.3-22.5-18.7-33-23.1c-18.8-7.9-44-10.5-61.7-3.8c-29.1,9-50.7,42.4-54,70.7
								C486.1,1387.7,486.9,1405.3,491.4,1419.6 M431.8,1293.7c14.5-25.5,33.4-46.1,59.3-60.2c22.6-12.3,40.9-21.7,73.3-23.2
								c24.1-0.8,56.6,5.6,79.7,15.9c30.1,13.4,53,33,68.7,62c28.1,51.9,35.7,113.6,11.1,168.7c-20.5,45.8-49.2,88.7-107.9,102
								l0-0.1c-34.5,4.8-49.3,0.5-75.3-3.9c-17.4-2.9-34.3-7.9-50.5-14.7l0,0.1c-18.1-8.4-46.1-37.8-60.3-62
								C396.4,1421.5,399.5,1350.7,431.8,1293.7"/>
							<path class="st6" d="M487.9,1371.7c3.3-28.4,24.9-61.7,54-70.7c17.6-6.8,42.8-4.1,61.6,3.8c10.5,4.4,26.2,12.8,33,23.1
								c23.9,36.2,27.7,100.4-12.5,127.3c-12.8,8.6-29.2,13.1-44.1,16.3c-12.8,2.7-29.9-1-38.5-3.3h-0.4
								c-35-15.1-42.3-25.1-49.7-48.6C486.9,1405.3,486.1,1387.7,487.9,1371.7"/>
							<path class="st7" d="M656.5,782.5c0.2-0.2,0.4-0.5,0.7-0.7c51.3-56.1,95.7-122.7,133-189C822.3,533.2,872,474.7,915.9,423
								c17-20,34.8-40.1,53.1-59.7c19.5,0,39.1,1.4,58.5,1.5c7.9,0,28.6-5.4,25.5,6.1c-2.1,8.1-15,14.4-20.3,20.2
								c-16.1,17.6-29.6,38.8-44.7,57.4c-49.1,60.6-98,121.2-145.2,183.2c-22.9,30-45.4,60.2-68,90.4c-10.5,14-20.7,33.3-34.5,44.3
								C717.9,784.4,681.6,772.7,656.5,782.5L656.5,782.5"/>
							<path class="st7" d="M812.4,783.2c9-0.4,17.8,0,24.3,0.2l1,0c-0.3,19.2,1.2,42.5,13.4,45.7c5.4,1.4,10.2,1.9,16.2,1.7
								c12.9-0.4,27,5.4,39.1-0.8c8.4-4.3,10.4-11.7,10.8-20.7c0.8-14.8,0.8-30,0.8-44.8c0-21.8-1.5-43.4-1.7-65.2
								c-0.1-10.8,1.2-30.1-8.1-37.5c-2.8-2.2-7-3-11.4-3.2l0-0.3c18.9-29.6,43.6-60.7,60-88.1c38.2-63.8,88-137.5,145-185.4
								c14.6-12.3,30.7-15.8,49.2-17.4c37.3-3.2,75.3-5.1,113.2-5.1c36.5,5.7,23,59,24,88.9c3.3,96.8,6.8,193.7,6.8,291.2
								c0,18.2,3.5,40.9-1.6,58.5l-0.1,0c-13.3,36.7-113.7,32.8-141.5,37.5c-111.6,19.1-224.2,33.1-336.5,50l0,0
								c-15,2.5-75.1,10.4-82.5-0.6c-17.3-24.2,64.4-89.2,79.6-104.5L812.4,783.2z"/>
							<path class="st2" d="M1265.4,1390.2c-18.2,0.6-33.6-2.6-47.2-3.1c-19.6-0.8-39.4-0.2-59-0.2c-58.4,0-117-2.5-175.4-0.2
								c-53.1,2-106.2,1.6-159.2,5.9c-14.9,1.2-40.2-1.3-54.3,1.9l-0.1-0.4c-2.2-26-7.5-52.6-15.7-78.3l0.1,0
								c43,0,85.9,2.2,128.9,2.2c47.6,0.1,94.4-11.1,141.8-11.3c39.6-0.1,83.3,8.5,122.4,1.1c10.2-2.5,30-1.1,43.6-1.1
								c16.8-0.1,33.5-1.2,50.3-1.1c33.5,0,67,0,100.5,0h0.3c0,2.4,0,4.9,0,7.3c0,23.7-1.7,55.9-1.7,76v0.3c-4.9,0-9.7,0-14.6,0
								C1305.8,1389.1,1285.6,1390.1,1265.4,1390.2"/>
							<path class="st2" d="M787.7,742.1c15.5-1.4,32.1-3.5,49.3-3l0.1,0c0.6,9.2,1.2,16.9,1.3,21.3c0.1,4.4-0.5,13.2-0.7,23l-1,0
								c-6.5-0.2-15.3-0.7-24.3-0.2c-9,0.4-18.2,1.6-25.4,4.6C790.4,773.9,786.9,756.7,787.7,742.1"/>
							<path class="st2" d="M854.5,658.9c11,0.1,21.1,0.5,31.8,0c3.1-0.1,6.8-0.4,10.5-0.2c4.3,0.2,8.5,1,11.4,3.2
								c9.3,7.4,8,26.8,8.1,37.5c0.2,21.8,1.7,43.4,1.7,65.2c0,14.8,0,30-0.8,44.8c-0.5,9-2.4,16.3-10.8,20.7
								c-12.1,6.2-26.2,0.5-39.1,0.8c-6,0.2-10.9-0.3-16.2-1.7c-12.2-3.3-13.7-26.5-13.4-45.7c0.2-9.8,0.8-18.6,0.7-23
								c-0.1-4.4-0.7-12.1-1.3-21.3C835.3,708.6,834.2,661.2,854.5,658.9"/>
							<path class="st2" d="M1013.1,318.3c8.7-8.4,17.4-16.6,26.2-24.5c27.2-24.6,55.6-47.5,93-52.9c40.6-5.9,80.7-5.5,121.5-8.8
								c212.2-17.6,426.7-31.6,639.7-21.6c110.3,5.2,222.4,4.4,332.7,2.2c67.3-1.4,134.2-7.7,201.4-7.7c48.9,0,102-2.2,148.1,16.5
								c27.2,11,45.4,34.7,51.6,57.8l-0.8,0.2c-43.6,12.7-101.9,0.1-147.5,1.7c-48.3,1.8-97.6,0.9-145.8-1.4
								c-128-6-257.2,4.5-385.1,8.2c-30.2,0.9-60.4,1.5-90.7,2.1c-175.2,3.1-351.1,1.4-526.2,8.3c-64.6,2.5-129.2,6.2-193.5,11.7
								C1096.9,313.5,1052.5,308.7,1013.1,318.3L1013.1,318.3"/>
							<path class="st8" d="M1114.7,936.9c7.9-1.2,16.7-0.4,25.3,0c4.1,0.2,8.2,0.3,12.1,0c14.1-0.9,28-0.6,42.1-1.4
								c5.6-0.3,11.4-1.6,17.1-2.5c6.2-1,12.3-1.6,18-0.2l0.4,0c0.7,5.8,0.8,13.6-0.9,19.1c-4.6,1.2-10.1,1.3-15.9,1
								c-8.9-0.4-18.4-1.7-26.1-1.7c-12.3,0-24.6,0-36.9,0c-3.5,0-7.3-0.3-11.1-0.7c-8.8-0.9-18-2.2-25.9-0.4
								C1111.8,946,1113.8,941.2,1114.7,936.9"/>
							<path class="st9" d="M1138.9,950.4c3.8,0.4,7.6,0.8,11.1,0.7c12.3,0,24.6,0,36.9,0c7.6,0,17.2,1.3,26.1,1.7l0,0.8
								c-8.8,20.9-34.3,32-56.2,23.5c-7.6-3-20.2-18.4-17.8-26.6L1138.9,950.4z"/>
							<path class="st9" d="M1140,936.8c9.3-33.8,58.2-33.9,71.2-4.2l0.1,0.5c-5.7,0.9-11.5,2.2-17.1,2.5
								c-14.1,0.8-27.9,0.4-42.1,1.4C1148.2,937.1,1144.1,937,1140,936.8L1140,936.8"/>
							<path class="st4" d="M1415.6,948.7c6.9,0.6,14.5-0.6,21.6-0.9c4-0.2,8-0.3,11.9-0.4v0.1c-0.3,5.9,3.1,10.4,5.1,13.3
								c4.4,6.3,11.5,9.2,18.7,10c18,1.9,34.5-6.4,42.3-23.5v-0.3c6.4,0,12.8,0,19.2,0h0.3c1.8-3.7,1.8-8.4,2.5-12.6
								c-7.9-0.4-15.8-0.5-23.7-0.5v-0.5c-6.9-26.1-56-27-63.2,0v0c-12.8,1.2-25.8,2.5-37.4-0.8
								C1413.4,937.7,1416.5,943.3,1415.6,948.7 M1331.3,298.3c175.1-6.8,350.9-5.2,526.2-8.3l0,1c-0.8,19.9,0.2,40,1,60
								c-21.9,1.4-43.8,2.3-65.8,2.3c-92.2,0-184-5.9-276.2-1.1c-27.7,1.4-56.2,4.6-83.6,3.4c-14.4-0.6-36.5-0.6-46.5,9.6
								c-10.9,11.1-10,29.3-9.8,43.7c0.5,27.5-0.8,54.1-2.1,81.4c-4,89.2,15.4,178.8,19.2,267.9c0.9,20.4,2.4,40.3,2.3,60.4
								c0,12.2,2.2,29.4,10.4,38.4c7,7.7,15.6,10.1,25.7,11.1c21.8,2.1,44.3,1.8,66.5,4.7c44.2,5.8,87.6,8.3,132.2,7.9
								c52.2-0.4,105.9,2.2,157.7-6.1c29.7-4.8,59.4-6.9,89.2-8.4c1.7,50.3,3.3,100.6,4.9,150.9c2.8,93.2,3.4,186.4,3.5,279.6
								c-14.8,1.1-29.7,2-44.5,2c-37.6-0.1-75-1.4-112.6,0.1c-128.8,5.2-257.7,6.7-386.7,6.7c0.2-56.8,3.8-113.1,1.3-170.1
								c-4.8-110.8-7-221.5-8-332.5c-1.6-167.3-11.7-337.4-4.4-504.1L1331.3,298.3z M1609.7,1247.1c9.1-1.2,15.4-0.3,27.4,0.2
								c3.3-9,10-34.7,10-34.7s11.3,0.6,14.8,0.3c7.1-0.6,10.6-1.3,17.6-0.9c-0.3,6,10.7,38.6,10.7,38.6s16.8,0.8,20.4-0.5
								c-11.2-35.7-23.5-76.1-37.8-111v-0.3c-2.9-1.4-15.2-0.4-18.5,0.9l-0.1,0.3c-6.1,26.1-19.7,51.7-30.8,76
								C1618.7,1226.2,1614.6,1237.6,1609.7,1247.1L1609.7,1247.1z M1452.6,1131c-3.4-0.5-5.8-0.5-8.1-0.4c-2.4,0.1-4-0.1-6.3-0.3
								c-1.6-0.1-3.7-0.8-5-0.1c1.3,4.8,0.2,11.2,0.2,16.2c0,11.6-0.7,23.2-0.3,34.7c0.8,18.9-0.8,38,0.3,56.8
								c3.7,0.2,7.3-0.3,10.9,0.1c2.2,0.2,6.4,1.2,8.1,0.8h0.1c-0.8-18.6-0.8-37.5,0-56.1c0.7-17.2,0-34.3,0-51.5L1452.6,1131
								L1452.6,1131z"/>
							<path class="st2" d="M1340.7,1388.8c0-20.1,1.7-52.3,1.7-76c0-2.5,0-4.9,0-7.3c129,0,257.8-1.5,386.7-6.7
								c37.6-1.5,75-0.1,112.6-0.1c14.8,0,29.7-0.9,44.5-2c0,23.4,0,46.9,0,70.3v4.4c-24.9,2.9-49.6,6.6-74.6,7.4
								c-74.5,2.4-149,1.7-223.4,7.7c-81.9,6.6-165.4,3-247.5,2.6V1388.8"/>
							<path class="st7" d="M1374.6,490.4c1.2-27.3,2.6-53.9,2.1-81.4c-0.3-14.4-1.2-32.6,9.8-43.7c10-10.2,32.1-10.2,46.5-9.6
								c27.3,1.2,55.8-1.9,83.6-3.4c92.2-4.8,184.1,1.1,276.2,1.1c22,0,43.9-0.9,65.8-2.3c0.4,10.5,0.7,21,0.6,31.4
								c-0.3,49.6,4.4,99.8,6.4,149.4c4.4,111.3,8.6,222.9,12.3,334.4c-29.8,1.5-59.6,3.7-89.2,8.4c-51.7,8.3-105.4,5.6-157.7,6.1
								c-44.6,0.4-87.9-2.1-132.2-7.9c-22.2-2.9-44.7-2.6-66.6-4.7c-10.1-1-18.7-3.4-25.7-11.1c-8.2-9-10.5-26.3-10.4-38.4
								c0.1-20.1-1.4-40-2.3-60.4C1390,669.2,1370.5,579.6,1374.6,490.4"/>
							<path class="st8" d="M1412.9,932.7c11.6,3.2,24.6,1.9,37.4,0.8c8.3-0.8,16.5-1.4,24.3-0.8c12.9,1.1,25.9,1.1,38.9,1.2
								c7.9,0.1,15.8,0.2,23.7,0.5c-0.7,4.2-0.8,8.9-2.5,12.6h-0.3c-6.4,0-12.8,0-19.2,0c-22.1,0-43.9-0.1-66.1,0.5
								c-4,0.1-8,0.2-11.9,0.4c-7.1,0.3-14.7,1.5-21.6,0.9C1416.5,943.3,1413.4,937.7,1412.9,932.7"/>
							<path class="st9" d="M1449.2,947.4c22.2-0.6,43.9-0.6,66.1-0.5v0.3c-7.9,17.1-24.3,25.5-42.3,23.5c-7.1-0.8-14.3-3.7-18.7-10
								C1452.3,957.9,1448.9,953.4,1449.2,947.4L1449.2,947.4z"/>
							<path class="st9" d="M1450.3,933.4c7.3-27,56.4-26.1,63.2,0v0.5c-13-0.1-26-0.1-38.9-1.2
								C1466.8,932,1458.6,932.7,1450.3,933.4L1450.3,933.4"/>
							<path class="st4" d="M1663.8,1159.3c1.1,9.7,7.2,19.3,9,28.7c-6.1,0.4-12.5,0.5-18.5,0.7c2.1-10.8,6.3-20.4,9.4-29.4
								L1663.8,1159.3z"/>
							<path class="st4" d="M1777.8,1016.5c15.4-7,20.7,23.6,1.7,18.4C1770.1,1032.3,1768.8,1022,1777.8,1016.5L1777.8,1016.5z"/>
							<path class="st4" d="M2133.6,1115.8c-33.3,0.2-62.8,16.9-89.2,36.1l0.4,0.5c-32.3,21.7-52.5,74.8-60.8,110.3
								c-2.3,9.8-3.8,19.6-5,29.4l-1.1-0.1c-30.6-1-61,2.5-91.5,4.8c-0.1-93.2-0.7-186.4-3.5-279.6c-1.5-50.3-3.2-100.5-4.9-150.9
								c25.6-1.3,51.4-2.2,77.2-3.9c46.6-3.1,93.6-1.2,140.2-2.1c11.3-0.2,22.6-0.6,33.9-1.3c0.2,0.5,0,1.6,0.5,0.5
								c0-0.2,0-0.3-0.1-0.5c3.2-0.2,6.4-0.4,9.6-0.7c33.3-2.6,65.8,1.6,99,3.2c36,1.7,71.9,0.8,108,1.3c9.9,0.1,19.8,0.5,29.7,0.9
								c35.3,1.5,70.7,4,106.1,2.3c2.7-0.1,5.4-0.3,8.1-0.5c28.9-2.5,57.8-11.3,74.2-36.5c22.7-34.8,17.8-84.3,16-124.1
								c-2.7-58.8-9.2-117.9-17.5-176.1c-6.9-48.4-14.7-119.2-18.1-154.4v-0.6c-1-9.2-5.8-19.2-11.5-26.5c-4.7-6-10.3-11.3-17.4-14
								c-6.8-2.6-12.8-6.2-19.6-5.8c-46.1-4.2-92.3,2.5-138.4,0.1c-39.4-2.1-79.2,3.8-118.7,4.5c-40.8,0.6-81.5,0.6-122.2,2.7
								c-56.7,3-113.5,4.1-170.1,9.1c-29.5,2.6-58.9,5.4-88.3,7.3c-0.7-20.1-1.7-40.2-1-60l0-1c30.2-0.5,60.5-1.2,90.7-2.1
								c127.9-3.7,257.1-14.2,385.1-8.2c48.2,2.3,97.5,3.1,145.8,1.4c45.6-1.7,103.9,10.9,147.5-1.7l0.8-0.2h0
								c0.3,1.2,0.6,2.4,0.9,3.6v0.2c7.8,43.4,22.3,82,30.6,126c13.3,70.1,13.5,142.5,23.8,213c11.5,78.7,22,157.5,30.1,236.7
								c2,19.2,3.4,38.4,5.3,57.4c0.7,7.2,1.6,19.5,2.2,22.6l0,0.2c-4.7,0.2-9.5,0.4-14.2,0.7c-11.3,0.9-22.1,3-29.2,10.2
								c-14.8,15.2-16.1,49.4-16.5,69c-2.1,94.3-21.5,185.5-65.5,269.3l-0.2-0.1c-71.8,6.1-149.3,11.7-221.4,11.7
								c-14-59.2-43.9-119.6-94.1-155C2237.1,1115.1,2182.6,1115.7,2133.6,1115.8"/>
							<path class="st7" d="M2095.3,860.3c-46.6,0.9-93.6-1-140.2,2.1c-25.9,1.7-51.6,2.6-77.2,3.9c-3.8-111.5-7.9-223-12.3-334.4
								c-2-49.7-6.7-99.8-6.4-149.4c0.1-10.4-0.2-20.9-0.6-31.4c29.4-1.9,58.8-4.7,88.3-7.3c56.6-5,113.4-6.1,170.1-9.1
								c40.7-2.2,81.4-2.1,122.2-2.7c39.4-0.6,79.2-6.5,118.7-4.5c46.1,2.4,92.4-4.3,138.4-0.1c6.8-0.4,12.8,3.1,19.6,5.8
								c7.1,2.7,12.8,8.1,17.4,14c5.7,7.3,10.5,17.3,11.5,26.5v0.6c3.4,35.2,11.2,106,18.1,154.4c8.3,58.2,14.8,117.3,17.5,176.1
								c1.8,39.7,6.7,89.3-16,124.1c-16.4,25.2-45.4,34-74.2,36.5l-0.1-0.9c0.8-6.3-1-14.2-2-20.4c-2.8-17.1-6-36.9-13.8-52.5l0-0.6
								c2.2-0.1,4.5-0.4,6.8-1c3-0.8,6.1-2.3,8.8-0.8c-1.4-5.8-2.3-13-4.9-18.5h0c-2.6-11.8-8.4-22.9-11.9-34.4
								c-5.2-17.3-11-34-18.5-50.4c-12.8-27.9-29.7-53-58.6-66c-18.4-8.3-38.7-13.2-58-18.8c-10-2.9-19.9-6.2-29.7-9.5
								c-6.7-2.3-15.6-3.6-20.4-9l-0.5,0c0.3-1.8,0-4.5-0.1-6.7c-0.2-6.4,1.6-13.8,0.6-20c1.2-1.9,2.4-4.4,3.3-6.6
								c5.4-12.4,6.6-20.4,12-32.3c11.7-25.9,14.6-58.6,5-85.9c-7.4-21.1-18.2-34.5-36-47.5c-9.8-7.1-21.3-16.1-34-16.2h-1.1
								c-22.9-3.6-41-2.2-63,7.1c-22.9,9.7-31.9,20.6-41.8,47.2c0.1,0,0.1-0.1,0.2-0.1l0.1,0.1c-5.8,10.9-10.5,22.3-16.8,32.7
								c-4.6,7.5,1.9,10.9,1,18.4c-1.7,14.5-21.6,25-22.1,39.5c-0.3,10,11,7,17.5,7l0.1,0.7c1.9,3.4,0.7,7.3,1.3,10.7
								c0.8,5.2,0.5,4.9,5.8,6.8c5.6,2.1,11.6,4.1,14.7,9.6c-5.1,3.4-12.6,3.8-17.2,8c1.3,3.6,6.2,2.2,7.3,5.5c1,2.9-3.4,9.7-4,12.9
								c-1.5,8.3,1.9,15.4,8.2,20.7c6,5.1,14.9,8.8,22.8,8.7c4.9-0.1,9-2.7,13.9-3.7c3.1-0.6,6.2-1,9.3-1.5v0c1.3,2.5,2.9,6,2.9,8.8
								c0,2.2-1.4,3.6-1.4,5.4c-16.2,11-34.6,19.3-49.6,32.1c-14.4,12.4-21.8,33.5-27.4,51.1c-7.1,22.1-8.8,47.3-12.6,70.2
								c-1.7,10.6-3.5,23.5-8.3,33.4c4.5-2.9,10.5-4.6,16.2-4.4l0,0.5c0,17.2,0.2,34,1.1,51.1c0.2,4.4-0.6,9.7,0.5,13.7
								C2095.4,860.1,2095.3,860.2,2095.3,860.3L2095.3,860.3z"/>
							<path class="st2" d="M1886.2,1296.8c30.5-2.3,60.9-5.7,91.5-4.8l1.1,0.2c-1.8,14.2-3.2,28.4-5.6,42.5
								c-1.2,6.8-1.2,30.4-3.4,31.8c-23.5,5.6-51.1,1.5-75.4,4.1c-2.7,0.3-5.5,0.6-8.2,0.9v-4.4
								C1886.2,1343.6,1886.2,1320.2,1886.2,1296.8"/>
							<path d="M2086.7,1355.8c0.8,4.8,5.4,15.4,7.9,19.7c7,11.6,11.6,18.8,22.9,27.1c5.9,4.4,12.3,7.6,18.4,11.6
								c8.6,5.7,19.1,7.3,29.3,8.3c29.5,3,55.9-15.3,74.2-35.4c24.4-26.9,16.6-65.4,3.3-95.3c-5.7-12.8-13.2-25.1-25.5-32.8
								c-11.2-7.1-24.8-10.6-37.8-13.3c-8-1.7-32.8-2.7-48.4,5.2c-12,6.2-24.3,17.9-31.1,29.2c-10.8,18.2-15.5,33.8-15.5,55.2
								C2084.5,1341.7,2085.7,1349.5,2086.7,1355.8 M2012.7,1270.4c18.3-59.3,65.2-98.6,122-116.3l0-0.1
								c36.9-9.2,93.1,7.8,125.3,22.9c27.6,12.9,48.2,41.2,61.3,68.3c34.3,71.1,42.6,153.9-15.2,215.8c-25,26.8-60,39.8-97.3,50.3
								c-53.8,15.4-110.1,4.5-148.7-27.5C1998,1432.6,1990.3,1343.2,2012.7,1270.4"/>
							<path class="st10" d="M2358.9,810.8c7.4,14.4,12.4,37.4,16.9,51.9l0,0.8c-9.9-0.4-19.8-0.7-29.7-0.9
								c-36-0.5-71.9,0.4-108-1.3c-33.2-1.6-65.7-5.7-99-3.1c-3.2,0.2-6.4,0.5-9.6,0.7c-0.9-5.9-1.1-12-1.7-18.2
								c-0.6-6.9-0.5-14.3-2.2-21c-1.1-4.5-3-8.6-4.3-13.1l-2,0.2c0,0,0,0,0,0c-0.5-0.1-4.9-1.2-6-1.7c-3.5-1.8-4.5-4.6-7.5-6.9
								c-3.4-2.5-7.6-3.7-11.9-3.8c-5.7-0.2-11.6,1.5-16.2,4.4c4.8-9.9,6.5-22.7,8.3-33.4c3.8-22.9,5.4-48.1,12.6-70.2
								c5.7-17.6,13-38.7,27.4-51.1c15-12.9,33.4-21.1,49.6-32.1c0,0.4,0.1,0.7,0.2,1.1c1.3,4.1,7.2,7.2,6.7,12.5
								c-0.3,0.7-0.4,1.3-0.4,1.9c0.2,3.6,5.9,5.9,8.9,6.6c11.4,2.5,24-0.6,34.8-4.2c14.3-4.7,28.4-12.7,40.1-22.3
								c7.5-6.2,17.9-15.7,21.2-25.2l0.1,0v-0.1l0.5,0c4.8,5.4,13.7,6.7,20.4,9c9.8,3.3,19.8,6.6,29.7,9.5
								c19.3,5.6,39.6,10.5,58,18.8c28.9,12.9,45.8,38.1,58.6,66c7.5,16.4,13.3,33.1,18.5,50.4c3.5,11.6,9.2,22.7,11.9,34.4h0
								c2.6,5.5,3.4,12.7,4.9,18.5c-2.6-1.5-5.7,0.1-8.8,0.9c-2.4,0.6-4.6,0.8-6.8,1c-3.4,0.1-6.8-0.1-10.6-0.1
								c-10.3,0-13.4,8.2-22.8,10.8c-10.1,2.8-20.3-3.1-30.3-4c-10.5-1-13.5,0.6-21.9,6.7c-6.1,4.4-14.4,5.5-22.2,5.8
								c-2.5,0.1-5,0.2-7.5,0.3L2358.9,810.8z"/>
							<path class="st6" d="M2084.5,1335.3c0-21.4,4.7-37,15.5-55.2c6.8-11.3,19.1-23,31.1-29.2c15.5-7.9,40.4-6.9,48.4-5.2
								c13,2.7,26.6,6.2,37.8,13.3c12.3,7.8,19.8,20.1,25.5,32.8c13.4,29.8,21.2,68.4-3.3,95.3c-18.3,20.1-44.7,38.5-74.2,35.4
								c-10.2-1.1-20.7-2.7-29.3-8.3c-6.1-4-12.5-7.3-18.4-11.6c-11.2-8.3-15.9-15.6-22.9-27.1c-2.6-4.2-7.1-14.8-7.9-19.7
								C2085.7,1349.5,2084.5,1341.7,2084.5,1335.3"/>
							<path class="st11" d="M2129.1,859c-11.3,0.7-22.6,1.1-33.9,1.3v0c0.1,0,0.2-0.1,0.4-0.4c-1.1-4-0.3-9.3-0.5-13.7
								c-0.9-17.1-1.1-33.9-1.1-51.1l0-0.5c4.3,0.1,8.5,1.3,11.9,3.8c3,2.3,4,5.1,7.5,6.9c1,0.5,5.5,1.6,6,1.7c0,0,0,0,0,0l2-0.2
								c1.2,4.5,3.1,8.6,4.3,13.1c1.7,6.8,1.6,14.1,2.2,21c0.6,6.2,0.8,12.3,1.7,18.2C2129.4,858.9,2129.3,859,2129.1,859"/>
							<path class="st11" d="M2254,511.1c1.6-2.1,5.1-3.6,8.8-0.1c2.2-6.1,3-12.8,5.5-19.1c2.3-5.9,6.5-15.7,2.3-22
								c-8.6-12.7-18.4,15.1-17.8,21.4c13.2,3.8,0.8,14.1,1.1,19.8L2254,511.1 M2270.2,511.8c-1,6.7,4,11.9,5.1,18.5
								c1.1,6.6,2.6,14.3,2.3,21.1c2.1-3.4,4.6-7.6,7.7-9.9c0.4,5.1,1.5,10.1,1.9,15.2c0.2-0.2,0.3-0.5,0.5-0.7
								c1,6.2-0.9,13.5-0.6,20c0.1,2.1,0.4,4.9,0.1,6.7v0.1l-0.1,0c-3.3,9.5-13.7,19-21.2,25.2c-11.6,9.6-25.8,17.5-40.1,22.3
								c-10.8,3.6-23.4,6.7-34.8,4.2c-3-0.7-8.8-3-8.9-6.6c0.2-0.7,0.4-1.3,0.4-1.9c0.5-5.3-5.4-8.4-6.7-12.5
								c-0.1-0.4-0.2-0.8-0.2-1.1c0-1.8,1.4-3.3,1.4-5.4c0-2.9-1.6-6.4-2.9-8.8v0c-3.1,0.4-6.2,0.9-9.3,1.5c-4.8,0.9-9,3.6-13.9,3.7
								c-7.9,0.1-16.9-3.6-22.8-8.7c-6.3-5.4-9.7-12.5-8.2-20.7c0.6-3.2,4.9-10,4-12.9c-1.1-3.3-6-1.9-7.3-5.5
								c4.6-4.2,12.1-4.7,17.2-8c-3.1-5.5-9.1-7.5-14.7-9.6c-5.3-1.9-5-1.5-5.8-6.8c-0.5-3.4,0.7-7.3-1.3-10.7l-0.1-0.7
								c-6.5,0-17.8,3.1-17.5-7c0.5-14.5,20.4-25,22.1-39.5c0.9-7.5-5.6-10.9-1-18.4c6.3-10.4,11.1-21.9,16.8-32.7l-0.1-0.1
								c3.1-2.2,5.2-3.4,9.1-4.9c-0.6,3.4-1.9,9.2-0.6,12.2c11.2-13.6,37.8-31.7,52.4-14.2c7.2,8.6,5.7,19.9,0.4,29.6
								c3.9-2,8.2-4,11.6-6.7c-0.8,4.5-1.3,9.8-1,14.6c3.3-0.5,5.9-5.9,8.3-8.3c-0.3,4.8-0.6,9.4,0.6,14c2.6-0.4,4.9-3,6.7-5
								c3.8,9.6,5.1,21.6,10.3,30.4c3.9-2,6.6-8.4,9.1-12.1c-1.2,4.5-0.4,7.3,0,11.6c2.8-2,6.2-5.2,8.3-8.3c0.1,2.5,0.1,5.1,0.1,7.6
								c2.4-5,4.3-11.2,6.2-15.7c3.5-6,6.1-13.1,14.6-13c10.1,0.1,18.5,12.7,18.1,22c-0.3,8.4-5.6,14.3-9.8,21.1
								c-3,4.9-5.3,10-6.7,15.4L2270.2,511.8z M2155.4,467.6c-2.1,0.1-4.2,0.3-6.3,0.8c-4.3,0.9-7.6,1.5-10.2,5.4
								c-0.6,0.9-1.3,2.2-2,3.5c-1,2.1-1.9,4.4-2,6.1c-0.1,2.8,1.8,4.1,4.6,2.9c2.1-1,3.3-3.6,4.7-5.3c3.1,0.5,6.6,0.5,9.1,0.5
								c0.6,0,1.1,0,1.7,0c4.2-0.1,8.5-0.7,12.5-1.9c4-1.3,6.8-4.4,10.6-5.9v-0.3c-3.7-2.8-7.8-5.6-13.2-5.7
								C2161.8,467.5,2158.6,467.4,2155.4,467.6"/>
							<path class="st12" d="M2287.8,556c-0.2,0.2-0.3,0.5-0.5,0.7c-0.4-5.1-1.5-10.1-1.9-15.2c-3.1,2.4-5.6,6.5-7.7,9.9
								c0.2-6.8-1.2-14.4-2.3-21.1c-1.1-6.6-6.1-11.8-5.1-18.5l-0.1,0c1.5-5.4,3.7-10.5,6.7-15.4c4.2-6.8,9.4-12.7,9.8-21.1
								c0.4-9.3-8-21.9-18.1-22c-8.6-0.1-11.2,7-14.6,13c-2,4.5-3.8,10.6-6.2,15.7c0-2.5,0.1-5.1,0-7.6c-2.2,3.1-5.5,6.3-8.3,8.3
								c-0.4-4.3-1.2-7.1,0-11.6c-2.5,3.8-5.2,10.1-9.1,12.1c-5.2-8.8-6.4-20.8-10.3-30.4c-1.8,1.9-4,4.5-6.7,5
								c-1.1-4.6-0.9-9.1-0.6-14c-2.4,2.4-5,7.8-8.4,8.3c-0.4-4.7,0.2-10,1-14.6c-3.4,2.7-7.7,4.7-11.6,6.7c5.3-9.7,6.7-21-0.4-29.6
								c-14.6-17.5-41.2,0.5-52.4,14.2c-1.3-2.9,0.1-8.8,0.6-12.2c-3.8,1.5-6,2.7-9.1,4.9c-0.1,0-0.1,0.1-0.2,0.1
								c9.9-26.5,18.9-37.5,41.8-47.1c22-9.3,40.1-10.7,63-7.1h1.1c12.7,0.1,24.2,9.1,34,16.2c17.8,13,28.6,26.4,36,47.4
								c9.6,27.3,6.7,60-5,85.9c-5.4,11.9-6.6,19.9-12,32.3C2290.2,551.6,2289,554.1,2287.8,556"/>
							<path class="st13" d="M2134.9,483.3c0.1-1.7,1-4,2-6.1l0.3,0.2c1.4,2,4.1,3,7,3.5c-1.4,1.7-2.6,4.3-4.7,5.3
								C2136.8,487.4,2134.8,486.1,2134.9,483.3"/>
							<path class="st14" d="M2144.2,480.9c-2.9-0.5-5.6-1.5-7-3.5l-0.3-0.2c0.7-1.3,1.4-2.6,2-3.5c2.5-3.8,5.9-4.5,10.2-5.4
								c2.1-0.4,4.2-0.7,6.3-0.8c3.3,3.3,4.3,10.8-0.3,13.2l0,0.5c-0.6,0-1.1,0-1.7,0C2150.8,481.4,2147.4,481.4,2144.2,480.9
								 M2148.5,475.3c0.1,0,0.1-0.1,0.1-0.2c1.4-1-1.1-2.9-2.2-0.9C2145.5,475.8,2147.4,475.9,2148.5,475.3L2148.5,475.3z"/>
							<path class="st15" d="M2155,480.8c4.6-2.4,3.6-9.9,0.3-13.2c3.2-0.2,6.4-0.1,9.6-0.1c5.4,0,9.5,2.9,13.2,5.6v0.3
								c-3.8,1.5-6.7,4.6-10.6,5.9c-4,1.3-8.3,1.8-12.5,1.9L2155,480.8"/>
							<path class="st11" d="M2270.6,469.8c4.2,6.3,0,16.1-2.3,22c-2.5,6.3-3.3,13-5.5,19.1c-3.6-3.4-7.2-2-8.8,0.1l-0.1-0.1
								c-0.4-5.7,12.1-16-1.1-19.8C2252.2,484.9,2262,457.1,2270.6,469.8"/>
							<path class="st11" d="M2358.9,810.5c2.4-0.2,4.9-0.2,7.5-0.3c7.8-0.2,16.1-1.3,22.2-5.8c8.4-6.1,11.4-7.7,21.9-6.7
								c10,1,20.2,6.8,30.3,4c9.4-2.6,12.5-10.8,22.8-10.8c3.8,0,7.2,0.2,10.6,0.1l0,0.6c7.8,15.6,11,35.4,13.8,52.5
								c1,6.2,2.8,14.1,2,20.4l0.1,0.9c-2.7,0.2-5.4,0.4-8.1,0.5c-35.4,1.7-70.7-0.8-106.1-2.3l0-0.8c-4.5-14.5-9.6-37.5-16.9-51.9
								L2358.9,810.5"/>
							<path class="st2" d="M2373.4,1299.9c72.1,0,149.5-5.6,221.4-11.7l0.2,0.1c-1,2-2.1,4-3.2,5.9c-6.6,12.2-50,68.2-48.6,73.4
								l0,0.5c-14.8,0.4-29.5,1.1-44.3,1.8c-26.7,1.4-53.4,1.6-80.1,2.8c-9.3,0.4-29.4-1.3-35.9,0.6l-0.1-0.4
								c-3.8-20.4-2.3-37.8-6.4-58.8C2375.5,1309.4,2374.5,1304.6,2373.4,1299.9"/>
							<path class="st2" d="M2591.8,1294.2c1.1-2,2.1-3.9,3.2-5.9c44-83.9,63.4-175.1,65.5-269.4c0.4-19.6,1.8-53.9,16.5-69
								c7.1-7.3,17.9-9.4,29.2-10.2l0,0.5c-0.7,26.1,6.4,51.6,8.3,77.4c0.2,2.7,0.4,5.4,0.5,8.1c0,0.1,0,0.1,0,0.1
								c1.5,27.8,0.5,55.8,0.5,83.6c0,8-0.1,16-0.1,24c-0.3,30.7-0.8,61.7,0.2,92.2c12.5,4.9,28.3,5.4,41.4,6.1h0.1
								c0.2,33.1-0.4,71.2-18.7,98.3c-16.8,24.9-44.2,21.8-69.5,32.2h-0.4c-14.1,6-32.1,3.4-47,3.9c-15,0.5-29.9,1.7-45,1.7
								c-11.2,0-22.3,0.2-33.4,0.5l0-0.5C2541.8,1362.4,2585.2,1306.4,2591.8,1294.2"/>
							<path class="st16" d="M2706.2,939.6c4.7-0.3,9.5-0.5,14.2-0.7c7.1-0.3,13.8-0.8,19.5-2.4l0.3,0.3c8.9,26.9,6.2,61.4,6.1,92.3
								h-0.2c-9.1,2.8-20.9-5.5-30.3-4c-0.4,0.3-0.6,0.5-0.6,0.6c-0.1-2.7-0.3-5.4-0.5-8.1c-1.9-25.9-9-51.3-8.3-77.4L2706.2,939.6"
								/>
							<path class="st3" d="M2715,1025.7C2715,1025.7,2715,1025.6,2715,1025.7c0.1-0.2,0.2-0.3,0.6-0.7c9.4-1.5,21.2,6.8,30.3,4.1
								h0.2c0,8.2,0.1,16.2,0.7,23.7c2.3,28.4,4.9,56.5,6.9,84.7l-0.2,0c-9.8,0.4-29.9-4.2-36.4-4.2l-1.8,0c0.1-8,0.1-16,0.1-24
								C2715.5,1081.5,2716.6,1053.5,2715,1025.7"/>
							<path class="st5" d="M2717.2,1133.3c6.5,0.1,26.7,4.6,36.4,4.2l0.2,0c1.9,26.3,3.2,52.6,3.2,79.3c0,4.8,0.1,9.7,0.1,14.8
								h-0.1c-13.2-0.7-28.9-1.2-41.4-6.1c-1-30.5-0.5-61.4-0.2-92.2L2717.2,1133.3z"/>
						</g>
					</g>
				</g>
				<path class="st17" d="M790.2,592.9C822.3,533.2,872,474.7,915.9,423c17-20,34.8-40.1,53.1-59.7c14.4-15.4,29.1-30.5,44.2-45
					c8.7-8.4,17.4-16.6,26.2-24.5c27.2-24.6,55.6-47.5,93-52.9c40.6-5.9,80.7-5.5,121.5-8.9c212.2-17.6,426.7-31.6,639.7-21.6
					c110.3,5.2,222.4,4.4,332.7,2.2c67.3-1.4,134.2-7.7,201.4-7.7c48.9,0,102-2.2,148.1,16.5c27.2,11,45.4,34.7,51.6,57.9h0
					c0.3,1.2,0.6,2.4,0.9,3.6"/>
				<path class="st17" d="M222.6,1245.1v1.1"/>
				<path class="st17" d="M222.6,1245.1v-3.5"/>
				<path class="st17" d="M222.6,1241.1v-13c0-4.3,0.1-8.6,0-13c0-3-0.1-6-0.4-9c-1.9-25.6-5.2-51.8-6.1-78
					c-0.8-22.8,0.4-45.7,6-68.2c4.7-18.9,10.4-32.9,17.8-44.1c14.1-21.2,34.7-32.1,67.5-46.8c78.9-35.4,161.9-69,237.6-110.7
					c40.5-22.3,79.8-41.7,111.4-75.9c0.2-0.2,0.4-0.5,0.7-0.7c51.3-56.1,95.7-122.7,133-189"/>
				<path class="st17" d="M2720.3,938.7c-0.6-3.1-1.5-15.4-2.2-22.6c-1.9-19-3.4-38.2-5.3-57.4c-8.1-79.2-18.6-158-30.1-236.7
					c-10.3-70.5-10.6-142.9-23.8-213c-8.3-44-22.8-82.6-30.6-126"/>
				<path class="st17" d="M2543.2,1367.6c-1.4-5.3,42-61.2,48.6-73.4c1.1-2,2.1-3.9,3.2-5.9c44-83.9,63.4-175.1,65.5-269.4
					c0.4-19.6,1.8-53.9,16.5-69c7.1-7.3,17.9-9.4,29.2-10.2c4.7-0.3,9.5-0.5,14.2-0.7c7.1-0.3,13.8-0.8,19.5-2.5"/>
				<path class="st17" d="M2668.9,1362c25.2-10.4,52.7-7.3,69.5-32.1c18.3-27.1,18.9-65.2,18.7-98.3c0-5.1-0.1-10-0.1-14.8
					c0-26.7-1.3-53-3.2-79.3c-2-28.2-4.6-56.3-6.9-84.7c-0.6-7.5-0.8-15.5-0.7-23.7c0.1-31,2.8-65.4-6.1-92.3"/>
				<path class="st17" d="M2382.8,1373.3C2382.8,1373.3,2382.9,1373.3,2382.8,1373.3c6.6-1.9,26.7-0.1,36-0.6
					c26.6-1.2,53.4-1.4,80.1-2.8c14.8-0.8,29.5-1.4,44.3-1.8c11.1-0.3,22.2-0.5,33.4-0.5c15,0,30-1.2,45-1.7c14.9-0.5,32.9,2,47-3.9
					"/>
				<path class="st17" d="M2382.8,1372.9c-3.8-20.4-2.3-37.8-6.3-58.8c-0.9-4.7-1.9-9.5-3.1-14.3c-14-59.2-43.9-119.6-94.1-155
					c-42.2-29.8-96.7-29.1-145.7-29.1h-2.3"/>
				<path class="st17" d="M2373.4,1299.9c72.1,0,149.5-5.6,221.4-11.7"/>
				<path class="st17" d="M2044.4,1151.9c26.5-19.2,55.9-36,89.2-36.1"/>
				<path class="st17" d="M1969.8,1366.5c2.2-1.4,2.2-25,3.4-31.8c2.5-14.1,3.8-28.3,5.6-42.5c1.3-9.8,2.8-19.6,5-29.4
					c8.3-35.5,28.6-88.5,60.8-110.3c0.2-0.2,0.5-0.3,0.8-0.5"/>
				<path class="st17" d="M1265.1,1390.2h0.3c20.2-0.1,40.4-1.1,60.8-1.1c4.8,0,9.7,0,14.6,0c82.1,0.4,165.6,4,247.5-2.6
					c74.4-5.9,148.9-5.3,223.4-7.7c25-0.8,49.8-4.5,74.6-7.4c2.7-0.3,5.5-0.6,8.2-0.9c24.3-2.5,51.9,1.5,75.4-4.1"/>
				<path class="st17" d="M770.2,1394.4C770.2,1394.4,770.2,1394.4,770.2,1394.4c14.2-3.2,39.5-0.7,54.4-1.9
					c53-4.3,106.1-3.9,159.2-5.9c58.4-2.2,117,0.2,175.4,0.2c19.7,0,39.4-0.5,59,0.2c13.6,0.5,29,3.7,47.2,3.1"/>
				<path class="st17" d="M770.2,1394c-2.2-26-7.5-52.6-15.7-78.3c-9.2-28.7-21.9-56.3-37.8-80.9c-16.7-25.9-34.8-42.1-63.9-51.2
					c-28.1-8.8-60.7-11.3-90.2-11.4"/>
				<path class="st17" d="M379.6,1407.2c3.4-8.7,2.8-22.1,3.3-31.6c1.2-22.4,4-44.8,9.3-66.6c3.1-12.7,7.2-24.8,12.5-36.3
					c8.9-19.4,21.2-37,37.2-52.1c16.4-15.4,39.4-30.7,61.1-37.4c19.3-6,39.9-10.1,59.5-10.8"/>
				<path class="st17" d="M211.1,1403.8c0.1,0,0.1,0,0.2,0c15.8,2.8,30.1,0,46.2,0c40.2,0,82,4.6,122.1,3.4"/>
				<path class="st17" d="M233.9,1260.3c7.9-0.8,30.2,1.5,41.2,2.2c42.6,2.6,86.6,10,129.3,10"/>
				<path class="st17" d="M222.6,1241.1v0.5c0,5.7,1.5,12.9,0.4,18.5c2.5,0.5,5.6,0.2,10.9,0.2"/>
				<path class="st17" d="M211.3,1403.8c-10.2-2.3-10.1-4-11.5-13.6c-3-20-1.6-42.9-0.6-63.2c1.3-27.8,4-55.7,2.6-83.5
					c-1-19.7,1-28.2,20.9-28.3h0"/>
				<path class="st17" d="M615.8,1558.9c0,0,0.1,0,0.1,0c58.7-13.3,87.4-56.2,107.9-102c24.6-55.1,17-116.8-11.1-168.7
					c-15.7-29-38.6-48.6-68.7-62c-23.1-10.3-55.6-16.6-79.7-15.9"/>
				<path class="st17" d="M490.3,1540.4c-0.1,0-0.1-0.1-0.2-0.1c-18.1-8.4-46.1-37.8-60.3-62c-33.3-56.8-30.2-127.6,2.1-184.6
					c14.5-25.5,33.4-46.1,59.3-60.2c22.6-12.3,40.9-21.7,73.3-23.2"/>
				<path class="st17" d="M490.1,1540.2c16.2,6.8,33.1,11.8,50.6,14.7c26,4.3,40.8,8.7,75.3,3.9"/>
				<path class="st17" d="M541.5,1468.2c8.7,2.3,25.8,6,38.5,3.3c14.9-3.2,31.3-7.7,44.1-16.3c40.1-26.9,36.4-91.2,12.5-127.3
					c-6.8-10.3-22.5-18.7-33-23.1c-18.8-7.9-44.1-10.5-61.7-3.8"/>
				<path class="st17" d="M541.1,1468.2c-35-15.1-42.3-25.1-49.7-48.6c-4.5-14.3-5.3-31.9-3.5-47.8c3.3-28.4,24.9-61.7,54-70.7"/>
				<path class="st17" d="M1013.2,318.4c39.3-9.7,83.7-4.9,124.6-8.4c64.4-5.5,128.9-9.2,193.5-11.7c175.1-6.9,350.9-5.2,526.2-8.3
					c30.2-0.5,60.5-1.2,90.7-2.1c127.9-3.7,257.1-14.2,385.1-8.2c48.2,2.3,97.5,3.1,145.8,1.4c45.6-1.7,103.9,10.9,147.5-1.7"/>
				<path class="st17" d="M1340.7,1388.8c0-20.1,1.7-52.3,1.7-76c0-2.5,0-4.9,0-7.3c0.2-56.8,3.8-113.1,1.3-170.1
					c-4.8-110.8-7-221.5-8-332.5c-1.6-167.3-11.7-337.4-4.4-504.1"/>
				<path class="st17" d="M1886.2,1371.5v0.3"/>
				<path class="st17" d="M1886.2,1367.1v4.4"/>
				<path class="st17" d="M1886.2,1367.1c0-23.4,0-46.9,0-70.3c-0.1-93.2-0.7-186.4-3.5-279.6c-1.5-50.3-3.2-100.5-4.9-150.9
					c-3.8-111.5-7.9-223-12.3-334.4c-2-49.6-6.7-99.8-6.4-149.4c0.1-10.4-0.2-20.9-0.6-31.4c-0.7-20.1-1.7-40.2-1-60"/>
				<path class="st17" d="M2208.9,1511.4c37.3-10.5,72.3-23.5,97.3-50.3c57.8-62,49.5-144.7,15.2-215.8
					c-13.1-27.2-33.7-55.4-61.3-68.3c-32.3-15.1-88.4-32.1-125.3-22.9c-0.1,0-0.2,0.1-0.4,0.1"/>
				<path class="st17" d="M2208.9,1511.4c-53.8,15.4-110.1,4.5-148.7-27.5c-62.1-51.4-69.9-140.7-47.4-213.5
					c18.3-59.3,65.2-98.6,122-116.3"/>
				<path class="st17" d="M2757,1231.5c-13.2-0.7-28.9-1.2-41.4-6.1c-1-30.5-0.5-61.4-0.2-92.2c0.1-8,0.1-16,0.1-24
					c0-27.8,1.1-55.8-0.5-83.6c0,0,0-0.1,0-0.1c-0.1-2.7-0.3-5.4-0.5-8.1c-1.9-25.9-9-51.3-8.3-77.4"/>
				<path class="st17" d="M2717.2,1133.3c6.5,0.1,26.7,4.6,36.4,4.2"/>
				<path class="st17" d="M2716.4,1025.7c-0.1-0.3-1.2,0.1-1.3,0c0,0,0,0,0-0.1c0.1-0.1,0.2-0.3,0.6-0.6c9.4-1.5,21.2,6.8,30.3,4.1"
					/>
				<path class="st17" d="M2544.7,374.3c3.4,35.2,11.2,106,18.1,154.4c8.3,58.2,14.8,117.3,17.5,176.1c1.8,39.7,6.7,89.3-16,124.1
					c-16.4,25.2-45.4,34-74.2,36.5c-2.7,0.2-5.4,0.4-8.1,0.5c-35.4,1.7-70.7-0.8-106.1-2.3c-9.9-0.4-19.8-0.7-29.7-0.9
					c-36-0.5-71.9,0.4-108-1.3c-33.2-1.6-65.7-5.7-99-3.1c-3.2,0.2-6.4,0.5-9.6,0.7c-0.1,0-0.3,0-0.4,0c-11.3,0.7-22.6,1.1-33.9,1.3
					c-46.6,0.9-93.6-1-140.2,2.1c-25.9,1.7-51.6,2.6-77.2,3.9c-29.8,1.5-59.5,3.7-89.2,8.4c-51.7,8.3-105.4,5.6-157.7,6.1
					c-44.6,0.4-87.9-2.1-132.2-7.9c-22.2-2.9-44.7-2.6-66.5-4.7c-10.1-1-18.7-3.4-25.7-11.1c-8.2-9-10.5-26.3-10.4-38.4
					c0.1-20.1-1.4-40-2.3-60.4c-3.9-89.1-23.3-178.6-19.2-267.9c1.2-27.3,2.6-53.9,2.1-81.4c-0.3-14.4-1.2-32.6,9.8-43.7
					c10-10.2,32.1-10.2,46.5-9.6c27.3,1.2,55.8-1.9,83.5-3.4c92.2-4.8,184.1,1.1,276.2,1.1c22,0,43.9-0.9,65.8-2.3
					c29.4-1.9,58.8-4.7,88.3-7.3c56.6-5,113.4-6.1,170.1-9.1c40.7-2.2,81.4-2.1,122.2-2.7c39.4-0.6,79.2-6.5,118.7-4.5
					c46.1,2.4,92.4-4.3,138.4-0.1"/>
				<path class="st17" d="M2544.7,373.8c-1-9.2-5.8-19.2-11.5-26.5c-4.7-6-10.3-11.3-17.4-14c-6.8-2.6-12.8-6.1-19.6-5.8"/>
				<path class="st17" d="M896.9,658.4c18.9-29.6,43.6-60.7,60-88.1c38.2-63.8,88-137.5,145-185.3c14.6-12.3,30.7-15.8,49.2-17.4
					c37.3-3.2,75.3-5.1,113.2-5.1h0.3"/>
				<path class="st17" d="M1293.3,801.2c0-0.1,0.1-0.2,0.1-0.3c5.2-17.5,1.6-40.3,1.6-58.5c0-97.5-3.5-194.3-6.8-291.2
					c-1-29.8,12.5-83.2-24-88.9"/>
				<path class="st17" d="M815.3,888.5c112.3-16.9,224.9-30.9,336.5-50c27.8-4.8,128.2-0.8,141.5-37.5"/>
				<path class="st17" d="M815.3,888.5c-15,2.5-75.1,10.4-82.5-0.6c-17.3-24.2,64.4-89.2,79.6-104.5"/>
				<path class="st17" d="M851.1,829.2c5.4,1.4,10.2,1.9,16.2,1.7c12.9-0.4,27,5.4,39.1-0.8c8.4-4.3,10.4-11.7,10.8-20.7
					c0.8-14.8,0.8-30,0.8-44.8c0-21.8-1.5-43.4-1.7-65.2c-0.1-10.8,1.2-30.1-8.1-37.5c-2.8-2.2-7.1-3-11.4-3.2
					c-3.7-0.2-7.4,0.1-10.5,0.2c-10.7,0.5-20.8,0.1-31.8,0"/>
				<path class="st17" d="M851.1,829.2c-12.2-3.3-13.7-26.5-13.4-45.7c0.2-9.8,0.8-18.6,0.7-23c-0.1-4.4-0.7-12.1-1.3-21.3
					c-1.8-30.5-2.9-77.9,17.4-80.2"/>
				<path class="st17" d="M836.7,783.4c-6.5-0.2-15.3-0.7-24.3-0.2c-9,0.4-18.2,1.6-25.4,4.6c3.3-13.9-0.1-31.1,0.7-45.7
					c15.5-1.4,32.1-3.5,49.3-3"/>
				<path class="st17" d="M656.6,782.6c25-9.9,61.3,1.8,83.6-16.1c13.8-11,24-30.3,34.5-44.3c22.6-30.2,45.1-60.4,68-90.5
					c47.3-62,96.1-122.6,145.2-183.2c15.1-18.6,28.6-39.9,44.7-57.4c5.3-5.8,18.2-12.1,20.3-20.2c3.1-11.5-17.6-6.1-25.5-6.1
					c-19.4-0.1-38.9-1.5-58.5-1.5h-0.1"/>
				<path class="st17" d="M1229.6,932.6c0,0.1,0,0.1,0,0.2c0.7,5.8,0.8,13.6-0.9,19.1c-4.6,1.2-10.1,1.3-15.9,1
					c-8.9-0.4-18.4-1.7-26.1-1.7c-12.3,0-24.6,0-36.9,0c-3.5,0-7.3-0.3-11.1-0.7c-8.8-0.9-18-2.2-25.9-0.4c-1.1-4,0.9-8.8,1.8-13.1
					c7.9-1.2,16.7-0.4,25.3,0c4.1,0.2,8.2,0.3,12.1,0c14.1-0.9,28-0.6,42.1-1.4c5.6-0.3,11.4-1.6,17.1-2.5c6.2-1,12.3-1.6,18-0.2"/>
				<path class="st17" d="M1140,936.8c9.3-33.8,58.2-33.9,71.2-4.2"/>
				<path class="st17" d="M1138.9,950.6c-2.5,8.2,10.2,23.7,17.8,26.6c21.9,8.5,47.4-2.7,56.2-23.5"/>
				<path class="st17" d="M1534.7,946.9c1.8-3.7,1.8-8.4,2.5-12.6c-7.9-0.4-15.8-0.5-23.7-0.5c-13-0.1-26-0.1-38.9-1.2
					c-7.8-0.7-16,0-24.3,0.8c-12.8,1.2-25.8,2.5-37.4-0.8c0.5,5,3.7,10.6,2.7,16c6.9,0.6,14.5-0.6,21.6-0.9c4-0.2,8-0.3,11.9-0.4
					c22.2-0.6,44-0.6,66.1-0.5c6.4,0,12.8,0,19.2,0"/>
				<path class="st17" d="M1450.3,933.4c7.3-27,56.4-26.1,63.2,0"/>
				<path class="st17" d="M1449.2,947.5c-0.3,5.9,3.1,10.4,5.1,13.3c4.4,6.3,11.5,9.2,18.7,10c18,1.9,34.5-6.4,42.3-23.5"/>
				<path class="st17" d="M1609.7,1247.1c9.1-1.2,15.4-0.3,27.4,0.2c3.3-9,10-34.7,10-34.7s11.3,0.6,14.8,0.3
					c7.1-0.6,10.6-1.3,17.7-0.8"/>
				<path class="st17" d="M1609.6,1247.2c0-0.1,0.1-0.1,0.1-0.1c4.9-9.5,9.1-20.8,13.7-31c11.1-24.3,24.7-49.9,30.8-76"/>
				<path class="st17" d="M1663.8,1158.7c-0.1,0.2-0.1,0.3-0.2,0.5c-3,9-7.2,18.6-9.4,29.4"/>
				<path class="st17" d="M1663.8,1159.3"/>
				<path class="st17" d="M1551.7,1183.3c12-14.5,24.5-29.9,34.4-46"/>
				<path class="st17" d="M1577.8,1246.2c-1.1-7.6-6.8-17.2-9.8-24.1c-5.6-12.9-10.6-26.1-16.4-38.8"/>
				<path class="st17" d="M1556,1245.5c-1-1.9-2.3-7.2-3.1-9.9c-1.6-5.2-3.2-10.4-5.1-15.5c-3.1-8.7-7.4-16.8-10.6-25.3"/>
				<path class="st17" d="M1577.8,1246.2c-0.3,0.5-4.2,0.3-5.8,0.3c-4.8,0-11.7-0.8-15.9-1"/>
				<path class="st17" d="M1501,1243.8c3.8-4.2,8-10.9,11-15c4.3-5.9,8.8-11.7,13.4-17.4c3-3.8,5.6-7.9,8.4-11.8
					c1.2-1.6,2.2-2.8,3.4-4.8c0,0,0,0,0,0"/>
				<path class="st17" d="M1481.6,1238.6c3-4.8,6.7-9.4,10.1-14c4.4-6,8.7-11.9,13-17.9c3.2-4.6,6.6-9.1,10-13.6
					c3.2-4.2,7.5-9.5,10.8-14.5"/>
				<path class="st17" d="M1479.1,1242c4.3-0.3,15.4,1.9,21.9,1.8h0.1"/>
				<path class="st17" d="M1481.6,1238.6c-0.9,1.1-1.8,2.4-2.5,3.4"/>
				<path class="st17" d="M1565.8,1135.1c6.2-0.6,14.9,0,22.2-0.4c-0.4,0.7-1.5,2.1-1.9,2.6c0,0,0,0,0,0c-0.1,0.1-0.1,0.1-0.1,0.1"
					/>
				<path class="st17" d="M1452.5,1239L1452.5,1239"/>
				<path class="st17" d="M1452.6,1131.3"/>
				<path class="st17" d="M1452.4,1238.9c-1.7,0.4-5.9-0.5-8.1-0.8c-3.7-0.4-7.2,0.1-10.9-0.1c-1.1-18.9,0.5-38-0.3-56.8
					c-0.5-11.6,0.3-23.1,0.3-34.7c0-5,1.1-11.4-0.2-16.2c1.4-0.7,3.5,0,5,0.1c2.4,0.2,3.9,0.4,6.4,0.3c2.3-0.1,4.7-0.1,8.1,0.4v0
					c0.1,0,0.2,0,0.2,0"/>
				<path class="st17" d="M2100,1280.1c-10.9,18.2-15.5,33.8-15.5,55.2c0,6.4,1.2,14.2,2.3,20.5c0.8,4.8,5.4,15.4,7.9,19.7
					c7,11.6,11.6,18.8,22.9,27.1c5.9,4.4,12.3,7.6,18.4,11.6c8.6,5.7,19.1,7.3,29.3,8.3c29.5,3,55.9-15.3,74.2-35.4
					c24.4-26.9,16.6-65.4,3.3-95.3c-5.7-12.8-13.2-25.1-25.5-32.8c-11.2-7.1-24.8-10.6-37.8-13.3c-8-1.7-32.8-2.7-48.4,5.2
					C2119,1257.2,2106.8,1268.8,2100,1280.1z"/>
				<path class="st17" d="M1147.6,1307.8c10.2-2.5,30-1.1,43.6-1.1c16.8-0.1,33.5-1.1,50.3-1.1c33.5,0,67,0,100.5,0h0.3
					c129,0,257.8-1.5,386.7-6.7c37.6-1.5,75-0.1,112.6-0.1c14.8,0,29.7-0.8,44.5-2c30.5-2.3,60.9-5.7,91.5-4.8"/>
				<path class="st17" d="M754.6,1315.7c43,0,85.9,2.2,128.9,2.2c47.6,0.1,94.4-11.1,141.8-11.3c39.6-0.1,83.3,8.5,122.4,1.1"/>
				<path class="st17" d="M293.8,1131.6c0.7-4,11.5-18.9,15.5-25.7c3.1-5.3,6.4-10.5,9.7-15.8c10.4-16.4,21.2-32.8,29.9-49.8
					c-13.9-5.6-30.8-8-45.4-11.6c-4.3-1.1-8.6-2.1-13-3.1c-16.4-3.9-33.1-7.5-49.9-9.2"/>
				<path class="st17" d="M218.1,1127.1c-0.3,0.1-1.7,0.8-1.7,1.1c0,0.1,0.1,0.1,0.5,0.1c9.7-2.5,23.6,1.2,34.3,2.2
					c14.3,1.3,28.5,0.4,42.6,1.1"/>
				<path class="st17" d="M318.6,1089.8c-8.5-5.4-14.6-10.8-20.3-19.7c-9.9-15.3-6.8-27.9-7.9-43.5"/>
				<path class="st17" d="M2120,499.7c3.8,4.1,10.4-0.3,14.1,4.1c7.3,8.5-4.2,13.7-11.2,13.4c0.9-2.1,3.3-3.9,3.2-6.6
					c-4.3-2-20.8,2.5-14.1,8.8c-6.5,0-17.8,3.1-17.5-7c0.5-14.5,20.4-25,22.1-39.5c0.9-7.5-5.6-10.9-1-18.4
					c6.3-10.4,11.1-21.9,16.8-32.7"/>
				<path class="st17" d="M2240.3,547.7c-7.6,19.7-23.8,40-45.1,46.3c-7.1,2.1-14,2.9-21,3.9c-3.1,0.4-6.2,0.9-9.3,1.5
					c-4.8,0.9-9,3.6-13.9,3.7c-7.9,0.1-16.9-3.6-22.8-8.7c-6.3-5.4-9.7-12.5-8.2-20.7c0.6-3.2,4.9-10,4-12.9c-1.1-3.3-6-1.9-7.3-5.5
					c4.6-4.2,12.1-4.7,17.2-8c-3.1-5.5-9.1-7.5-14.7-9.6c-5.3-1.9-5-1.5-5.8-6.8c-0.5-3.4,0.7-7.3-1.3-10.7"/>
				<path class="st17" d="M2253.9,466.4c-2,4.5-3.8,10.6-6.2,15.7c0-2.5,0.1-5.1,0-7.6c-2.2,3.1-5.5,6.3-8.3,8.3
					c-0.4-4.3-1.2-7.1,0-11.6c-2.5,3.8-5.2,10.1-9.1,12.1c-5.2-8.8-6.4-20.8-10.3-30.4c-1.8,1.9-4,4.5-6.7,5
					c-1.1-4.6-0.9-9.1-0.6-14c-2.4,2.4-5,7.8-8.4,8.3c-0.4-4.7,0.2-10,1-14.6c-3.4,2.7-7.7,4.7-11.6,6.7c5.3-9.7,6.7-21-0.4-29.6
					c-14.6-17.5-41.2,0.5-52.4,14.2c-1.3-2.9,0.1-8.8,0.6-12.2c-3.8,1.5-6,2.7-9.1,4.9c-0.1,0-0.1,0.1-0.2,0.1
					c9.9-26.5,18.9-37.5,41.8-47.1c22-9.3,40.1-10.7,63-7.1"/>
				<path class="st17" d="M2252.7,525.7c0.1,4.4,3.9,6.3,8,5.3c5.9-1.5,7.1-7.2,7.9-12.3c0.4-2.3,0.8-4.6,1.5-6.8
					c1.5-5.4,3.7-10.5,6.7-15.4c4.2-6.8,9.4-12.7,9.8-21.1c0.4-9.3-8-21.9-18.1-22c-8.6-0.1-11.2,7.1-14.6,13"/>
				<path class="st17" d="M2253.9,511c-0.4-5.7,12.1-16-1.1-19.8"/>
				<path class="st17" d="M2253.9,511.3c0-0.1,0.1-0.1,0.1-0.2c1.6-2.1,5.1-3.6,8.8-0.1c2.2-6.2,3-12.8,5.5-19.1
					c2.3-5.9,6.5-15.7,2.3-22c-8.6-12.7-18.4,15.1-17.8,21.4"/>
				<path class="st17" d="M2291.1,549.4c-0.9,2.2-2.1,4.7-3.3,6.6c-0.2,0.2-0.3,0.5-0.5,0.7c-0.4-5.1-1.5-10.1-1.9-15.2
					c-3.1,2.4-5.6,6.5-7.7,9.9c0.2-6.8-1.2-14.4-2.3-21.1c-1.1-6.6-6.1-11.8-5.1-18.5"/>
				<path class="st17" d="M2291.1,549.4c5.4-12.4,6.6-20.4,12-32.3c11.7-25.9,14.6-58.6,5-85.9c-7.4-21.1-18.2-34.5-36-47.5
					c-9.8-7.1-21.3-16.1-34-16.2"/>
				<path class="st17" d="M2287.2,583.3c0-0.2,0.1-0.3,0.1-0.5v-0.1c0.3-1.8,0-4.5-0.1-6.7c-0.2-6.4,1.6-13.8,0.6-20
					c0-0.1,0-0.3-0.1-0.4"/>
				<path class="st17" d="M2182.1,627.9c0,0,0-0.1,0-0.1c0.2-0.7,0.4-1.3,0.4-1.9c0.5-5.3-5.4-8.4-6.7-12.5
					c-0.1-0.4-0.2-0.8-0.2-1.1c0-1.8,1.4-3.3,1.4-5.4c0-2.9-1.6-6.4-2.9-8.8"/>
				<path class="st17" d="M2182.7,625.6c0,0.1-0.1,0.2-0.1,0.2c-0.3,0.7-0.4,1.3-0.4,1.9c0.2,3.6,5.9,5.9,8.9,6.6
					c11.4,2.5,24-0.6,34.8-4.2c14.3-4.7,28.4-12.7,40.1-22.3c7.5-6.2,17.9-15.7,21.2-25.2"/>
				<path class="st17" d="M2484.8,770.7c-2.6-11.8-8.4-22.9-11.9-34.4c-5.2-17.3-11-34-18.5-50.4c-12.8-27.9-29.7-53-58.6-66
					c-18.4-8.3-38.7-13.2-58-18.8c-10-2.9-19.9-6.2-29.7-9.5c-6.7-2.3-15.6-3.6-20.4-9"/>
				<path class="st17" d="M2484.3,769.6c0.2,0.4,0.4,0.8,0.6,1.1c2.6,5.5,3.4,12.7,4.9,18.5c-2.6-1.5-5.7,0.1-8.8,0.8
					c-2.4,0.6-4.6,0.9-6.8,1c-3.4,0.1-6.8-0.1-10.6-0.1c-10.3,0-13.4,8.2-22.8,10.8c-10.1,2.8-20.3-3.1-30.3-4
					c-10.5-1-13.5,0.6-21.9,6.7c-6.1,4.4-14.4,5.5-22.2,5.8c-2.5,0.1-5,0.2-7.5,0.3c-9.8,0.6-18.9,2-28.7,5.4
					c-0.6-11.9-0.2-23.8-0.6-35.8c-0.5-12.9-6-26.1-9-38.7c-2.5-10.1-4.2-22-7.9-31.6"/>
				<path class="st17" d="M2119.5,806.9C2119.5,806.9,2119.5,806.9,2119.5,806.9c-0.5-0.1-5-1.2-6-1.7c-3.5-1.8-4.5-4.6-7.5-6.9
					c-3.4-2.5-7.6-3.7-11.9-3.8c-5.7-0.2-11.6,1.5-16.2,4.4c4.8-9.9,6.5-22.7,8.3-33.4c3.8-22.9,5.4-48.1,12.6-70.2
					c5.7-17.6,13-38.7,27.4-51.1c15-12.9,33.4-21.1,49.6-32.1c0.1-0.1,0.1-0.1,0.2-0.2"/>
				<path class="st17" d="M2129.1,858.8c0,0,0.1,0.1,0.1,0.1c0.2,0.5,0,1.6,0.5,0.5c0-0.2-0.1-0.4-0.1-0.5c-0.9-5.9-1.1-12-1.7-18.2
					c-0.6-6.9-0.5-14.3-2.2-21c-1.1-4.5-3-8.6-4.3-13.1c-0.3-1-0.5-2.1-0.7-3.1c-2.9-15.9-3.3-32.2-2-48.2
					c2.2-27.1,12.6-50.5,21.1-76"/>
				<path class="st17" d="M2095.2,859.4c0.2,0.2,0,0.9,0.1,0.9c0.1,0,0.2-0.1,0.4-0.4c-1.1-4-0.3-9.3-0.5-13.7
					c-0.9-17.1-1.1-33.9-1.1-51.1"/>
				<path class="st17" d="M2489.9,864.5c0.8-6.3-1-14.2-2-20.4c-2.8-17.1-6-36.9-13.8-52.5"/>
				<path class="st17" d="M2375.8,862.8c-4.5-14.5-9.6-37.5-16.9-52"/>
				<path class="st17" d="M2306.9,688.3c1.7-6.5-0.6-13.6,0.5-20.4c1-6,6.1-10,6.5-15.6c0.7-8.5-6-15.2-0.6-23.6
					c2.7-4.2,15.3-9.4,13.3-15"/>
				<path class="st17" d="M2218.3,784.9c12.2,15,27.7,27.8,38.4,44"/>
				<path class="st17" d="M2182.1,764.5c6.8,6.4,13.6,12.5,19.4,19.8c5.5,6.9,8.9,15,13.9,22"/>
				<path class="st17" d="M2143.7,664c2.7-5.6,2.6-12.2,5-17.9c2.3-5.3,6.7-8.3,10.2-12.6"/>
				<path class="st17" d="M2137.3,477.4c1.4,2,4,3,7,3.5c3.1,0.5,6.6,0.5,9.1,0.5c0.6,0,1.1,0,1.7,0c4.2-0.1,8.5-0.7,12.5-1.9
					c4-1.3,6.8-4.5,10.6-5.9"/>
				<path class="st17" d="M2144.3,480.8C2144.3,480.8,2144.3,480.8,2144.3,480.8c-1.5,1.8-2.7,4.4-4.8,5.4c-2.8,1.3-4.7-0.1-4.6-2.9
					c0.1-1.7,1-4,2-6.1c0.7-1.3,1.4-2.6,2-3.5c2.5-3.8,5.9-4.5,10.2-5.4c2.1-0.4,4.2-0.7,6.3-0.8c3.2-0.2,6.4-0.1,9.6-0.1
					c5.4,0,9.5,2.9,13.2,5.6"/>
				<path class="st17" d="M2188.1,459.9c-0.9-1.2-3.3,0.8-4.8,1.1c0.1-1.1,0-2.3-0.2-3.4c-1,0.5-1.8,1.5-2.8,2
					c-0.4-1.1-0.4-2.4-0.6-3.6c-1.1,0.5-1.7,2-2.9,2.5c-0.4-1.4-0.1-3-0.8-4.3c-0.6,0.9-1.3,1.9-2.3,2.3c-0.3-1-0.6-2-0.8-3
					c-1,0.8-1.6,2.1-2.3,3.2c-0.6-1.7-0.4-3.7-1.1-5.5c-1.1,1-1.5,3.2-2.8,3.9c-0.4-1.7-0.3-4-1.5-5.4c-0.9,1.5-1.1,3.4-2,4.7
					c-0.4-1.8-0.5-3.6-1.1-5.3c-0.5,1.6-0.7,3.2-1,4.8c-1.1-1.5-0.8-3.9-1.8-5.5c-0.6,1.7-0.3,3.7-1.2,5.2c-1-1.9-0.7-4.7-1.9-6.4
					c-0.4,2.1-0.3,4.3-1,6.3c-0.6-1.9-0.6-3.9-1.4-5.7c-0.9,1.8-0.9,3.9-0.9,5.9c-0.9-2.5-1.5-5.1-2.3-7.6c-0.7,2.1-0.1,5.4-0.2,7.8
					c-1.2-2.4-1.6-6.1-3.6-7.7c-0.2,2.4,1,5,0.3,7.2c-1.6-2.3-2.4-5.3-3.7-7.8c-0.2,3.2,0.6,6.3,0.8,9.4c-1.8-2.2-2.3-5.4-4.1-7.7
					c0.5,2.9,1.5,6.1,1.5,9.1c-2.2-1.5-3.7-4.9-5.4-7.1c0.4,3,2.4,5.5,3.4,8.3c-3.6-1.5-5.2-5.5-8.6-7.2c1.3,3.1,3.3,5.9,4.2,9.2
					c-2.3-2.2-4.9-4.2-7.1-6.5"/>
				<path class="st17" d="M2167.2,497.7c-3.1-0.1-6.3,0.7-9.3,0.5c-4.4-0.3-10.8-3.4-13.3-7.3"/>
				<path class="st17" d="M2155,480.8c4.6-2.4,3.6-9.9,0.3-13.2c0,0,0-0.1-0.1-0.1"/>
				<path class="st17" d="M2149.1,474.8c-0.1,0.2-0.3,0.3-0.6,0.5c-1.2,0.6-3,0.5-2.1-1.2c1-1.9,3.5-0.1,2.2,0.9c0,0,0,0-0.1,0.1"/>
				<path class="st17" d="M2166.6,546c1.8-4.2-5.5-15.6-8.4-18.9c-6.1-6.7-12.3-11.1-15-20.1"/>
				<path class="st17" d="M2144.6,535.8c-0.8-3.2-1.5-8.5-3.7-11"/>
				<path class="st17" d="M2136.7,532.4c-0.7-2.3-1.4-4.9-1.7-7.3"/>
				<path class="st17" d="M2129.3,532.4c0.1-2.3-0.2-5.1-0.8-7.3"/>
				<path class="st17" d="M2123.7,531.6v-6.8"/>
				<path class="st17" d="M2117.5,529c0.1-1.4,0.6-2.8,0.6-4.2"/>
				<path class="st17" d="M2226.2,505.6c0.5-1.9,1-3.8,1.4-5.6"/>
				<path class="st17" d="M2236.6,519.4c0.1-2.3,0.7-4.5,0.9-6.8"/>
				<path class="st17" d="M2226.5,536.4c0.2-1.7,0.5-3.5,1.1-5.1"/>
				<path class="st17" d="M2218.3,525.4c0.7-1.1,1.2-2.4,1.4-3.7"/>
				<path class="st17" d="M2231.6,547.7c0.6-1.7,1.1-3.4,1.4-5.1"/>
				<path class="st17" d="M2217.7,563.5c1-1.4,1.5-3.4,1.4-5.1"/>
				<path class="st17" d="M2212.6,548c0.1-2.1,1.3-4.5,2-6.5"/>
				<path class="st17" d="M2194.9,560.7c0.2-1.5,0.4-3.1,0.9-4.5"/>
				<path class="st17" d="M2201.9,565.8c0.3-1.2,0.7-2.4,1.1-3.7"/>
				<path class="st17" d="M2205.6,581.3c0.6-1.6,0.7-3.3,1.7-4.8"/>
				<path class="st17" d="M2200.2,545.7c0.9-1.5,1.3-3.1,1.4-4.8"/>
				<path class="st17" d="M2177.6,563.2c0.1-1.6,0.8-3.1,1.4-4.5"/>
				<path class="st17" d="M2183,573.1c0.5-1.3,1.1-2.7,1.7-4"/>
				<path class="st17" d="M2188.4,584.4c0.6-2,1.4-4.1,2.3-5.9"/>
				<path class="st17" d="M2170,588.6c0.7-1.2,1.2-2.5,1.1-4"/>
				<path class="st17" d="M2160.4,572.5c0.4-1.6,0.8-3.2,1.4-4.8"/>
				<path class="st17" d="M2159.6,590.9c0.2-1.4,0.8-2.6,1.1-4"/>
				<path class="st17" d="M2144.9,592.6c0.2-1.2,0.6-2.4,0.9-3.7"/>
				<path class="st17" d="M2149.4,579.3c-0.3-0.7-0.4-1.5-0.3-2.3"/>
				<path class="st17" d="M2136.4,570.3c0.9-1.6,1.2-3.4,1.7-5.1"/>
				<path class="st17" d="M2137.3,588.3c0.3-2.3,1-4.6,1.7-6.8"/>
				<path class="st17" d="M2125.4,582.7c0.2-1.6,0.6-3.3,1.1-4.8"/>
				<path class="st17" d="M2146.9,568.3c0.3-1.5,0.3-3,0.6-4.5"/>
				<path class="st17" d="M2169.7,575.6c0.6-0.9,0.9-2,0.8-3.1"/>
				<path class="st17" d="M2179.9,591.7c0.1-1.4,0.6-2.8,0.6-4.2"/>
				<path class="st17" d="M2239.7,495.7c0-1.5,0.4-3.1,0.9-4.5"/>
				<path class="st17" d="M2148,474.8c-0.3,0.2-0.5,0.3-0.7,0.1c0,0-0.1,0-0.1-0.1c0,0,0.1-0.1,0.1-0.1c0.2-0.2,0.3-0.4,0.4-0.5
					c0.1-0.1,0.1-0.1,0.2-0.2c0.1,0.1,0.1,0.1,0.2,0.2c0.1,0.1,0.1,0.1,0.1,0.2c0,0,0,0,0,0c0.2,0.3,0.4,0.5,0.4,0.6
					c0,0.1,0,0.2-0.1,0.2c-0.2,0.1-0.5,0.1-0.9-0.1c-0.1-0.1-0.3-0.1-0.4-0.2c-0.7-0.4-1-1,1.1-1c0,0.1,0,0.2-0.1,0.2
					c0,0.1,0,0.1,0,0.1c0,0,0,0,0,0.1c-0.1,0.5-0.1,0.6-0.6,0.8c-0.1,0-0.3,0.1-0.5,0.1c0-0.1,0-0.2,0.1-0.3c0,0,0-0.1,0-0.1
					c0-0.1,0-0.1,0-0.2c0.1-0.4,0.1-0.5,0.4-0.5c0.1,0,0.2,0,0.4,0c0.1,0,0.1,0,0.2,0h0.1c0,0.1,0,0.1-0.1,0.2c0,0,0,0,0,0
					c-0.2,0.2-0.4-0.2-0.5,0.1"/>
			</g>
		</g>
	</g>
	
		<rect x="1399.9" y="1107.1" transform="matrix(-1 -4.490331e-11 4.490331e-11 -1 3171.8789 2372.4607)" class="st4" width="372.1" height="158.3"/>
</g>
<g id="text">
	<path class="st18" d="M1806.2,1146.4c0,11.6,0.7,23.2,0.3,34.7c-0.8,18.9,0.8,38-0.3,56.9c-3.7,0.2-7.3-0.3-10.9,0.1
		c-2.2,0.2-6.4,1.2-8.1,0.8h-0.1c0.8-18.6,0.8-37.5,0-56.1c-0.7-17.2,0-34.3,0-51.5l0-0.3v0c3.4-0.5,5.8-0.5,8.1-0.4
		c2.4,0.1,4-0.1,6.3-0.3c1.6-0.1,3.7-0.8,5-0.1C1805.2,1135,1806.2,1141.4,1806.2,1146.4"/>
	<path class="st18" d="M1778.2,1077.7c12.9-4.6,11.6-57.8-4.7-51.2l0-0.1C1758.2,1030.4,1760.6,1083.9,1778.2,1077.7 M1798.5,1030.8
		c5.3,21.2,5.5,65.9-20.7,73.8c-39.5,11.8-50.7-99.6,2.3-96.6v0C1792,1009.9,1795.7,1019.4,1798.5,1030.8"/>
	<path class="st18" d="M1702.4,1194.8L1702.4,1194.8c-3.3,8.6-7.7,16.7-10.7,25.4c-1.8,5.1-3.5,10.3-5.1,15.5
		c-0.8,2.6-2.2,8-3.1,9.8c-4.2,0.1-11.2,1-15.9,1c-1.6,0-5.4,0.2-5.8-0.3c1.1-7.6,6.8-17.2,9.8-24.1c5.6-12.9,10.5-26.1,16.4-38.8
		c-12-14.5-24.5-29.9-34.4-46c0,0,0,0,0,0c-0.4-0.5-1.5-1.9-1.9-2.6c7.3,0.4,16-0.1,22.2,0.4h0.1c1.7,2.5,7.4,10.9,9.5,14
		c3.1,4.6,6.5,9,9.9,13.4c2.2,2.8,4.4,6.3,7,8.6h0.3c4.1-8,8.4-16,12.4-24c1.4-2.7,3.3-5.1,4.8-7.7c1.1-1.8,3.6-6.6,3.6-6.6
		s7.9,0,11.6,0.1c3.5,0.1,8.1,0,11.9,0.3c-3.9,3.8-6.3,6.8-9.8,11.4c-4.6,6-8.6,12.5-12.3,19.1c-2.8,4.9-6.4,9.9-8.8,14.9l0,0.1
		c3.3,4.9,7.7,10.3,10.8,14.5c3.4,4.5,6.7,9,9.9,13.5c4.3,6.1,8.7,12,13,17.9c3.4,4.6,7.1,9.3,10.1,14c0.9,1.1,1.8,2.4,2.5,3.4
		c-4.3-0.3-15.4,2-21.9,1.8c-3.8-4.2-8-10.9-11-15c-4.3-5.9-8.8-11.7-13.4-17.4c-3-3.8-5.6-7.9-8.4-11.8
		C1704.6,1198,1703.6,1196.8,1702.4,1194.8"/>
	<path class="st18" d="M1713.3,1068.2c0.1,8.9,2.5,40.1,2.5,40.1s-12.7,0.1-19.3,0.3c0.1-6.1-1.2-12.4-1.8-18.6
		c-2.4-25.2,0-51.5-0.8-76.8l0.1-0.1c1.3,0.6,12-3.1,15.4-0.3c4.4,3.6,2.6,21.7,3.1,26.9C1713.4,1049.1,1713.3,1058.6,1713.3,1068.2
		"/>
	<path class="st18" d="M1659,1056.6c3.7,7.6,1.3,27.3-1.3,35.2c-5,15.2-19.7,19.4-34.1,13.4c-24.7-10.3-23.5-41.5-18.3-62.8
		c3.3-13.6,8.3-26.9,20.7-34.9c8.8-5.6,24.9-9.6,29.7,3v0.1c-1.4,4.5-1.5,10.8-3.4,15.6c-16.5-14.9-30.3,14.4-31.4,27.7
		c-0.9,11.2,1.7,32.5,15.4,35.8c12.7,3,10.8-9.8,12.5-17.4c-2.8,0.3-6.1,1.2-9.1,0.8c-0.2-4.9,0.6-10.3-0.8-15
		C1645.5,1058.2,1652.5,1058.4,1659,1056.6"/>
	<path class="st18" d="M1629.9,1247.1L1629.9,1247.1c-9.1-1.2-15.4-0.3-27.4,0.2c-3.3-9-10-34.7-10-34.7s-11.3,0.6-14.8,0.3
		c-7.1-0.6-10.6-1.3-17.7-0.8c0.3,6-10.7,38.6-10.7,38.6s-16.8,0.8-20.4-0.4c11.2-35.7,23.6-76.2,37.8-111v-0.3
		c2.9-1.4,15.2-0.4,18.5,0.8l0.1,0.3c6.1,26.1,19.7,51.7,30.8,76C1620.9,1226.2,1625,1237.6,1629.9,1247.1 M1576,1159.2l-0.2,0.1
		c-1.1,9.7-7.2,19.3-9,28.7c6.1,0.4,12.5,0.5,18.5,0.7C1583.2,1177.8,1579.1,1168.2,1576,1159.2"/>
	<path class="st18" d="M1571.8,1007.2c1,7.6,0.5,14.2,0,22c-9.7,0.7-19.9,0.6-30,0c1,7.4,2.1,12.8,2.2,20c5-0.2,9.2,0.5,13.9-0.2
		c0,5.9,1,8.6,0.6,14.6c-6.2-0.3-9.6,0.1-15.3-0.2c0.2,6.7,1,14.7-0.5,21c9-0.9,20.6-0.4,28.9-0.4c0.4,8.2,0.9,13.2,0.2,21.4
		c-14.4-4.9-33.3,2.4-48-2.6c-4.1-30.2-0.1-64.1-0.1-94.7v-0.1c-0.1-1.5-0.4-3.2-0.7-4.9C1537.4,1007.9,1556.3,1002.9,1571.8,1007.2
		"/>
	<path class="st18" d="M1456.6,1160.4c-7.1,0.2-14.1,1.6-21,1.6c-0.6-7.7-2.5-16-2.6-23.5c11.6,3.2,28.8,0.3,41-0.1
		c6.3-0.2,18.7-4.2,24.1-0.9c-1.7,6.3-0.9,15.1,0.8,21.1c-6.8,1.5-20.1,3.6-25.3,2.7v0.3c4.6,25.4,7.3,57.6,5.8,83.5
		c-10-1-19.6-0.5-19.6-0.5s-0.6-57.9-0.6-83.3L1456.6,1160.4z"/>
	<path class="st18" d="M1460,1034.9c9.5-2.6,10.8-12.9,1.8-18.4l0,0C1446.4,1009.5,1441.1,1040.1,1460,1034.9 M1491,1093.9
		c1.1,2.1,4,7.5,4.8,10.9c-3.5,1-24.5-1.2-24.5-1.2s-5.4-13.7-7-17.4c-3.8-8.8-7.5-17.8-11.9-27.4c0.4,14.9-0.1,30.4-0.9,45.3
		c-6-1.8-12.2,0.9-18.4,0.1c-0.2-11,0.1-21.1,0.5-30.1c1-22.7-1-45.4-0.7-68v-0.2c16.5-10.2,41.9-8.8,52.2,8.7
		c8.5,14.6,0.3,32.2-15,37.2l-0.1,0.2C1474.7,1066.2,1484.2,1080.9,1491,1093.9"/>
</g>
</svg>
