<svg xmlns="http://www.w3.org/2000/svg" xmlns:xlink="http://www.w3.org/1999/xlink" xmlns:inkscape="http://www.inkscape.org/namespaces/inkscape" version="1.1" width="2909.36" height="1725.74" viewBox="0 0 2909.36 1725.74">
<defs>
<clipPath id="clip_0">
<path transform="matrix(1,0,0,-1,0,1725.74)" d="M0 1725.738H2909.359V0H0Z"/>
</clipPath>
<clipPath id="clip_1">
<path transform="matrix(1,0,0,-1,0,1725.74)" d="M152.259 164.856H2711.39V1520.92H152.259Z"/>
</clipPath>
</defs>
<g>
<g inkscape:groupmode="layer" inkscape:label="Laag 1">
</g>
<g inkscape:groupmode="layer" inkscape:label="Laag 2">
<g clip-path="url(#clip_0)">
<g>
<g clip-path="url(#clip_1)">
<path transform="matrix(1,0,0,-1,2686.736,1241.6238)" d="M0 0V.48 13.51C-.01 17.81-.06 22.15 .02 26.46 19.92 26.32 21.93 17.89 20.9-1.84 19.43-29.71 22.18-57.55 23.47-85.39 24.4-105.69 25.86-128.64 22.84-148.6 21.39-158.18 21.5-159.89 11.3-162.15V-162.18C-4.54-165.01-18.79-162.15-34.86-162.15-75.1-162.15-116.87-166.76-156.99-165.54-160.41-156.85-159.76-143.46-160.27-133.91-161.45-111.56-164.29-89.16-169.61-67.32-172.69-54.66-176.83-42.5-182.12-30.99L-181.83-30.86C-139.1-30.86-95.17-23.44-52.52-20.88-41.45-20.21-19.2-17.96-11.29-18.72-6.02-18.72-2.96-19.07-.42-18.54-1.51-12.87 0-5.74 0 0" fill="#404347"/>
<path transform="matrix(1,0,0,-1,2692.976,1128.1438)" d="M0 0C0-.09-.14-.14-.49-.13-10.22 2.42-24.12-1.31-34.76-2.31-49.02-3.66-63.23-2.76-77.39-3.44-78.05 .53-88.88 15.49-92.93 22.29-96.08 27.58-99.35 32.83-102.67 38.08L-102.24 38.35C-93.75 43.77-87.67 49.13-81.91 58.07-72.06 73.37-75.13 85.96-74 101.59L-74.22 102.53C-57.83 106.41-41.11 110-24.31 111.76L-23.63 112.23C-16.18 101.08-10.51 87.08-5.78 68.17-.15 45.7 .97 22.84 .21-.01Z" fill="#f4e0a2"/>
<path transform="matrix(1,0,0,-1,1679.7062,932.7638)" d="M0 0C-.66-5.75-.82-13.64 .87-19.1 5.44-20.25 10.97-20.38 16.78-20.11L16.82-20.94C25.61-41.82 51.16-52.94 73.02-44.47 80.63-41.52 93.27-26.07 90.8-17.83L90.78-17.66C99.58-16.72 108.81-15.44 116.7-17.22 117.83-13.21 115.82-8.42 114.95-4.13 107.07-2.97 98.27-3.73 89.67-4.09V-4C80.39 29.83 31.43 29.89 18.52 .24L18.44-.22C12.28 .78 6.17 1.38 .44-.05ZM-34.57 570.31C-71.08 564.63-57.55 511.28-58.57 481.44-61.86 384.59-65.34 287.73-65.34 190.28-65.34 172.08-68.87 149.34-63.72 131.79L-63.65 131.81C-50.38 95.11 50.01 99.02 77.85 94.26 189.45 75.16 302.06 61.14 414.32 44.24L414.37 44.28C429.34 41.74 489.48 33.84 496.82 44.85 514.15 69.1 432.44 134.07 417.2 149.32L417.21 149.57C426.23 149.19 435.41 147.99 442.57 145.01 439.26 158.87 442.71 176.08 441.92 190.69 426.38 192.09 409.86 194.21 392.63 193.65L392.51 193.66C394.34 224.17 395.45 271.58 375.13 273.84 364.08 273.77 354.01 273.33 343.3 273.83 340.22 273.97 336.46 274.24 332.78 274.08L332.77 274.4C313.86 304.05 289.2 335.07 272.78 362.51 234.62 426.26 184.75 499.98 127.83 547.86 113.22 560.16 97.1 563.63 78.66 565.22 41.4 568.45 3.33 570.31-34.57 570.31M1007.05-282.4C1006.97-286.71 1007.02-291.05 1007.03-295.35V-308.38-308.86C1007.03-314.6 1005.52-321.73 1006.61-327.4 1004.07-327.93 1001.01-327.58 995.74-327.58 987.83-326.82 965.58-329.07 954.51-329.74 911.86-332.3 867.93-339.72 825.2-339.72L824.91-339.85C815.98-320.41 803.74-302.81 787.67-287.74 771.22-272.3 748.27-257.04 726.54-250.31 707.23-244.32 686.66-240.23 667.08-239.48 637.61-239.58 605.02-242.08 576.92-250.84 547.77-259.92 529.68-276.17 512.98-302.05 497.08-326.68 484.35-354.29 475.19-382.95L475.08-382.92C432.06-382.92 389.23-385.09 346.15-385.17 298.53-385.26 251.76-374.04 204.4-373.87 164.78-373.73 121.1-382.35 82.04-375.01 71.88-372.56 52.03-373.95 38.42-373.89 21.61-373.82 4.92-372.74-11.91-372.75-45.42-372.78-78.94-372.75-112.45-372.75H-112.79C-113-315.97-116.56-259.69-114.1-202.65-109.3-91.84-107.12 18.85-106.07 129.81-104.47 297.11-94.38 467.22-101.67 633.93L-101.65 634.44C-37.01 631.92 27.52 628.24 91.87 622.74 132.76 619.24 177.14 624.05 216.44 614.35L216.52 614.44C231.54 599.91 246.28 584.83 260.67 569.46 241.12 569.46 221.58 568.06 202.19 567.95 194.32 567.91 173.64 573.3 176.69 561.83 178.84 553.71 191.71 547.4 197.04 541.58 213.15 524 226.64 502.76 241.74 484.14 290.85 423.58 339.69 362.98 386.99 300.97 409.88 270.95 432.43 240.77 454.98 210.52 465.45 196.48 475.66 177.26 489.45 166.22 511.78 148.34 548.1 160.05 573.06 150.16L573.15 150.24C604.71 116.09 644.07 96.65 684.56 74.35 760.23 32.68 843.25-.94 922.17-36.36 954.93-51.07 975.5-61.97 989.64-83.15L988.96-83.62C972.16-85.38 955.44-88.97 939.05-92.85 934.68-93.89 930.34-94.94 926.03-95.99 911.41-99.54 894.58-101.99 880.66-107.54 889.38-124.51 900.21-140.88 910.6-157.3 913.92-162.55 917.19-167.8 920.34-173.09 924.39-179.89 935.22-194.85 935.88-198.82 950.04-198.14 964.25-199.04 978.51-197.69 989.15-196.69 1003.05-192.96 1012.78-195.51 1013.13-195.52 1013.27-195.47 1013.27-195.38L1013.48-195.39C1012.61-221.57 1009.27-247.75 1007.41-273.39 1007.19-276.36 1007.09-279.37 1007.05-282.4" fill="#3a5b51"/>
<path transform="matrix(1,0,0,-1,2618.756,1025.6138)" d="M0 0 .22-.94C-.91-16.57 2.16-29.16-7.69-44.46-13.45-53.4-19.53-58.76-28.02-64.18L-28.45-64.45C-38.84-48.03-49.67-31.66-58.39-14.69-44.47-9.14-27.64-6.69-13.02-3.14-8.71-2.09-4.37-1.04 0 0" fill="#f7d14c"/>
<path transform="matrix(1,0,0,-1,2417.936,1419.5838)" d="M0 0C4.52 14.3 5.33 31.89 3.48 47.85 .21 76.22-21.45 109.59-50.54 118.59-68.14 125.36-93.36 122.73-112.19 114.82-122.72 110.4-138.41 102.02-145.22 91.73-169.16 55.57-172.88-8.7-132.74-35.6-119.94-44.18-103.56-48.7-88.62-51.88-75.87-54.59-58.73-50.83-50.07-48.57H-49.69C-14.68-33.51-7.4-23.43 0 0M59.58 125.89C91.9 68.91 94.98-1.9 61.66-58.72 47.48-82.91 19.44-112.32 1.36-120.74L1.32-120.66C-14.92-127.47-31.78-132.44-49.23-135.34-75.21-139.65-90.07-144-124.52-139.2L-124.54-139.27C-183.21-126-211.98-83.1-232.43-37.28-257.01 17.81-249.43 79.51-221.36 131.44-205.68 160.46-182.76 179.99-152.7 193.43-129.59 203.77-97.13 210.07-73.03 209.32-40.66 207.81-22.33 198.37 .26 186.1 26.17 172 45.11 151.4 59.58 125.89"/>
<path transform="matrix(1,0,0,-1,2421.4163,1371.7338)" d="M0 0C1.85-15.96 1.04-33.55-3.48-47.85-10.88-71.28-18.16-81.36-53.17-96.42H-53.55C-62.21-98.68-79.35-102.44-92.1-99.73-107.04-96.55-123.42-92.03-136.22-83.45-176.36-56.55-172.64 7.72-148.7 43.88-141.89 54.17-126.2 62.55-115.67 66.97-96.84 74.88-71.62 77.51-54.02 70.74-24.93 61.74-3.27 28.37 0 0" fill="#656c74"/>
<path transform="matrix(1,0,0,-1,2252.8563,782.5238)" d="M0 0-.09-.08C-25.05 9.81-61.37-1.9-83.7 15.98-97.49 27.02-107.7 46.24-118.17 60.28-140.72 90.53-163.27 120.71-186.16 150.73-233.46 212.74-282.3 273.34-331.41 333.9-346.51 352.52-360 373.76-376.11 391.34-381.44 397.16-394.31 403.47-396.46 411.59-399.51 423.06-378.83 417.67-370.96 417.71-351.57 417.82-332.03 419.22-312.48 419.22-294.13 399.61-276.37 379.52-259.37 359.49-215.51 307.81-165.81 249.32-133.65 189.67-96.36 123.44-51.99 56.78-.66 .71-.44 .47-.22 .23 0 0" fill="#7eb2de"/>
<path transform="matrix(1,0,0,-1,2096.9063,783.4438)" d="M0 0C15.24-15.25 96.95-80.22 79.62-104.47 72.28-115.48 12.14-107.58-2.83-105.04L-2.88-105.08C-115.14-88.18-227.75-74.16-339.35-55.06-367.19-50.3-467.58-54.21-480.85-17.51L-480.92-17.53C-486.07 .02-482.54 22.76-482.54 40.96-482.54 138.41-479.06 235.27-475.77 332.12-474.75 361.96-488.28 415.31-451.77 420.99-413.87 420.99-375.8 419.13-338.54 415.9-320.1 414.31-303.98 410.84-289.37 398.54-232.45 350.66-182.58 276.94-144.42 213.19-128 185.75-103.34 154.73-84.43 125.08L-84.42 124.76C-88.74 124.58-92.95 123.81-95.79 121.56-105.11 114.16-103.79 94.8-103.91 84.05-104.14 62.23-105.58 40.62-105.6 18.84-105.62 4.01-105.56-11.12-104.8-25.94-104.34-34.92-102.4-42.28-93.99-46.61-81.88-52.84-67.81-47.07-54.92-47.44-48.87-47.61-44.05-47.15-38.69-45.74-26.54-42.48-25.03-19.19-25.32-.02L-24.29 0C-17.78 .24-8.97 .65 .01 .25Z" fill="#7eb2de"/>
<path transform="matrix(1,0,0,-1,1644.0061,1390.2238)" d="M0 0C-20.25 .08-40.44 1.13-60.83 1.13-65.67 1.13-70.52 1.12-75.38 1.09V1.41C-75.38 21.5-77.12 53.67-77.08 77.37-77.08 79.82-77.08 82.26-77.09 84.71H-76.75C-43.24 84.71-9.72 84.68 23.79 84.71 40.62 84.72 57.31 83.64 74.12 83.57 87.73 83.51 107.58 84.9 117.74 82.45 156.8 75.11 200.48 83.73 240.1 83.59 287.46 83.42 334.23 72.2 381.85 72.29 424.93 72.37 467.76 74.54 510.78 74.54L510.89 74.51C502.67 48.8 497.34 22.24 495.16-3.76L495.08-4.12C480.95-.95 455.68-3.46 440.78-2.26 387.8 2.01 334.67 1.61 281.57 3.64 223.22 5.88 164.62 3.39 106.18 3.39 86.53 3.39 66.79 3.91 47.17 3.14 33.61 2.6 18.22-.56 0 0" fill="#404347"/>
<path transform="matrix(1,0,0,-1,2121.6263,742.0738)" d="M0 0C.79-14.61-2.66-31.82 .65-45.68-6.51-42.7-15.69-41.5-24.71-41.12-33.69-40.72-42.5-41.13-49.01-41.37L-50.04-41.39C-50.19-31.54-50.81-22.77-50.7-18.38-50.59-13.97-49.97-6.28-49.41 2.97L-49.29 2.96C-32.06 3.52-15.54 1.4 0 0" fill="#404347"/>
<path transform="matrix(1,0,0,-1,2054.8363,658.9238)" d="M0 0C20.32-2.26 19.21-49.67 17.38-80.18 16.82-89.43 16.2-97.12 16.09-101.53 15.98-105.92 16.6-114.69 16.75-124.54 17.04-143.71 15.53-167 3.38-170.26-1.98-171.67-6.8-172.13-12.85-171.96-25.74-171.59-39.81-177.36-51.92-171.13-60.33-166.8-62.27-159.44-62.73-150.46-63.49-135.64-63.55-120.51-63.53-105.68-63.51-83.9-62.07-62.29-61.84-40.47-61.72-29.72-63.04-10.36-53.72-2.96-50.88-.71-46.67 .06-42.35 .24-38.67 .4-34.91 .13-31.83-.01-21.12-.51-11.05-.07 0 0" fill="#404347"/>
<path transform="matrix(1,0,0,-1,1896.2262,318.32374)" d="M0 0-.08-.09C-39.38 9.61-83.76 4.8-124.65 8.3-189 13.8-253.53 17.48-318.17 20-493.26 26.85-669.12 25.22-844.33 28.28-874.57 28.8-904.79 29.47-934.99 30.34-1062.86 34.04-1192.06 44.5-1320.1 38.5-1368.32 36.24-1417.58 35.38-1465.92 37.14-1511.54 38.81-1569.81 26.21-1613.44 38.88L-1614.24 39.1C-1607.99 62.27-1589.8 85.93-1562.61 96.95-1516.46 115.64-1463.42 113.43-1414.5 113.42-1347.29 113.41-1280.37 107.1-1213.09 105.73-1102.72 103.48-990.71 102.73-880.37 107.92-667.38 117.93-452.87 103.96-240.71 86.31-199.88 82.92-159.75 83.33-119.19 77.46-81.75 72.04-53.42 49.11-26.2 24.52-17.39 16.56-8.65 8.37 0 0" fill="#404347"/>
<path transform="matrix(1,0,0,-1,1794.6561,936.8938)" d="M0 0C.87-4.29 2.88-9.08 1.75-13.09-6.14-11.31-15.37-12.59-24.17-13.53-27.99-13.94-31.74-14.28-35.25-14.27-47.54-14.24-59.83-14.27-72.11-14.27-79.74-14.27-89.27-15.59-98.17-15.98-103.98-16.25-109.51-16.12-114.08-14.97-115.77-9.51-115.61-1.62-114.95 4.13L-114.51 4.08C-108.78 5.51-102.67 4.91-96.51 3.91-90.77 2.97-84.98 1.69-79.4 1.39-65.35 .64-51.47 .96-37.35 .03-33.45-.23-29.39-.14-25.28 .04-16.68 .4-7.88 1.16 0 0" fill="#3b2a51"/>
<path transform="matrix(1,0,0,-1,1770.5061,950.5938)" d="M0 0C2.47-8.24-10.17-23.69-17.78-26.64-39.64-35.11-65.19-23.99-73.98-3.11L-74.02-2.28C-65.12-1.89-55.59-.57-47.96-.57-35.68-.57-23.39-.54-11.1-.57-7.59-.58-3.84-.24-.02 .17Z" fill="#5c447a"/>
<path transform="matrix(1,0,0,-1,1769.3761,936.7638)" d="M0 0V-.09C-4.11-.27-8.17-.36-12.07-.1-26.19 .83-40.07 .51-54.12 1.26-59.7 1.56-65.49 2.84-71.23 3.78L-71.15 4.24C-58.24 33.89-9.28 33.83 0 0" fill="#5c447a"/>
<path transform="matrix(1,0,0,-1,1165.6062,1104.8538)" d="M0 0C-.84 3.48-3.7 8.85-4.8 10.94-11.63 23.92-21.16 38.68-25.69 52.7L-25.6 52.89C-10.39 57.84-2.13 75.51-10.65 90.08-20.93 107.65-46.34 109.05-62.87 98.82V98.63C-63.18 76.01-61.22 53.27-62.21 30.6-62.6 21.61-62.96 11.48-62.74 .5-56.57-.29-50.36 2.37-44.36 .61-43.57 15.53-43.05 31-43.45 45.94-39.01 36.37-35.35 27.38-31.52 18.58-29.92 14.9-24.47 1.22-24.47 1.22-24.47 1.22-3.51-.98 0 0M3.12-53.67C1.41-47.7 .53-38.91 2.27-32.58-3.14-29.3-15.44-33.29-21.79-33.51-34.01-33.92-51.21-36.84-62.78-33.59-62.69-41.06-60.78-49.4-60.2-57.1-53.3-57.1-46.31-55.71-39.24-55.54L-36.61-56.38C-36.61-81.72-36.04-139.67-36.04-139.67-36.04-139.67-26.4-139.18-16.41-140.14-14.91-114.29-17.62-82.07-22.21-56.66V-56.38C-16.97-57.26-3.71-55.13 3.12-53.67M75.91 75.62C76.42 83.49 76.93 90.01 75.92 97.64 60.51 101.94 41.56 96.94 27.05 101.94 27.32 100.27 27.63 98.63 27.77 97.08V96.94C27.77 66.34 23.77 32.38 27.9 2.22 42.6-2.81 61.47 4.55 75.88-.39 76.49 7.82 76.05 12.75 75.63 20.98 67.36 21.03 55.72 21.55 46.72 20.6 48.18 26.89 47.38 34.86 47.17 41.56 52.9 41.17 56.27 41.61 62.5 41.31 62.94 47.22 61.92 50 61.93 55.86 57.22 55.14 53.04 55.86 48.04 55.67 47.96 62.91 46.83 68.28 45.87 75.67 56 75.06 66.17 74.91 75.91 75.62M161.85 13.08C164.46 20.94 166.84 40.7 163.13 48.29 156.68 46.47 149.62 46.64 143.05 46.83 144.52 42.18 143.72 36.77 143.9 31.84 146.98 31.47 150.28 32.37 153.03 32.67 151.25 25.07 153.21 12.2 140.5 15.22 126.81 18.46 124.23 39.78 125.14 50.98 126.22 64.23 140.03 93.54 156.54 78.64 158.41 83.43 158.48 89.74 159.91 94.26V94.4C155.12 106.93 138.95 103.01 130.18 97.37 117.84 89.44 112.83 76.11 109.49 62.5 104.26 41.18 103.09 9.98 127.75-.32 142.13-6.33 156.81-2.1 161.85 13.08M328.13 156.17C327.21 161.6 330.33 167.2 330.87 172.18 319.27 168.94 306.3 170.26 293.46 171.43V171.48C286.2 198.48 237.1 197.54 230.22 171.48V171.02C222.3 170.96 214.39 170.87 206.52 170.5 207.26 166.3 207.27 161.63 209.04 157.93H209.32C215.76 157.93 222.15 157.95 228.52 157.96V157.64C236.39 140.53 252.86 132.18 270.86 134.11 278 134.87 285.12 137.8 289.51 144.09 291.5 146.94 294.87 151.43 294.59 157.36V157.44C298.56 157.35 302.54 157.22 306.53 157.06 313.6 156.78 321.24 155.54 328.13 156.17M412.43 806.02C419.72 639.31 409.63 469.2 408.03 301.9 406.98 190.94 404.8 80.25 400-30.56 397.54-87.6 401.1-143.88 401.31-200.66 272.29-200.66 143.46-199.12 14.64-193.95-22.96-192.44-60.32-193.83-97.96-193.89-112.8-193.91-127.63-193.04-142.46-191.9-142.34-98.7-141.76-5.53-138.91 87.69-137.37 137.95-135.75 188.24-134.05 238.55-104.22 237.02-74.5 234.88-44.8 230.11 6.94 221.8 60.63 224.47 112.86 224.04 157.42 223.67 200.78 226.15 245.03 231.93 267.28 234.84 289.75 234.57 311.58 236.64 321.7 237.61 330.25 240.01 337.26 247.74 345.44 256.77 347.72 274.02 347.67 286.18 347.58 306.31 349.06 326.21 349.94 346.62 353.8 435.7 373.21 525.26 369.19 614.5 367.96 641.77 366.59 668.43 367.13 695.89 367.4 710.3 368.31 728.47 357.37 739.57 347.35 749.74 325.31 749.8 310.87 749.17 283.54 747.98 255.05 751.1 227.32 752.53 135.13 757.28 43.26 751.47-48.91 751.43-70.93 751.42-92.83 752.34-114.69 753.76-113.97 773.82-112.98 793.92-113.73 813.77L-113.71 814.81C61.5 811.75 237.36 813.38 412.45 806.53ZM198.09 91.82 198.03 91.71C198.86 66.38 196.51 40.1 198.88 14.89 199.47 8.71 200.77 2.4 200.7-3.73 207.33-3.58 220.05-3.44 220.05-3.44 220.05-3.44 217.57 27.77 217.5 36.7 217.42 46.3 217.56 55.72 216.66 65.22 216.17 70.45 217.96 88.48 213.53 92.11 210.08 94.93 199.44 91.23 198.09 91.82M134.09-142.2C129.17-132.71 125.04-121.38 120.38-111.18 109.3-86.88 95.66-61.25 89.6-35.2L89.46-34.92C86.22-33.71 73.9-32.66 70.97-34.07V-34.36C56.72-69.18 44.39-109.63 33.17-145.33 36.77-146.54 53.53-145.78 53.53-145.78 53.53-145.78 64.46-113.16 64.19-107.2 71.23-106.71 74.7-107.48 81.84-108.05 85.37-108.33 96.66-107.77 96.66-107.77 96.66-107.77 103.44-133.46 106.7-142.42 118.69-141.93 124.98-140.98 134.07-142.21ZM291.15-26.14 291.2-26.45C291.21-43.63 290.5-60.75 291.23-77.93 292.02-96.55 292.06-115.46 291.25-134.03H291.35C293.09-134.46 297.21-133.49 299.45-133.26 303.1-132.88 306.67-133.35 310.36-133.14 311.5-114.28 309.89-95.18 310.66-76.29 311.13-64.74 310.4-53.15 310.4-41.59 310.4-36.59 309.34-30.17 310.64-25.37 309.28-24.69 307.17-25.32 305.6-25.46 303.23-25.67 301.67-25.84 299.25-25.74 296.96-25.66 294.56-25.6 291.15-26.13ZM284.29 96.95C231.26 99.93 242.46-11.43 281.94 .35 308.18 8.18 307.92 52.88 302.65 74.1 299.83 85.42 296.15 94.96 284.29 96.94ZM242.78-138.97C249.29-139.08 260.32-136.85 264.66-137.13 263.96-136.14 262.99-134.87 262.12-133.74 259.14-128.99 255.4-124.32 252.03-119.7 247.68-113.74 243.29-107.81 239.01-101.76 235.77-97.18 232.43-92.7 229.06-88.21 225.91-84.02 221.53-78.69 218.22-73.74L218.19-73.66C220.59-68.65 224.15-63.69 226.97-58.79 230.73-52.25 234.7-45.7 239.3-39.71 242.8-35.14 245.18-32.1 249.13-28.29 245.36-27.97 240.77-28.14 237.27-28 233.53-27.86 225.64-27.89 225.64-27.89 225.64-27.89 223.1-32.67 222.03-34.51 220.5-37.15 218.6-39.52 217.23-42.24 213.16-50.29 208.93-58.23 204.8-66.26H204.52C201.88-63.96 199.67-60.51 197.5-57.69 194.09-53.28 190.74-48.9 187.61-44.29 185.5-41.19 179.82-32.8 178.12-30.26H177.98C171.77-29.7 163.09-30.25 155.77-29.82 156.14-30.49 157.23-31.91 157.65-32.38 157.65-32.38 157.65-32.39 157.66-32.39 167.58-48.48 180.07-63.89 192.1-78.4 186.28-91.18 181.3-104.34 175.73-117.25 172.73-124.2 167.1-133.81 165.98-141.37 166.33-141.85 170.21-141.65 171.78-141.65 176.54-141.64 183.49-140.8 187.72-140.66 188.67-138.81 190.01-133.43 190.82-130.81 192.42-125.63 194.07-120.45 195.87-115.33 198.93-106.64 203.29-98.57 206.5-89.98L206.58-89.93C207.78-91.97 208.77-93.17 209.95-94.78 212.8-98.71 215.32-102.8 218.36-106.59 222.96-112.32 227.45-118.1 231.78-124.02 234.73-128.06 238.97-134.73 242.78-138.97" fill="#3a5b51"/>
<path transform="matrix(1,0,0,-1,1568.6261,1388.8137)" d="M0 0V-.32C-82.1-.74-165.64-4.31-247.51 2.24-321.87 8.18-396.42 7.54-470.9 9.92-495.91 10.72-520.65 14.46-545.51 17.32V21.75C-545.51 45.19-545.51 68.62-545.48 92.06-530.65 90.92-515.82 90.05-500.98 90.07-463.34 90.13-425.98 91.52-388.38 90.01-259.56 84.84-130.73 83.3-1.71 83.3-1.7 80.85-1.7 78.41-1.7 75.96-1.74 52.26 0 20.09 0 0" fill="#404347"/>
<path transform="matrix(1,0,0,-1,1534.7962,490.35377)" d="M0 0C4.02-89.24-15.39-178.8-19.25-267.88-20.13-288.29-21.61-308.19-21.52-328.32-21.47-340.48-23.75-357.73-31.93-366.76-38.94-374.49-47.49-376.89-57.61-377.86-79.44-379.93-101.91-379.66-124.16-382.57-168.41-388.35-211.77-390.83-256.33-390.46-308.56-390.03-362.25-392.7-413.99-384.39-443.69-379.62-473.41-377.48-503.24-375.95-499.49-264.46-495.37-152.92-490.93-41.59-488.94 8.06-484.22 58.19-484.5 107.83-484.56 118.27-484.26 128.76-483.88 139.26-462.02 137.84-440.12 136.92-418.1 136.93-325.93 136.97-234.06 142.78-141.87 138.03-114.14 136.6-85.65 133.48-58.32 134.67-43.88 135.3-21.84 135.24-11.82 125.07-.88 113.97-1.79 95.8-2.06 81.39-2.6 53.93-1.23 27.27 0 0" fill="#7eb2de"/>
<path transform="matrix(1,0,0,-1,1496.4762,932.67379)" d="M0 0C-.54-4.98-3.66-10.58-2.74-16.01-9.63-16.64-17.27-15.4-24.34-15.12-28.33-14.96-32.31-14.83-36.28-14.74-58.43-14.12-80.23-14.17-102.35-14.22-108.72-14.23-115.11-14.25-121.55-14.25H-121.83C-123.6-10.55-123.61-5.88-124.35-1.68-116.48-1.31-108.57-1.22-100.65-1.16-87.64-1.06-74.62-1.03-61.73 .04-53.94 .69-45.7 0-37.41-.75-24.57-1.92-11.6-3.24 0 0" fill="#3b2a51"/>
<path transform="matrix(1,0,0,-1,1476.0061,1146.4439)" d="M0 0C0-11.56 .73-23.15 .26-34.7-.51-53.59 1.1-72.69-.04-91.55-3.73-91.76-7.3-91.29-10.95-91.67-13.19-91.9-17.31-92.87-19.05-92.44H-19.15C-18.34-73.87-18.38-54.96-19.17-36.34-19.9-19.16-19.19-2.04-19.2 15.14L-19.25 15.45V15.46C-15.84 15.99-13.44 15.93-11.15 15.85-8.73 15.75-7.17 15.92-4.8 16.13-3.23 16.27-1.12 16.9 .24 16.22-1.06 11.42 0 5 0 0" fill="#c14c0a"/>
<path transform="matrix(1,0,0,-1,1447.9462,1077.7139)" d="M0 0C12.93 4.59 11.61 57.85-4.65 51.18L-4.69 51.3C-19.94 47.35-17.56-6.23 0 0M20.31 46.96C25.58 25.74 25.84-18.96-.4-26.79-39.88-38.57-51.08 72.79 1.95 69.81V69.8C13.81 67.82 17.49 58.28 20.31 46.96" fill="#c14c0a"/>
<path transform="matrix(1,0,0,-1,1460.1962,947.4938)" d="M0 0C.28-5.93-3.09-10.42-5.08-13.27-9.47-19.56-16.59-22.49-23.73-23.25-41.73-25.18-58.2-16.83-66.07 .28V.6C-43.95 .65-22.15 .7 0 .08Z" fill="#5c447a"/>
<path transform="matrix(1,0,0,-1,1459.0662,933.3738)" d="M0 0V-.05C-8.29 .7-16.53 1.39-24.32 .74-37.21-.33-50.23-.36-63.24-.46V0C-56.36 26.06-7.26 27 0 0" fill="#5c447a"/>
<path transform="matrix(1,0,0,-1,1443.2962,1026.5338)" d="M0 0C16.26 6.67 17.58-46.59 4.65-51.18-12.91-57.41-15.29-3.83-.04 .12Z" fill="#3a5b51"/>
<path transform="matrix(1,0,0,-1,1372.1862,1194.7838)" d="M0 0-.08-.05C-3.29-8.64-7.65-16.71-10.71-25.4-12.51-30.52-14.16-35.7-15.76-40.88-16.57-43.5-17.91-48.88-18.86-50.73-23.09-50.87-30.04-51.71-34.8-51.72-36.37-51.72-40.25-51.92-40.6-51.44-39.48-43.88-33.85-34.27-30.85-27.32-25.28-14.41-20.3-1.25-14.48 11.53-26.51 26.04-39 41.45-48.92 57.54-48.93 57.54-48.93 57.55-48.93 57.55-49.35 58.02-50.44 59.44-50.81 60.11-43.49 59.68-34.81 60.23-28.6 59.67H-28.46C-26.76 57.13-21.08 48.74-18.97 45.64-15.84 41.03-12.49 36.65-9.08 32.24-6.91 29.42-4.7 25.97-2.06 23.67H-1.78C2.35 31.7 6.58 39.64 10.65 47.69 12.02 50.41 13.92 52.78 15.45 55.42 16.52 57.26 19.06 62.04 19.06 62.04 19.06 62.04 26.95 62.07 30.69 61.93 34.19 61.79 38.78 61.96 42.55 61.64 38.6 57.83 36.22 54.79 32.72 50.22 28.12 44.23 24.15 37.68 20.39 31.14 17.57 26.24 14.01 21.28 11.61 16.27L11.64 16.19C14.95 11.24 19.33 5.91 22.48 1.72 25.85-2.77 29.19-7.25 32.43-11.83 36.71-17.88 41.1-23.81 45.45-29.77 48.82-34.39 52.56-39.06 55.54-43.81 56.41-44.94 57.38-46.21 58.08-47.2 53.74-46.92 42.71-49.15 36.2-49.04 32.39-44.8 28.15-38.13 25.2-34.09 20.87-28.17 16.38-22.39 11.78-16.66 8.74-12.87 6.22-8.78 3.37-4.85 2.19-3.24 1.2-2.04 0 0" fill="#c14c0a"/>
<path transform="matrix(1,0,0,-1,1383.1062,1068.1538)" d="M0 0C.07-8.93 2.55-40.14 2.55-40.14 2.55-40.14-10.17-40.28-16.8-40.43-16.73-34.3-18.03-27.99-18.62-21.81-20.99 3.4-18.64 29.68-19.47 55.01L-19.41 55.12C-18.06 54.53-7.42 58.23-3.97 55.41 .46 51.78-1.33 33.75-.84 28.52 .06 19.02-.08 9.6 0 0" fill="#c14c0a"/>
<path transform="matrix(1,0,0,-1,1328.7362,1056.5637)" d="M0 0C3.71-7.59 1.33-27.35-1.28-35.21-6.32-50.39-21-54.62-35.38-48.61-60.04-38.31-58.87-7.11-53.64 14.21-50.3 27.82-45.29 41.15-32.95 49.08-24.18 54.72-8.01 58.64-3.22 46.11V45.97C-4.65 41.45-4.72 35.14-6.59 30.35-23.1 45.25-36.91 15.94-37.99 2.69-38.9-8.51-36.32-29.83-22.63-33.07-9.92-36.09-11.88-23.22-10.1-15.62-12.85-15.92-16.15-16.82-19.23-16.45-19.41-11.52-18.61-6.11-20.08-1.46-13.51-1.65-6.45-1.82 0 0" fill="#c14c0a"/>
<path transform="matrix(1,0,0,-1,1299.6962,1247.0538)" d="M0 0-.02-.01C-9.11 1.22-15.4 .27-27.39-.22-30.65 8.74-37.43 34.43-37.43 34.43-37.43 34.43-48.72 33.87-52.25 34.15-59.39 34.72-62.86 35.49-69.9 35-69.63 29.04-80.56-3.58-80.56-3.58-80.56-3.58-97.32-4.34-100.92-3.13-89.7 32.57-77.37 73.02-63.12 107.84V108.13C-60.19 109.54-47.87 108.49-44.63 107.28L-44.49 107C-38.43 80.95-24.79 55.32-13.71 31.02-9.05 20.82-4.92 9.49 0 0M-53.92 87.86-54.09 87.8C-55.19 78.07-61.28 68.5-63.08 59.11-56.99 58.69-50.57 58.58-44.56 58.46-46.7 69.24-50.87 78.85-53.92 87.86" fill="#c14c0a"/>
<path transform="matrix(1,0,0,-1,1245.7761,1159.1939)" d="M0 0C3.05-9.01 7.22-18.62 9.36-29.4 3.35-29.28-3.07-29.17-9.16-28.75-7.36-19.36-1.27-9.79-.17-.06Z" fill="#3a5b51"/>
<path transform="matrix(1,0,0,-1,1241.5261,1007.2138)" d="M0 0C1.01-7.63 .5-14.15-.01-22.02-9.75-22.73-19.92-22.58-30.05-21.97-29.09-29.36-27.96-34.73-27.88-41.97-22.88-41.78-18.7-42.5-13.99-41.78-14-47.64-12.98-50.42-13.42-56.33-19.65-56.03-23.02-56.47-28.75-56.08-28.54-62.78-27.74-70.75-29.2-77.04-20.2-76.09-8.56-76.61-.29-76.66 .13-84.89 .57-89.82-.04-98.03-14.45-93.09-33.32-100.45-48.02-95.42-52.15-65.26-48.15-31.3-48.15-.7V-.56C-48.29 .99-48.6 2.63-48.87 4.3-34.36-.7-15.41 4.3 0 0" fill="#c14c0a"/>
<path transform="matrix(1,0,0,-1,1126.3662,1160.3938)" d="M0 0C-7.07-.17-14.06-1.56-20.96-1.56-21.54 6.14-23.45 14.48-23.54 21.95-11.97 18.7 5.23 21.62 17.45 22.03 23.8 22.25 36.1 26.24 41.51 22.96 39.77 16.63 40.65 7.84 42.36 1.87 35.53 .41 22.27-1.72 17.03-.84V-1.12C21.62-26.53 24.33-58.75 22.83-84.6 12.84-83.64 3.2-84.13 3.2-84.13 3.2-84.13 2.63-26.18 2.63-.84Z" fill="#c14c0a"/>
<path transform="matrix(1,0,0,-1,1129.8062,1034.9038)" d="M0 0C9.47 2.6 10.75 12.87 1.77 18.43L1.73 18.42C-13.65 25.39-18.93-5.19 0 0M31-59.01C32.1-61.1 34.96-66.47 35.8-69.95 32.29-70.93 11.33-68.73 11.33-68.73 11.33-68.73 5.88-55.05 4.28-51.37 .45-42.57-3.21-33.58-7.65-24.01-7.25-38.95-7.77-54.42-8.56-69.34-14.56-67.58-20.77-70.24-26.94-69.45-27.16-58.47-26.8-48.34-26.41-39.35-25.42-16.68-27.38 6.06-27.07 28.68V28.87C-10.54 39.1 14.87 37.7 25.15 20.13 33.67 5.56 25.41-12.11 10.2-17.06L10.11-17.25C14.64-31.27 24.17-46.03 31-59.01" fill="#c14c0a"/>
<path transform="matrix(1,0,0,-1,1131.5762,1016.4738)" d="M0 0C8.98-5.56 7.7-15.83-1.77-18.43-20.7-23.62-15.42 6.96-.04-.01Z" fill="#3a5b51"/>
<path transform="matrix(1,0,0,-1,775.7762,1115.7738)" d="M0 0C-48.99 .03-103.49 .7-145.69-29.06-195.93-64.47-225.83-124.85-239.81-184.09-311.89-184.09-389.34-178.5-461.18-172.42L-461.35-172.51C-505.36-88.65-524.75 2.57-526.87 96.84-527.31 116.47-528.62 150.72-543.39 165.88-550.48 173.16-561.27 175.26-572.57 176.13-577.28 176.48-582.08 176.63-586.74 176.84L-586.73 177.03C-586.16 180.14-585.21 192.46-584.51 199.64-582.65 218.68-581.16 237.88-579.2 257.07-571.07 336.28-560.65 415.03-549.11 493.73-538.76 564.27-538.53 636.65-525.26 706.76-516.94 750.75-502.5 789.37-494.68 832.75V832.94C-494.42 834.14-494.13 835.35-493.8 836.55H-493.79L-492.99 836.33C-449.36 823.66-391.09 836.26-345.47 834.59-297.13 832.83-247.87 833.69-199.65 835.95-71.61 841.95 57.59 831.49 185.46 827.79 215.66 826.92 245.88 826.25 276.12 825.73L276.1 824.69C276.85 804.84 275.86 784.74 275.14 764.68 245.72 766.57 216.36 769.36 186.87 771.95 130.27 776.92 73.44 778.01 16.74 781.03-23.98 783.19-64.68 783.14-105.45 783.77-144.87 784.38-184.68 790.3-224.11 788.23-270.25 785.8-316.49 792.5-362.54 788.33-369.32 788.7-375.32 785.18-382.16 782.55-389.27 779.83-394.94 774.48-399.6 768.51-405.28 761.24-410.09 751.23-411.1 742.02V741.46C-414.49 706.26-422.31 635.42-429.17 587.04-437.43 528.81-444.01 469.73-446.68 410.95-448.48 371.21-453.36 321.66-430.64 286.87-414.21 261.7-385.25 252.85-356.4 250.39-353.7 250.15-350.99 249.98-348.3 249.85-312.89 248.18-277.57 250.7-242.22 252.18-232.31 252.59-222.4 252.92-212.49 253.05-176.46 253.52-140.54 252.64-104.53 254.35-71.34 255.92-38.83 260.06-5.57 257.5-2.38 257.26 .8 257.04 3.99 256.84 3.97 256.66 3.95 256.49 3.92 256.31 4.42 255.2 4.2 256.33 4.44 256.82 15.71 256.13 27.01 255.73 38.33 255.51 84.97 254.57 131.91 256.55 178.54 253.41 204.4 251.67 230.14 250.79 255.78 249.47 254.08 199.16 252.46 148.87 250.92 98.61 248.07 5.39 247.49-87.78 247.37-180.98 216.9-178.66 186.43-175.24 155.86-176.19L154.73-176.34C153.46-166.51 151.96-156.69 149.69-146.94 141.4-111.45 121.12-58.4 88.86-36.66L89.22-36.14C62.75-16.89 33.31-.17 0 0" fill="#3a5b51"/>
<path transform="matrix(1,0,0,-1,814.1061,860.2438)" d="M0 0C-.05 0-.16 .11-.38 .39 .69 4.4-.12 9.68 .12 14.11 1.04 31.24 1.2 48.02 1.2 65.22L1.19 65.75C6.9 65.91 12.83 64.21 17.37 61.31 12.61 71.17 10.85 84.05 9.11 94.68 5.36 117.56 3.67 142.77-3.44 164.83-9.1 182.42-16.41 203.54-30.85 215.91-45.86 228.77-64.24 237.01-80.46 248.04-80.47 249.85-81.82 251.3-81.85 253.46-81.89 256.35-80.28 259.83-78.99 262.3V262.33C-75.9 261.91-72.8 261.46-69.65 260.87-64.82 259.96-60.69 257.3-55.79 257.22-47.88 257.1-38.92 260.82-32.94 265.93-26.66 271.3-23.29 278.39-24.78 286.66-25.36 289.9-29.7 296.65-28.74 299.59-27.66 302.93-22.72 301.5-21.45 305.1-26.04 309.32-33.54 309.75-38.67 313.13-35.55 318.66-29.59 320.67-23.95 322.73-18.63 324.66-18.92 324.27-18.13 329.51-17.61 332.91-18.8 336.8-16.87 340.23L-16.81 340.91C-10.33 340.88 1.01 337.85 .69 347.88 .22 362.36-19.67 372.86-21.39 387.39-22.29 394.88-15.84 398.28-20.39 405.75-26.71 416.15-31.44 427.61-37.2 438.49L-37.1 438.62C-37.04 438.58-36.98 438.53-36.92 438.49-46.8 465.03-55.84 475.99-78.71 485.64-100.7 494.94-118.82 496.32-141.67 492.7H-142.8C-155.48 492.57-167.05 483.6-176.82 476.48-194.65 463.49-205.44 450.11-212.85 429.03-222.44 401.73-219.58 369.03-207.87 343.15-202.48 331.25-201.25 323.29-195.88 310.87-194.99 308.69-193.78 306.13-192.55 304.25-193.53 298.06-191.69 290.73-191.93 284.29-192.01 282.14-192.3 279.36-192.04 277.6L-192.49 277.55C-197.33 272.18-206.23 270.82-212.9 268.55-222.72 265.2-232.67 261.94-242.64 259.04-261.93 253.44-282.21 248.52-300.61 240.26-329.46 227.32-346.45 202.2-359.2 174.3-366.69 157.92-372.51 141.2-377.72 123.93-381.21 112.37-386.95 101.26-389.58 89.5H-389.57C-392.13 83.99-393.01 76.85-394.43 71.03-391.8 72.51-388.69 70.94-385.65 70.18-383.3 69.59-381.05 69.33-378.82 69.22L-378.85 68.61C-386.63 53.02-389.81 33.24-392.63 16.13-393.65 9.96-395.43 2.05-394.66-4.24L-394.73-5.14C-423.58-2.68-452.54 6.17-468.97 31.34-491.69 66.13-486.81 115.68-485.01 155.42-482.34 214.2-475.76 273.28-467.5 331.51-460.64 379.89-452.82 450.73-449.43 485.93V486.49C-448.42 495.7-443.61 505.71-437.93 512.98-433.27 518.95-427.6 524.3-420.49 527.02-413.65 529.65-407.65 533.17-400.87 532.8-354.82 536.97-308.58 530.27-262.44 532.7-223.01 534.77-183.2 528.85-143.78 528.24-103.01 527.61-62.31 527.66-21.59 525.5 35.11 522.48 91.94 521.39 148.54 516.42 178.03 513.83 207.39 511.04 236.81 509.15 236.43 498.65 236.13 488.16 236.19 477.72 236.47 428.08 231.75 377.95 229.76 328.3 225.32 216.97 221.2 105.43 217.45-6.06 191.81-4.74 166.07-3.86 140.21-2.12 93.58 1.02 46.64-.96 0-.02Z" fill="#7eb2de"/>
<path transform="matrix(1,0,0,-1,1023.1462,1296.7538)" d="M0 0C-.03-23.44-.03-46.87-.03-70.31V-74.74C-2.76-74.43-5.48-74.13-8.21-73.84-32.49-71.29-60.07-75.31-83.61-69.75-85.84-68.31-85.79-44.72-87-37.9-89.48-23.8-90.82-9.57-92.64 4.64L-91.51 4.79C-60.94 5.74-30.47 2.32 0 0" fill="#404347"/>
<path transform="matrix(1,0,0,-1,822.6462,1355.7938)" d="M0 0C1.03 6.3 2.26 14.09 2.26 20.48 2.26 41.89-2.42 57.48-13.27 75.65-20.05 87-32.32 98.63-44.33 104.87-59.86 112.79-84.72 111.77-92.7 110.09-105.67 107.36-119.28 103.84-130.47 96.74-142.74 88.96-150.23 76.69-155.95 63.9-169.31 34.07-177.11-4.5-152.68-31.37-134.41-51.47-107.94-69.83-78.47-66.78-68.3-65.72-57.77-64.1-49.17-58.43-43.07-54.42-36.65-51.15-30.77-46.79-19.54-38.46-14.88-31.23-7.91-19.66-5.36-15.43-.78-4.82 0 0M73.97 85.35C96.46 12.56 88.67-76.76 26.55-128.17-12.11-160.17-68.33-171.09-122.16-155.65-159.43-145.11-194.46-132.11-219.42-105.36-277.23-43.39-268.89 39.38-234.6 110.48-221.51 137.63-200.89 165.9-173.3 178.81-141.03 193.92-84.88 210.92-47.98 201.71L-48 201.62C8.75 183.97 55.65 144.65 73.97 85.35"/>
<path transform="matrix(1,0,0,-1,550.4761,810.4938)" d="M0 0C-2.44 .15-4.93 .25-7.47 .32-15.25 .54-23.57 1.64-29.66 6.07-38.05 12.18-41.03 13.81-51.52 12.8-61.51 11.84-71.72 6-81.81 8.77-91.2 11.35-94.32 19.55-104.6 19.55-108.35 19.55-111.76 19.32-115.19 19.47-117.42 19.58-119.67 19.84-122.02 20.43-125.06 21.19-128.17 22.76-130.8 21.28-129.38 27.1-128.5 34.24-125.94 39.75H-125.95C-123.32 51.51-117.58 62.62-114.09 74.18-108.88 91.45-103.06 108.17-95.57 124.55-82.82 152.45-65.83 177.57-36.98 190.51-18.58 198.77 1.7 203.69 20.99 209.29 30.96 212.19 40.91 215.45 50.73 218.8 57.4 221.07 66.3 222.43 71.14 227.8L71.59 227.85V227.79L71.7 227.8C75.01 218.32 85.43 208.78 92.89 202.61 104.53 193 118.66 185.07 132.98 180.35 143.81 176.79 156.41 173.66 167.77 176.18 170.79 176.86 176.53 179.17 176.7 182.75 176.73 183.35 176.61 183.98 176.28 184.65 175.82 189.98 181.68 193.09 182.99 197.15 183.12 197.55 183.17 197.93 183.17 198.29 199.39 187.26 217.77 179.02 232.78 166.16 247.22 153.79 254.53 132.67 260.19 115.08 267.3 93.02 268.99 67.81 272.74 44.93 274.48 34.3 276.24 21.42 281 11.56 276.46 14.46 270.53 16.16 264.82 16 260.5 15.88 256.3 14.69 252.91 12.16 249.87 9.88 248.91 7.08 245.38 5.3 244.37 4.79 239.9 3.73 239.42 3.61 239.39 3.6 239.38 3.6 239.38 3.6L237.42 3.85C236.19-.6 234.3-4.71 233.16-9.22 231.46-15.97 231.58-23.33 230.96-30.24 230.41-36.4 230.18-42.57 229.29-48.44 226.1-48.24 222.92-48.02 219.73-47.78 186.47-45.22 153.96-49.36 120.77-50.93 84.76-52.64 48.84-51.76 12.81-52.23 2.9-52.36-7.01-52.69-16.92-53.1L-16.96-52.29C-12.47-37.74-7.4-14.74-.02-.34Z" fill="#72af99"/>
<path transform="matrix(1,0,0,-1,824.9061,1335.3137)" d="M0 0C0-6.39-1.23-14.18-2.26-20.48-3.04-25.3-7.62-35.91-10.17-40.14-17.14-51.71-21.8-58.94-33.03-67.27-38.91-71.63-45.33-74.9-51.43-78.91-60.03-84.58-70.56-86.2-80.73-87.26-110.2-90.31-136.67-71.95-154.94-51.85-179.37-24.98-171.57 13.59-158.21 43.42-152.49 56.21-145 68.48-132.73 76.26-121.54 83.36-107.93 86.88-94.96 89.61-86.98 91.29-62.12 92.31-46.59 84.39-34.58 78.15-22.31 66.52-15.53 55.17-4.68 37 0 21.41 0 0" fill="#656c74"/>
<path transform="matrix(1,0,0,-1,780.2162,858.9538)" d="M0 0C-.15 0-.3 .01-.45 .02 .44 5.89 .67 12.06 1.22 18.22 1.84 25.13 1.72 32.49 3.42 39.24 4.56 43.75 6.45 47.86 7.68 52.31L9.64 52.06C9.64 52.06 9.65 52.06 9.68 52.07 10.16 52.19 14.63 53.25 15.64 53.76 19.17 55.54 20.13 58.34 23.17 60.62 26.56 63.15 30.76 64.34 35.08 64.46L35.09 63.93C35.09 46.73 34.93 29.95 34.01 12.82 33.77 8.39 34.58 3.11 33.51-.9 33.73-1.18 33.84-1.29 33.89-1.29V-1.31C22.57-1.09 11.27-.69 0 0" fill="#96672f"/>
<path transform="matrix(1,0,0,-1,655.3661,511.06373)" d="M0 0 .13 .09C.51 5.8-11.98 16.06 1.26 19.85 1.84 26.16-7.98 54-16.58 41.27-20.81 35-16.6 25.2-14.27 19.29-11.76 12.94-10.96 6.3-8.78 .15-5.13 3.6-1.6 2.11 0 0M-16.14-.73C-17.61 4.66-19.84 9.73-22.87 14.64-27.06 21.43-32.3 27.33-32.64 35.71-33.01 45.04-24.59 57.63-14.51 57.71-5.95 57.78-3.34 50.66 .13 44.7 2.1 40.18 3.91 34.05 6.36 29.02 6.33 31.56 6.3 34.15 6.41 36.66 8.57 33.57 11.9 30.39 14.73 28.34 15.09 32.62 15.89 35.45 14.73 39.95 17.25 36.19 19.96 29.84 23.87 27.81 29.07 36.6 30.31 48.58 34.15 58.19 35.94 56.27 38.19 53.68 40.84 53.23 41.99 57.82 41.71 62.36 41.4 67.19 43.82 64.79 46.44 59.36 49.75 58.88 50.1 63.62 49.57 68.9 48.79 73.45 52.19 70.78 56.49 68.75 60.36 66.78 55.09 76.44 53.62 87.77 60.79 96.36 75.38 113.86 102.02 95.81 113.17 82.18 114.44 85.12 113.11 90.99 112.56 94.36 116.4 92.88 118.56 91.64 121.64 89.44L121.54 89.31C127.3 78.43 132.03 66.97 138.35 56.57 142.9 49.1 136.45 45.7 137.35 38.21 139.07 23.68 158.96 13.18 159.43-1.3 159.75-11.33 148.41-8.3 141.93-8.27L141.87-8.95C139.94-12.38 141.13-16.27 140.61-19.67 139.82-24.91 140.11-24.52 134.79-26.45 129.15-28.51 123.19-30.52 120.07-36.05 125.2-39.43 132.7-39.86 137.29-44.08 136.02-47.68 131.08-46.25 130-49.59 129.04-52.53 133.38-59.28 133.96-62.52 135.45-70.79 132.08-77.88 125.8-83.25 119.82-88.36 110.86-92.08 102.95-91.96 98.05-91.88 93.92-89.22 89.09-88.31 85.94-87.72 82.84-87.27 79.75-86.85V-86.88C78.46-89.35 76.85-92.83 76.89-95.72 76.92-97.88 78.27-99.33 78.28-101.14 78.28-101.5 78.23-101.88 78.1-102.28 76.79-106.34 70.93-109.45 71.39-114.78 71.44-115.39 71.57-116.02 71.81-116.68 71.64-120.26 65.9-122.57 62.88-123.25 51.52-125.77 38.92-122.64 28.09-119.08 13.77-114.36-.36-106.43-12-96.82-19.46-90.65-29.88-81.11-33.19-71.63L-33.3-71.64V-71.58C-33.56-69.82-33.27-67.04-33.19-64.89-32.95-58.45-34.79-51.12-33.81-44.93-33.65-45.18-33.49-45.42-33.32-45.64-32.94-40.5-31.79-35.51-31.41-30.41-28.27-32.77-25.78-36.94-23.68-40.35-23.92-33.57-22.46-25.91-21.36-19.26-20.26-12.62-15.28-7.46-16.25-.76ZM98.61 43.5C95.42 43.68 92.21 43.6 88.98 43.57 83.62 43.52 79.48 40.7 75.8 37.92V37.64C79.62 36.17 82.48 32.99 86.44 31.72 90.42 30.44 94.73 29.91 98.94 29.78 99.5 29.76 100.06 29.74 100.62 29.74 103.17 29.71 106.63 29.67 109.76 30.21 111.19 28.49 112.4 25.87 114.47 24.91 117.22 23.64 119.2 24.97 119.06 27.77 118.97 29.49 118.08 31.79 117.05 33.85 116.38 35.19 115.65 36.43 115.05 37.35 112.52 41.18 109.17 41.82 104.88 42.72 102.81 43.16 100.72 43.39 98.61 43.5" fill="#96672f"/>
<path transform="matrix(1,0,0,-1,621.5562,555.9938)" d="M0 0C-1.23 1.88-2.44 4.44-3.33 6.62-8.7 19.04-9.93 27-15.32 38.9-27.03 64.78-29.89 97.48-20.3 124.78-12.89 145.86-2.1 159.24 15.73 172.23 25.5 179.35 37.07 188.32 49.75 188.45H50.88C73.73 192.07 91.85 190.69 113.84 181.39 136.71 171.74 145.75 160.78 155.63 134.24 155.57 134.28 155.51 134.33 155.45 134.37 152.37 136.57 150.21 137.81 146.37 139.29 146.92 135.92 148.25 130.05 146.98 127.11 135.83 140.74 109.19 158.79 94.6 141.29 87.43 132.7 88.9 121.37 94.17 111.71 90.3 113.68 86 115.71 82.6 118.38 83.38 113.83 83.91 108.55 83.56 103.81 80.25 104.29 77.63 109.72 75.21 112.12 75.52 107.29 75.8 102.75 74.65 98.16 72 98.61 69.75 101.2 67.96 103.12 64.12 93.51 62.88 81.53 57.68 72.74 53.77 74.77 51.06 81.12 48.54 84.88 49.7 80.38 48.9 77.55 48.54 73.27 45.71 75.32 42.38 78.5 40.22 81.59 40.11 79.08 40.14 76.49 40.17 73.95 37.72 78.98 35.91 85.11 33.94 89.63 30.47 95.59 27.86 102.71 19.3 102.64 9.22 102.56 .8 89.97 1.17 80.64 1.51 72.26 6.75 66.36 10.94 59.57 13.97 54.66 16.2 49.59 17.67 44.2L17.56 44.17C18.53 37.47 13.55 32.31 12.45 25.67 11.35 19.02 9.89 11.36 10.13 4.58 8.03 7.99 5.54 12.16 2.4 14.52 2.02 9.42 .87 4.43 .49-.71 .32-.49 .16-.25 0 0" fill="#bbbfc4"/>
<path transform="matrix(1,0,0,-1,774.4261,483.29383)" d="M0 0C.14-2.8-1.84-4.13-4.59-2.86-6.66-1.9-7.87 .72-9.3 2.44-6.37 2.93-3.72 3.93-2.32 5.92L-2.01 6.08C-.98 4.02-.09 1.72 0 0" fill="#eb996a"/>
<path transform="matrix(1,0,0,-1,765.1262,480.85377)" d="M0 0C-3.13-.54-6.59-.5-9.14-.47-9.7-.47-10.26-.45-10.82-.43L-10.81 .09C-15.45 2.48-14.43 9.98-11.15 13.29-9.04 13.18-6.95 12.95-4.88 12.51-.59 11.61 2.76 10.97 5.29 7.14 5.89 6.22 6.62 4.98 7.29 3.64L6.98 3.48C5.58 1.49 2.93 .49 0 0M-4.3 5.55C-3.15 4.92-1.3 5.06-2.21 6.72-3.25 8.65-5.75 6.83-4.38 5.8-4.4 5.69-4.36 5.61-4.29 5.57Z" fill="#712d06"/>
<path transform="matrix(1,0,0,-1,754.3162,480.7638)" d="M0 0-.01-.52C-4.22-.39-8.53 .14-12.51 1.42-16.47 2.69-19.33 5.87-23.15 7.34V7.62C-19.47 10.4-15.33 13.22-9.97 13.27-6.74 13.3-3.53 13.38-.34 13.2-3.62 9.89-4.64 2.39 0 0" fill="#ffffff"/>
<path transform="matrix(1,0,0,-1,638.7861,469.79383)" d="M0 0C8.6 12.73 18.42-15.11 17.84-21.42 4.6-25.21 17.09-35.47 16.71-41.18L16.58-41.27C14.98-39.16 11.45-37.67 7.8-41.12 5.62-34.97 4.82-28.33 2.31-21.98-.02-16.07-4.23-6.27 0 0" fill="#96672f"/>
<path transform="matrix(1,0,0,-1,550.4761,810.4938)" d="M0 0-.02-.34C-7.4-14.74-12.47-37.74-16.96-52.29L-16.92-53.1C-52.27-54.58-87.59-57.1-123-55.43-125.69-55.3-128.4-55.13-131.1-54.89L-131.03-53.99C-131.8-47.7-130.02-39.79-129-33.62-126.18-16.51-123 3.27-115.22 18.86L-115.19 19.47C-111.76 19.32-108.35 19.55-104.6 19.55-94.32 19.55-91.2 11.35-81.81 8.77-71.72 6-61.51 11.84-51.52 12.8-41.03 13.81-38.05 12.18-29.66 6.07-23.57 1.64-15.25 .54-7.47 .32-4.93 .25-2.44 .15 0 0" fill="#96672f"/>
<path transform="matrix(1,0,0,-1,535.9662,1299.8638)" d="M0 0C-1.12-4.76-2.14-9.52-3.06-14.26-7.14-35.27-5.66-52.64-9.41-73.04L-9.5-73.4C-15.99-71.55-36.13-73.28-45.44-72.85-72.08-71.64-98.87-71.45-125.53-70.09-140.34-69.34-155.05-68.67-169.8-68.25L-169.79-67.77C-168.36-62.51-211.81-6.52-218.38 5.64-219.45 7.62-220.5 9.59-221.54 11.58L-221.37 11.67C-149.53 5.59-72.08 0 0 0" fill="#404347"/>
<path transform="matrix(1,0,0,-1,317.5862,1294.2238)" d="M0 0C6.57-12.16 50.02-68.15 48.59-73.41L48.58-73.89C37.49-73.56 26.38-73.38 15.2-73.41 .17-73.45-14.77-72.25-29.78-71.71-44.72-71.17-62.72-73.75-76.77-67.76H-77.15C-102.4-57.4-129.82-60.5-146.61-35.61-164.87-8.54-165.47 29.6-165.31 62.68H-165.24C-152.08 63.39-136.32 63.89-123.81 68.78-122.79 99.26-123.35 130.22-123.62 160.96-123.69 168.97-123.74 176.96-123.74 184.93-123.73 212.71-124.79 240.76-123.26 268.53-123.23 268.53-123.22 268.56-123.25 268.61-123.11 271.3-122.94 273.99-122.74 276.67-120.82 302.52-113.74 328.01-114.42 354.07L-114.38 354.58C-103.08 353.71-92.29 351.61-85.2 344.33-70.43 329.17-69.12 294.92-68.68 275.29-66.56 181.02-47.17 89.8-3.16 5.94-2.12 3.95-1.07 1.98 0 0" fill="#404347"/>
<path transform="matrix(1,0,0,-1,203.2062,939.6438)" d="M0 0-.04-.51C.64-26.57-6.44-52.06-8.36-77.91-8.56-80.59-8.73-83.28-8.87-85.97-8.93-85.88-9.12-85.7-9.51-85.4-18.95-83.94-30.7-92.24-39.85-89.45H-40.05C-40.14-58.47-42.86-24.01-33.92 2.88L-33.64 3.16C-27.99 1.52-21.24 1.04-14.17 .71-9.51 .5-4.71 .35 0 0" fill="#c14c0a"/>
<path transform="matrix(1,0,0,-1,194.3262,1025.6939)" d="M0 0C-1.53-27.77-.47-55.82-.48-83.6-.48-91.57-.43-99.56-.36-107.57L-2.17-107.59C-8.67-107.65-28.84-112.23-38.6-111.82L-38.82-111.8C-36.84-83.63-34.22-55.52-31.91-27.12-31.3-19.6-31.14-11.62-31.17-3.4H-30.97C-21.82-6.19-10.07 2.11-.63 .65-.24 .35-.05 .17 .01 .08 0 .05 0 .03 0 0" fill="#f4e0a2"/>
<path transform="matrix(1,0,0,-1,193.9662,1133.2638)" d="M0 0C.27-30.74 .83-61.7-.19-92.18-12.7-97.07-28.46-97.57-41.62-98.28H-41.69C-41.67-93.21-41.62-88.26-41.62-83.49-41.62-56.81-40.32-30.49-38.46-4.23L-38.24-4.25C-28.48-4.66-8.31-.08-1.81-.02Z" fill="#f7d14c"/>
</g>
</g>
<path transform="matrix(1,0,0,-1,281.0962,282.83375)" stroke-width="1.7" stroke-linecap="round" stroke-linejoin="round" fill="none" stroke="#000000" d="M0 0C.26 1.2 .55 2.41 .88 3.61H.89C7.14 26.78 25.33 50.44 52.52 61.46 98.67 80.15 151.71 77.94 200.63 77.93 267.84 77.92 334.76 71.61 402.04 70.24 512.41 67.99 624.42 67.24 734.76 72.43 947.75 82.44 1162.26 68.47 1374.42 50.82 1415.25 47.43 1455.38 47.84 1495.94 41.97 1533.38 36.55 1561.71 13.62 1588.93-10.97 1597.74-18.93 1606.48-27.12 1615.13-35.49 1630.15-50.02 1644.89-65.1 1659.28-80.47 1677.63-100.08 1695.39-120.17 1712.39-140.2 1756.25-191.88 1805.95-250.37 1838.11-310.02"/>
<path transform="matrix(1,0,0,-1,2686.736,1246.1738)" stroke-width="1.7" stroke-linecap="round" stroke-linejoin="round" fill="none" stroke="#000000" d="M0 0V1.08"/>
<path transform="matrix(1,0,0,-1,2686.736,1241.6238)" stroke-width="1.7" stroke-linecap="round" stroke-linejoin="round" fill="none" stroke="#000000" d="M0 0V-3.47"/>
<path transform="matrix(1,0,0,-1,2119.206,592.85379)" stroke-width="1.7" stroke-linecap="round" stroke-linejoin="round" fill="none" stroke="#000000" d="M0 0C37.29-66.23 81.66-132.89 132.99-188.96 133.21-189.2 133.43-189.44 133.65-189.67 165.21-223.82 204.57-243.26 245.06-265.56 320.73-307.23 403.75-340.85 482.67-376.27 515.43-390.98 536-401.88 550.14-423.06 557.59-434.21 563.26-448.21 567.99-467.12 573.62-489.59 574.74-512.45 573.98-535.3 573.11-561.48 569.77-587.66 567.91-613.3 567.69-616.27 567.59-619.28 567.55-622.31 567.47-626.62 567.52-630.96 567.53-635.26V-648.29"/>
<path transform="matrix(1,0,0,-1,281.0962,283.0238)" stroke-width="1.7" stroke-linecap="round" stroke-linejoin="round" fill="none" stroke="#000000" d="M0 0C-7.82-43.38-22.26-82-30.58-125.99-43.85-196.1-44.08-268.48-54.43-339.02-65.97-417.72-76.39-496.47-84.52-575.68-86.48-594.87-87.97-614.07-89.83-633.11-90.53-640.29-91.48-652.61-92.05-655.72"/>
<path transform="matrix(1,0,0,-1,169.5662,936.48379)" stroke-width="1.7" stroke-linecap="round" stroke-linejoin="round" fill="none" stroke="#000000" d="M0 0C5.65-1.64 12.4-2.12 19.47-2.45 24.13-2.66 28.93-2.81 33.64-3.16 44.94-4.03 55.73-6.13 62.82-13.41 77.59-28.57 78.9-62.82 79.34-82.45 81.46-176.72 100.85-267.94 144.86-351.8 145.9-353.79 146.95-355.76 148.02-357.74 154.59-369.9 198.04-425.89 196.61-431.15"/>
<path transform="matrix(1,0,0,-1,169.2862,936.7638)" stroke-width="1.7" stroke-linecap="round" stroke-linejoin="round" fill="none" stroke="#000000" d="M0 0C-8.94-26.89-6.22-61.35-6.13-92.33-6.1-100.55-6.26-108.53-6.87-116.05-9.18-144.45-11.8-172.56-13.78-200.73-15.64-226.99-16.94-253.31-16.94-279.99-16.94-284.76-16.99-289.71-17.01-294.78-17.17-327.86-16.57-366 1.69-393.07 18.48-417.96 45.9-414.86 71.15-425.22"/>
<path transform="matrix(1,0,0,-1,240.8162,1361.9838)" stroke-width="1.7" stroke-linecap="round" stroke-linejoin="round" fill="none" stroke="#000000" d="M0 0C14.05-5.99 32.05-3.41 46.99-3.95 62-4.49 76.94-5.69 91.97-5.65 103.15-5.62 114.26-5.8 125.35-6.13 140.1-6.55 154.81-7.22 169.62-7.97 196.28-9.33 223.07-9.52 249.71-10.73 259.02-11.16 279.16-9.43 285.65-11.28 285.68-11.28 285.71-11.29 285.74-11.3"/>
<path transform="matrix(1,0,0,-1,778.0361,1115.7738)" stroke-width="1.7" stroke-linecap="round" stroke-linejoin="round" fill="none" stroke="#000000" d="M0 0H-2.26C-51.25 .03-105.75 .7-147.95-29.06-198.19-64.47-228.09-124.85-242.07-184.09-243.19-188.85-244.21-193.61-245.13-198.35-249.21-219.36-247.73-236.73-251.48-257.13"/>
<path transform="matrix(1,0,0,-1,314.5962,1288.1939)" stroke-width="1.7" stroke-linecap="round" stroke-linejoin="round" fill="none" stroke="#000000" d="M0 0C71.84-6.08 149.29-11.67 221.37-11.67"/>
<path transform="matrix(1,0,0,-1,775.7762,1115.7738)" stroke-width="1.7" stroke-linecap="round" stroke-linejoin="round" fill="none" stroke="#000000" d="M0 0C33.31-.17 62.75-16.89 89.22-36.14"/>
<path transform="matrix(1,0,0,-1,863.8661,1151.9138)" stroke-width="1.7" stroke-linecap="round" stroke-linejoin="round" fill="none" stroke="#000000" d="M0 0C.26-.17 .52-.34 .77-.52 33.03-22.26 53.31-75.31 61.6-110.8 63.87-120.55 65.37-130.37 66.64-140.2 68.46-154.41 69.8-168.64 72.28-182.74 73.49-189.56 73.44-213.15 75.67-214.59"/>
<path transform="matrix(1,0,0,-1,939.5361,1366.5038)" stroke-width="1.7" stroke-linecap="round" stroke-linejoin="round" fill="none" stroke="#000000" d="M0 0C23.54-5.56 51.12-1.54 75.4-4.09 78.13-4.38 80.85-4.68 83.58-4.99 108.44-7.85 133.18-11.59 158.19-12.39 232.67-14.77 307.22-14.13 381.58-20.07 463.45-26.62 546.99-23.05 629.09-22.63 633.95-22.6 638.8-22.59 643.64-22.59 664.03-22.59 684.22-23.64 704.47-23.72H704.76"/>
<path transform="matrix(1,0,0,-1,1644.0061,1390.2238)" stroke-width="1.7" stroke-linecap="round" stroke-linejoin="round" fill="none" stroke="#000000" d="M0 0C18.22-.56 33.61 2.6 47.17 3.14 66.79 3.91 86.53 3.39 106.18 3.39 164.62 3.39 223.22 5.88 281.57 3.64 334.67 1.61 387.8 2.01 440.78-2.26 455.68-3.46 480.95-.95 495.08-4.12 495.11-4.13 495.13-4.13 495.16-4.14"/>
<path transform="matrix(1,0,0,-1,2346.7862,1172.2438)" stroke-width="1.7" stroke-linecap="round" stroke-linejoin="round" fill="none" stroke="#000000" d="M0 0C-29.47-.1-62.06-2.6-90.16-11.36-119.31-20.44-137.4-36.69-154.1-62.57-170-87.2-182.73-114.81-191.89-143.47-200.11-169.18-205.44-195.74-207.62-221.74"/>
<path transform="matrix(1,0,0,-1,2346.7862,1172.2438)" stroke-width="1.7" stroke-linecap="round" stroke-linejoin="round" fill="none" stroke="#000000" d="M0 0C19.58-.75 40.15-4.84 59.46-10.83 81.19-17.56 104.14-32.82 120.59-48.26 136.66-63.33 148.9-80.93 157.83-100.37 163.12-111.88 167.26-124.04 170.34-136.7 175.66-158.54 178.5-180.94 179.68-203.29 180.19-212.84 179.54-226.23 182.96-234.92"/>
<path transform="matrix(1,0,0,-1,2529.746,1407.1638)" stroke-width="1.7" stroke-linecap="round" stroke-linejoin="round" fill="none" stroke="#000000" d="M0 0C40.12-1.22 81.89 3.39 122.13 3.39 138.2 3.39 152.45 .53 168.29 3.36 168.35 3.37 168.41 3.38 168.47 3.39"/>
<path transform="matrix(1,0,0,-1,2504.9063,1272.4838)" stroke-width="1.7" stroke-linecap="round" stroke-linejoin="round" fill="none" stroke="#000000" d="M0 0C42.73 0 86.66 7.42 129.31 9.98 140.38 10.65 162.63 12.9 170.54 12.14"/>
<path transform="matrix(1,0,0,-1,2675.446,1260.3438)" stroke-width="1.7" stroke-linecap="round" stroke-linejoin="round" fill="none" stroke="#000000" d="M0 0C5.27 0 8.33-.35 10.87 .18 9.78 5.85 11.29 12.98 11.29 18.72V19.2"/>
<path transform="matrix(1,0,0,-1,2686.736,1215.1638)" stroke-width="1.7" stroke-linecap="round" stroke-linejoin="round" fill="none" stroke="#000000" d="M0 0H.02C19.92-.14 21.93-8.57 20.9-28.3 19.43-56.17 22.18-84.01 23.47-111.85 24.4-132.15 25.86-155.1 22.84-175.06 21.39-184.64 21.5-186.35 11.3-188.61"/>
<path transform="matrix(1,0,0,-1,2344.9063,1210.2638)" stroke-width="1.7" stroke-linecap="round" stroke-linejoin="round" fill="none" stroke="#000000" d="M0 0C-24.1 .75-56.56-5.55-79.67-15.89-109.73-29.33-132.65-48.86-148.33-77.88-176.4-129.81-183.98-191.51-159.4-246.6-138.95-292.42-110.18-335.32-51.51-348.59-51.47-348.6-51.43-348.61-51.39-348.62"/>
<path transform="matrix(1,0,0,-1,2344.9063,1210.2638)" stroke-width="1.7" stroke-linecap="round" stroke-linejoin="round" fill="none" stroke="#000000" d="M0 0C32.37-1.51 50.7-10.95 73.29-23.22 99.2-37.32 118.14-57.92 132.61-83.43 164.93-140.41 168.01-211.22 134.69-268.04 120.51-292.23 92.47-321.64 74.39-330.06 74.31-330.1 74.24-330.13 74.16-330.17"/>
<path transform="matrix(1,0,0,-1,2293.4163,1558.7838)" stroke-width="1.7" stroke-linecap="round" stroke-linejoin="round" fill="none" stroke="#000000" d="M0 0C34.45-4.8 49.31-.45 75.29 3.86 92.74 6.76 109.6 11.73 125.84 18.54"/>
<path transform="matrix(1,0,0,-1,2367.3963,1300.9938)" stroke-width="1.7" stroke-linecap="round" stroke-linejoin="round" fill="none" stroke="#000000" d="M0 0C-17.6 6.77-42.82 4.14-61.65-3.77-72.18-8.19-87.87-16.57-94.68-26.86-118.62-63.02-122.34-127.29-82.2-154.19-69.4-162.77-53.02-167.29-38.08-170.47-25.33-173.18-8.19-169.42 .47-167.16"/>
<path transform="matrix(1,0,0,-1,2367.3963,1300.9938)" stroke-width="1.7" stroke-linecap="round" stroke-linejoin="round" fill="none" stroke="#000000" d="M0 0C29.09-9 50.75-42.37 54.02-70.74 55.87-86.7 55.06-104.29 50.54-118.59 43.14-142.02 35.86-152.1 .85-167.16"/>
<path transform="matrix(1,0,0,-1,282.7862,279.44374)" stroke-width="1.7" stroke-linecap="round" stroke-linejoin="round" fill="none" stroke="#000000" d="M0 0C43.63-12.67 101.9-.07 147.52-1.74 195.86-3.5 245.12-2.64 293.34-.38 421.38 5.62 550.58-4.84 678.45-8.54 708.65-9.41 738.87-10.08 769.11-10.6 944.32-13.66 1120.18-12.03 1295.27-18.88 1359.91-21.4 1424.44-25.08 1488.79-30.58 1529.68-34.08 1574.06-29.27 1613.36-38.97"/>
<path transform="matrix(1,0,0,-1,1578.0361,298.83375)" stroke-width="1.7" stroke-linecap="round" stroke-linejoin="round" fill="none" stroke="#000000" d="M0 0C7.29-166.71-2.8-336.82-4.4-504.12-5.45-615.08-7.63-725.77-12.43-836.58-14.89-893.62-11.33-949.9-11.12-1006.68-11.11-1009.13-11.11-1011.57-11.11-1014.02-11.15-1037.72-9.41-1069.89-9.41-1089.98"/>
<path transform="matrix(1,0,0,-1,1023.1161,1371.7638)" stroke-width="1.7" stroke-linecap="round" stroke-linejoin="round" fill="none" stroke="#000000" d="M0 0V.27"/>
<path transform="matrix(1,0,0,-1,1023.1161,1371.4938)" stroke-width="1.7" stroke-linecap="round" stroke-linejoin="round" fill="none" stroke="#000000" d="M0 0V4.43"/>
<path transform="matrix(1,0,0,-1,1051.8761,291.08375)" stroke-width="1.7" stroke-linecap="round" stroke-linejoin="round" fill="none" stroke="#000000" d="M0 0C.75-19.85-.24-39.95-.96-60.01-1.34-70.51-1.64-81-1.58-91.44-1.3-141.08-6.02-191.21-8.01-240.86-12.45-352.19-16.57-463.73-20.32-575.22-22.02-625.53-23.64-675.82-25.18-726.08-28.03-819.3-28.61-912.47-28.73-1005.67-28.76-1029.11-28.76-1052.54-28.76-1075.98"/>
<path transform="matrix(1,0,0,-1,775.0262,1154.1738)" stroke-width="1.7" stroke-linecap="round" stroke-linejoin="round" fill="none" stroke="#000000" d="M0 0C-.12 .03-.24 .06-.36 .09-37.26 9.3-93.41-7.7-125.68-22.81-153.27-35.72-173.89-63.99-186.98-91.14-221.27-162.24-229.61-245.01-171.8-306.98-146.84-333.73-111.81-346.73-74.54-357.27"/>
<path transform="matrix(1,0,0,-1,774.6462,1154.1738)" stroke-width="1.7" stroke-linecap="round" stroke-linejoin="round" fill="none" stroke="#000000" d="M0 0C56.75-17.65 103.65-56.97 121.97-116.27 144.46-189.06 136.67-278.38 74.55-329.79 35.89-361.79-20.33-372.71-74.16-357.27"/>
<path transform="matrix(1,0,0,-1,203.1662,940.1538)" stroke-width="1.7" stroke-linecap="round" stroke-linejoin="round" fill="none" stroke="#000000" d="M0 0C.68-26.06-6.4-51.55-8.32-77.4-8.52-80.08-8.69-82.77-8.83-85.46-8.84-85.49-8.84-85.51-8.84-85.54-10.37-113.31-9.31-141.36-9.32-169.14-9.32-177.11-9.27-185.1-9.2-193.11-8.93-223.85-8.37-254.81-9.39-285.29-21.9-290.18-37.66-290.68-50.82-291.39"/>
<path transform="matrix(1,0,0,-1,155.7262,1137.5138)" stroke-width="1.7" stroke-linecap="round" stroke-linejoin="round" fill="none" stroke="#000000" d="M0 0C9.76-.41 29.93 4.17 36.43 4.23"/>
<path transform="matrix(1,0,0,-1,163.3562,1029.0938)" stroke-width="1.7" stroke-linecap="round" stroke-linejoin="round" fill="none" stroke="#000000" d="M0 0C9.15-2.79 20.9 5.51 30.34 4.05 30.73 3.75 30.92 3.57 30.98 3.48 31.01 3.43 31 3.4 30.97 3.4 30.79 3.33 29.78 3.74 29.64 3.39"/>
<path transform="matrix(1,0,0,-1,413.2361,327.44374)" stroke-width="1.7" stroke-linecap="round" stroke-linejoin="round" fill="none" stroke="#000000" d="M0 0C46.05 4.17 92.29-2.53 138.43-.1 177.86 1.97 217.67-3.95 257.09-4.56 297.86-5.19 338.56-5.14 379.28-7.3 435.98-10.32 492.81-11.41 549.41-16.38 578.9-18.97 608.26-21.76 637.68-23.65 659.54-25.07 681.44-25.99 703.46-25.98 795.63-25.94 887.5-20.13 979.69-24.88 1007.42-26.31 1035.91-29.43 1063.24-28.24 1077.68-27.61 1099.72-27.67 1109.74-37.84 1120.68-48.94 1119.77-67.11 1119.5-81.52 1118.96-108.98 1120.33-135.64 1121.56-162.91 1125.58-252.15 1106.17-341.71 1102.31-430.79 1101.43-451.2 1099.95-471.1 1100.04-491.23 1100.09-503.39 1097.81-520.64 1089.63-529.67 1082.62-537.4 1074.07-539.8 1063.95-540.77 1042.12-542.84 1019.65-542.57 997.4-545.48 953.15-551.26 909.79-553.74 865.23-553.37 813-552.94 759.31-555.61 707.57-547.3 677.87-542.53 648.15-540.39 618.32-538.86 592.68-537.54 566.94-536.66 541.08-534.92 494.45-531.78 447.51-533.76 400.87-532.82 389.55-532.6 378.25-532.2 366.98-531.51 366.83-531.51 366.68-531.5 366.53-531.49 363.34-531.29 360.16-531.07 356.97-530.83 323.71-528.27 291.2-532.41 258.01-533.98 222-535.69 186.08-534.81 150.05-535.28 140.14-535.41 130.23-535.74 120.32-536.15 84.97-537.63 49.65-540.15 14.24-538.48 11.55-538.35 8.84-538.18 6.14-537.94-22.71-535.48-51.67-526.63-68.1-501.46-90.82-466.67-85.94-417.12-84.14-377.38-81.47-318.6-74.89-259.52-66.63-201.29-59.77-152.91-51.95-82.07-48.56-46.87"/>
<path transform="matrix(1,0,0,-1,413.2361,327.44374)" stroke-width="1.7" stroke-linecap="round" stroke-linejoin="round" fill="none" stroke="#000000" d="M0 0C-6.78 .37-12.78-3.15-19.62-5.78-26.73-8.5-32.4-13.85-37.06-19.82-42.74-27.09-47.55-37.1-48.56-46.31"/>
<path transform="matrix(1,0,0,-1,1644.8562,362.45375)" stroke-width="1.7" stroke-linecap="round" stroke-linejoin="round" fill="none" stroke="#000000" d="M0 0H.28C38.18 0 76.25-1.86 113.51-5.09 131.95-6.68 148.07-10.15 162.68-22.45 219.6-70.33 269.47-144.05 307.63-207.8 324.05-235.24 348.71-266.26 367.62-295.91"/>
<path transform="matrix(1,0,0,-1,1645.1361,362.45375)" stroke-width="1.7" stroke-linecap="round" stroke-linejoin="round" fill="none" stroke="#000000" d="M0 0C-36.51-5.68-22.98-59.03-24-88.87-27.29-185.72-30.77-282.58-30.77-380.03-30.77-398.23-34.3-420.97-29.15-438.52-29.13-438.61-29.11-438.69-29.08-438.78"/>
<path transform="matrix(1,0,0,-1,1616.0562,800.9538)" stroke-width="1.7" stroke-linecap="round" stroke-linejoin="round" fill="none" stroke="#000000" d="M0 0C13.27-36.7 113.66-32.79 141.5-37.55 253.1-56.65 365.71-70.67 477.97-87.57"/>
<path transform="matrix(1,0,0,-1,2096.9063,783.4438)" stroke-width="1.7" stroke-linecap="round" stroke-linejoin="round" fill="none" stroke="#000000" d="M0 0C15.24-15.25 96.95-80.22 79.62-104.47 72.28-115.48 12.14-107.58-2.83-105.04"/>
<path transform="matrix(1,0,0,-1,2054.8363,658.9238)" stroke-width="1.7" stroke-linecap="round" stroke-linejoin="round" fill="none" stroke="#000000" d="M0 0C-11.05-.07-21.12-.51-31.83-.01-34.91 .13-38.67 .4-42.35 .24-46.67 .06-50.88-.71-53.72-2.96-63.04-10.36-61.72-29.72-61.84-40.47-62.07-62.29-63.51-83.9-63.53-105.68-63.55-120.51-63.49-135.64-62.73-150.46-62.27-159.44-60.33-166.8-51.92-171.13-39.81-177.36-25.74-171.59-12.85-171.96-6.8-172.13-1.98-171.67 3.38-170.26"/>
<path transform="matrix(1,0,0,-1,2054.8363,658.9238)" stroke-width="1.7" stroke-linecap="round" stroke-linejoin="round" fill="none" stroke="#000000" d="M0 0C20.32-2.26 19.21-49.67 17.38-80.18 16.82-89.43 16.2-97.12 16.09-101.53 15.98-105.92 16.6-114.69 16.75-124.54 17.04-143.71 15.53-167 3.38-170.26"/>
<path transform="matrix(1,0,0,-1,2072.3363,739.1138)" stroke-width="1.7" stroke-linecap="round" stroke-linejoin="round" fill="none" stroke="#000000" d="M0 0C17.23 .56 33.75-1.56 49.29-2.96 50.08-17.57 46.63-34.78 49.94-48.64 42.78-45.66 33.6-44.46 24.58-44.08 15.6-43.68 6.79-44.09 .28-44.33"/>
<path transform="matrix(1,0,0,-1,1940.4762,363.3037)" stroke-width="1.7" stroke-linecap="round" stroke-linejoin="round" fill="none" stroke="#000000" d="M0 0H-.1C-19.65 0-39.19-1.4-58.58-1.51-66.45-1.55-87.13 3.84-84.08-7.63-81.93-15.75-69.06-22.06-63.73-27.88-47.62-45.46-34.13-66.7-19.03-85.32 30.08-145.88 78.92-206.48 126.22-268.49 149.11-298.51 171.66-328.69 194.21-358.94 204.68-372.98 214.89-392.2 228.68-403.24 251.01-421.12 287.33-409.41 312.29-419.3"/>
<path transform="matrix(1,0,0,-1,1680.1461,932.8138)" stroke-width="1.7" stroke-linecap="round" stroke-linejoin="round" fill="none" stroke="#000000" d="M0 0C5.73 1.43 11.84 .83 18-.17 23.74-1.11 29.53-2.39 35.11-2.69 49.16-3.44 63.04-3.12 77.16-4.05 81.06-4.31 85.12-4.22 89.23-4.04 97.83-3.68 106.63-2.92 114.51-4.08 115.38-8.37 117.39-13.16 116.26-17.17 108.37-15.39 99.14-16.67 90.34-17.61 86.52-18.02 82.77-18.36 79.26-18.35 66.97-18.32 54.68-18.35 42.4-18.35 34.77-18.35 25.24-19.67 16.34-20.06 10.53-20.33 5-20.2 .43-19.05-1.26-13.59-1.1-5.7-.44 .05-.43 .11-.43 .16-.42 .21"/>
<path transform="matrix(1,0,0,-1,1698.2262,932.5238)" stroke-width="1.7" stroke-linecap="round" stroke-linejoin="round" fill="none" stroke="#000000" d="M0 0C12.91 29.65 61.87 29.59 71.15-4.24"/>
<path transform="matrix(1,0,0,-1,1696.5261,953.7038)" stroke-width="1.7" stroke-linecap="round" stroke-linejoin="round" fill="none" stroke="#000000" d="M0 0C8.79-20.88 34.34-32 56.2-23.53 63.81-20.58 76.45-5.13 73.98 3.11"/>
<path transform="matrix(1,0,0,-1,1374.9262,946.92379)" stroke-width="1.7" stroke-linecap="round" stroke-linejoin="round" fill="none" stroke="#000000" d="M0 0C6.44 0 12.83 .02 19.2 .03 41.32 .08 63.12 .13 85.27-.49 89.24-.58 93.22-.71 97.21-.87 104.28-1.15 111.92-2.39 118.81-1.76 117.89 3.67 121.01 9.27 121.55 14.25 109.95 11.01 96.98 12.33 84.14 13.5 75.85 14.25 67.61 14.94 59.82 14.29 46.93 13.22 33.91 13.19 20.9 13.09 12.98 13.03 5.07 12.94-2.8 12.57-2.06 8.37-2.05 3.7-.28 0"/>
<path transform="matrix(1,0,0,-1,1395.8262,933.3738)" stroke-width="1.7" stroke-linecap="round" stroke-linejoin="round" fill="none" stroke="#000000" d="M0 0C6.88 26.06 55.98 27 63.24 0"/>
<path transform="matrix(1,0,0,-1,1394.1261,947.2138)" stroke-width="1.7" stroke-linecap="round" stroke-linejoin="round" fill="none" stroke="#000000" d="M0 0C7.87-17.11 24.34-25.46 42.34-23.53 49.48-22.77 56.6-19.84 60.99-13.55 62.98-10.7 66.35-6.21 66.07-.28"/>
<path transform="matrix(1,0,0,-1,1102.7362,1006.2238)" stroke-width="1.7" stroke-linecap="round" stroke-linejoin="round" fill="none" stroke="#000000" d="M0 0C-.31-22.62 1.65-45.36 .66-68.03 .27-77.02-.09-87.15 .13-98.13 6.3-98.92 12.51-96.26 18.51-98.02 19.3-83.1 19.82-67.63 19.42-52.69 23.86-62.26 27.52-71.25 31.35-80.05 32.95-83.73 38.4-97.41 38.4-97.41 38.4-97.41 59.36-99.61 62.87-98.63"/>
<path transform="matrix(1,0,0,-1,1102.7362,1006.0338)" stroke-width="1.7" stroke-linecap="round" stroke-linejoin="round" fill="none" stroke="#000000" d="M0 0C16.53 10.23 41.94 8.83 52.22-8.74 60.74-23.31 52.48-40.98 37.27-45.93"/>
<path transform="matrix(1,0,0,-1,1139.9161,1052.1538)" stroke-width="1.7" stroke-linecap="round" stroke-linejoin="round" fill="none" stroke="#000000" d="M0 0C4.53-14.02 14.06-28.78 20.89-41.76 21.99-43.85 24.85-49.22 25.69-52.7"/>
<path transform="matrix(1,0,0,-1,1131.5361,1016.48379)" stroke-width="1.7" stroke-linecap="round" stroke-linejoin="round" fill="none" stroke="#000000" d="M0 0C-15.38 6.97-20.66-23.61-1.73-18.42 7.74-15.82 9.02-5.55 .04 .01"/>
<path transform="matrix(1,0,0,-1,1193.3761,1007.9138)" stroke-width="1.7" stroke-linecap="round" stroke-linejoin="round" fill="none" stroke="#000000" d="M0 0C0-30.6-4-64.56 .13-94.72 14.83-99.75 33.7-92.39 48.11-97.33 48.72-89.12 48.28-84.19 47.86-75.96 39.59-75.91 27.95-75.39 18.95-76.34 20.41-70.05 19.61-62.08 19.4-55.38 25.13-55.77 28.5-55.33 34.73-55.63 35.17-49.72 34.15-46.94 34.16-41.08 29.45-41.8 25.27-41.08 20.27-41.27 20.19-34.03 19.06-28.66 18.1-21.27 28.23-21.88 38.4-22.03 48.14-21.32 48.65-13.45 49.16-6.93 48.15 .7 32.74 5 13.79 0-.72 5-.45 3.33-.14 1.69 0 .14"/>
<path transform="matrix(1,0,0,-1,1325.5161,1010.4538)" stroke-width="1.7" stroke-linecap="round" stroke-linejoin="round" fill="none" stroke="#000000" d="M0 0C-4.79 12.53-20.96 8.61-29.73 2.97-42.07-4.96-47.08-18.29-50.42-31.9-55.65-53.22-56.82-84.42-32.16-94.72-17.78-100.73-3.1-96.5 1.94-81.32 4.55-73.46 6.93-53.7 3.22-46.11-3.23-47.93-10.29-47.76-16.86-47.57-15.39-52.22-16.19-57.63-16.01-62.56-12.93-62.93-9.63-62.03-6.88-61.73-8.66-69.33-6.7-82.2-19.41-79.18-33.1-75.94-35.68-54.62-34.77-43.42-33.69-30.17-19.88-.86-3.37-15.76-1.5-10.97-1.43-4.66 0-.14"/>
<path transform="matrix(1,0,0,-1,1363.6361,1013.1438)" stroke-width="1.7" stroke-linecap="round" stroke-linejoin="round" fill="none" stroke="#000000" d="M0 0C.83-25.33-1.52-51.61 .85-76.82 1.44-83 2.74-89.31 2.67-95.44 9.3-95.29 22.02-95.15 22.02-95.15 22.02-95.15 19.54-63.94 19.47-55.01 19.39-45.41 19.53-35.99 18.63-26.49 18.14-21.26 19.93-3.23 15.5 .4 12.05 3.22 1.41-.48 .06 .11 .04 .13 .02 .14 0 .15"/>
<path transform="matrix(1,0,0,-1,1450.0361,1007.9138)" stroke-width="1.7" stroke-linecap="round" stroke-linejoin="round" fill="none" stroke="#000000" d="M0 0C-.05 0-.09 0-.14 .01-53.17 2.99-41.97-108.37-2.49-96.59 23.75-88.76 23.49-44.06 18.22-22.84 15.4-11.52 11.72-1.98-.14 0"/>
<path transform="matrix(1,0,0,-1,1443.2561,1026.4138)" stroke-width="1.7" stroke-linecap="round" stroke-linejoin="round" fill="none" stroke="#000000" d="M0 0C-15.25-3.95-12.87-57.53 4.69-51.3 17.62-46.71 16.3 6.55 .04-.12 .03-.13 .01-.13 0-.14"/>
<path transform="matrix(1,0,0,-1,1128.9962,1161.2338)" stroke-width="1.7" stroke-linecap="round" stroke-linejoin="round" fill="none" stroke="#000000" d="M0 0C0-25.34 .57-83.29 .57-83.29 .57-83.29 10.21-82.8 20.2-83.76 21.7-57.91 18.99-25.69 14.4-.28"/>
<path transform="matrix(1,0,0,-1,1128.9962,1160.3838)" stroke-width="1.7" stroke-linecap="round" stroke-linejoin="round" fill="none" stroke="#000000" d="M0 0C-.88 .02-1.76 .02-2.63-.01-9.7-.18-16.69-1.57-23.59-1.57-24.17 6.13-26.08 14.47-26.17 21.94-14.6 18.69 2.6 21.61 14.82 22.02 21.17 22.24 33.47 26.23 38.88 22.95 37.14 16.62 38.02 7.83 39.73 1.86 32.9 .4 19.64-1.73 14.4-.85"/>
<path transform="matrix(1,0,0,-1,1236.5762,1139.2139)" stroke-width="1.7" stroke-linecap="round" stroke-linejoin="round" fill="none" stroke="#000000" d="M0 0C-14.25-34.82-26.58-75.27-37.8-110.97-34.2-112.18-17.44-111.42-17.44-111.42-17.44-111.42-6.51-78.8-6.78-72.84"/>
<path transform="matrix(1,0,0,-1,1229.7962,1212.0537)" stroke-width="1.7" stroke-linecap="round" stroke-linejoin="round" fill="none" stroke="#000000" d="M0 0C7.04 .49 10.51-.28 17.65-.85 21.18-1.13 32.47-.57 32.47-.57 32.47-.57 39.25-26.26 42.51-35.22 54.5-34.73 60.79-33.78 69.88-35.01"/>
<path transform="matrix(1,0,0,-1,1255.2062,1140.0537)" stroke-width="1.7" stroke-linecap="round" stroke-linejoin="round" fill="none" stroke="#000000" d="M0 0C6.06-26.05 19.7-51.68 30.78-75.98 35.44-86.18 39.57-97.51 44.49-107 44.51-107.05 44.54-107.09 44.56-107.14"/>
<path transform="matrix(1,0,0,-1,1255.0662,1139.7738)" stroke-width="1.7" stroke-linecap="round" stroke-linejoin="round" fill="none" stroke="#000000" d="M0 0C-3.24 1.21-15.56 2.26-18.49 .85"/>
<path transform="matrix(1,0,0,-1,1245.6062,1159.2538)" stroke-width="1.7" stroke-linecap="round" stroke-linejoin="round" fill="none" stroke="#000000" d="M0 0C-1.1-9.73-7.19-19.3-8.99-28.69-2.9-29.11 3.52-29.22 9.53-29.34 7.39-18.56 3.22-8.95 .17 .06 .11 .23 .06 .39 0 .56"/>
<path transform="matrix(1,0,0,-1,1323.2661,1137.2438)" stroke-width="1.7" stroke-linecap="round" stroke-linejoin="round" fill="none" stroke="#000000" d="M0 0C9.92-16.09 22.41-31.5 34.44-46.01"/>
<path transform="matrix(1,0,0,-1,1357.7062,1183.2538)" stroke-width="1.7" stroke-linecap="round" stroke-linejoin="round" fill="none" stroke="#000000" d="M0 0C-5.82-12.78-10.8-25.94-16.37-38.85-19.37-45.8-25-55.41-26.12-62.97"/>
<path transform="matrix(1,0,0,-1,1372.1062,1194.8338)" stroke-width="1.7" stroke-linecap="round" stroke-linejoin="round" fill="none" stroke="#000000" d="M0 0C-3.21-8.59-7.57-16.66-10.63-25.35-12.43-30.47-14.08-35.65-15.68-40.83-16.49-43.45-17.83-48.83-18.78-50.68"/>
<path transform="matrix(1,0,0,-1,1353.3262,1245.5138)" stroke-width="1.7" stroke-linecap="round" stroke-linejoin="round" fill="none" stroke="#000000" d="M0 0C-4.23-.14-11.18-.98-15.94-.99-17.51-.99-21.39-1.19-21.74-.71"/>
<path transform="matrix(1,0,0,-1,1372.1762,1194.7638)" stroke-width="1.7" stroke-linecap="round" stroke-linejoin="round" fill="none" stroke="#000000" d="M0 0C0-.01 .01-.01 .01-.02 1.21-2.06 2.2-3.26 3.38-4.87 6.23-8.8 8.75-12.89 11.79-16.68 16.39-22.41 20.88-28.19 25.21-34.11 28.16-38.15 32.4-44.82 36.21-49.06"/>
<path transform="matrix(1,0,0,-1,1383.8262,1178.5938)" stroke-width="1.7" stroke-linecap="round" stroke-linejoin="round" fill="none" stroke="#000000" d="M0 0C3.31-4.95 7.69-10.28 10.84-14.47 14.21-18.96 17.55-23.44 20.79-28.02 25.07-34.07 29.46-40 33.81-45.96 37.18-50.58 40.92-55.25 43.9-60"/>
<path transform="matrix(1,0,0,-1,1408.2462,1243.8237)" stroke-width="1.7" stroke-linecap="round" stroke-linejoin="round" fill="none" stroke="#000000" d="M0 0H.14C6.65-.11 17.68 2.12 22.02 1.84"/>
<path transform="matrix(1,0,0,-1,1430.2661,1241.9838)" stroke-width="1.7" stroke-linecap="round" stroke-linejoin="round" fill="none" stroke="#000000" d="M0 0C-.7 .99-1.67 2.26-2.54 3.39"/>
<path transform="matrix(1,0,0,-1,1323.3961,1137.3738)" stroke-width="1.7" stroke-linecap="round" stroke-linejoin="round" fill="none" stroke="#000000" d="M0 0C-.03 .02-.07 .07-.13 .13-.14 .13-.14 .14-.14 .14-.56 .61-1.65 2.03-2.02 2.7 5.3 2.27 13.98 2.82 20.19 2.26"/>
<path transform="matrix(1,0,0,-1,1343.7262,1135.1138)" stroke-width="1.7" stroke-linecap="round" stroke-linejoin="round" fill="none" stroke="#000000" d="M0 0C1.7-2.54 7.38-10.93 9.49-14.03 12.62-18.64 15.97-23.02 19.38-27.43 21.55-30.25 23.76-33.7 26.4-36"/>
<path transform="matrix(1,0,0,-1,1370.4061,1171.1138)" stroke-width="1.7" stroke-linecap="round" stroke-linejoin="round" fill="none" stroke="#000000" d="M0 0C4.13 8.03 8.36 15.97 12.43 24.02 13.8 26.74 15.7 29.11 17.23 31.75 18.3 33.59 20.84 38.37 20.84 38.37 20.84 38.37 28.73 38.4 32.47 38.26 35.97 38.12 40.56 38.29 44.33 37.97 40.38 34.16 38 31.12 34.5 26.55 29.9 20.56 25.93 14.01 22.17 7.47 19.35 2.57 15.79-2.39 13.39-7.4"/>
<path transform="matrix(1,0,0,-1,1456.8062,1131.3037)" stroke-width="1.7" stroke-linecap="round" stroke-linejoin="round" fill="none" stroke="#000000" d="M0 0C.01-17.18-.7-34.3 .03-51.48 .82-70.1 .86-89.01 .05-107.58V-107.65"/>
<path transform="matrix(1,0,0,-1,1456.5261,1131.0238)" stroke-width="1.7" stroke-linecap="round" stroke-linejoin="round" fill="none" stroke="#000000" d="M0 0C.08 .01 .15 .02 .23 .03V.04C3.64 .57 6.04 .51 8.33 .43 10.75 .33 12.31 .5 14.68 .71 16.25 .85 18.36 1.48 19.72 .8 18.42-4 19.48-10.42 19.48-15.42 19.48-26.98 20.21-38.57 19.74-50.12 18.97-69.01 20.58-88.11 19.44-106.97 15.75-107.18 12.18-106.71 8.53-107.09 6.29-107.32 2.17-108.29 .43-107.86"/>
<path transform="matrix(1,0,0,-1,778.3162,1250.9238)" stroke-width="1.7" stroke-linecap="round" stroke-linejoin="round" fill="none" stroke="#000000" d="M0 0C-15.53 7.92-40.39 6.9-48.37 5.22-61.34 2.49-74.95-1.03-86.14-8.13-98.41-15.91-105.9-28.18-111.62-40.97-124.98-70.8-132.78-109.37-108.35-136.24-90.08-156.34-63.61-174.7-34.14-171.65-23.97-170.59-13.44-168.97-4.84-163.3 1.26-159.29 7.68-156.02 13.56-151.66 24.79-143.33 29.45-136.1 36.42-124.53 38.97-120.3 43.55-109.69 44.33-104.87 45.36-98.57 46.59-90.78 46.59-84.39 46.59-62.98 41.91-47.39 31.06-29.22 24.28-17.87 12.01-6.24 0 0Z"/>
<path transform="matrix(1,0,0,-1,931.6362,1291.9638)" stroke-width="1.7" stroke-linecap="round" stroke-linejoin="round" fill="none" stroke="#000000" d="M0 0C30.57 .95 61.04-2.47 91.51-4.79 106.34-5.93 121.17-6.8 136.01-6.78 173.65-6.72 211.01-5.33 248.61-6.84 377.43-12.01 506.26-13.55 635.28-13.55H635.62C669.13-13.55 702.65-13.58 736.16-13.55 752.99-13.54 769.68-14.62 786.49-14.69 800.1-14.75 819.95-13.36 830.11-15.81"/>
<path transform="matrix(1,0,0,-1,1761.7462,1307.7738)" stroke-width="1.7" stroke-linecap="round" stroke-linejoin="round" fill="none" stroke="#000000" d="M0 0C39.06-7.34 82.74 1.28 122.36 1.14 169.72 .97 216.49-10.25 264.11-10.16 307.19-10.08 350.02-7.91 393.04-7.91"/>
<path transform="matrix(1,0,0,-1,2668.6663,1016.3838)" stroke-width="1.7" stroke-linecap="round" stroke-linejoin="round" fill="none" stroke="#000000" d="M0 0C-16.8-1.76-33.52-5.35-49.91-9.23-54.28-10.27-58.62-11.32-62.93-12.37-77.55-15.92-94.38-18.37-108.3-23.92-99.58-40.89-88.75-57.26-78.36-73.68-75.04-78.93-71.77-84.18-68.62-89.47-64.57-96.27-53.74-111.23-53.08-115.2"/>
<path transform="matrix(1,0,0,-1,2615.5863,1131.5838)" stroke-width="1.7" stroke-linecap="round" stroke-linejoin="round" fill="none" stroke="#000000" d="M0 0C14.16 .68 28.37-.22 42.63 1.13 53.27 2.13 67.17 5.86 76.9 3.31 77.25 3.3 77.39 3.35 77.39 3.44 77.39 3.73 75.97 4.42 75.67 4.52"/>
<path transform="matrix(1,0,0,-1,2618.976,1026.5537)" stroke-width="1.7" stroke-linecap="round" stroke-linejoin="round" fill="none" stroke="#000000" d="M0 0C-1.13-15.63 1.94-28.22-7.91-43.52-13.67-52.46-19.75-57.82-28.24-63.24"/>
<path transform="matrix(1,0,0,-1,776.9061,421.75379)" stroke-width="1.7" stroke-linecap="round" stroke-linejoin="round" fill="none" stroke="#000000" d="M0 0C5.76-10.88 10.49-22.34 16.81-32.74 21.36-40.21 14.91-43.61 15.81-51.1 17.53-65.63 37.42-76.13 37.89-90.61 38.21-100.64 26.87-97.61 20.39-97.58 27.12-91.26 10.61-86.72 6.31-88.76 6.21-91.45 8.61-93.2 9.53-95.35 2.52-95.66-8.96-90.54-1.69-81.99 2.05-77.59 8.58-81.99 12.42-77.93"/>
<path transform="matrix(1,0,0,-1,797.2361,520.0138)" stroke-width="1.7" stroke-linecap="round" stroke-linejoin="round" fill="none" stroke="#000000" d="M0 0C-1.93-3.43-.74-7.32-1.26-10.72-2.05-15.96-1.76-15.57-7.08-17.5-12.72-19.56-18.68-21.57-21.8-27.1-16.67-30.48-9.17-30.91-4.58-35.13-5.85-38.73-10.79-37.3-11.87-40.64-12.83-43.58-8.49-50.33-7.91-53.57-6.42-61.84-9.79-68.93-16.07-74.3-22.05-79.41-31.01-83.13-38.92-83.01-43.82-82.93-47.95-80.27-52.78-79.36-55.93-78.77-59.03-78.32-62.12-77.9-69.11-76.94-76.01-76.11-83.12-74-104.34-67.7-120.64-47.37-128.19-27.67"/>
<path transform="matrix(1,0,0,-1,672.4362,367.54383)" stroke-width="1.7" stroke-linecap="round" stroke-linejoin="round" fill="none" stroke="#000000" d="M0 0C22.85 3.62 40.97 2.24 62.96-7.06 85.83-16.71 94.87-27.67 104.75-54.21 104.69-54.17 104.63-54.12 104.57-54.08 101.49-51.88 99.33-50.64 95.49-49.16 96.04-52.53 97.37-58.4 96.1-61.34 84.95-47.71 58.31-29.66 43.72-47.16 36.55-55.75 38.02-67.08 43.29-76.74 39.42-74.77 35.12-72.74 31.72-70.07 32.5-74.62 33.03-79.9 32.68-84.64 29.37-84.16 26.75-78.73 24.33-76.33 24.64-81.16 24.92-85.7 23.77-90.29 21.12-89.84 18.87-87.25 17.08-85.33 13.24-94.94 12-106.92 6.8-115.71 2.89-113.68 .18-107.33-2.34-103.57-1.18-108.07-1.98-110.9-2.34-115.18-5.17-113.13-8.5-109.95-10.66-106.86-10.77-109.37-10.74-111.96-10.71-114.5-13.16-109.47-14.97-103.34-16.94-98.82"/>
<path transform="matrix(1,0,0,-1,655.4962,466.36378)" stroke-width="1.7" stroke-linecap="round" stroke-linejoin="round" fill="none" stroke="#000000" d="M0 0C-3.47 5.96-6.08 13.08-14.64 13.01-24.72 12.93-33.14 .34-32.77-8.99-32.43-17.37-27.19-23.27-23-30.06-19.97-34.97-17.74-40.04-16.27-45.43-15.65-47.65-15.17-49.93-14.81-52.27-14.03-57.31-12.81-63.01-6.89-64.56-2.79-65.63 .99-63.65 1.13-59.29"/>
<path transform="matrix(1,0,0,-1,656.6262,491.21376)" stroke-width="1.7" stroke-linecap="round" stroke-linejoin="round" fill="none" stroke="#000000" d="M0 0C-13.24-3.79-.75-14.05-1.13-19.76"/>
<path transform="matrix(1,0,0,-1,656.6262,491.21376)" stroke-width="1.7" stroke-linecap="round" stroke-linejoin="round" fill="none" stroke="#000000" d="M0 0C.58 6.31-9.24 34.15-17.84 21.42-22.07 15.15-17.86 5.35-15.53-.56-13.02-6.91-12.22-13.55-10.04-19.7-6.39-16.25-2.86-17.74-1.26-19.85-1.22-19.91-1.17-19.98-1.13-20.04"/>
<path transform="matrix(1,0,0,-1,639.1161,511.82374)" stroke-width="1.7" stroke-linecap="round" stroke-linejoin="round" fill="none" stroke="#000000" d="M0 0C.97-6.7-4.01-11.86-5.11-18.5-6.21-25.15-7.67-32.81-7.43-39.59-9.53-36.18-12.02-32.01-15.16-29.65-15.54-34.75-16.69-39.74-17.07-44.88-17.24-44.66-17.4-44.42-17.56-44.17-18.79-42.29-20-39.73-20.89-37.55"/>
<path transform="matrix(1,0,0,-1,671.3062,367.54383)" stroke-width="1.7" stroke-linecap="round" stroke-linejoin="round" fill="none" stroke="#000000" d="M0 0C-12.68-.13-24.25-9.1-34.02-16.22-51.85-29.21-62.64-42.59-70.05-63.67-79.64-90.97-76.78-123.67-65.07-149.55-59.68-161.45-58.45-169.41-53.08-181.83"/>
<path transform="matrix(1,0,0,-1,621.6161,555.58377)" stroke-width="1.7" stroke-linecap="round" stroke-linejoin="round" fill="none" stroke="#000000" d="M0 0C-.02-.13-.05-.27-.06-.41-1.04-6.6 .8-13.93 .56-20.37 .48-22.52 .19-25.3 .45-27.06V-27.12C.48-27.32 .52-27.5 .56-27.67"/>
<path transform="matrix(1,0,0,-1,735.1161,597.9437)" stroke-width="1.7" stroke-linecap="round" stroke-linejoin="round" fill="none" stroke="#000000" d="M0 0C-1.29-2.47-2.9-5.95-2.86-8.84-2.83-11-1.48-12.45-1.47-14.26-1.47-14.62-1.52-15-1.65-15.4-2.96-19.46-8.82-22.57-8.36-27.9-8.31-28.51-8.18-29.14-7.94-29.8-7.93-29.84-7.92-29.89-7.9-29.93"/>
<path transform="matrix(1,0,0,-1,622.1761,582.6937)" stroke-width="1.7" stroke-linecap="round" stroke-linejoin="round" fill="none" stroke="#000000" d="M0 0C3.31-9.48 13.73-19.02 21.19-25.19 32.83-34.8 46.96-42.73 61.28-47.45 72.11-51.01 84.71-54.14 96.07-51.62 99.09-50.94 104.83-48.63 105-45.05 105.03-44.45 104.91-43.82 104.58-43.15 104.55-43.08 104.51-43 104.47-42.92"/>
<path transform="matrix(1,0,0,-1,621.6161,582.6937)" stroke-width="1.7" stroke-linecap="round" stroke-linejoin="round" fill="none" stroke="#000000" d="M0 0C-4.84-5.37-13.74-6.73-20.41-9-30.23-12.35-40.18-15.61-50.15-18.51-69.44-24.11-89.72-29.03-108.12-37.29-136.97-50.23-153.96-75.35-166.71-103.25-174.2-119.63-180.02-136.35-185.23-153.62-188.72-165.18-194.46-176.29-197.09-188.05"/>
<path transform="matrix(1,0,0,-1,596.7662,709.7538)" stroke-width="1.7" stroke-linecap="round" stroke-linejoin="round" fill="none" stroke="#000000" d="M0 0C-3.71-9.68-5.49-21.51-7.95-31.63-11-44.19-16.48-57.46-16.97-70.33-17.43-82.25-16.99-94.22-17.59-106.1-27.38-102.72-36.53-101.34-46.29-100.74-48.73-100.59-51.22-100.49-53.76-100.42-61.54-100.2-69.86-99.1-75.95-94.67-84.34-88.56-87.32-86.93-97.81-87.94-107.8-88.9-118.01-94.74-128.1-91.97-137.49-89.39-140.61-81.19-150.89-81.19-154.64-81.19-158.05-81.42-161.48-81.27-163.71-81.16-165.96-80.9-168.31-80.31-171.35-79.55-174.46-77.98-177.09-79.46-175.67-73.64-174.79-66.5-172.23-60.99-172.05-60.61-171.87-60.23-171.67-59.86"/>
<path transform="matrix(1,0,0,-1,733.4261,612.0537)" stroke-width="1.7" stroke-linecap="round" stroke-linejoin="round" fill="none" stroke="#000000" d="M0 0C.07-.05 .15-.1 .22-.15 16.44-11.18 34.82-19.42 49.83-32.28 64.27-44.65 71.58-65.77 77.24-83.36 84.35-105.42 86.04-130.63 89.79-153.51 91.53-164.14 93.29-177.02 98.05-186.88 93.51-183.98 87.58-182.28 81.87-182.44 77.55-182.56 73.35-183.75 69.96-186.28 66.92-188.56 65.96-191.36 62.43-193.14 61.42-193.65 56.95-194.71 56.47-194.83 56.44-194.84 56.43-194.84 56.43-194.84"/>
<path transform="matrix(1,0,0,-1,769.5662,679.2538)" stroke-width="1.7" stroke-linecap="round" stroke-linejoin="round" fill="none" stroke="#000000" d="M0 0C8.47-25.57 18.85-48.96 21.05-76.02 22.34-92.02 21.96-108.39 19.06-124.25 18.86-125.32 18.62-126.37 18.33-127.39 17.1-131.84 15.21-135.95 14.07-140.46 12.37-147.21 12.49-154.57 11.87-161.48 11.32-167.64 11.09-173.81 10.2-179.68 10.18-179.86 10.16-180.03 10.13-180.21 10.63-181.32 10.41-180.19 10.65-179.7 10.67-179.65 10.7-179.61 10.73-179.58"/>
<path transform="matrix(1,0,0,-1,815.3062,795.0238)" stroke-width="1.7" stroke-linecap="round" stroke-linejoin="round" fill="none" stroke="#000000" d="M0 0C0-17.2-.16-33.98-1.08-51.11-1.32-55.54-.51-60.82-1.58-64.83-1.36-65.11-1.25-65.22-1.2-65.22-1.09-65.22-1.32-64.61-1.13-64.37"/>
<path transform="matrix(1,0,0,-1,435.2562,791.6338)" stroke-width="1.7" stroke-linecap="round" stroke-linejoin="round" fill="none" stroke="#000000" d="M0 0C-7.78-15.59-10.96-35.37-13.78-52.48-14.8-58.65-16.58-66.56-15.81-72.85"/>
<path transform="matrix(1,0,0,-1,550.4562,810.8338)" stroke-width="1.7" stroke-linecap="round" stroke-linejoin="round" fill="none" stroke="#000000" d="M0 0C-7.38-14.4-12.45-37.4-16.94-51.95"/>
<path transform="matrix(1,0,0,-1,582.6462,613.7538)" stroke-width="1.7" stroke-linecap="round" stroke-linejoin="round" fill="none" stroke="#000000" d="M0 0C-1.95-5.56 10.63-10.81 13.31-14.96 18.75-23.37 12.02-30.11 12.74-38.59 13.21-44.18 18.26-48.18 19.26-54.15 20.39-60.89 18.07-68.01 19.77-74.54"/>
<path transform="matrix(1,0,0,-1,652.6661,828.9038)" stroke-width="1.7" stroke-linecap="round" stroke-linejoin="round" fill="none" stroke="#000000" d="M0 0C10.74 16.2 26.15 29.05 38.4 44.05"/>
<path transform="matrix(1,0,0,-1,693.8962,806.3138)" stroke-width="1.7" stroke-linecap="round" stroke-linejoin="round" fill="none" stroke="#000000" d="M0 0C5.02 7.01 8.37 15.08 13.88 21.97 19.73 29.29 26.57 35.35 33.32 41.79"/>
<path transform="matrix(1,0,0,-1,750.3661,633.5138)" stroke-width="1.7" stroke-linecap="round" stroke-linejoin="round" fill="none" stroke="#000000" d="M0 0C3.53-4.31 7.92-7.33 10.22-12.61 12.68-18.3 12.57-24.88 15.25-30.5"/>
<path transform="matrix(1,0,0,-1,731.1661,473.42384)" stroke-width="1.7" stroke-linecap="round" stroke-linejoin="round" fill="none" stroke="#000000" d="M0 0C3.82-1.47 6.68-4.65 10.64-5.92 14.62-7.2 18.93-7.73 23.14-7.86 23.7-7.88 24.26-7.9 24.82-7.9 27.37-7.93 30.83-7.97 33.96-7.43 36.89-6.94 39.54-5.94 40.94-3.95"/>
<path transform="matrix(1,0,0,-1,731.1661,473.1438)" stroke-width="1.7" stroke-linecap="round" stroke-linejoin="round" fill="none" stroke="#000000" d="M0 0C3.68 2.78 7.82 5.6 13.18 5.65 16.41 5.68 19.62 5.76 22.81 5.58 24.92 5.47 27.01 5.24 29.08 4.8 33.37 3.9 36.72 3.26 39.25-.57 39.85-1.49 40.58-2.73 41.25-4.07 42.28-6.13 43.17-8.43 43.26-10.15 43.4-12.95 41.42-14.28 38.67-13.01 36.6-12.05 35.39-9.43 33.96-7.71 33.93-7.68 33.91-7.65 33.88-7.62"/>
<path transform="matrix(1,0,0,-1,781.1362,453.37379)" stroke-width="1.7" stroke-linecap="round" stroke-linejoin="round" fill="none" stroke="#000000" d="M0 0C-2.18-2.34-4.8-4.25-7.08-6.5-6.13-3.19-4.14-.4-2.85 2.75-6.25 1.12-7.9-2.89-11.5-4.41-10.55-1.6-8.53 .91-8.15 3.91-9.82 1.76-11.3-1.7-13.52-3.17-13.5-.19-12.48 2.95-11.98 5.89-13.78 3.68-14.31 .4-16.08-1.76-15.82 1.37-15.05 4.47-15.25 7.63-16.54 5.12-17.31 2.14-18.96-.15-19.67 2.08-18.41 4.71-18.65 7.09-20.67 5.5-21.01 1.75-22.26-.63-22.38 1.75-21.81 5.01-22.48 7.16-23.32 4.64-23.96 2.05-24.81-.48-24.81 1.49-24.83 3.56-25.69 5.37-26.47 3.62-26.45 1.56-27.04-.3-27.67 1.74-27.55 3.94-28 6.02-29.2 4.29-28.96 1.49-29.92-.39-30.83 1.14-30.51 3.16-31.12 4.86-32.2 3.28-31.88 .92-32.97-.62-33.2 1.01-33.48 2.65-33.94 4.22-34.52 2.51-34.6 .71-34.99-1.04-35.89 .29-36.08 2.23-36.98 3.69-38.11 2.29-38.02 .05-38.44-1.69-39.73-1.02-40.2 1.15-41.25 2.16-41.85 .38-41.66-1.66-42.3-3.34-43.03-2.22-43.61-.9-44.63-.11-44.85-1.09-45.09-2.18-45.42-3.13-46.44-2.78-47.11-1.76-47.74-.84-48.46-2.15-48.12-3.69-48.57-5.11-49.77-4.61-50.37-3.12-51.43-2.61-51.67-3.84-51.59-5.1-52.04-6.25-53.07-5.74-53.86-4.77-54.82-4.23-55.08-5.32-55.16-6.48-55.06-7.61-56.56-7.28-58.98-5.33-59.85-6.5"/>
<path transform="matrix(1,0,0,-1,764.7662,490.93373)" stroke-width="1.7" stroke-linecap="round" stroke-linejoin="round" fill="none" stroke="#000000" d="M0 0C-2.44-3.89-8.84-7.01-13.27-7.29-16.33-7.49-19.5-6.65-22.59-6.77"/>
<path transform="matrix(1,0,0,-1,754.0361,467.49378)" stroke-width="1.7" stroke-linecap="round" stroke-linejoin="round" fill="none" stroke="#000000" d="M0 0C-.02-.02-.04-.04-.06-.07-3.34-3.38-4.36-10.88 .28-13.27"/>
<path transform="matrix(1,0,0,-1,760.8162,475.11378)" stroke-width="1.7" stroke-linecap="round" stroke-linejoin="round" fill="none" stroke="#000000" d="M0 0C-.02 .02-.05 .03-.07 .06-1.44 1.09 1.06 2.91 2.1 .98 3.01-.68 1.16-.82 .01-.19-.22-.06-.42 .1-.57 .28"/>
<path transform="matrix(1,0,0,-1,766.1761,507.0238)" stroke-width="1.7" stroke-linecap="round" stroke-linejoin="round" fill="none" stroke="#000000" d="M0 0C-2.71-9.01-8.94-13.42-14.99-20.09-17.93-23.33-25.28-34.77-23.44-38.96"/>
<path transform="matrix(1,0,0,-1,768.4362,524.8137)" stroke-width="1.7" stroke-linecap="round" stroke-linejoin="round" fill="none" stroke="#000000" d="M0 0C-2.13-2.53-2.91-7.8-3.67-11.01"/>
<path transform="matrix(1,0,0,-1,774.3661,525.09378)" stroke-width="1.7" stroke-linecap="round" stroke-linejoin="round" fill="none" stroke="#000000" d="M0 0C-.33-2.41-.96-5.05-1.7-7.34"/>
<path transform="matrix(1,0,0,-1,780.8561,525.09378)" stroke-width="1.7" stroke-linecap="round" stroke-linejoin="round" fill="none" stroke="#000000" d="M0 0C-.6-2.22-.93-5.06-.84-7.34"/>
<path transform="matrix(1,0,0,-1,785.6561,524.8137)" stroke-width="1.7" stroke-linecap="round" stroke-linejoin="round" fill="none" stroke="#000000" d="M0 0V-6.77"/>
<path transform="matrix(1,0,0,-1,791.3062,524.8137)" stroke-width="1.7" stroke-linecap="round" stroke-linejoin="round" fill="none" stroke="#000000" d="M0 0C-.02-1.44 .48-2.79 .56-4.23"/>
<path transform="matrix(1,0,0,-1,681.7562,499.96376)" stroke-width="1.7" stroke-linecap="round" stroke-linejoin="round" fill="none" stroke="#000000" d="M0 0C.39-1.89 .92-3.78 1.41-5.65"/>
<path transform="matrix(1,0,0,-1,671.8661,512.6738)" stroke-width="1.7" stroke-linecap="round" stroke-linejoin="round" fill="none" stroke="#000000" d="M0 0C.11-2.28 .71-4.5 .85-6.77"/>
<path transform="matrix(1,0,0,-1,681.7562,531.3037)" stroke-width="1.7" stroke-linecap="round" stroke-linejoin="round" fill="none" stroke="#000000" d="M0 0C.63-1.58 .9-3.39 1.13-5.08"/>
<path transform="matrix(1,0,0,-1,689.6561,521.70376)" stroke-width="1.7" stroke-linecap="round" stroke-linejoin="round" fill="none" stroke="#000000" d="M0 0C.18-1.31 .7-2.56 1.41-3.67"/>
<path transform="matrix(1,0,0,-1,676.3862,542.60379)" stroke-width="1.7" stroke-linecap="round" stroke-linejoin="round" fill="none" stroke="#000000" d="M0 0C.31-1.73 .8-3.43 1.41-5.08"/>
<path transform="matrix(1,0,0,-1,690.2261,558.4138)" stroke-width="1.7" stroke-linecap="round" stroke-linejoin="round" fill="none" stroke="#000000" d="M0 0C-.11-1.71 .39-3.69 1.41-5.08"/>
<path transform="matrix(1,0,0,-1,694.7361,541.47378)" stroke-width="1.7" stroke-linecap="round" stroke-linejoin="round" fill="none" stroke="#000000" d="M0 0C.69-2.03 1.84-4.35 1.98-6.49"/>
<path transform="matrix(1,0,0,-1,713.6561,556.1538)" stroke-width="1.7" stroke-linecap="round" stroke-linejoin="round" fill="none" stroke="#000000" d="M0 0C.41-1.47 .67-3 .85-4.52"/>
<path transform="matrix(1,0,0,-1,706.3162,562.08377)" stroke-width="1.7" stroke-linecap="round" stroke-linejoin="round" fill="none" stroke="#000000" d="M0 0C.39-1.23 .85-2.43 1.13-3.67"/>
<path transform="matrix(1,0,0,-1,702.0862,576.48379)" stroke-width="1.7" stroke-linecap="round" stroke-linejoin="round" fill="none" stroke="#000000" d="M0 0C.98-1.45 1.04-3.2 1.69-4.8"/>
<path transform="matrix(1,0,0,-1,707.7261,540.9038)" stroke-width="1.7" stroke-linecap="round" stroke-linejoin="round" fill="none" stroke="#000000" d="M0 0C.14-1.69 .5-3.35 1.41-4.8"/>
<path transform="matrix(1,0,0,-1,730.3162,558.6937)" stroke-width="1.7" stroke-linecap="round" stroke-linejoin="round" fill="none" stroke="#000000" d="M0 0C.64-1.47 1.36-2.89 1.41-4.52"/>
<path transform="matrix(1,0,0,-1,724.6661,569.1438)" stroke-width="1.7" stroke-linecap="round" stroke-linejoin="round" fill="none" stroke="#000000" d="M0 0C.59-1.3 1.18-2.61 1.7-3.95"/>
<path transform="matrix(1,0,0,-1,718.7361,578.45376)" stroke-width="1.7" stroke-linecap="round" stroke-linejoin="round" fill="none" stroke="#000000" d="M0 0C.91-1.87 1.7-3.94 2.26-5.93"/>
<path transform="matrix(1,0,0,-1,738.2261,584.6738)" stroke-width="1.7" stroke-linecap="round" stroke-linejoin="round" fill="none" stroke="#000000" d="M0 0C-.08-1.4 .46-2.75 1.13-3.95"/>
<path transform="matrix(1,0,0,-1,747.5361,567.72378)" stroke-width="1.7" stroke-linecap="round" stroke-linejoin="round" fill="none" stroke="#000000" d="M0 0C.66-1.56 .99-3.19 1.42-4.8"/>
<path transform="matrix(1,0,0,-1,748.6661,586.9238)" stroke-width="1.7" stroke-linecap="round" stroke-linejoin="round" fill="none" stroke="#000000" d="M0 0C.32-1.36 .88-2.61 1.13-3.96"/>
<path transform="matrix(1,0,0,-1,763.6362,588.9038)" stroke-width="1.7" stroke-linecap="round" stroke-linejoin="round" fill="none" stroke="#000000" d="M0 0C.25-1.24 .61-2.44 .85-3.67"/>
<path transform="matrix(1,0,0,-1,760.2462,577.0438)" stroke-width="1.7" stroke-linecap="round" stroke-linejoin="round" fill="none" stroke="#000000" d="M0 0C.09-.77-.01-1.54-.28-2.26"/>
<path transform="matrix(1,0,0,-1,771.2562,565.1837)" stroke-width="1.7" stroke-linecap="round" stroke-linejoin="round" fill="none" stroke="#000000" d="M0 0C.51-1.73 .81-3.5 1.7-5.09"/>
<path transform="matrix(1,0,0,-1,770.4161,581.5637)" stroke-width="1.7" stroke-linecap="round" stroke-linejoin="round" fill="none" stroke="#000000" d="M0 0C.71-2.21 1.39-4.47 1.69-6.78"/>
<path transform="matrix(1,0,0,-1,782.8362,577.8938)" stroke-width="1.7" stroke-linecap="round" stroke-linejoin="round" fill="none" stroke="#000000" d="M0 0C.55-1.52 .92-3.19 1.13-4.8"/>
<path transform="matrix(1,0,0,-1,761.9362,563.7738)" stroke-width="1.7" stroke-linecap="round" stroke-linejoin="round" fill="none" stroke="#000000" d="M0 0C.22-1.51 .31-3.02 .57-4.52"/>
<path transform="matrix(1,0,0,-1,738.7861,572.5238)" stroke-width="1.7" stroke-linecap="round" stroke-linejoin="round" fill="none" stroke="#000000" d="M0 0C-.06-1.12 .24-2.18 .85-3.11"/>
<path transform="matrix(1,0,0,-1,728.9061,587.4938)" stroke-width="1.7" stroke-linecap="round" stroke-linejoin="round" fill="none" stroke="#000000" d="M0 0C-.02-1.47 .43-2.8 .56-4.23"/>
<path transform="matrix(1,0,0,-1,668.7662,491.21376)" stroke-width="1.7" stroke-linecap="round" stroke-linejoin="round" fill="none" stroke="#000000" d="M0 0C.48-1.46 .83-2.97 .85-4.52"/>
<path transform="matrix(1,0,0,-1,761.6561,474.5537)" stroke-width="1.7" stroke-linecap="round" stroke-linejoin="round" fill="none" stroke="#000000" d="M0 0C-.15 .25-.36-.1-.52 .08-.53 .09-.54 .1-.54 .12-.58 .16-.6 .22-.62 .29H-.55C-.49 .29-.43 .29-.38 .3-.24 .3-.12 .3-.03 .29 .31 .27 .33 .16 .4-.23 .42-.28 .42-.33 .43-.39 .44-.42 .45-.46 .45-.49 .47-.58 .49-.69 .52-.8 .33-.75 .17-.71 .05-.67-.4-.53-.43-.42-.52 .08-.52 .1-.52 .12-.53 .14-.54 .18-.54 .23-.55 .29-.57 .36-.58 .44-.6 .53 1.48 .5 1.15-.11 .45-.49 .32-.56 .18-.62 .05-.67-.3-.79-.65-.84-.82-.73-.89-.69-.93-.61-.91-.5-.89-.35-.77-.15-.54 .12-.54 .13-.53 .13-.53 .14-.48 .19-.44 .24-.38 .3-.33 .35-.28 .41-.22 .47-.15 .42-.09 .35-.03 .29 .13 .12 .25-.08 .4-.23 .43-.27 .47-.3 .5-.33 .48-.35 .45-.37 .43-.39 .22-.55-.02-.51-.28-.28"/>
</g>
</g>
</g>
</svg>
